<svg xmlns="http://www.w3.org/2000/svg" xmlns:xlink="http://www.w3.org/1999/xlink" width="120.000008" height="120.000008" viewBox="0 0 120 120" fill="none">
	<rect id="Ethereum" width="120.000000" height="120.000000" fill="#FFFFFF" fill-opacity="0"/>
	<circle id="Ethereum (ETH)" cx="60.000000" cy="60.000000" r="60.000000" fill="#EDF0F4" fill-opacity="1.000000"/>
	<path id="Ethereum (ETH)" d="M59.83 24L59.35 25.62L59.35 72.66L59.83 73.13L81.67 60.23L59.83 24Z" fill="#343434" fill-opacity="1.000000" fill-rule="nonzero"/>
	<path id="Ethereum (ETH)" d="M59.83 24L38 60.23L59.83 73.13L59.83 50.3L59.83 24Z" fill="#8C8C8C" fill-opacity="1.000000" fill-rule="nonzero"/>
	<path id="Ethereum (ETH)" d="M59.83 77.27L59.56 77.6L59.56 94.35L59.83 95.14L81.68 64.37L59.83 77.27Z" fill="#3C3C3B" fill-opacity="1.000000" fill-rule="nonzero"/>
	<path id="Ethereum (ETH)" d="M59.83 95.14L59.83 77.27L38 64.37L59.83 95.14Z" fill="#8C8C8C" fill-opacity="1.000000" fill-rule="nonzero"/>
	<path id="Ethereum (ETH)" d="M59.83 73.13L81.67 60.23L59.83 50.3L59.83 73.13Z" fill="#141414" fill-opacity="1.000000" fill-rule="nonzero"/>
	<path id="Ethereum (ETH)" d="M38 60.23L59.83 73.13L59.83 50.3L38 60.23Z" fill="#393939" fill-opacity="1.000000" fill-rule="nonzero"/>
</svg>