<svg width="120.000000" height="120.000008" viewBox="0 0 120 120" fill="none" xmlns="http://www.w3.org/2000/svg" xmlns:xlink="http://www.w3.org/1999/xlink">
	<rect id="Optimism" width="120.000000" height="120.000000" fill="#FFFFFF" fill-opacity="0"/>
	<circle id="circle" cx="60.000000" cy="60.000000" r="60.000000" fill="#FF0420" fill-opacity="1.000000"/>
	<path id="path" d="M42.75 77.25C40.83 77.25 39.06 76.99 37.41 76.48C35.77 75.96 34.39 75.18 33.26 74.15C32.14 73.12 31.33 71.82 30.85 70.27C30.39 68.72 30.33 66.92 30.66 64.85C30.91 63.54 31.17 62.23 31.44 60.93C31.74 59.62 32.05 58.3 32.35 56.96C33.36 52.86 35.16 49.74 37.78 47.61C40.39 45.48 43.92 44.42 48.36 44.42C50.27 44.42 52.04 44.69 53.65 45.24C55.29 45.76 56.67 46.55 57.8 47.61C58.95 48.68 59.76 49.98 60.21 51.53C60.7 53.08 60.76 54.89 60.4 56.96C60.18 58.3 59.92 59.62 59.62 60.93C59.35 62.23 59.06 63.54 58.75 64.85C57.72 69.01 55.9 72.13 53.28 74.2C50.67 76.23 47.16 77.25 42.75 77.25ZM43.34 70.68C44.98 70.68 46.43 70.2 47.67 69.23C48.92 68.25 49.8 66.7 50.32 64.57C50.65 63.24 50.94 61.98 51.18 60.79C51.46 59.6 51.7 58.37 51.91 57.1C52.31 54.97 52.13 53.42 51.37 52.44C50.61 51.47 49.41 50.99 47.76 50.99C46.12 50.99 44.68 51.47 43.43 52.44C42.22 53.42 41.35 54.97 40.83 57.1C40.5 58.37 40.2 59.6 39.92 60.79C39.68 61.98 39.44 63.24 39.19 64.57C38.83 66.7 39.01 68.25 39.74 69.23C40.47 70.2 41.67 70.68 43.34 70.68ZM62.26 76.8C61.96 76.8 61.71 76.69 61.53 76.48C61.35 76.26 61.29 75.99 61.35 75.66L67.64 46.02C67.7 45.68 67.87 45.41 68.14 45.19C68.42 44.98 68.71 44.88 69.01 44.88L81.14 44.88C82.99 44.88 84.67 45.09 86.16 45.51C87.68 45.94 88.94 46.59 89.94 47.47C90.94 48.36 91.64 49.47 92.04 50.8C92.43 52.11 92.45 53.65 92.08 55.41C91.32 58.9 89.77 61.49 87.43 63.16C85.12 64.83 82.01 65.67 78.08 65.67L71.93 65.67L69.83 75.66C69.77 75.99 69.6 76.26 69.33 76.48C69.09 76.69 68.8 76.8 68.46 76.8L62.26 76.8ZM73.11 59.38L78.36 59.38C79.6 59.38 80.71 59.04 81.69 58.37C82.69 57.7 83.34 56.69 83.65 55.32C83.8 54.53 83.83 53.83 83.74 53.22C83.65 52.61 83.33 52.13 82.78 51.76C82.26 51.4 81.46 51.21 80.37 51.21L74.89 51.21L73.11 59.38Z" fill="#FFFFFF" fill-opacity="1.000000" fill-rule="nonzero"/>
</svg>
