<svg width="50" height="50" viewBox="0 0 50 50" fill="none" xmlns="http://www.w3.org/2000/svg">
<circle cx="25" cy="25" r="25" fill="#FF0420"/>
<path d="M18.1319 32C16.624 32 15.3886 31.637 14.4255 30.9111C13.4752 30.1722 13 29.1222 13 27.7611C13 27.4759 13.0317 27.1259 13.095 26.7111C13.2598 25.7778 13.4942 24.6565 13.7983 23.3472C14.6599 19.7824 16.8838 18 20.4698 18C21.4455 18 22.3198 18.1685 23.0927 18.5056C23.8657 18.8296 24.4739 19.3222 24.9174 19.9833C25.3609 20.6315 25.5827 21.4093 25.5827 22.3167C25.5827 22.5889 25.551 22.9324 25.4876 23.3472C25.2976 24.5009 25.0695 25.6222 24.8034 26.7111C24.3599 28.487 23.5933 29.8157 22.5035 30.6972C21.4138 31.5657 19.9566 32 18.1319 32ZM18.398 29.2C19.1076 29.2 19.7095 28.9861 20.2037 28.5583C20.7105 28.1306 21.0717 27.4759 21.2871 26.5944C21.5785 25.3759 21.8003 24.313 21.9523 23.4056C22.003 23.1333 22.0283 22.8546 22.0283 22.5694C22.0283 21.3898 21.4265 20.8 20.2227 20.8C19.5131 20.8 18.9049 21.0139 18.398 21.4417C17.9038 21.8694 17.549 22.5241 17.3336 23.4056C17.1055 24.2741 16.8774 25.337 16.6494 26.5944C16.5987 26.8537 16.5733 27.1259 16.5733 27.4111C16.5733 28.6037 17.1815 29.2 18.398 29.2Z" fill="white"/>
<path d="M26.4554 31.8056C26.316 31.8056 26.2083 31.7602 26.1322 31.6694C26.0689 31.5657 26.0499 31.4491 26.0752 31.3194L28.6982 18.6806C28.7235 18.538 28.7932 18.4213 28.9073 18.3306C29.0213 18.2398 29.1417 18.1944 29.2684 18.1944H34.3243C35.7308 18.1944 36.8585 18.4926 37.7075 19.0889C38.5692 19.6852 39 20.5472 39 21.675C39 21.9991 38.962 22.3361 38.886 22.6861C38.5692 24.1769 37.9293 25.2787 36.9662 25.9917C36.0159 26.7046 34.7107 27.0611 33.0508 27.0611H30.4848L29.6105 31.3194C29.5852 31.462 29.5155 31.5787 29.4014 31.6694C29.2874 31.7602 29.167 31.8056 29.0403 31.8056H26.4554ZM33.1838 24.3778C33.716 24.3778 34.1785 24.2287 34.5714 23.9306C34.9768 23.6324 35.2429 23.2046 35.3697 22.6472C35.4077 22.4269 35.4267 22.2324 35.4267 22.0639C35.4267 21.688 35.319 21.4028 35.1036 21.2083C34.8881 21.0009 34.5207 20.8972 34.0011 20.8972H31.7203L30.998 24.3778H33.1838Z" fill="white"/>
</svg>
