<svg width="44.000000" height="44.000000" viewBox="0 0 44 44" fill="none" xmlns="http://www.w3.org/2000/svg" xmlns:xlink="http://www.w3.org/1999/xlink">
	<desc>
			Created with Pixso.
	</desc>
	<defs>
		<clipPath id="clip1143_138">
			<rect id="ALIENX Chain" rx="22.000000" width="44.000000" height="44.000000" fill="white" fill-opacity="0"/>
		</clipPath>
	</defs>
	<g clip-path="url(#clip1143_138)">
		<rect id="rect" rx="12.000000" width="44.000000" height="44.000000" fill="#000000" fill-opacity="1.000000"/>
		<path id="path" d="M34.37 22C34.37 28.83 28.83 34.37 22 34.37C15.16 34.37 9.62 28.83 9.62 22C9.62 17.95 11.56 14.35 14.57 12.09L12.1 9.62L22 9.62C28.83 9.62 34.37 15.16 34.37 22ZM19.36 29.73C15.52 29.73 12.4 26.61 12.4 22.77C12.4 22.52 12.42 22.28 12.44 22.03C12.68 22.01 12.93 22 13.18 22C17.02 22 20.14 25.11 20.14 28.96C20.14 29.2 20.12 29.45 20.1 29.69C19.86 29.72 19.61 29.73 19.36 29.73ZM24.62 29.73C28.47 29.73 31.58 26.61 31.58 22.77C31.58 22.52 31.57 22.28 31.55 22.03C31.3 22.01 31.06 22 30.81 22C26.97 22 23.85 25.11 23.85 28.96C23.85 29.2 23.86 29.45 23.89 29.69C24.13 29.72 24.38 29.73 24.62 29.73Z" fill="#D5F462" fill-opacity="1.000000" fill-rule="evenodd"/>
	</g>
</svg>
