<svg width="120.000000" height="120.000000" viewBox="0 0 120 120" fill="none" xmlns="http://www.w3.org/2000/svg" xmlns:xlink="http://www.w3.org/1999/xlink">
	<defs>
		<clipPath id="clip78_903">
			<rect id="Polygon zkEVM" width="120.000000" height="120.000000" transform="matrix(-1 0 0 1 120 0)" fill="white" fill-opacity="0"/>
		</clipPath>
	</defs>
	<g clip-path="url(#clip78_903)">
		<rect id="rect" rx="60.000000" width="120.000000" height="120.000000" transform="matrix(-1 0 0 1 120 0)" fill="#EDF0F4" fill-opacity="1.000000"/>
		<path id="path" d="M47.06 33.19L63.8 42.81L63.8 72.82L73.04 78.17L82.34 72.82L82.34 62.1L73.04 56.79L67.07 60.26L67.07 51.59L73.1 48.17L89.84 57.89L89.84 77.13L73.04 86.8L56.3 77.13L56.3 47.12L47 41.76L37.71 47.12L37.71 57.79L47 63.19L53.03 59.7L53.03 68.32L47.06 71.77L30.16 62.15L30.16 42.81L47.06 33.19Z" fill="#6C00F6" fill-opacity="1.000000" fill-rule="nonzero"/>
	</g>
</svg>
