<?xml version="1.0" encoding="UTF-8"?>
<svg id="Layer_1" data-name="Layer 1" xmlns="http://www.w3.org/2000/svg" version="1.1" viewBox="0 0 220.5 220.5">
  <defs>
    <style>
      .cls-1 {
        fill: #0a1530;
        stroke-width: 0px;
      }
    </style>
  </defs>
  <path class="cls-1" d="M96.4,180.1l18.3-20.5c.3-.3,0-.9-.4-.9h-20.1c-.1,0-.3,0-.4-.2l-17.1-19.2c-.1-.2-.2-.4,0-.6l28.5-49c0-.2,0-.4,0-.5l-11.9-20.4c-.2-.3-.7-.3-.9,0l-42.3,72.5c-.1.2,0,.4,0,.6l33.9,38.1c0,.1.2.2.4.2h11.5c.1,0,.3,0,.4-.2"/>
  <path class="cls-1" d="M108.9,40.5l-11.9,20.4c0,.2,0,.4,0,.5l12.3,21.2,32.7,56.1c.1.2,0,.4,0,.6l-17.2,19.3h0l-18.4,20.7c-.3.3,0,.9.4.9h27.5c.1,0,.3,0,.4-.2l33.9-38.1c.1-.2.2-.4,0-.6l-58.8-100.9c-.2-.3-.7-.3-.9,0"/>
</svg>