<svg width="120.000000" height="120.000000" viewBox="0 0 120 120" fill="none" xmlns="http://www.w3.org/2000/svg" xmlns:xlink="http://www.w3.org/1999/xlink">
	<desc>
			Created with Pixso.
	</desc>
	<defs>
		<clipPath id="clip1330_224">
			<rect id="Lisk" rx="59.999996" width="119.999992" height="120.000000" fill="white" fill-opacity="0"/>
		</clipPath>
	</defs>
	<rect id="Lisk" rx="59.999996" width="119.999992" height="120.000000" fill="#F8F9FB" fill-opacity="1.000000"/>
	<g clip-path="url(#clip1330_224)">
		<path id="合并" d="M53.7412 34.7917L59.7723 24.4568C59.8755 24.2478 60.1371 24.2478 60.1886 24.4568L89.9812 75.614C90.0323 75.7185 89.9821 75.8213 89.9309 75.9258L89.9296 75.9285L72.7721 95.2947C72.7135 95.3513 72.6442 95.3865 72.564 95.4001L58.6284 95.4001C58.3687 95.4001 58.2655 95.1392 58.4202 94.9819L67.7284 84.4363L76.4637 74.6228C76.5669 74.519 76.5669 74.4138 76.5154 74.3083L59.9805 45.8074L53.7412 35.0525C53.6897 35.0007 53.6897 34.8972 53.7412 34.7917ZM53.6925 95.2429L62.9293 84.813C63.0856 84.656 62.9808 84.3955 62.7216 84.3955L52.5508 84.3955C52.4709 84.3826 52.4017 84.3479 52.343 84.292L43.7295 74.592L43.7281 74.5894C43.6771 74.4868 43.6252 74.3823 43.6781 74.2778L58.1031 49.4033C58.1547 49.2998 58.1547 49.1946 58.1031 49.1445L52.1353 38.8164C52.0323 38.6611 51.7731 38.6611 51.6683 38.8164L30.3413 75.6377Q30.3 75.7158 30.3 75.7939Q30.3 75.8721 30.3413 75.95L47.4636 95.2947C47.515 95.3481 47.5665 95.3999 47.6714 95.3999L53.4829 95.3999C53.5344 95.3481 53.641 95.2966 53.6925 95.2429Z" clip-rule="evenodd" fill="#0C152E" fill-opacity="1.000000" fill-rule="evenodd"/>
	</g>
</svg>
