<svg width="56" height="56" viewBox="0 0 56 56" fill="none" xmlns="http://www.w3.org/2000/svg">
<rect width="56" height="56" rx="28" fill="#FDF6DF"/>
<path d="M25.791 12L29.206 14.154L26.556 23.168L23.142 21.014L25.791 12ZM21.754 25.734L25.168 27.888L21.833 39.238L18.418 37.085L21.754 25.734Z" fill="#B0915A"/>
<path d="M31.3339 16.7773C31.0727 16.6145 30.7707 16.5291 30.4629 16.5313H25.5649L28.9799 18.6883H33.8779C34.1869 18.6843 34.4909 18.7683 34.7529 18.9323L31.3339 16.7773ZM27.4679 25.7353L30.8809 27.8893H25.1679L21.7539 25.7353H27.4679Z" fill="#997D4C"/>
<path d="M30.0768 21.0156L33.4918 23.1696L30.8798 27.8896L27.4668 25.7356L30.0768 21.0156Z" fill="#AB8E56"/>
<path d="M40.9309 20.1882C40.9232 20.0063 40.9085 19.8249 40.8869 19.6442V19.6282C40.8577 19.4043 40.8176 19.1821 40.7669 18.9622C40.7529 18.9032 40.7339 18.8472 40.7189 18.7882C40.6789 18.6299 40.6332 18.4731 40.5819 18.3182C40.5749 18.2992 40.5709 18.2782 40.5639 18.2592C40.5449 18.2062 40.5199 18.1612 40.4999 18.1052C40.4468 17.9617 40.3884 17.8203 40.3249 17.6812C40.2889 17.6032 40.2509 17.5272 40.2129 17.4512C40.1462 17.3229 40.0755 17.1969 40.0009 17.0732C39.9759 17.0312 39.9559 16.9852 39.9289 16.9432C39.9029 16.9022 39.8679 16.8532 39.8369 16.8082L39.7589 16.6922C39.6594 16.5471 39.5529 16.4069 39.4399 16.2722L39.4349 16.2662C39.2967 16.1018 39.1498 15.9449 38.9949 15.7962L38.9769 15.7782C38.9099 15.7142 38.8369 15.6582 38.7669 15.5982C38.6969 15.5362 38.6169 15.4622 38.5369 15.4002L38.5169 15.3832C38.3701 15.27 38.2183 15.1636 38.0619 15.0642L34.6409 12.9102C34.8049 13.0142 34.9639 13.1272 35.1159 13.2462C35.1959 13.3092 35.2709 13.3782 35.3479 13.4432C35.4239 13.5072 35.5019 13.5702 35.5729 13.6392C35.8566 13.9114 36.1125 14.2112 36.3369 14.5342C36.3649 14.5722 36.3899 14.6122 36.4169 14.6512C36.4729 14.7372 36.5269 14.8262 36.5789 14.9162C36.6978 15.1123 36.8056 15.3149 36.9019 15.5232C36.9669 15.6622 37.0239 15.8052 37.0789 15.9482C37.1049 16.0202 37.1339 16.0902 37.1589 16.1622C37.2119 16.3162 37.2569 16.4732 37.2959 16.6322C37.3109 16.6912 37.3309 16.7472 37.3439 16.8062C37.4386 17.2082 37.4948 17.6184 37.5119 18.0312C37.5119 18.0652 37.5119 18.1002 37.5169 18.1352C37.5229 18.3212 37.5219 18.5092 37.5169 18.6972C37.5169 18.7312 37.5169 18.7652 37.5109 18.8012C37.5009 18.9812 37.4829 19.1652 37.4569 19.3482C37.4569 19.3682 37.4569 19.3902 37.4489 19.4112C37.4125 19.6454 37.3661 19.8779 37.3099 20.1082C37.2644 20.2943 37.211 20.4785 37.1499 20.6602C37.1159 20.7592 37.0749 20.8642 37.0359 20.9662C36.9979 21.0682 36.9499 21.1982 36.8999 21.3142C36.8599 21.4042 36.8149 21.4942 36.7719 21.5832C36.6999 21.7332 36.6299 21.8782 36.5469 22.0302L34.0769 26.4372L33.5469 27.2952C33.5519 27.2952 33.5639 27.3152 33.5769 27.3352L33.5949 27.3572L33.6399 27.4172L33.6699 27.4602L33.7299 27.5452L33.7699 27.6042L33.8399 27.7132L33.8849 27.7832C33.9349 27.8612 33.9829 27.9482 34.0419 28.0432L34.0679 28.0892C34.1159 28.1742 34.1659 28.2662 34.2149 28.3632C34.2922 28.5134 34.3653 28.6658 34.4339 28.8202C34.4389 28.8352 34.4449 28.8522 34.4519 28.8662C34.5029 28.9842 34.5499 29.1092 34.5999 29.2392C34.6159 29.2832 34.6329 29.3272 34.6479 29.3732C34.6699 29.4332 34.6899 29.4952 34.7099 29.5572C34.7652 29.7409 34.8162 29.926 34.8629 30.1122C34.8779 30.1742 34.8929 30.2482 34.9069 30.3182C34.9209 30.3882 34.9329 30.4452 34.9449 30.5142L34.9779 30.7322C35.0118 30.9655 35.0325 31.2005 35.0399 31.4362L38.4539 33.5892C38.4483 33.417 38.4356 33.2452 38.4159 33.0742V33.0202L38.3959 32.8842C38.3859 32.8123 38.3749 32.7407 38.3629 32.6692C38.3509 32.5992 38.3389 32.5392 38.3259 32.4722C38.3125 32.4036 38.2978 32.3352 38.2819 32.2672L38.2359 32.0832C38.2021 31.9585 38.1661 31.8345 38.1279 31.7112L38.0679 31.5282C38.0589 31.5052 38.0509 31.4792 38.0439 31.4562L38.0179 31.3932C37.9718 31.2679 37.9225 31.1438 37.8699 31.0212C37.8639 31.0062 37.8579 30.9892 37.8509 30.9762C37.7966 30.8509 37.739 30.7272 37.6779 30.6052L37.6329 30.5172C37.5867 30.4248 37.538 30.3338 37.4869 30.2442L37.4609 30.1992C37.4102 30.1103 37.3575 30.0226 37.3029 29.9362L37.2899 29.9162L37.2599 29.8682L37.1879 29.7582L37.1479 29.6982L37.0889 29.6162L37.0579 29.5722L37.0139 29.5122L36.9959 29.4892L36.9659 29.4492L37.4959 28.5922L39.9579 24.1922C39.9899 24.1332 40.0219 24.0752 40.0559 24.0182C40.1039 23.9272 40.1419 23.8362 40.1859 23.7442C40.2309 23.6532 40.2749 23.5652 40.3139 23.4762C40.3239 23.4532 40.3369 23.4302 40.3469 23.4062C40.3869 23.3142 40.4159 23.2212 40.4509 23.1272C40.4859 23.0342 40.5309 22.9242 40.5649 22.8232C40.5709 22.8022 40.5809 22.7832 40.5869 22.7622C40.6389 22.5982 40.6849 22.4332 40.7249 22.2702L40.7479 22.1722C40.7549 22.1382 40.7709 22.0852 40.7799 22.0422C40.8129 21.8862 40.8409 21.7292 40.8639 21.5742C40.8639 21.5522 40.8689 21.5322 40.8719 21.5102C40.8889 21.3892 40.9039 21.2692 40.9139 21.1492C40.9199 21.0872 40.9219 21.0252 40.9259 20.9632L40.9319 20.8592C40.9409 20.6712 40.9419 20.4832 40.9319 20.2972V20.1872L40.9309 20.1882Z" fill="#B29257"/>
<path d="M35.0349 31.4336L38.4499 33.5876H28.4999L25.0859 31.4336H35.0349Z" fill="#997D4C"/>
<path d="M43.579 32.8317C43.579 32.6877 43.573 32.5437 43.564 32.4017C43.564 32.3567 43.564 32.3137 43.557 32.2707C43.5465 32.104 43.5315 31.9377 43.512 31.7718C43.512 31.7598 43.512 31.7488 43.507 31.7368C43.495 31.6378 43.479 31.5398 43.464 31.4418C43.449 31.3428 43.434 31.2368 43.416 31.1358C43.3979 31.0394 43.3779 30.9433 43.356 30.8478C43.336 30.7558 43.316 30.6458 43.291 30.5458C43.267 30.4458 43.241 30.3567 43.216 30.2627C43.19 30.1677 43.164 30.0657 43.134 29.9677C43.104 29.8687 43.074 29.7818 43.044 29.6888C43.013 29.5968 42.991 29.5208 42.962 29.4388C42.957 29.4268 42.951 29.4147 42.947 29.4017C42.9108 29.3049 42.8731 29.2085 42.834 29.1128C42.797 29.0208 42.766 28.9337 42.727 28.8467C42.6856 28.7523 42.6433 28.6583 42.6 28.5647C42.557 28.4717 42.522 28.3918 42.48 28.3068C42.438 28.2208 42.382 28.1258 42.338 28.0348C42.2966 27.9501 42.2526 27.8667 42.206 27.7847C42.1555 27.6966 42.1034 27.6092 42.05 27.5227C41.997 27.4367 41.966 27.3788 41.922 27.3088C41.8025 27.1196 41.6768 26.9345 41.545 26.7537C41.515 26.7107 41.482 26.6708 41.448 26.6278C41.3511 26.5006 41.2528 26.3746 41.153 26.2498C41.137 26.2288 41.122 26.2058 41.104 26.1868C41.061 26.1358 41.016 26.0877 40.972 26.0367L40.799 25.8407C40.74 25.7747 40.665 25.6987 40.597 25.6307C40.53 25.5607 40.477 25.5067 40.417 25.4487L40.365 25.3958C40.2675 25.3017 40.1671 25.2107 40.064 25.1228L36.649 22.9688C36.769 23.0728 36.886 23.1838 37.002 23.2948L37.182 23.4747C37.24 23.5347 37.319 23.6148 37.385 23.6868C37.452 23.7588 37.5 23.8157 37.557 23.8837C37.614 23.9517 37.68 24.0238 37.74 24.0968C37.84 24.2198 37.938 24.3467 38.034 24.4747L38.132 24.6018C38.256 24.7748 38.376 24.9517 38.492 25.1337C38.542 25.2117 38.591 25.2937 38.638 25.3737C38.685 25.4547 38.742 25.5438 38.791 25.6318C38.84 25.7198 38.881 25.7998 38.925 25.8848C38.969 25.9688 39.023 26.0627 39.065 26.1547L39.186 26.4137C39.226 26.4997 39.272 26.5988 39.314 26.6938C39.354 26.7878 39.385 26.8718 39.42 26.9628C39.456 27.0528 39.497 27.1527 39.532 27.2487C39.568 27.3447 39.597 27.4448 39.63 27.5378C39.664 27.6298 39.694 27.7217 39.722 27.8147C39.749 27.9087 39.776 28.0117 39.802 28.1097C39.829 28.2087 39.856 28.2988 39.878 28.3938C39.901 28.4898 39.922 28.5908 39.943 28.6888C39.9864 28.8866 40.0221 29.0861 40.05 29.2867C40.065 29.3927 40.082 29.4837 40.094 29.5817C40.116 29.7577 40.132 29.9357 40.145 30.1137C40.1573 30.3005 40.1647 30.4876 40.167 30.6748V30.8317C40.167 31.0157 40.167 31.1997 40.151 31.3847C40.1259 31.7884 40.0806 32.1906 40.015 32.5897L39.983 32.7608C39.963 32.8738 39.943 32.9888 39.919 33.1008C39.908 33.1538 39.894 33.2057 39.881 33.2597C39.855 33.3787 39.826 33.4987 39.796 33.6177L39.74 33.8147C39.71 33.9187 39.681 34.0228 39.648 34.1258C39.623 34.2038 39.597 34.2818 39.57 34.3588C39.544 34.4368 39.517 34.5187 39.488 34.5967C39.46 34.6757 39.429 34.7527 39.398 34.8297C39.368 34.9077 39.338 34.9858 39.306 35.0628L39.251 35.1888C39.138 35.4518 39.016 35.7097 38.884 35.9617L38.839 36.0418C38.7026 36.297 38.5568 36.5472 38.402 36.7918L38.365 36.8457C38.2 37.1017 38.026 37.3497 37.842 37.5897L37.809 37.6317C37.613 37.8857 37.406 38.1298 37.189 38.3648L37.077 38.4847C36.994 38.5717 36.911 38.6577 36.825 38.7417L36.679 38.8837C36.597 38.9607 36.514 39.0388 36.429 39.1138L36.289 39.2407C36.1329 39.3773 35.9722 39.5084 35.807 39.6338L35.79 39.6468C35.63 39.7698 35.466 39.8868 35.3 40.0008L35.166 40.0908C34.979 40.2148 34.79 40.3358 34.596 40.4478L34.571 40.4618C34.383 40.5698 34.191 40.6717 33.996 40.7687L33.861 40.8358C33.6625 40.9335 33.4604 41.0236 33.255 41.1058L33.157 41.1418C32.971 41.2148 32.783 41.2817 32.594 41.3447L32.466 41.3867C32.256 41.4527 32.042 41.5118 31.826 41.5638L31.691 41.5957C31.4923 41.6415 31.2922 41.6808 31.091 41.7137C31.06 41.7137 31.03 41.7257 30.999 41.7287C30.7249 41.7722 30.4489 41.8029 30.172 41.8208C29.9407 41.8381 29.7089 41.8471 29.477 41.8478H12L15.415 44.0018H32.889C33.1209 44.0008 33.3527 43.9915 33.584 43.9738C33.637 43.9738 33.688 43.9677 33.74 43.9627C33.966 43.9437 34.19 43.9178 34.412 43.8838L34.503 43.8667C34.705 43.8337 34.904 43.7947 35.103 43.7487L35.239 43.7178C35.454 43.6648 35.668 43.6057 35.879 43.5407L36.006 43.4987C36.196 43.4367 36.384 43.3687 36.57 43.2957L36.668 43.2588C36.873 43.1748 37.075 43.0848 37.274 42.9888L37.409 42.9217C37.605 42.8237 37.795 42.7257 37.984 42.6147L38.008 42.6017C38.204 42.4897 38.392 42.3688 38.579 42.2438L38.647 42.2007L38.711 42.1548C38.878 42.0398 39.041 41.9228 39.201 41.7988L39.217 41.7887C39.382 41.6607 39.542 41.5268 39.7 41.3898L39.757 41.3428L39.84 41.2648C39.925 41.1888 40.009 41.1107 40.091 41.0317C40.2275 40.9026 40.3599 40.7692 40.488 40.6317L40.586 40.5348L40.606 40.5117C40.823 40.2757 41.029 40.0317 41.226 39.7777L41.249 39.7508L41.259 39.7368C41.443 39.4968 41.617 39.2458 41.782 38.9938L41.808 38.9558C41.9677 38.7068 42.1169 38.4513 42.255 38.1897C42.265 38.1717 42.277 38.1548 42.286 38.1368L42.3 38.1088C42.43 37.8558 42.553 37.5978 42.668 37.3348L42.697 37.2737L42.722 37.2107C42.755 37.1317 42.785 37.0537 42.821 36.9747C42.856 36.8957 42.881 36.8228 42.909 36.7448C42.937 36.6668 42.965 36.5848 42.992 36.5038L43.051 36.3338L43.069 36.2737C43.101 36.1707 43.131 36.0647 43.161 35.9607C43.179 35.8957 43.199 35.8308 43.216 35.7648C43.247 35.6448 43.276 35.5248 43.303 35.4038C43.313 35.3568 43.326 35.3117 43.336 35.2657V35.2468C43.361 35.1338 43.381 35.0198 43.401 34.9068C43.411 34.8488 43.424 34.7938 43.432 34.7368C43.461 34.5658 43.484 34.3938 43.505 34.2198C43.52 34.0868 43.535 33.9548 43.546 33.8208C43.556 33.7228 43.563 33.6248 43.569 33.5258C43.579 33.3418 43.584 33.1577 43.584 32.9747C43.579 32.9347 43.579 32.8837 43.579 32.8317Z" fill="url(#paint0_linear_27_13)"/>
<path d="M31.3949 12C36.3729 12 39.1079 17.458 36.5429 22.035L34.0729 26.442L33.5429 27.3C33.6149 27.39 34.9669 29.097 35.0359 31.43H25.0859L31.8659 19.168C32.5349 17.961 31.7729 16.525 30.4629 16.525H25.5649L26.7259 12H31.3959H31.3949Z" fill="#F4D78B"/>
<path d="M36.65 22.972C38.852 24.882 40.348 28.086 40.151 31.385C40.137 31.617 40.114 31.847 40.087 32.073C39.463 37.521 34.822 41.851 29.478 41.851H12L20.818 12H25.791L23.143 21.014H30.079L27.469 25.734H21.753L18.42 37.085H29.747C32.782 37.085 35.408 34.528 35.597 31.382C35.685 29.912 35.098 28.22 34.276 27.21L36.65 22.972Z" fill="#F4D78B"/>
<defs>
<linearGradient id="paint0_linear_27_13" x1="12" y1="1075.25" x2="3170.12" y2="1075.25" gradientUnits="userSpaceOnUse">
<stop offset="0.18" stop-color="#997D4C"/>
<stop offset="0.91" stop-color="#AA8C52"/>
<stop offset="0.98" stop-color="#AC8E53"/>
</linearGradient>
</defs>
</svg>
