<svg width="120" height="120" viewBox="0 0 120 120" fill="none" xmlns="http://www.w3.org/2000/svg">
<rect width="120" height="120" rx="60" fill="url(#paint0_linear_7038_48906)"/>
<path d="M102.08 35.8043C101.472 34.7527 100.116 34.4063 99.0771 35.0377L43.3052 68.9107C41.884 66.2556 41.0785 63.2216 41.0785 60.0001C41.0785 49.54 49.5681 41.0605 60.0406 41.0605C64.5373 41.0605 68.6656 42.6279 71.9163 45.2398L60.0514 53.3748L90.8855 35.5932C91.5501 35.2108 91.7777 34.3612 91.393 33.6993C90.9885 32.9994 90.0729 32.792 89.4047 33.2501L81.8542 38.427C76.2902 32.8136 68.5735 29.3359 60.0406 29.3359C43.0849 29.3359 29.3401 43.0645 29.3401 60.0001C29.3401 65.4529 30.7668 70.572 33.2643 75.0093L17.627 84.5061L33.6815 75.7272C39.0433 84.6739 48.8403 90.6642 60.0406 90.6642C76.9963 90.6642 90.7411 76.9357 90.7411 60.0001C90.7411 59.0441 90.7411 59.2071 90.7411 56.3384C90.7411 53.4697 91.9067 49.7996 96.036 47.5901C96.39 47.4007 96.5182 46.957 96.3177 46.6089C96.1209 46.2698 95.6875 46.1525 95.3479 46.3491L58.7367 67.4623C62.8235 65.7271 65.9476 64.6719 70.0888 63.841C78.7153 62.1101 78.9348 66.2178 75.6033 70.8512C73.3727 73.9535 68.3333 78.9361 60.0442 78.9361C53.2847 78.9361 47.3541 75.4043 43.9951 70.0868L101.244 38.7859C102.312 38.2033 102.689 36.8559 102.08 35.8043Z" fill="white"/>
<defs>
<linearGradient id="paint0_linear_7038_48906" x1="11.9837" y1="120" x2="88.3597" y2="-1.40265e-06" gradientUnits="userSpaceOnUse">
<stop offset="0.0230088" stop-color="#E57536"/>
<stop offset="0.604747"/>
</linearGradient>
</defs>
</svg>
