<svg width="120.000000" height="120.000000" viewBox="0 0 120 120" fill="none" xmlns="http://www.w3.org/2000/svg" xmlns:xlink="http://www.w3.org/1999/xlink">
	<rect id="taiko" width="120.000000" height="120.000000" fill="#FFFFFF" fill-opacity="0"/>
	<path id="Binance Coin (BNB)" d="M118.19 74.51C110.17 106.65 77.62 126.21 45.47 118.2C13.34 110.19 -6.23 77.63 1.79 45.49C9.8 13.34 42.36 -6.22 74.49 1.79C106.64 9.8 126.2 42.37 118.19 74.51L118.19 74.51L118.19 74.51Z" fill="#E81899" fill-opacity="1.000000" fill-rule="nonzero"/>
	<path id="path" d="M95.71 79.7L82.99 62.41C81.6 60.53 79.56 59.4 77.37 59.15C76.88 59.1 76.44 58.81 76.19 58.37C75.93 57.94 75.91 57.41 76.11 56.95C76.98 54.94 77.03 52.6 76.09 50.47L67.48 30.8C66.21 27.88 63.32 26 60.13 26C56.95 26 54.06 27.88 52.79 30.8L44.18 50.47C43.24 52.6 43.29 54.94 44.16 56.95C44.36 57.41 44.33 57.94 44.08 58.37C43.83 58.81 43.39 59.1 42.89 59.15C40.71 59.4 38.67 60.53 37.28 62.41L24.56 79.7C22.67 82.27 22.48 85.71 24.07 88.47C25.66 91.22 28.74 92.78 31.9 92.43L53.24 90.05C55.56 89.8 57.56 88.59 58.86 86.82C59.16 86.42 59.63 86.18 60.13 86.18C60.64 86.18 61.11 86.42 61.41 86.82C62.71 88.59 64.71 89.8 67.03 90.05L88.37 92.43C91.53 92.78 94.61 91.23 96.2 88.47C97.79 85.71 97.6 82.27 95.71 79.7ZM49.74 52.94L58.37 33.25C58.68 32.54 59.37 32.08 60.14 32.08C60.91 32.08 61.6 32.54 61.91 33.25L70.54 52.94C70.81 53.56 70.75 54.27 70.38 54.84C70 55.41 69.38 55.75 68.69 55.75L51.58 55.75C50.9 55.75 50.27 55.41 49.9 54.84C49.53 54.27 49.47 53.56 49.74 52.94ZM54.17 82.91C53.86 83.52 53.27 83.93 52.6 84L31.23 86.38C30.47 86.46 29.73 86.09 29.34 85.43C28.96 84.76 29.01 83.93 29.46 83.31L42.2 66C42.61 65.46 43.25 65.15 43.93 65.19C44.61 65.22 45.22 65.6 45.56 66.19L54.11 80.99C54.45 81.58 54.48 82.31 54.17 82.91ZM61.89 76.23C61.53 76.86 60.86 77.25 60.13 77.25C59.41 77.25 58.74 76.86 58.38 76.23L51.83 64.88C51.46 64.26 51.46 63.48 51.83 62.86C52.19 62.23 52.85 61.84 53.58 61.84L66.69 61.84C67.41 61.84 68.08 62.23 68.44 62.86C68.8 63.48 68.8 64.26 68.44 64.88L61.89 76.23ZM90.93 85.43C90.55 86.09 89.81 86.47 89.04 86.38L67.68 84.01C67 83.93 66.41 83.53 66.1 82.92C65.8 82.31 65.82 81.59 66.16 81.01L74.7 66.21C75.04 65.62 75.67 65.22 76.35 65.19C77.03 65.15 77.67 65.46 78.08 66L90.82 83.31C91.27 83.93 91.31 84.76 90.93 85.43Z" fill="#FFFFFF" fill-opacity="1.000000" fill-rule="nonzero"/>
</svg>
