<svg width="120.000000" height="120.000000" viewBox="0 0 120 120" fill="none" xmlns="http://www.w3.org/2000/svg" xmlns:xlink="http://www.w3.org/1999/xlink">
	<defs>
		<linearGradient x1="26.249962" y1="119.999969" x2="93.750008" y2="-9.375011" id="paint_linear_78_806_0" gradientUnits="userSpaceOnUse">
			<stop stop-color="#E16BBF"/>
			<stop offset="1.000000" stop-color="#000000" stop-opacity="0.000000"/>
		</linearGradient>
		<linearGradient x1="18.750000" y1="125.624977" x2="113.441727" y2="59.015663" id="paint_linear_78_805_0" gradientUnits="userSpaceOnUse">
			<stop stop-color="#FF66B7"/>
			<stop offset="0.510000" stop-color="#0091FF"/>
			<stop offset="1.000000" stop-color="#29CCB9"/>
		</linearGradient>
		<linearGradient x1="14.192932" y1="60.831657" x2="105.807175" y2="59.156250" id="paint_linear_78_790_0" gradientUnits="userSpaceOnUse">
			<stop stop-color="#29CCB9"/>
			<stop offset="0.490000" stop-color="#0091FF"/>
			<stop offset="1.000000" stop-color="#FF66B7"/>
		</linearGradient>
	</defs>
	<rect id="Manta Network" rx="60.000000" width="120.000000" height="120.000000" transform="translate(0.000000 0.000004)" fill="#000000" fill-opacity="1.000000"/>
	<rect id="Manta Network" rx="60.000000" width="120.000000" height="120.000000" transform="translate(0.000000 0.000004)" fill="url(#paint_linear_78_806_0)" fill-opacity="0.400000"/>
	<g opacity="0.600000">
		<path id="o" d="M7.5 60C7.5 31 31 7.5 60 7.5C88.99 7.5 112.5 31 112.5 60C112.5 88.99 88.99 112.5 60 112.5C31 112.5 7.5 88.99 7.5 60ZM9.37 60C9.37 32.04 32.04 9.37 60 9.37C87.95 9.37 110.62 32.04 110.62 60C110.62 87.95 87.95 110.62 60 110.62C32.04 110.62 9.37 87.95 9.37 60Z" fill="url(#paint_linear_78_805_0)" fill-opacity="1.000000" fill-rule="evenodd"/>
	</g>
	<path id="path" d="M35.92 92.27C26.1 84.93 19.73 73.2 19.73 60C19.73 37.76 37.76 19.73 60 19.73C78.35 19.73 98.39 30.7 103.23 47.5C97.82 28.73 80.51 15 60 15C35.15 15 15 35.15 15 60C15 84.84 35.15 105 60 105C84.84 105 105 84.84 105 60L105 57.62L102.53 57.62C102.45 57.62 102.34 57.62 102.2 57.62C101.9 57.62 101.49 57.61 100.95 57.59C99.88 57.55 98.42 57.48 96.77 57.33C93.39 57.04 89.54 56.46 86.92 55.41C82.7 53.72 80.32 51.5 77.6 48.88C74.88 46.26 71.66 43.17 66.34 40.67C61.11 38.22 55.32 38.61 51.08 39.49C48.93 39.93 47.07 40.52 45.76 40.99C45.1 41.22 44.58 41.44 44.21 41.59C42.07 42.5 39.99 43.56 37.9 44.55C37.9 44.55 42.02 45.68 44.05 46.31C44.12 46.34 44.23 46.37 44.39 46.42C44.7 46.52 45.14 46.68 45.66 46.9C46.74 47.34 48.15 47.99 49.54 48.89C51.74 50.3 53.56 52.08 54.31 54.26C49.65 54.87 45.27 56.93 42 58.85C40.01 60.01 38.36 61.18 37.2 62.05C36.63 62.49 36.16 62.86 35.84 63.11C35.58 63.33 31.37 67.04 31.37 67.04C31.37 67.04 36.8 67.61 39.48 68.15C41.26 68.51 43.66 69.09 46.18 69.96C48.7 70.84 51.24 71.99 53.36 73.47C55.47 74.95 57.02 76.65 57.78 78.61C60.01 84.3 57.82 89.84 53.43 92.96C49.09 96.04 42.51 96.79 35.92 92.27ZM51.28 99.31C53.05 98.73 54.7 97.89 56.19 96.84C62.16 92.6 65.3 84.82 62.21 76.89C60.99 73.78 58.66 71.4 56.08 69.59C53.49 67.78 50.52 66.46 47.75 65.5C45.94 64.86 44.18 64.37 42.66 64.01C43.21 63.65 43.78 63.28 44.4 62.92C48.05 60.78 52.65 58.81 57.05 58.81C63.69 58.81 68.63 60.85 73.35 63.03C73.78 63.22 74.2 63.43 74.64 63.63C78.86 65.61 83.29 67.69 88.44 67.69C93.59 67.69 97.32 66.28 99.99 64.81C97.61 84.77 80.62 100.25 60.02 100.25C57.02 100.25 54.08 99.92 51.28 99.31ZM94.86 61.91C93.08 62.51 90.93 62.95 88.43 62.95C84.39 62.95 80.92 61.34 76.52 59.29C76.12 59.1 75.73 58.92 75.33 58.74C70.91 56.69 65.82 54.53 59.18 54.14C58.28 49.75 54.96 46.74 52.1 44.91C51.78 44.7 51.46 44.5 51.14 44.32C51.42 44.26 51.72 44.18 52.02 44.12C55.86 43.33 60.44 43.13 64.31 44.97C68.91 47.13 71.51 49.63 74.22 52.22C76.99 54.88 80.04 57.77 85.16 59.82C88.01 60.96 91.7 61.57 94.86 61.91Z" fill="url(#paint_linear_78_790_0)" fill-opacity="1.000000" fill-rule="evenodd"/>
</svg>
