<svg width="120.000000" height="120.000000" viewBox="0 0 120 120" fill="none" xmlns="http://www.w3.org/2000/svg" xmlns:xlink="http://www.w3.org/1999/xlink">

	<defs>
		<clipPath id="clip78_1193">
			<rect id="Mint" rx="60.000000" width="120.000000" height="120.000000" fill="white" fill-opacity="0"/>
		</clipPath>
	</defs>
	<rect id="Mint" rx="60.000000" width="120.000000" height="120.000000" fill="#30BF55" fill-opacity="1.000000"/>
	<g clip-path="url(#clip78_1193)">
		<path id="path" d="M24 24C43.88 24 60 40.11 60 60C40.11 60 24 43.88 24 24ZM96 96C76.11 96 60 79.88 60 60C79.88 60 96 76.11 96 96ZM60 60C60 57.61 60.45 55.31 61.37 53.11C62.28 50.9 63.58 48.95 65.27 47.27C66.96 45.58 68.9 44.28 71.11 43.37C73.31 42.45 75.61 42 78 42C78 44.38 77.54 46.68 76.62 48.88C75.71 51.09 74.41 53.04 72.72 54.72C71.04 56.41 69.09 57.71 66.88 58.62C64.68 59.54 62.38 60 60 60ZM60 60C60 62.38 59.54 64.68 58.62 66.88C57.71 69.09 56.41 71.04 54.72 72.72C53.04 74.41 51.09 75.71 48.88 76.62C46.68 77.54 44.38 78 42 78C42 75.61 42.45 73.31 43.37 71.11C44.28 68.9 45.58 66.95 47.27 65.27C48.96 63.58 50.9 62.28 53.11 61.37C55.31 60.45 57.61 60 60 60Z" fill="#000000" fill-opacity="1.000000" fill-rule="nonzero"/>
	</g>
</svg>
