<?xml version="1.0" encoding="UTF-8"?>
<!DOCTYPE svg PUBLIC "-//W3C//DTD SVG 1.1//EN" "http://www.w3.org/Graphics/SVG/1.1/DTD/svg11.dtd">
<svg xmlns="http://www.w3.org/2000/svg" version="1.1" width="480px" height="480px" style="shape-rendering:geometricPrecision; text-rendering:geometricPrecision; image-rendering:optimizeQuality; fill-rule:evenodd; clip-rule:evenodd" xmlns:xlink="http://www.w3.org/1999/xlink">
<g><path style="opacity:0.996" fill="#e36e1b" d="M 217.5,-0.5 C 232.167,-0.5 246.833,-0.5 261.5,-0.5C 351.777,11.0354 417.277,57.3688 458,138.5C 469.389,163.812 476.556,190.146 479.5,217.5C 479.5,232.167 479.5,246.833 479.5,261.5C 467.965,351.777 421.631,417.277 340.5,458C 315.188,469.389 288.854,476.556 261.5,479.5C 246.833,479.5 232.167,479.5 217.5,479.5C 127.223,467.965 61.7233,421.631 21,340.5C 9.61094,315.188 2.44427,288.854 -0.5,261.5C -0.5,246.833 -0.5,232.167 -0.5,217.5C 11.0354,127.223 57.3688,61.7233 138.5,21C 163.812,9.61094 190.146,2.44427 217.5,-0.5 Z"/></g>
<g><path style="opacity:1" fill="#fefefe" d="M 118.5,159.5 C 109.639,159.69 100.973,161.024 92.5,163.5C 91.1686,155.361 90.5019,146.861 90.5,138C 90.6667,129.5 90.8333,121 91,112.5C 94.9624,110.772 98.7957,109.105 102.5,107.5C 102.833,107.5 103.167,107.5 103.5,107.5C 110.799,106.65 118.132,106.317 125.5,106.5C 125.5,123.833 125.5,141.167 125.5,158.5C 122.941,158.198 120.607,158.532 118.5,159.5 Z"/></g>
<g><path style="opacity:1" fill="#f7d1b7" d="M 154.5,159.5 C 145.167,159.5 135.833,159.5 126.5,159.5C 123.833,159.5 121.167,159.5 118.5,159.5C 120.607,158.532 122.941,158.198 125.5,158.5C 125.5,141.167 125.5,123.833 125.5,106.5C 118.132,106.317 110.799,106.65 103.5,107.5C 104.263,106.732 105.263,106.232 106.5,106C 113.158,105.5 119.825,105.334 126.5,105.5C 126.5,122.833 126.5,140.167 126.5,157.5C 136.051,157.213 145.384,157.88 154.5,159.5 Z"/></g>
<g><path style="opacity:1" fill="#eca06a" d="M 162.5,108.5 C 162.5,125.833 162.5,143.167 162.5,160.5C 162.167,160.5 161.833,160.5 161.5,160.5C 160.209,160.737 159.209,160.404 158.5,159.5C 159.5,159.5 160.5,159.5 161.5,159.5C 161.17,142.325 161.503,125.325 162.5,108.5 Z"/></g>
<g><path style="opacity:1" fill="#fbece1" d="M 162.5,108.5 C 166.122,108.322 169.456,108.989 172.5,110.5C 169.455,110.492 166.455,110.159 163.5,109.5C 163.182,126.577 163.515,143.577 164.5,160.5C 163.833,160.5 163.167,160.5 162.5,160.5C 162.5,143.167 162.5,125.833 162.5,108.5 Z"/></g>
<g><path style="opacity:1" fill="#fefefd" d="M 172.5,110.5 C 179.897,112.514 187.23,114.514 194.5,116.5C 194.842,117.338 195.508,117.672 196.5,117.5C 197.152,134.866 196.486,151.866 194.5,168.5C 184.393,166.14 174.393,163.474 164.5,160.5C 163.515,143.577 163.182,126.577 163.5,109.5C 166.455,110.159 169.455,110.492 172.5,110.5 Z"/></g>
<g><path style="opacity:1" fill="#fbeade" d="M 102.5,107.5 C 98.7957,109.105 94.9624,110.772 91,112.5C 90.8333,121 90.6667,129.5 90.5,138C 90.5019,146.861 91.1686,155.361 92.5,163.5C 92.189,164.478 91.5223,165.145 90.5,165.5C 89.3337,147.509 89.167,129.509 90,111.5C 93.8757,109.264 98.0424,107.93 102.5,107.5 Z"/></g>
<g><path style="opacity:1" fill="#f4c5a4" d="M 255.5,112.5 C 255.5,120.833 255.5,129.167 255.5,137.5C 253.901,137.768 252.568,137.434 251.5,136.5C 252.5,136.5 253.5,136.5 254.5,136.5C 254.174,128.316 254.508,120.316 255.5,112.5 Z"/></g>
<g><path style="opacity:1" fill="#fefdfd" d="M 255.5,112.5 C 263.523,114.186 271.523,115.852 279.5,117.5C 279.5,126.167 279.5,134.833 279.5,143.5C 280.5,143.5 281.5,143.5 282.5,143.5C 288.906,145.47 295.572,146.803 302.5,147.5C 302.5,139.167 302.5,130.833 302.5,122.5C 310.445,123.694 318.445,124.361 326.5,124.5C 326.5,133.167 326.5,141.833 326.5,150.5C 331.493,150.916 336.493,151.249 341.5,151.5C 342.568,152.434 343.901,152.768 345.5,152.5C 348.505,154.277 351.838,155.277 355.5,155.5C 377.603,164.362 386.103,180.695 381,204.5C 378.664,219.178 372.164,231.512 361.5,241.5C 376.373,245.87 385.539,255.536 389,270.5C 392.296,298.664 382.796,321.164 360.5,338C 353.011,342.582 345.011,345.749 336.5,347.5C 333.167,347.5 329.833,347.5 326.5,347.5C 326.5,356.167 326.5,364.833 326.5,373.5C 318.5,373.5 310.5,373.5 302.5,373.5C 302.5,364.833 302.5,356.167 302.5,347.5C 294.76,347.55 287.094,346.883 279.5,345.5C 279.5,353.833 279.5,362.167 279.5,370.5C 276.873,369.908 274.206,369.575 271.5,369.5C 268.155,367.783 264.489,367.116 260.5,367.5C 258.5,367.167 256.5,366.833 254.5,366.5C 254.5,357.833 254.5,349.167 254.5,340.5C 251.763,340.599 249.096,340.265 246.5,339.5C 244.485,338.076 242.152,337.41 239.5,337.5C 225.451,334.205 211.618,330.205 198,325.5C 197.5,308.17 197.333,290.837 197.5,273.5C 197.833,273.5 198.167,273.5 198.5,273.5C 209.149,277.161 219.816,280.828 230.5,284.5C 231.833,267.5 231.833,250.5 230.5,233.5C 222.159,230.626 213.826,227.626 205.5,224.5C 203.68,222.552 201.346,221.552 198.5,221.5C 198.5,204.5 198.5,187.5 198.5,170.5C 199.167,170.5 199.833,170.5 200.5,170.5C 210.543,174.738 220.877,178.405 231.5,181.5C 231.5,164.833 231.5,148.167 231.5,131.5C 238.266,132.858 244.933,134.525 251.5,136.5C 252.568,137.434 253.901,137.768 255.5,137.5C 255.5,129.167 255.5,120.833 255.5,112.5 Z"/></g>
<g><path style="opacity:1" fill="#f9e2d2" d="M 196.5,117.5 C 197.833,134.833 197.833,152.167 196.5,169.5C 195.508,169.672 194.842,169.338 194.5,168.5C 196.486,151.866 197.152,134.866 196.5,117.5 Z"/></g>
<g><path style="opacity:1" fill="#e88540" d="M 302.5,122.5 C 302.5,130.833 302.5,139.167 302.5,147.5C 295.572,146.803 288.906,145.47 282.5,143.5C 288.79,144.541 295.123,145.208 301.5,145.5C 301.175,137.648 301.508,129.982 302.5,122.5 Z"/></g>
<g><path style="opacity:1" fill="#e88642" d="M 326.5,124.5 C 327.493,132.65 327.826,140.983 327.5,149.5C 332.434,149.229 337.1,149.896 341.5,151.5C 336.493,151.249 331.493,150.916 326.5,150.5C 326.5,141.833 326.5,133.167 326.5,124.5 Z"/></g>
<g><path style="opacity:1" fill="#ec995f" d="M 345.5,152.5 C 349.162,152.723 352.495,153.723 355.5,155.5C 351.838,155.277 348.505,154.277 345.5,152.5 Z"/></g>
<g><path style="opacity:1" fill="#fefefd" d="M 126.5,159.5 C 135.833,159.5 145.167,159.5 154.5,159.5C 155.833,159.5 157.167,159.5 158.5,159.5C 159.209,160.404 160.209,160.737 161.5,160.5C 161.5,177.5 161.5,194.5 161.5,211.5C 159.167,211.5 156.833,211.5 154.5,211.5C 145.167,211.5 135.833,211.5 126.5,211.5C 126.5,194.167 126.5,176.833 126.5,159.5 Z"/></g>
<g><path style="opacity:1" fill="#f8dcc8" d="M 161.5,160.5 C 161.833,160.5 162.167,160.5 162.5,160.5C 162.5,177.833 162.5,195.167 162.5,212.5C 161.833,212.5 161.167,212.5 160.5,212.5C 158.5,212.5 156.5,212.5 154.5,212.5C 154.5,212.167 154.5,211.833 154.5,211.5C 156.833,211.5 159.167,211.5 161.5,211.5C 161.5,194.5 161.5,177.5 161.5,160.5 Z"/></g>
<g><path style="opacity:1" fill="#e36f1d" d="M 162.5,160.5 C 163.167,160.5 163.833,160.5 164.5,160.5C 174.393,163.474 184.393,166.14 194.5,168.5C 194.842,169.338 195.508,169.672 196.5,169.5C 196.83,186.675 196.497,203.675 195.5,220.5C 185.946,217.788 176.279,215.455 166.5,213.5C 165.432,212.566 164.099,212.232 162.5,212.5C 162.5,195.167 162.5,177.833 162.5,160.5 Z"/></g>
<g><path style="opacity:1" fill="#e99153" d="M 194.5,116.5 C 195.833,116.5 197.167,116.5 198.5,116.5C 197.868,134.736 198.534,152.736 200.5,170.5C 199.833,170.5 199.167,170.5 198.5,170.5C 197.833,187.5 197.167,204.5 196.5,221.5C 195.833,221.5 195.5,221.167 195.5,220.5C 196.497,203.675 196.83,186.675 196.5,169.5C 197.833,152.167 197.833,134.833 196.5,117.5C 195.508,117.672 194.842,117.338 194.5,116.5 Z"/></g>
<g><path style="opacity:1" fill="#efab7b" d="M 282.5,185.5 C 280.52,197.789 279.853,210.456 280.5,223.5C 279.505,210.677 279.171,197.677 279.5,184.5C 280.791,184.263 281.791,184.596 282.5,185.5 Z"/></g>
<g><path style="opacity:1" fill="#e36f1d" d="M 282.5,185.5 C 287.777,186.493 293.11,187.16 298.5,187.5C 302.919,188.972 307.586,189.638 312.5,189.5C 332.941,191.076 339.774,201.41 333,220.5C 330.222,223.807 326.722,225.974 322.5,227C 308.311,227.948 294.311,226.782 280.5,223.5C 279.853,210.456 280.52,197.789 282.5,185.5 Z"/></g>
<g><path style="opacity:1" fill="#f8d8c2" d="M 298.5,187.5 C 303.414,187.362 308.081,188.028 312.5,189.5C 307.586,189.638 302.919,188.972 298.5,187.5 Z"/></g>
<g><path style="opacity:1" fill="#fefdfd" d="M 123.5,265.5 C 122.5,265.5 121.5,265.5 120.5,265.5C 115.9,265.28 111.567,265.946 107.5,267.5C 101.556,267.645 96.2223,269.312 91.5,272.5C 89.5137,255.198 88.847,237.532 89.5,219.5C 93.502,216.321 98.1687,214.655 103.5,214.5C 110.527,213.957 117.527,213.29 124.5,212.5C 124.833,221.167 125.167,229.833 125.5,238.5C 125.472,247.73 124.805,256.73 123.5,265.5 Z"/></g>
<g><path style="opacity:1" fill="#f7d6be" d="M 126.5,211.5 C 126.5,229.167 126.5,246.833 126.5,264.5C 126.5,264.833 126.5,265.167 126.5,265.5C 125.5,265.5 124.5,265.5 123.5,265.5C 124.805,256.73 125.472,247.73 125.5,238.5C 125.167,229.833 124.833,221.167 124.5,212.5C 117.527,213.29 110.527,213.957 103.5,214.5C 104.263,213.732 105.263,213.232 106.5,213C 113.156,212.289 119.822,211.789 126.5,211.5 Z"/></g>
<g><path style="opacity:1" fill="#e67d34" d="M 126.5,211.5 C 135.833,211.5 145.167,211.5 154.5,211.5C 154.5,211.833 154.5,212.167 154.5,212.5C 145.5,212.5 136.5,212.5 127.5,212.5C 127.333,229.503 127.5,246.503 128,263.5C 137.422,262.349 146.922,262.182 156.5,263C 157.056,263.383 157.389,263.883 157.5,264.5C 147.169,263.203 136.836,263.203 126.5,264.5C 126.5,246.833 126.5,229.167 126.5,211.5 Z"/></g>
<g><path style="opacity:1" fill="#e36e1b" d="M 154.5,212.5 C 156.5,212.5 158.5,212.5 160.5,212.5C 161.485,229.756 161.819,247.09 161.5,264.5C 160.833,264.5 160.167,264.5 159.5,264.5C 158.833,264.5 158.167,264.5 157.5,264.5C 157.389,263.883 157.056,263.383 156.5,263C 146.922,262.182 137.422,262.349 128,263.5C 127.5,246.503 127.333,229.503 127.5,212.5C 136.5,212.5 145.5,212.5 154.5,212.5 Z"/></g>
<g><path style="opacity:1" fill="#eca06a" d="M 160.5,212.5 C 161.167,212.5 161.833,212.5 162.5,212.5C 164.099,212.232 165.432,212.566 166.5,213.5C 165.167,213.5 163.833,213.5 162.5,213.5C 162.5,230.5 162.5,247.5 162.5,264.5C 162.167,264.5 161.833,264.5 161.5,264.5C 161.819,247.09 161.485,229.756 160.5,212.5 Z"/></g>
<g><path style="opacity:1" fill="#fefdfc" d="M 166.5,213.5 C 176.279,215.455 185.946,217.788 195.5,220.5C 195.5,221.167 195.833,221.5 196.5,221.5C 197.152,238.866 196.486,255.866 194.5,272.5C 187.548,270.709 180.548,269.042 173.5,267.5C 171.485,266.076 169.152,265.41 166.5,265.5C 165.167,265.5 163.833,265.5 162.5,265.5C 162.5,265.167 162.5,264.833 162.5,264.5C 162.5,247.5 162.5,230.5 162.5,213.5C 163.833,213.5 165.167,213.5 166.5,213.5 Z"/></g>
<g><path style="opacity:1" fill="#e99051" d="M 89.5,219.5 C 88.847,237.532 89.5137,255.198 91.5,272.5C 90.791,273.404 89.791,273.737 88.5,273.5C 88.1699,255.326 88.5032,237.326 89.5,219.5 Z"/></g>
<g><path style="opacity:1" fill="#fae3d2" d="M 198.5,170.5 C 198.5,187.5 198.5,204.5 198.5,221.5C 201.346,221.552 203.68,222.552 205.5,224.5C 203.883,223.962 202.216,223.629 200.5,223.5C 199.791,222.596 198.791,222.263 197.5,222.5C 197.5,239.5 197.5,256.5 197.5,273.5C 196.209,273.737 195.209,273.404 194.5,272.5C 196.486,255.866 197.152,238.866 196.5,221.5C 197.167,204.5 197.833,187.5 198.5,170.5 Z"/></g>
<g><path style="opacity:1" fill="#e98e4e" d="M 200.5,223.5 C 198.515,239.8 197.848,256.466 198.5,273.5C 198.167,273.5 197.833,273.5 197.5,273.5C 197.5,256.5 197.5,239.5 197.5,222.5C 198.791,222.263 199.791,222.596 200.5,223.5 Z"/></g>
<g><path style="opacity:1" fill="#e36f1d" d="M 200.5,223.5 C 202.216,223.629 203.883,223.962 205.5,224.5C 213.826,227.626 222.159,230.626 230.5,233.5C 231.833,250.5 231.833,267.5 230.5,284.5C 219.816,280.828 209.149,277.161 198.5,273.5C 197.848,256.466 198.515,239.8 200.5,223.5 Z"/></g>
<g><path style="opacity:1" fill="#e3701f" d="M 279.5,263.5 C 295.042,266.187 310.708,267.687 326.5,268C 343.185,272.209 348.018,282.376 341,298.5C 337.328,303.384 332.495,306.217 326.5,307C 311.029,307.877 295.696,306.877 280.5,304C 279.51,290.579 279.177,277.079 279.5,263.5 Z"/></g>
<g><path style="opacity:1" fill="#fefdfd" d="M 157.5,264.5 C 158.167,264.5 158.833,264.5 159.5,264.5C 161.465,281.93 162.132,299.596 161.5,317.5C 149.82,316.317 138.154,316.317 126.5,317.5C 126.5,300.167 126.5,282.833 126.5,265.5C 126.5,265.167 126.5,264.833 126.5,264.5C 136.836,263.203 147.169,263.203 157.5,264.5 Z"/></g>
<g><path style="opacity:1" fill="#ed995f" d="M 120.5,265.5 C 116.433,267.054 112.1,267.72 107.5,267.5C 111.567,265.946 115.9,265.28 120.5,265.5 Z"/></g>
<g><path style="opacity:1" fill="#f8dcc8" d="M 159.5,264.5 C 160.167,264.5 160.833,264.5 161.5,264.5C 161.833,264.5 162.167,264.5 162.5,264.5C 162.5,264.833 162.5,265.167 162.5,265.5C 162.83,283.008 162.497,300.341 161.5,317.5C 162.132,299.596 161.465,281.93 159.5,264.5 Z"/></g>
<g><path style="opacity:1" fill="#f5c9ab" d="M 166.5,265.5 C 169.152,265.41 171.485,266.076 173.5,267.5C 170.848,267.59 168.515,266.924 166.5,265.5 Z"/></g>
<g><path style="opacity:1" fill="#f3bb94" d="M 239.5,337.5 C 242.152,337.41 244.485,338.076 246.5,339.5C 243.848,339.59 241.515,338.924 239.5,337.5 Z"/></g>
<g><path style="opacity:1" fill="#e88844" d="M 336.5,347.5 C 333.689,348.475 330.689,349.142 327.5,349.5C 327.826,357.684 327.492,365.684 326.5,373.5C 326.5,364.833 326.5,356.167 326.5,347.5C 329.833,347.5 333.167,347.5 336.5,347.5 Z"/></g>
<g><path style="opacity:1" fill="#f6c9a9" d="M 260.5,367.5 C 264.489,367.116 268.155,367.783 271.5,369.5C 267.64,369.192 263.974,368.525 260.5,367.5 Z"/></g>
</svg>
