<svg xmlns="http://www.w3.org/2000/svg" fill="none" viewBox="0 0 46 46" class="h-[46px] w-[46px]"><rect width="46" height="46" fill="#0D0C00" rx="23"></rect><path stroke="#FFDA00" stroke-width="1.348" d="m35.286 31.162-.003.005c-1.296 2.335-3.118 4.07-5.479 5.221-2.376 1.159-5.202 1.75-8.496 1.75h-5.945c-.766 0-1.3 0-1.715-.034-.408-.033-.642-.095-.82-.186a2.02 2.02 0 0 1-.883-.883c-.09-.177-.153-.412-.186-.82-.034-.415-.034-.95-.034-1.715V11.455c0-.766 0-1.3.034-1.715.033-.408.095-.642.186-.82.194-.38.503-.69.883-.883.178-.09.412-.153.82-.186.415-.034.95-.035 1.715-.035h6.655c3.329 0 6.106.579 8.358 1.704l.006.003c2.247 1.094 3.948 2.698 5.122 4.82 1.175 2.124 1.781 4.77 1.781 7.97 0 3.584-.68 6.522-2 8.849Z"></path><mask id="logo_svg__a" width="27" height="32" x="11" y="7" maskUnits="userSpaceOnUse" style="mask-type:alpha"><path fill="#F9D63C" d="M37.959 22.312q0 5.5-2.087 9.182-2.043 3.682-5.772 5.5t-8.792 1.819h-5.945c-1.51 0-2.264 0-2.84-.294a2.7 2.7 0 0 1-1.178-1.178c-.294-.577-.294-1.331-.294-2.841V11.455c0-1.51 0-2.264.294-2.84.258-.508.67-.92 1.177-1.179.577-.293 1.332-.293 2.841-.293h6.655q5.106 0 8.659 1.774 3.552 1.73 5.417 5.1 1.865 3.372 1.865 8.295"></path></mask><g mask="url(#logo_svg__a)"><ellipse cx="22.362" cy="20.376" fill="#FFDA00" rx="7.262" ry="6.627"></ellipse><path fill="#FFDA00" d="M31.987 33.354c0 5.197-5.237 7.674-11.696 7.674-9.682 0-11.815-3.364-11.46-7.674.369-4.463 5-7.674 11.46-7.674s11.696 2.752 11.696 7.674"></path><path fill="#F97429" d="M31.17 22.518c-1.703-.78-2.932-2.568-3.333-3.365.157 4.101-3.98 4-2.972 4.893s4.322 1.75 7.291 1.05c2.969-.702 1.142-1.603-.986-2.579"></path><path fill="#0D0C00" fill-rule="evenodd" d="M20.924 17.77c-.106-.548.41-.967.945-.808l5.498 1.623c.404.12.649.528.563.94l-.358 1.717a.77.77 0 0 1-.758.622c-1.181-.017-3.695-.179-4.643-1.215-.721-.789-1.076-1.995-1.247-2.878M33.38 19.16c.077-.466-.342-.813-.81-.742l-2.608.393a.81.81 0 0 0-.688.813l.024 1.536c.006.361.252.675.612.709.666.063 1.745.024 2.493-.7.628-.609.88-1.407.977-2.009" clip-rule="evenodd"></path><path fill="#7B7B7B" fill-rule="evenodd" d="M27.508 18.626c.552.196.929.624 1.565.456.356-.093.685-.234.685-.234s-.232 1.596-.296 2.845c-.334-.324-.11-1.289-.485-1.316-.643-.048-1.226.993-1.657 1.36.643-1.638.378-2.252.188-3.111" clip-rule="evenodd"></path><path fill="#F97429" fill-rule="evenodd" d="M26.991 21.954c-.502.608-1.13.97-1.6 1.24-.564.325-.901.52-.526.852 1.009.892 4.323 1.75 7.291 1.05 2.97-.701 1.142-1.603-.986-2.578-.885-.405-1.641-1.083-2.22-1.752l-.098 1.325z" clip-rule="evenodd"></path><path fill="#0D0C00" d="M30.046 23.18c-.073.156-.434.118-.696.03-.213-.072-.48-.239-.406-.47.053-.168.378-.25.703-.12s.473.404.4.56" opacity="0.2"></path></g></svg>