<svg width="120.000000" height="120.000000" viewBox="0 0 120 120" fill="none" xmlns="http://www.w3.org/2000/svg" xmlns:xlink="http://www.w3.org/1999/xlink">
	<rect id="opBNB" width="120.000000" height="120.000000" fill="#FFFFFF" fill-opacity="0"/>
	<path id="Binance Coin (BNB)" d="M118.19 74.51C110.17 106.65 77.62 126.21 45.47 118.2C13.34 110.19 -6.23 77.63 1.79 45.49C9.8 13.34 42.36 -6.22 74.49 1.79C106.64 9.8 126.2 42.37 118.19 74.51L118.19 74.51L118.19 74.51Z" fill="#F5F5F5" fill-opacity="1.000000" fill-rule="nonzero"/>
	<path id="path" d="M39.34 32.25L60.57 20L81.8 32.25L74 36.78L60.57 29.05L47.15 36.78L39.34 32.25ZM81.8 47.7L74 43.18L60.57 50.9L47.15 43.18L39.34 47.7L39.34 56.76L52.77 64.48L52.77 79.94L60.57 84.46L68.38 79.94L68.38 64.48L81.8 56.76L81.8 47.7ZM81.8 72.21L81.8 63.16L74 67.68L74 76.74L81.8 72.21ZM87.34 75.41L73.92 83.14L73.92 92.19L95.15 79.94L95.15 55.43L87.34 59.96L87.34 75.41ZM79.54 39.98L87.34 44.5L87.34 53.56L95.15 49.03L95.15 39.98L87.34 35.45L79.54 39.98ZM52.77 86.41L52.77 95.47L60.57 100L68.38 95.47L68.38 86.41L60.57 90.94L52.77 86.41ZM39.34 72.21L47.15 76.74L47.15 67.68L39.34 63.16L39.34 72.21ZM52.77 39.98L60.57 44.5L68.38 39.98L60.57 35.45L52.77 39.98ZM33.8 44.5L41.6 39.98L33.8 35.45L26 39.98L26 49.03L33.8 53.56L33.8 44.5ZM33.8 59.96L26 55.43L26 79.94L47.22 92.19L47.22 83.14L33.8 75.41L33.8 59.96Z" fill="#F3BA2F" fill-opacity="1.000000" fill-rule="nonzero"/>
</svg>
