<svg width="32.000000" height="32.000000" viewBox="0 0 32 32" fill="none" xmlns="http://www.w3.org/2000/svg" xmlns:xlink="http://www.w3.org/1999/xlink">
	<desc>
			Created with Pixso.
	</desc>
	<defs>
		<clipPath id="clip887_18">
			<rect id="Frax.com" width="20.480000" height="20.480000" transform="translate(5.759766 5.760010)" fill="white" fill-opacity="0"/>
		</clipPath>
	</defs>
	<rect id="Frax" rx="16.000000" width="32.000000" height="32.000000" fill="#000000" fill-opacity="1.000000"/>
	<g clip-path="url(#clip887_18)">
		<path id="path" d="M8.38 19.79C8.45 19.93 8.52 20.07 8.6 20.2C8.71 20.39 8.76 20.51 8.75 20.54C8.73 20.56 8.06 21.28 7.24 22.14C6.43 23.01 5.76 23.72 5.75 23.73C6.57 24.56 7.4 25.37 8.25 26.16L8.33 26.24L9.62 24.87L11.1 23.31L11.29 23.11L11.47 23.23C11.71 23.39 11.97 23.53 12.23 23.66C12.39 22.81 12.68 21.98 13.04 21.17L12.91 21.12C11.84 20.56 11.18 19.39 10.79 18.16C10.49 18.28 10.21 18.42 9.93 18.58C9.37 18.96 8.93 19.41 8.38 19.79ZM13.04 9.8C12.88 9.56 12.71 9.33 12.54 9.11C12.35 9.06 12.18 8.98 12.02 8.88C11.86 8.77 11.72 8.65 11.6 8.5L11.4 8.62L11.17 8.39C10.77 7.99 10.35 7.6 9.94 7.2C9.39 6.67 8.83 6.13 8.69 6L8.45 5.76L7.23 7.05C6.56 7.76 6 8.36 6 8.37C5.99 8.38 6.6 8.98 7.34 9.7L8.77 11.09L8.86 11.16L8.7 11.42C8.65 11.51 8.6 11.61 8.54 11.71C9.33 12.22 10.12 12.7 10.94 13.18C11.47 12.19 12.47 11.33 13.6 10.78C13.48 10.59 13.35 10.4 13.21 10.22C13.12 10.08 13.12 9.93 13.04 9.8ZM23.36 11.47L23.25 11.29L24.69 9.77C25.47 8.93 26.12 8.24 26.11 8.22C26.09 8.17 23.58 5.77 23.54 5.77C23.52 5.77 22.89 6.42 22.14 7.22C21.38 8.02 20.76 8.67 20.75 8.68C20.73 8.68 20.66 8.65 20.59 8.6C20.45 8.5 19.74 8.82 19.27 8.93C19.01 9.51 18.79 10.11 18.56 10.7C18.81 10.83 19.05 10.97 19.28 11.14C19.65 11.4 20.54 12.1 20.8 12.48C20.86 12.57 20.92 12.66 20.98 12.76C21.81 12.41 22.66 12.09 23.5 11.73C23.45 11.63 23.4 11.55 23.36 11.47L23.36 11.47ZM23.52 20.96L23.18 20.63L23.33 20.37C23.39 20.27 23.45 20.17 23.51 20.06C22.8 19.44 22.13 18.82 21.37 18.23C21.09 19.06 20.66 19.79 20.09 20.34C19.8 20.62 19.43 20.86 19.02 21.05L19.05 21.24C19.21 22 19.66 22.58 19.97 23.26C20.01 23.34 20.05 23.43 20.08 23.52C20.18 23.46 20.28 23.4 20.38 23.34L20.64 23.18L20.91 23.46C21.86 24.38 22.81 25.29 23.76 26.2C23.79 26.21 26.24 23.62 26.24 23.59C26.23 23.57 24.55 21.94 23.52 20.96Z" fill="#FFFFFF" fill-opacity="1.000000" fill-rule="nonzero"/>
		<path id="path" d="M16 24.76C15.75 24.76 15.51 24.75 15.26 24.73C15.01 24.71 14.76 24.67 14.51 24.63C14.27 24.59 14.02 24.53 13.78 24.47C13.54 24.41 13.3 24.33 13.06 24.25C12.83 24.16 12.6 24.07 12.37 23.97C12.14 23.86 11.92 23.75 11.7 23.63C11.48 23.5 11.27 23.37 11.06 23.23C10.86 23.09 10.66 22.94 10.46 22.78C10.27 22.62 10.08 22.46 9.91 22.28C9.73 22.11 9.55 21.92 9.39 21.74C9.23 21.55 9.07 21.35 8.92 21.15C8.78 20.95 8.64 20.74 8.51 20.52C8.38 20.31 8.26 20.09 8.15 19.87C8.04 19.64 7.94 19.41 7.85 19.18C7.76 18.95 7.68 18.71 7.61 18.47C7.54 18.23 7.48 17.99 7.43 17.74C7.38 17.5 7.34 17.25 7.31 17C7.28 16.75 7.26 16.5 7.26 16.25C7.25 16 7.25 15.75 7.27 15.5C7.28 15.25 7.31 15.01 7.34 14.76C7.38 14.51 7.42 14.26 7.48 14.02C7.54 13.78 7.6 13.54 7.68 13.3C7.76 13.06 7.85 12.83 7.94 12.6C8.04 12.37 8.15 12.14 8.26 11.92C8.38 11.7 8.51 11.48 8.64 11.27C8.78 11.06 8.92 10.86 9.07 10.66C9.23 10.46 9.39 10.27 9.56 10.08C9.73 9.9 9.9 9.72 10.09 9.55C10.27 9.38 10.46 9.22 10.66 9.07C10.86 8.92 11.06 8.77 11.27 8.64C11.48 8.5 11.7 8.38 11.92 8.26C12.14 8.14 12.37 8.04 12.6 7.94C12.73 7.88 12.86 7.83 13 7.78C13.13 7.73 13.27 7.69 13.4 7.64C13.54 7.6 13.68 7.56 13.82 7.53C13.96 7.49 14.1 7.46 14.24 7.43C14.38 7.4 14.52 7.37 14.66 7.35C14.8 7.33 14.94 7.31 15.09 7.3C15.23 7.28 15.37 7.27 15.51 7.26C15.66 7.25 15.8 7.25 15.94 7.25C16.09 7.25 16.23 7.25 16.37 7.26C16.52 7.26 16.66 7.27 16.8 7.29C16.94 7.3 17.09 7.31 17.23 7.33C17.37 7.35 17.51 7.38 17.65 7.41C17.79 7.43 17.93 7.46 18.07 7.5C18.21 7.53 18.35 7.57 18.49 7.61C18.62 7.65 18.76 7.69 18.9 7.74C19.03 7.79 19.17 7.84 19.3 7.89C19.43 7.95 19.56 8 19.69 8.06C19.82 8.12 19.95 8.19 20.08 8.25C20.2 8.32 20.33 8.39 20.45 8.46C20.58 8.54 20.7 8.61 20.82 8.69C20.94 8.77 21.06 8.85 21.17 8.94C21.29 9.02 21.4 9.11 21.51 9.2C21.62 9.29 21.73 9.38 21.84 9.48C21.95 9.57 22.05 9.67 22.15 9.77C22.25 9.87 22.35 9.97 22.45 10.08C22.55 10.18 22.64 10.29 22.73 10.4C22.83 10.51 22.91 10.62 23 10.74C23.09 10.85 23.17 10.97 23.25 11.09C23.33 11.21 23.41 11.33 23.48 11.45C23.56 11.57 23.63 11.7 23.7 11.82C23.77 11.95 23.83 12.08 23.89 12.21C23.96 12.33 24.02 12.47 24.07 12.6C24.13 12.73 24.18 12.86 24.23 13C24.28 13.13 24.32 13.27 24.37 13.4C24.41 13.54 24.45 13.68 24.48 13.82C24.52 13.96 24.55 14.1 24.58 14.24C24.61 14.38 24.64 14.52 24.66 14.66C24.68 14.8 24.7 14.94 24.71 15.09C24.73 15.23 24.74 15.37 24.75 15.51C24.76 15.66 24.76 15.8 24.76 15.94C24.76 16.09 24.76 16.23 24.75 16.37C24.75 16.52 24.74 16.66 24.73 16.8C24.71 16.94 24.7 17.09 24.68 17.23C24.66 17.37 24.63 17.51 24.61 17.65C24.58 17.79 24.55 17.93 24.51 18.07C24.48 18.21 24.44 18.35 24.4 18.49C24.36 18.63 24.32 18.76 24.27 18.9C24.22 19.03 24.17 19.17 24.12 19.3C24.06 19.43 24.01 19.56 23.95 19.69C23.89 19.82 23.82 19.95 23.76 20.08C23.69 20.2 23.62 20.33 23.55 20.45C23.47 20.58 23.4 20.7 23.32 20.82C23.24 20.94 23.16 21.06 23.08 21.17C22.99 21.29 22.9 21.4 22.81 21.51C22.72 21.62 22.63 21.73 22.54 21.84C22.44 21.95 22.34 22.05 22.24 22.15C22.14 22.26 22.04 22.35 21.93 22.45C21.83 22.55 21.72 22.64 21.61 22.73C21.5 22.83 21.39 22.92 21.27 23C21.16 23.09 21.04 23.17 20.92 23.25C20.8 23.33 20.68 23.41 20.56 23.48C20.44 23.56 20.31 23.63 20.19 23.7C20.06 23.77 19.93 23.83 19.8 23.89C19.68 23.96 19.54 24.02 19.41 24.07C18.87 24.3 18.32 24.47 17.74 24.59C17.17 24.7 16.59 24.76 16 24.76ZM16 10.68C13.07 10.68 10.68 13.07 10.68 16.01C10.68 18.94 13.07 21.33 16 21.33C18.94 21.33 21.33 18.94 21.33 16.01C21.33 13.07 18.94 10.68 16 10.68Z" fill="#FFFFFF" fill-opacity="1.000000" fill-rule="nonzero"/>
	</g>
</svg>
