<svg xmlns="http://www.w3.org/2000/svg" xmlns:xlink="http://www.w3.org/1999/xlink" width="999.999756" height="1000.000000" viewBox="0 0 1000 1000" fill="none">
	<defs>
		<clipPath id="clip67_78">
			<rect id="Vizing_Profile" rx="500.000000" width="1000.000000" height="1000.000000" fill="white" fill-opacity="0"/>
		</clipPath>
	</defs>
	<g clip-path="url(#clip67_78)">
		<rect id="rect" width="1000.000000" height="1000.000000" fill="#040102" fill-opacity="1.000000"/>
		<path id="path" d="M325.94 752.88C375.56 787.23 435.75 807.37 500.59 807.37C661.07 807.37 793.05 684.03 806.79 527.07C747.64 570.64 665.98 618.39 572.57 661.95C482.29 704.05 396.07 735.22 325.94 752.88Z" fill="#FFFFFF" fill-opacity="1.000000" fill-rule="evenodd"/>
		<path id="path" d="M779.3 370.32C753.57 375.26 724.78 382.53 693.73 391.95C686.91 379.81 678.98 368.37 670.09 357.77C635.34 316.28 588.51 290.79 539.02 282.1C485.72 272.65 433.47 283.22 389.96 308.38C343.06 335.4 309.83 377.08 292.67 424.32C274.11 475.16 275.45 528.45 292.67 575.67C293.19 577.09 293.72 578.51 294.26 579.93C267 598.09 243.09 615.84 223.26 632.6C204 592.44 193.21 547.46 193.21 500C193.21 330.39 330.98 192.62 500.59 192.62C623.87 192.62 730.34 265.42 779.3 370.32Z" fill="#FFFFFF" fill-opacity="1.000000" fill-rule="evenodd"/>
		<path id="path" d="M562.36 351.56C551.04 351.56 541.87 360.74 541.87 372.05C541.87 380.8 547.34 388.26 555.06 391.2C555.43 397.94 555.01 404.63 553.85 411.15C551.35 425.35 545.53 438.13 537.33 448.86C545.36 445.36 553.35 441.97 561.28 438.67C564.94 430.66 567.5 422.31 568.99 413.83C570.35 406.1 570.8 398.42 570.43 390.89C577.74 387.76 582.85 380.5 582.85 372.05C582.85 360.74 573.68 351.56 562.36 351.56ZM429.29 500.19C436.93 496.23 444.69 492.29 452.55 488.37C440.4 487.85 428.79 484.8 418.3 479.67C410.49 475.88 403.5 471.07 397.42 465.48C398.06 463.49 398.4 461.38 398.4 459.18C398.4 447.87 389.23 438.69 377.91 438.69C366.6 438.69 357.42 447.87 357.42 459.18C357.42 470.5 366.6 479.67 377.91 479.67C381.4 479.67 384.67 478.81 387.54 477.27C394.82 483.87 402.92 489.3 411.56 493.49C417.36 496.31 423.29 498.53 429.29 500.19Z" fill="#FFFFFF" fill-opacity="1.000000" fill-rule="evenodd"/>
		<path id="path" d="M154.4 733.27C132.34 685.97 280.75 570.08 485.89 474.42C691.03 378.76 875.21 339.56 897.27 386.87C919.33 434.17 770.92 550.07 565.78 645.73C360.64 741.39 176.46 780.58 154.4 733.27Z" fill="#BB2C2C" fill-opacity="1.000000" fill-rule="evenodd"/>
	</g>
</svg>