<svg width="1000" height="1000" viewBox="0 0 1000 1000" fill="none" xmlns="http://www.w3.org/2000/svg">
<rect width="1000" height="1000" fill="#040102"/>
<path fill-rule="evenodd" clip-rule="evenodd" d="M325.942 752.884C375.561 787.239 435.75 807.377 500.592 807.377C661.074 807.377 793.057 684.032 806.791 527.075C747.642 570.641 665.987 618.397 572.575 661.957C482.297 704.058 396.073 735.221 325.942 752.884Z" fill="white"/>
<path fill-rule="evenodd" clip-rule="evenodd" d="M779.302 370.325C753.579 375.268 724.783 382.537 693.733 391.953C686.914 379.811 678.989 368.374 670.091 357.778C635.342 316.284 588.518 290.8 539.02 282.104C485.724 272.654 433.474 283.225 389.969 308.38C343.067 335.4 309.838 377.084 292.678 424.321C274.117 475.165 275.458 528.458 292.678 575.671C293.193 577.1 293.723 578.519 294.269 579.933C267.008 598.099 243.099 615.84 223.268 632.602C204.007 592.444 193.216 547.469 193.216 500C193.216 330.392 330.985 192.623 500.593 192.623C623.876 192.623 730.347 265.42 779.302 370.325Z" fill="white"/>
<path fill-rule="evenodd" clip-rule="evenodd" d="M562.366 351.565C551.049 351.565 541.874 360.74 541.874 372.056C541.874 380.801 547.35 388.266 555.061 391.207C555.435 397.946 555.014 404.635 553.852 411.159C551.352 425.357 545.532 438.139 537.335 448.861C545.368 445.368 553.355 441.972 561.28 438.67C564.943 430.665 567.504 422.315 568.99 413.836C570.353 406.106 570.808 398.422 570.434 390.897C577.74 387.765 582.858 380.506 582.858 372.056C582.858 360.74 573.682 351.565 562.366 351.565ZM429.292 500.19C436.937 496.233 444.691 492.296 452.551 488.378C440.409 487.858 428.797 484.801 418.301 479.678C410.491 475.886 403.507 471.073 397.424 465.48C398.064 463.499 398.409 461.383 398.409 459.186C398.409 447.87 389.234 438.695 377.918 438.695C366.601 438.695 357.426 447.87 357.426 459.186C357.426 470.503 366.601 479.678 377.918 479.678C381.4 479.678 384.676 478.813 387.548 477.277C394.822 483.875 402.927 489.304 411.567 493.491C417.365 496.313 423.294 498.539 429.292 500.19Z" fill="white"/>
<path fill-rule="evenodd" clip-rule="evenodd" d="M154.403 733.279C132.34 685.978 280.756 570.082 485.899 474.42C691.038 378.765 875.213 339.567 897.278 386.87C919.332 434.177 770.925 550.077 565.787 645.732C360.641 741.393 176.461 780.589 154.403 733.279Z" fill="#BB2C2C"/>
</svg>
