<svg width="30" height="30" viewBox="0 0 30 30" fill="none" xmlns="http://www.w3.org/2000/svg"><rect width="30" height="30" rx="8" fill="#BAE21A"></rect><path d="M8.92817 4C9.266 4.09607 9.51313 4.28822 9.58242 4.6468C9.65944 5.05179 9.72338 5.45944 9.79297 5.86561C10.0043 7.0995 10.2157 8.3334 10.4273 9.56729C10.6507 10.868 10.8744 12.1693 11.0982 13.4712C11.3322 14.8357 11.5627 16.2006 11.7994 17.5642C11.883 18.0449 11.6124 18.462 11.1508 18.5424C10.7143 18.6184 10.3131 18.3269 10.2331 17.8643C9.95455 16.254 9.67738 14.643 9.40161 13.0313C9.14784 11.5556 8.89377 10.0801 8.63941 8.60477C8.43005 7.38566 8.22129 6.16645 8.01312 4.94715C7.93966 4.51585 8.17965 4.14899 8.60789 4.02572C8.62575 4.01864 8.64297 4.01003 8.65934 4H8.92817Z" fill="#1A1D1F"></path><path d="M11.5735 15.1641C11.5019 14.7473 11.4344 14.3556 11.3654 13.9642C11.3654 13.9545 11.3636 13.9444 11.3621 13.9347C11.3053 13.5856 11.3053 13.5856 11.6089 13.4082C15.1737 11.3274 19.848 13.2962 20.8192 17.2878C21.6483 20.6957 19.55 24.0615 16.1078 24.8458C12.6923 25.6238 9.23818 23.3763 8.59672 19.9531C8.29606 18.3514 8.58809 16.8583 9.44872 15.4731C9.48709 15.411 9.52991 15.3513 9.59117 15.2599C9.63905 15.5283 9.68306 15.7645 9.72351 16.0013C9.81778 16.5532 9.9067 17.106 10.0063 17.6568C10.0239 17.7546 10.0063 17.8424 9.98759 17.932C9.49779 20.4228 11.2051 22.9574 13.7204 23.4729C16.3614 24.0136 18.8788 22.399 19.4688 19.7855C20.0457 17.2314 18.3277 14.6028 15.7414 14.0917C14.2381 13.796 12.8865 14.1307 11.6839 15.0728C11.6547 15.097 11.625 15.1236 11.5735 15.1641Z" fill="#1A1D1F"></path><path d="M17.6184 17.0481C17.8423 17.0535 18.0551 17.1461 18.2109 17.3059C18.3668 17.4658 18.4533 17.6801 18.4517 17.9027C18.4502 18.1254 18.3607 18.3385 18.2026 18.4961C18.0445 18.6538 17.8304 18.7435 17.6065 18.7458C17.1345 18.7428 16.7441 18.3488 16.7536 17.8832C16.7594 17.6593 16.8532 17.4465 17.0148 17.2904C17.1764 17.1344 17.3931 17.0474 17.6184 17.0481Z" fill="#111315"></path><path d="M15.2574 21.5698C15.2564 21.7952 15.1653 22.0111 15.0042 22.1698C14.8431 22.3285 14.6251 22.4171 14.3983 22.4161C14.1715 22.4151 13.9543 22.3245 13.7947 22.1644C13.635 22.0042 13.5459 21.7876 13.5469 21.5621C13.5469 21.0974 13.9484 20.703 14.4135 20.7134C14.8821 20.7237 15.2616 21.1089 15.2574 21.5698Z" fill="#111315"></path><path d="M14.6923 15.9555C14.6956 15.4825 15.0676 15.1201 15.5464 15.1216C15.6591 15.1212 15.7708 15.1434 15.8747 15.1867C15.9786 15.23 16.0728 15.2936 16.1515 15.3738C16.2303 15.4539 16.2921 15.5489 16.3333 15.6532C16.3745 15.7575 16.3942 15.8689 16.3913 15.9809C16.3863 16.445 16.0047 16.8113 15.5271 16.8086C15.4157 16.808 15.3055 16.7854 15.2029 16.742C15.1004 16.6986 15.0075 16.6354 14.9298 16.556C14.8521 16.4766 14.7911 16.3826 14.7504 16.2795C14.7096 16.1764 14.6899 16.0662 14.6923 15.9555Z" fill="#111315"></path><path d="M17.0654 21.4202C16.9539 21.4219 16.8431 21.4015 16.7396 21.3602C16.6362 21.3189 16.542 21.2575 16.4626 21.1797C16.3833 21.1018 16.3203 21.0089 16.2775 20.9066C16.2346 20.8043 16.2127 20.6944 16.2131 20.5836C16.2107 20.4713 16.2309 20.3598 16.2725 20.2554C16.314 20.151 16.3761 20.0558 16.455 19.9756C16.534 19.8953 16.6282 19.8314 16.7323 19.7878C16.8363 19.7441 16.9481 19.7215 17.061 19.7213C17.174 19.721 17.2858 19.7432 17.3901 19.7864C17.4943 19.8296 17.5888 19.8931 17.6681 19.973C17.7474 20.053 17.8099 20.1478 17.8518 20.2521C17.8938 20.3563 17.9145 20.4678 17.9126 20.58C17.9139 20.6909 17.8929 20.8009 17.8507 20.9035C17.8086 21.0062 17.7462 21.0994 17.6672 21.1777C17.5882 21.256 17.4943 21.3178 17.391 21.3594C17.2876 21.4011 17.1769 21.4217 17.0654 21.4202Z" fill="#111315"></path><path d="M12.8608 17.7895C12.7493 17.79 12.6387 17.7685 12.5357 17.726C12.4326 17.6835 12.3392 17.621 12.2607 17.5422C12.1823 17.4633 12.1205 17.3697 12.079 17.2667C12.0375 17.1638 12.0171 17.0537 12.0189 16.9428C12.0182 16.8307 12.0399 16.7196 12.0827 16.6159C12.1256 16.5123 12.1888 16.4181 12.2687 16.3389C12.3485 16.2598 12.4434 16.1972 12.5478 16.1549C12.6522 16.1126 12.7641 16.0913 12.8769 16.0924C12.9896 16.0934 13.101 16.1168 13.2046 16.1611C13.3082 16.2053 13.4019 16.2697 13.4802 16.3503C13.5586 16.431 13.62 16.5263 13.6609 16.6308C13.7018 16.7352 13.7214 16.8467 13.7185 16.9588C13.7158 17.4273 13.3387 17.7927 12.8608 17.7895Z" fill="#111315"></path><path d="M14.1222 18.7597C14.1208 18.6487 14.1419 18.5386 14.1842 18.436C14.2266 18.3333 14.2892 18.2401 14.3685 18.162C14.4477 18.0839 14.542 18.0224 14.6456 17.9812C14.7493 17.94 14.8602 17.9199 14.9718 17.9222C15.0846 17.9213 15.1965 17.9429 15.3008 17.9856C15.4051 18.0283 15.4997 18.0914 15.5792 18.171C15.6586 18.2506 15.7212 18.3452 15.7634 18.4493C15.8055 18.5533 15.8262 18.6647 15.8244 18.7768C15.8198 19.0007 15.7267 19.2138 15.5653 19.37C15.404 19.5262 15.1872 19.613 14.962 19.6116C14.8504 19.6109 14.7401 19.5883 14.6374 19.545C14.5347 19.5018 14.4416 19.4387 14.3636 19.3595C14.2855 19.2803 14.224 19.1865 14.1825 19.0836C14.1411 18.9806 14.1206 18.8705 14.1222 18.7597Z" fill="#111315"></path><path d="M12.3284 20.471C12.1033 20.4728 11.8868 20.3857 11.7264 20.2289C11.5659 20.072 11.4748 19.8582 11.4729 19.6345C11.4711 19.4109 11.5587 19.1956 11.7165 19.0361C11.8743 18.8767 12.0894 18.7861 12.3144 18.7842C12.4258 18.7833 12.5363 18.8042 12.6396 18.8457C12.7429 18.8873 12.8369 18.9486 12.9164 19.0263C12.9958 19.104 13.0591 19.1965 13.1025 19.2984C13.146 19.4004 13.1689 19.5099 13.1698 19.6206C13.1707 19.7314 13.1497 19.8413 13.1079 19.9439C13.0661 20.0466 13.0044 20.1401 12.9262 20.219C12.8481 20.298 12.7551 20.3609 12.6525 20.4041C12.5499 20.4473 12.4398 20.4701 12.3284 20.471Z" fill="#111315"></path></svg>