<svg width="120.000000" height="120.000000" viewBox="0 0 120 120" fill="none" xmlns="http://www.w3.org/2000/svg" xmlns:xlink="http://www.w3.org/1999/xlink">
	<defs>
		<clipPath id="clip78_744">
			<rect id="Arbitrum One" rx="59.999996" width="119.999992" height="120.000000" fill="white" fill-opacity="0"/>
		</clipPath>
	</defs>
	<rect id="Arbitrum One" rx="59.999996" width="119.999992" height="120.000000" fill="#FFFFFF" fill-opacity="0"/>
	<g clip-path="url(#clip78_744)">
		<path id="path" d="M15.85 38.94L15.85 81.1C15.85 83.78 17.28 86.27 19.63 87.6L56.21 108.67C58.54 110.02 61.43 110.02 63.75 108.67L100.36 87.6C102.68 86.25 104.14 83.78 104.14 81.1L104.14 38.94C104.14 36.26 102.71 33.77 100.36 32.42L63.75 11.35C61.43 10 58.54 10 56.21 11.35L19.61 32.42C17.31 33.77 15.85 36.24 15.85 38.94Z" fill="#213147" fill-opacity="1.000000" fill-rule="nonzero"/>
		<path id="path" d="M67.99 68.19L62.75 82.45C62.6 82.84 62.6 83.29 62.75 83.68L71.72 108.24L82.12 102.25L69.65 68.16C69.37 67.4 68.27 67.4 67.99 68.19Z" fill="#12AAFF" fill-opacity="1.000000" fill-rule="nonzero"/>
		<path id="path" d="M78.44 44.16C78.16 43.37 77.06 43.37 76.75 44.16L71.52 58.43C71.36 58.84 71.36 59.27 71.52 59.65L86.23 99.88L96.63 93.89L78.44 44.16Z" fill="#12AAFF" fill-opacity="1.000000" fill-rule="nonzero"/>
		<path id="path" d="M60 12.9C60.25 12.9 60.51 12.98 60.74 13.1L100.33 35.91C100.79 36.16 101.07 36.65 101.07 37.18L101.07 82.78C101.07 83.32 100.79 83.8 100.33 84.06L60.74 106.89C60.51 107.01 60.25 107.09 60 107.09C59.74 107.09 59.48 107.01 59.25 106.89L19.66 84.08C19.2 83.83 18.92 83.34 18.92 82.81L18.92 37.18C18.92 36.65 19.2 36.16 19.66 35.91L59.25 13.1C59.48 12.98 59.74 12.9 60 12.9ZM60 6.25C58.59 6.25 57.16 6.63 55.91 7.35L16.31 30.15C13.81 31.6 12.22 34.28 12.22 37.18L12.22 82.78C12.22 85.69 13.78 88.39 16.31 89.84L55.91 112.64C57.16 113.38 58.56 113.74 60 113.74C61.43 113.74 62.83 113.36 64.08 112.64L103.68 89.84C106.21 88.39 107.77 85.71 107.77 82.78L107.77 37.18C107.77 34.28 106.21 31.58 103.68 30.12L64.08 7.35C62.81 6.63 61.4 6.25 60 6.25Z" fill="#9DCCED" fill-opacity="1.000000" fill-rule="nonzero"/>
		<path id="polygon" d="M33.81 99.93L37.46 89.99L44.77 96.06L37.95 102.3L33.81 99.93Z" fill="#213147" fill-opacity="1.000000" fill-rule="nonzero"/>
		<path id="path" d="M56.65 33.94L46.61 33.94C45.87 33.94 45.18 34.4 44.92 35.12L23.41 93.97L33.81 99.96L57.52 35.14C57.72 34.56 57.29 33.94 56.65 33.94Z" fill="#FFFFFF" fill-opacity="1.000000" fill-rule="nonzero"/>
		<path id="path" d="M74.22 33.94L64.18 33.94C63.44 33.94 62.75 34.4 62.5 35.12L37.95 102.3L48.35 108.29L75.07 35.14C75.3 34.56 74.84 33.94 74.22 33.94Z" fill="#FFFFFF" fill-opacity="1.000000" fill-rule="nonzero"/>
	</g>
</svg>
