<svg width="500" height="364" viewBox="0 0 500 364" fill="none" xmlns="http://www.w3.org/2000/svg">
<path d="M132.2 23.7001C130.5 24.4001 128.2 29.0001 125 38.5001C123.4 42.9001 117.2 60.2001 111 77.0001C104.9 93.8001 91.1 131.3 80.5 160.5C69.9 189.6 53.5 234.6 44 260.5C34.6 286.4 24.6 313.7 21.9 321.2L16.9 334.9L17.2 337.7L17.5 340.5L41 340.8L64.5 341.1L66.7 339.9C67.9 339.2 69.6 336.9 70.5 334.6C72.2 330.5 94.3 270.1 105 240.5C108.2 231.7 115.1 212.8 120.3 198.5C125.5 184.2 138.6 148.4 149.3 119C160.1 89.6001 171.8 57.4001 175.5 47.5001L182.1 29.5001L181.8 26.5001L181.5 23.5001L157.5 23.3001C144.3 23.2001 132.9 23.4001 132.2 23.7001Z" fill="#D56512"/>
<path d="M201.9 24C201.1 24.5 199.6 26.6 198.7 28.7C197.8 30.8 190.9 49.4 183.4 70C165.9 118.4 141.4 185.5 110.6 269.8L86 337.1L87 339.1L88.1 341H111.8L135.5 340.9L137.3 339.6C139.4 338 140.2 336 163.5 272C173 245.9 186 210.3 192.3 193C198.6 175.7 213.4 135.4 225 103.5C236.6 71.6 247.5 41.8 249.2 37.3L252.1 29.1L251.8 26.3L251.5 23.5L227.5 23.3L203.5 23L201.9 24Z" fill="#D56512"/>
<path d="M362.3 25.2C361.2 26.5 359.8 28.8 359.2 30.5C358.6 32.1 348.9 58.9 337.6 89.9C326.3 120.9 317 147.4 317 148.8C317 150.9 331.1 191 338.2 208.7L340.2 214H343H345.8L346.5 212.2C348.1 208.1 357.4 182.8 360 175.5C361.5 171.1 369.4 149.5 377.5 127.5C385.5 105.5 397.1 73.8 403.2 57.1L414.3 26.7L413.3 25.1L412.3 23.5L388.3 23.2L364.4 23L362.3 25.2Z" fill="#D56512"/>
<path d="M432.3 25.2L430.2 27.5L416 66.5C408.2 87.9 399.2 112.7 396 121.5C392.8 130.3 383.4 156.2 375 179C366.6 201.8 358 225.4 355.8 231.5L351.8 242.5L352.3 246C352.7 249 366.8 288.7 373.2 304.7L375.2 310H378H380.8L381.5 308.2C382.3 306.1 398.9 260.8 422.5 196C432 169.9 449.4 122.4 461 90.5C472.7 58.6 482.7 31.1 483.3 29.3L484.3 26.1L483 24.5L481.8 23H458.1H434.3L432.3 25.2Z" fill="#D56512"/>
<path d="M259 55.9C257.5 58.8 236 118.1 236 119.5C236 120.8 240.1 132.3 270.5 215.5C281.3 245.2 295.8 284.8 302.6 303.5L315 337.5L317.1 339.2L319.2 341H342.5H365.8L367.1 339.4L368.4 337.8L367.3 334.2C366.7 332.2 363.5 323.1 360.2 314C352.4 292.6 318 198.1 305.5 164C300.2 149.4 289.5 120.2 281.8 99C274.1 77.8 267.2 59 266.4 57.2L265.1 54H262.6H260.1L259 55.9Z" fill="#D56512"/>
<path d="M224.2 151.7C222.6 154.7 201 214 201 215.4C201 216.2 206 230.4 212.1 247.1C218.2 263.8 228.1 291 234.1 307.5L245 337.5L247.1 339.3L249.2 341H272.4H295.6L296.8 339.8C297.5 339.1 298 337.9 298 337C298 336.1 293.3 322.6 287.6 306.9C262.1 237 243.5 186.1 237.3 169L230.5 150.5L227.8 150.2L225.1 149.9L224.2 151.7Z" fill="#D56512"/>
</svg>
