<svg xmlns="http://www.w3.org/2000/svg" xmlns:xlink="http://www.w3.org/1999/xlink" width="88px" height="88px" viewBox="0 0 88 88" version="1.1">
    <title>logo-zk fair</title>
    <defs>
        <circle id="path-1" cx="44" cy="44" r="44"/>
    </defs>
    <g id="twitter" stroke="none" stroke-width="1" fill="none" fill-rule="evenodd">
        <g id="logo-zk-fair">
            <mask id="mask-2" fill="white">
                <use xlink:href="#path-1"/>
            </mask>
            <use id="modal" fill="#000000" xlink:href="#path-1"/>
            <path d="M65.027187,47.0470935 C65.027187,48.9788631 65.027187,50.9107873 65.027187,52.8424024 C64.7286284,53.0978596 64.3578654,53.0816327 63.9973067,53.0817873 C54.7073566,53.0864235 45.4170973,53.0884325 36.1271471,53.0803964 C34.8804988,53.0794691 34.6494908,52.8493567 34.6473726,51.6219876 C34.6380958,46.5959866 34.6385132,41.5699857 34.6471716,36.543892 C34.6492743,35.2885817 34.8779786,35.0701681 36.190013,35.0687618 C43.2546733,35.0610965 50.3191172,35.0661346 57.3837157,35.0651301 C58.8701696,35.0649292 58.8714065,35.0639247 58.8712519,33.6329933 C58.8710973,32.6921597 58.863212,31.7511252 58.872798,30.8104925 C58.8780549,30.2804303 58.6506185,30.0309384 58.089217,30.0537488 C57.8053466,30.0652467 57.5199302,30.0521261 57.2354414,30.0521261 C46.3668878,30.0519252 35.498226,30.0525433 24.6297651,30.0515234 C23.0175143,30.0513225 22.9991597,30.0488962 23.0227887,28.5307725 C23.0462066,27.0253676 22.919834,25.5175271 23.0928316,24.0143342 C36.8638649,24.0143342 50.6348379,24.0181695 64.4059501,24 C64.9378205,23.9993972 65.0446584,24.0995158 65.042676,24.6087887 C65.0179102,30.1068338 65.027187,35.6050829 65.027187,41.1031156 C64.627202,41.4217803 64.1443442,41.3395642 63.6871521,41.3398733 C56.7310923,41.3451277 49.7753417,41.3431187 42.8194364,41.3437368 C41.2054265,41.3438914 41.2046534,41.3449732 41.2051172,42.8877617 C41.2052718,43.902018 41.1910474,44.9165834 41.2106833,45.9306852 C41.2253716,46.6826845 41.3261796,46.7704641 42.1213566,46.8005997 C42.6122544,46.8191447 43.1037706,46.8066268 43.5951322,46.8066268 C50.2925237,46.8070904 56.9897606,46.8050814 63.6871521,46.8104903 C64.1443442,46.8106449 64.627202,46.7281197 65.027187,47.0470935 Z" id="path" fill="#E13022" fill-rule="nonzero" mask="url(#mask-2)"/>
            <path d="M65.0268778,63.9871677 C51.3336908,63.9871677 37.6409831,63.9829951 23.9482336,64 C23.3132067,64.0007674 23.0838789,63.9183967 23.0861821,63.2211052 C23.1172125,54.156933 23.1129931,45.0927608 23.0923177,36.0285731 C23.0910519,35.4480377 23.2399988,35.2881799 23.8473885,35.3067404 C25.3212429,35.3517583 26.7984664,35.3487293 28.2727521,35.3091667 C28.9459701,35.2912089 29.1525028,35.4886049 29.1504,36.1492701 C29.1263422,43.3809038 29.1400564,50.6123675 29.1244404,57.8439858 C29.123389,58.3261555 29.1900584,58.5174779 29.7727656,58.5167052 C41.4467781,58.4981602 53.1207132,58.5026419 64.7946484,58.5020238 C64.8721097,58.5020238 64.9494165,58.4936785 65.0268778,58.4891968 C65.0268778,60.3215962 65.0268778,62.1544592 65.0268778,63.9871677 Z" id="path" fill="#E13022" fill-rule="nonzero" mask="url(#mask-2)"/>
        </g>
    </g>
</svg>