<svg width="120.000000" height="120.000000" viewBox="0 0 120 120" fill="none" xmlns="http://www.w3.org/2000/svg" xmlns:xlink="http://www.w3.org/1999/xlink">
	<defs>
		<clipPath id="clip78_875">
			<rect id="ZKFair" rx="60.000000" width="120.000000" height="120.000000" fill="white" fill-opacity="0"/>
		</clipPath>
	</defs>
	<rect id="ZKFair" rx="60.000000" width="120.000000" height="120.000000" fill="#000000" fill-opacity="1.000000"/>
	<g clip-path="url(#clip78_875)">
		<path d="M93.2132 64.8753L93.2132 74.1478C92.7628 74.5333 92.2098 74.5321 91.6646 74.5309L91.6604 74.5309C91.629 74.5308 91.5975 74.5308 91.5662 74.5308C76.7092 74.5382 61.8516 74.5414 46.9946 74.5286C45.0009 74.5271 44.6315 74.1589 44.6281 72.1951C44.6133 64.1535 44.6139 56.1119 44.6278 48.0702C44.6311 46.0617 44.9969 45.7122 47.0952 45.71C54.7506 45.7016 62.4059 45.7027 70.0612 45.7037C73.7039 45.7042 77.3466 45.7047 80.9893 45.7041C83.3666 45.7038 83.3685 45.7022 83.3683 43.4127C83.3682 42.9508 83.3669 42.4889 83.3657 42.027C83.3629 40.9835 83.3601 39.9399 83.3707 38.8967C83.3792 38.0486 83.0154 37.6494 82.1176 37.6859C81.8215 37.6979 81.5243 37.6932 81.2271 37.6884C81.0687 37.6859 80.9103 37.6833 80.7522 37.6833C74.9583 37.6832 69.1644 37.6833 63.3705 37.6833C51.7828 37.6834 40.195 37.6835 28.6074 37.6824C26.029 37.6821 25.9996 37.6782 26.0374 35.2492C26.0499 34.4459 26.0358 33.6422 26.0216 32.8385C25.9933 31.2322 25.965 29.6259 26.1494 28.0229C29.4185 28.0229 32.6877 28.023 35.9568 28.0231C54.7111 28.0239 73.4653 28.0247 92.2197 27.9999C93.0703 27.999 93.2411 28.1591 93.2379 28.974C93.2068 35.886 93.2094 42.7983 93.2119 49.7104C93.2125 51.5952 93.2132 53.4801 93.2132 55.3649C92.6824 55.788 92.0604 55.7694 91.4464 55.7511C91.3203 55.7474 91.1946 55.7437 91.0701 55.7437C82.9007 55.7499 74.7316 55.7498 66.5624 55.7497L66.5059 55.7497C63.5697 55.7497 60.6335 55.7497 57.6973 55.7499C55.1161 55.7502 55.1149 55.7519 55.1156 58.2203C55.1157 58.7036 55.1137 59.1869 55.1118 59.6702L55.1118 59.6716C55.1071 60.8109 55.1025 61.9501 55.1245 63.089C55.148 64.2922 55.3092 64.4327 56.5809 64.4809C57.1404 64.502 57.7005 64.4979 58.2607 64.4938C58.4864 64.4922 58.7122 64.4905 58.9379 64.4905C61.6143 64.4907 64.2907 64.4907 66.9671 64.4906C75.0014 64.4904 83.0357 64.4902 91.0701 64.4967C91.1946 64.4968 91.3202 64.493 91.4462 64.4892L91.4464 64.4892C92.0605 64.4706 92.6824 64.4518 93.2132 64.8753ZM82.3964 91.9791C86.0015 91.9793 89.6067 91.9794 93.2119 91.9794C93.2119 89.0471 93.2119 86.1145 93.2121 83.1827C93.0882 83.1899 92.9645 83.2032 92.8407 83.2032C89.4573 83.2034 86.0739 83.2033 82.6905 83.2032C67.4043 83.2028 52.118 83.2024 36.8318 83.2267C35.8998 83.2279 35.7932 82.9218 35.7949 82.1504C35.8199 70.5798 35.7979 59.0094 35.8364 47.4388C35.8398 46.3818 35.5095 46.0659 34.4328 46.0947C32.0751 46.158 29.7126 46.1628 27.3556 46.0908C26.3842 46.0611 26.146 46.3169 26.148 47.2457C26.1811 61.7484 26.1878 76.2511 26.1382 90.7538C26.1345 91.8694 26.5013 92.0012 27.5168 92C45.81 91.9772 64.103 91.9781 82.3964 91.9791Z" clip-rule="evenodd" fill="#E13022" fill-opacity="1.000000" fill-rule="evenodd"/>
	</g>
</svg>
