<svg width="48.000000" height="48.000000" viewBox="0 0 48 48" fill="none" xmlns="http://www.w3.org/2000/svg" xmlns:xlink="http://www.w3.org/1999/xlink">
	<desc>
			Created with Pixso.
	</desc>
	<defs>
		<clipPath id="clip2166_407">
			<rect id="IoTex" rx="24.000000" width="48.000000" height="48.000000" fill="white" fill-opacity="0"/>
		</clipPath>
		<linearGradient x1="50.946430" y1="23.999979" x2="-3.964283" y2="23.999979" id="paint_linear_2166_407_0" gradientUnits="userSpaceOnUse">
			<stop offset="0.005349" stop-color="#9D3FE3"/>
			<stop offset="0.496907" stop-color="#4792E9"/>
			<stop offset="1.000000" stop-color="#67DBB7"/>
		</linearGradient>
	</defs>
	<rect id="IoTex" rx="24.000000" width="48.000000" height="48.000000" fill="#000000" fill-opacity="1.000000"/>
	<rect id="IoTex" rx="24.000000" width="48.000000" height="48.000000" fill="url(#paint_linear_2166_407_0)" fill-opacity="1.000000"/>
	<g clip-path="url(#clip2166_407)">
		<path id="path" d="M24.82 11.14L24.82 17.33L30.18 14.23L24.82 11.14Z" fill="#FFFFFF" fill-opacity="1.000000" fill-rule="nonzero"/>
		<g opacity="0.900000">
			<path id="path" d="M30.19 14.23L30.19 20.41L35.55 17.32L30.19 14.23Z" fill="#FFFFFF" fill-opacity="1.000000" fill-rule="nonzero"/>
		</g>
		<g opacity="0.800000">
			<path id="path" d="M24.82 17.33L24.82 23.51L30.19 20.42L24.82 17.33Z" fill="#FFFFFF" fill-opacity="1.000000" fill-rule="nonzero"/>
		</g>
		<g opacity="0.800000">
			<path id="path" d="M30.19 20.42L30.19 26.6L35.55 23.51L30.19 20.42ZM24.82 23.51L24.82 29.7L30.19 26.6L24.82 23.51Z" fill="#FFFFFF" fill-opacity="1.000000" fill-rule="nonzero"/>
		</g>
		<path id="path" d="M30.19 26.6L30.19 32.79L35.55 29.7L30.19 26.6Z" fill="#FFFFFF" fill-opacity="1.000000" fill-rule="nonzero"/>
		<g opacity="0.400000">
			<path id="path" d="M10.93 17.12L10.93 23.3L16.29 20.21L10.93 17.12Z" fill="#FFFFFF" fill-opacity="1.000000" fill-rule="nonzero"/>
		</g>
		<g opacity="0.200000">
			<path id="path" d="M17.7 19.42L17.7 25.6L23.07 22.51L17.7 19.42Z" fill="#FFFFFF" fill-opacity="1.000000" fill-rule="nonzero"/>
		</g>
		<g opacity="0.300000">
			<path id="path" d="M13.72 23.33L13.72 29.52L19.09 26.42L13.72 23.33Z" fill="#FFFFFF" fill-opacity="1.000000" fill-rule="nonzero"/>
		</g>
		<g opacity="0.900000">
			<path id="path" d="M17.26 28L17.26 34.19L22.63 31.09L17.26 28Z" fill="#FFFFFF" fill-opacity="1.000000" fill-rule="nonzero"/>
		</g>
		<g opacity="0.700000">
			<path id="path" d="M24.76 30.66L24.76 36.85L30.13 33.75L24.76 30.66Z" fill="#FFFFFF" fill-opacity="1.000000" fill-rule="nonzero"/>
		</g>
		<g opacity="0.900000">
			<path id="path" d="M18.59 16.36L18.59 22.55L23.96 19.46L18.59 16.36Z" fill="#FFFFFF" fill-opacity="1.000000" fill-rule="nonzero"/>
		</g>
		<g opacity="0.800000">
			<path id="path" d="M24.82 11.14L24.82 17.33L19.44 14.23L24.82 11.14Z" fill="#FFFFFF" fill-opacity="1.000000" fill-rule="nonzero"/>
		</g>
		<g opacity="0.600000">
			<path id="path" d="M18.59 13.76L18.59 19.95L13.23 16.86L18.59 13.76ZM23.96 16.83L23.96 23.02L18.6 19.92L23.96 16.83Z" fill="#FFFFFF" fill-opacity="1.000000" fill-rule="nonzero"/>
		</g>
		<g opacity="0.950000">
			<path id="path" d="M17.68 19.42L17.68 25.6L12.31 22.51L17.68 19.42Z" fill="#FFFFFF" fill-opacity="1.000000" fill-rule="nonzero"/>
		</g>
		<g opacity="0.600000">
			<path id="path" d="M24.82 23.51L24.82 29.7L19.44 26.6L24.82 23.51Z" fill="#FFFFFF" fill-opacity="1.000000" fill-rule="nonzero"/>
		</g>
		<g opacity="0.550000">
			<path id="path" d="M13.72 24.96L13.72 31.14L8.35 28.05L13.72 24.96Z" fill="#FFFFFF" fill-opacity="1.000000" fill-rule="nonzero"/>
		</g>
		<path id="path" d="M35.55 17.33L35.55 23.51L30.19 20.42L35.55 17.33Z" fill="#FFFFFF" fill-opacity="1.000000" fill-rule="nonzero"/>
		<g opacity="0.950000">
			<path id="path" d="M30.19 20.42L30.19 26.6L24.82 23.51L30.19 20.42Z" fill="#FFFFFF" fill-opacity="1.000000" fill-rule="nonzero"/>
		</g>
		<g opacity="0.900000">
			<path id="path" d="M35.56 23.51L35.56 29.7L30.19 26.6L35.56 23.51Z" fill="#FFFFFF" fill-opacity="1.000000" fill-rule="nonzero"/>
		</g>
		<g opacity="0.700000">
			<path id="path" d="M30.18 26.6L30.18 32.79L24.82 29.7L30.18 26.6Z" fill="#FFFFFF" fill-opacity="1.000000" fill-rule="nonzero"/>
		</g>
		<g opacity="0.400000">
			<path id="path" d="M23.63 29.19L23.63 35.38L18.25 32.29L23.63 29.19Z" fill="#FFFFFF" fill-opacity="1.000000" fill-rule="nonzero"/>
		</g>
		<path id="path" d="M30.19 14.23L30.19 20.41L24.82 17.32L30.19 14.23Z" fill="#FFFFFF" fill-opacity="1.000000" fill-rule="nonzero"/>
	</g>
</svg>
