<svg xmlns="http://www.w3.org/2000/svg" width="28" height="28" viewBox="0 0 28 28" fill="none"><script xmlns=""/>
    <g clip-path="url(#clip0_3063_1599)">
        <path d="M14 28C21.732 28 28 21.732 28 14C28 6.26801 21.732 0 14 0C6.26801 0 0 6.26801 0 14C0 21.732 6.26801 28 14 28Z" fill="#2B7E21"/>
        <path d="M20.4419 21.5184C18.7117 23.0109 16.4607 23.9126 14.0001 23.9126C11.5395 23.9126 9.30016 23.0157 7.57239 21.5297L14.0132 15.0703L20.4419 21.518V21.5184Z" fill="white"/>
        <path d="M13.9992 4.08691C8.54117 4.08691 4.11597 8.52515 4.11597 14.0003C4.11597 15.9458 4.67471 17.7606 5.64047 19.291C5.90501 19.7115 6.20067 20.1104 6.52454 20.485L7.58562 19.4208L14.0124 12.9756L21.4861 20.4713C21.809 20.0958 22.1037 19.6963 22.3682 19.2754C23.3277 17.7479 23.883 15.939 23.883 13.9998C23.8835 8.52515 19.4583 4.08691 13.9992 4.08691ZM21.3256 17.6816L21.2352 17.863L14.0124 10.6184L6.77303 17.8791L6.6821 17.6986C6.10974 16.5598 5.80727 15.281 5.80727 14.0003C5.80727 9.46938 9.48213 5.7832 13.9997 5.7832C18.5173 5.7832 22.1927 9.46938 22.1927 14.0003C22.1927 15.2742 21.8931 16.5476 21.3261 17.6821L21.3256 17.6816Z" fill="white"/>
    </g>
    <defs>
        <clipPath id="clip0_3063_1599">
            <rect width="28" height="28" fill="white"/>
        </clipPath>
    </defs>
</svg>
