<svg width="120.000000" height="120.000000" viewBox="0 0 120 120" fill="none" xmlns="http://www.w3.org/2000/svg" xmlns:xlink="http://www.w3.org/1999/xlink">
	<defs>
		<clipPath id="clip78_1161">
			<rect id="Zircuit" rx="60.000000" width="120.000000" height="120.000000" fill="white" fill-opacity="0"/>
		</clipPath>
	</defs>
	<rect id="Zircuit" rx="60.000000" width="120.000000" height="120.000000" fill="#2B7E21" fill-opacity="1.000000"/>
	<g clip-path="url(#clip78_1161)">
		<path d="M7.27319 60.0045C7.27319 30.8818 30.8811 7.27429 59.999 7.27429C89.1226 7.27429 112.73 30.8818 112.728 60.002C112.728 70.3166 109.765 79.9387 104.646 88.064C103.235 90.3027 101.663 92.4274 99.9404 94.4248L60.0692 54.5544L25.7833 88.8369L20.1227 94.4977C18.3948 92.5053 16.8175 90.3831 15.4062 88.1469C10.254 80.0061 7.27319 70.353 7.27319 60.0045ZM98.6021 80.5511L99.0846 79.5859C102.109 73.5518 103.71 66.7809 103.71 60.0045C103.71 35.9042 84.1027 16.2971 60.002 16.2971C35.901 16.2971 16.296 35.9042 16.296 60.0045C16.296 66.817 17.9097 73.6193 20.9631 79.6768L21.4482 80.6366L60.0692 42.0162L98.6021 80.5511ZM60.0011 112.729C73.1281 112.729 85.1368 107.932 94.3674 99.9938L60.0709 65.6954L25.71 100.054C34.9274 107.958 46.8738 112.729 60.0011 112.729Z" clip-rule="evenodd" fill="#FFFFFF" fill-opacity="1.000000" fill-rule="evenodd"/>
	</g>
</svg>
