<svg width="120.000000" height="120.000000" viewBox="0 0 120 120" fill="none" xmlns="http://www.w3.org/2000/svg" xmlns:xlink="http://www.w3.org/1999/xlink">
	<defs>
		<clipPath id="clip78_838">
			<rect id="Mantle" rx="60.000000" width="120.000000" height="120.000000" fill="white" fill-opacity="0"/>
		</clipPath>
	</defs>
	<rect id="Mantle" rx="60.000000" width="120.000000" height="120.000000" fill="#000000" fill-opacity="1.000000"/>
	<g clip-path="url(#clip78_838)">
		<path id="path" d="M59.98 104L59.99 89.02C58.47 89.02 56.94 88.9 55.44 88.66L53.11 103.46C55.37 103.81 57.68 104 59.98 104ZM66.86 103.46C69.13 103.1 71.39 102.57 73.57 101.86L68.96 87.61C67.52 88.08 66.03 88.43 64.53 88.67L66.86 103.46ZM46.39 101.85L51.01 87.61C49.57 87.14 48.16 86.55 46.81 85.86L40 99.2C42.05 100.25 44.2 101.14 46.39 101.85ZM79.96 99.22C82 98.18 83.99 96.96 85.85 95.61L77.04 83.5C75.81 84.39 74.51 85.19 73.16 85.88L79.96 99.22ZM34.11 95.59L42.93 83.48C41.71 82.6 40.55 81.6 39.47 80.52L28.88 91.1C30.5 92.73 32.27 94.24 34.11 95.59ZM91.02 91.2C92.64 89.58 94.23 87.73 95.57 85.89L83.48 77.07C82.59 78.28 81.59 79.45 80.52 80.52L80.37 80.68L85.46 85.48L91.02 91.2ZM24.39 85.86L36.5 77.05C35.61 75.82 34.81 74.52 34.12 73.17L20.78 79.97C21.82 82.02 23.04 84 24.39 85.86ZM99.19 80C100.24 77.95 101.13 75.8 101.84 73.61L87.6 68.99C87.13 70.43 86.55 71.84 85.86 73.19L99.19 80ZM18.14 73.58L32.39 68.97C31.92 67.53 31.56 66.04 31.33 64.54L16.54 66.87C16.89 69.14 17.43 71.4 18.14 73.58ZM103.45 66.9C103.81 64.63 103.99 62.32 104 60.02L89.02 60.02C89.02 61.53 88.9 63.06 88.66 64.56L103.45 66.9ZM30.97 59.99C30.97 58.47 31.09 56.94 31.33 55.44L16.54 53.11C16.18 55.38 16 57.69 16 59.99L30.97 59.99ZM88.67 55.47L103.46 53.15C103.11 50.87 102.57 48.61 101.86 46.43L87.61 51.03C88.08 52.48 88.43 53.97 88.67 55.47ZM32.39 51.02C32.85 49.57 33.44 48.16 34.12 46.81L20.78 40.01C19.74 42.06 18.85 44.21 18.14 46.4L32.39 51.02ZM85.88 46.83L99.22 40.04C98.18 38 96.97 36.01 95.61 34.15L83.5 42.96C84.39 44.18 85.19 45.49 85.88 46.83ZM36.51 42.94C37.4 41.72 38.39 40.55 39.47 39.47L28.92 28.85C27.29 30.48 25.75 32.27 24.4 34.12L36.51 42.94ZM80.57 39.52L83.77 36.26L91.13 28.9C89.51 27.28 87.74 25.76 85.9 24.42L77.07 36.52C78.29 37.4 79.5 38.45 80.57 39.52ZM42.97 36.48C44.19 35.59 45.5 34.79 46.84 34.11L40.06 20.76C38.01 21.81 36.03 23.02 34.17 24.37L42.97 36.48ZM73.2 34.13L80.01 20.8C77.97 19.76 75.82 18.86 73.63 18.15L69 32.39C70.44 32.86 71.85 33.44 73.2 34.13ZM51.05 32.38C52.49 31.91 53.98 31.56 55.48 31.32L53.16 16.53C50.89 16.88 48.63 17.42 46.45 18.13L51.05 32.38ZM64.57 31.33L66.91 16.54C64.65 16.18 62.33 16 60.04 16L60.02 30.97C61.54 30.97 63.07 31.09 64.57 31.33Z" fill="#FFFFFF" fill-opacity="1.000000" fill-rule="nonzero"/>
		<path id="path" d="M60.49 90L60.49 74.91C59.23 74.91 57.97 74.74 56.76 74.42L52.86 88.99C55.35 89.66 57.91 90 60.49 90ZM68.12 88.99C70.61 88.33 73.01 87.34 75.24 86.05L67.69 72.98C66.61 73.61 65.44 74.09 64.23 74.41L68.12 88.99ZM45.73 86.05L53.29 72.98C52.21 72.36 51.2 71.58 50.3 70.69L50.16 70.55L45.4 75.57L39.55 81.27C41.38 83.1 43.51 84.76 45.73 86.05ZM81.35 81.36C83.17 79.53 84.75 77.48 86.04 75.26L72.98 67.7C72.35 68.78 71.58 69.79 70.68 70.68L81.35 81.36ZM34.92 75.23L48 67.69C47.37 66.6 46.89 65.43 46.57 64.22L31.98 68.1C32.65 70.59 33.64 72.99 34.92 75.23ZM88.99 68.14C89.65 65.65 89.99 63.09 90 60.51L74.9 60.5C74.9 61.77 74.74 63.02 74.41 64.24L88.99 68.14ZM46.08 60.48C46.08 59.22 46.25 57.96 46.58 56.75L32 52.84C31.34 55.33 31 57.89 31 60.47L46.08 60.48ZM74.42 56.77L89 52.88C88.33 50.39 87.34 47.99 86.05 45.76L72.98 53.3C73.61 54.39 74.09 55.55 74.42 56.77ZM48.01 53.28C48.63 52.22 49.39 51.22 50.28 50.34L44.92 44.9L39.73 39.55C37.9 41.37 36.24 43.51 34.95 45.72L48.01 53.28ZM70.69 50.32L76.03 44.97L81.49 39.78L81.35 39.64C79.53 37.81 77.48 36.24 75.26 34.95L67.7 48.01C68.77 48.63 69.8 49.43 70.69 50.32ZM53.3 48C54.38 47.38 55.55 46.9 56.76 46.57L52.88 31.99C50.38 32.66 47.99 33.65 45.75 34.94L53.3 48ZM64.24 46.58L68.14 32C65.65 31.34 63.09 31 60.51 31L60.5 46.08C61.77 46.08 63.02 46.25 64.24 46.58Z" fill="#FFFFFF" fill-opacity="1.000000" fill-rule="nonzero"/>
	</g>
</svg>
