<svg width="120.000000" height="120.000000" viewBox="0 0 120 120" fill="none" xmlns="http://www.w3.org/2000/svg" xmlns:xlink="http://www.w3.org/1999/xlink">
	<defs>
		<clipPath id="clip78_745">
			<rect id="Scroll" rx="60.000000" width="120.000015" height="120.000000" fill="white" fill-opacity="0"/>
		</clipPath>
	</defs>
	<g clip-path="url(#clip78_745)">
		<rect id="rect" width="120.000008" height="120.000008" fill="#FFEEDA" fill-opacity="1.000000"/>
		<path id="path" d="M90.1 70.81L90.1 29.89C90.05 26.45 87.32 23.7 83.89 23.7L41.18 23.7C31.97 23.83 24.56 31.37 24.56 40.62C24.56 43.72 25.4 46.4 26.67 48.75C27.75 50.7 29.45 52.54 31.13 53.91C31.62 54.29 31.37 54.13 32.83 55.02C34.83 56.24 37.13 56.86 37.13 56.86L37.1 81.35C37.16 82.51 37.27 83.62 37.59 84.67C38.54 88.13 40.94 90.78 44.18 92.05C45.54 92.59 47.08 92.94 48.72 92.97L82.83 93.08C89.62 93.08 95.13 87.56 95.13 80.75C95.16 76.7 93.13 73.08 90.1 70.81Z" fill="#FFEEDA" fill-opacity="1.000000" fill-rule="nonzero"/>
		<path id="path" d="M90.94 81.05C90.81 85.4 87.21 88.91 82.81 88.91L59.35 88.83C61.21 86.67 62.35 83.86 62.35 80.78C62.35 75.97 59.48 72.64 59.48 72.64L82.83 72.64C87.32 72.64 90.97 76.29 90.97 80.78L90.94 81.05Z" fill="#EBC28E" fill-opacity="1.000000" fill-rule="nonzero"/>
		<path id="path" d="M33.37 50.45C30.67 47.89 28.78 44.59 28.78 40.64L28.78 40.24C29 33.54 34.51 28.13 41.21 27.94L83.91 27.94C85.02 28 85.91 28.78 85.91 29.91L85.91 66.05C86.89 66.21 87.37 66.35 88.32 66.7C89.08 66.97 90.1 67.56 90.1 67.56L90.1 29.91C90.05 26.48 87.32 23.72 83.89 23.72L41.18 23.72C31.97 23.86 24.56 31.4 24.56 40.64C24.56 46.02 27.02 50.62 31.02 53.83C31.29 54.05 31.56 54.35 32.27 54.35C33.51 54.35 34.4 53.35 34.35 52.27C34.35 51.35 33.94 51.02 33.37 50.45Z" fill="#101010" fill-opacity="1.000000" fill-rule="nonzero"/>
		<path id="path" d="M82.81 68.43L49.32 68.43C47.08 68.45 45.27 70.27 45.27 72.51L45.27 77.32C45.32 79.54 47.21 81.43 49.48 81.43L51.97 81.43L51.97 77.32L49.45 77.32L49.45 72.62C49.45 72.62 50.08 72.62 50.81 72.62C55.05 72.62 58.16 76.54 58.16 80.75C58.16 84.48 54.75 89.24 49.08 88.86C44.05 88.54 41.32 84.05 41.32 80.75L41.32 39.94C41.32 38.1 39.81 36.59 37.97 36.59L34.62 36.59L34.62 40.78L37.1 40.78L37.1 80.78C36.97 88.91 42.89 93 49.08 93L82.83 93.1C89.62 93.1 95.13 87.59 95.13 80.78C95.16 73.97 89.62 68.43 82.81 68.43ZM90.94 81.05C90.81 85.4 87.21 88.91 82.81 88.91L59.35 88.83C61.21 86.67 62.35 83.86 62.35 80.78C62.35 75.97 59.48 72.64 59.48 72.64L82.83 72.64C87.32 72.64 90.97 76.29 90.97 80.78L90.94 81.05Z" fill="#101010" fill-opacity="1.000000" fill-rule="nonzero"/>
		<path id="path" d="M73.78 41.54L48.54 41.54L48.54 37.35L73.78 37.35C74.91 37.35 75.86 38.27 75.86 39.43C75.89 40.59 74.97 41.54 73.78 41.54Z" fill="#101010" fill-opacity="1.000000" fill-rule="nonzero"/>
		<path id="path" d="M73.78 61.18L48.54 61.18L48.54 57.02L73.78 57.02C74.91 57.02 75.86 57.94 75.86 59.1C75.89 60.24 74.97 61.18 73.78 61.18Z" fill="#101010" fill-opacity="1.000000" fill-rule="nonzero"/>
		<path id="path" d="M78.24 51.35L48.54 51.35L48.54 47.16L78.21 47.16C79.35 47.16 80.29 48.08 80.29 49.24C80.35 50.4 79.4 51.35 78.24 51.35Z" fill="#101010" fill-opacity="1.000000" fill-rule="nonzero"/>
	</g>
</svg>
