<svg width="120.000000" height="120.000000" viewBox="0 0 120 120" fill="none" xmlns="http://www.w3.org/2000/svg" xmlns:xlink="http://www.w3.org/1999/xlink">
	<defs>
		<clipPath id="clip78_788">
			<rect id="linea" rx="60.000000" width="120.000000" height="120.000000" transform="translate(0.000000 0.000004)" fill="white" fill-opacity="0"/>
		</clipPath>
	</defs>
	<rect id="linea" rx="60.000000" width="120.000000" height="120.000000" transform="translate(0.000000 0.000004)" fill="#000000" fill-opacity="1.000000"/>
	<g clip-path="url(#clip78_788)">
		<path id="linea" d="M45.28 39.41C45.45 39.41 45.59 39.54 45.59 39.71L45.59 78.4C45.59 78.57 45.73 78.71 45.9 78.71L80.93 78.71C81.1 78.71 81.24 78.84 81.24 79.01L81.24 87.69C81.24 87.86 81.1 88 80.93 88L35.3 88C35.13 88 35 87.86 35 87.69L35 39.71C35 39.54 35.13 39.41 35.3 39.41L45.28 39.41ZM80.93 32C84.83 32 88 35.13 88 39C88 42.86 84.83 46 80.93 46C77.03 46 73.86 42.86 73.86 39C73.86 35.13 77.03 32 80.93 32Z" fill="#FFFFFF" fill-opacity="1.000000" fill-rule="nonzero"/>
		<path id="linea" d="M45.59 39.71L45.59 78.4C45.59 78.57 45.73 78.71 45.9 78.71L80.93 78.71C81.1 78.71 81.24 78.84 81.24 79.01L81.24 87.69C81.24 87.86 81.1 88 80.93 88L35.3 88C35.13 88 35 87.86 35 87.69L35 39.71C35 39.54 35.13 39.41 35.3 39.41L45.28 39.41C45.45 39.41 45.59 39.54 45.59 39.71ZM88 39C88 42.86 84.83 46 80.93 46C77.03 46 73.86 42.86 73.86 39C73.86 35.13 77.03 32 80.93 32C84.83 32 88 35.13 88 39Z" stroke="#000000" stroke-opacity="0" stroke-width="1.000000"/>
	</g>
</svg>
