<svg width="1000" height="1000" viewBox="0 0 1000 1000" fill="none" xmlns="http://www.w3.org/2000/svg">
<circle cx="500" cy="500" r="500" fill="black"/>
<path fill-rule="evenodd" clip-rule="evenodd" d="M351 700.766C289.709 655.203 250 582.239 250 500C250 361.929 361.929 250 500 250C638.071 250 750 361.929 750 500C750 592.535 699.725 673.328 625 716.554V666.952L401 798.762V907.292L351 957.292V700.766ZM401 740.748L625 608.938V363.023L401 495.087L401 740.748ZM1000 500C1000 776.142 776.142 1000 500 1000C223.858 1000 0 776.142 0 500C0 223.858 223.858 0 500 0C776.142 0 1000 223.858 1000 500Z" fill="#FF1A2D"/>
</svg>
