<svg width="120.000000" height="120.000000" viewBox="0 0 120 120" fill="none" xmlns="http://www.w3.org/2000/svg" xmlns:xlink="http://www.w3.org/1999/xlink">
	<defs>
		<filter id="filter_78_884_dd" x="-55.994202" y="-67.088623" width="241.153870" height="241.116699" filterUnits="userSpaceOnUse" color-interpolation-filters="sRGB">
			<feFlood flood-opacity="0" result="BackgroundImageFix"/>
			<feBlend mode="normal" in="SourceGraphic" in2="BackgroundImageFix" result="shape"/>
			<feGaussianBlur stdDeviation="18.8503" result="effect_layerBlur_1"/>
		</filter>
		<filter id="filter_78_886_dd" x="-93.547668" y="-119.781006" width="330.063477" height="330.100342" filterUnits="userSpaceOnUse" color-interpolation-filters="sRGB">
			<feFlood flood-opacity="0" result="BackgroundImageFix"/>
			<feBlend mode="normal" in="SourceGraphic" in2="BackgroundImageFix" result="shape"/>
			<feGaussianBlur stdDeviation="37.7007" result="effect_layerBlur_1"/>
		</filter>
		<filter id="filter_78_888_dd" x="-26.012634" y="-50.539398" width="193.101440" height="193.138397" filterUnits="userSpaceOnUse" color-interpolation-filters="sRGB">
			<feFlood flood-opacity="0" result="BackgroundImageFix"/>
			<feBlend mode="normal" in="SourceGraphic" in2="BackgroundImageFix" result="shape"/>
			<feGaussianBlur stdDeviation="14.1378" result="effect_layerBlur_1"/>
		</filter>
		<filter id="filter_78_890_dd" x="12.244751" y="-34.878845" width="134.545471" height="134.545319" filterUnits="userSpaceOnUse" color-interpolation-filters="sRGB">
			<feFlood flood-opacity="0" result="BackgroundImageFix"/>
			<feBlend mode="normal" in="SourceGraphic" in2="BackgroundImageFix" result="shape"/>
			<feGaussianBlur stdDeviation="13.3333" result="effect_layerBlur_1"/>
		</filter>
		<filter id="filter_78_892_dd" x="50.608398" y="3.484741" width="57.781189" height="57.781097" filterUnits="userSpaceOnUse" color-interpolation-filters="sRGB">
			<feFlood flood-opacity="0" result="BackgroundImageFix"/>
			<feBlend mode="normal" in="SourceGraphic" in2="BackgroundImageFix" result="shape"/>
			<feGaussianBlur stdDeviation="6" result="effect_layerBlur_1"/>
		</filter>
		<filter id="filter_78_894_dd" x="-68.016174" y="-97.032898" width="280.559753" height="280.559692" filterUnits="userSpaceOnUse" color-interpolation-filters="sRGB">
			<feFlood flood-opacity="0" result="BackgroundImageFix"/>
			<feBlend mode="normal" in="SourceGraphic" in2="BackgroundImageFix" result="shape"/>
			<feGaussianBlur stdDeviation="14.1378" result="effect_layerBlur_1"/>
		</filter>
		<clipPath id="clip78_902">
			<rect id="Zora" width="119.999977" height="120.000000" fill="white" fill-opacity="0"/>
		</clipPath>
		<radialGradient gradientTransform="translate(79.6694 30.7515) rotate(128.228) scale(102.245 102.236)" cx="0.000000" cy="0.000000" r="1.000000" id="paint_radial_78_889_0" gradientUnits="userSpaceOnUse">
			<stop offset="0.286458" stop-color="#387AFA"/>
			<stop offset="0.647782" stop-color="#387AFA" stop-opacity="0.000000"/>
		</radialGradient>
		<radialGradient gradientTransform="translate(72.2637 43.2469) rotate(90) scale(97.8665 97.8665)" cx="0.000000" cy="0.000000" r="1.000000" id="paint_radial_78_895_0" gradientUnits="userSpaceOnUse">
			<stop offset="0.598958" stop-color="#000000" stop-opacity="0.000000"/>
			<stop offset="0.671875" stop-color="#000000"/>
			<stop offset="0.734375" stop-color="#000000" stop-opacity="0.000000"/>
		</radialGradient>
	</defs>
	<g clip-path="url(#clip78_902)">
		<mask id="mask78_881" mask-type="alpha" maskUnits="userSpaceOnUse" x="0.000000" y="0.000000" width="119.999969" height="119.999969">
			<path id="path" d="M60 120C93.13 120 120 93.13 120 60C120 26.86 93.13 0 60 0C26.86 0 0 26.86 0 60C0 93.13 26.86 120 60 120Z" fill="#D9D9D9" fill-opacity="1.000000" fill-rule="nonzero"/>
		</mask>
		<g mask="url(#mask78_881)">
			<path id="path" d="M140.33 -26.09L-18.52 -26.09L-18.52 132.76L140.33 132.76L140.33 -26.09Z" fill="#A1723A" fill-opacity="1.000000" fill-rule="nonzero"/>
			<g filter="url(#filter_78_884_dd)">
				<path id="path" d="M64.58 117.47C99.94 117.47 128.6 88.81 128.6 53.46C128.6 18.11 99.94 -10.54 64.58 -10.54C29.22 -10.54 0.55 18.11 0.55 53.46C0.55 88.81 29.22 117.47 64.58 117.47Z" fill="#531002" fill-opacity="1.000000" fill-rule="nonzero"/>
			</g>
			<g filter="url(#filter_78_886_dd)">
				<path id="path" d="M71.48 97.21C100.16 97.21 123.41 73.95 123.41 45.26C123.41 16.57 100.16 -6.68 71.48 -6.68C42.8 -6.68 19.55 16.57 19.55 45.26C19.55 73.95 42.8 97.21 71.48 97.21Z" fill="#2B5DF0" fill-opacity="1.000000" fill-rule="nonzero"/>
			</g>
			<g filter="url(#filter_78_888_dd)">
				<path id="path" d="M70.53 100.18C100.43 100.18 124.67 75.93 124.67 46.02C124.67 16.12 100.43 -8.13 70.53 -8.13C40.63 -8.13 16.4 16.12 16.4 46.02C16.4 75.93 40.63 100.18 70.53 100.18Z" fill="url(#paint_radial_78_889_0)" fill-opacity="1.000000" fill-rule="nonzero"/>
			</g>
			<g filter="url(#filter_78_890_dd)">
				<path id="path" d="M79.51 59.66C94.58 59.66 106.79 47.45 106.79 32.39C106.79 17.33 94.58 5.12 79.51 5.12C64.45 5.12 52.24 17.33 52.24 32.39C52.24 47.45 64.45 59.66 79.51 59.66Z" fill="#FCB8D4" fill-opacity="1.000000" fill-rule="nonzero"/>
			</g>
			<g filter="url(#filter_78_892_dd)">
				<path id="path" d="M79.49 43.26C85.51 43.26 90.38 38.39 90.38 32.37C90.38 26.36 85.51 21.48 79.49 21.48C73.48 21.48 68.6 26.36 68.6 32.37C68.6 38.39 73.48 43.26 79.49 43.26Z" fill="#FFFFFF" fill-opacity="1.000000" fill-rule="nonzero"/>
			</g>
			<g filter="url(#filter_78_894_dd)">
				<path id="path" d="M72.26 141.11C126.31 141.11 170.13 97.29 170.13 43.24C170.13 -10.81 126.31 -54.62 72.26 -54.62C18.21 -54.62 -25.61 -10.81 -25.61 43.24C-25.61 97.29 18.21 141.11 72.26 141.11Z" fill="url(#paint_radial_78_895_0)" fill-opacity="0.900000" fill-rule="nonzero"/>
			</g>
		</g>
	</g>
</svg>
