<svg width="120.000000" height="120.000000" viewBox="0 0 120 120" fill="none" xmlns="http://www.w3.org/2000/svg" xmlns:xlink="http://www.w3.org/1999/xlink">
	<defs>
		<clipPath id="clip78_931">
			<rect id="zkLink Nova" rx="60.000000" width="120.000000" height="120.000000" fill="white" fill-opacity="0"/>
		</clipPath>
	</defs>
	<rect id="zkLink Nova" rx="60.000000" width="120.000000" height="120.000000" fill="#000000" fill-opacity="1.000000"/>
	<g clip-path="url(#clip78_931)">
		<path id="copy-21 " d="M62.28 85.2L62.28 63.63L43.64 52.84L25 63.63L25 85.2L43.64 96L62.28 85.2ZM58.2 65.98L58.2 82.85L43.64 91.28L29.08 82.85L29.08 65.98L43.64 57.55L58.2 65.98Z" fill="#03D498" fill-opacity="1.000000" fill-rule="evenodd"/>
		<path id="copy-22 " d="M95.48 85.2L95.48 63.63L76.84 52.84L58.2 63.63L58.2 85.2L76.84 96L95.48 85.2ZM91.4 65.98L91.4 82.85L76.84 91.28L62.28 82.85L62.28 65.98L76.84 57.55L91.4 65.98Z" fill="#03D498" fill-opacity="1.000000" fill-rule="evenodd"/>
		<path id="line " d="M58.19 83.76L58.19 64.54L62.28 64.54L62.28 83.76L58.19 83.76Z" fill="#03D498" fill-opacity="1.000000" fill-rule="evenodd"/>
		<path id="copy-23" d="M78.89 56.36L78.89 34.79L60.25 24L41.61 34.79L41.61 56.36L60.25 67.15L78.89 56.36ZM74.81 37.14L74.81 54.01L60.25 62.44L45.69 54.01L45.69 37.14L60.25 28.71L74.81 37.14Z" fill="#03D498" fill-opacity="1.000000" fill-rule="evenodd"/>
		<path id="line " d="M60.25 67.16L77.88 56.96L75.83 53.43L60.25 62.45L44.68 53.43L42.63 56.96L60.25 67.16Z" fill="#03D498" fill-opacity="1.000000" fill-rule="evenodd"/>
		<path id="copy-24" d="M78.89 75.61L78.89 54.03L60.25 43.24L41.61 54.03L41.61 75.61L60.25 86.4L78.89 75.61ZM74.81 56.39L74.81 73.26L60.25 81.68L45.69 73.26L45.69 56.39L60.25 47.96L74.81 56.39Z" fill="#FFFFFF" fill-opacity="1.000000" fill-rule="evenodd"/>
		<circle id="copy-4" cx="60.289795" cy="64.127350" r="4.775531" fill="#03D498" fill-opacity="1.000000"/>
		<circle id="copy-4" cx="60.289795" cy="64.127350" r="4.775531" stroke="#000000" stroke-opacity="0" stroke-width="1.000000"/>
	</g>
</svg>
