<svg width="72.000000" height="72.000000" viewBox="0 0 72 72" fill="none" xmlns="http://www.w3.org/2000/svg" xmlns:xlink="http://www.w3.org/1999/xlink">
	<defs>
		<clipPath id="clip1206_125">
			<rect id="Eclipse Explorer" rx="36.000000" width="72.000000" height="72.000000" fill="white" fill-opacity="0"/>
		</clipPath>
	</defs>
	<rect id="Eclipse Explorer" rx="36.000000" width="72.000000" height="72.000000" fill="#A0FEA0" fill-opacity="1.000000"/>
	<g clip-path="url(#clip1206_125)">
		<path id="path" d="M23.63 54.36C18.71 54.36 15.72 50.37 16.94 45.45L21.66 26.54C22.89 21.62 27.87 17.63 32.79 17.63L58.51 17.63C54.9 12.96 49.11 10.08 41.97 10.08C27.65 10.08 13.36 21.68 10.05 36C6.73 50.31 15.65 61.91 29.97 61.91C37.1 61.91 44.23 59.03 50 54.36L23.63 54.36Z" fill="#000000" fill-opacity="1.000000" fill-rule="nonzero"/>
		<path id="path" d="M36.06 25.19C34.83 25.19 33.59 26.19 33.28 27.42L31.98 32.64L52.01 32.64L50.19 39.92L30.16 39.92L28.86 45.14C28.56 46.37 29.31 47.37 30.54 47.37L56.44 47.37C58.81 44.01 60.57 40.25 61.49 36.28C62.41 32.31 62.38 28.56 61.57 25.19L36.06 25.19Z" fill="#000000" fill-opacity="1.000000" fill-rule="nonzero"/>
	</g>
</svg>
