<svg width="350.000000" height="350.000000" viewBox="0 0 350 350" fill="none" xmlns="http://www.w3.org/2000/svg" xmlns:xlink="http://www.w3.org/1999/xlink">
	<rect id="FUEL" width="350.000000" height="350.000000" fill="#FFFFFF" fill-opacity="0"/>
	<circle id="path" cx="175.000000" cy="175.000000" r="175.000000" fill="#00F58C" fill-opacity="1.000000"/>
	<path id="path" d="M223 90L140.4 171.82C138.35 173.85 135.57 174.99 132.67 175C130.6 175 128.58 174.41 126.83 173.32C125.08 172.22 123.68 170.65 122.79 168.8L90.79 101.77C90.19 100.51 89.92 99.13 90.01 97.74C90.1 96.35 90.54 95 91.29 93.83C92.04 92.65 93.08 91.69 94.31 91.02C95.54 90.35 96.92 89.99 98.32 90L223 90Z" fill="#000000" fill-opacity="1.000000" fill-rule="nonzero"/>
	<path id="path" d="M90 278L90 197.74C90 195.69 90.81 193.72 92.27 192.26C93.72 190.81 95.69 190 97.75 190L178 190L90 278Z" fill="#000000" fill-opacity="1.000000" fill-rule="nonzero"/>
	<path id="path" d="M184.49 175L158 175L237.71 95.68C239.52 93.88 241.67 92.45 244.04 91.47C246.41 90.5 248.94 90 251.51 90L278 90L198.28 169.31C194.62 172.95 189.66 174.99 184.49 175Z" fill="#000000" fill-opacity="1.000000" fill-rule="nonzero"/>
</svg>
