<svg width="139" height="113" viewBox="0 0 139 113" fill="none" xmlns="http://www.w3.org/2000/svg">
<g clip-path="url(#clip0)">
<path d="M124.092 0H138.663L79.5046 67.605C77.9732 69.2815 77.9294 71.9549 79.4171 73.6767L113.547 113.37H98.3197L66.7716 76.5767L65.1964 74.583C63.7087 72.8611 63.7524 70.1877 65.2839 68.5112L124.092 0Z" fill="#17B5CB"/>
<path d="M91.231 73.722C90.2684 72.5892 89.9184 71.0486 90.2684 69.6439C90.5309 68.8736 91.0998 68.0127 91.6248 67.4237L95.5629 63.0737L139.013 113.37H125.186C125.186 113.37 99.7197 83.6452 91.231 73.722Z" fill="#17B5CB"/>
<path d="M15.1834 113.37H0L46.5565 59.4489C48.0442 57.727 48.0442 55.1443 46.5565 53.4677L0.350049 0H14.9646L61.4335 53.9209C62.6149 55.5068 62.8337 57.8177 61.5648 59.3129C49.4006 73.4049 15.1834 113.37 15.1834 113.37Z" fill="#17B5CB"/>
<path d="M40.6492 0H26.6035L69.6595 49.8881C69.6595 49.8881 69.7908 49.7975 74.6039 44.1335C75.9166 42.5929 76.1791 40.6899 74.7352 39.2399C65.6777 29.951 40.6492 0 40.6492 0Z" fill="#17B5CB"/>
<path d="M82.5677 34.7993L112.453 0H98.3199L82.699 18.2153L78.1921 23.4714C76.6606 25.148 76.6169 27.776 78.1046 29.5432C79.2423 30.8572 82.5677 34.7993 82.5677 34.7993Z" fill="#17B5CB"/>
<path d="M56.6208 78.5708L26.7354 113.37H40.8686L56.4895 95.1549L60.9964 89.8987C62.5278 88.2222 62.5716 85.5941 61.0839 83.827C59.9462 82.5129 56.6208 78.5708 56.6208 78.5708Z" fill="#17B5CB"/>
</g>
<defs>
<clipPath id="clip0">
<rect width="139" height="113" fill="white"/>
</clipPath>
</defs>
</svg>
