<svg width="158" height="159" viewBox="0 0 158 159" fill="none" xmlns="http://www.w3.org/2000/svg">
<path fill-rule="evenodd" clip-rule="evenodd" d="M-3.68439e-06 79.9964C-3.68439e-06 123.627 35.3685 158.995 78.9988 158.995C122.629 158.995 158 123.627 158 79.9964C158 36.3661 122.629 0.997559 78.9988 0.997559C35.3685 0.997559 -3.68439e-06 36.3661 -3.68439e-06 79.9964Z" fill="#0C0C4F"/>
<path fill-rule="evenodd" clip-rule="evenodd" d="M44.1542 61.3851L46.1043 55.3603C46.5007 54.135 47.4678 53.1814 48.6977 52.8054L54.752 50.9436C55.59 50.6877 55.5968 49.5054 54.7656 49.2358L48.7385 47.2857C47.5154 46.8893 46.5618 45.9222 46.1836 44.6923L44.324 38.638C44.0681 37.8022 42.8858 37.7932 42.6162 38.6267L40.6661 44.6515C40.2697 45.8746 39.3026 46.8282 38.0727 47.2064L32.0184 49.066C31.1804 49.3242 31.1713 50.5042 32.0048 50.7737L38.0319 52.7239C39.255 53.1203 40.2086 54.0897 40.5868 55.3195L42.4464 61.3716C42.7023 62.2096 43.8846 62.2187 44.1542 61.3851Z" fill="#FAFAFA"/>
<path fill-rule="evenodd" clip-rule="evenodd" d="M139.848 57.8786C137.352 55.0876 133.457 53.5162 129.67 52.8717C125.853 52.2528 121.85 52.3103 118.082 52.9797C110.457 54.2695 103.53 57.4268 97.4881 61.3217C94.3506 63.2332 91.675 65.445 88.903 67.6976C87.5674 68.8368 86.3497 70.0499 85.0815 71.2458L81.6163 74.6935C77.851 78.6293 74.1398 82.2141 70.549 85.1854C66.9437 88.143 63.573 90.3893 60.2512 91.9579C56.9315 93.5347 53.3794 94.462 48.7495 94.6105C44.1603 94.7723 38.7307 93.9441 32.9229 92.5769C27.0839 91.2158 20.9523 89.2757 14.1004 87.6064C16.4912 94.239 20.0914 100.1 24.7137 105.458C29.3902 110.723 35.2297 115.522 42.7314 118.678C50.1247 121.904 59.4157 123.061 68.1031 121.314C76.8135 119.638 84.4573 115.607 90.6359 110.946C96.8304 106.237 101.842 100.872 106.067 95.2956C107.233 93.7548 107.85 92.8924 108.694 91.6881L111.027 88.2327C112.648 86.0953 114.124 83.6617 115.728 81.5439C118.874 77.1087 121.976 72.6787 125.58 68.5972C127.394 66.5271 129.307 64.5471 131.565 62.6442C132.691 61.7153 133.908 60.8064 135.256 59.9875C136.624 59.1044 138.069 58.4131 139.848 57.8786Z" fill="url(#paint0_linear_1_42)"/>
<path fill-rule="evenodd" clip-rule="evenodd" d="M139.848 57.8783C137.167 51.1124 132.182 45.417 125.491 41.2142C118.841 37.0577 109.605 34.9364 100.452 36.7447C95.9307 37.6191 91.5501 39.3027 87.7059 41.5448C83.8791 43.7779 80.4499 46.4661 77.4812 49.35C75.9992 50.7968 74.654 52.306 73.3176 53.8237L69.8538 58.2399L64.5039 65.3488C57.6836 74.4951 50.3391 85.2142 38.2863 88.3903C26.454 91.5084 21.3221 88.7469 14.1004 87.6061C15.4209 91.0152 17.0565 94.3259 19.2739 97.2384C21.45 100.21 24.0204 103.001 27.216 105.393C28.8309 106.542 30.5359 107.676 32.4295 108.638C34.3146 109.567 36.3474 110.385 38.5172 111.001C42.8332 112.184 47.6923 112.598 52.397 111.962C57.1039 111.334 61.6029 109.842 65.5355 107.861C69.4971 105.899 72.9481 103.509 76.0296 100.987C82.1551 95.8997 86.9197 90.2791 90.9444 84.5976C92.9688 81.7569 94.8064 78.8627 96.5059 75.9678L98.5062 72.5211C99.1177 71.5137 99.7362 70.5 100.364 69.5559C102.899 65.763 105.378 62.7216 108.389 60.4389C111.358 58.0971 115.493 56.3669 121.018 55.9649C126.52 55.5581 132.872 56.3095 139.848 57.8783Z" fill="#FAFAFA"/>
<path fill-rule="evenodd" clip-rule="evenodd" d="M110.081 114.095C110.081 119.064 114.112 123.095 119.081 123.095C124.051 123.095 128.076 119.064 128.076 114.095C128.076 109.125 124.051 105.095 119.081 105.095C114.112 105.095 110.081 109.125 110.081 114.095Z" fill="url(#paint1_linear_1_42)"/>
<defs>
<linearGradient id="paint0_linear_1_42" x1="139.176" y1="55.5045" x2="28.5" y2="117" gradientUnits="userSpaceOnUse">
<stop stop-color="#EC796B"/>
<stop offset="1" stop-color="#E175B1"/>
</linearGradient>
<linearGradient id="paint1_linear_1_42" x1="128.07" y1="107.781" x2="110.069" y2="109.685" gradientUnits="userSpaceOnUse">
<stop stop-color="#EC796B"/>
<stop offset="1" stop-color="#E175B1"/>
</linearGradient>
</defs>
</svg>
