<svg width="120.001770" height="120.000015" viewBox="0 0 120.002 120" fill="none" xmlns="http://www.w3.org/2000/svg" xmlns:xlink="http://www.w3.org/1999/xlink">
	<defs>
		<linearGradient x1="105.703110" y1="41.399132" x2="-50.376915" y2="122.604668" id="paint_linear_78_1197_0" gradientUnits="userSpaceOnUse">
			<stop stop-color="#EC796B"/>
			<stop offset="1.000000" stop-color="#D672EF"/>
		</linearGradient>
	</defs>
	<rect id="Starknet" width="120.001740" height="120.000000" transform="translate(0.000000 0.000015)" fill="#FFFFFF" fill-opacity="0"/>
	<path id="path" d="M3.05e-5 60C3.05e-5 93.13 26.86 120 60 120C93.13 120 120 93.13 120 60C120 26.86 93.13 0 60 0C26.86 0 3.05e-5 26.86 3.05e-5 60Z" fill="#0C0C4F" fill-opacity="1.000000" fill-rule="evenodd"/>
	<path id="path" d="M33.53 45.86L35.01 41.28C35.31 40.35 36.05 39.63 36.98 39.34L41.58 37.93C42.21 37.74 42.22 36.84 41.59 36.63L37.01 35.15C36.08 34.85 35.36 34.12 35.07 33.18L33.66 28.58C33.46 27.95 32.57 27.94 32.36 28.58L30.88 33.15C30.58 34.08 29.84 34.8 28.91 35.09L24.31 36.5C23.67 36.7 23.67 37.6 24.3 37.8L28.88 39.28C29.81 39.58 30.53 40.32 30.82 41.25L32.23 45.85C32.43 46.49 33.32 46.49 33.53 45.86Z" fill="#FAFAFA" fill-opacity="1.000000" fill-rule="evenodd"/>
	<path id="path" d="M106.21 43.2C104.31 41.08 101.36 39.88 98.48 39.39C95.58 38.92 92.54 38.97 89.68 39.48C83.89 40.46 78.62 42.85 74.04 45.81C71.65 47.26 69.62 48.94 67.52 50.65C66.5 51.52 65.58 52.44 64.61 53.35L61.98 55.97C59.12 58.96 56.3 61.68 53.58 63.94C50.84 66.18 48.28 67.89 45.75 69.08C43.23 70.28 40.54 70.98 37.02 71.1C33.53 71.22 29.41 70.59 25 69.55C20.56 68.52 15.91 67.04 10.7 65.78C12.52 70.81 15.25 75.26 18.76 79.33C22.32 83.33 26.75 86.98 32.45 89.37C38.06 91.82 45.12 92.7 51.72 91.38C58.33 90.1 64.14 87.04 68.83 83.5C73.54 79.93 77.34 75.85 80.55 71.62C81.44 70.45 81.91 69.79 82.55 68.88L84.32 66.25C85.55 64.63 86.67 62.78 87.89 61.17C90.28 57.8 92.63 54.44 95.37 51.34C96.75 49.77 98.2 48.26 99.92 46.82C100.77 46.11 101.7 45.42 102.72 44.8C103.76 44.13 104.86 43.6 106.21 43.2Z" fill="url(#paint_linear_78_1197_0)" fill-opacity="1.000000" fill-rule="evenodd"/>
	<path id="path" d="M106.21 43.2C104.17 38.06 100.39 33.73 95.31 30.54C90.25 27.38 83.24 25.77 76.29 27.14C72.85 27.81 69.53 29.09 66.61 30.79C63.7 32.49 61.1 34.53 58.84 36.72C57.72 37.82 56.69 38.96 55.68 40.12L53.05 43.47L48.98 48.87C43.8 55.82 38.23 63.96 29.07 66.37C20.09 68.74 16.19 66.64 10.7 65.77C11.71 68.36 12.95 70.88 14.63 73.09C16.29 75.35 18.24 77.47 20.66 79.28C21.89 80.16 23.19 81.02 24.62 81.75C26.06 82.45 27.6 83.07 29.25 83.54C32.53 84.44 36.22 84.76 39.79 84.27C43.36 83.8 46.78 82.66 49.77 81.16C52.78 79.67 55.4 77.85 57.74 75.94C62.39 72.07 66.01 67.8 69.07 63.49C70.6 61.33 72 59.13 73.29 56.93L74.81 54.32C75.27 53.55 75.74 52.78 76.22 52.07C78.15 49.18 80.03 46.87 82.32 45.14C84.57 43.36 87.71 42.05 91.91 41.74C96.09 41.43 100.91 42 106.21 43.2Z" fill="#FAFAFA" fill-opacity="1.000000" fill-rule="evenodd"/>
	<path id="path" d="M83.6 85.89C83.6 89.67 86.66 92.73 90.44 92.73C94.21 92.73 97.27 89.67 97.27 85.89C97.27 82.12 94.21 79.06 90.44 79.06C86.66 79.06 83.6 82.12 83.6 85.89Z" fill="#EC796B" fill-opacity="1.000000" fill-rule="evenodd"/>
</svg>
