<svg width="180" height="180" viewBox="0 0 180 180" fill="none" xmlns="http://www.w3.org/2000/svg">
<circle cx="90" cy="90" r="90" fill="black"/>
<path d="M142.779 117.69L125.059 136.69C124.676 137.103 124.211 137.433 123.695 137.658C123.179 137.883 122.622 138 122.059 138H38.0588C37.6582 138 37.2663 137.883 36.9312 137.664C36.5961 137.444 36.3322 137.132 36.172 136.764C36.0117 136.397 35.962 135.991 36.029 135.596C36.0959 135.201 36.2766 134.834 36.5488 134.54L54.2488 115.54C54.6321 115.128 55.0963 114.798 55.6124 114.573C56.1286 114.348 56.6856 114.231 57.2488 114.23H141.249C141.653 114.222 142.051 114.334 142.392 114.551C142.733 114.768 143.002 115.081 143.166 115.451C143.33 115.821 143.38 116.231 143.311 116.629C143.242 117.028 143.057 117.397 142.779 117.69ZM125.059 79.4204C124.674 79.0096 124.21 78.6816 123.694 78.4563C123.178 78.2311 122.622 78.1134 122.059 78.1104H38.0588C37.6582 78.1107 37.2663 78.2277 36.9312 78.4472C36.5961 78.6668 36.3322 78.9793 36.172 79.3465C36.0117 79.7137 35.962 80.1196 36.029 80.5146C36.0959 80.9096 36.2766 81.2765 36.5488 81.5704L54.2488 100.58C54.6336 100.991 55.0981 101.319 55.6139 101.545C56.1297 101.77 56.686 101.887 57.2488 101.89H141.249C141.649 101.888 142.039 101.77 142.373 101.55C142.706 101.329 142.969 101.017 143.128 100.65C143.287 100.283 143.336 99.8779 143.268 99.4838C143.201 99.0897 143.021 98.7237 142.749 98.4304L125.059 79.4204ZM38.0588 65.7704H122.059C122.622 65.77 123.179 65.6534 123.695 65.428C124.211 65.2026 124.676 64.8732 125.059 64.4604L142.779 45.4604C142.987 45.2409 143.143 44.9781 143.238 44.6909C143.332 44.4038 143.362 44.0993 143.325 43.7993C143.288 43.4993 143.185 43.2112 143.024 42.9555C142.862 42.6999 142.647 42.483 142.392 42.3204C142.051 42.1034 141.653 41.9921 141.249 42.0004H57.2488C56.6856 42.001 56.1286 42.1177 55.6124 42.343C55.0963 42.5684 54.6321 42.8977 54.2488 43.3104L36.5488 62.3104C36.2766 62.6043 36.0959 62.9713 36.029 63.3663C35.962 63.7613 36.0117 64.1672 36.172 64.5344C36.3322 64.9016 36.5961 65.2141 36.9312 65.4336C37.2663 65.6532 37.6582 65.7702 38.0588 65.7704Z" fill="url(#paint0_linear_1652_15)"/>
<defs>
<linearGradient id="paint0_linear_1652_15" x1="45.0588" y1="140.29" x2="133.139" y2="40.9904" gradientUnits="userSpaceOnUse">
<stop offset="0.08" stop-color="#9945FF"/>
<stop offset="0.3" stop-color="#8752F3"/>
<stop offset="0.5" stop-color="#5497D5"/>
<stop offset="0.6" stop-color="#43B4CA"/>
<stop offset="0.72" stop-color="#28E0B9"/>
<stop offset="0.97" stop-color="#19FB9B"/>
</linearGradient>
</defs>
</svg>
