<svg width="72.000000" height="72.000000" viewBox="0 0 72 72" fill="none" xmlns="http://www.w3.org/2000/svg" xmlns:xlink="http://www.w3.org/1999/xlink">
	<defs>
		<clipPath id="clip1206_104">
			<rect id="Sonic" rx="36.000000" width="72.000000" height="72.000000" fill="white" fill-opacity="0"/>
		</clipPath>
	</defs>
	<rect id="Sonic" rx="36.000000" width="72.000000" height="72.000000" fill="#0000FF" fill-opacity="1.000000"/>
	<g clip-path="url(#clip1206_104)">
		<path id="path" d="M44.95 26.58C35.31 16.94 24.14 12.47 18.26 18.35C12.38 24.24 16.84 35.4 26.49 45.04C36.13 54.68 47.21 59.23 53.17 53.26C59.13 47.3 54.59 36.22 44.95 26.58Z" fill="#FFFFFF" fill-opacity="1.000000" fill-rule="nonzero"/>
		<path id="path" d="M48.95 33.96C50.05 35.51 51 37.05 51.76 38.57C52.33 39.7 52.81 40.82 53.17 41.92C53.66 43.42 53.95 44.88 53.93 46.36C51.66 46.9 49.5 46.89 47.48 46.53C47.5 46.34 47.51 46.09 47.48 45.76C47.42 45.13 47.21 44.26 46.83 43.26C46.26 41.75 45.3 39.96 44 38.08C42.7 36.2 41.07 34.24 39.17 32.33C37.4 30.57 35.58 29.03 33.83 27.78C32.51 26.85 31.23 26.07 30.05 25.47C29.16 25.03 28.34 24.68 27.6 24.44C26.5 24.07 25.61 23.97 25.11 24C25.05 24.01 25.01 24.01 24.97 24.02C24.61 22 24.6 19.83 25.14 17.57C26.62 17.57 28.17 17.86 29.67 18.36C31.91 19.11 34.24 20.32 36.62 21.91C38.99 23.51 41.39 25.48 43.7 27.79C45.71 29.81 47.48 31.89 48.95 33.96Z" fill="#F79342" fill-opacity="1.000000" fill-rule="nonzero"/>
		<path id="path" d="M22.54 30.18L25.13 26.88C25.98 25.79 26.91 24.73 27.94 23.71C32.05 19.59 36.84 16.82 41.33 15.71C45.79 14.61 50.26 15.1 53.25 18.03C53.29 18.07 53.4 18.18 53.44 18.22C56.35 21.22 56.83 25.68 55.73 30.13C54.62 34.61 51.84 39.4 47.74 43.5C46.71 44.53 45.65 45.46 44.57 46.31L41.26 48.9L41.75 45.03C40.98 45.76 40.19 46.48 39.39 47.16C35.77 50.27 32 52.77 28.55 54.31L24.42 56.15L26.4 51.73C24.64 52.79 23.08 53.58 21.8 54.18C20.6 54.73 19.63 55.1 18.96 55.34C18.62 55.46 18.36 55.54 18.17 55.6C18.08 55.63 18.01 55.65 17.95 55.66C17.95 55.66 17.86 55.69 17.42 54.02C17.42 54.02 18.16 53.83 19.49 53.29C21.28 52.57 24.15 51.22 27.67 48.88C28.55 48.3 29.48 47.65 30.44 46.93L27.84 52.73C28.64 52.38 29.45 51.97 30.29 51.51C32.87 50.07 35.59 48.14 38.26 45.85C39.58 44.72 40.87 43.51 42.1 42.26C42.79 41.55 43.46 40.83 44.12 40.1L43.5 44.95C44.16 44.43 44.81 43.88 45.45 43.3C45.81 42.97 46.16 42.63 46.51 42.28C54.36 34.44 56.88 24.23 52.19 19.41C52.17 19.39 52.07 19.29 52.05 19.27C47.24 14.55 37.02 17.07 29.16 24.93C28.81 25.28 28.47 25.63 28.14 25.99C27.56 26.63 27.01 27.28 26.49 27.94L31.34 27.33C30.61 27.98 29.89 28.65 29.18 29.34C27.93 30.57 26.72 31.86 25.59 33.18C23.3 35.85 21.37 38.57 19.93 41.16C19.47 41.99 19.06 42.8 18.71 43.6L24.52 41C23.8 41.96 23.16 42.88 22.57 43.76C20.23 47.29 18.88 50.16 18.15 51.96C17.62 53.28 17.42 54.02 17.42 54.02C15.75 53.58 15.75 53.58 15.75 53.58C15.77 53.52 15.81 53.36 15.84 53.26C15.9 53.08 15.99 52.81 16.11 52.47C16.35 51.8 16.72 50.83 17.28 49.63C17.87 48.35 18.67 46.8 19.72 45.04L15.29 47.02L17.13 42.89C18.67 39.44 21.17 35.67 24.28 32.06C24.97 31.25 25.68 30.46 26.41 29.69L22.54 30.18ZM17.42 54.02L17.95 55.66L15 56.44L15.75 53.58L17.42 54.02Z" fill="#FFFFFF" fill-opacity="1.000000" fill-rule="evenodd"/>
		<path id="path" d="M17.42 54.02C17.42 54.02 18.16 53.83 19.49 53.29C21.28 52.57 24.15 51.22 27.67 48.88C28.55 48.29 29.48 47.65 30.44 46.93L27.84 52.73C28.64 52.38 29.46 51.97 30.29 51.51C32.87 50.07 35.59 48.14 38.26 45.85C39.58 44.72 40.87 43.51 42.1 42.26C42.79 41.55 43.46 40.83 44.12 40.1L43.5 44.95C44.16 44.43 44.81 43.88 45.45 43.3C45.81 42.97 46.16 42.63 46.51 42.28C54.36 34.44 56.88 24.23 52.19 19.41C52.17 19.39 52.07 19.29 52.05 19.27C47.24 14.55 37.02 17.07 29.16 24.93C28.81 25.28 28.47 25.63 28.14 25.99C27.56 26.63 27.01 27.28 26.49 27.94L31.34 27.33C30.61 27.98 29.89 28.65 29.18 29.34C27.93 30.57 26.73 31.86 25.59 33.18C23.3 35.85 21.37 38.57 19.94 41.16C19.47 41.99 19.06 42.8 18.71 43.6L24.52 41C23.8 41.96 23.16 42.88 22.57 43.76C20.23 47.29 18.88 50.16 18.15 51.96C17.62 53.28 17.42 54.02 17.42 54.02Z" fill="#FFFFFF" fill-opacity="1.000000" fill-rule="nonzero"/>
		<path id="path" d="M26.49 27.94C27.3 26.91 28.19 25.9 29.16 24.93C37.01 17.07 47.24 14.55 52.05 19.27C52.08 19.3 52.16 19.39 52.19 19.41C56.88 24.23 54.36 34.44 46.51 42.28C45.54 43.25 44.53 44.15 43.5 44.95L44.12 40.1C42.31 42.13 40.33 44.08 38.26 45.85C34.73 48.88 31.11 51.27 27.84 52.73L30.43 46.93C22.83 52.61 17.42 54.02 17.42 54.02C17.42 54.02 18.86 48.59 24.52 41L18.71 43.6C20.17 40.33 22.56 36.71 25.59 33.18C27.36 31.11 29.31 29.13 31.34 27.33L26.49 27.94Z" fill="#0000FF" fill-opacity="1.000000" fill-rule="evenodd"/>
		<path id="path" d="M23.97 25.54C24.05 26.17 24.25 26.99 24.61 27.93C24.96 28.84 25.45 29.85 26.06 30.93C27.63 33.81 29.6 36.09 30.96 37.53C31.43 38.05 31.92 38.56 32.43 39.07C32.91 39.56 33.4 40.02 33.89 40.47C35.34 41.83 37.66 43.86 40.62 45.46C41 45.68 41.37 45.88 41.73 46.07C42.63 46.52 43.47 46.87 44.22 47.12C44.89 47.34 45.48 47.47 45.96 47.53C48.42 48.09 51.11 48.16 53.95 47.38C53.9 48.2 53.74 49.04 53.42 49.85C53.1 50.67 52.6 51.46 51.95 52.11C51.17 52.89 50.21 53.43 49.23 53.75C48.38 54.02 47.51 54.13 46.65 54.13C45.14 54.14 43.64 53.83 42.12 53.32C39.83 52.56 37.45 51.32 35.03 49.7C32.61 48.07 30.16 46.06 27.8 43.7C25.75 41.65 23.96 39.52 22.46 37.41C21.33 35.83 20.37 34.26 19.59 32.71C19 31.56 18.52 30.41 18.15 29.29C17.6 27.61 17.29 25.97 17.39 24.3C17.44 23.47 17.6 22.63 17.92 21.82C18.24 21 18.74 20.21 19.39 19.56C20.17 18.78 21.13 18.24 22.11 17.92C22.78 17.71 23.45 17.6 24.13 17.56C23.34 20.39 23.41 23.08 23.97 25.54Z" fill="#FBB042" fill-opacity="1.000000" fill-rule="nonzero"/>
	</g>
</svg>
