<svg width="48" height="48" viewBox="0 0 48 48" fill="none" xmlns="http://www.w3.org/2000/svg">
<path d="M24 48C37.2555 48 48 37.2555 48 24C48 10.7445 37.2555 0 24 0C10.7445 0 0 10.7445 0 24C0 37.2555 10.7445 48 24 48Z" fill="#0098EA"/>
<path d="M32.1942 13.3945H15.8037C12.7902 13.3945 10.8807 16.645 12.3972 19.2745L22.5117 36.8065C23.1717 37.951 24.8262 37.951 25.4862 36.8065L35.6037 19.273C37.1187 16.6495 35.2077 13.3945 32.1957 13.3945H32.1942ZM22.5042 31.5475L20.3007 27.2845L14.9847 17.7775C14.9039 17.6355 14.8621 17.4747 14.8633 17.3114C14.8646 17.148 14.9089 16.9879 14.9918 16.8471C15.0747 16.7064 15.1933 16.59 15.3356 16.5098C15.4779 16.4295 15.6389 16.3882 15.8022 16.39H22.4997V31.5505L22.5027 31.5475H22.5042ZM33.0087 17.776L27.6957 27.286L25.4922 31.5475V16.387H32.1927C32.9277 16.387 33.3597 17.167 33.0087 17.776Z" fill="white"/>
</svg>
