<svg width="24.000000" height="24.000000" viewBox="0 0 24 24" fill="none" xmlns="http://www.w3.org/2000/svg" xmlns:xlink="http://www.w3.org/1999/xlink">
	<rect width="24.000000" height="24.000000" fill="#D8D8D8" fill-opacity="0"/>
	<rect x="0.500000" y="0.500000" width="23.000000" height="23.000000" stroke="#979797" stroke-opacity="0" stroke-width="1.000000"/>
	<path d="M11.18 6.05L11.18 6.08L10.67 6.59L16.31 12.24L10.67 17.88L11.18 18.4L11.18 18.42C10.89 18.72 10.42 18.72 10.12 18.42C9.82 18.13 9.82 17.66 10.12 17.36L10.15 17.36L10.65 17.87L10.65 6.61L10.15 7.11L10.12 7.11C9.82 6.81 9.82 6.35 10.12 6.05C10.42 5.75 10.89 5.75 11.18 6.05Z" fill="#D8D8D8" fill-opacity="0" fill-rule="evenodd"/>
	<path d="M10.65 17.89L16.31 12.24L10.65 6.58" stroke="#FFFFFF" stroke-opacity="1.000000" stroke-width="1.500000" stroke-linejoin="round" stroke-linecap="round"/>
</svg>
