<svg width="24.000000" height="24.000000" viewBox="0 0 24 24" fill="none" xmlns="http://www.w3.org/2000/svg" xmlns:xlink="http://www.w3.org/1999/xlink">
	<desc>
			Created with Pixso.
	</desc>
	<defs>
		<filter id="filter_152_565_dd" x="2.399902" y="2.794189" width="19.199951" height="18.417603" filterUnits="userSpaceOnUse" color-interpolation-filters="sRGB">
			<feFlood flood-opacity="0" result="BackgroundImageFix"/>
			<feBlend mode="normal" in="SourceGraphic" in2="BackgroundImageFix" result="shape"/>
			<feColorMatrix in="SourceAlpha" type="matrix" values="0 0 0 0 0 0 0 0 0 0 0 0 0 0 0 0 0 0 127 0" result="hardAlpha"/>
			<feOffset dx="2" dy="0"/>
			<feGaussianBlur stdDeviation="0"/>
			<feComposite in2="hardAlpha" operator="arithmetic" k2="-1" k3="1"/>
			<feColorMatrix type="matrix" values="0 0 0 0 0 0 0 0 0 0 0 0 0 0 0 0 0 0 1 0"/>
			<feBlend mode="normal" in2="shape" result="effect_innerShadow_1"/>
		</filter>
		<filter id="filter_152_566_dd" x="9.000000" y="8.400024" width="7.199951" height="7.800049" filterUnits="userSpaceOnUse" color-interpolation-filters="sRGB">
			<feFlood flood-opacity="0" result="BackgroundImageFix"/>
			<feBlend mode="normal" in="SourceGraphic" in2="BackgroundImageFix" result="shape"/>
			<feColorMatrix in="SourceAlpha" type="matrix" values="0 0 0 0 0 0 0 0 0 0 0 0 0 0 0 0 0 0 127 0" result="hardAlpha"/>
			<feOffset dx="-1" dy="0"/>
			<feGaussianBlur stdDeviation="0"/>
			<feComposite in2="hardAlpha" operator="arithmetic" k2="-1" k3="1"/>
			<feColorMatrix type="matrix" values="0 0 0 0 0 0 0 0 0 0 0 0 0 0 0 0 0 0 1 0"/>
			<feBlend mode="normal" in2="shape" result="effect_innerShadow_1"/>
		</filter>
	</defs>
	<path d="M19.09 1.19L19.09 3.62L21.19 3.62L21.19 6.05L24 6.05L24 17.94L21.19 17.94L21.19 20.37L19.09 20.37L19.09 22.8L14.29 22.8L14.29 24L9.7 24L9.7 22.8L4.9 22.8L4.9 20.37L2.8 20.37L2.8 17.94L0 17.94L0 6.05L2.8 6.05L2.8 3.62L4.9 3.62L4.9 1.19L9.7 1.19L9.7 0L14.29 0L14.29 1.19L19.09 1.19Z" fill="#CE3B2E" fill-opacity="1.000000" fill-rule="evenodd"/>
	<path d="M21.19 5.45L21.19 3.62L19.09 3.62L19.09 1.19L14.29 1.19L14.29 0L9.7 0L9.7 1.19L4.9 1.19L4.9 3.62L2.8 3.62L2.8 6.05L0 6.05L0 17.94L2.8 17.94L2.8 20.37L4.9 20.37L4.9 22.8L9.7 22.8L9.7 24L14.29 24L14.29 22.8L19.09 22.8L19.09 20.37L21.19 20.37L21.19 17.94L24 17.94L24 6.05L21.19 6.05L21.19 5.45ZM23.39 6.65L20.59 6.65L20.59 4.22L18.49 4.22L18.49 1.8L13.69 1.8L13.69 0.59L10.3 0.59L10.3 1.8L5.5 1.8L5.5 4.22L3.4 4.22L3.4 6.65L0.6 6.65L0.6 17.34L3.4 17.34L3.4 19.77L5.5 19.77L5.5 22.2L10.3 22.2L10.3 23.4L13.69 23.4L13.69 22.2L18.49 22.2L18.49 19.77L20.59 19.77L20.59 17.34L23.39 17.34L23.39 6.65Z" fill="#000000" fill-opacity="1.000000" fill-rule="evenodd"/>
	<g filter="url(#filter_152_565_dd)">
		<path d="M16.79 3.59L16.79 6.05L18.85 6.05L18.85 8.5L21.59 8.5L21.59 15.49L18.85 15.49L18.85 17.94L16.79 17.94L16.79 20.4L13.79 20.4L13.79 21.21L10.2 21.21L10.2 20.4L7.2 20.4L7.2 17.94L5.14 17.94L5.14 15.49L2.39 15.49L2.39 8.5L5.14 8.5L5.14 6.05L7.2 6.05L7.2 3.59L10.2 3.59L10.2 2.79L13.79 2.79L13.79 3.59L16.79 3.59Z" fill="#CE3B2E" fill-opacity="1.000000" fill-rule="evenodd"/>
	</g>
	<path d="M18.85 8L18.85 6.05L16.79 6.05L16.79 3.59L13.79 3.59L13.79 2.79L10.2 2.79L10.2 3.59L7.2 3.59L7.2 6.05L5.14 6.05L5.14 8.5L2.39 8.5L2.39 15.49L5.14 15.49L5.14 17.94L7.2 17.94L7.2 20.4L10.2 20.4L10.2 21.21L13.79 21.21L13.79 20.4L16.79 20.4L16.79 17.94L18.85 17.94L18.85 15.49L21.59 15.49L21.59 8.5L18.85 8.5L18.85 8ZM21.09 9L18.35 9L18.35 6.55L16.29 6.55L16.29 4.09L13.29 4.09L13.29 3.29L10.7 3.29L10.7 4.09L7.7 4.09L7.7 6.55L5.64 6.55L5.64 9L2.89 9L2.89 14.99L5.64 14.99L5.64 17.44L7.7 17.44L7.7 19.9L10.7 19.9L10.7 20.71L13.29 20.71L13.29 19.9L16.29 19.9L16.29 17.44L18.35 17.44L18.35 14.99L21.09 14.99L21.09 9Z" fill="#000000" fill-opacity="1.000000" fill-rule="evenodd"/>
	<g filter="url(#filter_152_566_dd)">
		<path d="M10.63 10.2L10.63 8.4L12.92 8.4L14.56 8.4L14.56 10.2L16.2 10.2L16.2 12.6L16.2 14.4L14.56 14.4L14.56 16.2L12.92 16.2L10.63 16.2L10.63 14.4L9 14.4L9 12.6L9 10.2L10.63 10.2Z" fill="#FFFFFF" fill-opacity="1.000000" fill-rule="evenodd"/>
	</g>
	<path d="" fill="#979797" fill-opacity="0" fill-rule="evenodd"/>
</svg>
