<svg xmlns="http://www.w3.org/2000/svg" xmlns:xlink="http://www.w3.org/1999/xlink" width="16.000000" height="16.000000" viewBox="0 0 16 16" fill="none">
	<defs/>
	<path id="Vector" d="M6 1.33C4.25 1.33 2.83 2.75 2.83 4.5C2.83 6.21 4.17 7.6 5.91 7.66C5.97 7.65 6.02 7.65 6.06 7.66C6.08 7.66 6.08 7.66 6.1 7.66C6.1 7.66 6.1 7.66 6.11 7.66C7.82 7.6 9.16 6.21 9.16 4.5C9.16 2.75 7.74 1.33 6 1.33Z" fill="#FFC311" fill-opacity="1.000000" fill-rule="nonzero"/>
	<path id="Vector" d="M9.38 9.43C7.52 8.19 4.49 8.19 2.62 9.43C1.77 9.99 1.3 10.76 1.3 11.58C1.3 12.4 1.77 13.16 2.61 13.72C3.54 14.35 4.77 14.66 6 14.66C7.22 14.66 8.45 14.35 9.38 13.72C10.22 13.16 10.69 12.4 10.69 11.57C10.68 10.75 10.22 9.99 9.38 9.43Z" fill="#FFC311" fill-opacity="1.000000" fill-rule="nonzero"/>
	<path id="Vector" d="M13.32 4.89C13.43 6.18 12.51 7.32 11.24 7.47C11.23 7.47 11.23 7.47 11.22 7.47L11.2 7.47C11.16 7.47 11.12 7.47 11.09 7.48C10.44 7.51 9.85 7.31 9.4 6.93C10.09 6.32 10.48 5.39 10.4 4.39C10.35 3.85 10.17 3.36 9.89 2.94C10.14 2.82 10.43 2.73 10.74 2.71C12.04 2.59 13.21 3.57 13.32 4.89Z" fill="#FFC311" fill-opacity="1.000000" fill-rule="nonzero"/>
	<path id="Vector" d="M14.66 11.06C14.6 11.7 14.19 12.26 13.5 12.64C12.83 13.01 11.99 13.18 11.16 13.16C11.64 12.73 11.91 12.19 11.97 11.62C12.04 10.79 11.64 10 10.85 9.36C10.41 9.01 9.89 8.73 9.32 8.52C10.79 8.1 12.65 8.38 13.79 9.3C14.4 9.8 14.72 10.42 14.66 11.06Z" fill="#FFC311" fill-opacity="1.000000" fill-rule="nonzero"/>
	<g opacity="0.000000"/>
</svg>