<svg width="24.000000" height="24.000000" viewBox="0 0 24 24" fill="none" xmlns="http://www.w3.org/2000/svg" xmlns:xlink="http://www.w3.org/1999/xlink">
	<desc>
			Created with Pixso.
	</desc>
	<defs/>
	<rect id="vuesax/bold/profile-2user" width="24.000000" height="24.000000" fill="#FFFFFF" fill-opacity="0"/>
	<path id="Vector" d="M9 2C6.38 2 4.25 4.13 4.25 6.75C4.25 9.32 6.25 11.4 8.88 11.49C8.96 11.48 9.03 11.48 9.1 11.49C9.12 11.49 9.13 11.49 9.14 11.49C9.16 11.49 9.16 11.49 9.17 11.49C11.73 11.4 13.74 9.32 13.75 6.75C13.75 4.13 11.62 2 9 2Z" fill="#000000" fill-opacity="1.000000" fill-rule="nonzero"/>
	<path id="Vector" d="M14.08 14.15C11.29 12.29 6.74 12.29 3.93 14.15C2.66 15 1.96 16.15 1.96 17.37C1.96 18.61 2.66 19.75 3.92 20.59C5.32 21.53 7.16 22 9 22C10.84 22 12.68 21.53 14.08 20.59C15.34 19.74 16.04 18.6 16.04 17.36C16.03 16.12 15.34 14.99 14.08 14.15Z" fill="#000000" fill-opacity="1.000000" fill-rule="nonzero"/>
	<path id="Vector" d="M19.99 7.33C20.15 9.27 18.77 10.98 16.86 11.21C16.85 11.21 16.85 11.21 16.84 11.21L16.81 11.21C16.75 11.21 16.69 11.21 16.64 11.23C15.67 11.28 14.78 10.97 14.11 10.4C15.14 9.47 15.73 8.09 15.61 6.59C15.54 5.78 15.26 5.04 14.84 4.41C15.22 4.22 15.66 4.1 16.11 4.06C18.07 3.89 19.82 5.35 19.99 7.33Z" fill="#000000" fill-opacity="1.000000" fill-rule="nonzero"/>
	<path id="Vector" d="M21.99 16.59C21.91 17.56 21.29 18.4 20.25 18.96C19.25 19.52 17.99 19.78 16.74 19.75C17.45 19.1 17.87 18.29 17.95 17.43C18.06 16.19 17.46 15 16.29 14.05C15.62 13.52 14.84 13.1 13.99 12.79C16.2 12.15 18.98 12.58 20.69 13.96C21.61 14.7 22.08 15.63 21.99 16.59Z" fill="#000000" fill-opacity="1.000000" fill-rule="nonzero"/>
	<g opacity="0.000000"/>
</svg>
