<svg width="16" height="14" viewBox="0 0 16 14" fill="none" xmlns="http://www.w3.org/2000/svg">
<path d="M7.67628 0.417269C7.87763 0.305409 8.12245 0.305409 8.3238 0.417269L14.3238 3.7506C14.5354 3.86818 14.6667 4.09126 14.6667 4.33337C14.6667 4.57549 14.5354 4.79857 14.3238 4.91615L8.3238 8.24948C8.12245 8.36134 7.87763 8.36134 7.67628 8.24948L1.67628 4.91615C1.46463 4.79857 1.33337 4.57549 1.33337 4.33337C1.33337 4.09126 1.46463 3.86818 1.67628 3.7506L7.67628 0.417269ZM3.37279 4.33337L8.00004 6.90407L12.6273 4.33337L8.00004 1.76268L3.37279 4.33337Z" fill="#18191F"/>
<path d="M1.41727 6.67628C1.59608 6.35442 2.00195 6.23846 2.3238 6.41727L8.00004 9.57073L13.6763 6.41727C13.9981 6.23846 14.404 6.35442 14.5828 6.67628C14.7616 6.99813 14.6457 7.404 14.3238 7.58281L8.3238 10.9161C8.12245 11.028 7.87763 11.028 7.67628 10.9161L1.67628 7.58281C1.35442 7.404 1.23846 6.99813 1.41727 6.67628Z" fill="#18191F"/>
<path d="M1.41727 9.34295C1.59608 9.02109 2.00195 8.90513 2.3238 9.08394L8.00004 12.2374L13.6763 9.08394C13.9981 8.90513 14.404 9.02109 14.5828 9.34295C14.7616 9.6648 14.6457 10.0707 14.3238 10.2495L8.3238 13.5828C8.12245 13.6947 7.87763 13.6947 7.67628 13.5828L1.67628 10.2495C1.35442 10.0707 1.23846 9.6648 1.41727 9.34295Z" fill="#18191F"/>
</svg>
