<svg xmlns="http://www.w3.org/2000/svg" width="32" height="32" viewBox="0 0 32 32" fill="none">
<g clip-path="url(#clip0_1917_200)">
<rect width="32" height="32" rx="8" fill="#1A1A1A"/>
<path d="M18.7546 6H13.1243C12.9362 6 12.7854 6.15621 12.7813 6.35038C12.6676 11.8083 9.9013 16.9884 5.13994 20.6576C4.98878 20.7741 4.95434 20.9929 5.06485 21.1505L8.35902 25.8522C8.47109 26.0122 8.68944 26.0483 8.84315 25.9308C11.8203 23.6516 14.2149 20.902 15.9394 17.8544C17.6639 20.902 20.0587 23.6516 23.0359 25.9308C23.1894 26.0483 23.4078 26.0122 23.5201 25.8522L26.8142 21.1505C26.9246 20.9929 26.8901 20.7741 26.7391 20.6576C21.9776 16.9884 19.2113 11.8083 19.0977 6.35038C19.0936 6.15621 18.9427 6 18.7546 6Z" fill="#FF875B"/>
</g>
<defs>
<clipPath id="clip0_1917_200">
<rect width="32" height="32" fill="white"/>
</clipPath>
</defs>
</svg>