<svg width="500" height="364" viewBox="0 0 500 364" fill="none" xmlns="http://www.w3.org/2000/svg">
<path d="M131.3 23.7001C129.6 24.4001 127.3 29.0001 124.1 38.5001C122.5 42.9001 116.3 60.2001 110.1 77.0001C104 93.8001 90.2 131.3 79.6 160.5C69 189.6 52.6 234.6 43.1 260.5C33.7 286.4 23.7 313.7 21 321.2L16 334.9L16.3 337.7L16.6 340.5L40.1 340.8L63.6 341.1L65.8 339.9C67 339.2 68.7 336.9 69.6 334.6C71.3 330.5 93.4 270.1 104.1 240.5C107.3 231.7 114.2 212.8 119.4 198.5C124.6 184.2 137.7 148.4 148.4 119C159.2 89.6001 170.9 57.4001 174.6 47.5001L181.2 29.5001L180.9 26.5001L180.6 23.5001L156.6 23.3001C143.4 23.2001 132 23.4001 131.3 23.7001Z" fill="#D56512"/>
<path d="M201 24C200.2 24.5 198.7 26.6 197.8 28.7C196.9 30.8 190 49.4 182.5 70C165 118.4 140.5 185.5 109.7 269.8L85.1001 337.1L86.1001 339.1L87.2001 341H110.9L134.6 340.9L136.4 339.6C138.5 338 139.3 336 162.6 272C172.1 245.9 185.1 210.3 191.4 193C197.7 175.7 212.5 135.4 224.1 103.5C235.7 71.6 246.6 41.8 248.3 37.3L251.2 29.1L250.9 26.3L250.6 23.5L226.6 23.3L202.6 23L201 24Z" fill="#D56512"/>
<path d="M361.4 25.2C360.3 26.5 358.9 28.8 358.3 30.5C357.7 32.1 348 58.9 336.7 89.9C325.4 120.9 316.1 147.4 316.1 148.8C316.1 150.9 330.2 191 337.3 208.7L339.3 214H342.1H344.9L345.6 212.2C347.2 208.1 356.5 182.8 359.1 175.5C360.6 171.1 368.5 149.5 376.6 127.5C384.6 105.5 396.2 73.8 402.3 57.1L413.4 26.7L412.4 25.1L411.4 23.5L387.4 23.2L363.5 23L361.4 25.2Z" fill="#D56512"/>
<path d="M431.4 25.2L429.3 27.5L415.1 66.5C407.3 87.9 398.3 112.7 395.1 121.5C391.9 130.3 382.5 156.2 374.1 179C365.7 201.8 357.1 225.4 354.9 231.5L350.9 242.5L351.4 246C351.8 249 365.9 288.7 372.3 304.7L374.3 310H377.1H379.9L380.6 308.2C381.4 306.1 398 260.8 421.6 196C431.1 169.9 448.5 122.4 460.1 90.5C471.8 58.6 481.8 31.1 482.4 29.3L483.4 26.1L482.1 24.5L480.9 23H457.2H433.4L431.4 25.2Z" fill="#D56512"/>
<path d="M258.1 55.9C256.6 58.8 235.1 118.1 235.1 119.5C235.1 120.8 239.2 132.3 269.6 215.5C280.4 245.2 294.9 284.8 301.7 303.5L314.1 337.5L316.2 339.2L318.3 341H341.6H364.9L366.2 339.4L367.5 337.8L366.4 334.2C365.8 332.2 362.6 323.1 359.3 314C351.5 292.6 317.1 198.1 304.6 164C299.3 149.4 288.6 120.2 280.9 99C273.2 77.8 266.3 59 265.5 57.2L264.2 54H261.7H259.2L258.1 55.9Z" fill="#D56512"/>
<path d="M223.3 151.7C221.7 154.7 200.1 214 200.1 215.4C200.1 216.2 205.1 230.4 211.2 247.1C217.3 263.8 227.2 291 233.2 307.5L244.1 337.5L246.2 339.3L248.3 341H271.5H294.7L295.9 339.8C296.6 339.1 297.1 337.9 297.1 337C297.1 336.1 292.4 322.6 286.7 306.9C261.2 237 242.6 186.1 236.4 169L229.6 150.5L226.9 150.2L224.2 149.9L223.3 151.7Z" fill="#D56512"/>
</svg>
