<svg width="22" height="18" viewBox="0 0 22 18" fill="none" xmlns="http://www.w3.org/2000/svg">
<path fill-rule="evenodd" clip-rule="evenodd" d="M10.6339 0.616117C11.122 1.10427 11.122 1.89573 10.6339 2.38388L5.26777 7.75H19.75C20.4404 7.75 21 8.30964 21 9C21 9.69036 20.4404 10.25 19.75 10.25H5.26777L10.6339 15.6161C11.122 16.1043 11.122 16.8957 10.6339 17.3839C10.1457 17.872 9.35427 17.872 8.86612 17.3839L1.36612 9.88388C1.1317 9.64946 1 9.33152 1 9C1 8.66848 1.1317 8.35054 1.36612 8.11612L8.86612 0.616117C9.35427 0.127961 10.1457 0.127961 10.6339 0.616117Z" fill="currentColor" stroke-width="0.5" stroke-miterlimit="10" stroke-linecap="round" stroke-linejoin="round"/>
</svg>
