<svg width="120.000000" height="120.000000" viewBox="0 0 120 120" fill="none" xmlns="http://www.w3.org/2000/svg" xmlns:xlink="http://www.w3.org/1999/xlink">
	<defs>
		<clipPath id="clip844_100">
			<rect id="Backpack" rx="60.000000" width="120.000000" height="120.000000" fill="white" fill-opacity="0"/>
		</clipPath>
	</defs>
	<rect id="Backpack" rx="60.000000" width="120.000000" height="120.000000" fill="#000000" fill-opacity="1.000000"/>
	<g clip-path="url(#clip844_100)">
		<path id="path" d="M64.65 29.91C67.24 29.91 69.68 30.26 71.93 30.9C69.72 25.76 65.14 24.3 60.04 24.3C54.93 24.3 50.34 25.77 48.14 30.93C50.38 30.27 52.8 29.91 55.39 29.91L64.65 29.91ZM54.79 35.07C42.47 35.07 35.45 44.77 35.45 56.73L35.45 69.01C35.45 70.21 36.45 71.15 37.68 71.15L82.31 71.15C83.54 71.15 84.54 70.21 84.54 69.01L84.54 56.73C84.54 44.77 76.38 35.07 64.05 35.07L54.79 35.07ZM59.98 56.83C64.29 56.83 67.79 53.34 67.79 49.02C67.79 44.71 64.29 41.21 59.98 41.21C55.66 41.21 52.17 44.71 52.17 49.02C52.17 53.34 55.66 56.83 59.98 56.83ZM35.45 78.38C35.45 77.18 36.45 76.21 37.68 76.21L82.31 76.21C83.54 76.21 84.54 77.18 84.54 78.38L84.54 91.37C84.54 93.76 82.54 95.7 80.08 95.7L39.91 95.7C37.45 95.7 35.45 93.76 35.45 91.37L35.45 78.38Z" fill="#E33E3F" fill-opacity="1.000000" fill-rule="evenodd"/>
	</g>
</svg>
