<?xml version="1.0" standalone="no"?><!DOCTYPE svg PUBLIC "-//W3C//DTD SVG 1.1//EN" "http://www.w3.org/Graphics/SVG/1.1/DTD/svg11.dtd"><svg t="1642671890008" class="icon" viewBox="0 0 1024 1024" version="1.1" xmlns="http://www.w3.org/2000/svg" p-id="3243" xmlns:xlink="http://www.w3.org/1999/xlink" width="200" height="200"><defs><style type="text/css"></style></defs><path d="M968.576 273.152q22.848 32.576 10.272 73.728l-157.152 517.728q-10.848 36.576-43.712 61.44t-70.016 24.864l-527.424 0q-44 0-84.864-30.56t-56.864-75.136q-13.728-38.272-1.152-72.576 0-2.272 1.728-15.424t2.272-21.152q0.576-4.576-1.728-12.288t-1.728-11.136q1.152-6.272 4.576-12t9.44-13.44 9.44-13.44q13.152-21.728 25.728-52.288t17.152-52.288q1.728-5.728 0.288-17.152t-0.288-16q1.728-6.272 9.728-16t9.728-13.152q12-20.576 24-52.576t14.272-51.424q0.576-5.152-1.44-18.272t0.288-16q2.272-7.424 12.576-17.44t12.576-12.864q10.848-14.848 24.288-48.288t15.712-55.136q0.576-4.576-1.728-14.56t-1.152-15.136q1.152-4.576 5.152-10.272t10.272-13.152 9.728-12q4.576-6.848 9.44-17.44t8.576-20 9.152-20.576 11.136-18.272 15.136-13.44 20.576-6.56 27.136 3.136l-0.576 1.728q21.728-5.152 29.152-5.152l434.848 0q42.272 0 65.152 32t10.272 74.272l-156.576 517.728q-20.576 68-40.864 87.712t-73.44 19.712l-496.576 0q-15.424 0-21.728 8.576-6.272 9.152-0.576 24.576 13.728 40 82.272 40l527.424 0q16.576 0 32-8.864t20-23.712l171.424-564q4-12.576 2.848-32.576 21.728 8.576 33.728 24.576zM360.576 274.272q-2.272 7.424 1.152 12.864t11.424 5.44l347.424 0q7.424 0 14.56-5.44t9.44-12.864l12-36.576q2.272-7.424-1.152-12.864t-11.424-5.44l-347.424 0q-7.424 0-14.56 5.44t-9.44 12.864zM313.152 420.576q-2.272 7.424 1.152 12.864t11.424 5.44l347.424 0q7.424 0 14.56-5.44t9.44-12.864l12-36.576q2.272-7.424-1.152-12.864t-11.424-5.44l-347.424 0q-7.424 0-14.56 5.44t-9.44 12.864z" p-id="3244"></path></svg>