<svg xmlns="http://www.w3.org/2000/svg" width="32" height="32" viewBox="0 0 32 32" fill="none">
<g clip-path="url(#clip0_1917_203)">
<rect width="32" height="32" rx="8" fill="#1A1A1A"/>
<path d="M19.1426 6.82111C19.175 6.87762 19.1321 6.94747 19.0683 6.94747C17.7756 6.94747 16.7248 7.99931 16.7001 9.30635C16.2575 9.22142 15.7989 9.21503 15.3458 9.29349C15.3145 7.99241 14.2664 6.94747 12.978 6.94747C12.9141 6.94747 12.8711 6.87756 12.9036 6.82101C13.5293 5.73186 14.6921 5 16.0231 5C17.3541 5 18.5169 5.7319 19.1426 6.82111Z" fill="url(#paint0_linear_1917_203)"/>
<path d="M22.971 14.905C23.4107 15.0418 23.825 14.6446 23.6591 14.2043C22.4259 10.9323 18.7761 9.5918 16.0053 9.5918C13.2292 9.5918 9.49802 10.9756 8.34517 14.2247C8.18996 14.6622 8.60318 15.0463 9.03633 14.9098L15.6763 12.8187C15.868 12.7583 16.0728 12.758 16.2647 12.8177L22.971 14.905Z" fill="url(#paint1_linear_1917_203)"/>
<path d="M8.28038 15.5344L15.6819 13.2273C15.8725 13.1679 16.0758 13.1677 16.2664 13.2268L23.7145 15.5355C24.3364 15.7283 24.762 16.3171 24.762 16.9848V23.9409C24.7332 25.6388 23.2491 26.9997 21.5976 26.9997H18.8546C18.5834 26.9997 18.3639 26.7743 18.3639 26.4956V24.0567C18.3639 23.0964 18.9168 22.2272 19.7725 21.8425C20.9196 21.3268 22.2766 20.6293 22.5318 19.2295C22.6142 18.7777 22.3276 18.3419 21.8891 18.2524C20.7805 18.0259 19.5514 18.1134 18.512 18.5912C17.3321 19.1336 17.0234 20.0358 16.9092 21.2476L16.7707 22.5529C16.7284 22.952 16.3644 23.2576 15.9741 23.2576C15.5703 23.2576 15.2676 22.9415 15.2238 22.5288L15.0879 21.2476C14.99 20.2097 14.8125 19.2014 13.7686 18.7215C12.5777 18.1741 11.381 17.9923 10.1079 18.2524C9.66942 18.3419 9.38279 18.7777 9.46517 19.2295C9.72263 20.6415 11.069 21.323 12.2245 21.8425C13.0802 22.2272 13.6332 23.0964 13.6332 24.0567V26.4952C13.6332 26.7739 13.4137 26.9997 13.1426 26.9997H10.3994C8.74791 26.9997 7.26383 25.6388 7.23499 23.9409V16.983C7.23499 16.3162 7.65952 15.7279 8.28038 15.5344Z" fill="url(#paint2_linear_1917_203)"/>
</g>
<defs>
<linearGradient id="paint0_linear_1917_203" x1="15.8267" y1="3.81199" x2="23.8977" y2="26.9702" gradientUnits="userSpaceOnUse">
<stop stop-color="#F5B75E"/>
<stop offset="1" stop-color="#FF9600"/>
</linearGradient>
<linearGradient id="paint1_linear_1917_203" x1="15.8266" y1="3.81204" x2="23.8977" y2="26.9702" gradientUnits="userSpaceOnUse">
<stop stop-color="#F5B75E"/>
<stop offset="1" stop-color="#FF9600"/>
</linearGradient>
<linearGradient id="paint2_linear_1917_203" x1="15.8267" y1="3.81157" x2="23.8977" y2="26.9698" gradientUnits="userSpaceOnUse">
<stop stop-color="#F5B75E"/>
<stop offset="1" stop-color="#FF9600"/>
</linearGradient>
<clipPath id="clip0_1917_203">
<rect width="32" height="32" fill="white"/>
</clipPath>
</defs>
</svg>