<svg width="80.000000" height="80.000000" viewBox="0 0 80 80" fill="none" xmlns="http://www.w3.org/2000/svg" xmlns:xlink="http://www.w3.org/1999/xlink">
	<desc>
			Created with Pixso.
	</desc>
	<defs>
		<clipPath id="clip356_32">
			<rect id="BYBIT" width="80.000000" height="80.000000" fill="white" fill-opacity="0"/>
		</clipPath>
		<linearGradient x1="6.669477" y1="23.266312" x2="76.936417" y2="19.746223" id="paint_linear_356_24_0" gradientUnits="userSpaceOnUse">
			<stop stop-color="#FFD748"/>
			<stop offset="1.000000" stop-color="#F7A600"/>
		</linearGradient>
	</defs>
	<g clip-path="url(#clip356_32)">
		<path id="path" d="M0 16.99C0 7.61 7.61 0 17 0L63 0C72.39 0 80 7.61 80 16.99L80 62.99C80 72.38 72.39 79.99 63 79.99L17 79.99C7.61 79.99 0 72.38 0 62.99L0 16.99Z" fill="#404347" fill-opacity="1.000000" fill-rule="nonzero"/>
		<path id="path" d="M6.89 24.36C6.17 21.88 7.7 19.32 10.23 18.78L52.36 9.83C54.36 9.4 56.39 10.4 57.29 12.24L76.21 51.32L22.88 79.55L6.89 24.36Z" fill="url(#paint_linear_356_24_0)" fill-opacity="1.000000" fill-rule="nonzero"/>
		<path id="path" d="M7.44 27.41C6.68 24.8 8.44 22.12 11.14 21.77L66.98 14.53C69.3 14.23 71.46 15.78 71.91 18.07L79.99 58.88L22.44 79.32L7.44 27.41Z" fill="#FFFFFF" fill-opacity="1.000000" fill-rule="nonzero"/>
		<path id="path" d="M0 31.1C0 26.2 3.98 22.22 8.89 22.22L62.21 22.22C72.03 22.22 79.99 30.18 79.99 39.99L79.99 62.21C80.27 72.05 72.91 80.2 62.21 79.99L17.77 79.99C6.91 80.2 -0.19 72.57 0 62.21L0 31.1Z" fill="#000000" fill-opacity="1.000000" fill-rule="nonzero"/>
		<path id="path" d="M52.92 55.63L52.92 38.97L56.17 38.97L56.17 55.63L52.92 55.63Z" fill="#F7A600" fill-opacity="1.000000" fill-rule="nonzero"/>
		<path id="path" d="M15.85 60.6L8.89 60.6L8.89 43.94L15.57 43.94C18.82 43.94 20.71 45.77 20.71 48.62C20.71 50.47 19.5 51.66 18.66 52.06C19.66 52.53 20.95 53.58 20.95 55.8C20.95 58.91 18.82 60.6 15.85 60.6ZM15.31 46.84L12.14 46.84L12.14 50.68L15.31 50.68C16.69 50.68 17.46 49.91 17.46 48.76C17.46 47.61 16.69 46.84 15.31 46.84ZM15.52 53.6L12.14 53.6L12.14 57.69L15.52 57.69C17 57.69 17.7 56.76 17.7 55.64C17.7 54.51 17 53.6 15.52 53.6Z" fill="#FFFFFF" fill-opacity="1.000000" fill-rule="nonzero"/>
		<path id="path" d="M29.9 53.77L29.9 60.6L26.67 60.6L26.67 53.77L21.67 43.94L25.2 43.94L28.31 50.65L31.37 43.94L34.9 43.94L29.9 53.77Z" fill="#FFFFFF" fill-opacity="1.000000" fill-rule="nonzero"/>
		<path id="path" d="M44.14 60.6L37.18 60.6L37.18 43.94L43.86 43.94C47.11 43.94 49 45.77 49 48.62C49 50.47 47.79 51.66 46.95 52.06C47.95 52.53 49.24 53.58 49.24 55.8C49.24 58.91 47.11 60.6 44.14 60.6ZM43.6 46.84L40.43 46.84L40.43 50.68L43.6 50.68C44.98 50.68 45.75 49.91 45.75 48.76C45.75 47.61 44.98 46.84 43.6 46.84ZM43.81 53.6L40.43 53.6L40.43 57.69L43.81 57.69C45.29 57.69 45.99 56.76 45.99 55.64C45.99 54.51 45.29 53.6 43.81 53.6Z" fill="#FFFFFF" fill-opacity="1.000000" fill-rule="nonzero"/>
		<path id="path" d="M66.75 46.84L66.75 60.6L63.5 60.6L63.5 46.84L59.16 46.84L59.16 43.94L71.1 43.94L71.1 46.84L66.75 46.84Z" fill="#FFFFFF" fill-opacity="1.000000" fill-rule="nonzero"/>
	</g>
</svg>
