<svg width="17" height="17" viewBox="0 0 17 17" fill="none" xmlns="http://www.w3.org/2000/svg">
<path fill-rule="evenodd" clip-rule="evenodd" d="M15.2929 3.21782C15.6834 2.8273 15.6834 2.19413 15.2929 1.80361L15.1964 1.70711C14.8059 1.31658 14.1727 1.31658 13.7822 1.70711L9.20711 6.28218C8.81658 6.6727 8.18342 6.6727 7.79289 6.28218L3.21782 1.70711C2.8273 1.31658 2.19413 1.31658 1.80361 1.70711L1.70711 1.80361C1.31658 2.19413 1.31658 2.8273 1.70711 3.21782L6.28218 7.79289C6.6727 8.18342 6.6727 8.81658 6.28218 9.20711L1.70711 13.7822C1.31658 14.1727 1.31658 14.8059 1.70711 15.1964L1.80361 15.2929C2.19413 15.6834 2.8273 15.6834 3.21782 15.2929L7.79289 10.7178C8.18342 10.3273 8.81658 10.3273 9.20711 10.7178L13.7822 15.2929C14.1727 15.6834 14.8059 15.6834 15.1964 15.2929L15.2929 15.1964C15.6834 14.8059 15.6834 14.1727 15.2929 13.7822L10.7178 9.20711C10.3273 8.81658 10.3273 8.18342 10.7178 7.79289L15.2929 3.21782Z" fill="currentColor"/>
</svg>
