<?xml version="1.0" encoding="UTF-8"?>
<!DOCTYPE svg PUBLIC "-//W3C//DTD SVG 1.1//EN" "http://www.w3.org/Graphics/SVG/1.1/DTD/svg11.dtd">
<svg xmlns="http://www.w3.org/2000/svg" version="1.1" width="64px" height="64px" style="shape-rendering:geometricPrecision; text-rendering:geometricPrecision; image-rendering:optimizeQuality; fill-rule:evenodd; clip-rule:evenodd" xmlns:xlink="http://www.w3.org/1999/xlink">
<g><path style="opacity:0.993" fill="#d7b231" d="M 9.5,-0.5 C 24.1667,-0.5 38.8333,-0.5 53.5,-0.5C 57.8333,1.83333 61.1667,5.16667 63.5,9.5C 63.5,24.1667 63.5,38.8333 63.5,53.5C 61.1667,57.8333 57.8333,61.1667 53.5,63.5C 38.8333,63.5 24.1667,63.5 9.5,63.5C 5.16667,61.1667 1.83333,57.8333 -0.5,53.5C -0.5,38.8333 -0.5,24.1667 -0.5,9.5C 1.83333,5.16667 5.16667,1.83333 9.5,-0.5 Z"/></g>
<g><path style="opacity:1" fill="#151105" d="M 16.5,15.5 C 26.9884,14.4874 31.4884,19.154 30,29.5C 27.3674,34.7315 23.2008,36.5649 17.5,35C 11.9752,32.0812 10.1419,27.5812 12,21.5C 13.332,19.34 14.832,17.34 16.5,15.5 Z"/></g>
<g><path style="opacity:1" fill="#161205" d="M 38.5,15.5 C 46.4951,14.9971 50.3284,18.6637 50,26.5C 49.2825,27.4506 48.4491,27.6172 47.5,27C 47.2169,20.7 44.2169,18.7 38.5,21C 37.7511,22.7337 37.2511,24.567 37,26.5C 36.2825,27.4506 35.4491,27.6172 34.5,27C 33.4086,24.9361 33.2419,22.7695 34,20.5C 35.517,18.7605 37.017,17.0938 38.5,15.5 Z"/></g>
<g><path style="opacity:1" fill="#cfab2f" d="M 18.5,19.5 C 25.0987,19.0546 27.5987,22.0546 26,28.5C 22.9401,31.9355 19.6068,32.2688 16,29.5C 15.3333,26.8333 15.3333,24.1667 16,21.5C 16.9947,20.9341 17.828,20.2674 18.5,19.5 Z"/></g>
<g><path style="opacity:1" fill="#130f04" d="M 38.5,27.5 C 48.4138,26.9807 52.5805,31.6473 51,41.5C 48.0812,47.0248 43.5812,48.8581 37.5,47C 30.6058,40.0239 30.9391,33.5239 38.5,27.5 Z"/></g>
<g><path style="opacity:1" fill="#ceab2f" d="M 38.5,31.5 C 47.8176,31.6546 49.8176,35.488 44.5,43C 37.6759,43.4942 35.1759,40.3276 37,33.5C 37.7172,32.9558 38.2172,32.2891 38.5,31.5 Z"/></g>
<g><path style="opacity:1" fill="#181407" d="M 12.5,38.5 C 13.8333,38.5 15.1667,38.5 16.5,38.5C 16.418,41.5849 17.918,43.2515 21,43.5C 24.082,43.2515 25.582,41.5849 25.5,38.5C 26.8333,38.5 28.1667,38.5 29.5,38.5C 27.9877,47.2562 23.321,49.5895 15.5,45.5C 13.6726,43.5128 12.6726,41.1795 12.5,38.5 Z"/></g>
</svg>
