<svg width="18" height="18" viewBox="0 0 18 18" fill="none" xmlns="http://www.w3.org/2000/svg">
<path d="M15.75 6.705C15.7422 6.6361 15.7271 6.56822 15.705 6.5025V6.435C15.6689 6.35788 15.6208 6.287 15.5625 6.225L11.0625 1.725C11.0005 1.66666 10.9296 1.61856 10.8525 1.5825C10.8301 1.57932 10.8074 1.57932 10.785 1.5825C10.7088 1.53881 10.6247 1.51076 10.5375 1.5H7.5C6.90326 1.5 6.33097 1.73705 5.90901 2.15901C5.48705 2.58097 5.25 3.15326 5.25 3.75V4.5H4.5C3.90326 4.5 3.33097 4.73705 2.90901 5.15901C2.48705 5.58097 2.25 6.15326 2.25 6.75V14.25C2.25 14.8467 2.48705 15.419 2.90901 15.841C3.33097 16.2629 3.90326 16.5 4.5 16.5H10.5C11.0967 16.5 11.669 16.2629 12.091 15.841C12.5129 15.419 12.75 14.8467 12.75 14.25V13.5H13.5C14.0967 13.5 14.669 13.2629 15.091 12.841C15.5129 12.419 15.75 11.8467 15.75 11.25V6.75C15.75 6.75 15.75 6.75 15.75 6.705ZM11.25 4.0575L13.1925 6H12C11.8011 6 11.6103 5.92098 11.4697 5.78033C11.329 5.63968 11.25 5.44891 11.25 5.25V4.0575ZM11.25 14.25C11.25 14.4489 11.171 14.6397 11.0303 14.7803C10.8897 14.921 10.6989 15 10.5 15H4.5C4.30109 15 4.11032 14.921 3.96967 14.7803C3.82902 14.6397 3.75 14.4489 3.75 14.25V6.75C3.75 6.55109 3.82902 6.36032 3.96967 6.21967C4.11032 6.07902 4.30109 6 4.5 6H5.25V11.25C5.25 11.8467 5.48705 12.419 5.90901 12.841C6.33097 13.2629 6.90326 13.5 7.5 13.5H11.25V14.25ZM14.25 11.25C14.25 11.4489 14.171 11.6397 14.0303 11.7803C13.8897 11.921 13.6989 12 13.5 12H7.5C7.30109 12 7.11032 11.921 6.96967 11.7803C6.82902 11.6397 6.75 11.4489 6.75 11.25V3.75C6.75 3.55109 6.82902 3.36032 6.96967 3.21967C7.11032 3.07902 7.30109 3 7.5 3H9.75V5.25C9.75 5.84674 9.98705 6.41903 10.409 6.84099C10.831 7.26295 11.4033 7.5 12 7.5H14.25V11.25Z" fill="currentColor"/>
</svg>
