<svg width="45" height="47" viewBox="0 0 45 47" fill="none" xmlns="http://www.w3.org/2000/svg">
<path fill-rule="evenodd" clip-rule="evenodd" d="M17.7789 26.1344C17.88 26.1675 17.9844 26.1897 18.0902 26.2008C18.0902 26.2008 17.6517 26.3651 16.7445 26.0579C16.7445 26.0579 16.0657 25.7817 15.5569 25.8281C14.966 25.8815 14.5585 26.6497 14.5585 26.6497C14.6752 26.5865 14.7991 26.5377 14.9275 26.5041C15.3301 26.4223 15.1911 26.4906 15.1911 26.4906C15.1911 26.4906 14.417 26.815 14.3643 27.1035C14.3517 27.1755 14.5685 26.9723 15.1409 26.9903C15.8439 27.0124 16.4549 27.4204 16.7059 27.4877C17.2206 27.6254 17.9588 27.6568 18.6359 27.1259C18.6359 27.1259 19.261 26.7338 19.4544 26.0094C19.5044 25.8084 19.5338 25.6029 19.5422 25.396C19.5454 25.2139 19.5268 25.0321 19.487 24.8544C19.487 24.8544 19.1213 25.7013 17.7789 26.1344Z" fill="white"/>
<path fill-rule="evenodd" clip-rule="evenodd" d="M31.0746 34.0801C32.4384 32.3705 33.1811 30.2483 33.1811 28.0613C33.1811 25.8743 32.4384 23.7522 31.0746 22.0425L39.8111 21.0815C39.8111 21.0815 40.7192 23.5719 40.9585 24.9035C40.9895 25.0742 41.043 25.4179 41.043 25.4179C41.043 25.4179 39.6881 28.7079 37.6075 30.5157C34.8114 32.9455 31.0746 34.0801 31.0746 34.0801ZM10.3868 33.9601L7.03814 34.5809C5.9755 31.8899 5.5872 28.9799 5.90712 26.1045C6.22703 23.2291 7.24544 20.4756 8.87356 18.084C8.94428 17.9803 9.08906 17.7754 9.08906 17.7754L12.789 28.1953L10.3868 33.9601Z" fill="url(#paint0_linear_0_1)"/>
<path fill-rule="evenodd" clip-rule="evenodd" d="M22.5006 12.5913C22.5115 12.5771 22.5207 12.5708 22.5324 12.5565C22.622 12.4618 24.7008 10.2247 22.2219 6.44108C20.3924 3.65091 15.7342 3.72949 13.8328 2.27737C13.9734 3.3959 15.0697 4.40413 14.9509 5.93692C14.9043 6.44207 14.8098 6.94166 14.6688 7.42896C14.442 8.30403 14.2328 9.13375 14.5466 10.7647C14.7919 12.0354 15.371 12.9625 16.2698 13.5205C17.2984 14.1582 18.7228 14.2983 20.1841 13.9009C21.1632 13.6346 22.0294 13.1427 22.5006 12.5913Z" fill="url(#paint1_linear_0_1)"/>
<path fill-rule="evenodd" clip-rule="evenodd" d="M25.6021 10.9594C26.1361 10.0379 26.2374 8.96276 25.9093 7.77025C25.4523 6.10414 24.5794 5.01164 23.8756 4.13314C23.6555 3.85511 23.4471 3.59593 23.2806 3.35155C22.6114 2.37107 22.323 1.18007 22.4696 0.0020752C21.621 0.611846 19.9882 1.76527 18.9429 2.99285C20.4518 3.7156 21.6293 4.5043 22.5625 5.92588C24.1501 8.34705 24.125 10.3041 23.8237 11.5191C23.7392 11.8539 24.3794 12.15 24.2606 12.4092C24.8028 12.0234 25.2595 11.5298 25.6021 10.9594Z" fill="url(#paint2_linear_0_1)"/>
<path fill-rule="evenodd" clip-rule="evenodd" d="M37.1732 21.0182C35.3989 20.8494 31.8053 20.4125 31.8053 20.4125C23.7224 19.9622 19.1353 22.3881 15.6713 25.562C12.9983 28.2162 10.6181 35.0989 10.6181 35.0989L7.7229 34.9418C7.7229 34.9418 8.64542 32.1954 9.71123 30.1977C10.9331 27.9074 11.2076 28.0946 10.9302 27.7132C9.63825 25.9373 9.03283 24.5417 8.51327 21.5566C8.51327 21.5566 9.12104 22.0337 9.58075 21.7424C9.58075 21.7424 8.53654 19.93 8.37561 17.9753C8.0903 14.51 9.71323 9.78 9.7509 9.67087C9.73541 9.7205 9.64854 10.1272 10.6009 10.7342C10.6691 10.4477 10.7413 10.1675 10.8176 9.89382C11.1534 8.25892 12.0484 4.69051 13.8394 2.27118C13.8394 2.27118 14.8411 5.76887 17.3569 7.35539C22.2545 10.4448 25.3209 10.4614 25.3209 10.4614C32.2396 11.235 35.1939 14.6292 35.1939 14.6292C40.1593 19.9854 44.6694 19.9352 44.6694 19.9352C43.0491 21.4845 37.1732 21.0182 37.1732 21.0182ZM9.7509 9.67087C9.75139 9.66914 9.75198 9.66743 9.75265 9.66576L9.7509 9.67087Z" fill="url(#paint3_linear_0_1)"/>
<path fill-rule="evenodd" clip-rule="evenodd" d="M44.7539 19.936C44.7539 19.936 44.0501 23.8324 40.3585 24.2868C40.3585 24.2868 26.973 24.2005 25.9971 36.3603L25.7703 39.7763L9.71216 35.0962C9.71216 35.0962 11.2265 29.9332 14.5357 25.788C14.5357 25.788 20.1564 17.8475 36.1739 19.9398C36.1739 19.9398 38.0444 20.3165 40.669 20.5623C42.8868 20.7699 44.7539 19.936 44.7539 19.936Z" fill="url(#paint4_linear_0_1)"/>
<path fill-rule="evenodd" clip-rule="evenodd" d="M35.6465 18.0829C35.6465 18.0829 32.1691 16.2742 27.844 16.4449C27.844 16.4449 30.1965 14.6066 33.376 15.0557L35.6465 18.0829Z" fill="#722B00"/>
<path fill-rule="evenodd" clip-rule="evenodd" d="M26.8559 34.6937C26.8559 34.6937 27.9865 35.4742 29.7825 35.0596C29.7825 35.0596 26.881 36.7418 20.7657 34.4354C20.7657 34.4354 14.4587 31.6143 10.0223 32.2576C7.17078 32.671 4.64935 34.9365 3.12241 36.6613C1.27753 38.7452 1.50718 37.771 6.1403 37.1976C7.25406 37.0598 6.61265 37.3765 6.61265 37.3765C6.61265 37.3765 0.422712 39.9693 0.00442531 42.2755C-0.100021 42.8512 1.63497 41.2264 6.21018 41.3704C11.8267 41.5473 16.7134 44.809 18.7228 45.3467C22.8362 46.4472 28.7364 46.6984 34.1487 42.454C34.1487 42.454 39.1433 39.3203 40.6874 33.5298C41.0892 31.9233 41.3259 30.28 41.3938 28.6255C41.4758 26.4694 40.8197 24.1995 40.8197 24.1995C40.8197 24.1995 37.1699 32.2846 26.8559 34.6937Z" fill="url(#paint5_linear_0_1)"/>
<defs>
<linearGradient id="paint0_linear_0_1" x1="22.722" y1="17.2424" x2="23.4207" y2="34.5809" gradientUnits="userSpaceOnUse">
<stop stop-color="#DADB48"/>
<stop offset="0.65625" stop-color="#637621"/>
</linearGradient>
<linearGradient id="paint1_linear_0_1" x1="23.4334" y1="9.16621" x2="14.9388" y2="9.16621" gradientUnits="userSpaceOnUse">
<stop stop-color="#EC6F01"/>
<stop offset="1" stop-color="#F4B23D"/>
</linearGradient>
<linearGradient id="paint2_linear_0_1" x1="24.1448" y1="9.54283" x2="23.6426" y2="1.34113" gradientUnits="userSpaceOnUse">
<stop stop-color="#F4B33E"/>
<stop offset="1" stop-color="#FB6F1B"/>
</linearGradient>
<linearGradient id="paint3_linear_0_1" x1="10.5868" y1="9.58468" x2="40.4644" y2="21.3851" gradientUnits="userSpaceOnUse">
<stop stop-color="#FB6D1A"/>
<stop offset="1" stop-color="#F3B23E"/>
</linearGradient>
<linearGradient id="paint4_linear_0_1" x1="13.7252" y1="33.4366" x2="42.0964" y2="20.9667" gradientUnits="userSpaceOnUse">
<stop stop-color="#F3B63F"/>
<stop offset="1" stop-color="#FB701C"/>
</linearGradient>
<linearGradient id="paint5_linear_0_1" x1="12.721" y1="46.0319" x2="37.2843" y2="30.7165" gradientUnits="userSpaceOnUse">
<stop stop-color="#EC6F00"/>
<stop offset="1" stop-color="#F4B33E"/>
</linearGradient>
</defs>
</svg>
