<svg width="48" height="48" viewBox="0 0 48 48" fill="none" xmlns="http://www.w3.org/2000/svg">
<path d="M0 12C0 5.37258 5.37258 0 12 0H36C42.6274 0 48 5.37258 48 12V36C48 42.6274 42.6274 48 36 48H12C5.37258 48 0 42.6274 0 36V12Z" fill="#12FE74"/>
<path fill-rule="evenodd" clip-rule="evenodd" d="M30.7867 11.5203C28.7976 10.4673 27.2878 8.61752 26.6917 6.39453C26.5078 7.07424 26.4131 7.78738 26.4131 8.52282C26.4131 9.09668 26.4744 9.65381 26.5858 10.1942C26.5858 10.1942 26.5858 10.1942 26.5858 10.1998C26.5858 10.2054 26.5914 10.2165 26.5914 10.2221C26.7418 10.9464 26.9869 11.6317 27.3157 12.2668C26.6136 11.7487 25.9896 11.1303 25.4659 10.4338C24.764 15.8771 26.7418 21.5433 30.3576 25.2761C35.0766 30.7696 30.7254 40.0907 23.371 39.8456C12.9636 39.9347 11.1808 24.6076 21.1648 22.2008L21.1592 22.1729C23.8224 21.3092 25.0704 19.5766 25.2877 17.3257C21.4434 20.4401 15.3705 16.5792 16.6296 11.7431C2.19959 18.8467 7.55933 41.8902 23.9171 41.606C31.043 41.606 37.0712 36.8926 39.0491 30.4131C41.4114 22.8582 37.5894 14.8074 30.7867 11.5203Z" fill="black"/>
</svg>
