<svg width="14" height="14" viewBox="0 0 14 14" fill="none" xmlns="http://www.w3.org/2000/svg">
<path d="M5.33326 6.00001H6.99992C7.17673 6.00001 7.3463 5.92977 7.47133 5.80474C7.59635 5.67972 7.66659 5.51015 7.66659 5.33334C7.66659 5.15653 7.59635 4.98696 7.47133 4.86193C7.3463 4.73691 7.17673 4.66667 6.99992 4.66667H6.33326V4.33334C6.33326 4.15653 6.26302 3.98696 6.13799 3.86193C6.01297 3.73691 5.8434 3.66667 5.66659 3.66667C5.48978 3.66667 5.32021 3.73691 5.19519 3.86193C5.07016 3.98696 4.99992 4.15653 4.99992 4.33334V4.70001C4.59487 4.78225 4.23483 5.01207 3.9897 5.34485C3.74456 5.67762 3.63182 6.08961 3.67335 6.50084C3.71489 6.91206 3.90775 7.29318 4.21448 7.57021C4.52121 7.84725 4.91994 8.00042 5.33326 8.00001H5.99992C6.08833 8.00001 6.17311 8.03512 6.23563 8.09764C6.29814 8.16015 6.33326 8.24493 6.33326 8.33334C6.33326 8.42174 6.29814 8.50653 6.23563 8.56904C6.17311 8.63155 6.08833 8.66667 5.99992 8.66667H4.33326C4.15645 8.66667 3.98688 8.73691 3.86185 8.86193C3.73683 8.98696 3.66659 9.15653 3.66659 9.33334C3.66659 9.51015 3.73683 9.67972 3.86185 9.80474C3.98688 9.92977 4.15645 10 4.33326 10H4.99992V10.3333C4.99992 10.5101 5.07016 10.6797 5.19519 10.8047C5.32021 10.9298 5.48978 11 5.66659 11C5.8434 11 6.01297 10.9298 6.13799 10.8047C6.26302 10.6797 6.33326 10.5101 6.33326 10.3333V9.96667C6.73831 9.88442 7.09835 9.6546 7.34349 9.32183C7.58862 8.98905 7.70137 8.57706 7.65983 8.16584C7.61829 7.75461 7.42543 7.37349 7.1187 7.09646C6.81197 6.81943 6.41324 6.66626 5.99992 6.66667H5.33326C5.24485 6.66667 5.16007 6.63155 5.09756 6.56904C5.03504 6.50653 4.99992 6.42174 4.99992 6.33334C4.99992 6.24493 5.03504 6.16015 5.09756 6.09764C5.16007 6.03512 5.24485 6.00001 5.33326 6.00001ZM12.9999 7.00001H10.9999V1C11.0004 0.882532 10.9698 0.767021 10.9113 0.665169C10.8527 0.563317 10.7683 0.478741 10.6666 0.420005C10.5652 0.361493 10.4503 0.330688 10.3333 0.330688C10.2162 0.330688 10.1013 0.361493 9.99992 0.420005L7.99992 1.56667L5.99992 0.420005C5.89858 0.361493 5.78362 0.330688 5.66659 0.330688C5.54957 0.330688 5.4346 0.361493 5.33326 0.420005L3.33326 1.56667L1.33326 0.420005C1.23191 0.361493 1.11695 0.330688 0.999924 0.330688C0.882899 0.330688 0.767937 0.361493 0.666591 0.420005C0.564854 0.478741 0.480445 0.563317 0.421909 0.665169C0.363374 0.767021 0.332791 0.882532 0.333257 1V11.6667C0.333257 12.1971 0.543971 12.7058 0.919044 13.0809C1.29412 13.456 1.80282 13.6667 2.33326 13.6667H11.6666C12.197 13.6667 12.7057 13.456 13.0808 13.0809C13.4559 12.7058 13.6666 12.1971 13.6666 11.6667V7.66667C13.6666 7.48986 13.5964 7.32029 13.4713 7.19527C13.3463 7.07024 13.1767 7.00001 12.9999 7.00001ZM2.33326 12.3333C2.15645 12.3333 1.98688 12.2631 1.86185 12.1381C1.73683 12.0131 1.66659 11.8435 1.66659 11.6667V2.15334L2.99992 2.91334C3.10282 2.96708 3.21718 2.99515 3.33326 2.99515C3.44934 2.99515 3.5637 2.96708 3.66659 2.91334L5.66659 1.76667L7.66659 2.91334C7.76948 2.96708 7.88384 2.99515 7.99992 2.99515C8.11601 2.99515 8.23037 2.96708 8.33326 2.91334L9.66659 2.15334V11.6667C9.66839 11.8941 9.70898 12.1196 9.78659 12.3333H2.33326ZM12.3333 11.6667C12.3333 11.8435 12.263 12.0131 12.138 12.1381C12.013 12.2631 11.8434 12.3333 11.6666 12.3333C11.4898 12.3333 11.3202 12.2631 11.1952 12.1381C11.0702 12.0131 10.9999 11.8435 10.9999 11.6667V8.33334H12.3333V11.6667Z" fill="#18191F" fill-opacity="0.7"/>
</svg>
