<svg width="13" height="13" viewBox="0 0 13 13" fill="none" xmlns="http://www.w3.org/2000/svg">
<path fill-rule="evenodd" clip-rule="evenodd" d="M6.50037 1.62503C5.86014 1.62503 5.22619 1.75112 4.6347 1.99612C4.04321 2.24111 3.50576 2.6002 3.05306 3.05288C2.60035 3.50557 2.24124 4.04298 1.99624 4.63445C1.75124 5.22591 1.62513 5.85983 1.62513 6.50003C1.62513 7.14022 1.75124 7.77415 1.99624 8.36561C2.24124 8.95707 2.60035 9.49449 3.05306 9.94717C3.50576 10.3999 4.04321 10.7589 4.6347 11.0039C5.22619 11.2489 5.86014 11.375 6.50037 11.375C7.79336 11.375 9.0334 10.8614 9.94768 9.94717C10.862 9.03293 11.3756 7.79296 11.3756 6.50003C11.3756 5.2071 10.862 3.96712 9.94768 3.05288C9.0334 2.13864 7.79336 1.62503 6.50037 1.62503ZM0.541748 6.50003C0.541748 3.2094 3.20959 0.541695 6.50037 0.541695C9.79115 0.541695 12.459 3.2094 12.459 6.50003C12.459 9.79065 9.79115 12.4584 6.50037 12.4584C3.20959 12.4584 0.541748 9.79065 0.541748 6.50003ZM7.17748 9.07294C7.17748 9.25252 7.10615 9.42474 6.97916 9.55171C6.85218 9.67869 6.67995 9.75003 6.50037 9.75003C6.32079 9.75003 6.14856 9.67869 6.02158 9.55171C5.89459 9.42474 5.82325 9.25252 5.82325 9.07294C5.82325 8.89337 5.89459 8.72115 6.02158 8.59417C6.14856 8.4672 6.32079 8.39586 6.50037 8.39586C6.67995 8.39586 6.85218 8.4672 6.97916 8.59417C7.10615 8.72115 7.17748 8.89337 7.17748 9.07294ZM5.49011 4.85553C5.63366 4.58253 6.00364 4.33336 6.50037 4.33336C7.19536 4.33336 7.58375 4.78565 7.58375 5.14586C7.58375 5.50607 7.19536 5.95836 6.50037 5.95836C6.3567 5.95836 6.21892 6.01543 6.11733 6.11701C6.01575 6.21859 5.95868 6.35637 5.95868 6.50003V7.04169C5.95868 7.18535 6.01575 7.32313 6.11733 7.42471C6.21892 7.52629 6.3567 7.58336 6.50037 7.58336C6.64403 7.58336 6.78182 7.52629 6.8834 7.42471C6.98499 7.32313 7.04206 7.18535 7.04206 7.04169V6.98049C7.9261 6.77844 8.66714 6.09215 8.66714 5.14586C8.66714 4.01053 7.60001 3.25003 6.50037 3.25003C5.66454 3.25003 4.88883 3.66982 4.53077 4.35286C4.49569 4.41602 4.4736 4.48555 4.46579 4.55737C4.45799 4.62919 4.46463 4.70185 4.48533 4.77106C4.50603 4.84028 4.54036 4.90465 4.58631 4.9604C4.63226 5.01615 4.6889 5.06214 4.7529 5.09567C4.81689 5.1292 4.88694 5.1496 4.95894 5.15565C5.03093 5.1617 5.10341 5.15329 5.1721 5.13091C5.2408 5.10854 5.30432 5.07264 5.35893 5.02535C5.41355 4.97806 5.45815 4.92032 5.49011 4.85553Z" fill="#18191F" fill-opacity="0.15"/>
</svg>
