<svg width="30" height="30" viewBox="0 0 30 30" fill="none" xmlns="http://www.w3.org/2000/svg">
<path d="M15 8C15 7.76139 15 7.64208 15.0792 7.56798C15.1584 7.49388 15.2722 7.50147 15.4996 7.51666C16.7081 7.59734 17.8818 7.96977 18.9187 8.6052C20.0981 9.3279 21.0546 10.3627 21.6825 11.5951C22.3105 12.8275 22.5854 14.2095 22.4769 15.5884C22.3815 16.8008 21.9929 17.9693 21.3478 18.9944C21.2264 19.1873 21.1657 19.2838 21.0592 19.3043C20.9527 19.3249 20.8562 19.2548 20.6631 19.1145L15.2061 15.1497C15.105 15.0763 15.0545 15.0396 15.0272 14.9861C15 14.9326 15 14.8702 15 14.7452L15 8Z" fill="currentColor"/>
<path d="M15 26C21.0751 26 26 21.0751 26 15C26 8.92487 21.0751 4 15 4C8.92487 4 4 8.92487 4 15C4 21.0751 8.92487 26 15 26Z" stroke="currentColor" stroke-width="2"/>
</svg>
