<svg width="12" height="13" viewBox="0 0 12 13" fill="none" xmlns="http://www.w3.org/2000/svg">
<path d="M1.66737 2.16737C1.89052 1.94421 2.25233 1.94421 2.47549 2.16737L5.5 5.19188L8.52451 2.16737C8.74767 1.94421 9.10948 1.94421 9.33263 2.16737C9.55579 2.39052 9.55579 2.75233 9.33263 2.97549L6.30812 6L9.33263 9.02451C9.55579 9.24767 9.55579 9.60948 9.33263 9.83263C9.10948 10.0558 8.74767 10.0558 8.52451 9.83263L5.5 6.80812L2.47549 9.83263C2.25233 10.0558 1.89052 10.0558 1.66737 9.83263C1.44421 9.60948 1.44421 9.24767 1.66737 9.02451L4.69188 6L1.66737 2.97549C1.44421 2.75233 1.44421 2.39052 1.66737 2.16737Z" fill="currentColor" stroke="currentColor" stroke-width="0.5" stroke-miterlimit="10" stroke-linecap="round" stroke-linejoin="round"/>
</svg>
