<svg width="30" height="30" viewBox="0 0 30 30" fill="none" xmlns="http://www.w3.org/2000/svg">
<path d="M15 8C15 7.76139 15 7.64208 15.0792 7.56798C15.1584 7.49388 15.2722 7.50147 15.4997 7.51666C16.7406 7.5995 17.9417 7.98977 18.9944 8.65216C19.1873 8.77359 19.2838 8.8343 19.3044 8.94081C19.3249 9.04732 19.2548 9.14384 19.1145 9.33688L15.9045 13.7551C15.5318 14.268 15.3455 14.5245 15.1727 14.4683C15 14.4122 15 14.0952 15 13.4612V8Z" fill="currentColor"/>
<path d="M15 26C21.0751 26 26 21.0751 26 15C26 8.92487 21.0751 4 15 4C8.92487 4 4 8.92487 4 15C4 21.0751 8.92487 26 15 26Z" stroke="currentColor" stroke-width="2"/>
</svg>
