<svg width="30" height="30" viewBox="0 0 30 30" fill="none" xmlns="http://www.w3.org/2000/svg">
<path d="M15 8C15 7.76139 15 7.64208 15.0792 7.56798C15.1584 7.49388 15.2722 7.50147 15.4996 7.51666C16.6422 7.59294 17.7545 7.93005 18.75 8.50481C19.8901 9.16307 20.8369 10.1099 21.4952 11.25C22.1535 12.3901 22.5 13.6835 22.5 15C22.5 16.3165 22.1535 17.6099 21.4952 18.75C20.8369 19.8901 19.8901 20.8369 18.75 21.4952C17.6099 22.1535 16.3165 22.5 15 22.5C13.6835 22.5 12.3901 22.1535 11.25 21.4952C10.2545 20.9204 9.40639 20.1257 8.76906 19.1744C8.64217 18.985 8.57872 18.8903 8.60329 18.7846C8.62785 18.679 8.73118 18.6193 8.93782 18.5L14.75 15.1443C14.872 15.0739 14.933 15.0387 14.9665 14.9807C15 14.9226 15 14.8522 15 14.7113V8Z" fill="currentColor"/>
<path d="M15 26C21.0751 26 26 21.0751 26 15C26 8.92487 21.0751 4 15 4C8.92487 4 4 8.92487 4 15C4 21.0751 8.92487 26 15 26Z" stroke="currentColor" stroke-width="2"/>
</svg>
