<svg width="12" height="13" viewBox="0 0 12 13" fill="none" xmlns="http://www.w3.org/2000/svg">
<path d="M5.5 7.75C6.12132 7.75 6.625 7.24632 6.625 6.625C6.625 6.00368 6.12132 5.5 5.5 5.5C4.87868 5.5 4.375 6.00368 4.375 6.625C4.375 7.24632 4.87868 7.75 5.5 7.75Z" fill="#609934"/>
<path d="M2.125 7.75C2.74632 7.75 3.25 7.24632 3.25 6.625C3.25 6.00368 2.74632 5.5 2.125 5.5C1.50368 5.5 1 6.00368 1 6.625C1 7.24632 1.50368 7.75 2.125 7.75Z" fill="#609934"/>
<path d="M8.875 7.75C9.49632 7.75 10 7.24632 10 6.625C10 6.00368 9.49632 5.5 8.875 5.5C8.25368 5.5 7.75 6.00368 7.75 6.625C7.75 7.24632 8.25368 7.75 8.875 7.75Z" fill="#609934"/>
</svg>
