<?xml version="1.0" standalone="no"?><!DOCTYPE svg PUBLIC "-//W3C//DTD SVG 1.1//EN" "http://www.w3.org/Graphics/SVG/1.1/DTD/svg11.dtd"><svg t="1635044335573" class="icon" viewBox="0 0 1024 1024" version="1.1" xmlns="http://www.w3.org/2000/svg" p-id="4973" xmlns:xlink="http://www.w3.org/1999/xlink" width="200" height="200"><defs><style type="text/css"></style></defs><path d="M936.09073778 515.49525333c-1.16508445-6.40796445-6.40796445-13.98101333-6.99050667-14.56355555L791.62026667 364.61681778V239.95278222c0-12.81592889-10.48576-23.30168889-23.30168889-23.30168889h-39.03032889c-12.81592889 0-23.30168889 10.48576-23.30168889 23.30168889v23.30168889s0 3.49525333-1.16508445 4.66033778c-0.58254222 1.16508445-3.49525333 1.74762667-3.49525333 1.74762666s-4.07779555 1.16508445-5.82542222-0.58254222c-1.16508445-1.16508445-130.48945778-129.32437333-164.27690667-163.69436444-5.24288-5.24288-11.06830222-8.15559111-19.22389333-8.15559111S495.10627555 104.22044445 495.10627555 104.22044445l-396.1287111 396.71125333c-0.58254222 0.58254222-1.16508445 1.16508445-1.16508445 1.74762667-6.40796445 8.15559111-10.48576 23.88423111-2.91271111 41.94304l2.91271111 6.40796444c11.06830222 20.38897778 22.71914667 25.63185778 26.2144 26.79694222 1.16508445 0.58254222 2.91271111 0.58254222 4.07779555 0.58254222h79.22574223v311.66008889c0 11.65084445 11.65084445 25.63185778 25.63185777 25.63185778h560.40561778c15.72864 0 25.63185778-13.39847111 25.63185778-25.63185778v-311.66008889h79.80828444c2.33016889-0.58254222 23.30168889-4.66033778 31.45728-22.71914666 7.57304889-18.64135111 6.99050667-33.78744889 5.82542223-40.19541334z m-345.44753778 315.15534222H431.60917333c-2.33016889 0-3.49525333-1.74762667-4.07779555-3.49525333v-171.26741333c0-12.23338667 9.90321778-21.55406222 21.55406222-21.55406222h124.08149333c12.23338667 0 21.55406222 9.90321778 21.55406222 21.55406222V826.5728c0 2.91271111-1.74762667 4.07779555-4.07779555 4.07779555z" fill="#2C2C2C" p-id="4974"></path></svg>