<svg xmlns="http://www.w3.org/2000/svg" width="155" height="155" viewBox="0 0 155 155" version="1.1"><path d="M 117.500 36.474 C 108.666 38.411, 98.787 42.654, 90.465 48.086 C 82.820 53.077, 80 56.765, 80 61.772 C 80 70.561, 71.953 82.053, 63.146 85.842 C 60.444 87.004, 55.819 88.221, 52.867 88.547 C 36.022 90.404, 22.555 75.575, 28.394 61.599 C 30.254 57.148, 33.565 55, 38.568 55 C 44.474 55, 46.299 57.359, 46.131 64.782 C 45.979 71.482, 47.222 73.738, 51.500 74.525 C 58.358 75.788, 64.151 67.947, 62.573 59.537 C 61.663 54.687, 55.968 48.535, 50.430 46.420 C 45.147 44.403, 36.059 44.884, 31.110 47.443 C 26.010 50.080, 20.649 56.295, 18.630 61.908 C 17.155 66.010, 16.855 69.087, 17.178 76.790 C 17.553 85.745, 17.885 87.068, 21.446 93.807 C 26.176 102.757, 33.706 109.808, 43.500 114.458 C 53.490 119.201, 59.886 120.510, 72.500 120.392 C 82.076 120.302, 84.728 119.874, 92.988 117.084 C 107.798 112.081, 118.152 104.893, 126.450 93.855 C 136.262 80.802, 140.981 65.833, 140.993 47.725 C 141 37.077, 140.970 36.939, 138.435 35.975 C 134.927 34.642, 124.754 34.884, 117.500 36.474" stroke="none" fill="#f9fbfb" fill-rule="evenodd"/><path d="M 0 77.506 L 0 155.012 77.750 154.756 L 155.500 154.500 155.756 77.250 L 156.012 0 78.006 0 L 0 0 0 77.506 M 0.476 78 C 0.476 120.625, 0.599 138.063, 0.750 116.750 C 0.900 95.438, 0.900 60.563, 0.750 39.250 C 0.599 17.938, 0.476 35.375, 0.476 78 M 117.500 36.474 C 108.666 38.411, 98.787 42.654, 90.465 48.086 C 82.820 53.077, 80 56.765, 80 61.772 C 80 70.561, 71.953 82.053, 63.146 85.842 C 60.444 87.004, 55.819 88.221, 52.867 88.547 C 36.022 90.404, 22.555 75.575, 28.394 61.599 C 30.254 57.148, 33.565 55, 38.568 55 C 44.474 55, 46.299 57.359, 46.131 64.782 C 45.979 71.482, 47.222 73.738, 51.500 74.525 C 58.358 75.788, 64.151 67.947, 62.573 59.537 C 61.663 54.687, 55.968 48.535, 50.430 46.420 C 45.147 44.403, 36.059 44.884, 31.110 47.443 C 26.010 50.080, 20.649 56.295, 18.630 61.908 C 17.155 66.010, 16.855 69.087, 17.178 76.790 C 17.553 85.745, 17.885 87.068, 21.446 93.807 C 26.176 102.757, 33.706 109.808, 43.500 114.458 C 53.490 119.201, 59.886 120.510, 72.500 120.392 C 82.076 120.302, 84.728 119.874, 92.988 117.084 C 107.798 112.081, 118.152 104.893, 126.450 93.855 C 136.262 80.802, 140.981 65.833, 140.993 47.725 C 141 37.077, 140.970 36.939, 138.435 35.975 C 134.927 34.642, 124.754 34.884, 117.500 36.474" stroke="none" fill="#0993bf" fill-rule="evenodd"/></svg>