<svg width="20.000000" height="20.000000" viewBox="0 0 20 20" fill="none" xmlns="http://www.w3.org/2000/svg" xmlns:xlink="http://www.w3.org/1999/xlink">
	<rect id="vuesax/linear/lock" width="20.000000" height="20.000000" fill-opacity="0"/>
	<path id="Vector" d="M5 8.33L5 6.66C5 3.9 5.83 1.66 10 1.66C14.16 1.66 15 3.9 15 6.66L15 8.33" stroke="#FFFFFF" stroke-opacity="1.000000" stroke-width="1.500000" stroke-linejoin="round" stroke-linecap="round"/>
	<path id="Vector" d="M14.16 18.33L5.83 18.33C2.49 18.33 1.66 17.5 1.66 14.16L1.66 12.5C1.66 9.16 2.49 8.33 5.83 8.33L14.16 8.33C17.5 8.33 18.33 9.16 18.33 12.5L18.33 14.16C18.33 17.5 17.5 18.33 14.16 18.33Z" fill="transparnet" fill-opacity="1.000000" fill-rule="nonzero"/>
	<path id="Vector" d="M5.83 18.33C2.49 18.33 1.66 17.5 1.66 14.16L1.66 12.5C1.66 9.16 2.49 8.33 5.83 8.33L14.16 8.33C17.5 8.33 18.33 9.16 18.33 12.5L18.33 14.16C18.33 17.5 17.5 18.33 14.16 18.33L5.83 18.33Z" stroke="#FFFFFF" stroke-opacity="1.000000" stroke-width="1.500000" stroke-linejoin="round"/>
	<path id="Vector" d="M12.08 13.33C12.08 14.48 11.15 15.41 10 15.41C8.84 15.41 7.91 14.48 7.91 13.33C7.91 12.18 8.84 11.25 10 11.25C11.15 11.25 12.08 12.18 12.08 13.33Z" fill="#FFFFFF" fill-opacity="1.000000" fill-rule="evenodd"/>
</svg>
