<svg width="22" height="23" viewBox="0 0 22 23" fill="none" xmlns="http://www.w3.org/2000/svg">
<g filter="url(#filter0_d_903:3230)">
<path d="M10.9999 1.33333C10.1244 1.33333 9.25752 1.50577 8.44869 1.8408C7.63985 2.17583 6.90492 2.6669 6.28587 3.28595C5.03562 4.5362 4.33324 6.23189 4.33324 8C4.32742 9.53942 4.86044 11.0324 5.83991 12.22L4.50658 13.5533C4.41407 13.6471 4.35141 13.7661 4.32649 13.8955C4.30158 14.0248 4.31552 14.1586 4.36658 14.28C4.42195 14.4 4.51171 14.5007 4.62448 14.5696C4.73724 14.6384 4.86791 14.6722 4.99991 14.6667H10.9999C12.768 14.6667 14.4637 13.9643 15.714 12.714C16.9642 11.4638 17.6666 9.76811 17.6666 8C17.6666 6.23189 16.9642 4.5362 15.714 3.28595C14.4637 2.03571 12.768 1.33333 10.9999 1.33333Z" fill="#E85E24"/>
<path d="M10.3429 7.29289C10.5305 7.10536 10.7848 7 11.05 7C11.3153 7 11.5696 7.10536 11.7572 7.29289C11.9447 7.48043 12.05 7.73478 12.05 8V11C12.05 11.2652 11.9447 11.5196 11.7572 11.7071C11.5696 11.8946 11.3153 12 11.05 12C10.7848 12 10.5305 11.8946 10.3429 11.7071C10.1554 11.5196 10.05 11.2652 10.05 11V8C10.05 7.73478 10.1554 7.48043 10.3429 7.29289Z" fill="white"/>
<path d="M10.4945 4.16853C10.6589 4.05865 10.8523 4 11.05 4C11.3153 4 11.5696 4.10536 11.7572 4.29289C11.9447 4.48043 12.05 4.73478 12.05 5C12.05 5.19778 11.9914 5.39112 11.8815 5.55557C11.7716 5.72002 11.6155 5.84819 11.4327 5.92388C11.25 5.99957 11.0489 6.01937 10.855 5.98079C10.661 5.9422 10.4828 5.84696 10.3429 5.70711C10.2031 5.56725 10.1078 5.38907 10.0693 5.19509C10.0307 5.00111 10.0505 4.80004 10.1262 4.61732C10.2019 4.43459 10.33 4.27841 10.4945 4.16853Z" fill="white"/>
</g>
<defs>
<filter id="filter0_d_903:3230" x="-1" y="0" width="24" height="24" filterUnits="userSpaceOnUse" color-interpolation-filters="sRGB">
<feFlood flood-opacity="0" result="BackgroundImageFix"/>
<feColorMatrix in="SourceAlpha" type="matrix" values="0 0 0 0 0 0 0 0 0 0 0 0 0 0 0 0 0 0 127 0" result="hardAlpha"/>
<feOffset dy="4"/>
<feGaussianBlur stdDeviation="2"/>
<feComposite in2="hardAlpha" operator="out"/>
<feColorMatrix type="matrix" values="0 0 0 0 0 0 0 0 0 0 0 0 0 0 0 0 0 0 0.25 0"/>
<feBlend mode="normal" in2="BackgroundImageFix" result="effect1_dropShadow_903:3230"/>
<feBlend mode="normal" in="SourceGraphic" in2="effect1_dropShadow_903:3230" result="shape"/>
</filter>
</defs>
</svg>
