<svg xmlns="http://www.w3.org/2000/svg" xmlns:xlink="http://www.w3.org/1999/xlink" viewBox="0 0 1802.16 384.32"><defs><style>.cls-1{fill:url(#未命名的渐变_48);}.cls-2{fill:#2d2f31;}.cls-3{fill:url(#未命名的渐变_57);}.cls-4{fill:#8c8dfd;}.cls-5{fill:#4e529b;}.cls-6{font-size:280px;fill:#e6e6e8;font-family:Courier;}</style><linearGradient id="未命名的渐变_48" x1="946.99" y1="106.75" x2="1041.75" y2="204.73" gradientUnits="userSpaceOnUse"><stop offset="0" stop-color="#ef2f2d"/><stop offset="1" stop-color="#89272d"/></linearGradient><linearGradient id="未命名的渐变_57" x1="851.81" y1="144.3" x2="1174.09" y2="230.69" gradientUnits="userSpaceOnUse"><stop offset="0" stop-color="#434344"/><stop offset="0.29" stop-color="#404041"/><stop offset="0.51" stop-color="#363637"/><stop offset="0.71" stop-color="#262627"/><stop offset="0.9" stop-color="#0f0f0f"/><stop offset="1"/></linearGradient></defs><title>orbiter_zks_pc</title><g id="orbiter_logo" data-name="orbiter logo"><g id="icon"><path class="cls-1" d="M1048.13,133.41c.67,16.34,2.95,44,4.12,57.58a7,7,0,0,1-7.28,7.57c-10-.47-28.75-1.18-51.11-1.28-21.81-.1-39.86.5-49.63.92a7,7,0,0,1-7.25-7.55c1.11-13.46,3.28-40.91,3.95-57.24a53.37,53.37,0,0,1,53.6-51.51h0A53.37,53.37,0,0,1,1048.13,133.41Zm-53.68-26a31.5,31.5,0,1,0,31.5,31.5A31.5,31.5,0,0,0,994.45,107.41Z" transform="translate(-33.49 -11.13)"/><path class="cls-2" d="M995,120.84a11.49,11.49,0,0,1,2.84,7.57,12.11,12.11,0,0,1-12.35,11.87,12.51,12.51,0,0,1-9.66-4.47,17.93,17.93,0,0,0-.33,3.38c0,10.14,8.55,18.36,19.11,18.36s19.11-8.22,19.11-18.36S1005.39,121,995,120.84Z" transform="translate(-33.49 -11.13)"/><path class="cls-2" d="M1023.25,101.8a1.83,1.83,0,0,1-1.94-1.75c-.16-4.1.57-12.5,11.2-21.67,7.31-6.31,17.51-8.59,30.33-6.79a1.83,1.83,0,0,1,1.54,2.14h0a1.82,1.82,0,0,1-2.05,1.48c-11.66-1.65-20.83.33-27.27,5.87-9.23,8-10,15.17-10,18.85a1.81,1.81,0,0,1-1.71,1.86Z" transform="translate(-33.49 -11.13)"/><ellipse class="cls-2" cx="1026.74" cy="60.87" rx="5.31" ry="5.11"/><path class="cls-2" d="M967.75,102.14a1.82,1.82,0,0,0,1.94-1.74c.17-4.2-.53-13.77-11.2-23-7.31-6.31-17.5-8.59-30.32-6.79a1.83,1.83,0,0,0-1.55,2.14h0a1.82,1.82,0,0,0,2,1.48c11.66-1.65,20.83.33,27.27,5.87,9.27,8,10.06,16.34,9.95,20.12a1.83,1.83,0,0,0,1.71,1.88Z" transform="translate(-33.49 -11.13)"/><ellipse class="cls-2" cx="898.04" cy="60.87" rx="5.31" ry="5.11"/></g><g id="orbiter"><g id="orbiter-2" data-name="orbiter"><path id="Compound_Path" data-name="Compound Path" class="cls-3" d="M1165.29,263.38c0-16.57-41.51-42.89-41.51-42.89l-.47-.14c6.83-27.68,10.35-40,10.81-58,1-41.11-9.38-75.91-35.43-106.42-24.23-28.37-62.8-44.83-104-44.83-43.79,0-77.55,16.69-102.59,44.34s-37.61,57.61-36.86,106.42c.2,13.66,3.31,36.59,10,57.15l-.47.14S824,245,824,262.89c0,5.29,22,12,67.38,14.13l-25.31,37.92c-1,3.23-.37,7.67,2.34,9.57a19.82,19.82,0,0,0,8.9,3.17c4.82.14,6.31-1.25,8.08-4.44L910.82,279c27,1.07,44.17,1.64,75.06,1.7v50.63c.18,3.05,1.47,8.62,9.66,8.62,7.45,0,8.72-5.22,8.72-8.62V280.73c30.86-.06,47.63.35,74.58-.71l26.63,42.73a6.66,6.66,0,0,0,6.75,4.45,13.92,13.92,0,0,0,7.39-2c3-1.34,3-6.27,1.78-10.74L1096.33,278C1140.12,274.36,1165.29,267.63,1165.29,263.38Zm-262.82-4.86a15.37,15.37,0,0,1-15.13-15.6c0-8.62,6.77-14.63,15.13-14.63s15.13,6,15.13,14.63A15.37,15.37,0,0,1,902.47,258.52Zm92.18.86a15.61,15.61,0,1,1,15.13-15.6A15.37,15.37,0,0,1,994.65,259.38Zm92.18.87a15.61,15.61,0,1,1,15.13-15.6A15.37,15.37,0,0,1,1086.83,260.25Zm23.21-45.6c-29.26-7.45-72.56-7.08-115.39-7.08s-83-1.31-115.56,7.08c-4.87-19.57-8.69-39.1-9.18-54.23-2.27-70.32,45.23-137,124.74-137s128.59,66.73,125.56,137C1119.25,182.54,1113.08,202.79,1110,214.65Z" transform="translate(-33.49 -11.13)"/></g></g><g id="图层_4" data-name="图层 4"><path d="M1262.46,114q20.49,0,35.17,8.46a54.4,54.4,0,0,1,22.24,24.06q7.55,15.6,7.55,36.64a90.93,90.93,0,0,1-4.14,28.26,61.33,61.33,0,0,1-12.39,22.05,54.19,54.19,0,0,1-20.31,14.27q-12,4.94-27.58,4.94a71.42,71.42,0,0,1-27.67-5.08,54.79,54.79,0,0,1-20.4-14.31A61.53,61.53,0,0,1,1202.58,211a91.4,91.4,0,0,1-4.18-28.09,88,88,0,0,1,4.36-28.36,61.24,61.24,0,0,1,12.62-21.95,54.5,54.5,0,0,1,20.13-13.86A71.31,71.31,0,0,1,1262.46,114Zm37.91,69q0-14.73-4.67-25.52t-13.34-16.33a36.17,36.17,0,0,0-19.9-5.53,35.52,35.52,0,0,0-14.78,3.06,32.72,32.72,0,0,0-11.68,8.92,42.8,42.8,0,0,0-7.72,15,68.61,68.61,0,0,0-2.83,20.44,70.35,70.35,0,0,0,2.83,20.68,42.61,42.61,0,0,0,8,15.32,33.64,33.64,0,0,0,11.86,9.1,36.87,36.87,0,0,0,33.51-2.19q8.58-5.22,13.66-16.1T1300.37,182.93Z" transform="translate(-33.49 -11.13)"/><path d="M1372.88,216.6v20.85q0,7.61-3.51,11.39a11.57,11.57,0,0,1-8.89,3.8,11.15,11.15,0,0,1-8.72-3.84q-3.4-3.84-3.41-11.35V167.93q0-16.83,12-16.83,6.1,0,8.8,3.93t3,11.62a43.56,43.56,0,0,1,9-11.62q4.62-3.93,12.35-3.93a31.18,31.18,0,0,1,15,3.93q7.29,3.94,7.28,10.43a10,10,0,0,1-3.1,7.55,9.53,9.53,0,0,1-6.69,3,30.11,30.11,0,0,1-6.51-1.69,29.8,29.8,0,0,0-9.12-1.69,13.2,13.2,0,0,0-8.81,2.88,18.5,18.5,0,0,0-5.3,8.55,60,60,0,0,0-2.6,13.49Q1372.88,205.35,1372.88,216.6Z" transform="translate(-33.49 -11.13)"/><path d="M1451.76,128.23v38.15a57,57,0,0,1,14.1-11.21q7.19-3.88,17.79-3.89a37.26,37.26,0,0,1,35.71,23q5.09,11.21,5.08,26.57a72.27,72.27,0,0,1-2.83,20.81,49.75,49.75,0,0,1-8.22,16.42,37.18,37.18,0,0,1-13.07,10.75,37.72,37.72,0,0,1-16.94,3.8,40.12,40.12,0,0,1-10.64-1.37,30.75,30.75,0,0,1-8.49-3.62,38,38,0,0,1-6-4.62q-2.48-2.37-6.51-7.13v2.47q0,7-3.33,10.66a11,11,0,0,1-8.44,3.61,10.4,10.4,0,0,1-8.31-3.61q-3.11-3.61-3.1-10.66v-109q0-7.59,3-11.48A10,10,0,0,1,1440,114q5.65,0,8.71,3.7T1451.76,128.23Zm1.17,74.19q0,14.91,6.69,22.91a21.78,21.78,0,0,0,17.56,8q9.25,0,16-8.19t6.69-23.46a46.94,46.94,0,0,0-2.78-17,24.64,24.64,0,0,0-7.91-11,19.22,19.22,0,0,0-12-3.89,21,21,0,0,0-12.48,3.89,25.73,25.73,0,0,0-8.63,11.25A44.38,44.38,0,0,0,1452.93,202.42Z" transform="translate(-33.49 -11.13)"/><path d="M1556.51,139.48a12.8,12.8,0,0,1-8.75-3.2q-3.65-3.19-3.64-9.06a11.32,11.32,0,0,1,3.73-8.73,12.37,12.37,0,0,1,8.66-3.43,12.69,12.69,0,0,1,8.45,3.11q3.69,3.1,3.68,9,0,5.78-3.59,9A12.29,12.29,0,0,1,1556.51,139.48Zm12.13,25.8v72.17q0,7.52-3.5,11.35a11.52,11.52,0,0,1-8.89,3.84,11,11,0,0,1-8.76-3.93q-3.37-3.94-3.37-11.26V166q0-7.41,3.37-11.16a11.21,11.21,0,0,1,8.76-3.75,11.65,11.65,0,0,1,8.89,3.75Q1568.65,158.6,1568.64,165.28Z" transform="translate(-33.49 -11.13)"/><path d="M1595.33,153.29H1598v-15q0-6,.32-9.47a14.19,14.19,0,0,1,1.75-5.9,11.21,11.21,0,0,1,4.13-4.16,11.54,11.54,0,0,1,6-1.6,12,12,0,0,1,8.45,3.57,10.56,10.56,0,0,1,3.18,5.81,53.44,53.44,0,0,1,.68,9.74v17h9q5.22,0,8,2.52a8.36,8.36,0,0,1,2.74,6.45q0,5-3.9,7t-11.19,2h-4.58v45.93a76,76,0,0,0,.4,9,9.25,9.25,0,0,0,2.16,5.12q1.76,2,5.7,2a29.83,29.83,0,0,0,5.84-.78,29.84,29.84,0,0,1,5.75-.78,7.33,7.33,0,0,1,5.35,2.43,8.19,8.19,0,0,1,2.38,6q0,6-6.47,9.24t-18.6,3.2q-11.49,0-17.43-3.93a18.27,18.27,0,0,1-7.77-10.89q-1.83-6.94-1.84-18.57V171.31h-3.23c-3.54,0-6.23-.85-8.09-2.56a8.41,8.41,0,0,1-2.78-6.49,8.13,8.13,0,0,1,2.92-6.45Q1589.75,153.29,1595.33,153.29Z" transform="translate(-33.49 -11.13)"/><path d="M1727.57,208h-48a33.61,33.61,0,0,0,3.37,15,23.41,23.41,0,0,0,8.71,9.79,22.77,22.77,0,0,0,12,3.29,29,29,0,0,0,8-1.05,26.17,26.17,0,0,0,7-3.29,55.14,55.14,0,0,0,6.29-4.81q2.87-2.55,7.46-7a7.92,7.92,0,0,1,5.39-1.65,8.81,8.81,0,0,1,6.11,2.11,7.6,7.6,0,0,1,2.33,5.95,16.52,16.52,0,0,1-2.6,7.91,31.25,31.25,0,0,1-7.87,8.69,44.3,44.3,0,0,1-13.2,6.9,56,56,0,0,1-18.29,2.75q-23.62,0-36.74-13.72t-13.12-37.23a63,63,0,0,1,3.24-20.54,45.49,45.49,0,0,1,9.43-16.24,40.87,40.87,0,0,1,15.27-10.38,54,54,0,0,1,20.13-3.61q14.37,0,24.66,6.17a40.37,40.37,0,0,1,15.41,16,42.66,42.66,0,0,1,5.12,19.95q0,9.42-5.3,12.21T1727.57,208Zm-48-14.18h44.47q-.9-12.81-6.78-19.17t-15.5-6.35a19.46,19.46,0,0,0-15,6.45Q1680.86,181.19,1679.6,193.82Z" transform="translate(-33.49 -11.13)"/><path d="M1792.8,216.6v20.85q0,7.61-3.5,11.39a11.61,11.61,0,0,1-8.9,3.8,11.13,11.13,0,0,1-8.71-3.84q-3.42-3.84-3.42-11.35V167.93q0-16.83,12-16.83,6.1,0,8.81,3.93t3,11.62a43.56,43.56,0,0,1,9-11.62q4.62-3.93,12.35-3.93a31.22,31.22,0,0,1,15,3.93q7.27,3.94,7.27,10.43a10,10,0,0,1-3.1,7.55,9.51,9.51,0,0,1-6.69,3,30.11,30.11,0,0,1-6.51-1.69,29.8,29.8,0,0,0-9.12-1.69,13.22,13.22,0,0,0-8.81,2.88,18.58,18.58,0,0,0-5.3,8.55,61.18,61.18,0,0,0-2.6,13.49Q1792.8,205.35,1792.8,216.6Z" transform="translate(-33.49 -11.13)"/></g></g><g id="图层_3" data-name="图层 3"><polygon class="cls-4" points="0 162.37 0 159.31 136.62 21.71 143.95 21.71 143.95 94.38 286.14 94.38 143.07 200.18 143.07 302.6 138.36 302.6 0 162.37"/><g id="图层_6" data-name="图层 6"><polygon class="cls-5" points="369.16 120.95 369.16 19.21 375.59 19.21 515.28 159.31 515.28 164.98 375.59 304.91 369.16 304.91 369.16 230.84 229.37 230.84 229.37 226.06 369.16 120.95"/><text class="cls-6" transform="matrix(1, -0.1, 0.1, 1, 573.08, 270.31)">/</text></g></g></svg>