<svg width="1803" height="385" viewBox="0 0 1803 385" fill="none" xmlns="http://www.w3.org/2000/svg">
<g clip-path="url(#clip0_41757_5070)">
<path d="M1014.64 122.28C1015.31 138.62 1017.59 166.28 1018.76 179.86C1018.84 180.85 1018.71 181.846 1018.38 182.782C1018.05 183.718 1017.52 184.573 1016.83 185.289C1016.14 186.005 1015.31 186.566 1014.39 186.935C1013.46 187.305 1012.47 187.473 1011.48 187.43C1001.48 186.96 982.73 186.25 960.37 186.15C938.56 186.05 920.51 186.65 910.74 187.07C909.752 187.109 908.767 186.937 907.85 186.567C906.932 186.197 906.104 185.637 905.419 184.924C904.734 184.211 904.208 183.36 903.875 182.429C903.543 181.497 903.412 180.506 903.49 179.52C904.6 166.06 906.77 138.61 907.44 122.28C907.924 108.411 913.791 95.2747 923.797 85.6585C933.803 76.0422 947.162 70.7019 961.04 70.7702C974.918 70.7019 988.277 76.0422 998.283 85.6585C1008.29 95.2747 1014.16 108.411 1014.64 122.28ZM960.96 96.2802C954.73 96.2802 948.64 98.1276 943.46 101.589C938.279 105.05 934.242 109.97 931.858 115.726C929.474 121.482 928.85 127.815 930.065 133.926C931.281 140.036 934.281 145.649 938.686 150.054C943.092 154.459 948.704 157.459 954.815 158.675C960.925 159.89 967.259 159.267 973.015 156.882C978.77 154.498 983.69 150.461 987.151 145.281C990.613 140.1 992.46 134.01 992.46 127.78C992.46 123.644 991.645 119.547 990.062 115.726C988.479 111.904 986.159 108.431 983.234 105.506C980.309 102.581 976.836 100.261 973.015 98.678C969.193 97.0949 965.097 96.2802 960.96 96.2802Z" fill="url(#paint0_linear_41757_5070)"/>
<path d="M961.51 109.71C963.343 111.806 964.352 114.496 964.35 117.28C964.319 118.87 963.975 120.439 963.337 121.896C962.699 123.354 961.781 124.671 960.634 125.773C959.487 126.876 958.134 127.741 956.653 128.321C955.172 128.9 953.59 129.182 952 129.15C950.16 129.161 948.341 128.766 946.671 127.994C945.001 127.221 943.522 126.09 942.34 124.68C942.123 125.794 942.013 126.925 942.01 128.06C942.01 138.2 950.56 146.42 961.12 146.42C971.68 146.42 980.23 138.2 980.23 128.06C980.23 117.92 971.9 109.87 961.51 109.71Z" fill="#2D2F31"/>
<path d="M989.76 90.6699C989.517 90.6847 989.274 90.651 989.044 90.5707C988.815 90.4904 988.603 90.3651 988.423 90.2021C988.242 90.0392 988.096 89.8419 987.992 89.6217C987.889 89.4015 987.83 89.163 987.82 88.9199C987.66 84.8199 988.39 76.4199 999.02 67.2499C1006.33 60.9399 1016.53 58.6599 1029.35 60.4599C1029.59 60.4949 1029.83 60.5787 1030.04 60.7063C1030.25 60.8339 1030.43 61.0026 1030.58 61.2024C1030.72 61.4022 1030.82 61.6289 1030.87 61.8691C1030.93 62.1092 1030.93 62.3578 1030.89 62.5999C1030.81 63.0641 1030.55 63.4779 1030.16 63.754C1029.78 64.0301 1029.31 64.1469 1028.84 64.0799C1017.18 62.4299 1008.01 64.4099 1001.57 69.9499C992.34 77.9499 991.57 85.1199 991.57 88.7999C991.584 89.2717 991.413 89.7302 991.093 90.0776C990.774 90.4251 990.331 90.634 989.86 90.6599L989.76 90.6699Z" fill="#2D2F31"/>
<path d="M1026.74 65.9798C1029.67 65.9798 1032.05 63.6919 1032.05 60.8698C1032.05 58.0476 1029.67 55.7598 1026.74 55.7598C1023.81 55.7598 1021.43 58.0476 1021.43 60.8698C1021.43 63.6919 1023.81 65.9798 1026.74 65.9798Z" fill="#2D2F31"/>
<path d="M934.26 91.0099C934.502 91.0261 934.746 90.9937 934.975 90.9145C935.205 90.8353 935.416 90.711 935.597 90.5489C935.778 90.3867 935.924 90.19 936.028 89.9704C936.131 89.7507 936.19 89.5126 936.2 89.2699C936.37 85.0699 935.67 75.4999 925 66.2699C917.69 59.9599 907.5 57.6799 894.68 59.4799C894.436 59.5137 894.2 59.5966 893.989 59.7237C893.777 59.8507 893.593 60.0193 893.448 60.2192C893.304 60.4191 893.201 60.6463 893.146 60.887C893.091 61.1277 893.086 61.377 893.13 61.6199C893.213 62.0744 893.466 62.4802 893.838 62.755C894.209 63.0299 894.671 63.1532 895.13 63.0999C906.79 61.4499 915.96 63.4299 922.4 68.9699C931.67 76.9699 932.46 85.3099 932.35 89.0899C932.336 89.5637 932.507 90.0245 932.826 90.3751C933.144 90.7258 933.587 90.939 934.06 90.9699L934.26 91.0099Z" fill="#2D2F31"/>
<path d="M898.04 65.9798C900.973 65.9798 903.35 63.6919 903.35 60.8698C903.35 58.0476 900.973 55.7598 898.04 55.7598C895.107 55.7598 892.73 58.0476 892.73 60.8698C892.73 63.6919 895.107 65.9798 898.04 65.9798Z" fill="#2D2F31"/>
<path d="M1131.8 252.25C1131.8 235.68 1090.29 209.36 1090.29 209.36L1089.82 209.22C1096.65 181.54 1100.17 169.22 1100.63 151.22C1101.63 110.11 1091.25 75.3102 1065.2 44.8002C1040.97 16.4302 1002.4 -0.0297852 961.2 -0.0297852C917.41 -0.0297852 883.65 16.6602 858.61 44.3102C833.57 71.9602 821 101.92 821.75 150.73C821.95 164.39 825.06 187.32 831.75 207.88L831.28 208.02C831.28 208.02 790.51 233.87 790.51 251.76C790.51 257.05 812.51 263.76 857.89 265.89L832.58 303.81C831.58 307.04 832.21 311.48 834.92 313.38C837.588 315.139 840.641 316.226 843.82 316.55C848.64 316.69 850.13 315.3 851.9 312.11L877.33 267.87C904.33 268.94 921.5 269.51 952.39 269.57V320.2C952.57 323.25 953.86 328.82 962.05 328.82C969.5 328.82 970.77 323.6 970.77 320.2V269.6C1001.63 269.54 1018.4 269.95 1045.35 268.89L1071.98 311.62C1072.46 313 1073.38 314.183 1074.6 314.987C1075.82 315.791 1077.27 316.172 1078.73 316.07C1081.33 316.107 1083.89 315.415 1086.12 314.07C1089.12 312.73 1089.12 307.8 1087.9 303.33L1062.84 266.87C1106.63 263.23 1131.8 256.5 1131.8 252.25ZM868.98 247.39C864.905 247.327 861.022 245.648 858.185 242.723C855.348 239.797 853.789 235.865 853.85 231.79C853.85 223.17 860.62 217.16 868.98 217.16C877.34 217.16 884.11 223.16 884.11 231.79C884.171 235.865 882.612 239.797 879.775 242.723C876.938 245.648 873.055 247.327 868.98 247.39ZM961.16 248.25C958.054 248.346 954.989 247.512 952.36 245.855C949.73 244.199 947.655 241.795 946.4 238.952C945.144 236.109 944.767 232.955 945.314 229.896C945.862 226.837 947.311 224.011 949.475 221.78C951.638 219.549 954.419 218.014 957.46 217.373C960.501 216.732 963.664 217.013 966.544 218.181C969.425 219.349 971.891 221.349 973.627 223.927C975.363 226.505 976.291 229.542 976.29 232.65C976.352 236.725 974.792 240.657 971.955 243.583C969.118 246.508 965.235 248.187 961.16 248.25ZM1053.34 249.12C1050.23 249.216 1047.17 248.382 1044.54 246.725C1041.91 245.069 1039.83 242.665 1038.58 239.822C1037.32 236.979 1036.95 233.825 1037.49 230.766C1038.04 227.707 1039.49 224.881 1041.65 222.65C1043.82 220.419 1046.6 218.884 1049.64 218.243C1052.68 217.602 1055.84 217.883 1058.72 219.051C1061.6 220.219 1064.07 222.219 1065.81 224.797C1067.54 227.375 1068.47 230.412 1068.47 233.52C1068.53 237.595 1066.97 241.527 1064.13 244.453C1061.3 247.378 1057.41 249.057 1053.34 249.12ZM1076.55 203.52C1047.29 196.07 1003.99 196.44 961.16 196.44C918.33 196.44 878.16 195.13 845.6 203.52C840.73 183.95 836.91 164.42 836.42 149.29C834.15 78.9702 881.65 12.2902 961.16 12.2902C1040.67 12.2902 1089.75 79.0202 1086.72 149.29C1085.76 171.41 1079.59 191.66 1076.51 203.52H1076.55Z" fill="url(#paint1_linear_41757_5070)"/>
<path d="M1228.97 102.87C1242.63 102.87 1254.35 105.69 1264.14 111.33C1273.85 116.874 1281.62 125.275 1286.38 135.39C1291.41 145.79 1293.93 158.004 1293.93 172.03C1294.05 181.61 1292.65 191.147 1289.79 200.29C1287.24 208.421 1283.02 215.931 1277.4 222.34C1271.83 228.604 1264.87 233.489 1257.09 236.61C1249.09 239.904 1239.9 241.55 1229.51 241.55C1220.04 241.708 1210.64 239.981 1201.84 236.47C1194.03 233.33 1187.05 228.434 1181.44 222.16C1175.81 215.673 1171.61 208.081 1169.09 199.87C1166.24 190.782 1164.83 181.304 1164.91 171.78C1164.8 162.152 1166.27 152.571 1169.27 143.42C1171.9 135.304 1176.2 127.828 1181.89 121.47C1187.46 115.386 1194.35 110.647 1202.02 107.61C1210.61 104.305 1219.76 102.696 1228.97 102.87ZM1266.88 171.87C1266.88 162.05 1265.32 153.544 1262.21 146.35C1259.1 139.157 1254.65 133.714 1248.87 130.02C1242.92 126.282 1236 124.36 1228.97 124.49C1223.88 124.44 1218.84 125.483 1214.19 127.55C1209.67 129.599 1205.68 132.65 1202.51 136.47C1198.97 140.909 1196.34 146.008 1194.79 151.47C1192.82 158.102 1191.87 164.993 1191.96 171.91C1191.87 178.906 1192.82 185.876 1194.79 192.59C1196.38 198.19 1199.1 203.404 1202.79 207.91C1206.01 211.795 1210.06 214.905 1214.65 217.01C1220.01 219.324 1225.84 220.333 1231.67 219.952C1237.49 219.571 1243.15 217.812 1248.16 214.82C1253.88 211.34 1258.43 205.974 1261.82 198.72C1265.21 191.467 1266.89 182.494 1266.88 171.8V171.87Z" fill="black"/>
<path d="M1339.39 205.47V226.32C1339.39 231.394 1338.22 235.19 1335.88 237.71C1334.76 238.947 1333.39 239.927 1331.85 240.583C1330.32 241.239 1328.66 241.555 1326.99 241.51C1325.34 241.554 1323.71 241.233 1322.2 240.569C1320.69 239.905 1319.35 238.915 1318.27 237.67C1316 235.11 1314.87 231.327 1314.86 226.32V156.8C1314.86 145.58 1318.86 139.97 1326.86 139.97C1330.93 139.97 1333.86 141.28 1335.66 143.9C1337.46 146.52 1338.46 150.394 1338.66 155.52C1340.98 151.165 1344.02 147.236 1347.66 143.9C1350.74 141.28 1354.86 139.97 1360.01 139.97C1365.26 139.996 1370.42 141.348 1375.01 143.9C1379.87 146.527 1382.3 150.004 1382.29 154.33C1382.33 155.736 1382.08 157.135 1381.55 158.436C1381.01 159.737 1380.21 160.91 1379.19 161.88C1378.33 162.797 1377.29 163.534 1376.14 164.049C1375 164.564 1373.76 164.847 1372.5 164.88C1370.27 164.562 1368.09 163.995 1365.99 163.19C1363.06 162.154 1359.98 161.584 1356.87 161.5C1353.68 161.364 1350.55 162.387 1348.06 164.38C1345.54 166.686 1343.7 169.645 1342.76 172.93C1341.38 177.312 1340.51 181.839 1340.16 186.42C1339.65 191.62 1339.39 197.97 1339.39 205.47Z" fill="black"/>
<path d="M1418.27 117.1V155.25C1422.35 150.79 1427.11 147.006 1432.37 144.04C1437.16 141.453 1443.09 140.157 1450.16 140.15C1457.75 139.89 1465.23 141.953 1471.61 146.063C1478 150.174 1482.97 156.135 1485.87 163.15C1489.26 170.623 1490.96 179.48 1490.95 189.72C1491.02 196.757 1490.07 203.768 1488.12 210.53C1486.42 216.466 1483.64 222.034 1479.9 226.95C1476.43 231.49 1471.96 235.169 1466.83 237.7C1461.56 240.267 1455.76 241.568 1449.89 241.5C1446.3 241.522 1442.72 241.061 1439.25 240.13C1436.25 239.357 1433.39 238.137 1430.76 236.51C1428.61 235.174 1426.6 233.626 1424.76 231.89C1423.11 230.31 1420.94 227.933 1418.25 224.76V227.23C1418.25 231.897 1417.14 235.45 1414.92 237.89C1413.86 239.064 1412.55 239.994 1411.09 240.618C1409.64 241.241 1408.06 241.542 1406.48 241.5C1404.91 241.564 1403.35 241.273 1401.91 240.648C1400.47 240.022 1399.19 239.08 1398.17 237.89C1396.1 235.483 1395.06 231.93 1395.07 227.23V118.23C1395.07 113.17 1396.07 109.343 1398.07 106.75C1399.06 105.469 1400.34 104.446 1401.81 103.771C1403.28 103.095 1404.89 102.786 1406.51 102.87C1410.28 102.87 1413.18 104.103 1415.22 106.57C1417.26 109.037 1418.28 112.547 1418.27 117.1ZM1419.44 191.29C1419.44 201.23 1421.67 208.867 1426.13 214.2C1428.25 216.793 1430.93 218.863 1433.98 220.251C1437.02 221.638 1440.35 222.305 1443.69 222.2C1449.86 222.2 1455.19 219.47 1459.69 214.01C1464.19 208.55 1466.42 200.73 1466.38 190.55C1466.51 184.76 1465.57 178.997 1463.6 173.55C1462.04 169.216 1459.3 165.405 1455.69 162.55C1452.24 159.94 1448.01 158.57 1443.69 158.66C1439.22 158.596 1434.85 159.959 1431.21 162.55C1427.34 165.418 1424.35 169.316 1422.58 173.8C1420.36 179.359 1419.3 185.308 1419.44 191.29Z" fill="black"/>
<path d="M1523.02 128.35C1519.8 128.42 1516.68 127.278 1514.27 125.15C1511.84 123.023 1510.62 120.003 1510.63 116.09C1510.58 114.451 1510.89 112.822 1511.54 111.315C1512.18 109.808 1513.14 108.458 1514.36 107.36C1516.69 105.132 1519.8 103.901 1523.02 103.93C1526.12 103.899 1529.13 105.005 1531.47 107.04C1533.93 109.107 1535.16 112.107 1535.15 116.04C1535.15 119.893 1533.95 122.893 1531.56 125.04C1529.25 127.202 1526.19 128.388 1523.02 128.35ZM1535.15 154.15V226.32C1535.15 231.333 1533.98 235.117 1531.65 237.67C1530.54 238.917 1529.16 239.906 1527.63 240.569C1526.09 241.232 1524.43 241.553 1522.76 241.51C1521.1 241.56 1519.45 241.232 1517.93 240.551C1516.41 239.87 1515.07 238.854 1514 237.58C1511.75 234.953 1510.63 231.2 1510.63 226.32V154.87C1510.63 149.93 1511.75 146.21 1514 143.71C1515.09 142.48 1516.45 141.506 1517.96 140.858C1519.48 140.21 1521.11 139.903 1522.76 139.96C1524.42 139.914 1526.08 140.224 1527.61 140.871C1529.14 141.518 1530.52 142.486 1531.65 143.71C1533.99 146.217 1535.16 149.697 1535.15 154.15Z" fill="black"/>
<path d="M1561.84 142.16H1564.51V127.16C1564.51 123.16 1564.62 120.003 1564.83 117.69C1564.97 115.619 1565.57 113.605 1566.58 111.79C1567.56 110.062 1568.99 108.626 1570.71 107.63C1572.53 106.559 1574.6 106.005 1576.71 106.03C1579.89 106.054 1582.93 107.338 1585.16 109.6C1586.82 111.146 1587.93 113.183 1588.34 115.41C1588.86 118.629 1589.09 121.889 1589.02 125.15V142.15H1598.02C1601.5 142.15 1604.17 142.99 1606.02 144.67C1606.92 145.483 1607.63 146.481 1608.1 147.594C1608.57 148.708 1608.8 149.911 1608.76 151.12C1608.76 154.453 1607.46 156.787 1604.86 158.12C1602.26 159.453 1598.53 160.12 1593.67 160.12H1589.09V206.05C1589.05 209.055 1589.18 212.061 1589.49 215.05C1589.67 216.938 1590.42 218.725 1591.65 220.17C1592.82 221.503 1594.72 222.17 1597.35 222.17C1599.32 222.103 1601.27 221.842 1603.19 221.39C1605.08 220.944 1607 220.683 1608.94 220.61C1609.95 220.624 1610.95 220.847 1611.87 221.266C1612.79 221.684 1613.61 222.288 1614.29 223.04C1615.07 223.827 1615.69 224.764 1616.1 225.796C1616.51 226.827 1616.7 227.931 1616.67 229.04C1616.67 233.04 1614.51 236.12 1610.2 238.28C1605.89 240.44 1599.69 241.507 1591.6 241.48C1583.94 241.48 1578.13 240.17 1574.17 237.55C1570.3 235.033 1567.52 231.142 1566.4 226.66C1565.18 222.033 1564.57 215.843 1564.56 208.09V160.18H1561.33C1557.79 160.18 1555.1 159.33 1553.24 157.62C1552.33 156.804 1551.62 155.802 1551.14 154.681C1550.66 153.56 1550.43 152.349 1550.46 151.13C1550.43 149.904 1550.68 148.688 1551.18 147.571C1551.69 146.454 1552.44 145.465 1553.38 144.68C1555.3 143 1558.12 142.16 1561.84 142.16Z" fill="black"/>
<path d="M1694.08 196.87H1646.08C1646.03 202.063 1647.18 207.197 1649.45 211.87C1651.36 215.896 1654.38 219.292 1658.16 221.66C1661.78 223.849 1665.93 224.989 1670.16 224.95C1672.86 224.974 1675.56 224.621 1678.16 223.9C1680.64 223.156 1683 222.047 1685.16 220.61C1687.37 219.159 1689.47 217.552 1691.45 215.8C1693.36 214.1 1695.85 211.767 1698.91 208.8C1700.44 207.608 1702.36 207.02 1704.3 207.15C1706.53 207.054 1708.71 207.808 1710.41 209.26C1711.21 210.023 1711.83 210.951 1712.23 211.978C1712.63 213.006 1712.81 214.109 1712.74 215.21C1712.56 218.025 1711.67 220.749 1710.14 223.12C1708.09 226.487 1705.42 229.436 1702.27 231.81C1698.29 234.838 1693.83 237.171 1689.07 238.71C1683.17 240.634 1676.99 241.563 1670.78 241.46C1655.03 241.46 1642.79 236.887 1634.04 227.74C1625.29 218.593 1620.92 206.183 1620.92 190.51C1620.85 183.531 1621.95 176.59 1624.16 169.97C1626.14 163.96 1629.35 158.428 1633.59 153.73C1637.82 149.15 1643.04 145.6 1648.86 143.35C1655.28 140.875 1662.11 139.65 1668.99 139.74C1678.57 139.74 1686.79 141.797 1693.65 145.91C1700.18 149.697 1705.52 155.24 1709.06 161.91C1712.37 168.042 1714.13 174.892 1714.18 181.86C1714.18 188.14 1712.41 192.21 1708.88 194.07C1705.35 195.93 1700.41 196.863 1694.08 196.87ZM1646.08 182.69H1690.55C1689.95 174.15 1687.69 167.76 1683.77 163.52C1679.85 159.28 1674.68 157.163 1668.27 157.17C1665.45 157.094 1662.65 157.632 1660.06 158.746C1657.47 159.859 1655.15 161.522 1653.27 163.62C1649.34 167.913 1646.95 174.27 1646.11 182.69H1646.08Z" fill="black"/>
<path d="M1759.31 205.47V226.32C1759.31 231.394 1758.14 235.19 1755.81 237.71C1754.69 238.946 1753.31 239.926 1751.77 240.582C1750.24 241.238 1748.58 241.554 1746.91 241.51C1745.26 241.554 1743.63 241.232 1742.12 240.568C1740.62 239.904 1739.28 238.915 1738.2 237.67C1735.92 235.11 1734.78 231.327 1734.78 226.32V156.8C1734.78 145.58 1738.78 139.97 1746.78 139.97C1750.85 139.97 1753.78 141.28 1755.59 143.9C1757.4 146.52 1758.4 150.394 1758.59 155.52C1760.91 151.165 1763.95 147.236 1767.59 143.9C1770.67 141.28 1774.79 139.97 1779.94 139.97C1785.19 139.998 1790.35 141.35 1794.94 143.9C1799.79 146.527 1802.21 150.004 1802.21 154.33C1802.25 155.736 1802 157.135 1801.47 158.436C1800.93 159.737 1800.13 160.91 1799.11 161.88C1798.25 162.798 1797.21 163.536 1796.07 164.051C1794.92 164.566 1793.68 164.848 1792.42 164.88C1790.19 164.562 1788.01 163.995 1785.91 163.19C1782.98 162.154 1779.9 161.584 1776.79 161.5C1773.6 161.366 1770.47 162.388 1767.98 164.38C1765.46 166.689 1763.63 169.647 1762.68 172.93C1761.31 177.315 1760.44 181.84 1760.08 186.42C1759.57 191.62 1759.31 197.97 1759.31 205.47Z" fill="black"/>
<path d="M0 162.37V159.31L136.62 21.71H143.95V94.38H286.14L143.07 200.18V302.6H138.36L0 162.37Z" fill="#8C8DFD"/>
<path d="M369.16 120.95V19.21H375.59L515.28 159.31V164.98L375.59 304.91H369.16V230.84H229.37V226.06L369.16 120.95Z" fill="#4E529B"/>
<path d="M624.006 242.417C622.457 247.175 620.853 250.466 619.194 252.289C617.626 254.102 615.612 255.132 613.151 255.378C610.599 255.634 608.27 254.9 606.165 253.177C604.068 251.546 602.888 249.408 602.624 246.765C602.551 246.036 602.601 245.156 602.774 244.126C602.956 243.188 603.221 242.149 603.567 241.009L670.491 48.5913C672.295 43.6239 673.982 40.2332 675.549 38.4194C677.108 36.5145 679.118 35.439 681.579 35.1929C684.313 34.9194 686.728 35.5985 688.825 37.23C690.921 38.8615 692.097 40.9533 692.352 43.5054C692.425 44.2345 692.37 45.0685 692.188 46.0073C692.097 46.937 691.864 47.8348 691.491 48.7007L624.006 242.417Z" fill="#E6E6E8"/>
</g>
<defs>
<linearGradient id="paint0_linear_41757_5070" x1="913.5" y1="95.6202" x2="1008.26" y2="193.6" gradientUnits="userSpaceOnUse">
<stop stop-color="#EF2F2D"/>
<stop offset="1" stop-color="#89272D"/>
</linearGradient>
<linearGradient id="paint1_linear_41757_5070" x1="818.32" y1="133.17" x2="1140.6" y2="219.56" gradientUnits="userSpaceOnUse">
<stop stop-color="#434344"/>
<stop offset="0.29" stop-color="#404041"/>
<stop offset="0.51" stop-color="#363637"/>
<stop offset="0.71" stop-color="#262627"/>
<stop offset="0.9" stop-color="#0F0F0F"/>
<stop offset="1"/>
</linearGradient>
<clipPath id="clip0_41757_5070">
<rect width="1802.16" height="384.32" fill="white"/>
</clipPath>
</defs>
</svg>
