<svg width="1133" height="385" viewBox="0 0 1133 385" fill="none" xmlns="http://www.w3.org/2000/svg">
<g clip-path="url(#clip0_41757_5095)">
<path d="M1015.14 122.78C1015.81 139.12 1018.09 166.78 1019.26 180.36C1019.34 181.35 1019.21 182.346 1018.88 183.282C1018.55 184.218 1018.02 185.072 1017.33 185.788C1016.64 186.505 1015.81 187.066 1014.88 187.435C1013.96 187.804 1012.97 187.973 1011.98 187.93C1001.98 187.46 983.23 186.75 960.87 186.65C939.06 186.55 921.01 187.15 911.24 187.57C910.252 187.608 909.266 187.437 908.349 187.067C907.432 186.697 906.604 186.137 905.919 185.423C905.234 184.71 904.708 183.86 904.375 182.928C904.043 181.997 903.911 181.006 903.99 180.02C905.1 166.56 907.27 139.11 907.94 122.78C908.423 108.91 914.29 95.7742 924.297 86.158C934.303 76.5417 947.662 71.2015 961.54 71.2697C975.418 71.2015 988.776 76.5417 998.783 86.158C1008.79 95.7742 1014.66 108.91 1015.14 122.78ZM961.46 96.7797C955.23 96.7797 949.14 98.6271 943.959 102.088C938.779 105.55 934.742 110.469 932.358 116.225C929.973 121.981 929.35 128.315 930.565 134.425C931.781 140.535 934.781 146.148 939.186 150.554C943.591 154.959 949.204 157.959 955.314 159.174C961.425 160.39 967.758 159.766 973.514 157.382C979.27 154.998 984.19 150.96 987.651 145.78C991.112 140.6 992.96 134.51 992.96 128.28C992.96 124.143 992.145 120.047 990.562 116.225C988.979 112.403 986.659 108.931 983.734 106.006C980.809 103.081 977.336 100.761 973.514 99.1775C969.693 97.5945 965.597 96.7797 961.46 96.7797Z" fill="url(#paint0_linear_41757_5095)"/>
<path d="M962.01 110.21C963.842 112.306 964.852 114.996 964.85 117.78C964.819 119.37 964.474 120.939 963.837 122.396C963.199 123.854 962.281 125.171 961.134 126.273C959.987 127.376 958.634 128.241 957.153 128.821C955.671 129.4 954.09 129.682 952.5 129.65C950.66 129.661 948.84 129.266 947.171 128.494C945.501 127.721 944.022 126.59 942.84 125.18C942.623 126.294 942.513 127.425 942.51 128.56C942.51 138.7 951.06 146.92 961.62 146.92C972.18 146.92 980.73 138.7 980.73 128.56C980.73 118.42 972.4 110.37 962.01 110.21Z" fill="#2D2F31"/>
<path d="M990.26 91.1699C990.017 91.1847 989.774 91.151 989.544 91.0707C989.315 90.9904 989.103 90.8651 988.923 90.7021C988.742 90.5392 988.596 90.3419 988.492 90.1217C988.389 89.9015 988.33 89.663 988.32 89.4199C988.16 85.3199 988.89 76.9199 999.52 67.7499C1006.83 61.4399 1017.03 59.1599 1029.85 60.9599C1030.09 60.9949 1030.33 61.0787 1030.54 61.2063C1030.75 61.3339 1030.93 61.5026 1031.08 61.7024C1031.22 61.9022 1031.32 62.1289 1031.38 62.3691C1031.43 62.6092 1031.43 62.8578 1031.39 63.0999C1031.31 63.5641 1031.05 63.9779 1030.66 64.254C1030.28 64.5301 1029.81 64.6469 1029.34 64.5799C1017.68 62.9299 1008.51 64.9099 1002.07 70.4499C992.84 78.4499 992.07 85.6199 992.07 89.2999C992.084 89.7717 991.913 90.2302 991.593 90.5776C991.274 90.9251 990.831 91.134 990.36 91.1599L990.26 91.1699Z" fill="#2D2F31"/>
<path d="M1027.24 66.4798C1030.17 66.4798 1032.55 64.1919 1032.55 61.3698C1032.55 58.5476 1030.17 56.2598 1027.24 56.2598C1024.31 56.2598 1021.93 58.5476 1021.93 61.3698C1021.93 64.1919 1024.31 66.4798 1027.24 66.4798Z" fill="#2D2F31"/>
<path d="M934.76 91.5099C935.002 91.5261 935.246 91.4937 935.475 91.4145C935.705 91.3353 935.916 91.211 936.097 91.0489C936.278 90.8867 936.424 90.69 936.528 90.4704C936.631 90.2507 936.69 90.0126 936.7 89.7699C936.87 85.5699 936.17 75.9999 925.5 66.7699C918.19 60.4599 908 58.1799 895.18 59.9799C894.936 60.0137 894.7 60.0966 894.489 60.2237C894.277 60.3507 894.093 60.5193 893.948 60.7192C893.804 60.9191 893.701 61.1463 893.646 61.387C893.591 61.6277 893.586 61.877 893.63 62.1199C893.713 62.5744 893.966 62.9802 894.338 63.255C894.709 63.5299 895.171 63.6532 895.63 63.5999C907.29 61.9499 916.46 63.9299 922.9 69.4699C932.17 77.4699 932.96 85.8099 932.85 89.5899C932.836 90.0637 933.007 90.5245 933.326 90.8751C933.644 91.2258 934.087 91.439 934.56 91.4699L934.76 91.5099Z" fill="#2D2F31"/>
<path d="M898.54 66.4798C901.473 66.4798 903.85 64.1919 903.85 61.3698C903.85 58.5476 901.473 56.2598 898.54 56.2598C895.607 56.2598 893.23 58.5476 893.23 61.3698C893.23 64.1919 895.607 66.4798 898.54 66.4798Z" fill="#2D2F31"/>
<path d="M1132.3 252.75C1132.3 236.18 1090.79 209.86 1090.79 209.86L1090.32 209.72C1097.15 182.04 1100.67 169.72 1101.13 151.72C1102.13 110.61 1091.75 75.8102 1065.7 45.3002C1041.47 16.9302 1002.9 0.470215 961.7 0.470215C917.91 0.470215 884.15 17.1602 859.11 44.8102C834.07 72.4602 821.5 102.42 822.25 151.23C822.45 164.89 825.56 187.82 832.25 208.38L831.78 208.52C831.78 208.52 791.01 234.37 791.01 252.26C791.01 257.55 813.01 264.26 858.39 266.39L833.08 304.31C832.08 307.54 832.71 311.98 835.42 313.88C838.088 315.639 841.141 316.726 844.32 317.05C849.14 317.19 850.63 315.8 852.4 312.61L877.83 268.37C904.83 269.44 922 270.01 952.89 270.07V320.7C953.07 323.75 954.36 329.32 962.55 329.32C970 329.32 971.27 324.1 971.27 320.7V270.1C1002.13 270.04 1018.9 270.45 1045.85 269.39L1072.48 312.12C1072.96 313.5 1073.88 314.683 1075.1 315.487C1076.32 316.291 1077.77 316.672 1079.23 316.57C1081.83 316.607 1084.39 315.915 1086.62 314.57C1089.62 313.23 1089.62 308.3 1088.4 303.83L1063.34 267.37C1107.13 263.73 1132.3 257 1132.3 252.75ZM869.48 247.89C865.405 247.827 861.522 246.148 858.685 243.223C855.848 240.297 854.288 236.365 854.35 232.29C854.35 223.67 861.12 217.66 869.48 217.66C877.84 217.66 884.61 223.66 884.61 232.29C884.671 236.365 883.112 240.297 880.275 243.223C877.437 246.148 873.555 247.827 869.48 247.89ZM961.66 248.75C958.553 248.846 955.489 248.012 952.859 246.355C950.23 244.699 948.154 242.295 946.899 239.452C945.644 236.609 945.266 233.455 945.814 230.396C946.362 227.337 947.811 224.511 949.974 222.28C952.138 220.049 954.919 218.514 957.96 217.873C961.001 217.232 964.164 217.513 967.044 218.681C969.924 219.849 972.391 221.849 974.127 224.427C975.863 227.005 976.79 230.042 976.79 233.15C976.851 237.225 975.292 241.157 972.455 244.083C969.617 247.008 965.735 248.687 961.66 248.75ZM1053.84 249.62C1050.73 249.716 1047.67 248.882 1045.04 247.225C1042.41 245.569 1040.33 243.165 1039.08 240.322C1037.82 237.479 1037.45 234.325 1037.99 231.266C1038.54 228.207 1039.99 225.381 1042.15 223.15C1044.32 220.919 1047.1 219.384 1050.14 218.743C1053.18 218.102 1056.34 218.383 1059.22 219.551C1062.1 220.719 1064.57 222.719 1066.31 225.297C1068.04 227.875 1068.97 230.912 1068.97 234.02C1069.03 238.095 1067.47 242.027 1064.63 244.953C1061.8 247.878 1057.91 249.557 1053.84 249.62ZM1077.05 204.02C1047.79 196.57 1004.49 196.94 961.66 196.94C918.83 196.94 878.66 195.63 846.1 204.02C841.23 184.45 837.41 164.92 836.92 149.79C834.65 79.4702 882.15 12.7902 961.66 12.7902C1041.17 12.7902 1090.25 79.5202 1087.22 149.79C1086.26 171.91 1080.09 192.16 1077.01 204.02H1077.05Z" fill="url(#paint1_linear_41757_5095)"/>
<path d="M0.5 162.87V159.81L137.12 22.21H144.45V94.88H286.64L143.57 200.68V303.1H138.86L0.5 162.87Z" fill="#8C8DFD"/>
<path d="M369.66 121.45V19.71H376.09L515.78 159.81V165.48L376.09 305.41H369.66V231.34H229.87V226.56L369.66 121.45Z" fill="#4E529B"/>
<path d="M624.506 242.917C622.957 247.675 621.353 250.966 619.694 252.789C618.126 254.602 616.112 255.632 613.651 255.878C611.099 256.134 608.77 255.4 606.665 253.677C604.568 252.046 603.388 249.908 603.124 247.265C603.051 246.536 603.101 245.656 603.274 244.626C603.456 243.688 603.721 242.649 604.067 241.509L670.991 49.0913C672.795 44.1239 674.482 40.7332 676.049 38.9194C677.608 37.0145 679.618 35.939 682.079 35.6929C684.813 35.4194 687.228 36.0985 689.325 37.73C691.421 39.3615 692.597 41.4533 692.852 44.0054C692.925 44.7345 692.87 45.5685 692.688 46.5073C692.597 47.437 692.364 48.3348 691.991 49.2007L624.506 242.917Z" fill="#E6E6E8"/>
</g>
<defs>
<linearGradient id="paint0_linear_41757_5095" x1="914" y1="96.1197" x2="1008.76" y2="194.1" gradientUnits="userSpaceOnUse">
<stop stop-color="#EF2F2D"/>
<stop offset="1" stop-color="#89272D"/>
</linearGradient>
<linearGradient id="paint1_linear_41757_5095" x1="818.82" y1="133.67" x2="1141.1" y2="220.06" gradientUnits="userSpaceOnUse">
<stop stop-color="#434344"/>
<stop offset="0.29" stop-color="#404041"/>
<stop offset="0.51" stop-color="#363637"/>
<stop offset="0.71" stop-color="#262627"/>
<stop offset="0.9" stop-color="#0F0F0F"/>
<stop offset="1"/>
</linearGradient>
<clipPath id="clip0_41757_5095">
<rect width="1131.8" height="384.32" fill="white" transform="translate(0.5 0.5)"/>
</clipPath>
</defs>
</svg>
