<svg xmlns="http://www.w3.org/2000/svg" xmlns:xlink="http://www.w3.org/1999/xlink" viewBox="0 0 1131.8 384.32"><defs><style>.cls-1{fill:url(#未命名的渐变_48);}.cls-2{fill:#2d2f31;}.cls-3{fill:url(#未命名的渐变_57);}.cls-4{fill:#8c8dfd;}.cls-5{fill:#4e529b;}.cls-6{font-size:280px;fill:#e6e6e8;font-family:Courier;}</style><linearGradient id="未命名的渐变_48" x1="946.99" y1="106.75" x2="1041.75" y2="204.73" gradientUnits="userSpaceOnUse"><stop offset="0" stop-color="#ef2f2d"/><stop offset="1" stop-color="#89272d"/></linearGradient><linearGradient id="未命名的渐变_57" x1="851.81" y1="144.3" x2="1174.09" y2="230.69" gradientUnits="userSpaceOnUse"><stop offset="0" stop-color="#434344"/><stop offset="0.29" stop-color="#404041"/><stop offset="0.51" stop-color="#363637"/><stop offset="0.71" stop-color="#262627"/><stop offset="0.9" stop-color="#0f0f0f"/><stop offset="1"/></linearGradient></defs><title>orbiter_zks_mobile</title><g id="orbiter_logo" data-name="orbiter logo"><g id="icon"><path class="cls-1" d="M1048.13,133.41c.67,16.34,2.95,44,4.12,57.58a7,7,0,0,1-7.28,7.57c-10-.47-28.75-1.18-51.11-1.28-21.81-.1-39.86.5-49.63.92a7,7,0,0,1-7.25-7.55c1.11-13.46,3.28-40.91,3.95-57.24a53.37,53.37,0,0,1,53.6-51.51h0A53.37,53.37,0,0,1,1048.13,133.41Zm-53.68-26a31.5,31.5,0,1,0,31.5,31.5A31.5,31.5,0,0,0,994.45,107.41Z" transform="translate(-33.49 -11.13)"/><path class="cls-2" d="M995,120.84a11.49,11.49,0,0,1,2.84,7.57,12.11,12.11,0,0,1-12.35,11.87,12.51,12.51,0,0,1-9.66-4.47,17.93,17.93,0,0,0-.33,3.38c0,10.14,8.55,18.36,19.11,18.36s19.11-8.22,19.11-18.36S1005.39,121,995,120.84Z" transform="translate(-33.49 -11.13)"/><path class="cls-2" d="M1023.25,101.8a1.83,1.83,0,0,1-1.94-1.75c-.16-4.1.57-12.5,11.2-21.67,7.31-6.31,17.51-8.59,30.33-6.79a1.83,1.83,0,0,1,1.54,2.14h0a1.82,1.82,0,0,1-2.05,1.48c-11.66-1.65-20.83.33-27.27,5.87-9.23,8-10,15.17-10,18.85a1.81,1.81,0,0,1-1.71,1.86Z" transform="translate(-33.49 -11.13)"/><ellipse class="cls-2" cx="1026.74" cy="60.87" rx="5.31" ry="5.11"/><path class="cls-2" d="M967.75,102.14a1.82,1.82,0,0,0,1.94-1.74c.17-4.2-.53-13.77-11.2-23-7.31-6.31-17.5-8.59-30.32-6.79a1.83,1.83,0,0,0-1.55,2.14h0a1.82,1.82,0,0,0,2,1.48c11.66-1.65,20.83.33,27.27,5.87,9.27,8,10.06,16.34,9.95,20.12a1.83,1.83,0,0,0,1.71,1.88Z" transform="translate(-33.49 -11.13)"/><ellipse class="cls-2" cx="898.04" cy="60.87" rx="5.31" ry="5.11"/></g><g id="orbiter"><g id="orbiter-2" data-name="orbiter"><path id="Compound_Path" data-name="Compound Path" class="cls-3" d="M1165.29,263.38c0-16.57-41.51-42.89-41.51-42.89l-.47-.14c6.83-27.68,10.35-40,10.81-58,1-41.11-9.38-75.91-35.43-106.42-24.23-28.37-62.8-44.83-104-44.83-43.79,0-77.55,16.69-102.59,44.34s-37.61,57.61-36.86,106.42c.2,13.66,3.31,36.59,10,57.15l-.47.14S824,245,824,262.89c0,5.29,22,12,67.38,14.13l-25.31,37.92c-1,3.23-.37,7.67,2.34,9.57a19.82,19.82,0,0,0,8.9,3.17c4.82.14,6.31-1.25,8.08-4.44L910.82,279c27,1.07,44.17,1.64,75.06,1.7v50.63c.18,3.05,1.47,8.62,9.66,8.62,7.45,0,8.72-5.22,8.72-8.62V280.73c30.86-.06,47.63.35,74.58-.71l26.63,42.73a6.66,6.66,0,0,0,6.75,4.45,13.92,13.92,0,0,0,7.39-2c3-1.34,3-6.27,1.78-10.74L1096.33,278C1140.12,274.36,1165.29,267.63,1165.29,263.38Zm-262.82-4.86a15.37,15.37,0,0,1-15.13-15.6c0-8.62,6.77-14.63,15.13-14.63s15.13,6,15.13,14.63A15.37,15.37,0,0,1,902.47,258.52Zm92.18.86a15.61,15.61,0,1,1,15.13-15.6A15.37,15.37,0,0,1,994.65,259.38Zm92.18.87a15.61,15.61,0,1,1,15.13-15.6A15.37,15.37,0,0,1,1086.83,260.25Zm23.21-45.6c-29.26-7.45-72.56-7.08-115.39-7.08s-83-1.31-115.56,7.08c-4.87-19.57-8.69-39.1-9.18-54.23-2.27-70.32,45.23-137,124.74-137s128.59,66.73,125.56,137C1119.25,182.54,1113.08,202.79,1110,214.65Z" transform="translate(-33.49 -11.13)"/></g></g></g><g id="图层_3" data-name="图层 3"><polygon class="cls-4" points="0 162.37 0 159.31 136.62 21.71 143.95 21.71 143.95 94.38 286.14 94.38 143.07 200.18 143.07 302.6 138.36 302.6 0 162.37"/><g id="图层_6" data-name="图层 6"><polygon class="cls-5" points="369.16 120.95 369.16 19.21 375.59 19.21 515.28 159.31 515.28 164.98 375.59 304.91 369.16 304.91 369.16 230.84 229.37 230.84 229.37 226.06 369.16 120.95"/><text class="cls-6" transform="matrix(1, -0.1, 0.1, 1, 573.08, 270.31)">/</text></g></g></svg>