<svg xmlns="http://www.w3.org/2000/svg" width="48" height="48" viewBox="0 0 48 48" fill="none">
<rect width="48" height="48" rx="12" fill="#AB9FEE"/>
<path d="M6 34.219C6 38.105 8.065 39 10.213 39C14.757 39 18.173 35.002 20.21 31.843C19.962 32.541 19.824 33.24 19.824 33.912C19.824 35.757 20.871 37.071 22.936 37.071C25.773 37.071 28.802 34.554 30.372 31.842C30.262 32.234 30.207 32.597 30.207 32.932C30.207 34.219 30.923 35.03 32.382 35.03C36.982 35.03 41.608 26.782 41.608 19.568C41.608 13.948 38.798 9 31.748 9C19.357 9 6 24.322 6 34.219ZM27.48 18.953C27.48 17.555 28.251 16.577 29.38 16.577C30.482 16.577 31.253 17.555 31.253 18.953C31.253 20.351 30.483 21.358 29.381 21.358C28.251 21.358 27.481 20.351 27.481 18.953H27.48ZM33.374 18.953C33.374 17.555 34.144 16.577 35.274 16.577C36.375 16.577 37.146 17.555 37.146 18.953C37.146 20.351 36.376 21.358 35.274 21.358C34.144 21.358 33.374 20.351 33.374 18.953Z" fill="white"/>
</svg>