<svg width="15" height="15" viewBox="0 0 15 15" fill="none" xmlns="http://www.w3.org/2000/svg">
<path d="M4.825 1.69C4.825 1.30892 5.1412 1 5.53125 1H9.76875C10.1588 1 10.475 1.30892 10.475 1.69H11.8875C12.6676 1.69 13.3 2.30785 13.3 3.07V13.42C13.3 14.1822 12.6676 14.8 11.8875 14.8H3.4125C2.6324 14.8 2 14.1822 2 13.42V3.07C2 2.30785 2.6324 1.69 3.4125 1.69H4.825ZM4.825 3.07H3.4125V13.42H11.8875V3.07H10.475V3.76C10.475 4.14108 10.1588 4.45 9.76875 4.45H5.53125C5.1412 4.45 4.825 4.14108 4.825 3.76V3.07ZM9.0625 2.38H6.2375V3.07H9.0625V2.38ZM10.2681 7.0671C10.544 7.33656 10.544 7.77344 10.2681 8.0429L7.44314 10.8029C7.16734 11.0724 6.72016 11.0724 6.44436 10.8029L5.03186 9.4229C4.75605 9.15344 4.75605 8.71656 5.03186 8.4471C5.30766 8.17763 5.75484 8.17763 6.03064 8.4471L6.94375 9.33919L9.26936 7.0671C9.54516 6.79763 9.99234 6.79763 10.2681 7.0671Z" fill="#18191F" fill-opacity="0.7"/>
</svg>
