<svg width="14" height="14" viewBox="0 0 14 14" fill="none" xmlns="http://www.w3.org/2000/svg">
<path d="M6.75 6.75C6.3859 6.75 6.02998 6.86876 5.72725 7.09127C5.42451 7.31378 5.18856 7.63005 5.04922 8.00007C4.90989 8.37009 4.87343 8.77725 4.94446 9.17006C5.0155 9.56287 5.19082 9.92369 5.44828 10.2069C5.70574 10.4901 6.03376 10.683 6.39086 10.7611C6.74796 10.8392 7.1181 10.7991 7.45449 10.6459C7.79087 10.4926 8.07838 10.233 8.28066 9.90003C8.48294 9.56702 8.59091 9.17551 8.59091 8.775C8.59091 8.23794 8.39696 7.72287 8.05172 7.34311C7.70648 6.96335 7.23824 6.75 6.75 6.75ZM6.75 9.45C6.62863 9.45 6.50999 9.41041 6.40908 9.33624C6.30817 9.26207 6.22952 9.15665 6.18307 9.03331C6.13663 8.90997 6.12448 8.77425 6.14815 8.64331C6.17183 8.51238 6.23028 8.3921 6.31609 8.2977C6.40191 8.2033 6.51125 8.13902 6.63029 8.11297C6.74932 8.08693 6.8727 8.10029 6.98483 8.15138C7.09696 8.20247 7.19279 8.28899 7.26022 8.39999C7.32765 8.51099 7.36364 8.6415 7.36364 8.775C7.36364 8.95402 7.29899 9.12571 7.18391 9.2523C7.06883 9.37888 6.91275 9.45 6.75 9.45ZM6.31432 5.20425C6.37268 5.2657 6.44149 5.31387 6.51682 5.346C6.59027 5.38171 6.66969 5.40016 6.75 5.40016C6.83031 5.40016 6.90973 5.38171 6.98318 5.346C7.05851 5.31387 7.12732 5.2657 7.18568 5.20425L8.59091 3.6855C8.70971 3.55481 8.77646 3.37757 8.77646 3.19275C8.77646 3.00793 8.70971 2.83069 8.59091 2.7C8.4721 2.56931 8.31097 2.4959 8.14295 2.4959C7.97494 2.4959 7.81381 2.56931 7.695 2.7L7.36364 3.09825V0.675C7.36364 0.495979 7.29899 0.32429 7.18391 0.197703C7.06883 0.0711159 6.91275 0 6.75 0C6.58725 0 6.43117 0.0711159 6.31609 0.197703C6.20101 0.32429 6.13636 0.495979 6.13636 0.675V3.09825L5.805 2.7C5.6862 2.56931 5.52506 2.4959 5.35705 2.4959C5.18903 2.4959 5.0279 2.56931 4.90909 2.7C4.79029 2.83069 4.72354 3.00793 4.72354 3.19275C4.72354 3.37757 4.79029 3.55481 4.90909 3.6855L6.31432 5.20425ZM11.0455 8.775C11.0455 8.6415 11.0095 8.51099 10.942 8.39999C10.8746 8.28899 10.7788 8.20247 10.6666 8.15138C10.5545 8.10029 10.4311 8.08693 10.3121 8.11297C10.1931 8.13902 10.0837 8.2033 9.99791 8.2977C9.91209 8.3921 9.85365 8.51238 9.82997 8.64331C9.8063 8.77425 9.81845 8.90997 9.86489 9.03331C9.91134 9.15665 9.98999 9.26207 10.0909 9.33624C10.1918 9.41041 10.3105 9.45 10.4318 9.45C10.5946 9.45 10.7506 9.37888 10.8657 9.2523C10.9808 9.12571 11.0455 8.95402 11.0455 8.775ZM11.6591 4.05H9.81818C9.65544 4.05 9.49935 4.12112 9.38428 4.2477C9.2692 4.37429 9.20455 4.54598 9.20455 4.725C9.20455 4.90402 9.2692 5.07571 9.38428 5.2023C9.49935 5.32888 9.65544 5.4 9.81818 5.4H11.6591C11.8218 5.4 11.9779 5.47112 12.093 5.5977C12.2081 5.72429 12.2727 5.89598 12.2727 6.075V11.475C12.2727 11.654 12.2081 11.8257 12.093 11.9523C11.9779 12.0789 11.8218 12.15 11.6591 12.15H1.84091C1.67816 12.15 1.52208 12.0789 1.407 11.9523C1.29192 11.8257 1.22727 11.654 1.22727 11.475V6.075C1.22727 5.89598 1.29192 5.72429 1.407 5.5977C1.52208 5.47112 1.67816 5.4 1.84091 5.4H3.68182C3.84456 5.4 4.00065 5.32888 4.11572 5.2023C4.2308 5.07571 4.29545 4.90402 4.29545 4.725C4.29545 4.54598 4.2308 4.37429 4.11572 4.2477C4.00065 4.12112 3.84456 4.05 3.68182 4.05H1.84091C1.35267 4.05 0.884427 4.26335 0.53919 4.64311C0.193952 5.02287 0 5.53794 0 6.075V11.475C0 12.0121 0.193952 12.5271 0.53919 12.9069C0.884427 13.2867 1.35267 13.5 1.84091 13.5H11.6591C12.1473 13.5 12.6156 13.2867 12.9608 12.9069C13.306 12.5271 13.5 12.0121 13.5 11.475V6.075C13.5 5.53794 13.306 5.02287 12.9608 4.64311C12.6156 4.26335 12.1473 4.05 11.6591 4.05ZM2.45455 8.775C2.45455 8.9085 2.49053 9.03901 2.55796 9.15001C2.62539 9.26101 2.72123 9.34753 2.83335 9.39862C2.94548 9.44971 3.06886 9.46307 3.1879 9.43703C3.30693 9.41098 3.41627 9.3467 3.50209 9.2523C3.58791 9.1579 3.64635 9.03762 3.67003 8.90669C3.6937 8.77575 3.68155 8.64003 3.63511 8.51669C3.58866 8.39335 3.51001 8.28793 3.4091 8.21376C3.30819 8.13959 3.18955 8.1 3.06818 8.1C2.90544 8.1 2.74935 8.17112 2.63428 8.2977C2.5192 8.42429 2.45455 8.59598 2.45455 8.775Z" fill="#18191F"/>
</svg>
