<svg width="12" height="12" viewBox="0 0 12 12" fill="none" xmlns="http://www.w3.org/2000/svg">
<path d="M0.814077 7.57096C0.56278 7.80512 0.361221 8.0875 0.221424 8.40125C0.0816277 8.715 0.0064575 9.05369 0.000398059 9.39712C-0.00566138 9.74055 0.057514 10.0817 0.186156 10.4002C0.314797 10.7187 0.506269 11.008 0.74915 11.2509C0.99203 11.4937 1.28134 11.6852 1.59983 11.8138C1.91831 11.9425 2.25945 12.0057 2.60288 11.9996C2.94631 11.9935 3.285 11.9184 3.59875 11.7786C3.9125 11.6388 4.19488 11.4372 4.42904 11.1859C4.90802 10.7063 5.17706 10.0562 5.17706 9.37844C5.17706 8.70063 4.90802 8.05054 4.42904 7.57096C3.94112 7.108 3.29416 6.84991 2.62156 6.84991C1.94896 6.84991 1.30199 7.108 0.814077 7.57096ZM3.22689 9.98378C3.14764 10.0637 3.05334 10.1271 2.94944 10.1704C2.84555 10.2137 2.73411 10.236 2.62156 10.236C2.50901 10.236 2.39757 10.2137 2.29367 10.1704C2.18978 10.1271 2.09548 10.0637 2.01622 9.98378C1.93631 9.90452 1.87288 9.81022 1.8296 9.70633C1.78631 9.60243 1.76403 9.49099 1.76403 9.37844C1.76403 9.26589 1.78631 9.15445 1.8296 9.05056C1.87288 8.94666 1.93631 8.85237 2.01622 8.77311C2.09548 8.6932 2.18978 8.62977 2.29367 8.58648C2.39757 8.5432 2.50901 8.52091 2.62156 8.52091C2.73411 8.52091 2.84555 8.5432 2.94944 8.58648C3.05334 8.62977 3.14764 8.6932 3.22689 8.77311C3.30681 8.85237 3.37023 8.94666 3.41352 9.05056C3.4568 9.15445 3.47909 9.26589 3.47909 9.37844C3.47909 9.49099 3.4568 9.60243 3.41352 9.70633C3.37023 9.81022 3.30681 9.90452 3.22689 9.98378ZM2.62156 3.41034C2.39544 3.41034 2.17858 3.50017 2.01869 3.66006C1.8588 3.81995 1.76897 4.03681 1.76897 4.26293C1.76897 4.48905 1.8588 4.70591 2.01869 4.8658C2.17858 5.02569 2.39544 5.11551 2.62156 5.11551C3.75216 5.11551 4.83645 5.56464 5.6359 6.3641C6.43536 7.16355 6.88449 8.24784 6.88449 9.37844C6.88449 9.60456 6.97431 9.82142 7.1342 9.98131C7.29409 10.1412 7.51095 10.231 7.73707 10.231C7.96319 10.231 8.18005 10.1412 8.33994 9.98131C8.49983 9.82142 8.58966 9.60456 8.58966 9.37844C8.58966 7.7956 7.96088 6.27759 6.84164 5.15836C5.72241 4.03912 4.2044 3.41034 2.62156 3.41034ZM2.62156 0C2.39544 0 2.17858 0.0898259 2.01869 0.249717C1.8588 0.409608 1.76897 0.626466 1.76897 0.852586C1.76897 1.07871 1.8588 1.29556 2.01869 1.45545C2.17858 1.61535 2.39544 1.70517 2.62156 1.70517C4.65664 1.70517 6.60836 2.5136 8.04738 3.95262C9.4864 5.39164 10.2948 7.34336 10.2948 9.37844C10.2948 9.60456 10.3847 9.82142 10.5445 9.98131C10.7044 10.1412 10.9213 10.231 11.1474 10.231C11.3735 10.231 11.5904 10.1412 11.7503 9.98131C11.9102 9.82142 12 9.60456 12 9.37844C12 6.89112 11.0119 4.50568 9.25312 2.74688C7.49432 0.988083 5.10888 0 2.62156 0Z" fill="#18191F"/>
</svg>
