<svg width="14" height="14" viewBox="0 0 14 14" fill="none" xmlns="http://www.w3.org/2000/svg">
<path d="M13.4488 2.71291C13.4158 2.62445 13.367 2.54158 13.3023 2.46967L11.2773 0.21967C11.0137 -0.0732233 10.5863 -0.0732233 10.3227 0.21967C10.0591 0.512563 10.0591 0.987437 10.3227 1.28033L11.1954 2.25L8.95371 2.25C7.7682 2.25 6.66962 2.94112 6.05968 4.07064L3.58271 8.65761C3.21674 9.33533 2.55759 9.75 1.84629 9.75H0.675C0.302208 9.75 0 10.0858 0 10.5C0 10.9142 0.302208 11.25 0.675 11.25H1.84629C3.0318 11.25 4.13038 10.5589 4.74032 9.42936L7.21729 4.84238C7.58326 4.16467 8.24241 3.75 8.95371 3.75H11.1954L10.3227 4.71967C10.0591 5.01256 10.0591 5.48744 10.3227 5.78033C10.5863 6.07322 11.0137 6.07322 11.2773 5.78033L13.3018 3.5309C13.3034 3.52908 13.3051 3.52725 13.3067 3.52541C13.4356 3.3796 13.5 3.1898 13.5 3" fill="#18191F"/>
<path d="M13.4488 2.71291C13.4815 2.80069 13.4997 2.89688 13.5 2.99775L13.4488 2.71291Z" fill="#18191F"/>
<path d="M13.3016 11.031L11.2773 13.2803C11.0137 13.5732 10.5863 13.5732 10.3227 13.2803C10.0591 12.9874 10.0591 12.5126 10.3227 12.2197L11.1954 11.25H8.95371C7.7682 11.25 6.66962 10.5589 6.05968 9.42936L3.58271 4.84239C3.21675 4.16467 2.55759 3.75 1.84629 3.75H0.675C0.302208 3.75 3.21865e-07 3.41421 3.21865e-07 3C3.21865e-07 2.58579 0.302208 2.25 0.675 2.25H1.84629C3.0318 2.25 4.13038 2.94112 4.74033 4.07064L7.21729 8.65762C7.58326 9.33533 8.24241 9.75 8.95371 9.75H11.1954L10.3227 8.78033C10.0591 8.48744 10.0591 8.01256 10.3227 7.71967C10.5863 7.42678 11.0137 7.42678 11.2773 7.71967L13.3023 9.96967C13.4336 10.1155 13.4995 10.3066 13.5 10.4978L13.5 10.5C13.5 10.7075 13.4242 10.8953 13.3016 11.031Z" fill="#18191F"/>
</svg>
