<svg width="1200" height="1200" viewBox="0 0 1200 1200" fill="none" xmlns="http://www.w3.org/2000/svg">
<rect width="1200" height="1200" rx="600" fill="#4A21EF"/>
<path d="M554.602 260C534.15 260 514.535 268.125 500.073 282.587L272.906 509.759C264.302 518.363 260 529.641 260 540.918C260 552.195 264.302 563.473 272.906 572.077L421.776 720.947V457.393C421.776 437.724 437.596 421.779 457.264 421.779C540.36 421.779 742.628 421.779 770.217 421.779L931.993 260.002L554.602 260Z" fill="white"/>
<path d="M421.783 770.221H734.611C754.279 770.221 770.224 754.276 770.224 734.607V471.052L919.094 619.923C927.698 628.527 932 639.805 932 651.082C932 662.359 927.698 673.637 919.094 682.241L691.927 909.413C677.465 923.875 657.85 932 637.398 932L260.007 931.998L421.783 770.221Z" fill="white"/>
</svg>