<svg xmlns="http://www.w3.org/2000/svg" version="1.1" width="512" height="512">
<path d="M0 0 C1.53651001 -0.00300303 3.07301927 -0.00640812 4.60952759 -0.01017761 C8.73416537 -0.01890888 12.85878234 -0.02135117 16.98342848 -0.0219934 C19.57677004 -0.02271051 22.17010652 -0.02485721 24.76344681 -0.02749062 C33.85792621 -0.03671047 42.95239108 -0.04083003 52.046875 -0.04003906 C60.44685308 -0.03944027 68.84676653 -0.04996185 77.2467283 -0.06578273 C84.52043621 -0.07898086 91.79412333 -0.08421783 99.06784308 -0.08358365 C103.38438744 -0.08333209 107.70087433 -0.08598888 112.01740646 -0.0967617 C173.78737536 -0.24012898 225.70146941 8.12077728 271.53369141 52.45776367 C286.19413142 67.47992717 297.1501486 85.15153117 305.90869141 104.14526367 C306.72660156 105.89323242 306.72660156 105.89323242 307.56103516 107.67651367 C314.71201492 124.12558671 317.60543585 142.34353082 318.90869141 160.14526367 C319.03181686 161.82451903 319.03181686 161.82451903 319.1574297 163.53769875 C319.80783166 173.11042677 320.05777846 182.64203292 320.05395508 192.23657227 C320.05695811 193.77308227 320.0603632 195.30959154 320.06413269 196.84609985 C320.07286396 200.97073764 320.07530625 205.09535461 320.07594848 209.22000074 C320.07666559 211.81334231 320.07881229 214.40667879 320.08144569 217.00001907 C320.09066555 226.09449848 320.09478511 235.18896335 320.09399414 244.28344727 C320.09339534 252.68342534 320.10391693 261.0833388 320.1197378 269.48330057 C320.13293594 276.75700848 320.13817291 284.0306956 320.13753873 291.30441535 C320.13728717 295.6209597 320.13994396 299.93744659 320.15071678 304.25397873 C320.29408406 366.02394763 311.9331778 417.93804167 267.59619141 463.77026367 C252.57402791 478.43070369 234.90242391 489.38672086 215.90869141 498.14526367 C214.74337891 498.69053711 213.57806641 499.23581055 212.37744141 499.79760742 C195.92836837 506.94858718 177.71042426 509.84200811 159.90869141 511.14526367 C158.78918783 511.22734731 157.66968426 511.30943094 156.51625633 511.39400196 C146.94352831 512.04440393 137.41192216 512.29435072 127.81738281 512.29052734 C126.28087281 512.29353037 124.74436354 512.29693547 123.20785522 512.30070496 C119.08321744 512.30943622 114.95860047 512.31187851 110.83395433 512.31252074 C108.24061277 512.31323785 105.64727629 512.31538455 103.053936 512.31801796 C93.9594566 512.32723781 84.86499173 512.33135738 75.77050781 512.33056641 C67.37052973 512.32996761 58.97061628 512.34048919 50.57065451 512.35631007 C43.2969466 512.36950821 36.02325948 512.37474518 28.74953973 512.374111 C24.43299537 512.37385944 20.11650849 512.37651623 15.79997635 512.38728905 C-45.96999255 512.53065633 -97.88408659 504.16975006 -143.71630859 459.83276367 C-158.37674861 444.81060017 -169.33276579 427.13899617 -178.09130859 408.14526367 C-178.63658203 406.97995117 -179.18185547 405.81463867 -179.74365234 404.61401367 C-186.8946321 388.16494064 -189.78805304 369.94699652 -191.09130859 352.14526367 C-191.17339223 351.0257601 -191.25547586 349.90625652 -191.34004688 348.7528286 C-191.99044885 339.18010058 -192.24039564 329.64849442 -192.23657227 320.05395508 C-192.2395753 318.51744507 -192.24298039 316.98093581 -192.24674988 315.44442749 C-192.25548114 311.3197897 -192.25792343 307.19517274 -192.25856566 303.0705266 C-192.25928277 300.47718504 -192.26142947 297.88384856 -192.26406288 295.29050827 C-192.27328273 286.19602887 -192.2774023 277.101564 -192.27661133 268.00708008 C-192.27601253 259.607102 -192.28653412 251.20718854 -192.30235499 242.80722678 C-192.31555313 235.53351887 -192.3207901 228.25983175 -192.32015592 220.986112 C-192.31990436 216.66956764 -192.32256115 212.35308075 -192.33333397 208.03654861 C-192.47670125 146.26657971 -184.11579498 94.35248567 -139.77880859 48.52026367 C-124.75664509 33.85982366 -107.0850411 22.90380648 -88.09130859 14.14526367 C-86.92599609 13.59999023 -85.76068359 13.0547168 -84.56005859 12.49291992 C-68.11098556 5.34194016 -49.89304144 2.44851923 -32.09130859 1.14526367 C-30.41205323 1.02213822 -30.41205323 1.02213822 -28.69887352 0.89652538 C-19.1261455 0.24612341 -9.59453935 -0.00382338 0 0 Z " fill="#FE6F5B" transform="translate(192.09130859375,-0.145263671875)"/>
<path d="M0 0 C9.14379054 4.17085182 12.57070218 12.87730201 16.25 21.625 C17.20870258 23.85847356 18.16835239 26.09154075 19.12890625 28.32421875 C19.60602051 29.43974121 20.08313477 30.55526367 20.57470703 31.70458984 C23.08233392 37.50245689 25.71691395 43.2430535 28.35839844 48.98095703 C28.70805664 49.74907715 29.05771484 50.51719727 29.41796875 51.30859375 C29.72500732 51.97689209 30.0320459 52.64519043 30.34838867 53.33374023 C31 55 31 55 31 57 C32.00289062 57.12117188 33.00578125 57.24234375 34.0390625 57.3671875 C46.02854949 59.09372175 57.90096371 64.17717202 68.9140625 69.08496094 C70.29308151 69.68989577 71.68127799 70.27436806 73.078125 70.83691406 C82.03388795 74.45596521 87.26775227 78.14710132 91.21704102 87.11694336 C91.82924855 88.5980153 92.42906843 90.08425289 93.01806641 91.57470703 C94.07729758 94.19091848 95.23582499 96.7456692 96.41796875 99.30859375 C102.62538102 112.89026062 107.60770529 126.73596512 112 141 C112.24057129 141.77053711 112.48114258 142.54107422 112.72900391 143.33496094 C120.05192985 167.07134158 123.83006077 191.23720534 125.70629883 215.93334961 C125.9562306 218.98709185 125.9562306 218.98709185 126.52563477 221.92114258 C127.07694301 225.49939696 127.14308726 228.99957985 127.1328125 232.609375 C127.13463028 233.32970917 127.13644806 234.05004333 127.13832092 234.79220581 C127.14670675 241.05798 127.09749583 247.32388821 127.03553772 253.58932495 C126.99815727 257.72902083 127.03105491 261.85356738 127.16015625 265.9921875 C127.33511232 276.21125879 127.33511232 276.21125879 123.9765625 280.7109375 C121.12987073 283.15692192 118.2037214 285.04857258 115 287 C113.44307702 288.16472101 111.88641721 289.32988779 110.34057617 290.50927734 C87.80619001 307.42254724 61.3763829 319.87661043 36.41845703 332.74902344 C34.37670883 333.80514274 32.34129284 334.87193622 30.30859375 335.9453125 C27.56543665 337.36874995 24.80992945 338.7142444 22 340 C21.12859375 340.40992188 20.2571875 340.81984375 19.359375 341.2421875 C-4.45939812 350.88945594 -30.66563236 339.5916821 -52.63232422 330.43164062 C-81.13118688 318.31642164 -109.11679979 302.81397868 -133 283 C-133.83217041 282.3810083 -133.83217041 282.3810083 -134.68115234 281.74951172 C-138.80902069 278.60055539 -138.80902069 278.60055539 -139.65673828 275.93481445 C-140.14034181 271.80010744 -140.1622508 267.70675255 -140.16796875 263.546875 C-140.1721582 262.62244095 -140.17634766 261.6980069 -140.18066406 260.74555969 C-140.19045114 257.74699662 -140.19045226 254.74857642 -140.1875 251.75 C-140.18722809 250.73001923 -140.18695618 249.71003845 -140.18667603 248.65914917 C-140.16781399 233.33669011 -139.7652446 218.23340706 -138 203 C-137.91411621 202.14809082 -137.82823242 201.29618164 -137.73974609 200.41845703 C-133.65057311 159.8732673 -121.05757403 118.96081361 -102 83 C-101.34487427 81.74630615 -101.34487427 81.74630615 -100.67651367 80.46728516 C-98.79207222 77.69399765 -97.32461784 76.68361324 -94.37890625 75.1328125 C-93.45303711 74.64288818 -92.52716797 74.15296387 -91.57324219 73.64819336 C-90.57969727 73.14553955 -89.58615234 72.64288574 -88.5625 72.125 C-87.53930664 71.5997876 -86.51611328 71.0745752 -85.46191406 70.53344727 C-74.1139657 64.84632671 -62.28023688 59.93602621 -49.6875 58 C-46.23847285 57.06956477 -45.23683534 56.34181375 -43.17578125 53.3671875 C-41.62487492 50.13522885 -40.28494088 46.909764 -39.00878906 43.56396484 C-36.96458031 38.36835005 -34.63605095 33.29142361 -32.375 28.1875 C-31.91931641 27.13868652 -31.46363281 26.08987305 -30.99414062 25.00927734 C-18.94474964 -2.67021988 -18.94474964 -2.67021988 0 0 Z " fill="#FCFBFB" transform="translate(262,82)"/>
<path d="M0 0 C6.84984865 2.73526379 10.68837643 6.71040655 13.734375 13.37890625 C19.77911232 28.85409441 24.47430512 44.93012031 29.33203125 60.80859375 C31.87453027 69.10249185 34.56960293 77.34678725 37.25976562 85.59375 C37.64455078 86.78226562 38.02933594 87.97078125 38.42578125 89.1953125 C38.77213623 90.25943359 39.11849121 91.32355469 39.4753418 92.41992188 C41.98642449 100.82144902 42.53746017 108.46943822 38.3515625 116.3515625 C34.40705088 122.38506781 29.45645976 125.78230032 22.59716797 127.89086914 C19.84977445 128.45450597 17.29708872 128.46352947 14.4921875 128.44921875 C13.37714844 128.44599609 12.26210938 128.44277344 11.11328125 128.43945312 C9.95441406 128.43107422 8.79554688 128.42269531 7.6015625 128.4140625 C6.42722656 128.40955078 5.25289063 128.40503906 4.04296875 128.40039062 C1.14578178 128.38861344 -1.75130204 128.37216576 -4.6484375 128.3515625 C-4.64621689 127.75038101 -4.64399628 127.14919952 -4.64170837 126.52980042 C-4.61931925 120.18515629 -4.60439314 113.84052366 -4.59350586 107.49584961 C-4.58852459 105.13842309 -4.58173715 102.78099957 -4.57299805 100.42358398 C-4.50513708 81.62609634 -4.85447185 63.38950107 -7.8359375 44.7890625 C-7.94248657 44.11121704 -8.04903564 43.43337158 -8.15881348 42.73498535 C-10.0976473 30.47528138 -12.77728622 18.47456936 -16.06347656 6.50097656 C-16.6196526 4.45733137 -17.14219962 2.4080808 -17.6484375 0.3515625 C-12.66014806 -2.14258222 -5.2794172 -1.29260067 0 0 Z " fill="#FCFAFA" transform="translate(398.6484375,229.6484375)"/>
<path d="M0 0 C1.43859375 -0.02126953 1.43859375 -0.02126953 2.90625 -0.04296875 C5.5 0.1875 5.5 0.1875 8.5 2.1875 C7.89795091 4.93797808 7.29338863 7.68786725 6.6875 10.4375 C6.52185547 11.19546875 6.35621094 11.9534375 6.18554688 12.734375 C5.20625622 17.1688987 4.14412985 21.56690554 2.99609375 25.9609375 C1.36414664 32.44119853 0.32262201 38.95188885 -0.625 45.5625 C-0.79386719 46.67882812 -0.96273437 47.79515625 -1.13671875 48.9453125 C-2.97802072 61.52995906 -3.63216015 74.09709153 -3.81640625 86.8046875 C-3.83718735 88.02785675 -3.85796844 89.251026 -3.87937927 90.51126099 C-3.94398704 94.36162516 -4.0033403 98.21204867 -4.0625 102.0625 C-4.10576997 104.69662035 -4.14938673 107.33073503 -4.19335938 109.96484375 C-4.29957526 116.37233584 -4.4014946 122.77988497 -4.5 129.1875 C-9.04154478 129.27485463 -13.58287232 129.32801247 -18.125 129.375 C-19.41019531 129.40013672 -20.69539063 129.42527344 -22.01953125 129.45117188 C-23.88544922 129.46567383 -23.88544922 129.46567383 -25.7890625 129.48046875 C-27.50150146 129.50403442 -27.50150146 129.50403442 -29.24853516 129.52807617 C-35.74651682 128.84744211 -41.26794704 125.04462616 -45.5 120.1875 C-50.10615072 112.48806919 -50.72054088 104.47143282 -48.7175293 95.80004883 C-47.59987808 91.98397575 -46.38373157 88.20855774 -45.125 84.4375 C-44.67000081 83.0352246 -44.21649742 81.63246306 -43.7644043 80.22924805 C-42.82619671 77.32560145 -41.87904514 74.42511098 -40.92431641 71.52685547 C-39.54605121 67.33864873 -38.19670313 63.14159675 -36.85546875 58.94140625 C-34.80075122 52.5121068 -32.72053039 46.09155022 -30.62988281 39.67382812 C-29.57092317 36.40633815 -28.52915448 33.13389788 -27.4921875 29.859375 C-26.89101362 27.98945835 -26.28947886 26.11965766 -25.6875 24.25 C-25.43395752 23.43442627 -25.18041504 22.61885254 -24.91918945 21.77856445 C-22.5742745 14.58073484 -19.56118238 7.80536491 -12.875 3.75 C-12.11960938 3.27691406 -11.36421875 2.80382812 -10.5859375 2.31640625 C-6.96919433 0.35903026 -4.05009214 0.02721836 0 0 Z " fill="#FCFAFA" transform="translate(119.5,229.8125)"/>
<path d="M0 0 C6.72718433 2.57289699 10.86310426 7.66626783 14 14 C17.89062606 25.21730332 17.37140105 37.00974868 12.2890625 47.6796875 C11 50 11 50 9 53 C8.34 53 7.68 53 7 53 C7 53.66 7 54.32 7 55 C2.23336253 57.95379396 -1.49091401 59.73817372 -7.125 58.59375 C-14.14467002 56.37085449 -17.61517984 51.17055711 -21 45 C-25.51589891 35.6299326 -25.04284387 25.3363953 -22.046875 15.54296875 C-18.19571205 6.18809157 -10.66276862 -1.5956608 0 0 Z " fill="#FE6F5B" transform="translate(222,239)"/>
<path d="M0 0 C6.49454255 3.60807919 10.26849649 9.19410747 13.0546875 15.96875 C16.05883896 27.24797322 14.43017342 39.2481303 8.7109375 49.3125 C6.29962559 52.99051374 4.05003013 55.66680272 -0.0859375 57.1953125 C-5.407015 57.84720561 -9.66214152 57.89426689 -14.5234375 55.5078125 C-21.16019877 49.51854013 -25.48694735 41.62709196 -26.32421875 32.63671875 C-26.58941667 22.34983096 -24.94161761 12.98905203 -18.0859375 5.0078125 C-12.97101262 -0.37684474 -7.27392733 -2.80604687 0 0 Z " fill="#FE6F5B" transform="translate(298.0859375,239.8046875)"/>
</svg>