<?xml version="1.0" standalone="no"?>
<!DOCTYPE svg PUBLIC "-//W3C//DTD SVG 20010904//EN"
 "http://www.w3.org/TR/2001/REC-SVG-20010904/DTD/svg10.dtd">
<svg version="1.0" xmlns="http://www.w3.org/2000/svg"
 width="266.000000pt" height="266.000000pt" viewBox="0 0 266.000000 266.000000"
 preserveAspectRatio="xMidYMid meet">

<g transform="translate(0.000000,266.000000) scale(0.100000,-0.100000)"
fill="#000000" stroke="none">
<path d="M170 2640 c-137 -47 -211 -230 -145 -361 21 -42 91 -116 126 -134 36
-19 185 -36 289 -33 l85 3 5 -945 5 -945 23 -47 c31 -63 97 -121 166 -147 56
-21 63 -21 894 -21 l837 0 60 34 c124 68 173 191 131 330 -29 96 -100 155
-214 177 l-62 12 0 931 1 930 -31 63 c-37 74 -92 125 -167 153 -52 20 -77 20
-1001 20 -902 -1 -950 -2 -1002 -20z m186 -29 c43 -19 114 -77 114 -92 0 -5
-51 -9 -112 -9 -135 0 -178 -11 -212 -51 -31 -37 -33 -72 -6 -99 17 -17 33
-20 125 -20 93 0 105 -2 105 -17 0 -71 -125 -146 -214 -129 -38 7 -90 59 -112
112 -47 113 22 268 138 311 50 17 128 15 174 -6z m1832 -7 c56 -28 100 -72
134 -137 l23 -42 3 -933 2 -933 -758 1 c-679 1 -763 0 -798 -15 -54 -22 -92
-61 -120 -120 -77 -163 43 -355 220 -355 53 0 57 -2 45 -16 -20 -24 -179 -15
-234 13 -54 29 -99 78 -127 138 l-23 50 -5 1100 -5 1101 -35 58 c-19 32 -53
71 -74 87 l-40 29 870 0 870 0 52 -26z m-1679 -171 c6 -21 11 -93 11 -159 l0
-122 -75 -7 c-41 -4 -109 -4 -151 0 l-76 8 54 18 c67 22 111 69 134 142 l17
56 -25 50 -25 51 63 0 63 0 10 -37z m449 -1922 c15 -10 39 -26 54 -35 15 -9
32 -25 38 -37 11 -20 10 -20 -99 -17 -98 3 -112 1 -138 -18 -43 -32 -59 -67
-46 -97 11 -23 18 -25 107 -32 53 -4 96 -9 96 -11 0 -14 -31 -62 -54 -83 -20
-19 -40 -26 -84 -29 -58 -4 -59 -4 -95 39 -85 98 -53 258 63 317 55 27 121 29
158 3z m1552 -16 c39 -22 63 -44 85 -79 27 -45 30 -57 30 -137 0 -81 -2 -90
-30 -131 -17 -23 -55 -58 -85 -75 l-54 -33 -726 0 -726 0 46 48 c65 68 85 113
84 197 0 59 -5 80 -31 131 -18 34 -47 74 -65 88 l-33 26 725 -2 725 -3 55 -30z
m-1420 -141 c25 -64 6 -153 -46 -221 -23 -31 -29 -33 -84 -33 -87 0 -98 8 -48
34 78 39 118 141 84 212 l-16 34 50 0 c45 0 52 -3 60 -26z"/>
<path d="M835 2243 c-33 -8 -45 -24 -45 -59 0 -23 6 -37 19 -44 13 -6 246 -10
685 -10 653 0 666 0 686 20 11 11 20 23 20 28 -1 30 -16 52 -42 61 -31 11
-1280 14 -1323 4z m1328 -46 c14 -37 6 -37 -674 -35 l-664 3 -3 23 -3 22 669
0 c551 0 671 -2 675 -13z"/>
<path d="M802 1988 c-16 -16 -15 -73 2 -87 9 -8 199 -10 692 -9 l678 3 15 26
c13 24 13 29 -2 53 l-17 26 -678 0 c-514 0 -681 -3 -690 -12z m1361 -30 c13
-38 15 -38 -674 -38 l-669 0 0 25 0 25 669 0 c527 0 670 -3 674 -12z"/>
<path d="M808 1749 c-22 -12 -24 -71 -4 -89 11 -9 175 -11 668 -11 359 0 663
0 675 1 49 1 69 54 33 90 -20 20 -33 20 -687 20 -435 -1 -674 -4 -685 -11z
m1356 -35 c3 -9 4 -20 0 -25 -3 -5 -283 -9 -675 -9 -642 0 -669 1 -669 18 0
10 3 22 7 25 3 4 304 7 669 7 596 0 662 -2 668 -16z"/>
<path d="M812 1504 c-30 -21 -30 -69 2 -89 20 -14 103 -15 690 -13 648 3 668
4 682 22 19 27 18 52 -6 76 -20 20 -33 20 -683 20 -583 0 -665 -2 -685 -16z
m1349 -30 c11 -14 10 -18 -6 -30 -16 -12 -123 -14 -664 -13 -354 0 -650 3
-658 6 -14 5 -18 35 -6 46 3 4 302 7 663 7 592 0 659 -2 671 -16z"/>
<path d="M820 1267 c-32 -16 -41 -74 -14 -94 14 -10 155 -13 686 -13 664 0
668 0 689 21 21 21 20 61 -2 84 -16 16 -1327 18 -1359 2z m1343 -41 c3 -8 0
-19 -7 -25 -9 -8 -211 -10 -672 -9 l-659 3 -3 23 -3 22 669 0 c571 0 671 -2
675 -14z"/>
<path d="M802 1018 c-16 -16 -15 -73 2 -87 9 -8 199 -10 692 -9 l678 3 15 26
c13 24 13 29 -2 53 l-17 26 -678 0 c-514 0 -681 -3 -690 -12z m1361 -30 c13
-38 15 -38 -674 -38 l-669 0 0 25 0 25 669 0 c527 0 670 -3 674 -12z"/>
<path d="M808 779 c-22 -12 -24 -72 -3 -89 11 -9 171 -12 692 -12 640 0 677 1
690 18 19 25 16 51 -7 74 -20 20 -33 20 -687 20 -435 -1 -674 -4 -685 -11z
m1356 -35 c3 -9 4 -20 0 -25 -3 -5 -283 -9 -675 -9 -642 0 -669 1 -669 18 0
10 3 22 7 25 3 4 304 7 669 7 596 0 662 -2 668 -16z"/>
</g>
</svg>
