<svg width="14" height="14" viewBox="0 0 14 14" fill="none" xmlns="http://www.w3.org/2000/svg">
<path d="M13.1878 1.11299C13.0898 1.04953 12.9752 1.00446 12.8526 0.981094C12.7299 0.957725 12.6023 0.956649 12.4791 0.977946C11.5775 1.12916 10.6467 1.13108 9.74416 0.983607C8.84159 0.836132 7.9863 0.542377 7.23094 0.120428C7.0897 0.0420171 6.9219 0 6.75 0C6.5781 0 6.4103 0.0420171 6.26906 0.120428C5.5137 0.542377 4.65841 0.836132 3.75584 0.983607C2.85328 1.13108 1.92254 1.12916 1.02094 0.977946C0.897702 0.956649 0.770066 0.957725 0.647414 0.981094C0.524763 1.00446 0.410215 1.04953 0.312192 1.11299C0.2143 1.17654 0.135444 1.25683 0.0814202 1.34797C0.0273961 1.43911 -0.000423723 1.53878 4.87812e-06 1.63965V6.66998C-0.000745245 7.63806 0.287532 8.59228 0.840831 9.45317C1.39413 10.3141 2.19644 11.0567 3.18094 11.6193L6.26063 13.3748C6.40352 13.4562 6.57458 13.5 6.75 13.5C6.92542 13.5 7.09648 13.4562 7.23937 13.3748L10.3191 11.6193C11.3036 11.0567 12.1059 10.3141 12.6592 9.45317C13.2125 8.59228 13.5007 7.63806 13.5 6.66998V1.63965C13.5004 1.53878 13.4726 1.43911 13.4186 1.34797C13.3646 1.25683 13.2857 1.17654 13.1878 1.11299ZM11.8125 6.66998C11.8131 7.42267 11.5891 8.16461 11.1591 8.83404C10.7291 9.50348 10.1056 9.86236 9.34031 10.3L6.75 11.6L4.15969 10.3C3.39444 9.86236 2.77086 9.50348 2.34086 8.83404C1.91086 8.16461 1.68686 7.42267 1.6875 6.66998V2.7C3.45636 2.82116 5.22791 2.43127 6.75 1.7C8.27209 2.43127 10.0436 2.82116 11.8125 2.7V6.66998ZM8.04937 4.12374L6.2 6.5L5.02875 5.33912C4.86987 5.21198 4.65438 5.2 4.42969 5.2C4.35 5.2 4.15888 5.27286 4 5.4C3.84112 5.52714 3.7 5.7 3.7 5.95C3.7 6.0625 3.75 6.19141 3.83063 6.29792L5.8 8.37826C5.87844 8.44155 5.89718 8.49178 6 8.52606C6.10282 8.56034 6.13862 8.57799 6.25 8.57799C6.36138 8.57799 6.44718 8.56034 6.55 8.52606C6.65282 8.49178 6.67156 8.44155 6.75 8.37826L9.28125 5.07579C9.44013 4.94865 9.52939 4.7762 9.52939 4.59639C9.52939 4.41658 9.44013 4.24414 9.28125 4.11699C9.12237 3.98985 8.90688 3.91842 8.68219 3.91842C8.45749 3.91842 8.24201 3.98985 8.08312 4.11699L8.04937 4.12374Z" fill="#18191F"/>
</svg>
