<svg width="14" height="14" viewBox="0 0 14 14" fill="none" xmlns="http://www.w3.org/2000/svg">
<path d="M5.805 2.69731L6.13636 2.29896V4.72281C6.13636 4.90188 6.20101 5.07361 6.31609 5.20023C6.43117 5.32685 6.58725 5.39798 6.75 5.39798C6.91275 5.39798 7.06883 5.32685 7.18391 5.20023C7.29899 5.07361 7.36364 4.90188 7.36364 4.72281V2.29896L7.695 2.6703C7.7507 2.73952 7.81873 2.79542 7.89487 2.83452C7.97101 2.87363 8.05364 2.89512 8.13763 2.89765C8.22163 2.90018 8.3052 2.8837 8.38317 2.84924C8.46114 2.81478 8.53185 2.76307 8.59091 2.69731C8.64842 2.63454 8.69408 2.55987 8.72523 2.47759C8.75638 2.39532 8.77242 2.30707 8.77242 2.21794C8.77242 2.12881 8.75638 2.04056 8.72523 1.95828C8.69408 1.87601 8.64842 1.80133 8.59091 1.73857L7.18568 0.192432C7.12732 0.130964 7.05851 0.082781 6.98318 0.0506467C6.83379 -0.0168823 6.66621 -0.0168823 6.51682 0.0506467C6.44149 0.082781 6.37268 0.130964 6.31432 0.192432L4.90909 1.71156C4.79029 1.84228 4.72354 2.01957 4.72354 2.20443C4.72354 2.3893 4.79029 2.56659 4.90909 2.69731C5.0279 2.82802 5.18903 2.90146 5.35705 2.90146C5.52506 2.90146 5.6862 2.82802 5.805 2.69731ZM6.75 6.74832C6.3859 6.74832 6.02998 6.86711 5.72725 7.08968C5.42451 7.31224 5.18856 7.62858 5.04922 7.99869C4.90989 8.36881 4.87343 8.77607 4.94446 9.16898C5.0155 9.56189 5.19082 9.9228 5.44828 10.2061C5.70574 10.4893 6.03376 10.6823 6.39086 10.7604C6.74796 10.8386 7.1181 10.7985 7.45449 10.6451C7.79087 10.4918 8.07838 10.2322 8.28066 9.89913C8.48294 9.56604 8.59091 9.17443 8.59091 8.77382C8.59091 8.23662 8.39696 7.72143 8.05172 7.34157C7.70648 6.96172 7.23824 6.74832 6.75 6.74832ZM6.75 9.44899C6.62863 9.44899 6.50999 9.40939 6.40908 9.3352C6.30817 9.26101 6.22952 9.15557 6.18307 9.0322C6.13663 8.90883 6.12448 8.77307 6.14815 8.6421C6.17183 8.51113 6.23028 8.39083 6.31609 8.29641C6.40191 8.20198 6.51125 8.13768 6.63029 8.11163C6.74932 8.08558 6.8727 8.09895 6.98483 8.15005C7.09696 8.20115 7.19279 8.28769 7.26022 8.39872C7.32765 8.50975 7.36364 8.64029 7.36364 8.77382C7.36364 8.95289 7.29899 9.12462 7.18391 9.25124C7.06883 9.37786 6.91275 9.44899 6.75 9.44899ZM2.45455 8.77382C2.45455 8.90736 2.49053 9.03789 2.55796 9.14892C2.62539 9.25996 2.72123 9.34649 2.83335 9.3976C2.94548 9.4487 3.06886 9.46207 3.1879 9.43602C3.30693 9.40997 3.41627 9.34566 3.50209 9.25124C3.58791 9.15681 3.64635 9.03651 3.67003 8.90554C3.6937 8.77457 3.68155 8.63882 3.63511 8.51545C3.58866 8.39207 3.51001 8.28663 3.4091 8.21244C3.30819 8.13825 3.18955 8.09865 3.06818 8.09865C2.90544 8.09865 2.74935 8.16979 2.63428 8.29641C2.5192 8.42302 2.45455 8.59476 2.45455 8.77382ZM11.0455 8.77382C11.0455 8.64029 11.0095 8.50975 10.942 8.39872C10.8746 8.28769 10.7788 8.20115 10.6666 8.15005C10.5545 8.09895 10.4311 8.08558 10.3121 8.11163C10.1931 8.13768 10.0837 8.20198 9.99791 8.29641C9.91209 8.39083 9.85365 8.51113 9.82997 8.6421C9.8063 8.77307 9.81845 8.90883 9.86489 9.0322C9.91134 9.15557 9.98999 9.26101 10.0909 9.3352C10.1918 9.40939 10.3105 9.44899 10.4318 9.44899C10.5946 9.44899 10.7506 9.37786 10.8657 9.25124C10.9808 9.12462 11.0455 8.95289 11.0455 8.77382ZM11.6591 4.04764H9.20455C9.0418 4.04764 8.88572 4.11878 8.77064 4.2454C8.65556 4.37201 8.59091 4.54375 8.59091 4.72281C8.59091 4.90188 8.65556 5.07361 8.77064 5.20023C8.88572 5.32685 9.0418 5.39798 9.20455 5.39798H11.6591C11.8218 5.39798 11.9779 5.46911 12.093 5.59573C12.2081 5.72235 12.2727 5.89408 12.2727 6.07315V11.4745C12.2727 11.6536 12.2081 11.8253 12.093 11.9519C11.9779 12.0785 11.8218 12.1497 11.6591 12.1497H1.84091C1.67816 12.1497 1.52208 12.0785 1.407 11.9519C1.29192 11.8253 1.22727 11.6536 1.22727 11.4745V6.07315C1.22727 5.89408 1.29192 5.72235 1.407 5.59573C1.52208 5.46911 1.67816 5.39798 1.84091 5.39798H4.29545C4.4582 5.39798 4.61428 5.32685 4.72936 5.20023C4.84444 5.07361 4.90909 4.90188 4.90909 4.72281C4.90909 4.54375 4.84444 4.37201 4.72936 4.2454C4.61428 4.11878 4.4582 4.04764 4.29545 4.04764H1.84091C1.35267 4.04764 0.884427 4.26104 0.53919 4.6409C0.193952 5.02076 0 5.53595 0 6.07315V11.4745C0 12.0117 0.193952 12.5269 0.53919 12.9067C0.884427 13.2866 1.35267 13.5 1.84091 13.5H11.6591C12.1473 13.5 12.6156 13.2866 12.9608 12.9067C13.306 12.5269 13.5 12.0117 13.5 11.4745V6.07315C13.5 5.53595 13.306 5.02076 12.9608 4.6409C12.6156 4.26104 12.1473 4.04764 11.6591 4.04764Z" fill="#18191F"/>
</svg>
