<svg width="213" height="214" viewBox="0 0 213 214" fill="none" xmlns="http://www.w3.org/2000/svg">
<g filter="url(#filter0_ddd_4047_72530)">
<ellipse cx="106.5" cy="92" rx="90.5" ry="90" fill="url(#paint0_linear_4047_72530)"/>
<path d="M167.563 56.9856L159.691 56.528C159.13 56.4917 158.601 56.258 158.197 55.8687C157.794 55.4794 157.543 54.96 157.489 54.4034L156.799 47.1636C156.777 47.0428 156.714 46.9334 156.619 46.8547C156.524 46.7759 156.405 46.7327 156.281 46.7327C156.158 46.7327 156.039 46.7759 155.944 46.8547C155.849 46.9334 155.785 47.0428 155.764 47.1636L155.057 54.4034C155.01 54.9624 154.761 55.4856 154.357 55.8762C153.952 56.2668 153.418 56.4983 152.855 56.528L144.983 57.0183C144.862 57.0399 144.752 57.1033 144.673 57.1974C144.593 57.2915 144.55 57.4104 144.55 57.5331C144.55 57.6558 144.593 57.7746 144.673 57.8687C144.752 57.9629 144.862 58.0262 144.983 58.0478L152.855 58.5054C153.415 58.5449 153.943 58.7797 154.346 59.1684C154.748 59.5571 155 60.0747 155.057 60.63L155.747 67.8698C155.769 67.9906 155.833 68.1 155.927 68.1788C156.022 68.2576 156.142 68.3007 156.265 68.3007C156.388 68.3007 156.508 68.2576 156.602 68.1788C156.697 68.1 156.761 67.9906 156.783 67.8698L157.473 60.63C157.526 60.0735 157.777 59.5541 158.181 59.1648C158.584 58.7755 159.114 58.5417 159.675 58.5054L167.563 58.0152C167.684 57.9936 167.794 57.9301 167.874 57.836C167.953 57.7419 167.996 57.6231 167.996 57.5004C167.996 57.3776 167.953 57.2588 167.874 57.1647C167.794 57.0706 167.684 57.0072 167.563 56.9856Z" fill="#002825"/>
<path fill-rule="evenodd" clip-rule="evenodd" d="M151.015 84.1145L152.313 85.0297C153.459 85.7994 154.356 86.8839 154.893 88.1512C155.152 88.8621 155.253 89.6203 155.189 90.3738C155.13 90.9616 155.037 91.5455 154.91 92.1224C154.643 93.2606 154.229 94.3593 153.677 95.391C153.385 95.9188 153.05 96.4218 152.675 96.8945L152.494 97.1397L152.724 98.5942C152.795 99.1745 152.834 99.7583 152.839 100.343C152.824 102.66 152.3 104.946 151.304 107.041C150.307 109.135 148.863 110.988 147.071 112.469L146.857 112.649L146.594 112.731C144.297 113.55 141.94 114.195 139.544 114.659C137.098 115.171 134.598 115.385 132.1 115.296H131.935H131.738C126.8 113.737 121.71 112.696 116.554 112.191C116.225 112.162 115.892 112.137 115.555 112.11C114.561 112.033 113.534 111.954 112.478 111.783C111.084 111.566 109.713 111.215 108.386 110.737C106.081 109.941 103.661 109.521 101.221 109.495H101.139C100.428 110.597 99.9535 111.835 99.747 113.129C99.5406 114.423 99.6061 115.745 99.9394 117.012C100.569 120.189 101.677 123.252 103.226 126.099C105.004 129.094 106.595 132.194 107.992 135.382C108.745 137.071 109.297 138.843 109.635 140.66C109.991 142.642 109.844 144.681 109.208 146.593L108.403 148.864L106.447 147.426C106.153 147.217 105.839 147.037 105.51 146.887C105.36 147.989 105.141 149.081 104.853 150.156C104.302 152.029 103.512 153.825 102.503 155.5C101.164 144.889 93.7012 141.849 86.4081 138.878C83.1423 137.547 79.9104 136.23 77.2775 134.254C68.765 127.864 68.0748 120.395 73.3335 107.321C74.9387 103.3 76.1066 99.1199 76.8174 94.8517C76.9653 93.8875 77.1461 92.9396 77.3597 91.9917C77.3775 91.8592 77.405 91.7281 77.4419 91.5995L77.5898 90.9295C77.609 91.3596 77.6212 91.7883 77.6333 92.2156C77.6628 93.2495 77.6919 94.2753 77.8199 95.2929C77.899 96.6812 78.1756 98.0513 78.6415 99.3623C78.8532 99.9189 79.1713 100.429 79.5782 100.866C79.6947 101.001 79.8227 101.119 79.9723 101.257C80.076 101.353 80.19 101.458 80.3177 101.585C80.5347 101.832 80.771 102.061 81.0244 102.271C82.0701 103.067 83.2345 103.696 84.4754 104.134C87.0984 105.046 89.8256 105.628 92.5936 105.867C95.2558 106.177 97.9673 106.292 100.695 106.292H101.106C103.936 106.312 106.744 106.787 109.421 107.697C111.812 108.501 114.311 108.942 116.833 109.005C122.139 109.513 127.376 110.57 132.461 112.159C134.629 112.216 136.796 112.024 138.92 111.587C140.432 111.292 141.927 110.884 143.406 110.443C146.709 109.054 148.895 105.295 144.425 105.785C143.369 105.858 142.32 106.005 141.286 106.226C140.479 106.373 139.68 106.666 138.826 106.979C138.063 107.259 137.255 107.555 136.356 107.779C134.534 108.205 132.634 108.16 130.834 107.648C129.264 107.002 127.599 106.61 125.904 106.488C126.694 106.038 127.576 105.775 128.484 105.72C129.137 105.654 129.723 105.676 130.286 105.698C130.56 105.709 130.829 105.72 131.097 105.72C132.637 105.913 134.198 105.847 135.715 105.524C136.481 105.306 137.262 104.887 138.106 104.434C138.784 104.071 139.501 103.686 140.284 103.366C141.997 102.649 143.832 102.266 145.69 102.239H146.808C148.106 100.441 149.207 98.4471 148.78 96.8128C148.274 96.1385 147.575 95.6316 146.775 95.3583C146.563 95.2845 146.149 95.1774 145.613 95.0386C143.656 94.5317 140.063 93.6013 138.657 92.3186C137.605 91.2563 138.23 89.1154 142.535 88.2329C144.516 87.8904 146.535 87.8299 148.533 88.0531C149.217 88.1717 149.919 88.1097 150.571 87.8733L150.325 87.6609L149.076 86.7784L147.81 85.8305L142.88 82.088C142.075 81.4833 141.22 80.8623 140.432 80.3557L140.037 80.1269L139.265 79.8001C138.755 79.5876 138.246 79.3425 137.736 79.081C136.163 78.2476 134.705 77.2149 133.398 76.0085C128.583 71.9882 123.193 62.2806 121.78 59.1102C120.651 56.672 118.663 54.7299 116.192 53.6517C117.405 53.5844 118.618 53.7938 119.737 54.264C120.857 54.7342 121.853 55.4527 122.651 56.3645C123.064 56.7056 123.837 57.818 124.77 59.1616C126.654 61.8734 129.192 65.5269 130.752 65.6799C131.591 65.6487 132.424 65.5225 133.234 65.304C132.457 64.561 131.748 63.7517 131.114 62.8853C130.269 61.7777 129.616 60.6338 128.985 59.528C128.768 59.149 128.555 58.7745 128.336 58.4074C127.611 57.0299 126.735 55.7365 125.724 54.5505C125.491 54.3068 125.244 54.0776 124.984 53.8641C124.711 53.6624 124.42 53.4874 124.113 53.3412C123.439 52.998 122.749 52.7038 121.895 52.3769C121.04 52.0501 120.284 51.7559 119.397 51.3146L117.096 50.1707L112.495 47.948C109.459 46.4984 106.336 45.2376 103.144 44.1729C99.9828 43.1386 96.7225 42.4321 93.4153 42.0646C92.6304 41.9609 91.8404 41.9009 91.0488 41.8849C90.4126 41.8679 89.7816 42.0024 89.2083 42.2771C88.9066 42.4088 88.595 42.5733 88.2603 42.75C87.8475 42.968 87.3994 43.2045 86.8911 43.4211L84.6069 44.467C81.6356 45.9542 78.7986 47.693 76.1272 49.6641C73.977 51.0614 72.0773 52.807 70.5069 54.8283C72.8329 54.7219 75.1582 55.0547 77.3597 55.8089C74.3979 55.7626 71.4474 56.1818 68.6171 57.051C67.2311 57.4593 65.8749 57.9616 64.558 58.5545C63.2405 59.1031 61.9708 59.759 60.7619 60.5156C59.5682 61.2003 58.4642 62.0292 57.4751 62.9834C57.0709 63.3874 56.7573 63.872 56.5549 64.4052C56.2755 65.0099 56.0125 65.6799 55.766 66.35C54.8162 69.1002 54.0585 71.9124 53.4982 74.7665C52.3103 80.4493 51.8683 86.2613 52.1835 92.0571C52.4182 96.7372 53.6446 101.315 55.7825 105.491C57.8038 102.86 59.7758 100.163 61.6821 97.4338C64.1143 93.8875 66.4314 90.2267 68.502 86.5333C69.5833 84.6045 70.5391 82.5867 71.5051 80.5472C72.3891 78.6811 73.2816 76.7969 74.2866 74.9463C75.3065 72.9663 76.4998 71.0796 77.8527 69.308C78.551 68.393 79.3627 67.5694 80.2684 66.8566C81.1609 66.1176 82.265 65.6773 83.4237 65.5982C79.7426 68.8831 76.8667 77.7082 74.0237 87.5955C71.7066 95.6198 63.9006 113.924 58.9706 114.365C57.0479 114.479 56.3576 113.564 55.043 111.701L53.9748 110.23C52.0821 107.608 50.6384 104.692 49.7021 101.601C48.8435 98.5728 48.32 95.4601 48.1409 92.3186C47.9899 89.2287 48.0613 86.132 48.3545 83.0522C48.6934 80.0007 49.2147 76.9719 49.9157 73.982C50.6027 70.9823 51.4977 68.0336 52.5944 65.1569C52.8902 64.4379 53.186 63.7188 53.5475 62.9834C53.7456 62.5714 53.9706 62.1729 54.2213 61.7903C54.4984 61.4068 54.8062 61.0461 55.1416 60.7117C56.3406 59.578 57.6964 58.6204 59.1678 57.8681C61.612 56.6095 64.2321 55.7225 66.9409 55.2369C67.7021 53.5532 68.747 52.0112 70.0303 50.6773C71.284 49.381 72.6475 48.1945 74.1059 47.1309C76.8161 44.9663 79.7527 43.0979 82.8649 41.558C83.6209 41.1821 84.6069 40.7409 85.2642 40.4631C85.5858 40.3272 85.9231 40.1521 86.2916 39.9609C86.6763 39.7613 87.0949 39.5441 87.5649 39.3354C88.5521 38.8756 89.6301 38.6411 90.7201 38.649C91.638 38.6602 92.5545 38.7257 93.4646 38.8451C96.9951 39.2408 100.475 39.9965 103.851 41.1004C107.174 42.2011 110.423 43.5111 113.579 45.0227L118.246 47.278L120.563 48.422C121.077 48.6981 121.731 48.9508 122.427 49.2197C122.555 49.2691 122.685 49.3191 122.815 49.3698C123.653 49.6967 124.442 50.0399 125.296 50.4648C125.761 50.6965 126.206 50.9642 126.627 51.2656C127.036 51.5918 127.42 51.9468 127.778 52.3279C129.04 53.6799 130.143 55.1714 131.064 56.7731L131.175 56.9642C132.874 59.8989 134.453 62.6258 136.898 64.2254L138.854 65.5165V65.7289L138.312 66.6932L136.504 67.1507C136.16 67.256 135.871 67.4905 135.699 67.8044C135.613 67.9606 135.563 68.1335 135.551 68.3111C135.532 68.6649 135.532 69.0195 135.551 69.3734C135.553 69.9275 135.47 70.4787 135.304 71.0077C135.219 71.3013 135.122 71.5509 135.04 71.7631C134.98 71.917 134.928 72.0512 134.893 72.168C134.845 72.2816 134.819 72.4039 134.819 72.5275C134.819 72.6511 134.845 72.7734 134.893 72.8871C136.177 74.2104 137.67 75.3147 139.314 76.1556C139.725 76.3844 140.152 76.5805 140.596 76.7766L141.27 77.0381C141.608 77.1904 141.932 77.3708 142.239 77.5774C143.115 78.1291 143.835 78.6678 144.584 79.228C144.678 79.2985 144.773 79.3693 144.869 79.4405L149.799 83.1993L151.015 84.1145ZM108.239 73.7532C107.818 73.7937 107.394 73.7937 106.973 73.7532C104.147 73.5898 102.766 71.6614 103.226 69.6839C103.686 67.7064 103.407 67.0527 102.848 67.0527C101.982 67.3539 101.238 67.9276 100.728 68.687H100.613C100.583 68.6921 100.553 68.6904 100.524 68.6818C100.494 68.6732 100.468 68.6581 100.445 68.6375C100.423 68.6169 100.406 68.5915 100.395 68.5632C100.384 68.535 100.38 68.5046 100.383 68.4745C100.975 64.3725 103.391 64.1927 104.459 64.1927C107.719 64.4338 110.949 64.981 114.105 65.827C114.197 65.8416 114.282 65.8833 114.349 65.9467C114.416 66.0101 114.463 66.0922 114.482 66.1823C114.502 66.2723 114.493 66.3662 114.458 66.4515C114.423 66.5368 114.363 66.6097 114.286 66.6605C113.818 67.0702 113.468 67.5964 113.271 68.1851C113.075 68.7739 113.039 69.4039 113.169 70.0107C113.366 71.9392 111.065 73.4427 108.239 73.7532Z" fill="#002825"/>
</g>
<defs>
<filter id="filter0_ddd_4047_72530" x="0" y="0" width="213" height="214" filterUnits="userSpaceOnUse" color-interpolation-filters="sRGB">
<feFlood flood-opacity="0" result="BackgroundImageFix"/>
<feColorMatrix in="SourceAlpha" type="matrix" values="0 0 0 0 0 0 0 0 0 0 0 0 0 0 0 0 0 0 127 0" result="hardAlpha"/>
<feOffset dy="6"/>
<feGaussianBlur stdDeviation="4"/>
<feColorMatrix type="matrix" values="0 0 0 0 0.682353 0 0 0 0 0.411765 0 0 0 0 0.0666667 0 0 0 0.19 0"/>
<feBlend mode="normal" in2="BackgroundImageFix" result="effect1_dropShadow_4047_72530"/>
<feColorMatrix in="SourceAlpha" type="matrix" values="0 0 0 0 0 0 0 0 0 0 0 0 0 0 0 0 0 0 127 0" result="hardAlpha"/>
<feOffset dy="16"/>
<feGaussianBlur stdDeviation="8"/>
<feColorMatrix type="matrix" values="0 0 0 0 0.682353 0 0 0 0 0.411765 0 0 0 0 0.0666667 0 0 0 0.06 0"/>
<feBlend mode="normal" in2="effect1_dropShadow_4047_72530" result="effect2_dropShadow_4047_72530"/>
<feColorMatrix in="SourceAlpha" type="matrix" values="0 0 0 0 0 0 0 0 0 0 0 0 0 0 0 0 0 0 127 0" result="hardAlpha"/>
<feOffset dy="2"/>
<feGaussianBlur stdDeviation="1"/>
<feComposite in2="hardAlpha" operator="out"/>
<feColorMatrix type="matrix" values="0 0 0 0 0.683333 0 0 0 0 0.412003 0 0 0 0 0.0654861 0 0 0 0.16 0"/>
<feBlend mode="normal" in2="effect2_dropShadow_4047_72530" result="effect3_dropShadow_4047_72530"/>
<feBlend mode="normal" in="SourceGraphic" in2="effect3_dropShadow_4047_72530" result="shape"/>
</filter>
<linearGradient id="paint0_linear_4047_72530" x1="142.7" y1="2" x2="78.4758" y2="182.226" gradientUnits="userSpaceOnUse">
<stop stop-color="#FDAE49"/>
<stop offset="1" stop-color="#EF9C32"/>
</linearGradient>
</defs>
</svg>
