<svg width="20.000000" height="20.000000" viewBox="0 0 20 20" fill="none" xmlns="http://www.w3.org/2000/svg" xmlns:xlink="http://www.w3.org/1999/xlink">
	<rect width="20.000000" height="20.000000" fill="#D8D8D8" fill-opacity="0"/>
	<rect x="0.500000" y="0.500000" width="19.000000" height="19.000000" stroke="#979797" stroke-opacity="0" stroke-width="1.000000"/>
	<path d="M9.41 4.95L9.41 4.98L8.89 5.5L13.59 10.2L8.89 14.9L9.41 15.41L9.41 15.44C9.11 15.74 8.64 15.74 8.35 15.44C8.05 15.15 8.05 14.68 8.35 14.38L8.37 14.38L8.88 14.88L8.88 5.51L8.37 6.01L8.35 6.01C8.05 5.72 8.05 5.25 8.35 4.95C8.64 4.66 9.11 4.66 9.41 4.95Z" fill="#D8D8D8" fill-opacity="0" fill-rule="evenodd"/>
	<path d="M8.88 14.91L13.59 10.2L8.88 5.48" stroke="#222222" stroke-opacity="1.000000" stroke-width="1.500000" stroke-linejoin="round" stroke-linecap="round"/>
</svg>
