<svg width="16" height="16" viewBox="0 0 16 16" fill="none" xmlns="http://www.w3.org/2000/svg">
<path d="M9.99992 7.33331H8.66659V4.66665C8.66659 4.48984 8.59635 4.32027 8.47133 4.19524C8.3463 4.07022 8.17673 3.99998 7.99992 3.99998C7.82311 3.99998 7.65354 4.07022 7.52852 4.19524C7.40349 4.32027 7.33326 4.48984 7.33326 4.66665V7.99998C7.33326 8.17679 7.40349 8.34636 7.52852 8.47138C7.65354 8.59641 7.82311 8.66665 7.99992 8.66665H9.99992C10.1767 8.66665 10.3463 8.59641 10.4713 8.47138C10.5964 8.34636 10.6666 8.17679 10.6666 7.99998C10.6666 7.82317 10.5964 7.6536 10.4713 7.52857C10.3463 7.40355 10.1767 7.33331 9.99992 7.33331ZM7.99992 1.33331C6.68138 1.33331 5.39245 1.72431 4.29612 2.45685C3.19979 3.18939 2.34531 4.23058 1.84072 5.44876C1.33614 6.66693 1.20412 8.00737 1.46135 9.30058C1.71859 10.5938 2.35353 11.7817 3.28588 12.714C4.21823 13.6464 5.40611 14.2813 6.69932 14.5385C7.99253 14.7958 9.33297 14.6638 10.5511 14.1592C11.7693 13.6546 12.8105 12.8001 13.5431 11.7038C14.2756 10.6075 14.6666 9.31852 14.6666 7.99998C14.6666 7.1245 14.4942 6.25759 14.1591 5.44876C13.8241 4.63992 13.333 3.90499 12.714 3.28593C12.0949 2.66688 11.36 2.17581 10.5511 1.84078C9.74231 1.50575 8.8754 1.33331 7.99992 1.33331ZM7.99992 13.3333C6.94509 13.3333 5.91394 13.0205 5.03688 12.4345C4.15982 11.8484 3.47623 11.0155 3.07256 10.041C2.6689 9.06642 2.56328 7.99406 2.76907 6.9595C2.97485 5.92493 3.48281 4.97462 4.22869 4.22874C4.97457 3.48286 5.92487 2.97491 6.95944 2.76912C7.99401 2.56334 9.06636 2.66895 10.0409 3.07262C11.0154 3.47629 11.8484 4.15988 12.4344 5.03694C13.0205 5.914 13.3333 6.94515 13.3333 7.99998C13.3333 9.41447 12.7714 10.771 11.7712 11.7712C10.771 12.7714 9.41441 13.3333 7.99992 13.3333Z" fill="#18191F" fill-opacity="0.7"/>
</svg>
