<svg xmlns="http://www.w3.org/2000/svg" width="200" height="200" viewBox="0 0 200 200" version="1.1"><path d="M 32.242 58.158 C 30.557 59.843, 30.521 80.121, 32.200 81.800 C 32.952 82.552, 36.689 83, 42.200 83 L 51 83 51 113.929 C 51 140.712, 51.211 145.068, 52.571 146.429 C 54.563 148.420, 74.868 148.732, 76.800 146.800 C 77.682 145.918, 78 137.311, 78 114.300 L 78 83 83.852 83 C 91.399 83, 95.881 80.212, 97.969 74.217 C 99.261 70.508, 99.261 69.499, 97.969 65.841 C 97.161 63.553, 95.230 60.740, 93.679 59.591 C 90.995 57.602, 89.462 57.486, 62.171 57.208 C 40.328 56.985, 33.188 57.212, 32.242 58.158 M 125.929 58.303 C 118.647 60.369, 112.277 64.684, 107.465 70.812 C 99.791 80.584, 99.500 82.245, 99.500 116.285 C 99.500 141.671, 99.722 146.210, 101 147.019 C 101.825 147.542, 107.507 147.976, 113.628 147.985 C 122.148 147.996, 125.037 147.660, 125.960 146.548 C 126.811 145.522, 127.289 136.951, 127.591 117.298 L 128.017 89.500 130.564 87.250 C 133.708 84.473, 136.948 84.384, 140.253 86.984 C 143.601 89.618, 144.424 93.279, 142.503 96.994 C 140.801 100.286, 137.488 101.548, 132.936 100.637 L 129.945 100.039 130.223 114.270 L 130.500 128.500 138 128.392 C 144.242 128.302, 146.512 127.773, 151.537 125.235 C 158.864 121.535, 165.288 114.800, 168.761 107.178 C 172.239 99.545, 172.433 88.085, 169.222 80 C 164.094 67.087, 151.821 58.248, 137.894 57.437 C 133.509 57.182, 128.640 57.534, 125.929 58.303" stroke="none" fill="#f7f9fc" fill-rule="evenodd"/><path d="M -0 100.005 L -0 200.010 100.250 199.755 L 200.500 199.500 200.755 99.750 L 201.010 0 100.505 0 L 0 0 -0 100.005 M 0.481 100.500 C 0.481 155.500, 0.602 178.147, 0.750 150.826 C 0.898 123.506, 0.898 78.506, 0.750 50.826 C 0.602 23.147, 0.481 45.500, 0.481 100.500 M 32.242 58.158 C 30.557 59.843, 30.521 80.121, 32.200 81.800 C 32.952 82.552, 36.689 83, 42.200 83 L 51 83 51 113.929 C 51 140.712, 51.211 145.068, 52.571 146.429 C 54.563 148.420, 74.868 148.732, 76.800 146.800 C 77.682 145.918, 78 137.311, 78 114.300 L 78 83 83.852 83 C 91.399 83, 95.881 80.212, 97.969 74.217 C 99.261 70.508, 99.261 69.499, 97.969 65.841 C 97.161 63.553, 95.230 60.740, 93.679 59.591 C 90.995 57.602, 89.462 57.486, 62.171 57.208 C 40.328 56.985, 33.188 57.212, 32.242 58.158 M 125.929 58.303 C 118.647 60.369, 112.277 64.684, 107.465 70.812 C 99.791 80.584, 99.500 82.245, 99.500 116.285 C 99.500 141.671, 99.722 146.210, 101 147.019 C 101.825 147.542, 107.507 147.976, 113.628 147.985 C 122.148 147.996, 125.037 147.660, 125.960 146.548 C 126.811 145.522, 127.289 136.951, 127.591 117.298 L 128.017 89.500 130.564 87.250 C 133.708 84.473, 136.948 84.384, 140.253 86.984 C 143.601 89.618, 144.424 93.279, 142.503 96.994 C 140.801 100.286, 137.488 101.548, 132.936 100.637 L 129.945 100.039 130.223 114.270 L 130.500 128.500 138 128.392 C 144.242 128.302, 146.512 127.773, 151.537 125.235 C 158.864 121.535, 165.288 114.800, 168.761 107.178 C 172.239 99.545, 172.433 88.085, 169.222 80 C 164.094 67.087, 151.821 58.248, 137.894 57.437 C 133.509 57.182, 128.640 57.534, 125.929 58.303" stroke="none" fill="#2c84fc" fill-rule="evenodd"/></svg>