<svg width="15" height="14" viewBox="0 0 15 14" fill="none" xmlns="http://www.w3.org/2000/svg">
<path d="M3.79058 5.9237C3.66537 5.9237 3.54296 5.96083 3.43884 6.0304C3.33473 6.09997 3.25358 6.19885 3.20566 6.31453C3.15774 6.43022 3.1452 6.55752 3.16963 6.68033C3.19406 6.80315 3.25436 6.91596 3.3429 7.0045C3.43145 7.09304 3.54426 7.15334 3.66707 7.17777C3.78988 7.2022 3.91718 7.18966 4.03287 7.14174C4.14855 7.09382 4.24743 7.01267 4.317 6.90856C4.38657 6.80444 4.4237 6.68204 4.4237 6.55682C4.4237 6.38891 4.357 6.22787 4.23827 6.10914C4.11953 5.9904 3.9585 5.9237 3.79058 5.9237ZM11.388 5.9237C11.2628 5.9237 11.1404 5.96083 11.0362 6.0304C10.9321 6.09997 10.851 6.19885 10.8031 6.31453C10.7551 6.43022 10.7426 6.55752 10.767 6.68033C10.7915 6.80315 10.8518 6.91596 10.9403 7.0045C11.0288 7.09304 11.1417 7.15334 11.2645 7.17777C11.3873 7.2022 11.5146 7.18966 11.6303 7.14174C11.746 7.09382 11.8448 7.01267 11.9144 6.90856C11.984 6.80444 12.0211 6.68204 12.0211 6.55682C12.0211 6.38891 11.9544 6.22787 11.8357 6.10914C11.7169 5.9904 11.5559 5.9237 11.388 5.9237ZM12.6542 2.125H2.52435C2.02061 2.125 1.5375 2.32511 1.18131 2.68131C0.82511 3.0375 0.625 3.52061 0.625 4.02435V9.08929C0.625 9.59303 0.82511 10.0761 1.18131 10.4323C1.5375 10.7885 2.02061 10.9886 2.52435 10.9886H12.6542C13.158 10.9886 13.6411 10.7885 13.9973 10.4323C14.3535 10.0761 14.5536 9.59303 14.5536 9.08929V4.02435C14.5536 3.52061 14.3535 3.0375 13.9973 2.68131C13.6411 2.32511 13.158 2.125 12.6542 2.125ZM13.2873 9.08929C13.2873 9.2572 13.2206 9.41824 13.1019 9.53697C12.9832 9.6557 12.8221 9.7224 12.6542 9.7224H2.52435C2.35644 9.7224 2.1954 9.6557 2.07667 9.53697C1.95794 9.41824 1.89123 9.2572 1.89123 9.08929V4.02435C1.89123 3.85644 1.95794 3.6954 2.07667 3.57667C2.1954 3.45794 2.35644 3.39123 2.52435 3.39123H12.6542C12.8221 3.39123 12.9832 3.45794 13.1019 3.57667C13.2206 3.6954 13.2873 3.85644 13.2873 4.02435V9.08929ZM7.58929 4.65747C7.21363 4.65747 6.84641 4.76886 6.53406 4.97757C6.22172 5.18627 5.97827 5.48291 5.83451 5.82997C5.69076 6.17703 5.65314 6.55893 5.72643 6.92736C5.79972 7.2958 5.98061 7.63423 6.24624 7.89986C6.51187 8.16549 6.8503 8.34639 7.21874 8.41967C7.58718 8.49296 7.96908 8.45535 8.31614 8.31159C8.6632 8.16783 8.95984 7.92439 9.16854 7.61204C9.37724 7.29969 9.48864 6.93247 9.48864 6.55682C9.48864 6.05308 9.28853 5.56997 8.93233 5.21377C8.57613 4.85758 8.09303 4.65747 7.58929 4.65747ZM7.58929 7.18994C7.46407 7.18994 7.34166 7.1528 7.23754 7.08324C7.13343 7.01367 7.05228 6.91479 7.00436 6.7991C6.95644 6.68341 6.94391 6.55612 6.96833 6.4333C6.99276 6.31049 7.05306 6.19768 7.1416 6.10914C7.23015 6.02059 7.34296 5.9603 7.46577 5.93587C7.58858 5.91144 7.71588 5.92398 7.83157 5.97189C7.94726 6.01981 8.04614 6.10096 8.1157 6.20508C8.18527 6.30919 8.2224 6.4316 8.2224 6.55682C8.2224 6.72473 8.1557 6.88577 8.03697 7.0045C7.91823 7.12323 7.7572 7.18994 7.58929 7.18994Z" fill="#18191F"/>
</svg>
