<svg xmlns="http://www.w3.org/2000/svg" width="64" height="64" viewBox="0 0 64 64" fill="none">
  <g clip-path="url(#clip0_13_4)">
    <path d="M35.9736 5.75869L49.326 18.7667C50.4626 19.8716 51.022 20.9896 51.0044 22.1162C50.9868 23.2428 50.4978 24.2697 49.5419 25.2013C48.5419 26.1763 47.4626 26.6703 46.3084 26.6919C45.1542 26.7093 44.0088 26.1633 42.8722 25.0584L29.2159 11.7557C27.6652 10.2435 26.1674 9.17318 24.7269 8.54488C23.2863 7.91658 21.7709 7.81692 20.185 8.25023C18.5947 8.67921 16.8899 9.78415 15.0617 11.5607C12.5419 14.0176 11.3392 16.3228 11.4626 18.4764C11.5859 20.6299 12.837 22.8658 15.2115 25.1754L28.978 38.5907C30.1278 39.7086 30.6916 40.8265 30.674 41.9358C30.6564 43.0494 30.163 44.0764 29.1894 45.0253C28.2203 45.9699 27.1498 46.4639 25.9868 46.5029C24.8238 46.5419 23.6652 46.0003 22.5198 44.8823L9.1674 31.8743C6.9956 29.7598 5.42731 27.7579 4.46256 25.8686C3.4978 23.9794 3.13657 21.8432 3.38767 19.46C3.61234 17.4191 4.27753 15.4432 5.38767 13.528C6.49339 11.6127 8.0793 9.65416 10.1366 7.64793C12.5859 5.26039 14.9251 3.43182 17.1542 2.15788C19.3789 0.883949 21.533 0.177652 23.6123 0.0303266C25.696 -0.116999 27.7489 0.290313 29.7797 1.25226C31.8106 2.21421 33.8723 3.71347 35.9692 5.75869H35.9736Z" fill="url(#paint0_linear_13_4)"/>
    <path d="M15.0264 58.2456L1.67842 45.2376C0.541857 44.1283 -0.0176143 43.0147 6.80917e-06 41.8881C0.017628 40.7615 0.506615 39.7346 1.46256 38.8029C2.46256 37.828 3.54186 37.334 4.69604 37.3123C5.85023 37.295 6.9956 37.8366 8.13217 38.9459L21.7841 52.2486C23.3392 53.7608 24.8326 54.8311 26.2731 55.4594C27.7137 56.0877 29.2291 56.183 30.8194 55.754C32.4097 55.3251 34.1145 54.2201 35.9427 52.4392C38.4626 49.9823 39.6652 47.6771 39.5419 45.5236C39.4185 43.37 38.1674 41.1341 35.793 38.8203L28.4582 31.7356C27.3084 30.6177 26.7445 29.4997 26.7621 28.3905C26.7797 27.2769 27.2731 26.2499 28.2467 25.301C29.2159 24.3563 30.2864 23.8624 31.4493 23.8234C32.6123 23.7844 33.7709 24.326 34.9163 25.444L41.8326 32.1213C44.0044 34.2358 45.5727 36.2377 46.5375 38.127C47.5022 40.0162 47.8634 42.1524 47.6123 44.5356C47.3877 46.5765 46.7225 48.5524 45.6123 50.4677C44.5066 52.3829 42.9207 54.3415 40.8634 56.3477C38.4141 58.7352 36.0749 60.5638 33.8458 61.8377C31.6167 63.1117 29.4626 63.8223 27.3789 63.9696C25.2952 64.117 23.2423 63.7096 21.2115 62.7477C19.1806 61.7857 17.1189 60.2865 15.022 58.2413L15.0264 58.2456Z" fill="url(#paint1_linear_13_4)"/>
    <path d="M23.3524 24.6814C26.0603 24.6814 28.2555 22.5222 28.2555 19.8586C28.2555 17.1951 26.0603 15.0359 23.3524 15.0359C20.6445 15.0359 18.4493 17.1951 18.4493 19.8586C18.4493 22.5222 20.6445 24.6814 23.3524 24.6814Z" fill="url(#paint2_radial_13_4)"/>
  </g>
  <path d="M68.7812 15.9062H74.9375V40.25C74.9375 44.5 75.6042 47.5833 76.9375 49.5C78.2917 51.3958 80.4688 52.3438 83.4688 52.3438C86.6354 52.3438 88.9167 51.3958 90.3125 49.5C91.7083 47.5833 92.4062 44.4479 92.4062 40.0938V15.9062H97.7812V39.1875C97.7812 44.2083 97.1875 47.8125 96 50C93.4792 54.6458 89.3229 56.9688 83.5312 56.9688C78.5104 56.9688 74.7917 55.5938 72.375 52.8438C69.9792 50.0938 68.7812 45.8646 68.7812 40.1562V15.9062ZM108.25 56V22.0625H114.406V28.4375C117.24 23.6875 121.094 21.3125 125.969 21.3125C132.406 21.3125 135.625 25.1354 135.625 32.7812V56H129.469V34.4688C129.469 31.8229 129.052 29.9479 128.219 28.8438C127.406 27.7188 126.031 27.1562 124.094 27.1562C121.01 27.1562 117.781 29.375 114.406 33.8125V56H108.25ZM158.875 56V26.6875H146.531V22.0625H165.031V56H158.875ZM158.094 14.375V6.65625H165.812V14.375H158.094ZM211.25 16.8438V22.1875C206.729 20.4375 202.708 19.5625 199.188 19.5625C193.625 19.5625 190.844 21.4375 190.844 25.1875C190.844 26.7083 191.365 27.9375 192.406 28.875C193.448 29.7917 195.375 30.7396 198.188 31.7188L202.125 33.0938L205.875 34.375C211.688 36.4167 214.594 39.875 214.594 44.75C214.594 48.4583 213.104 51.4271 210.125 53.6562C207.167 55.8646 203.198 56.9688 198.219 56.9688C194.76 56.9688 190.292 56.2292 184.812 54.75V48.6562C190.271 51.1146 194.802 52.3438 198.406 52.3438C201.448 52.3438 203.875 51.75 205.688 50.5625C207.5 49.3542 208.406 47.7396 208.406 45.7188C208.406 44.1771 207.865 42.9583 206.781 42.0625C205.719 41.1667 203.51 40.1042 200.156 38.875L196.031 37.375C191.927 35.8542 189.073 34.2917 187.469 32.6875C185.885 31.0833 185.094 28.9479 185.094 26.2812C185.094 22.6771 186.312 19.8854 188.75 17.9062C191.208 15.9271 194.656 14.9375 199.094 14.9375C202.698 14.9375 206.75 15.5729 211.25 16.8438ZM244.344 51.9062C240.615 55.0312 236.896 56.5938 233.188 56.5938C230.083 56.5938 227.521 55.7083 225.5 53.9375C223.5 52.1667 222.5 49.9271 222.5 47.2188C222.5 43.6979 224.062 40.8646 227.188 38.7188C230.312 36.5729 234.438 35.5 239.562 35.5H243.375V32.5938C243.375 30.1979 242.844 28.4896 241.781 27.4688C240.719 26.4479 238.958 25.9375 236.5 25.9375C232.938 25.9375 229.25 26.9375 225.438 28.9375V23.6562C229.812 22.0938 233.917 21.3125 237.75 21.3125C242.062 21.3125 245.104 22.1667 246.875 23.875C248.667 25.5833 249.562 28.5312 249.562 32.7188V46.9375C249.562 48.9792 249.781 50.375 250.219 51.125C250.656 51.8542 251.479 52.2188 252.688 52.2188C253.083 52.2188 253.729 52.1146 254.625 51.9062L255.188 55.5938C253.125 56.2604 251.562 56.5938 250.5 56.5938C247.458 56.5938 245.406 55.0312 244.344 51.9062ZM243.375 47.9062V39.3438H241.531C233.094 39.3438 228.875 41.625 228.875 46.1875C228.875 47.8333 229.417 49.1562 230.5 50.1562C231.583 51.1562 233.021 51.6562 234.812 51.6562C237.5 51.6562 240.354 50.4062 243.375 47.9062ZM291.25 55.9688C288.167 56.5104 285.188 56.7812 282.312 56.7812C277.292 56.7812 273.875 55.8854 272.062 54.0938C270.25 52.2812 269.344 48.8646 269.344 43.8438V27.4688H260.875V22.8438H269.344V15.5312H275.531V22.8438H290.562V27.4688H275.531V44.8438C275.531 46.7812 275.646 48.1146 275.875 48.8438C276.125 49.5729 276.646 50.2083 277.438 50.75C278.854 51.6875 280.917 52.1562 283.625 52.1562C286.188 52.1562 288.729 51.8646 291.25 51.2812V55.9688Z" fill="white"/>
  <defs>
    <linearGradient id="paint0_linear_13_4" x1="47.1299" y1="13.3372" x2="5.9782" y2="31.9299" gradientUnits="userSpaceOnUse">
      <stop stop-color="#201C1B"/>
      <stop offset="0.36" stop-color="#77390D"/>
      <stop offset="0.67" stop-color="#EA8101"/>
      <stop offset="1" stop-color="#F4B852"/>
    </linearGradient>
    <linearGradient id="paint1_linear_13_4" x1="5.01376" y1="51.203" x2="52.8347" y2="36.7334" gradientUnits="userSpaceOnUse">
      <stop stop-color="#1F1D1C"/>
      <stop offset="0.37" stop-color="#77390D"/>
      <stop offset="0.67" stop-color="#EA8101"/>
      <stop offset="1" stop-color="#F4FB52"/>
    </linearGradient>
    <radialGradient id="paint2_radial_13_4" cx="0" cy="0" r="1" gradientUnits="userSpaceOnUse" gradientTransform="translate(23.3524 19.863) scale(4.90308 4.82275)">
      <stop stop-color="#F4B852"/>
      <stop offset="0.33" stop-color="#EA8101"/>
      <stop offset="0.64" stop-color="#77390D"/>
      <stop offset="1" stop-color="#211C1D"/>
    </radialGradient>
    <clipPath id="clip0_13_4">
      <rect width="51" height="64" fill="white"/>
    </clipPath>
  </defs>
</svg>