<?xml version="1.0" encoding="UTF-8"?>
<svg width="16px" height="16px" viewBox="0 0 16 16" version="1.1" xmlns="http://www.w3.org/2000/svg" xmlns:xlink="http://www.w3.org/1999/xlink">
    <title>Image备份</title>
    <defs>
        <circle id="path-1" cx="8" cy="8" r="8"></circle>
    </defs>
    <g id="页面-1" stroke="none" stroke-width="1" fill="none" fill-rule="evenodd">
        <g id="To-linea-积分备份-5" transform="translate(-834.000000, -535.000000)">
            <g id="编组备份" transform="translate(832.000000, 533.000000)">
                <g id="Image备份" transform="translate(2.000000, 2.000000)">
                    <mask id="mask-2" fill="white">
                        <use xlink:href="#path-1"></use>
                    </mask>
                    <use id="蒙版" fill="#FFFFFF" xlink:href="#path-1"></use>
                    <g id="LP6IUXUIL04T8" mask="url(#mask-2)">
                        <path d="M16,7.68459984 C16,9.28430257 15.4911436,10.7698279 14.6204192,12 C13.030728,11.8188316 11.4208363,11.7005435 9.79353662,11.6477832 L9.78777023,11.634493 L6.23415292,4.76273863 C5.90060917,4.11777138 5.21558783,3.70986808 4.46584878,3.70985067 L1.15189555,3.70981583 C2.55369324,1.48614021 5.09616198,0 8.00000907,0 C12.4182761,0 16,3.44051047 16,7.68459984 Z" id="路径" fill="#1B1B50" fill-rule="nonzero"></path>
                        <path d="M0,7.68459984 C0,9.26970598 0.499628381,10.7427423 1.35586606,11.966278 C3.03799718,11.7833329 4.74249027,11.6707232 6.46604145,11.6316364 C6.34349667,11.6166218 6.23565798,11.5430814 6.18120371,11.4343386 L3.07580509,5.23352223 C2.70575902,4.49460031 1.92764137,4.02473989 1.07400581,4.02473989 L0.963813431,4.02473989 C0.349116625,5.11286521 0,6.35956733 0,7.68459984 Z M1.85244261,7.98194877 L1.99050949,8.39189001 C2.00958571,8.44858679 2.09328898,8.44797715 2.11142227,8.39094942 L2.24306997,7.97916183 C2.26985284,7.895484 2.33736308,7.82952065 2.42394954,7.80255702 L2.85068028,7.6698639 C2.90968601,7.65152237 2.90905135,7.57124112 2.84971922,7.55366599 L2.42106635,7.42713898 C2.33399029,7.40141205 2.26551898,7.33652864 2.23746678,7.25330368 L2.09938177,6.84336244 C2.08030555,6.78664824 1.99660227,6.7872753 1.97848712,6.84412885 L1.84682129,7.2560732 C1.82003842,7.33975103 1.75253362,7.40555762 1.6659399,7.43253867 L1.23922367,7.56523178 C1.18037207,7.58357332 1.1808526,7.66401133 1.24018473,7.6814297 L1.66882491,7.80811347 C1.75590097,7.83368364 1.82437228,7.89856705 1.85244261,7.98194877 Z" id="形状" fill="#1B1B50"></path>
                        <path d="M1.47485672,11.9534581 C3.11834579,11.7780552 4.78309071,11.6698 6.46598705,11.6316364 C6.34344227,11.6166218 6.23560358,11.543064 6.18114931,11.4343211 L4.56425815,8.20573993 C3.3582311,9.30473431 2.31562126,10.5662246 1.47485672,11.9534581 Z" id="路径" fill="#FF4F0A" fill-rule="nonzero"></path>
                        <path d="M7.04117504,6.32338938 C9.31991319,4.89081588 11.9685161,3.95203563 14.8204294,3.6662525 C15.5685546,4.83540805 16,6.21159831 16,7.68459984 C16,9.28430257 15.4911255,10.7698279 14.6204011,12 C13.0307099,11.8188316 11.4208,11.700526 9.79348222,11.6477832 L9.78771583,11.6344756 L7.04117504,6.32338938 Z" id="路径" fill="#FF4F0A" fill-rule="nonzero"></path>
                        <path d="M14.8204294,3.66626991 C14.9062362,3.80033908 14.9878541,3.93714292 15.0651382,4.07648985 C14.2737651,4.2968496 13.6006573,4.83094895 13.2324971,5.5661085 L10.2133586,11.5946746 C10.2013543,11.6186249 10.186757,11.6408855 10.1699837,11.6611779 C10.0446102,11.6563356 9.91912779,11.6518765 9.79353662,11.6478006 L9.78777023,11.634493 L8.43787364,9.02414186 L9.41542123,6.72026685 C9.86889857,5.65151075 10.6830652,4.79513679 11.690297,4.25945237 C12.6988162,3.97459241 13.7451797,3.77401993 14.8204294,3.66626991 Z" id="路径" fill="#1B1B50" fill-rule="nonzero" opacity="0.65"></path>
                        <path d="M10.1618238,11.6608644 C10.0391702,11.6561266 9.91638966,11.651772 9.79351848,11.6477832 L9.7877521,11.634493 L8.55515977,9.25098123 C9.65980359,8.68120907 10.8356387,8.22223512 12.0665265,7.88956175 L10.2190706,11.5785452 C10.2038567,11.608888 10.1845085,11.6364961 10.1618238,11.6608644 Z" id="路径" fill="#1B1B50" fill-rule="nonzero"></path>
                    </g>
                </g>
            </g>
        </g>
    </g>
</svg>