<svg width="16" height="16" viewBox="0 0 16 16" fill="none" xmlns="http://www.w3.org/2000/svg">
<circle cx="8" cy="8" r="8" fill="white"/>
<path d="M15.9999 8C15.9999 9.66535 15.4911 11.2118 14.6204 12.4925C13.0307 12.3039 11.4208 12.1808 9.79348 12.1258L9.78772 12.112L6.2341 4.95821C5.90056 4.28678 5.21554 3.86213 4.4658 3.86211L1.15186 3.86208C2.55365 1.54714 5.09612 0 7.99996 0C12.4182 0 15.9999 3.58172 15.9999 8Z" fill="#1B1B50"/>
<path fill-rule="evenodd" clip-rule="evenodd" d="M0 7.99952C0 9.64969 0.499628 11.1832 1.35586 12.4569C3.03799 12.2665 4.74248 12.1492 6.46603 12.1086C6.34349 12.0929 6.23565 12.0164 6.18119 11.9032L3.0758 5.44785C2.70575 4.6786 1.92764 4.18945 1.074 4.18945H0.963812C0.349116 5.32224 0 6.62011 0 7.99952ZM1.85244 8.30908L1.99051 8.73584C2.00958 8.79487 2.09329 8.79423 2.11142 8.73486L2.24307 8.30617C2.26985 8.21906 2.33736 8.15039 2.42395 8.12232L2.85068 7.98418C2.90968 7.96509 2.90905 7.88151 2.84971 7.86322L2.42106 7.7315C2.33399 7.70471 2.26552 7.63717 2.23746 7.55053L2.09938 7.12376C2.0803 7.06472 1.9966 7.06537 1.97848 7.12456L1.84682 7.55341C1.82004 7.64052 1.75253 7.70903 1.66594 7.73712L1.23922 7.87526C1.18037 7.89435 1.18085 7.97809 1.24018 7.99622L1.66882 8.12811C1.7559 8.15473 1.82437 8.22227 1.85244 8.30908Z" fill="#1B1B50"/>
<path d="M1.47473 12.4445C3.11822 12.2619 4.78296 12.1492 6.46585 12.1095C6.34331 12.0938 6.23547 12.0173 6.18102 11.9041L4.56413 8.54297C3.3581 9.68707 2.31549 11.0003 1.47473 12.4445Z" fill="#FF4F0A"/>
<path d="M7.04114 6.5826C9.31987 5.09123 11.9685 4.11392 14.8204 3.81641C15.5685 5.03355 15.9999 6.46622 15.9999 7.99968C15.9999 9.66504 15.4911 11.2115 14.6204 12.4922C13.0307 12.3036 11.4208 12.1804 9.79344 12.1255L9.78767 12.1117L7.04114 6.5826Z" fill="#FF4F0A"/>
<path opacity="0.65" d="M14.8204 3.81641C14.9062 3.95598 14.9878 4.0984 15.0651 4.24346C14.2737 4.47287 13.6006 5.02889 13.2325 5.79422L10.2133 12.0702C10.2013 12.0951 10.1867 12.1183 10.17 12.1394C10.0446 12.1344 9.91912 12.1298 9.79353 12.1255L9.78776 12.1117L8.43787 9.39418L9.41541 6.99575C9.86889 5.88313 10.6831 4.9916 11.6903 4.43393C12.6988 4.13738 13.7452 3.92858 14.8204 3.81641Z" fill="#1B1B50"/>
<path d="M10.1618 12.14C10.0392 12.135 9.9164 12.1305 9.79353 12.1263L9.78777 12.1125L8.55518 9.63116C9.65982 9.03801 10.8357 8.56019 12.0665 8.21387L10.2191 12.0543C10.2039 12.0858 10.1845 12.1146 10.1618 12.14Z" fill="#1B1B50"/>
</svg>
