<svg width="14" height="14" viewBox="0 0 14 14" fill="none" xmlns="http://www.w3.org/2000/svg">
<path d="M5.0625 5.73904H6.75C6.92902 5.73904 7.10071 5.66794 7.2273 5.54138C7.35389 5.41482 7.425 5.24316 7.425 5.06418C7.425 4.88519 7.35389 4.71354 7.2273 4.58697C7.10071 4.46041 6.92902 4.38931 6.75 4.38931H6.075V4.05188C6.075 3.87289 6.00389 3.70124 5.8773 3.57468C5.75071 3.44811 5.57902 3.37701 5.4 3.37701C5.22098 3.37701 5.04929 3.44811 4.92271 3.57468C4.79612 3.70124 4.725 3.87289 4.725 4.05188V4.42305C4.31489 4.50631 3.95035 4.73896 3.70215 5.07583C3.45395 5.41269 3.33979 5.82975 3.38185 6.24603C3.42391 6.66232 3.61917 7.04813 3.92974 7.32856C4.24031 7.609 4.64402 7.76406 5.0625 7.76364H5.7375C5.82701 7.76364 5.91286 7.79919 5.97615 7.86247C6.03944 7.92575 6.075 8.01158 6.075 8.10107C6.075 8.19057 6.03944 8.27639 5.97615 8.33967C5.91286 8.40296 5.82701 8.43851 5.7375 8.43851H4.05C3.87098 8.43851 3.69929 8.50961 3.57271 8.63617C3.44612 8.76273 3.375 8.93439 3.375 9.11337C3.375 9.29236 3.44612 9.46401 3.57271 9.59058C3.69929 9.71714 3.87098 9.78824 4.05 9.78824H4.725V10.1257C4.725 10.3047 4.79612 10.4763 4.92271 10.6029C5.04929 10.7294 5.22098 10.8005 5.4 10.8005C5.57902 10.8005 5.75071 10.7294 5.8773 10.6029C6.00389 10.4763 6.075 10.3047 6.075 10.1257V9.7545C6.48512 9.67124 6.84966 9.43859 7.09786 9.10172C7.34606 8.76485 7.46021 8.3478 7.41815 7.93151C7.3761 7.51523 7.18083 7.12942 6.87026 6.84899C6.5597 6.56855 6.15599 6.41349 5.7375 6.41391H5.0625C4.97299 6.41391 4.88715 6.37836 4.82385 6.31508C4.76056 6.2518 4.725 6.16597 4.725 6.07648C4.725 5.98698 4.76056 5.90116 4.82385 5.83787C4.88715 5.77459 4.97299 5.73904 5.0625 5.73904ZM12.825 6.75134H10.8V0.677548C10.8005 0.55863 10.7695 0.441699 10.7102 0.338594C10.651 0.23549 10.5655 0.149874 10.4625 0.0904149C10.3599 0.0311831 10.2435 0 10.125 0C10.0065 0 9.89011 0.0311831 9.7875 0.0904149L7.7625 1.25118L5.7375 0.0904149C5.63489 0.0311831 5.51849 0 5.4 0C5.28152 0 5.16512 0.0311831 5.0625 0.0904149L3.0375 1.25118L1.0125 0.0904149C0.909892 0.0311831 0.793492 0 0.675005 0C0.556518 0 0.440118 0.0311831 0.337505 0.0904149C0.234497 0.149874 0.149033 0.23549 0.0897656 0.338594C0.0304984 0.441699 -0.000466887 0.55863 5.32094e-06 0.677548V11.4754C5.32094e-06 12.0124 0.213353 12.5273 0.593114 12.907C0.972875 13.2867 1.48794 13.5 2.025 13.5H11.475C12.0121 13.5 12.5271 13.2867 12.9069 12.907C13.2867 12.5273 13.5 12.0124 13.5 11.4754V7.42621C13.5 7.24722 13.4289 7.07557 13.3023 6.94901C13.1757 6.82244 13.004 6.75134 12.825 6.75134ZM2.025 12.1503C1.84598 12.1503 1.67429 12.0792 1.54771 11.9526C1.42112 11.826 1.35 11.6544 1.35 11.4754V1.84507L2.7 2.61441C2.80418 2.66882 2.91997 2.69723 3.0375 2.69723C3.15504 2.69723 3.27083 2.66882 3.375 2.61441L5.4 1.45364L7.425 2.61441C7.52918 2.66882 7.64497 2.69723 7.7625 2.69723C7.88003 2.69723 7.99582 2.66882 8.1 2.61441L9.45 1.84507V11.4754C9.45183 11.7056 9.49292 11.9339 9.5715 12.1503H2.025ZM12.15 11.4754C12.15 11.6544 12.0789 11.826 11.9523 11.9526C11.8257 12.0792 11.654 12.1503 11.475 12.1503C11.296 12.1503 11.1243 12.0792 10.9977 11.9526C10.8711 11.826 10.8 11.6544 10.8 11.4754V8.10107H12.15V11.4754Z" fill="#18191F"/>
</svg>
