<svg width="15.000122" height="15.000000" viewBox="0 0 15.0001 15" fill="none" xmlns="http://www.w3.org/2000/svg" xmlns:xlink="http://www.w3.org/1999/xlink">
	<path id="Vector" d="M4.23 14.18C4.2 14.18 4.17 14.18 4.15 14.18C2.7 13.47 1.51 12.27 0.78 10.83C0.78 10.8 0.8 10.77 0.8 10.74C1.71 11.01 2.66 11.22 3.6 11.37C3.76 12.33 3.96 13.26 4.23 14.18Z" fill="#999999" fill-opacity="1.000000" fill-rule="evenodd"/>
	<path id="Vector" d="M14.19 10.83C13.45 12.33 12.22 13.53 10.71 14.25C10.99 13.31 11.23 12.34 11.39 11.37C12.34 11.22 13.26 11.01 14.18 10.74C14.18 10.77 14.19 10.8 14.19 10.83Z" fill="#999999" fill-opacity="1.000000" fill-rule="evenodd"/>
	<path id="Vector" d="M14.25 4.28C13.31 3.99 12.36 3.75 11.39 3.59C11.23 2.63 11 1.67 10.71 0.73C12.26 1.46 13.51 2.72 14.25 4.28Z" fill="#999999" fill-opacity="1.000000" fill-rule="evenodd"/>
	<path id="Vector" d="M4.23 0.81C3.96 1.72 3.77 2.65 3.61 3.6C2.64 3.75 1.68 3.98 0.73 4.27C1.45 2.76 2.66 1.53 4.16 0.78C4.18 0.78 4.21 0.81 4.23 0.81Z" fill="#999999" fill-opacity="1.000000" fill-rule="evenodd"/>
	<path id="Vector" d="M10.11 3.43C8.37 3.23 6.62 3.23 4.88 3.43C5.07 2.4 5.31 1.38 5.64 0.39C5.66 0.33 5.65 0.29 5.66 0.22C6.24 0.09 6.86 0 7.5 0C8.12 0 8.74 0.09 9.33 0.22C9.33 0.29 9.33 0.33 9.35 0.39C9.69 1.38 9.93 2.4 10.11 3.43Z" fill="#999999" fill-opacity="1.000000" fill-rule="evenodd"/>
	<path id="Vector" d="M3.43 10.11C2.4 9.93 1.38 9.69 0.39 9.35C0.32 9.33 0.29 9.34 0.22 9.33C0.08 8.74 0 8.13 0 7.5C0 6.87 0.08 6.24 0.22 5.67C0.29 5.66 0.32 5.66 0.39 5.64C1.38 5.31 2.4 5.07 3.43 4.88C3.24 6.62 3.24 8.37 3.43 10.11Z" fill="#999999" fill-opacity="1.000000" fill-rule="evenodd"/>
	<path id="Vector" d="M15 7.5C15 8.13 14.9 8.74 14.76 9.33C14.7 9.34 14.66 9.33 14.59 9.35C13.6 9.68 12.58 9.93 11.55 10.11C11.75 8.37 11.75 6.62 11.55 4.88C12.58 5.07 13.6 5.31 14.59 5.64C14.66 5.66 14.7 5.67 14.76 5.67C14.9 6.26 15 6.87 15 7.5Z" fill="#999999" fill-opacity="1.000000" fill-rule="evenodd"/>
	<path id="Vector" d="M10.11 11.55C9.93 12.58 9.69 13.6 9.35 14.59C9.33 14.66 9.33 14.7 9.33 14.76C8.74 14.9 8.12 15 7.5 15C6.86 15 6.24 14.9 5.66 14.76C5.65 14.7 5.66 14.66 5.64 14.59C5.31 13.6 5.07 12.58 4.88 11.55C5.75 11.64 6.62 11.71 7.5 11.71C8.37 11.71 9.24 11.64 10.11 11.55Z" fill="#999999" fill-opacity="1.000000" fill-rule="evenodd"/>
	<path id="Vector" d="M10.32 10.31C8.44 10.55 6.54 10.55 4.67 10.31C4.44 8.44 4.44 6.54 4.67 4.67C6.54 4.43 8.44 4.43 10.32 4.67C10.55 6.54 10.55 8.44 10.32 10.31Z" fill="#999999" fill-opacity="1.000000" fill-rule="evenodd"/>
</svg>
