<svg width="14.000000" height="12.000000" viewBox="0 0 14 12" fill="none" xmlns="http://www.w3.org/2000/svg" xmlns:xlink="http://www.w3.org/1999/xlink">
	<path id="path" d="M0.24707 5.75391L3.4751 6.94067L4.72339 10.8921C4.80127 11.1448 5.11621 11.2405 5.32617 11.072L7.12305 9.62842C7.31372 9.47534 7.58203 9.46777 7.77637 9.60938L11.02 11.9297C11.2456 12.0867 11.5608 11.9678 11.6191 11.7036L13.9915 0.450928C14.0537 0.159912 13.7659 -0.0812988 13.4819 0.0258789L0.243164 5.05322C-0.0834961 5.17554 -0.079834 5.63135 0.24707 5.75391ZM10.8257 2.48413L4.52124 6.30908C4.28003 6.45435 4.16724 6.7417 4.24512 7.00952L4.92578 9.36816C4.97241 9.53662 5.22119 9.51758 5.24463 9.34521L5.41968 8.05493C5.45459 7.80981 5.57129 7.58398 5.75415 7.41919L10.9578 2.65625C11.0552 2.56836 10.9385 2.41504 10.8257 2.48413Z" clip-rule="evenodd" fill="#999999" fill-opacity="1.000000" fill-rule="evenodd"/>
</svg>
