<svg width="16.000000" height="12.000000" viewBox="0 0 16 12" fill="none" xmlns="http://www.w3.org/2000/svg" xmlns:xlink="http://www.w3.org/1999/xlink">
	<path id="Vector" d="M10.2549 0C11.3962 0.186279 12.5073 0.528809 13.5527 1.0022C15.366 3.62573 16.2649 6.57666 15.9316 9.98584C14.5476 10.9929 13.2043 11.6023 11.8811 12C11.5527 11.5669 11.2649 11.1038 11.0125 10.6152C11.4871 10.439 11.9468 10.2224 12.3811 9.9707C12.27 9.89014 12.1589 9.80444 12.0476 9.71387C9.44678 10.9072 6.58813 10.9072 3.95166 9.71387C3.8457 9.80444 3.73462 9.89014 3.61841 9.9707C4.05273 10.2224 4.51221 10.439 4.98193 10.6152C4.73462 11.0986 4.44678 11.562 4.11841 12C2.79517 11.5972 1.45166 10.9929 0.0678711 9.98584C-0.215088 7.04492 0.350586 4.06372 2.44165 1.00708C3.49219 0.528809 4.60327 0.191406 5.74463 0C5.88599 0.246826 6.05786 0.584229 6.17383 0.845947C7.3811 0.669678 8.59814 0.669678 9.83057 0.845947C9.94678 0.584229 10.1133 0.246826 10.2549 0ZM5.34058 8.17798C4.55273 8.17798 3.90625 7.46289 3.90625 6.5918C3.90625 5.72559 4.5376 5.00537 5.34058 5.00537C6.14868 5.00537 6.79517 5.72046 6.78003 6.5918C6.78003 7.46289 6.14868 8.17798 5.34058 8.17798ZM9.21948 6.5918C9.21948 7.46289 9.86597 8.17798 10.6589 8.17798C11.4619 8.17798 12.0981 7.46289 12.0981 6.5918C12.1084 5.72046 11.4619 5.00537 10.6589 5.00537C9.85571 5.00537 9.21948 5.72559 9.21948 6.5918Z" clip-rule="evenodd" fill="#999999" fill-opacity="1.000000" fill-rule="evenodd"/>
</svg>
