<svg width="13.240479" height="12.600098" viewBox="0 0 13.2405 12.6001" fill="none" xmlns="http://www.w3.org/2000/svg" xmlns:xlink="http://www.w3.org/1999/xlink">
	<mask fill="white">
		<path d="M7.80481 5.38135L12.2721 0.300049L11.2135 0.300049L7.33459 4.71191L4.23645 0.300049L0.663208 0.300049L5.34814 6.97168L0.663208 12.3L1.72192 12.3L5.81812 7.64087L9.08997 12.3L12.6632 12.3L7.80457 5.38135L7.80481 5.38135ZM5.88013 6.36597L6.35486 7.03052L6.35486 7.03076L9.58801 11.5557L11.214 11.5557L7.25195 6.01025L6.77734 5.34595L3.72937 1.07983L2.10327 1.07983L5.88013 6.36597Z" clip-rule="evenodd" fill="" fill-opacity="1.000000" fill-rule="evenodd"/>
	</mask>
	<path d="M7.80481 5.38135L12.2721 0.300049L11.2135 0.300049L7.33459 4.71191L4.23645 0.300049L0.663208 0.300049L5.34814 6.97168L0.663208 12.3L1.72192 12.3L5.81812 7.64087L9.08997 12.3L12.6632 12.3L7.80457 5.38135L7.80481 5.38135ZM5.88013 6.36597L6.35486 7.03052L6.35486 7.03076L9.58801 11.5557L11.214 11.5557L7.25195 6.01025L6.77734 5.34595L3.72937 1.07983L2.10327 1.07983L5.88013 6.36597Z" clip-rule="evenodd" fill="#999999" fill-opacity="1.000000" fill-rule="evenodd" mask="url(#mask_103_506)"/>
	<path d="M7.57959 5.18311L12.0468 0.102051L12.2721 0.300049L12.2721 0.600098L11.2135 0.600098L11.2135 0.300049L11.4388 0.498047L7.30811 5.19629L3.99097 0.472412L4.23645 0.300049L4.23645 0.600098L0.663208 0.600098L0.663208 0.300049L0.908691 0.127686L5.72937 6.99243L0.88855 12.498L0.663208 12.3L0.663208 12L1.72192 12L1.72192 12.3L1.49658 12.1021L5.84448 7.15649L9.33545 12.1277L9.08997 12.3L9.08997 12L12.6632 12L12.6632 12.3L12.4177 12.4724L7.22729 5.0813L7.80481 5.0813L7.80481 5.38135L7.57959 5.18311ZM7.94055 5.68115L7.80457 5.68115L7.80457 5.38135L8.05005 5.20874L13.2405 12.6001L8.93396 12.6001L5.57263 7.81323L5.81812 7.64087L6.04346 7.83911L1.85754 12.6001L0 12.6001L5.1228 6.77344L5.34814 6.97168L5.10266 7.14404L0.0859375 0L4.39246 0L7.58008 4.53955L7.33459 4.71191L7.10925 4.51392L11.0778 0L12.9353 0L8.03015 5.57935L7.94055 5.68115ZM6.12427 6.19165L6.65491 6.93433L6.65491 7.03076L6.35486 7.03076L6.599 6.8562L9.83203 11.3813L9.58801 11.5557L9.58801 11.2556L11.214 11.2556L11.214 11.5557L10.9698 11.7302L7.00793 6.18481L6.5332 5.52051L3.48523 1.25415L3.72937 1.07983L3.72937 1.37988L2.10327 1.37988L2.10327 1.07983L2.34741 0.905518L6.12427 6.19165L6.12427 6.19165ZM5.63611 6.54053L1.52026 0.779785L3.88367 0.779785L7.02136 5.17163L7.49609 5.83594L11.797 11.8557L9.43359 11.8557L6.05481 7.12695L6.05481 7.03052L6.35486 7.03052L6.11072 7.20483L5.63611 6.54053L5.63611 6.54053Z" fill="#999999" fill-opacity="1.000000" fill-rule="nonzero"/>
</svg>