<svg width="20.000000" height="20.000000" viewBox="0 0 20 20" fill="none" xmlns="http://www.w3.org/2000/svg" xmlns:xlink="http://www.w3.org/1999/xlink">
	<rect width="20.000000" height="20.000000" fill="#D8D8D8" fill-opacity="0"/>
	<rect x="0.500000" y="0.500000" width="19.000000" height="19.000000" stroke="#979797" stroke-opacity="0" stroke-width="1.000000"/>
	<path d="M9.18 4.05L9.18 4.08L8.67 4.6L14.31 10.24L8.67 15.88L9.18 16.4L9.18 16.42C8.89 16.72 8.42 16.72 8.12 16.42C7.82 16.13 7.82 15.66 8.12 15.36L8.15 15.36L8.65 15.87L8.65 4.61L8.15 5.11L8.12 5.11C7.82 4.81 7.82 4.35 8.12 4.05C8.42 3.75 8.89 3.75 9.18 4.05Z" fill="#D8D8D8" fill-opacity="0" fill-rule="evenodd"/>
	<path d="M8.65 15.89L14.31 10.24L8.65 4.58" stroke="#222222" stroke-opacity="1.000000" stroke-width="1.500000" stroke-linejoin="round" stroke-linecap="round"/>
</svg>
