<svg width="24.000000" height="24.000000" viewBox="0 0 24 24" fill="none" xmlns="http://www.w3.org/2000/svg" xmlns:xlink="http://www.w3.org/1999/xlink">
	<rect id="vuesax/bold/info-circle" width="24.000000" height="24.000000" fill="#FFFFFF" fill-opacity="0"/>
	<path id="Vector" d="M12 2C6.48 2 2 6.48 2 12C2 17.51 6.48 22 12 22C17.51 22 22 17.51 22 12C22 6.48 17.51 2 12 2Z" fill="#EF2F2D" fill-opacity="1.000000" fill-rule="nonzero"/>
	<g opacity="0.000000"/>
	<path id="ï¼" d="M11.28 13.39L12.71 13.39L13.09 9.61L13.16 7.52L10.83 7.52L10.9 9.61L11.28 13.39ZM12 17.12C12.7 17.12 13.23 16.61 13.23 15.89C13.23 15.14 12.7 14.64 12 14.64C11.29 14.64 10.76 15.14 10.76 15.89C10.76 16.61 11.28 17.12 12 17.12Z" fill="#FFFFFF" fill-opacity="1.000000" fill-rule="nonzero"/>
</svg>
