<svg width="24.000000" height="24.000000" viewBox="0 0 24 24" fill="none" xmlns="http://www.w3.org/2000/svg" xmlns:xlink="http://www.w3.org/1999/xlink">
	<path d="M8.9 0L15.09 0C18.16 0 19.27 0.33 20.39 0.93C21.54 1.54 22.45 2.45 23.06 3.6C23.66 4.72 24 5.83 24 8.9L24 15.09C24 18.16 23.66 19.27 23.06 20.39C22.45 21.54 21.54 22.45 20.39 23.06C19.27 23.66 18.16 24 15.09 24L8.9 24C5.83 24 4.72 23.66 3.6 23.06C2.45 22.45 1.54 21.54 0.93 20.39C0.33 19.27 0 18.16 0 15.09L0 8.9C0 5.83 0.33 4.72 0.93 3.6C1.54 2.45 2.45 1.54 3.6 0.93C4.72 0.33 5.83 0 8.9 0Z" fill="#000000" fill-opacity="1.000000" fill-rule="evenodd"/>
	<path d="" fill="#FFFFFF" fill-opacity="0" fill-rule="evenodd"/>
	<mask fill="white">
		<path d="M13.2598 11.1094L18.1892 5.37939L17.0211 5.37939L12.741 10.3547L9.32227 5.37939L5.37939 5.37939L10.549 12.9028L5.37939 18.9119L6.54761 18.9119L11.0676 13.6577L14.6779 18.9119L18.6207 18.9119L13.2595 11.1094L13.2598 11.1094ZM11.1361 12.22L11.6598 12.9692L11.6598 12.9695L15.2274 18.0723L17.0216 18.0723L12.6498 11.8188L12.126 11.0698L8.7627 6.25879L6.96851 6.25879L11.1361 12.22Z" clip-rule="evenodd" fill="" fill-opacity="1.000000" fill-rule="evenodd"/>
	</mask>
	<path d="M13.2598 11.1094L18.1892 5.37939L17.0211 5.37939L12.741 10.3547L9.32227 5.37939L5.37939 5.37939L10.549 12.9028L5.37939 18.9119L6.54761 18.9119L11.0676 13.6577L14.6779 18.9119L18.6207 18.9119L13.2595 11.1094L13.2598 11.1094ZM11.1361 12.22L11.6598 12.9692L11.6598 12.9695L15.2274 18.0723L17.0216 18.0723L12.6498 11.8188L12.126 11.0698L8.7627 6.25879L6.96851 6.25879L11.1361 12.22Z" clip-rule="evenodd" fill="#FFFFFF" fill-opacity="1.000000" fill-rule="evenodd" mask="url(#mask_103_490)"/>
	<path d="M13.0703 10.9463L17.9998 5.21631L18.1892 5.37939L18.1892 5.62939L17.0211 5.62939L17.0211 5.37939L17.2106 5.54248L12.7188 10.7639L9.11633 5.521L9.32227 5.37939L9.32227 5.62939L5.37939 5.62939L5.37939 5.37939L5.58545 5.23779L10.864 12.9199L5.56897 19.0747L5.37939 18.9119L5.37939 18.6619L6.54761 18.6619L6.54761 18.9119L6.35803 18.7488L11.0897 13.2485L14.8839 18.7703L14.6779 18.9119L14.6779 18.6619L18.6207 18.6619L18.6207 18.9119L18.4147 19.0532L12.7844 10.8594L13.2598 10.8594L13.2598 11.1094L13.0703 10.9463ZM13.3745 11.3594L13.2595 11.3594L13.2595 11.1094L13.4656 10.9678L19.0959 19.1619L14.5463 19.1619L10.8616 13.7993L11.0676 13.6577L11.2571 13.8208L6.66223 19.1619L4.83447 19.1619L10.3595 12.74L10.549 12.9028L10.3429 13.0444L4.9043 5.12939L9.45386 5.12939L12.9469 10.2131L12.741 10.3547L12.5514 10.1917L16.9064 5.12939L18.734 5.12939L13.4493 11.2725L13.3745 11.3594ZM11.3409 12.0769L11.9098 12.8904L11.9098 12.9695L11.6598 12.9695L11.8647 12.8262L15.4323 17.9292L15.2274 18.0723L15.2274 17.8223L17.0216 17.8223L17.0216 18.0723L16.8168 18.2156L12.4449 11.9622L11.9211 11.2129L8.55786 6.4021L8.7627 6.25879L8.7627 6.50879L6.96851 6.50879L6.96851 6.25879L7.17334 6.11548L11.3409 12.0769L11.3409 12.0769ZM10.9312 12.3633L6.48865 6.00879L8.89294 6.00879L12.3309 10.9265L12.8547 11.6755L17.5015 18.3223L15.0972 18.3223L11.4098 13.0483L11.4098 12.9692L11.6598 12.9692L11.455 13.1125L10.9312 12.3633L10.9312 12.3633Z" fill="#FFFFFF" fill-opacity="1.000000" fill-rule="nonzero"/>
</svg>
