<svg width="32.000000" height="32.000000" viewBox="0 0 32 32" fill="none" xmlns="http://www.w3.org/2000/svg" xmlns:xlink="http://www.w3.org/1999/xlink">
	<desc>
			Created with Pixso.
	</desc>
	<defs>
		<clipPath id="clip3342_1999">
			<rect id="Discord" width="32.000000" height="32.000000" fill="white" fill-opacity="0"/>
		</clipPath>
	</defs>
	<g clip-path="url(#clip3342_1999)">
		<path id="path" d="M23.65 8.91C23.64 8.9 23.63 8.89 23.62 8.88C22.19 8.23 20.69 7.76 19.14 7.5C19.13 7.49 19.11 7.5 19.1 7.5C19.09 7.51 19.08 7.52 19.07 7.53C18.86 7.9 18.68 8.28 18.51 8.68C16.84 8.42 15.16 8.42 13.48 8.68C13.31 8.28 13.13 7.9 12.92 7.53C12.91 7.52 12.9 7.51 12.88 7.5C12.87 7.5 12.86 7.49 12.84 7.5C11.29 7.76 9.8 8.23 8.37 8.88C8.35 8.89 8.34 8.9 8.34 8.91C5.48 13.17 4.7 17.32 5.09 21.43C5.09 21.45 5.1 21.47 5.11 21.48C5.94 22.09 6.82 22.63 7.74 23.1C8.67 23.57 9.62 23.95 10.61 24.25C10.62 24.26 10.64 24.26 10.65 24.25C10.66 24.25 10.68 24.24 10.69 24.23C11.11 23.65 11.48 23.04 11.81 22.4C11.81 22.39 11.82 22.38 11.82 22.37C11.82 22.36 11.82 22.35 11.81 22.34C11.81 22.34 11.8 22.33 11.8 22.32C11.79 22.31 11.78 22.31 11.77 22.3C11.18 22.08 10.61 21.8 10.05 21.49C10.04 21.48 10.04 21.47 10.03 21.46C10.02 21.45 10.02 21.44 10.02 21.43C10.02 21.42 10.02 21.41 10.03 21.4C10.03 21.39 10.04 21.38 10.05 21.37C10.16 21.28 10.28 21.19 10.39 21.1C10.41 21.08 10.43 21.08 10.46 21.09C14.06 22.74 17.96 22.74 21.52 21.09C21.54 21.08 21.57 21.08 21.59 21.1C21.7 21.19 21.81 21.28 21.93 21.37C21.94 21.38 21.95 21.39 21.95 21.4C21.96 21.41 21.96 21.42 21.96 21.43C21.96 21.44 21.95 21.45 21.95 21.46C21.94 21.47 21.93 21.48 21.92 21.49C21.37 21.81 20.8 22.08 20.21 22.3C20.2 22.31 20.19 22.31 20.18 22.32C20.17 22.33 20.17 22.33 20.17 22.34C20.16 22.35 20.16 22.36 20.16 22.37C20.16 22.38 20.16 22.39 20.17 22.4C20.5 23.04 20.87 23.65 21.29 24.23C21.3 24.24 21.31 24.25 21.33 24.25C21.34 24.26 21.35 24.26 21.37 24.25C22.36 23.95 23.32 23.57 24.24 23.1C25.16 22.63 26.04 22.09 26.87 21.48C26.89 21.47 26.9 21.45 26.9 21.43C27.36 16.68 26.13 12.56 23.65 8.91ZM12.35 18.93C11.26 18.93 10.37 17.93 10.37 16.71C10.37 15.49 11.25 14.5 12.35 14.5C13.46 14.5 14.34 15.5 14.32 16.71C14.32 17.93 13.45 18.93 12.35 18.93ZM19.66 18.93C18.57 18.93 17.68 17.93 17.68 16.71C17.68 15.49 18.56 14.5 19.66 14.5C20.77 14.5 21.65 15.5 21.63 16.71C21.63 17.93 20.77 18.93 19.66 18.93Z" fill="#929292" fill-opacity="1.000000" fill-rule="nonzero"/>
	</g>
</svg>
