<svg width="26.100098" height="25.416992" viewBox="0 0 26.1001 25.417" fill="none" xmlns="http://www.w3.org/2000/svg" xmlns:xlink="http://www.w3.org/1999/xlink">
	<defs>
		<filter id="filter_6412_2933_dd" x="5.008545" y="14.916992" width="16.333252" height="10.500000" filterUnits="userSpaceOnUse" color-interpolation-filters="sRGB">
			<feFlood flood-opacity="0" result="BackgroundImageFix"/>
			<feGaussianBlur in="BackgroundImage" stdDeviation="2.66667"/>
			<feComposite in2="SourceAlpha" operator="in" result="effect_backgroundBlur_1"/>
			<feColorMatrix in="SourceAlpha" type="matrix" values="0 0 0 0 0 0 0 0 0 0 0 0 0 0 0 0 0 0 127 0" result="hardAlpha"/>
			<feOffset dx="0" dy="0"/>
			<feGaussianBlur stdDeviation="1.33333"/>
			<feComposite in2="hardAlpha" operator="out" k2="-1" k3="1"/>
			<feColorMatrix type="matrix" values="0 0 0 0 0.95294 0 0 0 0 0.66275 0 0 0 0 0.07451 0 0 0 0.4 0"/>
			<feBlend mode="normal" in2="effect_backgroundBlur_1" result="effect_dropShadow_2"/>
			<feBlend mode="normal" in="SourceGraphic" in2="effect_dropShadow_2" result="shape"/>
			<feColorMatrix in="SourceAlpha" type="matrix" values="0 0 0 0 0 0 0 0 0 0 0 0 0 0 0 0 0 0 127 0" result="hardAlpha"/>
			<feOffset dx="0" dy="0"/>
			<feGaussianBlur stdDeviation="2.66667"/>
			<feComposite in2="hardAlpha" operator="arithmetic" k2="-1" k3="1"/>
			<feColorMatrix type="matrix" values="0 0 0 0 0.95294 0 0 0 0 0.66275 0 0 0 0 0.07451 0 0 0 1 0"/>
			<feBlend mode="normal" in2="shape" result="effect_innerShadow_3"/>
		</filter>
		<filter id="filter_6412_2935_dd" x="2.466553" y="0.000000" width="21.166748" height="21.166504" filterUnits="userSpaceOnUse" color-interpolation-filters="sRGB">
			<feFlood flood-opacity="0" result="BackgroundImageFix"/>
			<feGaussianBlur in="BackgroundImage" stdDeviation="2.66667"/>
			<feComposite in2="SourceAlpha" operator="in" result="effect_backgroundBlur_1"/>
			<feColorMatrix in="SourceAlpha" type="matrix" values="0 0 0 0 0 0 0 0 0 0 0 0 0 0 0 0 0 0 127 0" result="hardAlpha"/>
			<feOffset dx="0" dy="0"/>
			<feGaussianBlur stdDeviation="1.33333"/>
			<feComposite in2="hardAlpha" operator="out" k2="-1" k3="1"/>
			<feColorMatrix type="matrix" values="0 0 0 0 0.95294 0 0 0 0 0.66275 0 0 0 0 0.07451 0 0 0 0.4 0"/>
			<feBlend mode="normal" in2="effect_backgroundBlur_1" result="effect_dropShadow_2"/>
			<feBlend mode="normal" in="SourceGraphic" in2="effect_dropShadow_2" result="shape"/>
			<feColorMatrix in="SourceAlpha" type="matrix" values="0 0 0 0 0 0 0 0 0 0 0 0 0 0 0 0 0 0 127 0" result="hardAlpha"/>
			<feOffset dx="0" dy="0"/>
			<feGaussianBlur stdDeviation="2.66667"/>
			<feComposite in2="hardAlpha" operator="arithmetic" k2="-1" k3="1"/>
			<feColorMatrix type="matrix" values="0 0 0 0 0.95294 0 0 0 0 0.66275 0 0 0 0 0.07451 0 0 0 1 0"/>
			<feBlend mode="normal" in2="shape" result="effect_innerShadow_3"/>
		</filter>
		<filter id="filter_6412_2936_dd" x="0.000000" y="1.958496" width="12.947998" height="16.049316" filterUnits="userSpaceOnUse" color-interpolation-filters="sRGB">
			<feFlood flood-opacity="0" result="BackgroundImageFix"/>
			<feGaussianBlur in="BackgroundImage" stdDeviation="2.66667"/>
			<feComposite in2="SourceAlpha" operator="in" result="effect_backgroundBlur_1"/>
			<feColorMatrix in="SourceAlpha" type="matrix" values="0 0 0 0 0 0 0 0 0 0 0 0 0 0 0 0 0 0 127 0" result="hardAlpha"/>
			<feOffset dx="0" dy="0"/>
			<feGaussianBlur stdDeviation="1.33333"/>
			<feComposite in2="hardAlpha" operator="out" k2="-1" k3="1"/>
			<feColorMatrix type="matrix" values="0 0 0 0 0.95294 0 0 0 0 0.66275 0 0 0 0 0.07451 0 0 0 0.4 0"/>
			<feBlend mode="normal" in2="effect_backgroundBlur_1" result="effect_dropShadow_2"/>
			<feBlend mode="normal" in="SourceGraphic" in2="effect_dropShadow_2" result="shape"/>
			<feColorMatrix in="SourceAlpha" type="matrix" values="0 0 0 0 0 0 0 0 0 0 0 0 0 0 0 0 0 0 127 0" result="hardAlpha"/>
			<feOffset dx="0" dy="0"/>
			<feGaussianBlur stdDeviation="2.66667"/>
			<feComposite in2="hardAlpha" operator="arithmetic" k2="-1" k3="1"/>
			<feColorMatrix type="matrix" values="0 0 0 0 0.95294 0 0 0 0 0.66275 0 0 0 0 0.07451 0 0 0 1 0"/>
			<feBlend mode="normal" in2="shape" result="effect_innerShadow_3"/>
		</filter>
		<filter id="filter_6412_2937_dd" x="13.152100" y="1.958496" width="12.947998" height="16.049316" filterUnits="userSpaceOnUse" color-interpolation-filters="sRGB">
			<feFlood flood-opacity="0" result="BackgroundImageFix"/>
			<feGaussianBlur in="BackgroundImage" stdDeviation="2.66667"/>
			<feComposite in2="SourceAlpha" operator="in" result="effect_backgroundBlur_1"/>
			<feColorMatrix in="SourceAlpha" type="matrix" values="0 0 0 0 0 0 0 0 0 0 0 0 0 0 0 0 0 0 127 0" result="hardAlpha"/>
			<feOffset dx="0" dy="0"/>
			<feGaussianBlur stdDeviation="1.33333"/>
			<feComposite in2="hardAlpha" operator="out" k2="-1" k3="1"/>
			<feColorMatrix type="matrix" values="0 0 0 0 0.95294 0 0 0 0 0.66275 0 0 0 0 0.07451 0 0 0 0.4 0"/>
			<feBlend mode="normal" in2="effect_backgroundBlur_1" result="effect_dropShadow_2"/>
			<feBlend mode="normal" in="SourceGraphic" in2="effect_dropShadow_2" result="shape"/>
			<feColorMatrix in="SourceAlpha" type="matrix" values="0 0 0 0 0 0 0 0 0 0 0 0 0 0 0 0 0 0 127 0" result="hardAlpha"/>
			<feOffset dx="0" dy="0"/>
			<feGaussianBlur stdDeviation="2.66667"/>
			<feComposite in2="hardAlpha" operator="arithmetic" k2="-1" k3="1"/>
			<feColorMatrix type="matrix" values="0 0 0 0 0.95294 0 0 0 0 0.66275 0 0 0 0 0.07451 0 0 0 1 0"/>
			<feBlend mode="normal" in2="shape" result="effect_innerShadow_3"/>
		</filter>
		<linearGradient x1="8.049805" y1="10.083984" x2="13.049886" y2="16.416666" id="paint_linear_6412_2935_0" gradientUnits="userSpaceOnUse">
			<stop stop-color="#FFD88A"/>
			<stop offset="1.000000" stop-color="#F3A913"/>
		</linearGradient>
		<linearGradient x1="13.049886" y1="4.750000" x2="13.049886" y2="16.416666" id="paint_linear_6412_2935_1" gradientUnits="userSpaceOnUse">
			<stop stop-color="#FFD98B"/>
			<stop offset="1.000000" stop-color="#F3A913"/>
		</linearGradient>
		<linearGradient x1="4.954147" y1="9.489787" x2="6.179166" y2="12.791828" id="paint_linear_6412_2936_0" gradientUnits="userSpaceOnUse">
			<stop stop-color="#FFD88A"/>
			<stop offset="1.000000" stop-color="#F3A913"/>
		</linearGradient>
		<linearGradient x1="6.179167" y1="6.708496" x2="6.179167" y2="12.791829" id="paint_linear_6412_2936_1" gradientUnits="userSpaceOnUse">
			<stop stop-color="#FFD98B"/>
			<stop offset="1.000000" stop-color="#F3A913"/>
		</linearGradient>
		<linearGradient x1="18.695847" y1="9.489787" x2="19.920864" y2="12.791829" id="paint_linear_6412_2937_0" gradientUnits="userSpaceOnUse">
			<stop stop-color="#FFD88A"/>
			<stop offset="1.000000" stop-color="#F3A913"/>
		</linearGradient>
		<linearGradient x1="19.920866" y1="6.708496" x2="19.920866" y2="12.791829" id="paint_linear_6412_2937_1" gradientUnits="userSpaceOnUse">
			<stop stop-color="#FFD98B"/>
			<stop offset="1.000000" stop-color="#F3A913"/>
		</linearGradient>
	</defs>
	<path id="Vector" d="M13.17 16.83L13.17 18.58" stroke="#F3A913" stroke-opacity="1.000000" stroke-width="1.500000" stroke-linejoin="round" stroke-linecap="round"/>
	<g filter="url(#filter_6412_2933_dd)">
		<path id="Vector" d="M9 21.41L17.34 21.41L17.34 20.58C17.34 19.66 16.59 18.91 15.67 18.91L10.67 18.91C9.75 18.91 9 19.66 9 20.58L9 21.41Z" fill="#F3A913" fill-opacity="0.100000" fill-rule="nonzero"/>
	</g>
	<path id="Vector" d="M10.5 21.41L9 21.41L9 20.58C9 20.34 9.05 20.12 9.14 19.91C9.4 19.32 9.99 18.91 10.67 18.91L15.67 18.91C16.35 18.91 16.94 19.32 17.2 19.91C17.29 20.12 17.34 20.34 17.34 20.58L17.34 21.41L10.5 21.41Z" fill="#F3A913" fill-opacity="1.000000" fill-rule="evenodd"/>
	<path id="Vector" d="M8.17 21.41L18.17 21.41" stroke="#F3A913" stroke-opacity="1.000000" stroke-width="1.500000" stroke-linejoin="round" stroke-linecap="round"/>
	<g filter="url(#filter_6412_2935_dd)">
		<path id="Vector" d="M13.04 16.41C9.82 16.41 7.21 13.8 7.21 10.58L7.21 8.08C7.21 6.24 8.7 4.75 10.54 4.75L15.54 4.75C17.39 4.75 18.88 6.24 18.88 8.08L18.88 10.58C18.88 13.8 16.27 16.41 13.04 16.41Z" fill="url(#paint_linear_6412_2935_0)" fill-opacity="1.000000" fill-rule="nonzero"/>
	</g>
	<path id="Vector" d="M7.21 10.58L7.21 8.08C7.21 6.24 8.7 4.75 10.54 4.75L15.54 4.75C17.39 4.75 18.88 6.24 18.88 8.08L18.88 10.58C18.88 13.8 16.27 16.41 13.04 16.41C9.82 16.41 7.21 13.8 7.21 10.58Z" stroke="url(#paint_linear_6412_2935_1)" stroke-opacity="1.000000" stroke-width="1.500000"/>
	<g filter="url(#filter_6412_2936_dd)">
		<path id="Vector" d="M7.6 12.79C6.98 12.59 6.43 12.22 6 11.79C5.25 10.95 4.75 9.95 4.75 8.79C4.75 7.62 5.66 6.7 6.83 6.7L7.37 6.7C7.2 7.09 7.12 7.51 7.12 7.95L7.12 10.45C7.12 11.29 7.3 12.07 7.6 12.79Z" fill="url(#paint_linear_6412_2936_0)" fill-opacity="1.000000" fill-rule="nonzero"/>
	</g>
	<path id="Vector" d="M6 11.79C5.25 10.95 4.75 9.95 4.75 8.79C4.75 7.62 5.66 6.7 6.83 6.7L7.37 6.7C7.2 7.09 7.12 7.51 7.12 7.95L7.12 10.45C7.12 11.29 7.3 12.07 7.6 12.79C6.98 12.59 6.43 12.22 6 11.79Z" stroke="url(#paint_linear_6412_2936_1)" stroke-opacity="1.000000" stroke-width="1.500000"/>
	<g filter="url(#filter_6412_2937_dd)">
		<path id="Vector" d="M18.49 12.79C19.11 12.59 19.66 12.22 20.1 11.79C20.85 10.95 21.35 9.95 21.35 8.79C21.35 7.62 20.43 6.7 19.26 6.7L18.72 6.7C18.89 7.09 18.97 7.51 18.97 7.95L18.97 10.45C18.97 11.29 18.79 12.07 18.49 12.79Z" fill="url(#paint_linear_6412_2937_0)" fill-opacity="1.000000" fill-rule="nonzero"/>
	</g>
	<path id="Vector" d="M20.1 11.79C20.85 10.95 21.35 9.95 21.35 8.79C21.35 7.62 20.43 6.7 19.26 6.7L18.72 6.7C18.89 7.09 18.97 7.51 18.97 7.95L18.97 10.45C18.97 11.29 18.79 12.07 18.49 12.79C19.11 12.59 19.66 12.22 20.1 11.79Z" stroke="url(#paint_linear_6412_2937_1)" stroke-opacity="1.000000" stroke-width="1.500000"/>
	<g opacity="0.000000"/>
</svg>
