<svg width="12.000000" height="12.000000" viewBox="0 0 12 12" fill="none" xmlns="http://www.w3.org/2000/svg" xmlns:xlink="http://www.w3.org/1999/xlink">
	<defs>
		<clipPath id="clip1421_957">
			<rect id="svg" width="12.000000" height="12.000000" fill="white" fill-opacity="0"/>
		</clipPath>
	</defs>
	<g clip-path="url(#clip1421_957)">
		<path id="Vector" d="M8.27 1.98L8.25 2C7.96 2 7.75 1.77 7.75 1.5C7.75 1.22 7.96 1 8.25 1L8.27 1.01L8.27 1.98ZM10.98 3.73L11 3.75C11 4.02 10.78 4.25 10.5 4.25C10.22 4.25 10 4.02 10 3.75L10.02 3.73L10.98 3.73Z" fill="#000000" fill-opacity="0" fill-rule="nonzero"/>
		<path id="Vector" d="M10.5 3.75L10.5 3L10.5 1.5L9 1.5L8.25 1.5" stroke="#999999" stroke-opacity="1.000000" stroke-width="1.000000" stroke-linejoin="round" stroke-linecap="round"/>
		<path id="Vector" d="M1.02 8.26L1 8.25C1 7.97 1.21 7.75 1.5 7.75C1.78 7.75 2 7.97 2 8.25L1.97 8.26L1.02 8.26ZM3.72 10.01L3.75 10C4.03 10 4.25 10.22 4.25 10.5C4.25 10.77 4.03 11 3.75 11L3.72 10.98L3.72 10.01Z" fill="#000000" fill-opacity="0" fill-rule="nonzero"/>
		<path id="Vector" d="M1.5 8.25L1.5 9L1.5 10.5L3 10.5L3.75 10.5" stroke="#999999" stroke-opacity="1.000000" stroke-width="1.000000" stroke-linejoin="round" stroke-linecap="round"/>
		<path id="Vector" d="M10.14 1.17L10.14 1.14C10.34 0.94 10.65 0.94 10.85 1.14C11.05 1.34 11.05 1.65 10.85 1.85L10.82 1.85L10.14 1.17ZM7.35 5.32L7.35 5.35C7.15 5.55 6.84 5.55 6.64 5.35C6.44 5.15 6.44 4.84 6.64 4.64L6.67 4.64L7.35 5.32Z" fill="#000000" fill-opacity="0" fill-rule="nonzero"/>
		<path id="Vector" d="M6.99 5L7.68 4.31L8.62 3.37L10.49 1.5" stroke="#999999" stroke-opacity="1.000000" stroke-width="1.000000" stroke-linejoin="round" stroke-linecap="round"/>
		<path id="Vector" d="M1.85 10.82L1.85 10.85C1.65 11.05 1.34 11.05 1.14 10.85C0.94 10.65 0.94 10.34 1.14 10.14L1.17 10.14L1.85 10.82ZM4.64 6.67L4.64 6.64C4.84 6.44 5.15 6.44 5.35 6.64C5.55 6.84 5.55 7.15 5.35 7.35L5.32 7.35L4.64 6.67Z" fill="#000000" fill-opacity="0" fill-rule="nonzero"/>
		<path id="Vector" d="M1.49 10.5L3.37 8.62L4.31 7.68L4.99 7" stroke="#999999" stroke-opacity="1.000000" stroke-width="1.000000" stroke-linejoin="round" stroke-linecap="round"/>
		<path id="Vector" d="M8.27 10.01L8.25 10C7.96 10 7.75 10.22 7.75 10.5C7.75 10.77 7.96 11 8.25 11L8.27 10.98L8.27 10.01ZM10.98 8.26L11 8.25C11 7.97 10.78 7.75 10.5 7.75C10.22 7.75 10 7.97 10 8.25L10.02 8.26L10.98 8.26Z" fill="#000000" fill-opacity="0" fill-rule="nonzero"/>
		<path id="Vector" d="M10.5 8.25L10.5 9L10.5 10.5L9 10.5L8.25 10.5" stroke="#999999" stroke-opacity="1.000000" stroke-width="1.000000" stroke-linejoin="round" stroke-linecap="round"/>
		<path id="Vector" d="M1.02 3.73L1 3.75C1 4.02 1.21 4.25 1.5 4.25C1.78 4.25 2 4.02 2 3.75L1.97 3.73L1.02 3.73ZM3.72 1.98L3.75 2C4.03 2 4.25 1.77 4.25 1.5C4.25 1.22 4.03 1 3.75 1L3.72 1.01L3.72 1.98Z" fill="#000000" fill-opacity="0" fill-rule="nonzero"/>
		<path id="Vector" d="M1.5 3.75L1.5 3L1.5 1.5L3 1.5L3.75 1.5" stroke="#999999" stroke-opacity="1.000000" stroke-width="1.000000" stroke-linejoin="round" stroke-linecap="round"/>
		<path id="Vector" d="M10.14 10.82L10.14 10.85C10.34 11.05 10.65 11.05 10.85 10.85C11.05 10.65 11.05 10.34 10.85 10.14L10.82 10.14L10.14 10.82ZM7.35 6.67L7.35 6.64C7.15 6.44 6.84 6.44 6.64 6.64C6.44 6.84 6.44 7.15 6.64 7.35L6.67 7.35L7.35 6.67Z" fill="#000000" fill-opacity="0" fill-rule="nonzero"/>
		<path id="Vector" d="M6.99 7L7.68 7.68L8.62 8.62L10.5 10.5" stroke="#999999" stroke-opacity="1.000000" stroke-width="1.000000" stroke-linejoin="round" stroke-linecap="round"/>
		<path id="Vector" d="M1.85 1.17L1.85 1.14C1.65 0.94 1.34 0.94 1.14 1.14C0.94 1.34 0.95 1.65 1.14 1.85L1.17 1.85L1.85 1.17ZM4.64 5.32L4.64 5.35C4.84 5.55 5.15 5.55 5.35 5.35C5.54 5.15 5.54 4.84 5.35 4.64L5.32 4.64L4.64 5.32Z" fill="#000000" fill-opacity="0" fill-rule="nonzero"/>
		<path id="Vector" d="M1.49 1.5L3.37 3.37L4.31 4.31L4.99 5" stroke="#999999" stroke-opacity="1.000000" stroke-width="1.000000" stroke-linejoin="round" stroke-linecap="round"/>
		<g opacity="0.000000"/>
	</g>
</svg>
