<svg width="20.000000" height="20.000000" viewBox="0 0 20 20" fill="none" xmlns="http://www.w3.org/2000/svg" xmlns:xlink="http://www.w3.org/1999/xlink">
	<desc>
			Created with Pixso.
	</desc>
	<defs/>
	<path id="Vector" d="M16.66 15C16.66 17.5 15.17 18.33 13.33 18.33L6.66 18.33C4.82 18.33 3.33 17.5 3.33 15L3.33 6.87C3.33 4.16 4.82 3.54 6.66 3.54C6.66 4.05 6.87 4.52 7.21 4.86C7.55 5.2 8.02 5.41 8.54 5.41L11.45 5.41C12.49 5.41 13.33 4.57 13.33 3.54C15.17 3.54 16.66 4.16 16.66 6.87L16.66 15Z" stroke="#B6B6B6" stroke-opacity="1.000000" stroke-width="1.500000" stroke-linejoin="round"/>
	<path id="Vector" d="M11.45 5.41L8.54 5.41C8.02 5.41 7.55 5.2 7.21 4.86C6.87 4.52 6.66 4.05 6.66 3.54C6.66 2.5 7.5 1.66 8.54 1.66L11.45 1.66C11.97 1.66 12.44 1.87 12.78 2.21C13.12 2.55 13.33 3.02 13.33 3.54C13.33 4.57 12.49 5.41 11.45 5.41Z" stroke="#B6B6B6" stroke-opacity="1.000000" stroke-width="1.500000" stroke-linejoin="round"/>
	<path id="Vector" d="M6.66 10.83L10 10.83" stroke="#B6B6B6" stroke-opacity="1.000000" stroke-width="1.500000" stroke-linejoin="round" stroke-linecap="round"/>
	<path id="Vector" d="M6.66 14.16L13.33 14.16" stroke="#B6B6B6" stroke-opacity="1.000000" stroke-width="1.500000" stroke-linejoin="round" stroke-linecap="round"/>
	<g opacity="0.000000"/>
</svg>
