<svg width="20.000000" height="20.000000" viewBox="0 0 20 20" fill="none" xmlns="http://www.w3.org/2000/svg" xmlns:xlink="http://www.w3.org/1999/xlink">
	<desc>
			Created with Pixso.
	</desc>
	<defs/>
	<path id="Vector" d="M10 15.41C7 15.41 4.58 12.99 4.58 10C4.58 7 7 4.58 10 4.58C12.99 4.58 15.41 7 15.41 10C15.41 12.99 12.99 15.41 10 15.41Z" stroke="#B6B6B6" stroke-opacity="1.000000" stroke-width="1.500000" stroke-linejoin="round"/>
	<path id="Vector" d="M15.95 4.04L15.84 4.15L15.95 4.04ZM4.15 15.84L4.04 15.94L4.15 15.84ZM10 1.66L10 1.73L10 1.66ZM10 18.26L10 18.33L10 18.26ZM1.66 10L1.73 10L1.66 10ZM18.26 10L18.33 10L18.26 10ZM4.04 4.04L4.15 4.15L4.04 4.04ZM15.95 15.94L15.84 15.84" stroke="#B6B6B6" stroke-opacity="1.000000" stroke-width="2.000000" stroke-linejoin="round" stroke-linecap="round"/>
	<g opacity="0.000000"/>
</svg>
