<svg xmlns="http://www.w3.org/2000/svg" xmlns:xlink="http://www.w3.org/1999/xlink" width="26.099976" height="25.417969" viewBox="0 0 26.1 25.418" fill="none">
	<defs>
		<filter id="filter_1441_354_dd" x="5.008423" y="14.917969" width="16.333374" height="10.500000" filterUnits="userSpaceOnUse" color-interpolation-filters="sRGB">
			<feFlood flood-opacity="0" result="BackgroundImageFix"/>
			<feGaussianBlur in="BackgroundImage" stdDeviation="2.66667"/>
			<feComposite in2="SourceAlpha" operator="in" result="effect_backgroundBlur_1"/>
			<feColorMatrix in="SourceAlpha" type="matrix" values="0 0 0 0 0 0 0 0 0 0 0 0 0 0 0 0 0 0 127 0" result="hardAlpha"/>
			<feOffset dx="0" dy="0"/>
			<feGaussianBlur stdDeviation="1.33333"/>
			<feComposite in2="hardAlpha" operator="out" k2="-1" k3="1"/>
			<feColorMatrix type="matrix" values="0 0 0 0 0.95294 0 0 0 0 0.66275 0 0 0 0 0.07451 0 0 0 0.4 0"/>
			<feBlend mode="normal" in2="effect_backgroundBlur_1" result="effect_dropShadow_2"/>
			<feBlend mode="normal" in="SourceGraphic" in2="effect_dropShadow_2" result="shape"/>
			<feColorMatrix in="SourceAlpha" type="matrix" values="0 0 0 0 0 0 0 0 0 0 0 0 0 0 0 0 0 0 127 0" result="hardAlpha"/>
			<feOffset dx="0" dy="0"/>
			<feGaussianBlur stdDeviation="2.66667"/>
			<feComposite in2="hardAlpha" operator="arithmetic" k2="-1" k3="1"/>
			<feColorMatrix type="matrix" values="0 0 0 0 0.95294 0 0 0 0 0.66275 0 0 0 0 0.07451 0 0 0 1 0"/>
			<feBlend mode="normal" in2="shape" result="effect_innerShadow_3"/>
		</filter>
		<filter id="filter_1441_356_dd" x="2.466675" y="0.000000" width="21.166626" height="21.166016" filterUnits="userSpaceOnUse" color-interpolation-filters="sRGB">
			<feFlood flood-opacity="0" result="BackgroundImageFix"/>
			<feGaussianBlur in="BackgroundImage" stdDeviation="2.66667"/>
			<feComposite in2="SourceAlpha" operator="in" result="effect_backgroundBlur_1"/>
			<feColorMatrix in="SourceAlpha" type="matrix" values="0 0 0 0 0 0 0 0 0 0 0 0 0 0 0 0 0 0 127 0" result="hardAlpha"/>
			<feOffset dx="0" dy="0"/>
			<feGaussianBlur stdDeviation="1.33333"/>
			<feComposite in2="hardAlpha" operator="out" k2="-1" k3="1"/>
			<feColorMatrix type="matrix" values="0 0 0 0 0.95294 0 0 0 0 0.66275 0 0 0 0 0.07451 0 0 0 0.4 0"/>
			<feBlend mode="normal" in2="effect_backgroundBlur_1" result="effect_dropShadow_2"/>
			<feBlend mode="normal" in="SourceGraphic" in2="effect_dropShadow_2" result="shape"/>
			<feColorMatrix in="SourceAlpha" type="matrix" values="0 0 0 0 0 0 0 0 0 0 0 0 0 0 0 0 0 0 127 0" result="hardAlpha"/>
			<feOffset dx="0" dy="0"/>
			<feGaussianBlur stdDeviation="2.66667"/>
			<feComposite in2="hardAlpha" operator="arithmetic" k2="-1" k3="1"/>
			<feColorMatrix type="matrix" values="0 0 0 0 0.95294 0 0 0 0 0.66275 0 0 0 0 0.07451 0 0 0 1 0"/>
			<feBlend mode="normal" in2="shape" result="effect_innerShadow_3"/>
		</filter>
		<filter id="filter_1441_357_dd" x="0.000000" y="1.958984" width="12.947998" height="16.048828" filterUnits="userSpaceOnUse" color-interpolation-filters="sRGB">
			<feFlood flood-opacity="0" result="BackgroundImageFix"/>
			<feGaussianBlur in="BackgroundImage" stdDeviation="2.66667"/>
			<feComposite in2="SourceAlpha" operator="in" result="effect_backgroundBlur_1"/>
			<feColorMatrix in="SourceAlpha" type="matrix" values="0 0 0 0 0 0 0 0 0 0 0 0 0 0 0 0 0 0 127 0" result="hardAlpha"/>
			<feOffset dx="0" dy="0"/>
			<feGaussianBlur stdDeviation="1.33333"/>
			<feComposite in2="hardAlpha" operator="out" k2="-1" k3="1"/>
			<feColorMatrix type="matrix" values="0 0 0 0 0.95294 0 0 0 0 0.66275 0 0 0 0 0.07451 0 0 0 0.4 0"/>
			<feBlend mode="normal" in2="effect_backgroundBlur_1" result="effect_dropShadow_2"/>
			<feBlend mode="normal" in="SourceGraphic" in2="effect_dropShadow_2" result="shape"/>
			<feColorMatrix in="SourceAlpha" type="matrix" values="0 0 0 0 0 0 0 0 0 0 0 0 0 0 0 0 0 0 127 0" result="hardAlpha"/>
			<feOffset dx="0" dy="0"/>
			<feGaussianBlur stdDeviation="2.66667"/>
			<feComposite in2="hardAlpha" operator="arithmetic" k2="-1" k3="1"/>
			<feColorMatrix type="matrix" values="0 0 0 0 0.95294 0 0 0 0 0.66275 0 0 0 0 0.07451 0 0 0 1 0"/>
			<feBlend mode="normal" in2="shape" result="effect_innerShadow_3"/>
		</filter>
		<filter id="filter_1441_358_dd" x="13.151978" y="1.958984" width="12.947998" height="16.048828" filterUnits="userSpaceOnUse" color-interpolation-filters="sRGB">
			<feFlood flood-opacity="0" result="BackgroundImageFix"/>
			<feGaussianBlur in="BackgroundImage" stdDeviation="2.66667"/>
			<feComposite in2="SourceAlpha" operator="in" result="effect_backgroundBlur_1"/>
			<feColorMatrix in="SourceAlpha" type="matrix" values="0 0 0 0 0 0 0 0 0 0 0 0 0 0 0 0 0 0 127 0" result="hardAlpha"/>
			<feOffset dx="0" dy="0"/>
			<feGaussianBlur stdDeviation="1.33333"/>
			<feComposite in2="hardAlpha" operator="out" k2="-1" k3="1"/>
			<feColorMatrix type="matrix" values="0 0 0 0 0.95294 0 0 0 0 0.66275 0 0 0 0 0.07451 0 0 0 0.4 0"/>
			<feBlend mode="normal" in2="effect_backgroundBlur_1" result="effect_dropShadow_2"/>
			<feBlend mode="normal" in="SourceGraphic" in2="effect_dropShadow_2" result="shape"/>
			<feColorMatrix in="SourceAlpha" type="matrix" values="0 0 0 0 0 0 0 0 0 0 0 0 0 0 0 0 0 0 127 0" result="hardAlpha"/>
			<feOffset dx="0" dy="0"/>
			<feGaussianBlur stdDeviation="2.66667"/>
			<feComposite in2="hardAlpha" operator="arithmetic" k2="-1" k3="1"/>
			<feColorMatrix type="matrix" values="0 0 0 0 0.95294 0 0 0 0 0.66275 0 0 0 0 0.07451 0 0 0 1 0"/>
			<feBlend mode="normal" in2="shape" result="effect_innerShadow_3"/>
		</filter>
		<linearGradient x1="8.049927" y1="10.083984" x2="13.050008" y2="16.416666" id="paint_linear_1441_356_0" gradientUnits="userSpaceOnUse">
			<stop stop-color="#FFFFFF"/>
			<stop offset="1.000000" stop-color="#F3A913"/>
		</linearGradient>
		<linearGradient x1="13.050008" y1="4.750000" x2="13.050008" y2="16.416666" id="paint_linear_1441_356_1" gradientUnits="userSpaceOnUse">
			<stop stop-color="#FFD98B"/>
			<stop offset="1.000000" stop-color="#F3A913"/>
		</linearGradient>
		<linearGradient x1="4.954147" y1="9.490275" x2="6.179166" y2="12.792316" id="paint_linear_1441_357_0" gradientUnits="userSpaceOnUse">
			<stop stop-color="#FFFFFF"/>
			<stop offset="1.000000" stop-color="#F3A913"/>
		</linearGradient>
		<linearGradient x1="6.179167" y1="6.708984" x2="6.179167" y2="12.792317" id="paint_linear_1441_357_1" gradientUnits="userSpaceOnUse">
			<stop stop-color="#FFD98B"/>
			<stop offset="1.000000" stop-color="#F3A913"/>
		</linearGradient>
		<linearGradient x1="18.695847" y1="9.490275" x2="19.920864" y2="12.792317" id="paint_linear_1441_358_0" gradientUnits="userSpaceOnUse">
			<stop stop-color="#FFFFFF"/>
			<stop offset="1.000000" stop-color="#F3A913"/>
		</linearGradient>
		<linearGradient x1="19.920866" y1="6.708984" x2="19.920866" y2="12.792317" id="paint_linear_1441_358_1" gradientUnits="userSpaceOnUse">
			<stop stop-color="#FFD98B"/>
			<stop offset="1.000000" stop-color="#F3A913"/>
		</linearGradient>
	</defs>
	<path d="M13.17 16.83L13.17 18.58" stroke="#F3A913" stroke-opacity="1.000000" stroke-width="1.500000" stroke-linejoin="round" stroke-linecap="round"/>
	<g filter="url(#filter_1441_354_dd)">
		<path d="M9 21.41L17.34 21.41L17.34 20.58C17.34 19.66 16.59 18.91 15.67 18.91L10.67 18.91C9.75 18.91 9 19.66 9 20.58L9 21.41Z" fill="#F3A913" fill-opacity="0.100000" fill-rule="nonzero"/>
	</g>
	<path d="M10.5 21.41L9 21.41L9 20.58C9 20.34 9.05 20.12 9.14 19.91C9.4 19.33 9.99 18.91 10.67 18.91L15.67 18.91C16.35 18.91 16.94 19.33 17.2 19.91C17.29 20.12 17.34 20.34 17.34 20.58L17.34 21.41L10.5 21.41Z" fill="#F3A913" fill-opacity="1.000000" fill-rule="evenodd"/>
	<path d="M8.17 21.41L18.17 21.41" stroke="#F3A913" stroke-opacity="1.000000" stroke-width="1.500000" stroke-linejoin="round" stroke-linecap="round"/>
	<g filter="url(#filter_1441_356_dd)">
		<path d="M13.05 16.41C9.82 16.41 7.21 13.8 7.21 10.58L7.21 8.08C7.21 6.24 8.7 4.75 10.55 4.75L15.55 4.75C17.39 4.75 18.88 6.24 18.88 8.08L18.88 10.58C18.88 13.8 16.27 16.41 13.05 16.41Z" fill="url(#paint_linear_1441_356_0)" fill-opacity="1.000000" fill-rule="nonzero"/>
	</g>
	<path d="M7.21 10.58L7.21 8.08C7.21 6.24 8.7 4.75 10.55 4.75L15.55 4.75C17.39 4.75 18.88 6.24 18.88 8.08L18.88 10.58C18.88 13.8 16.27 16.41 13.05 16.41C9.82 16.41 7.21 13.8 7.21 10.58Z" stroke="url(#paint_linear_1441_356_1)" stroke-opacity="1.000000" stroke-width="1.500000"/>
	<g filter="url(#filter_1441_357_dd)">
		<path d="M7.6 12.79C6.98 12.59 6.43 12.22 6 11.79C5.25 10.95 4.75 9.95 4.75 8.79C4.75 7.62 5.66 6.7 6.83 6.7L7.37 6.7C7.2 7.09 7.12 7.51 7.12 7.95L7.12 10.45C7.12 11.29 7.3 12.07 7.6 12.79Z" fill="url(#paint_linear_1441_357_0)" fill-opacity="1.000000" fill-rule="nonzero"/>
	</g>
	<path d="M6 11.79C5.25 10.95 4.75 9.95 4.75 8.79C4.75 7.62 5.66 6.7 6.83 6.7L7.37 6.7C7.2 7.09 7.12 7.51 7.12 7.95L7.12 10.45C7.12 11.29 7.3 12.07 7.6 12.79C6.98 12.59 6.43 12.22 6 11.79Z" stroke="url(#paint_linear_1441_357_1)" stroke-opacity="1.000000" stroke-width="1.500000"/>
	<g filter="url(#filter_1441_358_dd)">
		<path d="M18.49 12.79C19.11 12.59 19.66 12.22 20.1 11.79C20.85 10.95 21.35 9.95 21.35 8.79C21.35 7.62 20.43 6.7 19.26 6.7L18.72 6.7C18.89 7.09 18.97 7.51 18.97 7.95L18.97 10.45C18.97 11.29 18.79 12.07 18.49 12.79Z" fill="url(#paint_linear_1441_358_0)" fill-opacity="1.000000" fill-rule="nonzero"/>
	</g>
	<path d="M20.1 11.79C20.85 10.95 21.35 9.95 21.35 8.79C21.35 7.62 20.43 6.7 19.26 6.7L18.72 6.7C18.89 7.09 18.97 7.51 18.97 7.95L18.97 10.45C18.97 11.29 18.79 12.07 18.49 12.79C19.11 12.59 19.66 12.22 20.1 11.79Z" stroke="url(#paint_linear_1441_358_1)" stroke-opacity="1.000000" stroke-width="1.500000"/>
	<g opacity="0.000000"/>
</svg>