<svg width="82.000000" height="20.000000" viewBox="0 0 82 20" fill="none" xmlns="http://www.w3.org/2000/svg" xmlns:xlink="http://www.w3.org/1999/xlink">
	<desc>
			Created with Pixso.
	</desc>
	<defs>
		<linearGradient x1="41.000000" y1="0.000000" x2="41.000000" y2="20.000000" id="paint_linear_3176_2140_0" gradientUnits="userSpaceOnUse">
			<stop stop-color="#FFFBD0"/>
			<stop offset="1.000000" stop-color="#FDCB14"/>
		</linearGradient>
	</defs>
	<rect id="画板 407" rx="6.000000" width="82.000000" height="20.000000" fill="url(#paint_linear_3176_2140_0)" fill-opacity="1.000000"/>
	<path id="Gas Subsidy" d="M14.45 12.74C14.15 13.47 13.31 14.12 11.97 14.12C9.69 14.12 8.39 12.53 8.39 9.98C8.39 7.47 9.83 5.84 12.22 5.84C14.37 5.84 15.67 6.99 15.67 8.84L15.67 8.92L14.31 8.92L14.31 8.84C14.31 7.62 13.7 7.08 12.16 7.08C10.47 7.08 9.77 7.89 9.77 9.98C9.77 12.06 10.49 12.87 12.27 12.87C13.74 12.87 14.44 12.44 14.44 11.17L14.44 10.98L11.93 10.98L11.93 9.87L15.69 9.87L15.69 14L14.5 14L14.5 12.74L14.45 12.74ZM37.67 11.81C37.67 13.07 36.76 14.12 34.71 14.12C32.39 14.12 31.38 13.05 31.38 11.5L31.38 11.29L32.66 11.29L32.66 11.43C32.66 12.42 33.07 12.93 34.76 12.93C35.94 12.93 36.38 12.6 36.38 11.86C36.38 11.13 36.14 10.86 34.9 10.61L33.53 10.34C32.15 10.07 31.41 9.4 31.41 8.13C31.41 6.94 32.33 5.84 34.41 5.84C36.63 5.84 37.52 7.08 37.52 8.51L37.52 8.65L36.24 8.65L36.24 8.52C36.24 7.54 35.81 7.02 34.37 7.02C33.18 7.02 32.7 7.36 32.7 8.07C32.7 8.8 33.03 9 34.13 9.24L35.5 9.53C37.01 9.84 37.67 10.6 37.67 11.81ZM46.68 13.01L46.68 14L45.49 14L45.49 5.96L46.79 5.96L46.79 8.98L46.82 8.98C47.08 8.44 47.76 7.91 48.82 7.91C50.46 7.91 51.33 9.12 51.33 11.01C51.33 12.9 50.41 14.12 48.75 14.12C47.72 14.12 47.02 13.71 46.73 13.01L46.68 13.01ZM59.48 5.96L59.48 7.27L58.19 7.27L58.18 5.96L59.48 5.96ZM64.97 13.01C64.68 13.7 64.02 14.12 63 14.12C61.3 14.12 60.37 12.9 60.37 11.01C60.37 9.12 61.29 7.91 62.93 7.91C63.99 7.91 64.62 8.41 64.89 8.96L64.92 8.96L64.92 5.96L66.21 5.96L66.21 14L65.02 14L65.02 13.01L64.97 13.01ZM20.76 13.06C20.42 13.62 19.73 14.12 18.6 14.12C17.54 14.12 16.71 13.56 16.71 12.52C16.71 11.53 17.43 11.02 18.7 10.84L20.79 10.53L20.79 10.2C20.79 9.32 20.38 9.05 19.44 9.05C18.49 9.05 18.12 9.35 18.12 10.14L18.12 10.32L16.87 10.32L16.87 10.2C16.87 8.87 17.92 7.91 19.51 7.91C21.18 7.91 22.02 8.92 22.02 10.37L22.02 14L20.82 14L20.82 13.06L20.76 13.06ZM28.12 12.36C28.12 13.47 27.24 14.12 25.73 14.12C23.99 14.12 23.08 13.43 23.08 11.98L23.08 11.96L24.33 11.96L24.33 12.17C24.33 12.82 24.61 13.06 25.75 13.06C26.71 13.06 26.89 12.84 26.89 12.4C26.89 11.92 26.61 11.77 25.73 11.62L24.81 11.46C23.74 11.27 23.07 10.79 23.07 9.71C23.07 8.63 23.96 7.91 25.51 7.91C26.92 7.91 27.97 8.61 27.97 9.96L27.97 10.07L26.74 10.07L26.74 9.93C26.74 9.37 26.55 8.98 25.48 8.98C24.53 8.98 24.3 9.23 24.3 9.69C24.3 10.14 24.52 10.27 25.36 10.44L26.37 10.63C27.52 10.86 28.12 11.38 28.12 12.36ZM57.25 12.36C57.25 13.47 56.38 14.12 54.87 14.12C53.13 14.12 52.22 13.43 52.22 11.98L52.22 11.96L53.46 11.96L53.46 12.17C53.46 12.82 53.75 13.06 54.89 13.06C55.85 13.06 56.03 12.84 56.03 12.4C56.03 11.92 55.74 11.77 54.87 11.62L53.94 11.46C52.87 11.27 52.2 10.79 52.2 9.71C52.2 8.63 53.09 7.91 54.65 7.91C56.06 7.91 57.11 8.61 57.11 9.96L57.11 10.07L55.87 10.07L55.87 9.93C55.87 9.37 55.68 8.98 54.61 8.98C53.67 8.98 53.44 9.23 53.44 9.69C53.44 10.14 53.65 10.27 54.49 10.44L55.5 10.63C56.65 10.86 57.25 11.38 57.25 12.36ZM59.49 8L59.49 14L58.19 14L58.19 8L59.49 8ZM42.98 12.81C42.69 13.49 42.05 14.12 40.89 14.12C39.33 14.12 38.63 13.07 38.63 11.72L38.63 8.03L39.93 8.03L39.93 11.49C39.93 12.55 40.33 13 41.37 13C42.36 13 42.93 12.57 42.93 11.39L42.93 8.03L44.22 8.03L44.22 14L43.02 14L43.02 12.81L42.98 12.81ZM70.35 14.7C69.9 15.76 69.33 16.03 68.39 16.03C68.07 16.03 67.7 15.99 67.49 15.93L67.49 14.87L68.31 14.87C68.82 14.87 69 14.79 69.2 14.34L69.42 13.84L66.89 8.03L68.32 8.03L69.52 10.92L70.06 12.22L70.15 12.22L70.65 10.92L71.74 8.03L73.17 8.03L70.35 14.7ZM46.79 10.48L46.79 11.55C46.79 12.54 47.37 13.01 48.41 13.01C49.56 13.01 50.04 12.48 50.04 11.01C50.04 9.54 49.55 9.01 48.41 9.01C47.37 9.01 46.79 9.48 46.79 10.48ZM63.29 9.01C62.15 9.01 61.67 9.54 61.67 11.01C61.67 12.48 62.14 13.01 63.29 13.01C64.35 13.01 64.92 12.54 64.92 11.55L64.92 10.48C64.92 9.48 64.35 9.01 63.29 9.01ZM18.89 11.73C18.21 11.82 17.97 11.98 17.97 12.42C17.97 12.89 18.27 13.08 19.02 13.08C19.86 13.08 20.79 12.75 20.79 11.55L20.79 11.44L18.89 11.73Z" fill="#000000" fill-opacity="1.000000" fill-rule="evenodd"/>
</svg>
