<svg width="54.201172" height="24.154785" viewBox="0 0 54.2012 24.1548" fill="none" xmlns="http://www.w3.org/2000/svg" xmlns:xlink="http://www.w3.org/1999/xlink">
	<defs>
		<linearGradient x1="8.556694" y1="22.279778" x2="35.134502" y2="4.154785" id="paint_linear_3176_2129_0" gradientUnits="userSpaceOnUse">
			<stop stop-color="#FCFBD5"/>
			<stop offset="0.284298" stop-color="#FF9C40"/>
			<stop offset="0.960695" stop-color="#F62C07"/>
		</linearGradient>
	</defs>
	<rect rx="6.000000" width="52.000000" height="20.000000" transform="translate(2.201172 4.154785)" fill="url(#paint_linear_3176_2129_0)" fill-opacity="1.000000"/>
	<path id="HOT" d="M39.07 14.13C39.07 16.64 37.61 18.27 35.33 18.27C33.04 18.27 31.57 16.64 31.57 14.13C31.57 11.62 33.04 9.99 35.33 9.99C37.61 9.99 39.07 11.62 39.07 14.13ZM25.16 14.68L25.16 18.15L23.87 18.15L23.87 10.11L25.16 10.11L25.16 13.52L29.22 13.52L29.22 10.11L30.52 10.11L30.52 18.15L29.22 18.15L29.22 14.68L25.16 14.68ZM43.12 11.27L43.12 18.15L41.83 18.15L41.83 11.27L39.1 11.27L39.1 10.11L45.85 10.11L45.85 11.27L43.12 11.27ZM32.95 14.13C32.95 16.22 33.66 17.02 35.33 17.02C37 17.02 37.69 16.22 37.69 14.13C37.69 12.04 37 11.24 35.33 11.24C33.66 11.24 32.95 12.04 32.95 14.13Z" fill="#000000" fill-opacity="1.000000" fill-rule="evenodd"/>
</svg>
