<svg  width="34px" height="16px" viewBox="0 0 43 20" fill="none" xmlns="http://www.w3.org/2000/svg" xmlns:xlink="http://www.w3.org/1999/xlink">
	<defs>
		<clipPath id="clip3176_2138">
			<rect rx="6.000000" width="43.000000" height="20.000000" fill="white" fill-opacity="0"/>
		</clipPath>
		<linearGradient x1="7.818180" y1="-0.000002" x2="21.499989" y2="13.749997" id="paint_linear_3176_2138_0" gradientUnits="userSpaceOnUse">
			<stop offset="0.041184" stop-color="#D5F0D3"/>
			<stop offset="1.000000" stop-color="#46B647"/>
		</linearGradient>
	</defs>
	<rect rx="6.000000" width="43.000000" height="20.000000" fill="url(#paint_linear_3176_2138_0)" fill-opacity="1.000000"/>
	<g clip-path="url(#clip3176_2138)">
		<path id="NEW" d="M9.96 8.15L9.96 14L8.67 14L8.67 5.96L10.06 5.96L13.11 10.56L13.96 11.85L14.05 11.85L14.05 5.96L15.35 5.96L15.35 14L13.96 14L10.92 9.46L10.05 8.15L9.96 8.15ZM22.45 12.83L22.45 14L16.71 14L16.71 5.96L22.45 5.96L22.45 7.12L18 7.12L18 9.36L22.28 9.36L22.28 10.54L18 10.54L18 12.83L22.45 12.83ZM28.02 9.9L26.8 14L24.92 14L23.05 5.96L24.54 5.96L25.54 10.48L25.89 12.7L25.98 12.7L26.5 10.48L27.83 5.96L29.64 5.96L30.97 10.48L31.49 12.7L31.59 12.7L31.93 10.48L32.94 5.96L34.41 5.96L32.54 14L30.65 14L29.43 9.9L28.78 7.41L28.67 7.41L28.02 9.9Z" fill="#000000" fill-opacity="1.000000" fill-rule="evenodd"/>
	</g>
</svg>
