<?xml version="1.0" encoding="UTF-8"?>
<svg width="160px" height="160px" viewBox="0 0 160 160" version="1.1" xmlns="http://www.w3.org/2000/svg" xmlns:xlink="http://www.w3.org/1999/xlink">
    <title>starknet-logo (2)</title>
    <g id="Miscellaneous-" stroke="none" stroke-width="1" fill="none" fill-rule="evenodd">
        <g id="shutterstock_1135120550"></g>
        <g id="shutterstock_1096676027"></g>
        <g id="starknet-logo-(2)" fill-rule="nonzero">
            <g id="Group-16">
                <g id="Group-3" fill="#29296E">
                    <path d="M159.377824,79.6877354 C159.377824,123.698505 123.700859,159.375471 79.6900889,159.375471 C35.6793192,159.375471 5.61881774e-15,123.698505 5.61881774e-15,79.6877354 C5.61881774e-15,35.6769657 35.6793192,-1.69840376e-15 79.6900889,-1.69840376e-15 C123.700859,-1.69840376e-15 159.377824,35.6769657 159.377824,79.6877354" id="Fill-1"></path>
                </g>
                <path d="M116.771869,58.3808744 L114.745491,52.1205189 C114.333625,50.8472662 113.328673,49.8564355 112.050714,49.4657516 L105.759762,47.5311606 C104.888961,47.2652131 104.881901,46.0366772 105.745641,45.7566087 L112.00835,43.7302305 C113.27925,43.318365 114.27008,42.3134132 114.663118,41.0354534 L116.595355,34.7445022 C116.861303,33.8760544 118.089838,33.8666403 118.369907,34.7327346 L120.396285,40.9930901 C120.808151,42.2639893 121.813103,43.25482 123.091062,43.6478574 L129.382013,45.5800949 C130.252815,45.8483958 130.262229,47.0745782 129.396135,47.3546468 L123.133426,49.381025 C121.862526,49.7928905 120.871696,50.8001958 120.478658,52.0781556 L118.546421,58.3667533 C118.280473,59.2375546 117.051937,59.2469687 116.771869,58.3808744" id="Fill-4" fill="#FAFAFA"></path>
                <path d="M7.24694984,78.4250734 C9.1415311,74.713577 12.8883303,71.9175987 16.7810476,70.1501073 C20.7137747,68.4014441 25.0371856,67.3282403 29.2829304,66.9799198 C37.8544397,66.2056127 46.2047183,67.6389046 53.8112856,70.1171581 C57.7298915,71.2845026 61.236632,72.9060758 64.8586948,74.5441237 C66.6191256,75.3913899 68.2736481,76.3516249 69.9775945,77.2789106 L74.6846287,80.0066369 C79.8529523,83.1744709 84.8635901,85.9798633 89.5706243,88.1592201 C94.2894261,90.3197488 98.5539991,91.7812829 102.573806,92.5273479 C106.593613,93.2828269 110.679319,93.2734128 115.704078,92.1201894 C120.688827,90.9928547 126.297259,88.5616716 132.15987,85.4432614 C138.057784,82.3224977 144.106322,78.4956789 151.006835,74.7559403 C150.314901,82.5719706 148.102595,89.9008228 144.647631,96.9778487 C141.107942,103.970148 136.184384,110.790641 129.006157,116.314345 C121.964434,121.882767 112.293832,125.763716 102.44907,126.347389 C92.5996008,127.013434 83.2302493,124.843491 75.2588869,121.579163 C67.2569288,118.267764 60.3422955,113.916111 54.213737,109.112583 C52.5215582,107.785199 51.6131006,107.032074 50.363383,105.975345 L46.8731172,102.918126 C44.5219536,101.077675 42.2437491,98.877137 39.9161207,97.0531612 C35.2726314,93.1722116 30.678566,89.2842013 25.6420395,85.9139648 C23.1025945,84.2006044 20.48313,82.6119803 17.5129914,81.2045771 C16.0373362,80.5244107 14.4698938,79.8913146 12.7871291,79.392369 C11.0643546,78.8298784 9.31333785,78.4956789 7.24694984,78.4250734" id="Fill-6" fill="#FF4F0A"></path>
                <path d="M7.24694984,78.4250734 C8.21424537,70.3831055 11.9633981,62.8400832 17.9719272,56.4196886 C23.9498607,50.0604854 33.2886165,45.1581093 43.6511523,44.5085386 C48.7653449,44.1672786 53.9572036,44.7368297 58.7301363,46.0595063 C63.4818873,47.3774759 67.9347417,49.2979459 71.9474883,51.5596758 C73.9526849,52.6964245 75.828438,53.9390816 77.6971306,55.1935062 L82.6771728,58.9638406 L90.4508397,65.0971061 C95.4967804,69.1145598 100.312076,72.8307633 104.762577,75.8997496 C109.255441,78.9734429 113.08226,81.2186982 116.737272,82.5343143 C120.359335,83.9699597 124.934572,84.3371084 130.983111,82.8167363 C133.986199,82.1248023 137.11873,80.8609636 140.460725,79.4912167 C143.783891,78.0885205 147.234147,76.4151698 151.006835,74.7559403 C150.552606,78.7992826 149.731228,82.8261504 148.170847,86.5894242 C146.671656,90.4044754 144.697055,94.1371536 141.93638,97.6180053 C140.524269,99.3125377 139.010958,101.016484 137.24582,102.588633 C135.480682,104.123127 133.52491,105.579954 131.364381,106.857913 C127.055091,109.354995 121.943252,111.178971 116.699616,111.828542 C111.45598,112.487526 106.191162,112.158034 101.397048,111.141315 C96.5770447,110.152837 92.1853818,108.559506 88.153807,106.719056 C80.1188997,102.981671 73.3972549,98.2840507 67.4546242,93.3110691 C64.4703645,90.8281085 61.6720327,88.2345327 59.0219724,85.6009471 L55.8917947,82.4590017 C54.9480343,81.5481906 53.9948599,80.6326725 53.0510996,79.7948204 C49.2478159,76.4316444 45.7175403,73.8616038 41.82953,72.2588586 C37.969762,70.5808009 33.0297296,69.8912204 26.9694231,71.0256157 C20.9326518,72.1482433 14.3098546,74.7582938 7.24694984,78.4250734" id="Fill-8" fill="#FAFAFA"></path>
                <path d="M39.0949785,119.895692 C39.0949785,122.275098 37.1650945,124.204982 34.7856887,124.204982 C32.4062829,124.204982 30.4787524,122.275098 30.4787524,119.895692 C30.4787524,117.516286 32.4062829,115.586402 34.7856887,115.586402 C37.1650945,115.586402 39.0949785,117.516286 39.0949785,119.895692" id="Fill-10" fill="#FAFAFA"></path>
                <path d="M39.0949785,119.895692 C39.0949785,122.275098 37.1650945,124.204982 34.7856887,124.204982 C32.4062829,124.204982 30.4787524,122.275098 30.4787524,119.895692 C30.4787524,117.516286 32.4062829,115.586402 34.7856887,115.586402 C37.1650945,115.586402 39.0949785,117.516286 39.0949785,119.895692" id="Fill-12" fill="#FAFAFA"></path>
            </g>
        </g>
    </g>
</svg>