<svg width="20" height="20" viewBox="0 0 20 20" fill="none" xmlns="http://www.w3.org/2000/svg">
<path d="M11.8737 8.16125C11.753 8.04059 11.6244 7.93183 11.4918 7.83098L11.4915 7.8312C11.3551 7.69997 11.1698 7.61914 10.9656 7.61914C10.5463 7.61914 10.2065 7.95899 10.2065 8.37821C10.2065 8.5637 10.2731 8.7336 10.3837 8.86546H10.3837C10.3837 8.86548 10.3837 8.86552 10.3838 8.86554C10.4369 8.92887 10.5 8.98348 10.571 9.02671C10.6425 9.08573 10.7128 9.14385 10.7785 9.20954L10.8411 9.27214C11.6278 10.0579 11.3929 11.4116 10.6062 12.1983L7.24917 15.5544C6.46248 16.3401 5.18351 16.3401 4.39678 15.5544L4.3337 15.4912C3.54696 14.7046 3.54696 13.4246 4.3337 12.6399L5.81682 11.1572C6.00711 11.0062 6.12926 10.7731 6.12926 10.5113C6.12926 10.056 5.76015 9.68686 5.30482 9.68686C5.133 9.68686 4.97351 9.73946 4.84144 9.82938C4.84102 9.8285 4.84058 9.82766 4.84014 9.82676L4.82433 9.84155C4.76595 9.88352 4.71317 9.93275 4.66758 9.98823L3.1263 11.4305C1.6775 12.8803 1.6775 15.2514 3.1263 16.6992L3.18888 16.7617C4.63768 18.2095 7.00781 18.2095 8.45661 16.7617L11.8126 13.4047C13.2594 11.956 13.3821 9.67063 11.9353 8.22283L11.8737 8.16125Z" fill="#DF2E2D"/>
<path d="M16.7113 3.23853L16.6487 3.17595C15.2 1.72716 12.8298 1.72716 11.381 3.17595L8.02499 6.53298C6.57619 7.98178 6.49641 10.0739 7.9452 11.5237L8.00678 11.5843C8.07258 11.6501 8.14087 11.7121 8.21058 11.7716C8.26105 11.8279 8.32033 11.8762 8.38622 11.9143C8.38672 11.9147 8.38724 11.9151 8.38774 11.9155L8.38796 11.9153C8.49299 11.9757 8.61469 12.0105 8.74456 12.0105C9.14033 12.0105 9.46116 11.6896 9.46116 11.2939C9.46116 11.1822 9.43557 11.0765 9.38996 10.9822C9.29523 10.7695 9.11789 10.64 8.99523 10.5173L8.93363 10.4567C8.14695 9.67003 8.44568 8.52711 9.23237 7.74042L12.5904 4.38435C13.3751 3.59763 14.6546 3.59763 15.4413 4.38435L15.5039 4.44593C16.2906 5.23268 16.2906 6.51309 15.5039 7.29882L14.0256 8.77808C13.8245 8.92707 13.6941 9.16607 13.6941 9.43555C13.6941 9.88718 14.0603 10.2533 14.5119 10.2533C14.6691 10.2533 14.8159 10.2089 14.9405 10.132C14.9415 10.1336 14.9423 10.1351 14.9433 10.1367L14.9662 10.1155C15.0368 10.0683 15.0996 10.0102 15.1523 9.94382L16.7103 8.50626C18.1601 7.05748 18.1601 4.68731 16.7113 3.23853Z" fill="#DF2E2D"/>
</svg>
