<svg width="292" height="40" viewBox="0 0 292 40" fill="none" xmlns="http://www.w3.org/2000/svg">
<path d="M195.416 14.8769C195.498 16.8644 195.775 20.2289 195.917 21.8807C195.927 22.0011 195.911 22.1223 195.871 22.2361C195.83 22.35 195.766 22.4539 195.682 22.541C195.599 22.6281 195.497 22.6964 195.385 22.7413C195.273 22.7862 195.152 22.8067 195.032 22.8015C193.815 22.7443 191.535 22.6579 188.815 22.6458C186.162 22.6336 183.966 22.7066 182.778 22.7577C182.658 22.7623 182.538 22.7415 182.427 22.6965C182.315 22.6515 182.214 22.5834 182.131 22.4966C182.048 22.4098 181.984 22.3064 181.943 22.1931C181.903 22.0798 181.887 21.9592 181.896 21.8393C182.031 20.2021 182.295 16.8632 182.377 14.8769C182.436 13.1898 183.149 11.592 184.366 10.4224C185.583 9.25268 187.208 8.60311 188.896 8.61141C190.584 8.60311 192.209 9.25268 193.426 10.4224C194.644 11.592 195.357 13.1898 195.416 14.8769ZM188.887 11.7143C188.129 11.7143 187.388 11.9391 186.758 12.3601C186.128 12.7811 185.637 13.3795 185.347 14.0796C185.057 14.7797 184.981 15.5501 185.129 16.2934C185.277 17.0366 185.642 17.7193 186.177 18.2552C186.713 18.791 187.396 19.1559 188.139 19.3038C188.882 19.4516 189.653 19.3758 190.353 19.0858C191.053 18.7958 191.651 18.3047 192.072 17.6746C192.493 17.0445 192.718 16.3037 192.718 15.5459C192.718 15.0427 192.619 14.5445 192.427 14.0796C192.234 13.6147 191.952 13.1924 191.596 12.8366C191.24 12.4808 190.818 12.1986 190.353 12.006C189.888 11.8134 189.39 11.7143 188.887 11.7143V11.7143Z" fill="url(#paint0_linear_1959_29629)"/>
<path d="M188.954 13.3486C189.177 13.6036 189.3 13.9308 189.299 14.2694C189.296 14.4629 189.254 14.6537 189.176 14.8309C189.099 15.0082 188.987 15.1685 188.847 15.3025C188.708 15.4366 188.543 15.5419 188.363 15.6124C188.183 15.6828 187.991 15.7171 187.797 15.7132C187.573 15.7146 187.352 15.6666 187.149 15.5726C186.946 15.4786 186.766 15.341 186.622 15.1695C186.596 15.305 186.582 15.4426 186.582 15.5807C186.582 16.814 187.622 17.8139 188.906 17.8139C190.191 17.8139 191.231 16.814 191.231 15.5807C191.231 14.3473 190.218 13.3681 188.954 13.3486Z" fill="#2D2F31"/>
<path d="M192.39 11.0323C192.361 11.0341 192.331 11.03 192.303 11.0202C192.275 11.0105 192.25 10.9952 192.228 10.9754C192.206 10.9556 192.188 10.9316 192.175 10.9048C192.163 10.878 192.156 10.849 192.154 10.8194C192.135 10.3207 192.224 9.29898 193.517 8.18358C194.406 7.41605 195.647 7.13872 197.206 7.35767C197.236 7.36192 197.264 7.37212 197.29 7.38764C197.315 7.40315 197.338 7.42368 197.355 7.44798C197.373 7.47228 197.385 7.49986 197.392 7.52907C197.398 7.55828 197.399 7.58851 197.393 7.61797V7.61797C197.383 7.67444 197.352 7.72477 197.305 7.75835C197.258 7.79193 197.201 7.80614 197.144 7.79799C195.726 7.59729 194.61 7.83813 193.827 8.51199C192.704 9.48508 192.611 10.3572 192.611 10.8048C192.612 10.8622 192.591 10.918 192.553 10.9602C192.514 11.0025 192.46 11.0279 192.403 11.0311L192.39 11.0323Z" fill="#2D2F31"/>
<path d="M196.888 8.02925C197.245 8.02925 197.534 7.75097 197.534 7.40769C197.534 7.06441 197.245 6.78613 196.888 6.78613C196.531 6.78613 196.242 7.06441 196.242 7.40769C196.242 7.75097 196.531 8.02925 196.888 8.02925Z" fill="#2D2F31"/>
<path d="M185.639 11.0737C185.669 11.0757 185.698 11.0717 185.726 11.0621C185.754 11.0525 185.78 11.0374 185.802 11.0176C185.824 10.9979 185.842 10.974 185.854 10.9473C185.867 10.9205 185.874 10.8916 185.875 10.8621C185.896 10.3512 185.811 9.18713 184.513 8.06443C183.624 7.29691 182.384 7.01958 180.825 7.23853C180.795 7.24264 180.767 7.25272 180.741 7.26818C180.715 7.28363 180.693 7.30413 180.675 7.32845C180.658 7.35277 180.645 7.3804 180.638 7.40968C180.632 7.43896 180.631 7.46928 180.636 7.49883V7.49883C180.647 7.55411 180.677 7.60347 180.722 7.6369C180.768 7.67033 180.824 7.68533 180.88 7.67885C182.298 7.47815 183.413 7.71899 184.197 8.39285C185.324 9.36594 185.42 10.3804 185.407 10.8402C185.405 10.8978 185.426 10.9538 185.465 10.9965C185.504 11.0392 185.557 11.0651 185.615 11.0688L185.639 11.0737Z" fill="#2D2F31"/>
<path d="M181.234 8.02925C181.59 8.02925 181.88 7.75097 181.88 7.40769C181.88 7.06441 181.59 6.78613 181.234 6.78613C180.877 6.78613 180.588 7.06441 180.588 7.40769C180.588 7.75097 180.877 8.02925 181.234 8.02925Z" fill="#2D2F31"/>
<path d="M209.667 30.6863C209.667 28.6708 204.618 25.4694 204.618 25.4694L204.561 25.4523C205.392 22.0854 205.82 20.5869 205.876 18.3974C205.998 13.397 204.735 9.16406 201.566 5.45294C198.619 2.00213 193.928 0 188.916 0C183.59 0 179.483 2.0301 176.438 5.39334C173.392 8.75658 171.863 12.4008 171.954 18.3378C171.979 19.9994 172.357 22.7885 173.171 25.2893L173.113 25.3064C173.113 25.3064 168.154 28.4507 168.154 30.6267C168.154 31.2702 170.83 32.0864 176.35 32.3454L173.272 36.9579C173.15 37.3508 173.227 37.8908 173.556 38.1219C173.881 38.3359 174.252 38.4681 174.639 38.5075C175.225 38.5246 175.406 38.3555 175.622 37.9675L178.715 32.5863C181.999 32.7164 184.087 32.7858 187.845 32.7931V38.9515C187.867 39.3225 188.024 40 189.02 40C189.926 40 190.08 39.3651 190.08 38.9515V32.7967C193.834 32.7894 195.874 32.8393 199.152 32.7104L202.391 37.9079C202.45 38.0756 202.562 38.2195 202.71 38.3173C202.859 38.4151 203.035 38.4615 203.212 38.4491C203.529 38.4537 203.84 38.3694 204.111 38.2059C204.476 38.0429 204.476 37.4432 204.328 36.8995L201.279 32.4646C206.606 32.0219 209.667 31.2033 209.667 30.6863ZM177.699 30.0952C177.203 30.0875 176.731 29.8833 176.386 29.5275C176.041 29.1716 175.851 28.6933 175.859 28.1977C175.859 27.1492 176.682 26.4181 177.699 26.4181C178.716 26.4181 179.539 27.1479 179.539 28.1977C179.547 28.6933 179.357 29.1716 179.012 29.5275C178.667 29.8833 178.195 30.0875 177.699 30.0952ZM188.911 30.1998C188.534 30.2114 188.161 30.11 187.841 29.9085C187.521 29.707 187.269 29.4146 187.116 29.0688C186.963 28.7229 186.917 28.3394 186.984 27.9673C187.051 27.5951 187.227 27.2514 187.49 26.98C187.753 26.7087 188.092 26.522 188.461 26.444C188.831 26.3661 189.216 26.4003 189.566 26.5423C189.917 26.6843 190.217 26.9277 190.428 27.2412C190.639 27.5548 190.752 27.9242 190.752 28.3023C190.759 28.7979 190.57 29.2762 190.225 29.6321C189.879 29.9879 189.407 30.1921 188.911 30.1998V30.1998ZM200.124 30.3056C199.746 30.3172 199.373 30.2158 199.053 30.0143C198.734 29.8128 198.481 29.5204 198.328 29.1746C198.176 28.8287 198.13 28.4452 198.196 28.0731C198.263 27.701 198.439 27.3572 198.703 27.0858C198.966 26.8145 199.304 26.6279 199.674 26.5499C200.044 26.4719 200.428 26.5061 200.779 26.6481C201.129 26.7901 201.429 27.0335 201.64 27.3471C201.852 27.6606 201.964 28.0301 201.964 28.4081C201.972 28.9037 201.782 29.3821 201.437 29.7379C201.092 30.0937 200.62 30.2979 200.124 30.3056V30.3056ZM202.947 24.759C199.388 23.8528 194.121 23.8978 188.911 23.8978C183.702 23.8978 178.816 23.7385 174.855 24.759C174.263 22.3786 173.798 20.003 173.739 18.1627C173.462 9.60924 179.24 1.49856 188.911 1.49856C198.583 1.49856 204.553 9.61533 204.184 18.1627C204.067 20.8533 203.317 23.3164 202.942 24.759H202.947Z" fill="url(#paint1_linear_1959_29629)"/>
<path d="M221.487 12.5162C223.149 12.5162 224.575 12.8592 225.765 13.5452C226.946 14.2196 227.891 15.2415 228.47 16.4718C229.082 17.7368 229.388 19.2224 229.388 20.9286C229.403 22.0937 229.233 23.2539 228.885 24.366C228.574 25.355 228.061 26.2685 227.378 27.0481C226.7 27.81 225.854 28.4042 224.907 28.7838C223.934 29.1844 222.816 29.3847 221.553 29.3847C220.401 29.4039 219.257 29.1939 218.187 28.7668C217.237 28.3849 216.388 27.7893 215.706 27.0262C215.021 26.2371 214.509 25.3136 214.203 24.3149C213.857 23.2094 213.685 22.0566 213.695 20.8981C213.682 19.727 213.861 18.5617 214.225 17.4485C214.545 16.4614 215.068 15.552 215.76 14.7786C216.438 14.0386 217.276 13.4621 218.209 13.0928C219.254 12.6908 220.367 12.495 221.487 12.5162V12.5162ZM226.098 20.9091C226.098 19.7146 225.909 18.6799 225.53 17.8049C225.151 16.93 224.611 16.2679 223.908 15.8186C223.183 15.3639 222.342 15.1302 221.487 15.146C220.868 15.1398 220.255 15.2668 219.689 15.5182C219.14 15.7674 218.654 16.1385 218.269 16.6032C217.838 17.143 217.518 17.7633 217.329 18.4277C217.09 19.2344 216.974 20.0726 216.985 20.914C216.974 21.7649 217.09 22.6127 217.329 23.4294C217.523 24.1105 217.854 24.7447 218.303 25.2929C218.694 25.7653 219.187 26.1436 219.745 26.3997C220.397 26.6812 221.107 26.8039 221.815 26.7575C222.524 26.7112 223.211 26.4973 223.821 26.1334C224.517 25.7101 225.071 25.0573 225.483 24.175C225.895 23.2928 226.1 22.2013 226.098 20.9006V20.9091Z" fill="black"/>
<path d="M234.918 24.9965V27.5326C234.918 28.1497 234.776 28.6115 234.491 28.918C234.355 29.0685 234.188 29.1877 234.001 29.2675C233.815 29.3473 233.613 29.3857 233.41 29.3802C233.21 29.3856 233.011 29.3464 232.827 29.2657C232.644 29.1849 232.481 29.0645 232.349 28.9131C232.074 28.6017 231.935 28.1416 231.935 27.5326V19.0764C231.935 17.7117 232.421 17.0293 233.394 17.0293C233.889 17.0293 234.246 17.1886 234.465 17.5073C234.684 17.826 234.805 18.2971 234.83 18.9207C235.112 18.391 235.482 17.9131 235.924 17.5073C236.299 17.1886 236.8 17.0293 237.426 17.0293C238.065 17.0325 238.693 17.1969 239.251 17.5073C239.842 17.8268 240.137 18.2497 240.136 18.776C240.142 18.947 240.111 19.1171 240.046 19.2754C239.981 19.4336 239.883 19.5764 239.759 19.6943C239.655 19.8059 239.529 19.8956 239.389 19.9582C239.249 20.0208 239.099 20.0552 238.946 20.0592C238.675 20.0205 238.409 19.9516 238.154 19.8537C237.797 19.7277 237.423 19.6583 237.044 19.6481C236.657 19.6315 236.276 19.756 235.973 19.9984C235.666 20.2789 235.443 20.6389 235.328 21.0384C235.16 21.5715 235.054 22.122 235.012 22.6793C234.95 23.3118 234.918 24.0842 234.918 24.9965Z" fill="black"/>
<path d="M244.512 14.2472V18.8876C245.008 18.3451 245.587 17.8848 246.227 17.5241C246.81 17.2094 247.532 17.0517 248.391 17.0509C249.314 17.0192 250.225 17.2702 251.001 17.7701C251.777 18.2701 252.382 18.9953 252.735 19.8485C253.148 20.7575 253.354 21.8348 253.353 23.0804C253.362 23.9364 253.246 24.7891 253.009 25.6116C252.802 26.3337 252.463 27.0109 252.009 27.6089C251.586 28.1612 251.042 28.6086 250.419 28.9165C249.777 29.2287 249.072 29.3869 248.359 29.3787C247.922 29.3813 247.486 29.3253 247.064 29.2121C246.7 29.1181 246.352 28.9696 246.032 28.7717C245.77 28.6092 245.526 28.4209 245.302 28.2098C245.101 28.0176 244.837 27.7285 244.51 27.3425V27.643C244.51 28.2106 244.375 28.6428 244.105 28.9396C243.976 29.0824 243.817 29.1956 243.64 29.2714C243.462 29.3471 243.271 29.3838 243.078 29.3787C242.888 29.3865 242.698 29.351 242.523 29.275C242.348 29.199 242.192 29.0843 242.068 28.9396C241.815 28.6469 241.69 28.2146 241.69 27.643V14.3846C241.69 13.7692 241.812 13.3037 242.055 12.9882C242.176 12.8324 242.332 12.708 242.511 12.6258C242.689 12.5436 242.885 12.506 243.082 12.5163C243.54 12.5163 243.893 12.6663 244.141 12.9664C244.39 13.2664 244.513 13.6933 244.512 14.2472ZM244.655 23.2714C244.655 24.4804 244.926 25.4093 245.468 26.058C245.726 26.3734 246.052 26.6253 246.423 26.794C246.793 26.9628 247.198 27.0439 247.604 27.0311C248.354 27.0311 249.003 26.6991 249.551 26.0349C250.098 25.3708 250.369 24.4196 250.364 23.1813C250.38 22.4771 250.265 21.776 250.026 21.1135C249.837 20.5864 249.503 20.1229 249.064 19.7755C248.645 19.4581 248.13 19.2914 247.604 19.3024C247.061 19.2946 246.529 19.4603 246.086 19.7755C245.615 20.1244 245.251 20.5985 245.037 21.1439C244.767 21.8201 244.637 22.5437 244.655 23.2714V23.2714Z" fill="black"/>
<path d="M257.254 15.6159C256.863 15.6245 256.483 15.4855 256.189 15.2267C255.893 14.968 255.746 14.6007 255.747 14.1247C255.741 13.9254 255.778 13.7272 255.857 13.5439C255.935 13.3605 256.052 13.1964 256.2 13.0628C256.484 12.7918 256.862 12.6421 257.254 12.6456C257.631 12.6418 257.997 12.7764 258.282 13.0239C258.581 13.2753 258.73 13.6402 258.729 14.1186C258.729 14.5873 258.584 14.9522 258.293 15.2133C258.011 15.4764 257.639 15.6206 257.254 15.6159V15.6159ZM258.729 18.7541V27.5326C258.729 28.1424 258.587 28.6026 258.303 28.9132C258.168 29.0649 258.001 29.1852 257.814 29.2659C257.628 29.3465 257.425 29.3856 257.222 29.3803C257.02 29.3863 256.819 29.3464 256.634 29.2636C256.45 29.1808 256.287 29.0573 256.157 28.9022C255.883 28.5827 255.747 28.1262 255.747 27.5326V18.8417C255.747 18.2408 255.883 17.7884 256.157 17.4843C256.29 17.3346 256.454 17.2162 256.638 17.1373C256.823 17.0585 257.022 17.0212 257.222 17.0281C257.424 17.0225 257.626 17.0603 257.812 17.139C257.999 17.2177 258.166 17.3354 258.303 17.4843C258.588 17.7892 258.73 18.2125 258.729 18.7541Z" fill="black"/>
<path d="M261.975 17.2952H262.3V15.4707C262.3 14.9841 262.313 14.6001 262.339 14.3188C262.357 14.0669 262.429 13.8219 262.552 13.6011C262.672 13.3909 262.845 13.2162 263.054 13.0951C263.275 12.9648 263.528 12.8975 263.784 12.9005C264.171 12.9034 264.54 13.0596 264.812 13.3347C265.013 13.5227 265.149 13.7705 265.199 14.0414C265.262 14.433 265.29 14.8296 265.282 15.2262V17.294H266.376C266.8 17.294 267.124 17.3962 267.349 17.6005C267.458 17.6994 267.545 17.8207 267.602 17.9562C267.66 18.0916 267.687 18.238 267.683 18.3851C267.683 18.7905 267.524 19.0743 267.208 19.2365C266.892 19.3987 266.438 19.4798 265.847 19.4798H265.29V25.0665C265.285 25.4321 265.301 25.7976 265.339 26.1612C265.36 26.3909 265.452 26.6083 265.601 26.784C265.744 26.9462 265.975 27.0273 266.295 27.0273C266.534 27.0192 266.772 26.9874 267.005 26.9324C267.235 26.8781 267.469 26.8464 267.705 26.8375C267.828 26.8393 267.949 26.8664 268.061 26.9173C268.173 26.9681 268.273 27.0416 268.355 27.1331C268.45 27.2288 268.525 27.3428 268.575 27.4683C268.625 27.5938 268.648 27.728 268.645 27.8629C268.645 28.3495 268.382 28.7241 267.858 28.9869C267.333 29.2496 266.579 29.3793 265.595 29.3761C264.664 29.3761 263.957 29.2167 263.475 28.8981C263.004 28.5919 262.666 28.1186 262.53 27.5734C262.382 27.0107 262.307 26.2577 262.306 25.3147V19.4871H261.913C261.483 19.4871 261.156 19.3837 260.929 19.1757C260.819 19.0765 260.732 18.9545 260.673 18.8182C260.615 18.6819 260.587 18.5345 260.591 18.3863C260.587 18.2372 260.617 18.0892 260.679 17.9533C260.74 17.8174 260.832 17.6972 260.946 17.6017C261.18 17.3974 261.523 17.2952 261.975 17.2952Z" fill="black"/>
<path d="M278.061 23.9496H272.223C272.217 24.5813 272.357 25.2058 272.633 25.7742C272.865 26.2639 273.233 26.677 273.692 26.965C274.132 27.2313 274.638 27.3699 275.152 27.3652C275.481 27.3681 275.808 27.3252 276.125 27.2374C276.427 27.147 276.714 27.0121 276.976 26.8373C277.245 26.6608 277.501 26.4653 277.741 26.2522C277.974 26.0454 278.277 25.7616 278.649 25.4007C278.835 25.2557 279.069 25.1843 279.304 25.2C279.576 25.1883 279.841 25.2801 280.048 25.4567C280.145 25.5495 280.22 25.6623 280.269 25.7873C280.318 25.9123 280.339 26.0465 280.331 26.1804C280.31 26.5229 280.201 26.8541 280.015 27.1426C279.765 27.5521 279.44 27.9108 279.058 28.1996C278.574 28.568 278.031 28.8517 277.452 29.0389C276.734 29.2729 275.982 29.386 275.227 29.3734C273.312 29.3734 271.822 28.8171 270.758 27.7045C269.694 26.592 269.162 25.0825 269.162 23.176C269.155 22.3271 269.288 21.4828 269.557 20.6776C269.797 19.9465 270.188 19.2738 270.704 18.7022C271.218 18.1452 271.854 17.7133 272.561 17.4397C273.342 17.1387 274.173 16.9896 275.009 17.0006C276.175 17.0006 277.175 17.2507 278.009 17.7511C278.804 18.2117 279.453 18.886 279.883 19.6972C280.286 20.4431 280.5 21.2763 280.506 22.1239C280.506 22.8877 280.291 23.3828 279.862 23.609C279.432 23.8353 278.832 23.9488 278.061 23.9496ZM272.223 22.2248H277.632C277.559 21.1861 277.284 20.4088 276.807 19.8931C276.33 19.3773 275.702 19.1199 274.922 19.1207C274.579 19.1115 274.238 19.1769 273.923 19.3123C273.608 19.4478 273.327 19.6501 273.097 19.9052C272.619 20.4275 272.329 21.2007 272.226 22.2248H272.223Z" fill="black"/>
<path d="M285.995 24.9965V27.5326C285.995 28.1497 285.854 28.6115 285.57 28.918C285.433 29.0684 285.266 29.1875 285.079 29.2673C284.892 29.347 284.69 29.3856 284.487 29.3802C284.287 29.3855 284.088 29.3464 283.905 29.2656C283.722 29.1849 283.559 29.0645 283.428 28.9131C283.15 28.6017 283.012 28.1416 283.012 27.5326V19.0764C283.012 17.7117 283.498 17.0293 284.471 17.0293C284.966 17.0293 285.323 17.1886 285.543 17.5073C285.763 17.826 285.884 18.2971 285.908 18.9207C286.19 18.391 286.56 17.9131 287.003 17.5073C287.377 17.1886 287.878 17.0293 288.505 17.0293C289.144 17.0327 289.771 17.1971 290.329 17.5073C290.919 17.8268 291.214 18.2497 291.214 18.776C291.219 18.947 291.188 19.1171 291.123 19.2754C291.058 19.4336 290.96 19.5764 290.837 19.6943C290.732 19.806 290.606 19.8957 290.466 19.9584C290.327 20.021 290.176 20.0553 290.023 20.0592C289.752 20.0205 289.486 19.9516 289.231 19.8537C288.874 19.7277 288.5 19.6583 288.122 19.6481C287.734 19.6317 287.353 19.7562 287.05 19.9984C286.744 20.2792 286.521 20.6391 286.405 21.0384C286.239 21.5718 286.133 22.1222 286.089 22.6793C286.027 23.3118 285.995 24.0842 285.995 24.9965Z" fill="black"/>
<line x1="152.5" y1="-3.92191e-07" x2="152.5" y2="40" stroke="#333333" stroke-opacity="0.4"/>
<path d="M195.416 14.8769C195.498 16.8644 195.775 20.2289 195.917 21.8807C195.927 22.0011 195.911 22.1223 195.871 22.2361C195.83 22.35 195.766 22.4539 195.682 22.541C195.599 22.6281 195.497 22.6964 195.385 22.7413C195.273 22.7862 195.152 22.8067 195.032 22.8015C193.815 22.7443 191.535 22.6579 188.815 22.6458C186.162 22.6336 183.966 22.7066 182.778 22.7577C182.658 22.7623 182.538 22.7415 182.427 22.6965C182.315 22.6515 182.214 22.5834 182.131 22.4966C182.048 22.4098 181.984 22.3064 181.943 22.1931C181.903 22.0798 181.887 21.9592 181.896 21.8393C182.031 20.2021 182.295 16.8632 182.377 14.8769C182.436 13.1898 183.149 11.592 184.366 10.4224C185.583 9.25268 187.208 8.60311 188.896 8.61141C190.584 8.60311 192.209 9.25268 193.426 10.4224C194.644 11.592 195.357 13.1898 195.416 14.8769ZM188.887 11.7143C188.129 11.7143 187.388 11.9391 186.758 12.3601C186.128 12.7811 185.637 13.3795 185.347 14.0796C185.057 14.7797 184.981 15.5501 185.129 16.2934C185.277 17.0366 185.642 17.7193 186.177 18.2552C186.713 18.791 187.396 19.1559 188.139 19.3038C188.882 19.4516 189.653 19.3758 190.353 19.0858C191.053 18.7958 191.651 18.3047 192.072 17.6746C192.493 17.0445 192.718 16.3037 192.718 15.5459C192.718 15.0427 192.619 14.5445 192.427 14.0796C192.234 13.6147 191.952 13.1924 191.596 12.8366C191.24 12.4808 190.818 12.1986 190.353 12.006C189.888 11.8134 189.39 11.7143 188.887 11.7143V11.7143Z" fill="url(#paint2_linear_1959_29629)"/>
<path d="M188.954 13.3486C189.177 13.6036 189.3 13.9308 189.299 14.2694C189.296 14.4629 189.254 14.6537 189.176 14.8309C189.099 15.0082 188.987 15.1685 188.847 15.3025C188.708 15.4366 188.543 15.5419 188.363 15.6124C188.183 15.6828 187.991 15.7171 187.797 15.7132C187.573 15.7146 187.352 15.6666 187.149 15.5726C186.946 15.4786 186.766 15.341 186.622 15.1695C186.596 15.305 186.582 15.4426 186.582 15.5807C186.582 16.814 187.622 17.8139 188.906 17.8139C190.191 17.8139 191.231 16.814 191.231 15.5807C191.231 14.3473 190.218 13.3681 188.954 13.3486Z" fill="#2D2F31"/>
<path d="M192.39 11.0323C192.361 11.0341 192.331 11.03 192.303 11.0202C192.275 11.0105 192.25 10.9952 192.228 10.9754C192.206 10.9556 192.188 10.9316 192.175 10.9048C192.163 10.878 192.156 10.849 192.154 10.8194C192.135 10.3207 192.224 9.29898 193.517 8.18358C194.406 7.41605 195.647 7.13872 197.206 7.35767C197.236 7.36192 197.264 7.37212 197.29 7.38764C197.315 7.40315 197.338 7.42368 197.355 7.44798C197.373 7.47228 197.385 7.49986 197.392 7.52907C197.398 7.55828 197.399 7.58851 197.393 7.61797V7.61797C197.383 7.67444 197.352 7.72477 197.305 7.75835C197.258 7.79193 197.201 7.80614 197.144 7.79799C195.726 7.59729 194.61 7.83813 193.827 8.51199C192.704 9.48508 192.611 10.3572 192.611 10.8048C192.612 10.8622 192.591 10.918 192.553 10.9602C192.514 11.0025 192.46 11.0279 192.403 11.0311L192.39 11.0323Z" fill="#2D2F31"/>
<path d="M196.888 8.02925C197.245 8.02925 197.534 7.75097 197.534 7.40769C197.534 7.06441 197.245 6.78613 196.888 6.78613C196.531 6.78613 196.242 7.06441 196.242 7.40769C196.242 7.75097 196.531 8.02925 196.888 8.02925Z" fill="#2D2F31"/>
<path d="M185.639 11.0737C185.669 11.0757 185.698 11.0717 185.726 11.0621C185.754 11.0525 185.78 11.0374 185.802 11.0176C185.824 10.9979 185.842 10.974 185.854 10.9473C185.867 10.9205 185.874 10.8916 185.875 10.8621C185.896 10.3512 185.811 9.18713 184.513 8.06443C183.624 7.29691 182.384 7.01958 180.825 7.23853C180.795 7.24264 180.767 7.25272 180.741 7.26818C180.715 7.28363 180.693 7.30413 180.675 7.32845C180.658 7.35277 180.645 7.3804 180.638 7.40968C180.632 7.43896 180.631 7.46928 180.636 7.49883V7.49883C180.647 7.55411 180.677 7.60347 180.722 7.6369C180.768 7.67033 180.824 7.68533 180.88 7.67885C182.298 7.47815 183.413 7.71899 184.197 8.39285C185.324 9.36594 185.42 10.3804 185.407 10.8402C185.405 10.8978 185.426 10.9538 185.465 10.9965C185.504 11.0392 185.557 11.0651 185.615 11.0688L185.639 11.0737Z" fill="#2D2F31"/>
<path d="M181.234 8.02925C181.59 8.02925 181.88 7.75097 181.88 7.40769C181.88 7.06441 181.59 6.78613 181.234 6.78613C180.877 6.78613 180.588 7.06441 180.588 7.40769C180.588 7.75097 180.877 8.02925 181.234 8.02925Z" fill="#2D2F31"/>
<path d="M209.667 30.6863C209.667 28.6708 204.618 25.4694 204.618 25.4694L204.561 25.4523C205.392 22.0854 205.82 20.5869 205.876 18.3974C205.998 13.397 204.735 9.16406 201.566 5.45294C198.619 2.00213 193.928 0 188.916 0C183.59 0 179.483 2.0301 176.438 5.39334C173.392 8.75658 171.863 12.4008 171.954 18.3378C171.979 19.9994 172.357 22.7885 173.171 25.2893L173.113 25.3064C173.113 25.3064 168.154 28.4507 168.154 30.6267C168.154 31.2702 170.83 32.0864 176.35 32.3454L173.272 36.9579C173.15 37.3508 173.227 37.8908 173.556 38.1219C173.881 38.3359 174.252 38.4681 174.639 38.5075C175.225 38.5246 175.406 38.3555 175.622 37.9675L178.715 32.5863C181.999 32.7164 184.087 32.7858 187.845 32.7931V38.9515C187.867 39.3225 188.024 40 189.02 40C189.926 40 190.08 39.3651 190.08 38.9515V32.7967C193.834 32.7894 195.874 32.8393 199.152 32.7104L202.391 37.9079C202.45 38.0756 202.562 38.2195 202.71 38.3173C202.859 38.4151 203.035 38.4615 203.212 38.4491C203.529 38.4537 203.84 38.3694 204.111 38.2059C204.476 38.0429 204.476 37.4432 204.328 36.8995L201.279 32.4646C206.606 32.0219 209.667 31.2033 209.667 30.6863ZM177.699 30.0952C177.203 30.0875 176.731 29.8833 176.386 29.5275C176.041 29.1716 175.851 28.6933 175.859 28.1977C175.859 27.1492 176.682 26.4181 177.699 26.4181C178.716 26.4181 179.539 27.1479 179.539 28.1977C179.547 28.6933 179.357 29.1716 179.012 29.5275C178.667 29.8833 178.195 30.0875 177.699 30.0952ZM188.911 30.1998C188.534 30.2114 188.161 30.11 187.841 29.9085C187.521 29.707 187.269 29.4146 187.116 29.0688C186.963 28.7229 186.917 28.3394 186.984 27.9673C187.051 27.5951 187.227 27.2514 187.49 26.98C187.753 26.7087 188.092 26.522 188.461 26.444C188.831 26.3661 189.216 26.4003 189.566 26.5423C189.917 26.6843 190.217 26.9277 190.428 27.2412C190.639 27.5548 190.752 27.9242 190.752 28.3023C190.759 28.7979 190.57 29.2762 190.225 29.6321C189.879 29.9879 189.407 30.1921 188.911 30.1998ZM200.124 30.3056C199.746 30.3172 199.373 30.2158 199.053 30.0143C198.734 29.8128 198.481 29.5204 198.328 29.1746C198.176 28.8287 198.13 28.4452 198.196 28.0731C198.263 27.701 198.439 27.3572 198.703 27.0858C198.966 26.8145 199.304 26.6279 199.674 26.5499C200.044 26.4719 200.428 26.5061 200.779 26.6481C201.129 26.7901 201.429 27.0335 201.64 27.3471C201.852 27.6606 201.964 28.0301 201.964 28.4081C201.972 28.9037 201.782 29.3821 201.437 29.7379C201.092 30.0937 200.62 30.2979 200.124 30.3056ZM202.947 24.759C199.388 23.8528 194.121 23.8978 188.911 23.8978C183.702 23.8978 178.816 23.7385 174.855 24.759C174.263 22.3786 173.798 20.003 173.739 18.1627C173.462 9.60924 179.24 1.49856 188.911 1.49856C198.583 1.49856 204.553 9.61533 204.184 18.1627C204.067 20.8533 203.317 23.3164 202.942 24.759H202.947Z" fill="url(#paint3_linear_1959_29629)"/>
<path d="M221.487 12.5162C223.149 12.5162 224.575 12.8592 225.765 13.5452C226.946 14.2196 227.891 15.2415 228.47 16.4718C229.082 17.7368 229.388 19.2224 229.388 20.9286C229.403 22.0937 229.233 23.2539 228.885 24.366C228.574 25.355 228.061 26.2685 227.378 27.0481C226.7 27.81 225.854 28.4042 224.907 28.7838C223.934 29.1844 222.816 29.3847 221.553 29.3847C220.401 29.4039 219.257 29.1939 218.187 28.7668C217.237 28.3849 216.388 27.7893 215.706 27.0262C215.021 26.2371 214.509 25.3136 214.203 24.3149C213.857 23.2094 213.685 22.0566 213.695 20.8981C213.682 19.727 213.861 18.5617 214.225 17.4485C214.545 16.4614 215.068 15.552 215.76 14.7786C216.438 14.0386 217.276 13.4621 218.209 13.0928C219.254 12.6908 220.367 12.495 221.487 12.5162V12.5162ZM226.098 20.9091C226.098 19.7146 225.909 18.6799 225.53 17.8049C225.151 16.93 224.611 16.2679 223.908 15.8186C223.183 15.3639 222.342 15.1302 221.487 15.146C220.868 15.1398 220.255 15.2668 219.689 15.5182C219.14 15.7674 218.654 16.1385 218.269 16.6032C217.838 17.143 217.518 17.7633 217.329 18.4277C217.09 19.2344 216.974 20.0726 216.985 20.914C216.974 21.7649 217.09 22.6127 217.329 23.4294C217.523 24.1105 217.854 24.7447 218.303 25.2929C218.694 25.7653 219.187 26.1436 219.745 26.3997C220.397 26.6812 221.107 26.8039 221.815 26.7575C222.524 26.7112 223.211 26.4973 223.821 26.1334C224.517 25.7101 225.071 25.0573 225.483 24.175C225.895 23.2928 226.1 22.2013 226.098 20.9006V20.9091Z" fill="black"/>
<path d="M234.918 24.9965V27.5326C234.918 28.1497 234.776 28.6115 234.491 28.918C234.355 29.0685 234.188 29.1877 234.001 29.2675C233.815 29.3473 233.613 29.3857 233.41 29.3802C233.21 29.3856 233.011 29.3464 232.827 29.2657C232.644 29.1849 232.481 29.0645 232.349 28.9131C232.074 28.6017 231.935 28.1416 231.935 27.5326V19.0764C231.935 17.7117 232.421 17.0293 233.394 17.0293C233.889 17.0293 234.246 17.1886 234.465 17.5073C234.684 17.826 234.805 18.2971 234.83 18.9207C235.112 18.391 235.482 17.9131 235.924 17.5073C236.299 17.1886 236.8 17.0293 237.426 17.0293C238.065 17.0325 238.693 17.1969 239.251 17.5073C239.842 17.8268 240.137 18.2497 240.136 18.776C240.142 18.947 240.111 19.1171 240.046 19.2754C239.981 19.4336 239.883 19.5764 239.759 19.6943C239.655 19.8059 239.529 19.8956 239.389 19.9582C239.249 20.0208 239.099 20.0552 238.946 20.0592C238.675 20.0205 238.409 19.9516 238.154 19.8537C237.797 19.7277 237.423 19.6583 237.044 19.6481C236.657 19.6315 236.276 19.756 235.973 19.9984C235.666 20.2789 235.443 20.6389 235.328 21.0384C235.16 21.5715 235.054 22.122 235.012 22.6793C234.95 23.3118 234.918 24.0842 234.918 24.9965Z" fill="black"/>
<path d="M244.512 14.2472V18.8876C245.008 18.3451 245.587 17.8848 246.227 17.5241C246.81 17.2094 247.532 17.0517 248.391 17.0509C249.314 17.0192 250.225 17.2702 251.001 17.7701C251.777 18.2701 252.382 18.9953 252.735 19.8485C253.148 20.7575 253.354 21.8348 253.353 23.0804C253.362 23.9364 253.246 24.7891 253.009 25.6116C252.802 26.3337 252.463 27.0109 252.009 27.6089C251.586 28.1612 251.042 28.6086 250.419 28.9165C249.777 29.2287 249.072 29.3869 248.359 29.3787C247.922 29.3813 247.486 29.3253 247.064 29.2121C246.7 29.1181 246.352 28.9696 246.032 28.7717C245.77 28.6092 245.526 28.4209 245.302 28.2098C245.101 28.0176 244.837 27.7285 244.51 27.3425V27.643C244.51 28.2106 244.375 28.6428 244.105 28.9396C243.976 29.0824 243.817 29.1956 243.64 29.2714C243.462 29.3471 243.271 29.3838 243.078 29.3787C242.888 29.3865 242.698 29.351 242.523 29.275C242.348 29.199 242.192 29.0843 242.068 28.9396C241.815 28.6469 241.69 28.2146 241.69 27.643V14.3846C241.69 13.7692 241.812 13.3037 242.055 12.9882C242.176 12.8324 242.332 12.708 242.511 12.6258C242.689 12.5436 242.885 12.506 243.082 12.5163C243.54 12.5163 243.893 12.6663 244.141 12.9664C244.39 13.2664 244.513 13.6933 244.512 14.2472ZM244.655 23.2714C244.655 24.4804 244.926 25.4093 245.468 26.058C245.726 26.3734 246.052 26.6253 246.423 26.794C246.793 26.9628 247.198 27.0439 247.604 27.0311C248.354 27.0311 249.003 26.6991 249.551 26.0349C250.098 25.3708 250.369 24.4196 250.364 23.1813C250.38 22.4771 250.265 21.776 250.026 21.1135C249.837 20.5864 249.503 20.1229 249.064 19.7755C248.645 19.4581 248.13 19.2914 247.604 19.3024C247.061 19.2946 246.529 19.4603 246.086 19.7755C245.615 20.1244 245.251 20.5985 245.037 21.1439C244.767 21.8201 244.637 22.5437 244.655 23.2714V23.2714Z" fill="black"/>
<path d="M257.254 15.6159C256.863 15.6245 256.483 15.4855 256.189 15.2267C255.893 14.968 255.746 14.6007 255.747 14.1247C255.741 13.9254 255.778 13.7272 255.857 13.5439C255.935 13.3605 256.052 13.1964 256.2 13.0628C256.484 12.7918 256.862 12.6421 257.254 12.6456C257.631 12.6418 257.997 12.7764 258.282 13.0239C258.581 13.2753 258.73 13.6402 258.729 14.1186C258.729 14.5873 258.584 14.9522 258.293 15.2133C258.011 15.4764 257.639 15.6206 257.254 15.6159V15.6159ZM258.729 18.7541V27.5326C258.729 28.1424 258.587 28.6026 258.303 28.9132C258.168 29.0649 258.001 29.1852 257.814 29.2659C257.628 29.3465 257.425 29.3856 257.222 29.3803C257.02 29.3863 256.819 29.3464 256.634 29.2636C256.45 29.1808 256.287 29.0573 256.157 28.9022C255.883 28.5827 255.747 28.1262 255.747 27.5326V18.8417C255.747 18.2408 255.883 17.7884 256.157 17.4843C256.29 17.3346 256.454 17.2162 256.638 17.1373C256.823 17.0585 257.022 17.0212 257.222 17.0281C257.424 17.0225 257.626 17.0603 257.812 17.139C257.999 17.2177 258.166 17.3354 258.303 17.4843C258.588 17.7892 258.73 18.2125 258.729 18.7541Z" fill="black"/>
<path d="M261.975 17.2952H262.3V15.4707C262.3 14.9841 262.313 14.6001 262.339 14.3188C262.357 14.0669 262.429 13.8219 262.552 13.6011C262.672 13.3909 262.845 13.2162 263.054 13.0951C263.275 12.9648 263.528 12.8975 263.784 12.9005C264.171 12.9034 264.54 13.0596 264.812 13.3347C265.013 13.5227 265.149 13.7705 265.199 14.0414C265.262 14.433 265.29 14.8296 265.282 15.2262V17.294H266.376C266.8 17.294 267.124 17.3962 267.349 17.6005C267.458 17.6994 267.545 17.8207 267.602 17.9562C267.66 18.0916 267.687 18.238 267.683 18.3851C267.683 18.7905 267.524 19.0743 267.208 19.2365C266.892 19.3987 266.438 19.4798 265.847 19.4798H265.29V25.0665C265.285 25.4321 265.301 25.7976 265.339 26.1612C265.36 26.3909 265.452 26.6083 265.601 26.784C265.744 26.9462 265.975 27.0273 266.295 27.0273C266.534 27.0192 266.772 26.9874 267.005 26.9324C267.235 26.8781 267.469 26.8464 267.705 26.8375C267.828 26.8393 267.949 26.8664 268.061 26.9173C268.173 26.9681 268.273 27.0416 268.355 27.1331C268.45 27.2288 268.525 27.3428 268.575 27.4683C268.625 27.5938 268.648 27.728 268.645 27.8629C268.645 28.3495 268.382 28.7241 267.858 28.9869C267.333 29.2496 266.579 29.3793 265.595 29.3761C264.664 29.3761 263.957 29.2167 263.475 28.8981C263.004 28.5919 262.666 28.1186 262.53 27.5734C262.382 27.0107 262.307 26.2577 262.306 25.3147V19.4871H261.913C261.483 19.4871 261.156 19.3837 260.929 19.1757C260.819 19.0765 260.732 18.9545 260.673 18.8182C260.615 18.6819 260.587 18.5345 260.591 18.3863C260.587 18.2372 260.617 18.0892 260.679 17.9533C260.74 17.8174 260.832 17.6972 260.946 17.6017C261.18 17.3974 261.523 17.2952 261.975 17.2952Z" fill="black"/>
<path d="M278.061 23.9496H272.223C272.217 24.5813 272.357 25.2058 272.633 25.7742C272.865 26.2639 273.233 26.677 273.692 26.965C274.132 27.2313 274.638 27.3699 275.152 27.3652C275.481 27.3681 275.808 27.3252 276.125 27.2374C276.427 27.147 276.714 27.0121 276.976 26.8373C277.245 26.6608 277.501 26.4653 277.741 26.2522C277.974 26.0454 278.277 25.7616 278.649 25.4007C278.835 25.2557 279.069 25.1843 279.304 25.2C279.576 25.1883 279.841 25.2801 280.048 25.4567C280.145 25.5495 280.22 25.6623 280.269 25.7873C280.318 25.9123 280.339 26.0465 280.331 26.1804C280.31 26.5229 280.201 26.8541 280.015 27.1426C279.765 27.5521 279.44 27.9108 279.058 28.1996C278.574 28.568 278.031 28.8517 277.452 29.0389C276.734 29.2729 275.982 29.386 275.227 29.3734C273.312 29.3734 271.822 28.8171 270.758 27.7045C269.694 26.592 269.162 25.0825 269.162 23.176C269.155 22.3271 269.288 21.4828 269.557 20.6776C269.797 19.9465 270.188 19.2738 270.704 18.7022C271.218 18.1452 271.854 17.7133 272.561 17.4397C273.342 17.1387 274.173 16.9896 275.009 17.0006C276.175 17.0006 277.175 17.2507 278.009 17.7511C278.804 18.2117 279.453 18.886 279.883 19.6972C280.286 20.4431 280.5 21.2763 280.506 22.1239C280.506 22.8877 280.291 23.3828 279.862 23.609C279.432 23.8353 278.832 23.9488 278.061 23.9496ZM272.223 22.2248H277.632C277.559 21.1861 277.284 20.4088 276.807 19.8931C276.33 19.3773 275.702 19.1199 274.922 19.1207C274.579 19.1115 274.238 19.1769 273.923 19.3123C273.608 19.4478 273.327 19.6501 273.097 19.9052C272.619 20.4275 272.329 21.2007 272.226 22.2248H272.223Z" fill="black"/>
<path d="M285.995 24.9965V27.5326C285.995 28.1497 285.854 28.6115 285.57 28.918C285.433 29.0684 285.266 29.1875 285.079 29.2673C284.892 29.347 284.69 29.3856 284.487 29.3802C284.287 29.3855 284.088 29.3464 283.905 29.2656C283.722 29.1849 283.559 29.0645 283.428 28.9131C283.15 28.6017 283.012 28.1416 283.012 27.5326V19.0764C283.012 17.7117 283.498 17.0293 284.471 17.0293C284.966 17.0293 285.323 17.1886 285.543 17.5073C285.763 17.826 285.884 18.2971 285.908 18.9207C286.19 18.391 286.56 17.9131 287.003 17.5073C287.377 17.1886 287.878 17.0293 288.505 17.0293C289.144 17.0327 289.771 17.1971 290.329 17.5073C290.919 17.8268 291.214 18.2497 291.214 18.776C291.219 18.947 291.188 19.1171 291.123 19.2754C291.058 19.4336 290.96 19.5764 290.837 19.6943C290.732 19.806 290.606 19.8957 290.466 19.9584C290.327 20.021 290.176 20.0553 290.023 20.0592C289.752 20.0205 289.486 19.9516 289.231 19.8537C288.874 19.7277 288.5 19.6583 288.122 19.6481C287.734 19.6317 287.353 19.7562 287.05 19.9984C286.744 20.2792 286.521 20.6391 286.405 21.0384C286.239 21.5718 286.133 22.1222 286.089 22.6793C286.027 23.3118 285.995 24.0842 285.995 24.9965Z" fill="black"/>
<line x1="152.5" y1="-3.92191e-07" x2="152.5" y2="40" stroke="#333333" stroke-opacity="0.4"/>
<path d="M17.9421 5.6977C17.991 5.7814 17.9262 5.88487 17.83 5.88487C15.8823 5.88487 14.2989 7.44302 14.2618 9.37921C13.5948 9.25338 12.9038 9.24393 12.2211 9.36015C12.1739 7.43281 10.5946 5.88487 8.65324 5.88487C8.55696 5.88487 8.4922 5.78133 8.54115 5.69756C9.48399 4.08413 11.236 3 13.2416 3C15.2472 3 16.9992 4.08419 17.9421 5.6977Z" fill="url(#paint4_linear_1959_29629)"/>
<path d="M23.7114 17.6723C24.374 17.8751 24.9982 17.2867 24.7482 16.6345C22.8901 11.7875 17.3905 9.80176 13.2156 9.80176C9.03251 9.80176 3.41039 11.8517 1.67329 16.6647C1.43941 17.3128 2.06205 17.8817 2.71472 17.6797L12.7199 14.5819C13.0086 14.4925 13.3173 14.492 13.6064 14.5804L23.7114 17.6723Z" fill="url(#paint5_linear_1959_29629)"/>
<path d="M1.57519 18.6059L12.7278 15.1882C13.0149 15.1003 13.3213 15.1 13.6085 15.1875L24.8312 18.6076C25.7684 18.8932 26.4097 19.7654 26.4097 20.7545V31.0588C26.3662 33.5741 24.13 35.59 21.6415 35.59H17.5084C17.0998 35.59 16.7689 35.2561 16.7689 34.8433V31.2305C16.7689 29.8079 17.6022 28.5203 18.8915 27.9504C20.62 27.1865 22.6648 26.1532 23.0493 24.0797C23.1734 23.4104 22.7414 22.7649 22.0808 22.6322C20.4104 22.2967 18.5583 22.4262 16.9921 23.134C15.2143 23.9375 14.7493 25.2741 14.577 27.069L14.3683 29.0028C14.3045 29.5938 13.7562 30.0466 13.1681 30.0466C12.5597 30.0466 12.1035 29.5784 12.0375 28.967L11.8327 27.069C11.6852 25.5315 11.4179 24.0381 9.8448 23.3272C8.05042 22.5162 6.24717 22.2469 4.32887 22.6322C3.6682 22.7649 3.2363 23.4104 3.36043 24.0797C3.74837 26.1713 5.77706 27.1808 7.51816 27.9504C8.80754 28.5203 9.64079 29.8079 9.64079 31.2305V34.8426C9.64079 35.2554 9.31004 35.59 8.90148 35.59H4.76813C2.27967 35.59 0.04346 33.5741 0 31.0588V20.7518C0 19.764 0.639681 18.8926 1.57519 18.6059Z" fill="url(#paint6_linear_1959_29629)"/>
<path d="M34.6816 31.6112V13.4512H43.0393C45.0282 13.4512 46.5624 13.8719 47.6426 14.7134C48.7226 15.5548 49.2627 16.7054 49.2627 18.165C49.2627 19.2469 48.937 20.1656 48.2854 20.9213C47.6511 21.6768 46.7768 22.1834 45.6624 22.4411V22.0288C46.9654 22.2521 47.9683 22.7502 48.6711 23.5229C49.3912 24.2785 49.7513 25.2659 49.7513 26.4852C49.7513 28.0994 49.177 29.3616 48.0283 30.2717C46.8968 31.1648 45.3281 31.6112 43.3223 31.6112H34.6816ZM38.5133 28.6231H42.8336C43.828 28.6231 44.5909 28.4343 45.1224 28.0565C45.6539 27.6786 45.9196 27.0777 45.9196 26.2533C45.9196 25.4118 45.6539 24.8109 45.1224 24.4502C44.5909 24.0724 43.828 23.8835 42.8336 23.8835H38.5133V28.6231ZM38.5133 20.9213H42.3194C43.3652 20.9213 44.1366 20.7323 44.6338 20.3546C45.1309 19.9768 45.3795 19.4101 45.3795 18.6545C45.3795 17.9161 45.1309 17.3579 44.6338 16.9801C44.1366 16.6023 43.3652 16.4135 42.3194 16.4135H38.5133V20.9213Z" fill="#1A1A1A"/>
<path d="M52.305 31.6113V22.0033C52.305 21.4365 52.2879 20.8614 52.2536 20.2774C52.2365 19.6936 52.1936 19.1183 52.125 18.5516H55.8538L56.2909 22.3639H55.6996C55.871 21.4365 56.1453 20.6724 56.5224 20.0714C56.9168 19.4703 57.3968 19.0238 57.9626 18.7318C58.5455 18.44 59.2056 18.2939 59.9428 18.2939C60.2685 18.2939 60.5256 18.3112 60.7142 18.3455C60.9027 18.3627 61.0913 18.4056 61.2799 18.4743L61.2542 21.9002C60.8942 21.7457 60.5856 21.6513 60.3285 21.6169C60.0884 21.5655 59.7798 21.5397 59.4027 21.5397C58.6826 21.5397 58.0825 21.6769 57.6026 21.9518C57.1396 22.2265 56.7883 22.6301 56.5482 23.1625C56.3253 23.6948 56.2138 24.3387 56.2138 25.0944V31.6113H52.305Z" fill="#1A1A1A"/>
<path d="M67.8437 31.8947C66.7122 31.8947 65.7179 31.62 64.8607 31.0704C64.0034 30.5209 63.3348 29.7396 62.8547 28.7264C62.3748 27.7132 62.1348 26.4939 62.1348 25.0686C62.1348 23.6604 62.3748 22.4497 62.8547 21.4365C63.3348 20.4235 64.0034 19.6507 64.8607 19.1183C65.7179 18.5688 66.7122 18.2939 67.8437 18.2939C68.8895 18.2939 69.8238 18.5516 70.6467 19.0667C71.4868 19.5648 72.0354 20.2431 72.2926 21.1018H72.0096L72.3182 18.5516H76.0471C75.9957 19.1183 75.9442 19.6936 75.8928 20.2774C75.8586 20.8441 75.8413 21.4023 75.8413 21.9518V31.6113H71.984L71.9583 29.1643H72.2668C71.9925 29.9885 71.4439 30.6497 70.621 31.1476C69.7982 31.6457 68.8724 31.8947 67.8437 31.8947ZM69.0266 28.9582C69.9182 28.9582 70.6381 28.6406 71.1868 28.0051C71.7354 27.3697 72.0096 26.3909 72.0096 25.0686C72.0096 23.7463 71.7354 22.776 71.1868 22.1579C70.6381 21.5397 69.9182 21.2306 69.0266 21.2306C68.1352 21.2306 67.4151 21.5397 66.8664 22.1579C66.3178 22.776 66.0436 23.7463 66.0436 25.0686C66.0436 26.3909 66.3093 27.3697 66.8408 28.0051C67.3894 28.6406 68.1179 28.9582 69.0266 28.9582Z" fill="#1A1A1A"/>
<path d="M84.0919 31.8947C82.9603 31.8947 81.9659 31.62 81.1087 31.0704C80.2516 30.5209 79.583 29.7396 79.1029 28.7264C78.6228 27.7132 78.3828 26.4939 78.3828 25.0686C78.3828 23.6604 78.6228 22.4497 79.1029 21.4365C79.583 20.4235 80.2516 19.6507 81.1087 19.1183C81.9659 18.5688 82.9603 18.2939 84.0919 18.2939C85.1377 18.2939 86.072 18.5516 86.8949 19.0667C87.735 19.5648 88.2835 20.2431 88.5408 21.1018H88.2578L88.5664 18.5516H92.2952C92.2437 19.1183 92.1924 19.6936 92.141 20.2774C92.1066 20.8441 92.0895 21.4023 92.0895 21.9518V31.6113H88.2322L88.2064 29.1643H88.515C88.2407 29.9885 87.6921 30.6497 86.8691 31.1476C86.0462 31.6457 85.1204 31.8947 84.0919 31.8947ZM85.2748 28.9582C86.1662 28.9582 86.8863 28.6406 87.4349 28.0051C87.9836 27.3697 88.2578 26.3909 88.2578 25.0686C88.2578 23.7463 87.9836 22.776 87.4349 22.1579C86.8863 21.5397 86.1662 21.2306 85.2748 21.2306C84.3832 21.2306 83.6633 21.5397 83.1146 22.1579C82.566 22.776 82.2918 23.7463 82.2918 25.0686C82.2918 26.3909 82.5575 27.3697 83.0888 28.0051C83.6375 28.6406 84.3661 28.9582 85.2748 28.9582Z" fill="#1A1A1A"/>
<path d="M98.9287 31.6114L93.2969 18.5518H97.3857L101.114 28.031H100.266L104.123 18.5518H107.955L102.272 31.6114H98.9287Z" fill="#1A1A1A"/>
<path d="M115.183 31.8947C113.794 31.8947 112.586 31.62 111.557 31.0704C110.545 30.5038 109.757 29.7138 109.191 28.7006C108.642 27.6874 108.368 26.4768 108.368 25.0686C108.368 23.6776 108.642 22.4755 109.191 21.4623C109.757 20.4491 110.545 19.6678 111.557 19.1183C112.586 18.5688 113.794 18.2939 115.183 18.2939C116.572 18.2939 117.78 18.5688 118.809 19.1183C119.837 19.6678 120.626 20.4491 121.175 21.4623C121.74 22.4755 122.023 23.6776 122.023 25.0686C122.023 26.4768 121.74 27.6874 121.175 28.7006C120.626 29.7138 119.837 30.5038 118.809 31.0704C117.78 31.62 116.572 31.8947 115.183 31.8947ZM115.183 28.9582C116.074 28.9582 116.777 28.6406 117.292 28.0051C117.823 27.3697 118.089 26.3909 118.089 25.0686C118.089 23.7463 117.823 22.776 117.292 22.1579C116.777 21.5397 116.074 21.2306 115.183 21.2306C114.291 21.2306 113.58 21.5397 113.049 22.1579C112.534 22.776 112.277 23.7463 112.277 25.0686C112.277 26.3909 112.534 27.3697 113.049 28.0051C113.58 28.6406 114.291 28.9582 115.183 28.9582Z" fill="#1A1A1A"/>
<path d="M129.34 31.8947C128.174 31.8947 127.111 31.7659 126.151 31.5083C125.191 31.2508 124.377 30.8901 123.708 30.4264L124.711 27.8506C125.38 28.2627 126.117 28.589 126.923 28.8294C127.745 29.0698 128.56 29.1901 129.366 29.1901C130.12 29.1901 130.677 29.0698 131.037 28.8294C131.397 28.589 131.577 28.2627 131.577 27.8506C131.577 27.5071 131.457 27.2409 131.217 27.0521C130.994 26.8631 130.643 26.7258 130.163 26.64L127.514 26.1505C126.4 25.9272 125.551 25.5151 124.968 24.914C124.385 24.3131 124.094 23.5316 124.094 22.57C124.094 21.7285 124.317 20.9901 124.762 20.3548C125.225 19.7021 125.885 19.1955 126.742 18.835C127.6 18.4743 128.603 18.2939 129.751 18.2939C130.729 18.2939 131.654 18.4142 132.529 18.6546C133.403 18.895 134.149 19.2642 134.766 19.7623L133.712 22.2609C133.18 21.8659 132.563 21.5482 131.86 21.3078C131.174 21.0674 130.514 20.9472 129.88 20.9472C129.057 20.9472 128.465 21.0845 128.105 21.3593C127.745 21.6169 127.565 21.9518 127.565 22.3639C127.565 22.673 127.668 22.9306 127.874 23.1367C128.097 23.3428 128.431 23.4974 128.877 23.6004L131.551 24.0898C132.7 24.2958 133.574 24.6823 134.174 25.2489C134.774 25.8156 135.075 26.597 135.075 27.5929C135.075 28.5032 134.834 29.2759 134.354 29.9113C133.874 30.5467 133.197 31.0362 132.323 31.3796C131.466 31.723 130.471 31.8947 129.34 31.8947Z" fill="#1A1A1A"/>
<defs>
<linearGradient id="paint0_linear_1959_29629" x1="183.114" y1="11.6341" x2="194.64" y2="23.552" gradientUnits="userSpaceOnUse">
<stop stop-color="#EF2F2D"/>
<stop offset="1" stop-color="#89272D"/>
</linearGradient>
<linearGradient id="paint1_linear_1959_29629" x1="171.537" y1="16.2019" x2="210.738" y2="26.7101" gradientUnits="userSpaceOnUse">
<stop stop-color="#434344"/>
<stop offset="0.29" stop-color="#404041"/>
<stop offset="0.51" stop-color="#363637"/>
<stop offset="0.71" stop-color="#262627"/>
<stop offset="0.9" stop-color="#0F0F0F"/>
<stop offset="1"/>
</linearGradient>
<linearGradient id="paint2_linear_1959_29629" x1="183.114" y1="11.6341" x2="194.64" y2="23.552" gradientUnits="userSpaceOnUse">
<stop stop-color="#EF2F2D"/>
<stop offset="1" stop-color="#89272D"/>
</linearGradient>
<linearGradient id="paint3_linear_1959_29629" x1="171.537" y1="16.2019" x2="210.738" y2="26.7101" gradientUnits="userSpaceOnUse">
<stop stop-color="#434344"/>
<stop offset="0.29" stop-color="#404041"/>
<stop offset="0.51" stop-color="#363637"/>
<stop offset="0.71" stop-color="#262627"/>
<stop offset="0.9" stop-color="#0F0F0F"/>
<stop offset="1"/>
</linearGradient>
<linearGradient id="paint4_linear_1959_29629" x1="12.9457" y1="1.24015" x2="24.7425" y2="35.6703" gradientUnits="userSpaceOnUse">
<stop stop-color="#F5B75E"/>
<stop offset="1" stop-color="#FF9600"/>
</linearGradient>
<linearGradient id="paint5_linear_1959_29629" x1="12.9464" y1="1.23992" x2="24.7432" y2="35.6701" gradientUnits="userSpaceOnUse">
<stop stop-color="#F5B75E"/>
<stop offset="1" stop-color="#FF9600"/>
</linearGradient>
<linearGradient id="paint6_linear_1959_29629" x1="12.9459" y1="1.24031" x2="24.7427" y2="35.6705" gradientUnits="userSpaceOnUse">
<stop stop-color="#F5B75E"/>
<stop offset="1" stop-color="#FF9600"/>
</linearGradient>
</defs>
</svg>
