<svg width="297" height="41" viewBox="0 0 297 41" fill="none" xmlns="http://www.w3.org/2000/svg">
<line x1="157.5" y1="1" x2="157.5" y2="41" stroke="white" stroke-opacity="0.4"/>
<path d="M200.259 15.8731C200.341 17.8606 200.624 21.225 200.76 22.8767C200.77 22.9971 200.754 23.1181 200.714 23.2319C200.674 23.3456 200.609 23.4495 200.526 23.5366C200.442 23.6236 200.341 23.6919 200.229 23.7369C200.117 23.7819 199.997 23.8026 199.876 23.7975C198.654 23.7403 196.379 23.654 193.658 23.6418C191.005 23.6296 188.811 23.7026 187.622 23.7537C187.501 23.7584 187.381 23.7375 187.27 23.6925C187.158 23.6475 187.058 23.5794 186.974 23.4926C186.891 23.4059 186.827 23.3024 186.787 23.1892C186.746 23.0759 186.73 22.9553 186.74 22.8354C186.875 21.1982 187.14 17.8594 187.226 15.8731C187.284 14.187 187.997 12.5898 189.213 11.4202C190.429 10.2506 192.052 9.60054 193.74 9.60787V9.60787C195.428 9.59927 197.053 10.2487 198.27 11.4184C199.487 12.5881 200.201 14.1861 200.259 15.8731V15.8731ZM193.731 12.7107C192.973 12.7105 192.232 12.935 191.602 13.3558C190.972 13.7767 190.481 14.375 190.19 15.0751C189.9 15.7751 189.824 16.5456 189.972 17.2889C190.12 18.0322 190.484 18.715 191.02 19.2509C191.556 19.7869 192.239 20.1519 192.982 20.2998C193.725 20.4478 194.496 20.372 195.196 20.082C195.896 19.7921 196.494 19.301 196.916 18.6709C197.337 18.0408 197.561 17.3 197.561 16.5421C197.561 15.5266 197.158 14.5526 196.44 13.8342C195.723 13.1158 194.749 12.7117 193.734 12.7107H193.731Z" fill="url(#paint0_linear_88_35743)"/>
<path d="M193.799 14.3442C194.022 14.5995 194.144 14.9265 194.145 15.265C194.141 15.4587 194.099 15.6497 194.021 15.8272C193.943 16.0046 193.831 16.1649 193.691 16.299C193.551 16.4331 193.386 16.5383 193.206 16.6086C193.025 16.6789 192.833 16.713 192.639 16.7088C192.415 16.7102 192.194 16.6622 191.991 16.5682C191.788 16.4742 191.609 16.3366 191.465 16.1651C191.438 16.3005 191.425 16.4381 191.424 16.5762C191.424 17.8095 192.465 18.8094 193.749 18.8094C195.034 18.8094 196.074 17.8095 196.074 16.5762C196.074 15.3428 195.061 14.3637 193.799 14.3442Z" fill="white"/>
<path d="M197.234 12.0284C197.205 12.0302 197.175 12.0261 197.147 12.0163C197.119 12.0066 197.093 11.9914 197.071 11.9716C197.049 11.9518 197.031 11.9278 197.018 11.901C197.006 11.8742 196.998 11.8451 196.997 11.8155C196.977 11.3168 197.067 10.2951 198.359 9.17976C199.25 8.41226 200.489 8.13494 202.048 8.35388C202.078 8.35799 202.107 8.36808 202.132 8.38353C202.158 8.39898 202.18 8.41949 202.198 8.4438C202.216 8.46812 202.228 8.49575 202.235 8.52503C202.242 8.55431 202.242 8.58463 202.237 8.61417V8.61417C202.226 8.66932 202.196 8.7185 202.151 8.75188C202.105 8.78526 202.049 8.80037 201.994 8.79419C200.574 8.5935 199.46 8.83433 198.677 9.50817C197.553 10.4812 197.453 11.3533 197.46 11.8009C197.462 11.8584 197.441 11.9142 197.402 11.9564C197.363 11.9987 197.309 12.024 197.251 12.0272L197.234 12.0284Z" fill="white"/>
<path d="M201.732 9.02531C202.089 9.02531 202.378 8.74704 202.378 8.40377C202.378 8.0605 202.089 7.78223 201.732 7.78223C201.375 7.78223 201.086 8.0605 201.086 8.40377C201.086 8.74704 201.375 9.02531 201.732 9.02531Z" fill="white"/>
<path d="M190.482 12.0698C190.512 12.0718 190.541 12.0678 190.569 12.0582C190.597 12.0486 190.623 12.0335 190.645 12.0138C190.667 11.9941 190.685 11.9702 190.698 11.9435C190.711 11.9167 190.718 11.8877 190.719 11.8582C190.74 11.3473 190.655 10.1833 189.357 9.06062C188.468 8.29312 187.227 8.0158 185.668 8.23474C185.638 8.23901 185.61 8.2492 185.584 8.2647C185.559 8.2802 185.536 8.3007 185.519 8.32498C185.501 8.34926 185.489 8.37682 185.482 8.40603C185.475 8.43524 185.474 8.46551 185.48 8.49503C185.49 8.55018 185.521 8.59936 185.566 8.63274C185.611 8.66612 185.667 8.68123 185.723 8.67505C187.142 8.47436 188.258 8.71519 189.04 9.38903C190.167 10.3621 190.265 11.3765 190.25 11.8363C190.248 11.8941 190.269 11.9503 190.308 11.993C190.347 12.0357 190.401 12.0615 190.459 12.0649L190.482 12.0698Z" fill="white"/>
<path d="M186.078 9.02531C186.435 9.02531 186.724 8.74704 186.724 8.40377C186.724 8.0605 186.435 7.78223 186.078 7.78223C185.721 7.78223 185.432 8.0605 185.432 8.40377C185.432 8.74704 185.721 9.02531 186.078 9.02531Z" fill="white"/>
<path d="M214.509 31.6817C214.509 29.6663 209.462 26.4649 209.462 26.4649L209.403 26.4479C210.235 23.0811 210.663 21.5826 210.718 19.3932C210.84 14.3929 209.578 10.1601 206.409 6.44911C203.462 2.99841 198.77 0.996338 193.759 0.996338C188.433 0.996338 184.328 3.02638 181.281 6.38951C178.234 9.75265 176.705 13.4004 176.792 19.3373C176.818 20.9988 177.195 23.7878 178.009 26.2886L177.952 26.3056C177.952 26.3056 173 29.4461 173 31.6221C173 32.2656 175.676 33.0817 181.196 33.3408L178.117 37.9531C177.995 38.346 178.071 38.886 178.4 39.1171C178.725 39.331 179.097 39.4633 179.484 39.5027C180.069 39.5197 180.252 39.3507 180.467 38.9626L183.558 33.5816C186.842 33.7118 188.931 33.7811 192.689 33.7884V39.9467C192.711 40.3176 192.867 40.9951 193.864 40.9951C194.769 40.9951 194.924 40.3602 194.924 39.9467V33.7921C198.677 33.7848 200.718 33.8346 203.996 33.7057L207.235 38.903C207.294 39.0708 207.406 39.2146 207.554 39.3124C207.703 39.4101 207.879 39.4565 208.057 39.4443C208.373 39.4489 208.684 39.3646 208.955 39.201C209.319 39.0381 209.319 38.4384 209.172 37.8947L206.122 33.46C211.449 33.0173 214.509 32.1987 214.509 31.6817ZM182.543 31.0906C182.048 31.0829 181.575 30.8787 181.23 30.5229C180.885 30.1671 180.695 29.6888 180.703 29.1931C180.703 28.1447 181.526 27.4137 182.543 27.4137C183.56 27.4137 184.384 28.1435 184.384 29.1931C184.391 29.6887 184.201 30.1668 183.856 30.5225C183.511 30.8783 183.039 31.0826 182.543 31.0906V31.0906ZM193.755 31.1952C193.377 31.2068 193.005 31.1054 192.685 30.9039C192.365 30.7024 192.113 30.41 191.96 30.0642C191.807 29.7184 191.761 29.3349 191.828 28.9628C191.895 28.5906 192.071 28.2469 192.334 27.9755C192.597 27.7042 192.935 27.5176 193.305 27.4396C193.675 27.3616 194.06 27.3958 194.41 27.5378C194.761 27.6798 195.061 27.9232 195.272 28.2367C195.483 28.5503 195.596 28.9197 195.596 29.2977C195.603 29.7934 195.413 30.2717 195.068 30.6275C194.723 30.9833 194.251 31.1875 193.755 31.1952V31.1952ZM204.966 31.301C204.588 31.3127 204.216 31.2112 203.896 31.0097C203.576 30.8082 203.324 30.5159 203.171 30.17C203.018 29.8242 202.972 29.4407 203.039 29.0686C203.105 28.6965 203.282 28.3527 203.545 28.0814C203.808 27.81 204.146 27.6234 204.516 27.5454C204.886 27.4674 205.271 27.5016 205.621 27.6436C205.971 27.7857 206.271 28.029 206.483 28.3426C206.694 28.6561 206.807 29.0255 206.806 29.4036C206.814 29.8991 206.624 30.3772 206.279 30.733C205.934 31.0887 205.462 31.293 204.966 31.301ZM207.789 25.7546C204.232 24.8484 198.964 24.8934 193.754 24.8934C188.545 24.8934 183.659 24.7341 179.7 25.7546C179.107 23.3742 178.643 20.9988 178.583 19.1585C178.306 10.6053 184.083 2.49485 193.754 2.49485C203.425 2.49485 209.396 10.6114 209.026 19.1585C208.911 21.849 208.16 24.312 207.789 25.7546Z" fill="white"/>
<path d="M226.331 13.5129C227.991 13.5129 229.417 13.8559 230.609 14.5419C231.789 15.2169 232.734 16.2386 233.314 17.4684C233.926 18.7333 234.232 20.2189 234.231 21.925C234.245 23.09 234.076 24.25 233.729 25.3623C233.417 26.3512 232.904 27.2645 232.22 28.0443C231.543 28.8062 230.698 29.4003 229.751 29.78C228.778 30.1806 227.66 30.3809 226.397 30.3809C225.245 30.4001 224.1 30.19 223.03 29.763C222.081 29.3807 221.232 28.7852 220.55 28.0224C219.865 27.2338 219.352 26.3102 219.046 25.3112C218.699 24.2059 218.528 23.053 218.538 21.8946C218.525 20.7235 218.704 19.5582 219.068 18.4451C219.388 17.4577 219.911 16.5482 220.603 15.7752C221.28 15.0368 222.116 14.4613 223.047 14.0919C224.094 13.6884 225.209 13.4918 226.331 13.5129V13.5129ZM230.942 21.9055C230.942 20.7111 230.753 19.6764 230.374 18.8015C229.995 17.9265 229.455 17.2644 228.751 16.8152C228.027 16.3606 227.186 16.1269 226.331 16.1426C225.712 16.1363 225.099 16.2632 224.533 16.5148C223.983 16.7634 223.497 17.1345 223.113 17.5997C222.681 18.1395 222.362 18.7597 222.172 19.4242C221.935 20.2267 221.82 21.0603 221.831 21.897C221.82 22.7479 221.936 23.5957 222.175 24.4124C222.369 25.0934 222.7 25.7276 223.148 26.2758C223.539 26.7488 224.032 27.1272 224.59 27.3826C225.242 27.6641 225.952 27.7867 226.66 27.7404C227.369 27.6941 228.057 27.4802 228.666 27.1162C229.362 26.693 229.916 26.0402 230.327 25.158C230.738 24.2757 230.942 23.1887 230.941 21.897L230.942 21.9055Z" fill="white"/>
<path d="M239.759 25.9923V28.5283C239.759 29.1454 239.617 29.6072 239.334 29.9137C239.197 30.0642 239.03 30.1834 238.843 30.2632C238.656 30.343 238.454 30.3814 238.251 30.3759C238.051 30.3812 237.852 30.342 237.669 30.2612C237.486 30.1805 237.323 30.0601 237.192 29.9089C236.914 29.5975 236.776 29.1373 236.777 28.5283V20.0725C236.777 18.7077 237.261 18.0254 238.229 18.0254C238.725 18.0254 239.083 18.1847 239.301 18.5034C239.519 18.8221 239.64 19.2932 239.666 19.9168C239.949 19.3876 240.319 18.9098 240.76 18.5034C241.136 18.1847 241.636 18.0254 242.264 18.0254C242.902 18.0272 243.53 18.1904 244.089 18.4998C244.68 18.8192 244.975 19.2421 244.975 19.7684C244.98 19.9394 244.949 20.1095 244.884 20.2678C244.819 20.426 244.722 20.5688 244.598 20.6867C244.493 20.7983 244.367 20.888 244.227 20.9506C244.087 21.0132 243.936 21.0475 243.783 21.0516C243.512 21.0127 243.246 20.9438 242.991 20.846C242.634 20.7198 242.26 20.6505 241.882 20.6405C241.494 20.6238 241.114 20.7483 240.811 20.9908C240.504 21.2709 240.281 21.631 240.167 22.0307C239.999 22.5639 239.892 23.1143 239.849 23.6716C239.789 24.3065 239.759 25.0801 239.759 25.9923Z" fill="white"/>
<path d="M249.354 15.2437V19.8839C249.85 19.3416 250.429 18.8814 251.07 18.5204C251.652 18.2058 252.373 18.0481 253.234 18.0473C254.156 18.0156 255.067 18.2666 255.843 18.7665C256.619 19.2665 257.224 19.9916 257.577 20.8448C257.991 21.7546 258.199 22.8323 258.199 24.0778C258.207 24.9338 258.091 25.7864 257.854 26.609C257.648 27.331 257.309 28.0083 256.855 28.6062C256.432 29.1582 255.887 29.6056 255.264 29.9137C254.623 30.2259 253.917 30.3842 253.204 30.3759C252.767 30.3786 252.331 30.3225 251.909 30.2093C251.545 30.1149 251.197 29.9665 250.876 29.769C250.615 29.6065 250.37 29.4183 250.147 29.2071C249.946 29.0149 249.682 28.7258 249.354 28.3398V28.6402C249.354 29.2079 249.219 29.6401 248.95 29.9368C248.82 30.0798 248.661 30.1931 248.484 30.2689C248.306 30.3446 248.115 30.3812 247.922 30.3759C247.731 30.383 247.541 30.3469 247.366 30.2702C247.191 30.1936 247.035 30.0784 246.911 29.9332C246.661 29.6405 246.535 29.2083 246.534 28.6366V15.3787C246.534 14.7632 246.656 14.2978 246.899 13.9823C247.019 13.827 247.174 13.7028 247.352 13.6204C247.53 13.538 247.725 13.4999 247.921 13.5092C248.38 13.5092 248.734 13.6592 248.981 13.9592C249.229 14.2593 249.353 14.6874 249.354 15.2437ZM249.496 24.2676C249.496 25.4766 249.767 26.4055 250.31 27.0542C250.567 27.3696 250.894 27.6214 251.265 27.7902C251.635 27.9589 252.04 28.04 252.447 28.0272C253.197 28.0272 253.843 27.6952 254.387 27.0311C254.93 26.3669 255.201 25.4158 255.2 24.1776C255.216 23.4732 255.101 22.7721 254.861 22.1098C254.672 21.5828 254.339 21.1192 253.9 20.7719C253.482 20.4559 252.97 20.2893 252.447 20.2987C251.903 20.2912 251.371 20.4569 250.927 20.7719C250.457 21.1208 250.093 21.5949 249.879 22.1402C249.609 22.8162 249.479 23.5399 249.496 24.2676V24.2676Z" fill="white"/>
<path d="M262.091 16.6121C261.7 16.6204 261.319 16.4815 261.025 16.2228C260.73 15.9642 260.583 15.5968 260.583 15.1208C260.577 14.9216 260.614 14.7234 260.693 14.5401C260.771 14.3567 260.888 14.1926 261.036 14.059C261.32 13.7878 261.698 13.6381 262.091 13.6418C262.468 13.6382 262.834 13.7728 263.119 14.0201C263.417 14.2714 263.566 14.6363 263.566 15.1148C263.566 15.5834 263.421 15.9483 263.13 16.2094C262.848 16.4723 262.476 16.6165 262.091 16.6121V16.6121ZM263.566 19.7502V28.5284C263.566 29.1381 263.424 29.5983 263.139 29.9089C263.004 30.0607 262.837 30.1811 262.65 30.2618C262.464 30.3425 262.261 30.3814 262.058 30.376C261.856 30.382 261.655 30.3421 261.47 30.2593C261.286 30.1765 261.122 30.053 260.993 29.8979C260.719 29.5785 260.583 29.1219 260.583 28.5284V19.8377C260.583 19.2369 260.719 18.7844 260.993 18.4803C261.126 18.3309 261.29 18.2126 261.475 18.1338C261.659 18.0549 261.858 18.0175 262.058 18.0242C262.26 18.0184 262.462 18.0561 262.648 18.1348C262.835 18.2135 263.002 18.3313 263.139 18.4803C263.427 18.7852 263.571 19.2085 263.571 19.7502H263.566Z" fill="white"/>
<path d="M266.816 18.2918H267.145V16.4673C267.145 15.9808 267.157 15.5968 267.182 15.3154C267.2 15.0635 267.273 14.8186 267.395 14.5978C267.515 14.3875 267.689 14.2129 267.899 14.0918C268.12 13.9613 268.372 13.894 268.629 13.8972C269.015 13.9004 269.384 14.0566 269.655 14.3314C269.857 14.5194 269.993 14.7671 270.043 15.0381C270.106 15.4297 270.134 15.8263 270.125 16.2228V18.2906H271.219C271.642 18.2906 271.966 18.3927 272.192 18.5971C272.301 18.6959 272.388 18.8173 272.445 18.9527C272.503 19.0882 272.53 19.2345 272.526 19.3816C272.526 19.787 272.367 20.0709 272.05 20.233C271.733 20.3952 271.28 20.4763 270.69 20.4763H270.132V26.0629C270.127 26.4284 270.144 26.794 270.182 27.1576C270.204 27.3869 270.295 27.6042 270.443 27.7803C270.585 27.9425 270.817 28.0236 271.138 28.0236C271.377 28.0154 271.615 27.9836 271.848 27.9287C272.078 27.8743 272.312 27.8425 272.548 27.8338C272.67 27.8354 272.792 27.8625 272.903 27.9134C273.015 27.9643 273.115 28.0378 273.197 28.1294C273.292 28.225 273.367 28.339 273.417 28.4645C273.467 28.5899 273.491 28.7242 273.488 28.8592C273.488 29.3457 273.226 29.7204 272.701 29.9831C272.176 30.2458 271.422 30.3755 270.439 30.3723C269.505 30.3723 268.799 30.213 268.318 29.8943C267.847 29.5881 267.51 29.1148 267.373 28.5697C267.223 28.007 267.149 27.2541 267.15 26.311V20.4836H266.755C266.326 20.4836 265.998 20.3802 265.773 20.1722C265.662 20.0731 265.575 19.9511 265.516 19.8148C265.458 19.6785 265.429 19.5311 265.433 19.3828C265.43 19.2337 265.46 19.0857 265.521 18.9499C265.583 18.814 265.674 18.6938 265.789 18.5983C266.022 18.394 266.365 18.2918 266.816 18.2918Z" fill="white"/>
<path d="M282.902 24.9463H277.064C277.058 25.5779 277.199 26.2022 277.474 26.7707C277.707 27.2605 278.075 27.6736 278.534 27.9615C278.974 28.2281 279.48 28.3667 279.994 28.3617C280.323 28.3649 280.65 28.3219 280.967 28.234C281.269 28.144 281.556 28.0091 281.819 27.8338C282.088 27.658 282.343 27.4624 282.584 27.2488C282.817 27.042 283.12 26.7582 283.491 26.3973C283.678 26.2531 283.911 26.1818 284.147 26.1966C284.418 26.1848 284.684 26.2766 284.89 26.4533C284.987 26.5459 285.063 26.6587 285.112 26.7837C285.161 26.9087 285.183 27.0429 285.174 27.177C285.153 27.5196 285.044 27.851 284.857 28.1391C284.607 28.5484 284.283 28.907 283.901 29.1961C283.416 29.5645 282.873 29.8482 282.294 30.0354C281.577 30.2695 280.825 30.3825 280.071 30.3698C278.155 30.3698 276.665 29.8136 275.601 28.7011C274.536 27.5885 274.004 26.0791 274.006 24.1727C273.998 23.3239 274.131 22.4798 274.399 21.6744C274.64 20.9432 275.031 20.2705 275.547 19.699C276.066 19.1427 276.706 18.7128 277.417 18.4426C278.197 18.1416 279.028 17.9925 279.864 18.0035C281.031 18.0035 282.031 18.2537 282.863 18.754C283.658 19.2143 284.308 19.8886 284.738 20.7001C285.14 21.4443 285.354 22.2758 285.36 23.1218C285.36 23.8856 285.146 24.3807 284.716 24.6069C284.286 24.8331 283.682 24.9463 282.902 24.9463ZM277.064 23.2215H282.477C282.404 22.1828 282.128 21.4055 281.651 20.8898C281.173 20.3741 280.545 20.1167 279.765 20.1175C279.423 20.1082 279.082 20.1735 278.767 20.309C278.452 20.4445 278.17 20.6468 277.941 20.902C277.46 21.4242 277.168 22.1974 277.066 23.2215H277.064Z" fill="white"/>
<path d="M290.835 25.9923V28.5283C290.835 29.1454 290.693 29.6072 290.409 29.9137C290.273 30.0641 290.106 30.1833 289.919 30.2631C289.733 30.3429 289.531 30.3814 289.328 30.3759C289.128 30.3813 288.929 30.3422 288.745 30.2614C288.562 30.1806 288.399 30.0602 288.267 29.9089C287.99 29.5975 287.852 29.1373 287.853 28.5283V20.0725C287.853 18.7077 288.339 18.0254 289.312 18.0254C289.808 18.0254 290.164 18.1847 290.383 18.5034C290.601 18.8221 290.722 19.2932 290.748 19.9168C291.03 19.3873 291.4 18.9094 291.842 18.5034C292.218 18.1847 292.719 18.0254 293.346 18.0254C293.984 18.0286 294.612 18.193 295.17 18.5034C295.76 18.8229 296.055 19.2458 296.056 19.772C296.061 19.943 296.03 20.1132 295.965 20.2714C295.9 20.4297 295.802 20.5724 295.678 20.6904C295.574 20.8018 295.448 20.8914 295.308 20.954C295.168 21.0166 295.018 21.051 294.865 21.0553C294.594 21.0164 294.328 20.9475 294.072 20.8497C293.715 20.7235 293.341 20.6541 292.962 20.6441C292.575 20.6275 292.195 20.752 291.892 20.9944C291.585 21.2749 291.362 21.6349 291.247 22.0344C291.076 22.5659 290.965 23.1151 290.918 23.6716C290.863 24.3065 290.835 25.0801 290.835 25.9923Z" fill="white"/>
<path d="M23.8397 7.10132H14.5258C14.2146 7.10132 13.9652 7.36572 13.9584 7.69438C13.7702 16.9326 9.19402 25.7007 1.31744 31.9112C1.06737 32.1083 1.0104 32.4787 1.19322 32.7455L6.64267 40.7038C6.82806 40.9746 7.18927 41.0358 7.44354 40.8368C12.3685 36.979 16.3299 32.3249 19.1828 27.1665C22.0356 32.3249 25.9972 36.979 30.9222 40.8368C31.1762 41.0358 31.5375 40.9746 31.7231 40.7038L37.1726 32.7455C37.3551 32.4787 37.2982 32.1083 37.0484 31.9112C29.1715 25.7007 24.5953 16.9326 24.4074 7.69438C24.4006 7.36572 24.151 7.10132 23.8397 7.10132Z" fill="white"/>
<path d="M36.8882 12.8636L35.8959 9.81227C35.6939 9.19278 35.2023 8.71024 34.5765 8.51946L31.4958 7.57678C31.0706 7.44659 31.0661 6.84844 31.4901 6.71265L34.5551 5.72507C35.1776 5.5242 35.6636 5.03379 35.8553 4.41206L36.8014 1.34609C36.9322 0.921879 37.5332 0.917382 37.6708 1.33937L38.6631 4.39071C38.8649 5.0102 39.3566 5.49277 39.9825 5.68467L43.0632 6.62623C43.4884 6.75642 43.4929 7.35458 43.0688 7.49149L40.0039 8.47906C39.3814 8.67881 38.8954 9.16923 38.7037 9.79208L37.7576 12.8569C37.6268 13.2812 37.0257 13.2857 36.8882 12.8636Z" fill="white"/>
<path d="M118.315 17.5739H115.686V14.4627C115.686 14.2978 115.611 14.1458 115.481 14.0452C115.354 13.9476 115.192 13.913 115.037 13.951L112.724 14.5102C112.488 14.5675 112.322 14.7779 112.322 15.0221V17.5739H111.004C110.713 17.5739 110.476 17.811 110.476 18.1027V19.9856C110.476 20.2772 110.713 20.5145 111.004 20.5145H112.322V28.1109C112.352 31.34 114.455 31.7848 116.723 31.7848C116.948 31.7848 117.172 31.7787 117.4 31.7719C117.63 31.7651 117.863 31.7582 118.103 31.7582L118.13 31.7565C118.439 31.7175 118.631 31.5051 118.631 31.2024V29.1848C118.631 28.8932 118.394 28.6562 118.103 28.6562H117.307C116.156 28.6562 115.686 28.1548 115.686 26.9255V20.5145H118.315C118.606 20.5145 118.843 20.2772 118.843 19.9856V18.1027C118.843 17.811 118.606 17.5739 118.315 17.5739Z" fill="white"/>
<path d="M104.174 17.3586C102.797 17.3586 101.718 17.7754 100.961 18.5978V18.1026C100.961 17.8011 100.734 17.5739 100.433 17.5739H97.9929C97.6916 17.5739 97.4645 17.8011 97.4645 18.1026V31.2024C97.4645 31.5039 97.6916 31.7314 97.9929 31.7314H100.433C100.734 31.7314 100.961 31.5039 100.961 31.2024V22.9982C100.961 21.4803 101.9 20.4605 103.298 20.4605C104.701 20.4605 105.608 21.4671 105.608 23.0249V31.2024C105.608 31.5039 105.835 31.7314 106.136 31.7314H108.577C108.878 31.7314 109.105 31.5039 109.105 31.2024V22.3795C109.105 19.3296 107.169 17.3586 104.174 17.3586Z" fill="white"/>
<path d="M91.8678 23.2494H86.6735C86.704 22.7995 86.7629 22.4852 86.8677 22.2097L86.8725 22.1955C87.2107 21.0605 88.0217 20.4606 89.2177 20.4606C90.5057 20.4606 91.4178 21.1486 91.7237 22.3623C91.7887 22.5589 91.8395 22.8761 91.8678 23.2494ZM89.2177 17.3588C86.3831 17.3588 84.2352 18.9329 83.4731 21.5651C83.2233 22.3508 83.116 23.3314 83.1454 24.5582C83.1454 26.0669 83.3503 27.2809 83.7697 28.2647C84.698 30.6026 86.7255 31.9199 89.4805 31.9732C89.5141 31.9737 89.5477 31.9739 89.5816 31.9739C91.8747 31.9739 93.8413 31.0424 94.9913 29.4041C95.154 29.1563 95.1117 28.9085 94.8713 28.7053L93.2274 27.3345C93.0746 27.2051 92.9322 27.1931 92.8393 27.2036C92.7411 27.2161 92.5968 27.2697 92.4662 27.4548C91.8124 28.3949 90.9066 28.8712 89.7779 28.8712C88.2379 28.847 87.2598 28.2346 86.863 27.0308C86.7462 26.77 86.695 26.3912 86.6498 25.975H94.868C95.1828 25.975 95.3946 25.7639 95.3961 25.4492C95.4239 24.5401 95.42 23.8263 95.3151 23.0824C94.8692 19.2843 92.8178 17.3588 89.2177 17.3588Z" fill="white"/>
<path d="M77.5774 24.5317C77.5774 26.0151 77.5202 26.3978 77.3983 26.868C77.1205 27.9939 76.28 28.6397 75.092 28.6397C73.9176 28.6397 73.0048 27.9628 72.645 26.8155C72.5311 26.5263 72.3952 25.9003 72.3952 24.5585C72.3952 23.4982 72.4908 22.7737 72.7014 22.2654C73.0899 21.1123 73.9517 20.4508 75.0654 20.4508C76.2449 20.4508 77.107 21.1224 77.3743 22.2583C77.5185 22.7465 77.5774 23.0887 77.5774 24.5317ZM80.5353 17.5738H78.1043C77.804 17.5738 77.5774 17.8006 77.5774 18.1013V18.4568C76.7703 17.7189 75.7207 17.3595 74.3784 17.3595C72.0036 17.3595 70.0641 18.79 69.3186 21.0877C68.9333 22.1696 68.884 23.5109 68.884 24.5585C68.884 25.9337 68.9954 26.9807 69.2364 27.8599C70.0769 30.6155 72.5392 31.5971 74.5634 31.5971C75.8247 31.5971 76.8378 31.2476 77.5769 30.5602C77.5632 31.7117 77.2559 32.5405 76.6391 33.0921C75.831 33.8144 74.4636 34.0742 72.4384 33.8876C71.915 33.8876 71.8585 34.2376 71.8585 34.3807L71.7792 36.5853C71.7792 36.8938 71.9562 37.1003 72.258 37.1389C72.7596 37.1898 73.2474 37.2154 73.7183 37.2154C75.9835 37.2154 77.8697 36.6304 79.123 35.521C80.4096 34.3814 81.0618 32.7126 81.0618 30.5605V18.1013C81.0618 17.8006 80.8354 17.5738 80.5353 17.5738Z" fill="white"/>
<path d="M67.6986 17.6293C67.3279 17.4835 66.9193 17.4126 66.4494 17.4126C65.2013 17.4126 64.1853 17.911 63.4226 18.8953V18.1029C63.4226 17.8113 63.1859 17.5739 62.8945 17.5739H60.4539C60.1627 17.5739 59.9258 17.811 59.9258 18.1027V31.2024C59.9258 31.4939 60.163 31.7314 60.4542 31.7314H62.8945C63.1859 31.7314 63.4226 31.4939 63.4226 31.2024V23.5901C63.4226 21.9488 64.6289 21.1462 65.8418 21.0772C66.2628 21.0191 66.5012 21.0382 66.7698 21.0904C67.0697 21.1488 67.3528 20.968 67.4198 20.6787L68.0671 18.3417C68.1329 18.0444 67.9744 17.7381 67.6986 17.6293Z" fill="white"/>
<path d="M53.968 25.5984V26.791C53.968 28.2112 52.4698 29.0597 51.021 29.0597C50.0453 29.0597 49.0025 28.6405 49.0025 27.4635C49.0025 26.2783 50.0281 25.5984 51.8167 25.5984H53.968ZM51.6578 17.3588C48.9615 17.3588 46.8093 18.5725 46.1747 20.451C46.1207 20.6108 46.1393 20.7842 46.2256 20.9274C46.3062 21.0614 46.4397 21.1546 46.5929 21.1843L48.9983 21.7772C49.2503 21.8228 49.501 21.6899 49.598 21.4614C49.8731 20.8161 50.6326 20.4606 51.7373 20.4606C53.1966 20.4606 53.968 21.152 53.968 22.4603V23.0344H51.2068C47.6205 23.0344 45.4792 24.7705 45.4792 27.6789C45.4792 30.8253 47.9448 31.9464 50.252 31.9464C51.7993 31.9464 53.0783 31.4943 53.968 30.6392V31.2025C53.968 31.494 54.2051 31.7312 54.4963 31.7312H56.9364C57.2276 31.7312 57.4648 31.494 57.4648 31.2025V22.1377C57.4648 19.3239 55.0769 17.3588 51.6578 17.3588Z" fill="white"/>
<path d="M127.369 31.7319H130.389C130.532 31.7319 130.676 31.6715 130.748 31.5706L133.886 26.9715C133.935 26.8907 133.982 26.8907 134.03 26.9715L137.145 31.5706C137.217 31.6715 137.361 31.7319 137.505 31.7319H140.524C140.739 31.7319 140.859 31.6311 140.739 31.4495L136.091 24.7324C136.067 24.6921 136.067 24.6517 136.091 24.6113L140.739 17.8942C140.859 17.7127 140.739 17.6118 140.524 17.6118H137.505C137.361 17.6118 137.217 17.6723 137.145 17.7731L134.03 22.3925C133.982 22.4731 133.935 22.4731 133.886 22.3925L130.772 17.7731C130.7 17.6723 130.557 17.6118 130.413 17.6118H127.369C127.154 17.6118 127.034 17.7127 127.154 17.8942L131.802 24.6113C131.826 24.6517 131.826 24.6921 131.802 24.7324L127.154 31.4495C127.034 31.6311 127.154 31.7319 127.369 31.7319Z" fill="white"/>
<defs>
<linearGradient id="paint0_linear_88_35743" x1="187.957" y1="12.6304" x2="199.483" y2="24.548" gradientUnits="userSpaceOnUse">
<stop stop-color="#EF2F2D"/>
<stop offset="1" stop-color="#89272D"/>
</linearGradient>
</defs>
</svg>
