<svg xmlns="http://www.w3.org/2000/svg" xmlns:xlink="http://www.w3.org/1999/xlink" width="20px" height="20px" viewBox="0 0 20 20" version="1.1">
    <title>ic/gas</title>
    <g id="页面-1" stroke="none" stroke-width="1" fill="none" fill-rule="evenodd">
        <g id="To-linea-积分备份-13" transform="translate(-747.000000, -476.000000)">
            <g id="ic/gas" transform="translate(747.000000, 476.000000)">
                <polygon id="路径" fill-rule="nonzero" points="20 0 0 0 0 20 20 20"/>
                <path d="M2.0521191,18.25 L2.0521191,3.25 C2.0521191,2.85217429 2.21015053,2.47064286 2.49145625,2.18933714 C2.77276196,1.90803143 3.15429339,1.75 3.5521191,1.75 L11.0521191,1.75 C11.4499191,1.75 11.8314334,1.90803143 12.1127477,2.18933714 C12.394062,2.47064286 12.5521191,2.85217429 12.5521191,3.25 L12.5521191,18.25" id="路径" stroke="white" stroke-width="1.2" stroke-linecap="round" stroke-linejoin="round"/>
                <line x1="0.802119102" y1="18.25" x2="13.8021191" y2="18.25" id="路径" stroke="white" stroke-width="1.2" stroke-linecap="round" stroke-linejoin="round"/>
                <path d="M12.5521191,8.5 L14.8021191,8.5 C15.1999191,8.5 15.5814334,8.65805714 15.8627477,8.93937143 C16.144062,9.22068571 16.3021191,9.6022 16.3021191,10 L16.3021191,13.75 C16.3021191,14.1478 16.4601762,14.5293143 16.7414905,14.8106286 C17.0228048,15.0919429 17.4043191,15.25 17.8021191,15.25 C18.1999191,15.25 18.5814334,15.0919429 18.8627477,14.8106286 C19.144062,14.5293143 19.3021191,14.1478 19.3021191,13.75 L19.3021191,6.11874571 C19.3004048,5.72139143 19.1420905,5.34073429 18.861462,5.05937714 L17.0521191,3.25" id="路径" stroke="white" stroke-width="1.2" stroke-linecap="round" stroke-linejoin="round"/>
                <line x1="9.5521191" y1="8.5" x2="5.0521191" y2="8.5" id="路径" stroke="white" stroke-width="1.2" stroke-linecap="round" stroke-linejoin="round"/>
            </g>
        </g>
    </g>
</svg>