<svg width="206" height="40" viewBox="0 0 206 40" fill="none" xmlns="http://www.w3.org/2000/svg">
<path d="M73.3651 17.8446C73.3698 17.9346 73.3949 17.9417 73.4405 17.8659C74.1032 16.7779 74.9583 16.1131 76.0058 15.8714C76.8617 15.6741 77.7121 15.7538 78.557 16.1107C79.4066 16.4707 80.0724 17.0866 80.5545 17.9583C80.9801 18.7257 81.2589 19.5461 81.3908 20.4193C81.518 21.2547 81.5628 22.1113 81.5251 22.9893C81.4764 24.0742 81.2102 25.0888 80.7265 26.0331C80.125 27.2095 79.3084 27.9999 78.2766 28.4041C77.0988 28.8668 75.8558 28.7602 74.5476 28.0844C74.1173 27.8617 73.7938 27.508 73.5771 27.0232C73.5381 26.9347 73.4802 26.8737 73.4264 26.8645C73.3353 26.8471 73.2991 26.9434 73.318 27.1535C73.3824 27.8625 73.0871 28.3062 72.4323 28.4847C71.6549 28.6963 71.0872 28.5628 70.7291 28.0844C70.5171 27.8001 70.4111 27.3106 70.4111 26.6158C70.4111 22.0869 70.4111 17.5579 70.4111 13.029C70.4111 12.4558 70.5132 12.0263 70.7174 11.7405C71.0629 11.2604 71.5473 11.0875 72.1708 11.2217C72.5901 11.3117 72.8971 11.5091 73.0919 11.8139C73.274 12.0934 73.351 12.4195 73.3227 12.7922C73.3023 13.0496 73.2921 13.1877 73.2921 13.2067C73.2622 14.789 73.2866 16.3349 73.3651 17.8446ZM73.6949 20.0569C73.2332 21.2855 73.1335 22.5472 73.3957 23.8421C73.5496 24.5969 73.7828 25.1614 74.0954 25.5357C74.5414 26.0694 75.1585 26.3118 75.9469 26.2628C77.2645 26.1807 78.0819 25.4646 78.3991 24.1145C78.7022 22.8322 78.6904 21.5547 78.3638 20.2819C78.1 19.2587 77.4757 18.6223 76.4911 18.3728C75.7796 18.1912 75.168 18.2812 74.656 18.6428C74.2665 18.9176 73.9462 19.3889 73.6949 20.0569Z" fill="white"/>
<path d="M85.3953 14.7896C86.2462 14.7896 86.9359 14.0961 86.9359 13.2405C86.9359 12.385 86.2462 11.6914 85.3953 11.6914C84.5445 11.6914 83.8547 12.385 83.8547 13.2405C83.8547 14.0961 84.5445 14.7896 85.3953 14.7896Z" fill="white"/>
<path d="M141.048 14.7945C141.898 14.7945 142.588 14.101 142.588 13.2454C142.588 12.3899 141.898 11.6963 141.048 11.6963C140.197 11.6963 139.507 12.3899 139.507 13.2454C139.507 14.101 140.197 14.7945 141.048 14.7945Z" fill="white"/>
<path d="M57.3232 14.8632C57.9671 15.8328 58.384 16.9682 58.574 18.2694C58.8583 20.2101 58.7813 21.9867 58.3432 23.5989C57.7574 25.756 56.5827 27.2522 54.8191 28.0876C53.445 28.7382 51.9107 28.9261 50.2162 28.6513C47.212 28.165 45.3502 26.2195 44.631 22.8149C44.2996 21.2421 44.2878 19.6669 44.5956 18.0894C44.9348 16.346 45.5457 14.988 46.4283 14.0153C47.4837 12.8514 48.9214 12.1772 50.7415 11.9924C52.1879 11.8456 53.4992 12.0422 54.6754 12.5822C55.7669 13.0844 56.6495 13.8447 57.3232 14.8632ZM54.2326 15.5288C53.6735 14.9983 53.0595 14.688 52.3905 14.598C50.7132 14.3721 49.4459 14.8032 48.5885 15.8913C47.9807 16.6603 47.5991 17.7412 47.4436 19.134C47.3164 20.2694 47.3753 21.4419 47.6203 22.6515C47.8825 23.9495 48.4801 24.9072 49.4129 25.5247C50.3112 26.1184 51.3194 26.3174 52.4376 26.1216C53.416 25.9495 54.1957 25.4583 54.7767 24.6483C55.2117 24.0387 55.5141 23.2184 55.6837 22.1872C55.9302 20.687 55.8619 19.1813 55.4787 17.6701C55.2667 16.8316 54.8513 16.1179 54.2326 15.5288Z" fill="white"/>
<path d="M26.9019 14.877C26.9823 16.8645 27.262 20.2289 27.3965 21.8808C27.4063 22.0011 27.3907 22.1221 27.3508 22.2359C27.3109 22.3497 27.2476 22.4535 27.1651 22.5406C27.0826 22.6277 26.9827 22.696 26.8722 22.741C26.7615 22.7859 26.6428 22.8066 26.5238 22.8015C25.3174 22.7444 23.0727 22.658 20.3873 22.6458C17.7693 22.6337 15.6038 22.7067 14.4298 22.7577C14.3111 22.7624 14.1929 22.7416 14.0828 22.6966C13.9727 22.6516 13.8733 22.5834 13.791 22.4967C13.7088 22.4099 13.6457 22.3065 13.6058 22.1932C13.5658 22.0799 13.5501 21.9593 13.5595 21.8394C13.6928 20.2021 13.9545 16.8632 14.0396 14.877C14.0971 13.1907 14.8004 11.5935 16.0003 10.4238C17.2004 9.2542 18.8027 8.60417 20.4678 8.61141C22.1337 8.60289 23.7376 9.25231 24.9387 10.4221C26.14 11.5919 26.8441 13.1898 26.9019 14.877ZM20.4594 11.7144C19.7115 11.7142 18.9803 11.9387 18.3583 12.3596C17.7363 12.7804 17.2515 13.3787 16.9651 14.0788C16.6787 14.779 16.6037 15.5494 16.7495 16.2927C16.8953 17.036 17.2553 17.7189 17.7841 18.2549C18.3127 18.7908 18.9865 19.1558 19.7201 19.3038C20.4535 19.4517 21.214 19.3759 21.905 19.0859C22.5959 18.796 23.1866 18.3049 23.6021 17.6748C24.0176 17.0446 24.2394 16.3038 24.2394 15.546C24.2394 14.5304 23.8416 13.5564 23.1332 12.8379C22.4249 12.1195 21.464 11.7154 20.4618 11.7144H20.4594Z" fill="url(#paint0_linear_41757_5207)"/>
<path d="M20.5269 13.3486C20.7464 13.6038 20.8675 13.9309 20.8678 14.2695C20.8639 14.4632 20.8224 14.6542 20.7456 14.8316C20.6687 15.0091 20.5582 15.1694 20.4201 15.3035C20.2821 15.4376 20.1194 15.5428 19.9412 15.6131C19.763 15.6834 19.5728 15.7175 19.3817 15.7133C19.161 15.7147 18.9428 15.6667 18.7425 15.5727C18.5422 15.4787 18.365 15.341 18.2234 15.1696C18.1969 15.305 18.1833 15.4426 18.1825 15.5807C18.1825 16.814 19.2101 17.8139 20.4776 17.8139C21.7453 17.8139 22.7716 16.814 22.7716 15.5807C22.7716 14.3473 21.7717 13.3681 20.5269 13.3486Z" fill="url(#paint1_linear_41757_5207)"/>
<path d="M23.9166 11.0323C23.8874 11.0341 23.8582 11.03 23.8305 11.0202C23.8029 11.0105 23.7774 10.9952 23.7556 10.9754C23.7338 10.9556 23.7161 10.9316 23.7036 10.9049C23.6911 10.8781 23.6839 10.849 23.6825 10.8194C23.6633 10.3207 23.7522 9.29897 25.0269 8.18357C25.9057 7.41605 27.1289 7.13872 28.6677 7.35767C28.6971 7.36178 28.7254 7.37186 28.7507 7.38732C28.7762 7.40277 28.7982 7.42327 28.8156 7.44759C28.8329 7.47191 28.8454 7.49954 28.8519 7.52882C28.8585 7.5581 28.8591 7.58842 28.8539 7.61797C28.8436 7.67312 28.8131 7.7223 28.7686 7.75568C28.7241 7.78906 28.6688 7.80417 28.6138 7.79799C27.2128 7.59728 26.1133 7.83813 25.3403 8.51199C24.2311 9.48507 24.1327 10.3572 24.1399 10.8048C24.1412 10.8623 24.1204 10.9181 24.0819 10.9603C24.0433 11.0025 23.9901 11.0279 23.9334 11.031L23.9166 11.0323Z" fill="#2D2F31"/>
<path d="M28.3561 8.02925C28.7081 8.02925 28.9935 7.75097 28.9935 7.40769C28.9935 7.06441 28.7081 6.78613 28.3561 6.78613C28.004 6.78613 27.7186 7.06441 27.7186 7.40769C27.7186 7.75097 28.004 8.02925 28.3561 8.02925Z" fill="#2D2F31"/>
<path d="M17.2533 11.0737C17.2824 11.0757 17.3117 11.0717 17.3393 11.0621C17.3669 11.0525 17.3923 11.0374 17.4141 11.0177C17.436 10.998 17.4536 10.9741 17.4662 10.9473C17.4788 10.9206 17.486 10.8916 17.4874 10.862C17.5078 10.3512 17.4237 9.18717 16.1429 8.06443C15.2655 7.29691 14.041 7.01958 12.5021 7.23853C12.4728 7.2428 12.4447 7.25299 12.4193 7.26849C12.3941 7.28399 12.372 7.30449 12.3547 7.32877C12.3373 7.35304 12.325 7.38061 12.3184 7.40982C12.3117 7.43903 12.311 7.4693 12.3161 7.49882C12.3263 7.55397 12.3567 7.60316 12.4013 7.63654C12.4458 7.66992 12.501 7.68503 12.5561 7.67885C13.957 7.47814 15.0577 7.71898 15.8296 8.39285C16.9424 9.36597 17.0384 10.3804 17.024 10.8402C17.0223 10.898 17.043 10.9542 17.0815 10.9969C17.12 11.0396 17.1734 11.0654 17.2305 11.0688L17.2533 11.0737Z" fill="#2D2F31"/>
<path d="M12.9067 8.02925C13.2588 8.02925 13.5442 7.75097 13.5442 7.40769C13.5442 7.06441 13.2588 6.78613 12.9067 6.78613C12.5547 6.78613 12.2693 7.06441 12.2693 7.40769C12.2693 7.75097 12.5547 8.02925 12.9067 8.02925Z" fill="#2D2F31"/>
<path d="M40.9659 30.6863C40.9659 28.6708 35.9842 25.4694 35.9842 25.4694L35.9266 25.4524C36.7477 22.0855 37.1702 20.5869 37.2243 18.3975C37.3443 13.397 36.0995 9.16408 32.9712 5.45294C30.0627 2.00213 25.4327 0 20.4871 0C15.2306 0 11.1793 2.03011 8.17229 5.39334C5.1653 8.75657 3.6564 12.4045 3.74284 18.3415C3.76804 20.003 4.14016 22.7922 4.94323 25.293L4.88681 25.31C4.88681 25.31 0 28.4507 0 30.6267C0 31.2701 2.64087 32.0864 8.08825 32.3455L5.05006 36.9579C4.93002 37.3507 5.00444 37.8908 5.32975 38.1219C5.65045 38.3359 6.01735 38.4681 6.39931 38.5076C6.97669 38.5246 7.15675 38.3554 7.36923 37.9674L10.4194 32.5863C13.6605 32.7164 15.7228 32.7858 19.4308 32.7931V38.9515C19.4524 39.3225 19.6072 40 20.5904 40C21.4834 40 21.6371 39.3651 21.6371 38.9515V32.7967C25.3404 32.7894 27.3546 32.8393 30.5897 32.7104L33.7863 37.9078C33.8445 38.0756 33.9553 38.2194 34.1019 38.3172C34.2485 38.415 34.4227 38.4614 34.5978 38.4492C34.9098 38.4538 35.2167 38.3694 35.4837 38.2058C35.8438 38.0428 35.8438 37.4432 35.6985 36.8995L32.688 32.4647C37.9457 32.0219 40.9659 31.2032 40.9659 30.6863ZM9.41829 30.0952C8.92917 30.0875 8.46306 29.8833 8.12248 29.5275C7.7819 29.1716 7.59472 28.6933 7.6021 28.1976C7.6021 27.1491 8.41476 26.4181 9.41829 26.4181C10.4218 26.4181 11.2345 27.1479 11.2345 28.1976C11.2415 28.6932 11.0543 29.1714 10.7137 29.5271C10.3733 29.8829 9.90734 30.0872 9.41829 30.0952ZM20.4835 30.1998C20.1106 30.2114 19.7428 30.11 19.4271 29.9085C19.1115 29.707 18.8624 29.4146 18.7117 29.0688C18.561 28.7229 18.5157 28.3394 18.5814 27.9672C18.6472 27.5951 18.8211 27.2514 19.0808 26.98C19.3406 26.7086 19.6743 26.522 20.0394 26.444C20.4044 26.3661 20.7841 26.4003 21.1299 26.5423C21.4756 26.6843 21.7717 26.9277 21.98 27.2412C22.1885 27.5547 22.2998 27.9242 22.2997 28.3022C22.3071 28.7979 22.1199 29.2762 21.7793 29.6321C21.4387 29.9879 20.9727 30.1921 20.4835 30.1998ZM31.5476 30.3056C31.1746 30.3172 30.8068 30.2158 30.4912 30.0143C30.1755 29.8128 29.9264 29.5204 29.7757 29.1746C29.6251 28.8288 29.5797 28.4452 29.6455 28.073C29.7113 27.7009 29.8851 27.3572 30.1449 27.0858C30.4046 26.8145 30.7383 26.6278 31.1034 26.5499C31.4684 26.4719 31.8482 26.5061 32.1939 26.6481C32.5396 26.7901 32.8357 27.0335 33.0441 27.347C33.2526 27.6606 33.3638 28.03 33.3638 28.4081C33.3708 28.9037 33.1836 29.3818 32.843 29.7375C32.5025 30.0933 32.0366 30.2976 31.5476 30.3056ZM34.3337 24.759C30.8225 23.8528 25.6236 23.8978 20.4823 23.8978C15.341 23.8978 10.519 23.7385 6.61178 24.759C6.02718 22.3786 5.56863 20.003 5.50981 18.1626C5.23612 9.60919 10.938 1.49855 20.4823 1.49855C30.0267 1.49855 35.9194 9.61529 35.5545 18.1626C35.4404 20.8532 34.6998 23.3164 34.3337 24.759Z" fill="white"/>
<path d="M130.376 21.5399L130.362 27.5492C130.362 27.9093 130.204 28.1698 129.886 28.3309C129.321 28.6183 128.739 28.6491 128.141 28.4233C127.855 28.3159 127.664 28.1556 127.566 27.9424C127.467 27.7308 127.418 27.4671 127.418 27.1513C127.418 22.6713 127.415 18.1906 127.408 13.709C127.407 13.1263 127.613 12.7379 128.028 12.5436C128.224 12.452 128.608 12.4062 129.18 12.4062C131.498 12.4062 133.816 12.4062 136.134 12.4062C136.718 12.4062 137.076 12.7015 137.208 13.2921C137.366 13.9948 137.216 14.4796 136.756 14.7465C136.52 14.8839 136.094 14.9526 135.479 14.9526C133.86 14.9526 132.198 14.9526 130.494 14.9526C130.421 14.9526 130.362 15.012 130.362 15.0852V18.6003C130.362 18.6537 130.383 18.705 130.421 18.7427C130.459 18.7805 130.509 18.8017 130.563 18.8017C132.175 18.8017 133.738 18.8159 135.25 18.8443C136.215 18.8617 136.646 19.3804 136.546 20.4005C136.514 20.7258 136.392 20.9674 136.178 21.1254C136.039 21.2296 135.799 21.2927 135.46 21.3149C133.808 21.4207 132.153 21.457 130.497 21.4238C130.465 21.4232 130.434 21.4351 130.412 21.457C130.389 21.4788 130.376 21.5087 130.376 21.5399Z" fill="white"/>
<path d="M94.0477 18.7593C94.0117 18.7567 93.9763 18.7692 93.9499 18.794C93.9236 18.8187 93.9086 18.8534 93.9087 18.8896C93.9087 20.5287 93.8946 22.1379 93.8663 23.717C93.8553 24.3123 93.9134 24.8982 94.0406 25.4745C94.1019 25.754 94.2731 25.9183 94.5542 25.9672C95.3598 26.1062 96.0924 25.9333 96.752 25.4485C97.0786 25.2085 97.3707 25.244 97.6283 25.5551C97.8984 25.882 97.9502 26.3138 97.7837 26.8507C97.6581 27.255 97.4469 27.5858 97.1501 27.8432C96.9192 28.0438 96.5808 28.208 96.1348 28.3359C95.0999 28.6328 94.1074 28.6675 93.1573 28.4401C92.2134 28.2143 91.5837 27.6956 91.268 26.8839C91.1157 26.497 91.0364 25.7477 91.0301 24.636C91.0191 22.8421 91.0168 20.9906 91.023 19.0815C91.0239 18.9881 90.9832 18.8992 90.9121 18.8392C90.841 18.7791 90.7469 18.7542 90.6556 18.7712C90.2692 18.8438 89.9379 18.8201 89.6615 18.7001C89.3867 18.5817 89.2076 18.3417 89.1244 17.98C89.0475 17.6468 89.0372 17.3105 89.0938 16.971C89.1535 16.6078 89.3223 16.363 89.6002 16.2367C89.8829 16.1104 90.2143 16.0835 90.5943 16.1562C90.6995 16.1772 90.8088 16.1455 90.8935 16.0695C90.9781 15.9935 91.0298 15.8806 91.0348 15.7606L91.0914 14.3299C91.1071 13.913 91.3772 13.6509 91.9017 13.5435C93.4659 13.2245 94.1349 13.8522 93.9087 15.4266C93.8318 15.9603 94.0037 16.2083 94.4246 16.1704C94.6664 16.1483 94.7952 16.1372 94.8109 16.1372C95.3307 16.1372 95.9102 16.1372 96.5494 16.1372C96.9546 16.1372 97.2467 16.3204 97.4257 16.6867C97.5608 16.9647 97.6071 17.2994 97.5647 17.6911C97.5286 18.0432 97.4116 18.3101 97.2137 18.4917C96.9844 18.7017 96.6876 18.8099 96.3233 18.8162C95.5522 18.8288 94.7937 18.8099 94.0477 18.7593Z" fill="white"/>
<path d="M64.2818 18.2805C64.7309 17.4151 65.2869 16.725 65.9496 16.2102C66.2998 15.9386 66.745 15.7807 67.2852 15.7365C67.9056 15.686 68.284 15.9528 68.4207 16.5371C68.5463 17.0709 68.4843 17.5256 68.2346 17.9015C68.0775 18.1383 67.8584 18.2599 67.5773 18.2663C65.9472 18.3057 64.8895 19.0566 64.4043 20.5189C64.2944 20.8473 64.2339 21.3408 64.2229 21.9993C64.1883 23.7884 64.1703 25.5768 64.1687 27.3643C64.1687 27.6802 64.1043 27.9139 63.9756 28.0655C63.8138 28.2581 63.5884 28.3924 63.2995 28.4682C62.475 28.6877 61.8484 28.4737 61.4197 27.8262C61.3783 27.766 61.3561 27.6908 61.3561 27.6107C61.3388 24.1208 61.3341 20.6318 61.3419 17.1435C61.3435 16.6856 61.5359 16.3674 61.9191 16.1889C62.4703 15.9315 62.9972 15.9142 63.4997 16.1368C63.7981 16.2679 64.0023 16.4716 64.1122 16.7479C64.2253 17.0337 64.2441 17.3433 64.1687 17.6765C64.1185 17.8991 64.1232 18.0997 64.1828 18.2781C64.2095 18.3571 64.2425 18.3578 64.2818 18.2805Z" fill="white"/>
<path d="M100.716 17.5373C101.682 16.3877 102.926 15.7829 104.448 15.7229C105.938 15.6645 107.131 16.1043 108.026 17.0423C108.659 17.7039 109.105 18.578 109.364 19.6644C109.612 20.7114 109.604 21.7267 109.338 22.7105C109.203 23.2095 108.854 23.4377 108.292 23.3951C107.969 23.3714 107.801 23.3595 107.788 23.3595C105.944 23.3422 104.101 23.3564 102.257 23.4022C102.189 23.4045 102.135 23.4572 102.132 23.523C102.062 25.0152 102.716 25.909 104.097 26.2043C105.287 26.4586 106.324 26.1617 107.209 25.3137C107.491 25.0421 107.746 24.8929 107.974 24.866C108.491 24.806 108.882 25.02 109.147 25.5079C109.389 25.9532 109.318 26.4246 108.935 26.922C108.218 27.86 107.275 28.4419 106.106 28.6677C105.269 28.8288 104.445 28.8407 103.633 28.7033C102.755 28.5548 102.01 28.243 101.397 27.7676C100.469 27.046 99.8378 26.0117 99.5033 24.6647C99.1327 23.1756 99.1327 21.6359 99.5033 20.0458C99.731 19.0651 100.135 18.229 100.716 17.5373ZM102.62 19.2688C102.257 19.8231 102.081 20.4026 102.092 21.0074C102.095 21.1294 102.191 21.2266 102.309 21.2254L106.28 21.2017C106.598 21.2001 106.735 21.0366 106.693 20.7113C106.462 18.9443 105.616 18.1476 104.156 18.3214C103.495 18.3987 102.983 18.7146 102.62 19.2688Z" fill="white"/>
<path d="M115.008 17.8877C115.256 17.3998 115.727 16.8605 116.419 16.2699C116.758 15.9825 117.184 15.8072 117.696 15.744C118.12 15.6919 118.451 15.7898 118.688 16.0378C118.881 16.2415 118.989 16.5281 119.013 16.8976C119.036 17.2545 118.967 17.5679 118.805 17.838C118.641 18.1143 118.398 18.2564 118.078 18.2643C116.642 18.3038 115.638 18.922 115.065 20.119C114.762 20.7554 114.623 21.6586 114.648 22.8288C114.681 24.2894 114.697 25.7501 114.697 27.2108C114.697 27.912 114.41 28.3399 113.835 28.4946C113.133 28.6826 112.582 28.5539 112.181 28.1086C111.985 27.8891 111.885 27.5661 111.882 27.1398C111.862 23.8615 111.862 20.5833 111.882 17.305C111.884 16.8865 111.981 16.5841 112.174 16.3978C112.416 16.1641 112.742 16.033 113.152 16.0046C114.33 15.9225 114.84 16.517 114.683 17.7882C114.603 18.4436 114.711 18.4767 115.008 17.8877Z" fill="white"/>
<path d="M148.392 17.8714C148.457 17.8382 148.513 17.7735 148.56 17.6771C148.937 16.9144 149.486 16.3767 150.209 16.0641C150.815 15.8019 151.534 15.7214 152.366 15.8225C153.923 16.0104 154.965 16.7762 155.492 18.1201C155.739 18.7486 155.862 19.8903 155.862 21.5452C155.862 23.5001 155.862 25.493 155.862 27.5237C155.862 27.8648 155.718 28.1246 155.429 28.303C154.961 28.5904 154.435 28.6528 153.85 28.4902C153.415 28.3686 153.153 28.1246 153.064 27.7582C153.045 27.684 153.035 27.3579 153.035 26.78C153.037 24.9498 153.042 23.1196 153.052 21.2894C153.053 20.8914 153.023 20.4974 152.96 20.1074C152.885 19.6321 152.749 19.2673 152.552 19.0131C152.143 18.4841 151.514 18.2511 150.666 18.3143C149.13 18.4264 148.357 19.2405 148.348 20.7564C148.332 23.0272 148.324 25.2609 148.324 27.4574C148.324 27.9185 148.109 28.2304 147.679 28.393C146.78 28.731 146.081 28.5431 145.58 27.8293C145.535 27.7678 145.512 27.6915 145.511 27.6114L145.497 17.0163C145.497 16.7273 145.614 16.4967 145.846 16.3246C146.133 16.1099 146.472 15.9954 146.861 15.9812C147.248 15.9685 147.579 16.0546 147.855 16.2393C148.334 16.5583 148.486 17.0739 148.31 17.7861C148.285 17.8872 148.312 17.9156 148.392 17.8714Z" fill="white"/>
<path d="M166.241 17.5942C166.128 16.6641 166.486 16.1422 167.315 16.0286C167.835 15.9591 168.265 16.053 168.604 16.3104C168.894 16.5315 169.064 16.8394 169.113 17.2342C169.113 17.2374 169.113 17.5737 169.113 18.2433C169.113 21.212 169.113 24.1815 169.113 27.1519C169.113 28.0946 168.622 28.5644 167.64 28.5612C166.648 28.5581 166.156 28.0725 166.166 27.1045C166.167 27.0682 166.174 27.0224 166.187 26.9671C166.222 26.8234 166.17 26.8053 166.032 26.9126C165.997 26.9411 165.97 26.9782 165.951 27.024C165.655 27.7282 165.192 28.1807 164.564 28.3812C162.827 28.9339 161.368 28.7357 160.187 27.7867C159.237 27.024 158.579 25.8728 158.213 24.3331C157.806 22.6151 157.894 20.8622 158.475 19.0747C159.104 17.1371 160.434 16.0522 162.463 15.8201C164.044 15.6385 165.233 16.2536 166.029 17.6653C166.218 18.0001 166.288 17.9764 166.241 17.5942ZM161.69 19.2689C161.319 19.7679 161.091 20.3285 161.005 20.9507C160.893 21.7592 160.886 22.5622 160.983 23.3596C161.085 24.1934 161.299 24.8337 161.624 25.2806C162.083 25.9107 162.734 26.2384 163.577 26.2636C164.59 26.2952 165.302 25.9288 165.714 25.1645C165.973 24.6845 166.146 23.9818 166.234 23.0564C166.339 21.9479 166.18 20.8749 165.756 19.8374C165.571 19.3842 165.357 19.051 165.115 18.8378C164.807 18.563 164.432 18.3941 163.989 18.3309C163.023 18.1919 162.257 18.5046 161.69 19.2689Z" fill="white"/>
<path d="M174.564 17.7881C174.914 17.0112 175.439 16.4522 176.14 16.1111C176.728 15.8221 177.441 15.7202 178.276 15.8055C179.909 15.9697 180.993 16.7467 181.527 18.1363C181.773 18.7806 181.894 19.9886 181.89 21.7604C181.885 23.6553 181.874 25.551 181.857 27.4476C181.852 28.0271 181.587 28.3729 181.061 28.4851C180.71 28.5593 180.36 28.5577 180.01 28.4803C179.368 28.3398 179.048 27.9758 179.051 27.3884C179.061 25.6118 179.083 23.8353 179.119 22.0588C179.14 21.045 179.058 20.201 178.874 19.5267C178.71 18.9266 178.359 18.5516 177.822 18.4016C177.445 18.2958 176.977 18.2555 176.42 18.2808C175.621 18.3155 175.035 18.6914 174.663 19.4083C174.418 19.8804 174.301 20.5271 174.314 21.3482C174.345 23.3063 174.355 25.2652 174.342 27.2249C174.341 27.6307 174.243 27.9347 174.05 28.1369C173.664 28.5395 173.132 28.6501 172.455 28.4685C171.967 28.3374 171.669 28.0761 171.563 27.6844C171.539 27.596 171.527 27.2399 171.527 26.6162C171.527 23.8432 171.527 21.0703 171.527 18.2974C171.527 17.4257 171.53 16.9741 171.537 16.9425C171.65 16.3866 172.058 16.074 172.762 16.0045C173.965 15.8829 174.495 16.4206 174.354 17.6176C174.34 17.7328 174.357 17.8126 174.406 17.8568C174.427 17.8757 174.458 17.8789 174.489 17.8654C174.52 17.8519 174.548 17.8232 174.564 17.7881Z" fill="white"/>
<path d="M186.938 16.5166C188.1 15.8138 189.447 15.5999 190.978 15.8746C191.75 16.0152 192.456 16.3129 193.095 16.7676C193.868 17.3172 194.197 18.0151 194.082 18.8615C194.031 19.239 193.775 19.535 193.317 19.7498C192.788 19.9961 192.331 19.843 191.948 19.2903C191.615 18.8134 191.16 18.5062 190.582 18.3689C190.062 18.2457 189.544 18.2733 189.027 18.4518C188.25 18.7186 187.681 19.2682 187.319 20.1004C186.658 21.6163 186.64 23.0739 187.265 24.4729C187.528 25.0572 187.939 25.5144 188.5 25.8444C189.046 26.1681 189.612 26.2976 190.198 26.2329C190.886 26.1571 191.528 25.8468 192.125 25.302C192.522 24.9388 193 24.9001 193.56 25.1859C194.367 25.5997 194.532 26.2076 194.054 27.0098C193.845 27.3651 193.568 27.6525 193.223 27.872C192.07 28.6063 190.804 28.9134 189.425 28.7934C186.459 28.5344 184.694 26.9214 184.13 23.9542C183.822 22.3356 183.949 20.8418 184.512 19.4727C185.05 18.1573 185.859 17.1719 186.938 16.5166Z" fill="white"/>
<path d="M198.622 23.4941C198.547 24.5048 198.845 25.2509 199.517 25.7325C200.093 26.1463 200.792 26.3239 201.614 26.2655C202.421 26.2086 203.115 25.877 203.696 25.2706C204.084 24.8664 204.504 24.7716 204.956 24.9864C205.555 25.2722 205.807 25.6765 205.712 26.1992C205.653 26.5308 205.443 26.8806 205.083 27.2485C204.031 28.3255 202.656 28.8308 200.959 28.7644C198.262 28.6586 196.598 27.2919 195.967 24.6643C195.579 23.0504 195.585 21.495 195.986 19.998C196.349 18.6447 196.957 17.6103 197.812 16.895C198.796 16.0707 200.027 15.6972 201.503 15.7746C203.414 15.8757 204.725 16.8042 205.437 18.5602C205.999 19.9482 206.14 21.2921 205.861 22.5917C205.743 23.138 205.37 23.4065 204.742 23.397C202.744 23.367 200.747 23.3599 198.751 23.3757C198.683 23.3755 198.626 23.4275 198.622 23.4941ZM199.074 19.2613C198.713 19.7935 198.544 20.4046 198.568 21.0947C198.57 21.1634 198.624 21.2178 198.69 21.2178L203.048 21.1894C203.115 21.1894 203.169 21.1357 203.171 21.0686C203.177 20.7733 203.131 20.3927 203.034 19.9269C202.822 18.9099 202.22 18.3596 201.227 18.2759C200.291 18.1986 199.574 18.527 199.074 19.2613Z" fill="white"/>
<path d="M85.4878 15.9785H85.3076C84.5612 15.9785 83.9561 16.5836 83.9561 17.3301V27.2094C83.9561 27.9558 84.5612 28.5609 85.3076 28.5609H85.4878C86.2342 28.5609 86.8394 27.9558 86.8394 27.2094V17.3301C86.8394 16.5836 86.2342 15.9785 85.4878 15.9785Z" fill="white"/>
<path d="M141.135 15.9805H140.969C140.219 15.9805 139.611 16.5888 139.611 17.3392V27.2042C139.611 27.9546 140.219 28.5629 140.969 28.5629H141.135C141.886 28.5629 142.494 27.9546 142.494 27.2042V17.3392C142.494 16.5888 141.886 15.9805 141.135 15.9805Z" fill="white"/>
<defs>
<linearGradient id="paint0_linear_41757_5207" x1="161.709" y1="310.89" x2="1272.9" y2="1475.12" gradientUnits="userSpaceOnUse">
<stop stop-color="#EF2F2D"/>
<stop offset="1" stop-color="#89272D"/>
</linearGradient>
<linearGradient id="paint1_linear_41757_5207" x1="55.5658" y1="196.47" x2="487.35" y2="313.346" gradientUnits="userSpaceOnUse">
<stop stop-color="#434344"/>
<stop offset="0.29" stop-color="#404041"/>
<stop offset="0.51" stop-color="#363637"/>
<stop offset="0.71" stop-color="#262627"/>
<stop offset="0.9" stop-color="#0F0F0F"/>
<stop offset="1"/>
</linearGradient>
</defs>
</svg>
