<svg width="20" height="20" viewBox="0 0 20 20" fill="none" xmlns="http://www.w3.org/2000/svg">
<path d="M16.3511 2.98096H3.58932C2.29923 2.98096 1.24966 4.03073 1.24966 5.32061V14.6792C1.24966 15.9691 2.29923 17.0189 3.58932 17.0189H16.3511C17.6412 17.0189 18.6907 15.9691 18.6907 14.6792V5.32061C18.6907 4.03073 17.6412 2.98096 16.3511 2.98096ZM17.4146 11.4888H12.7352C11.9144 11.4888 11.2464 10.8208 11.2464 9.99994C11.2464 9.17908 11.9144 8.51107 12.7352 8.51107H17.4146V11.4888ZM17.4146 7.23489H12.7352C11.2106 7.23489 9.9702 8.47535 9.9702 9.99994C9.9702 11.5245 11.2107 12.765 12.7352 12.765H17.4146V14.6792C17.4146 15.2658 16.9375 15.7427 16.3511 15.7427H3.58932C3.00296 15.7427 2.52584 15.2658 2.52584 14.6792V5.32061C2.52584 4.73403 3.00296 4.25713 3.58932 4.25713H16.3511C16.9375 4.25713 17.4146 4.73403 17.4146 5.32061V7.23489ZM12.0972 9.99994C12.0972 10.4698 12.4781 10.8507 12.9479 10.8507C13.4178 10.8507 13.7987 10.4698 13.7987 9.99994C13.7987 9.53006 13.4178 9.14916 12.9479 9.14916C12.4781 9.14916 12.0972 9.53006 12.0972 9.99994Z" fill="white"/>
</svg>
