<svg width="162" height="15" viewBox="0 0 162 15" fill="none" xmlns="http://www.w3.org/2000/svg">
<path fill-rule="evenodd" clip-rule="evenodd" d="M81 4.5C79.6713 4.5 78.355 4.50804 77.0515 4.52367C75.947 4.53691 75.0409 3.65227 75.0277 2.54778C75.0144 1.44329 75.8991 0.537194 77.0036 0.523954C78.3229 0.508139 79.6551 0.5 81 0.5C82.3449 0.5 83.6772 0.508139 84.9965 0.523954C86.101 0.537194 86.9856 1.44329 86.9724 2.54778C86.9592 3.65227 86.0531 4.53691 84.9486 4.52367C83.6451 4.50804 82.3288 4.5 81 4.5ZM90.9134 2.64226C90.9531 1.5384 91.8802 0.675749 92.984 0.715465C95.7083 0.813484 98.3689 0.94272 100.962 1.09854C102.064 1.1648 102.905 2.11233 102.838 3.21491C102.772 4.31749 101.825 5.1576 100.722 5.09134C98.1602 4.9374 95.5318 4.80972 92.8402 4.71288C91.7363 4.67316 90.8737 3.74611 90.9134 2.64226ZM71.0867 2.64226C71.1264 3.74612 70.2637 4.67316 69.1599 4.71288C66.4683 4.80972 63.8398 4.9374 61.2782 5.09134C60.1756 5.1576 59.2281 4.31749 59.1618 3.21491C59.0955 2.11233 59.9356 1.1648 61.0382 1.09854C63.6312 0.94272 66.2917 0.813484 69.0161 0.715465C70.1199 0.675749 71.047 1.5384 71.0867 2.64226ZM106.764 3.49848C106.857 2.39783 107.825 1.58095 108.926 1.67392C111.664 1.90525 114.313 2.16377 116.867 2.443C117.965 2.56303 118.758 3.55046 118.638 4.64849C118.518 5.74652 117.531 6.53934 116.433 6.41931C113.91 6.14356 111.294 5.88822 108.589 5.65973C107.488 5.56675 106.671 4.59912 106.764 3.49848ZM55.2357 3.49848C55.3287 4.59913 54.5118 5.56675 53.4112 5.65973C50.7063 5.88822 48.0899 6.14356 45.5673 6.41932C44.4693 6.53934 43.4819 5.74652 43.3618 4.64849C43.2418 3.55046 44.0346 2.56303 45.1327 2.443C47.6871 2.16377 50.3361 1.90525 53.0745 1.67392C54.1751 1.58095 55.1428 2.39783 55.2357 3.49848ZM122.561 5.12701C122.708 4.03237 123.716 3.26478 124.81 3.41254C127.583 3.78689 130.217 4.18043 132.701 4.58243C133.791 4.75886 134.532 5.78582 134.356 6.87621C134.18 7.96659 133.153 8.7075 132.062 8.53107C129.611 8.1345 127.013 7.74612 124.275 7.37659C123.181 7.22882 122.413 6.22165 122.561 5.12701ZM39.4394 5.12701C39.5871 6.22166 38.8195 7.22882 37.7249 7.37659C34.9873 7.74612 32.3888 8.1345 29.9379 8.53107C28.8475 8.7075 27.8205 7.9666 27.6441 6.87621C27.4677 5.78582 28.2086 4.75886 29.299 4.58243C31.7835 4.18043 34.4166 3.78689 37.1898 3.41254C38.2844 3.26478 39.2916 4.03237 39.4394 5.12701ZM138.237 7.5587C138.444 6.47369 139.492 5.76188 140.577 5.96882C143.496 6.52557 146.119 7.07541 148.425 7.59096C149.503 7.83196 150.182 8.90119 149.941 9.97915C149.7 11.0571 148.63 11.7356 147.553 11.4946C145.286 10.9878 142.704 10.4466 139.827 9.89799C138.742 9.69105 138.031 8.64371 138.237 7.5587ZM23.7626 7.5587C23.9695 8.64371 23.2577 9.69105 22.1727 9.89799C19.2965 10.4466 16.7142 10.9878 14.4476 11.4946C13.3696 11.7356 12.3004 11.0571 12.0594 9.97915C11.8184 8.90119 12.4969 7.83197 13.5748 7.59097C15.8809 7.07541 18.5043 6.52557 21.4233 5.96882C22.5083 5.76188 23.5557 6.47369 23.7626 7.5587ZM5.78227 9.48866C6.84959 9.20422 7.94541 9.83887 8.22985 10.9062C8.51429 11.9735 7.87965 13.0693 6.81233 13.3538C5.58537 13.6807 4.65164 13.9461 4.0281 14.1286C3.71633 14.2198 3.48213 14.2903 3.3276 14.3375C3.25034 14.3611 3.193 14.3788 3.15584 14.3904L3.11528 14.4031L3.10521 14.4062L5.78227 9.48866L1.89489 10.5938C0.842098 10.928 0.25958 12.0524 0.5938 13.1052C0.928004 14.1579 2.05246 14.7404 3.10521 14.4062M5.78227 9.48866L1.89489 10.5938L1.91547 10.5873L1.96663 10.5713C2.01089 10.5575 2.0754 10.5375 2.15989 10.5117C2.32888 10.4602 2.57782 10.3852 2.90459 10.2896C3.55812 10.0983 4.52301 9.82426 5.78227 9.48866ZM153.77 10.9062C154.055 9.83887 155.151 9.20422 156.218 9.48866C157.477 9.82426 158.442 10.0983 159.096 10.2896C159.422 10.3852 159.671 10.4602 159.84 10.5117C159.925 10.5375 159.989 10.5575 160.033 10.5713L160.085 10.5873L160.103 10.593L160.104 10.5935C160.104 10.5935 160.105 10.5938 159.5 12.5C158.895 14.4062 158.895 14.4063 158.895 14.4063L158.894 14.4059L158.885 14.4031L158.844 14.3904C158.807 14.3788 158.75 14.3611 158.673 14.3375C158.518 14.2903 158.284 14.2198 157.972 14.1286C157.348 13.9461 156.415 13.6807 155.188 13.3538C154.12 13.0693 153.486 11.9735 153.77 10.9062ZM158.895 14.4063C159.948 14.7402 161.072 14.1578 161.406 13.1052C161.741 12.0524 161.157 10.9277 160.104 10.5935L159.5 12.5L158.895 14.4063Z" fill="white" fill-opacity="0.2"/>
</svg>
