<svg width="20" height="20" viewBox="0 0 20 20" fill="none" xmlns="http://www.w3.org/2000/svg">
<path d="M13 9H11V5C11 4.73479 10.8946 4.48043 10.7071 4.2929C10.5196 4.10536 10.2652 4 10 4C9.73479 4 9.48043 4.10536 9.2929 4.2929C9.10536 4.48043 9 4.73479 9 5V10C9 10.2652 9.10536 10.5196 9.2929 10.7071C9.48043 10.8946 9.73479 11 10 11H13C13.2652 11 13.5196 10.8946 13.7071 10.7071C13.8946 10.5196 14 10.2652 14 10C14 9.73479 13.8946 9.48043 13.7071 9.2929C13.5196 9.10536 13.2652 9 13 9ZM10 18C8.41775 18 6.87103 17.5308 5.55544 16.6518C4.23985 15.7727 3.21447 14.5233 2.60897 13.0615C2.00347 11.5997 1.84504 9.99113 2.15372 8.43928C2.4624 6.88743 3.22433 5.46197 4.34315 4.34315C5.46197 3.22433 6.88743 2.4624 8.43928 2.15372C9.99113 1.84504 11.5997 2.00347 13.0615 2.60897C14.5233 3.21447 15.7727 4.23985 16.6518 5.55544C17.5308 6.87103 18 8.41775 18 10C18 12.1217 17.1571 14.1566 15.6569 15.6569C14.1566 17.1571 12.1217 18 10 18Z" fill="white" fill-opacity="0.6"/>
</svg>
