<svg width="20" height="20" viewBox="0 0 20 20" fill="none" xmlns="http://www.w3.org/2000/svg">
<path d="M18.2948 1.8533L14.1667 17.6314L10.9076 15.1074C10.5162 14.8042 10.0228 14.6639 9.53047 14.7158C9.03814 14.7676 8.58484 15.0076 8.26517 15.3856L7.97727 15.7262V14.0286L10.6167 11.0936L15.4046 5.76893L9.01168 8.99518L5.37879 10.827L2.10975 8.29526L18.2948 1.85263V1.8533ZM19.4237 0C19.35 0.000233649 19.277 0.0144507 19.2086 0.0418965L0.36332 7.54427C0.268867 7.58185 0.186033 7.64375 0.123219 7.72368C0.060404 7.80361 0.0198428 7.89872 0.00564786 7.99939C-0.00854709 8.10005 0.00412921 8.20267 0.0423912 8.29685C0.0806533 8.39103 0.14314 8.47342 0.223516 8.53566L4.95087 12.1957C5.05381 12.2753 5.18069 12.3178 5.31086 12.3163C5.44103 12.3147 5.56684 12.2691 5.66781 12.1869L9.6175 10.194L6.68856 13.4512C6.68442 13.4558 6.67992 13.4601 6.67512 13.464C6.66191 13.4745 6.65126 13.4879 6.64396 13.5032C6.63667 13.5184 6.63292 13.5351 6.633 13.552V17.6102C6.633 18.0051 6.95607 18.2671 7.29326 18.2671C7.45378 18.2671 7.60845 18.2068 7.72656 18.0981C7.74295 18.0829 7.7583 18.0666 7.77249 18.0493L9.29152 16.2538C9.38759 16.1404 9.52373 16.0686 9.67151 16.0532C9.8193 16.0379 9.9673 16.0802 10.0846 16.1713L14.2635 19.4057C14.3388 19.4643 14.4276 19.5034 14.5217 19.5193C14.6159 19.5351 14.7125 19.5274 14.8029 19.4966C14.8933 19.4658 14.9746 19.4131 15.0396 19.3431C15.1045 19.2731 15.151 19.188 15.1749 19.0956L19.9805 0.723889C20.0804 0.343013 19.7818 0.000448186 19.4246 0.000448186L19.4237 0Z" fill="white"/>
</svg>
