<?xml version="1.0" encoding="UTF-8"?>
<svg width="207px" height="40px" viewBox="0 0 207 40" version="1.1" xmlns="http://www.w3.org/2000/svg" xmlns:xlink="http://www.w3.org/1999/xlink">
    <title>logo备份 2</title>
    <defs>
        <linearGradient x1="10.3203106%" y1="21.3007926%" x2="89.2694054%" y2="105.283436%" id="linearGradient-1">
            <stop stop-color="#EF2F2D" offset="0%"></stop>
            <stop stop-color="#89272D" offset="100%"></stop>
        </linearGradient>
    </defs>
    <g id="页面-1" stroke="none" stroke-width="1" fill="none" fill-rule="evenodd">
        <g id="orbiter_黑夜" transform="translate(-20.000000, -16.000000)" fill-rule="nonzero">
            <g id="logo备份-2" transform="translate(20.000000, 16.000000)">
                <path d="M73.7212507,17.8449487 C73.7259848,17.9349585 73.7512337,17.9420645 73.7969973,17.8662668 C74.462936,16.7782535 75.3221863,16.1134442 76.3747482,15.8718389 C77.2347876,15.674449 78.0893038,15.7541945 78.9382967,16.1110755 C79.7920239,16.4711147 80.4611187,17.0869713 80.9455813,17.9586453 C81.3732339,18.7260973 81.6533384,19.5464499 81.7858949,20.4197029 C81.9137173,21.2550571 81.9586918,22.1117294 81.9208186,22.9897199 C81.8718989,24.0745749 81.6044188,25.0891592 81.1183782,26.0334726 C80.5139835,27.2099166 79.6933955,28.0002659 78.6566141,28.4045205 C77.4730737,28.8672025 76.2240441,28.7606119 74.9095252,28.0847488 C74.4771385,27.862093 74.1520594,27.5083702 73.9342879,27.0235805 C73.8951222,26.9350816 73.8368709,26.8740586 73.7827948,26.864879 C73.6912676,26.8475087 73.6549724,26.943835 73.673909,27.1538579 C73.7386093,27.8628825 73.4419351,28.3066151 72.7838867,28.4850556 C72.00275,28.6966576 71.4322835,28.563222 71.0724873,28.0847488 C70.85945,27.8005073 70.7529313,27.3109803 70.7529313,26.6161677 C70.7529313,22.0872531 70.7529313,17.5583385 70.7529313,13.0294239 C70.7529313,12.4562035 70.8555048,12.026683 71.0606518,11.7408624 C71.4078237,11.2608101 71.8946533,11.0878965 72.5211407,11.2221216 C72.9424811,11.3121315 73.2509906,11.5095214 73.4466693,11.8142914 C73.6297235,12.0937956 73.7070482,12.4198838 73.6786432,12.792556 C73.6581285,13.0499524 73.6478712,13.1881254 73.6478712,13.2070748 C73.6178881,14.7893525 73.642348,16.3353105 73.7212507,17.8449487 Z M74.052642,20.057295 C73.5886941,21.28585 73.4884877,22.5475664 73.7520227,23.8424444 C73.906672,24.5972635 74.141013,25.1617987 74.4550457,25.53605 C74.903213,26.0697924 75.5233882,26.3121872 76.3155712,26.2632345 C77.6395584,26.1811203 78.4609355,25.4649896 78.7797023,24.1148425 C79.0842667,22.8325975 79.0724313,21.5550898 78.7441961,20.2823195 C78.4790831,19.2590501 77.8518067,18.622665 76.8623669,18.3731641 C76.1475085,18.1915654 75.5328565,18.2815752 75.0184109,18.6431935 C74.6270536,18.9179603 74.3051306,19.3893275 74.052642,20.057295 Z" id="形状" fill="#FFFFFF"></path>
                <ellipse id="椭圆形" fill="#FFFFFF" cx="85.8099323" cy="13.2402363" rx="1.54807084" ry="1.54911619"></ellipse>
                <ellipse id="椭圆形" fill="#FFFFFF" cx="141.732216" cy="13.2449737" rx="1.54807084" ry="1.54911619"></ellipse>
                <path d="M57.6014304,14.8627816 C58.2484325,15.8323609 58.6674058,16.9677478 58.8583503,18.2689422 C59.1439781,20.2096801 59.0666534,21.9861894 58.6263764,23.5984704 C58.0377623,25.7555476 56.857378,27.2517633 55.0852235,28.0871175 C53.7044264,28.7377147 52.1626678,28.9256299 50.4599477,28.6508631 C47.4411306,28.1644943 45.5703478,26.2190192 44.8475991,22.8144376 C44.5146297,21.2416346 44.5027943,19.666463 44.8120929,18.0889226 C45.1529525,16.3455747 45.7668155,14.987532 46.6536817,14.0147944 C47.7141339,12.8509834 49.1588422,12.1766994 50.9878067,11.9919424 C52.4411943,11.8450843 53.7588693,12.0416846 54.9408316,12.5817435 C56.037579,13.0839035 56.9244453,13.8442495 57.6014304,14.8627816 Z M54.4958204,15.5283804 C53.9340332,14.9977963 53.3170142,14.6874993 52.6447632,14.5974895 C50.9594017,14.3716754 49.6859122,14.802775 48.8242948,15.8907883 C48.213588,16.6598195 47.8301209,17.7407268 47.6738936,19.1335101 C47.5460712,20.268897 47.6052482,21.4413932 47.8514246,22.6509987 C48.1149596,23.9490349 48.7154091,24.9067709 49.6527731,25.5242066 C50.5554199,26.1179555 51.5685305,26.3169246 52.6921048,26.1211138 C53.6752324,25.9489897 54.4587362,25.4578836 55.0426161,24.6477953 C55.479737,24.0382552 55.7835124,23.2179026 55.9539422,22.1867376 C56.2016966,20.6865741 56.1330513,19.1808837 55.7480062,17.6696664 C55.5349689,16.831154 55.1175736,16.117392 54.4958204,15.5283804 Z" id="形状" fill="#FFFFFF"></path>
                <g id="logo_black-(3)">
                    <path d="M27.0325208,14.8771501 C27.113344,16.8647094 27.3943904,20.2291098 27.5295585,21.8809591 C27.5393763,22.0012627 27.5237075,22.1222663 27.483643,22.2360697 C27.4435785,22.3498731 27.3799117,22.4536762 27.2970059,22.5407788 C27.2141002,22.6278814 27.1137407,22.6961835 27.0026708,22.7411848 C26.8915018,22.7860862 26.7722008,22.8067868 26.6526024,22.8016866 C25.4403542,22.7445849 23.1847434,22.6581823 20.4863407,22.645982 C17.8555716,22.6338816 15.679594,22.7068838 14.4998733,22.7578853 C14.3806716,22.7625855 14.2618665,22.7417848 14.1511933,22.6967835 C14.0406193,22.6517822 13.9406564,22.5835801 13.8580482,22.4968775 C13.77544,22.4100749 13.7119715,22.3066719 13.671907,22.1933685 C13.6317433,22.0800651 13.6159754,21.9594615 13.6253965,21.8395579 C13.7592753,20.202309 14.0222729,16.8634094 14.1078562,14.8771501 C14.1655729,13.1908997 14.8722549,11.5936521 16.0780571,10.4240172 C17.2839585,9.25438224 18.8940748,8.60434284 20.5671638,8.61158852 L20.5671638,8.61158852 C22.2412445,8.6030628 23.8528484,9.25248219 25.0598407,10.4223171 C26.2669321,11.592052 26.9745067,13.1899997 27.0325208,14.8771501 L27.0325208,14.8771501 Z M20.5587344,11.7145555 C19.8072278,11.7143557 19.0724808,11.9388624 18.4475145,12.3597749 C17.822449,12.7805875 17.3353283,13.3789054 17.0475383,14.0790263 C16.7597484,14.7791472 16.6843795,15.5495702 16.8308529,16.2928923 C16.9773263,17.0362145 17.3390967,17.7190349 17.870447,18.2550509 C18.4016982,18.7909669 19.0787285,19.1559778 19.8158555,19.3039822 C20.5528834,19.4518866 21.3169846,19.3760844 22.0113696,19.0860757 C22.7056554,18.7961671 23.299185,18.3050524 23.7166887,17.6749336 C24.1342915,17.0448148 24.3571255,16.3039927 24.3571255,15.5461701 C24.3571255,14.5305397 23.9573731,13.5566107 23.2455343,12.8380892 C22.5337946,12.1196678 21.5682802,11.7155557 20.5612137,11.7145555 L20.5587344,11.7145555 Z" id="形状" fill="url(#linearGradient-1)"></path>
                    <path d="M20.6265664,13.3490045 C20.8471194,13.6042121 20.9688004,13.9313218 20.9690979,14.269832 C20.9652303,14.4635377 20.9234799,14.6545434 20.846326,14.8319487 C20.769073,15.009454 20.6580031,15.1697588 20.519265,15.3038628 C20.380626,15.4379668 20.2170954,15.54317 20.0379953,15.6134721 C19.8589943,15.6837742 19.6678946,15.7178752 19.4758033,15.7136751 C19.2540602,15.7150751 19.0347964,15.6670737 18.8334823,15.5730709 C18.6322673,15.4790681 18.4541588,15.3413639 18.3118506,15.1699588 C18.2852731,15.3053629 18.2715877,15.442967 18.2707944,15.5810711 C18.2707944,16.8144079 19.3033475,17.8142378 20.5770808,17.8142378 C21.8509133,17.8142378 22.8821772,16.8144079 22.8821772,15.5810711 C22.8821772,14.3476343 21.8773916,13.368505 20.6265664,13.3490045 Z" id="路径" fill="#FFFFFF"></path>
                    <path d="M24.0326428,11.0325353 C24.0032886,11.0343354 23.9739344,11.0302353 23.946167,11.020435 C23.9183995,11.0107347 23.8928138,10.9954342 23.8708973,10.9756336 C23.8489808,10.955833 23.8312295,10.9318323 23.818635,10.9051315 C23.8060404,10.8783307 23.7988011,10.8492298 23.7974127,10.819629 C23.7781738,10.3209141 23.8674264,9.29918358 25.1483991,8.18379029 C26.0314045,7.41626738 27.2605116,7.1389391 28.8068619,7.35788563 C28.8364144,7.36199576 28.8647769,7.37207606 28.8902635,7.38753652 C28.9158492,7.40298698 28.937964,7.42348759 28.9554179,7.44780832 C28.9728717,7.47212904 28.9853671,7.49975987 28.9919122,7.52904074 C28.9985566,7.55832162 28.9991516,7.58864252 28.9938956,7.6181834 L28.9938956,7.6181834 C28.983582,7.67333505 28.9529386,7.72251652 28.9082132,7.75589751 C28.8634877,7.78927851 28.8079528,7.80438896 28.7526162,7.79820878 C27.3449048,7.59750279 26.2400572,7.83834997 25.4632623,8.51221009 C24.3486961,9.48528914 24.249824,10.3574152 24.2570634,10.8050285 C24.2583526,10.8625302 24.2374279,10.9183319 24.1987517,10.9605332 C24.1599765,11.0027344 24.1065241,11.0281352 24.0495016,11.0312353 L24.0326428,11.0325353 Z" id="路径" fill="#FFFFFF"></path>
                    <path d="M28.4936846,8.02945568 C28.8474222,8.02945568 29.1342205,7.75117737 29.1342205,7.40789713 C29.1342205,7.06461688 28.8474222,6.78633857 28.4936846,6.78633857 C28.1399469,6.78633857 27.8531486,7.06461688 27.8531486,7.40789713 C27.8531486,7.75117737 28.1399469,8.02945568 28.4936846,8.02945568 Z" id="路径" fill="#FFFFFF"></path>
                    <path d="M17.3370142,11.0739366 C17.3662692,11.0759366 17.3957225,11.0719365 17.42349,11.0623362 C17.4511583,11.0527359 17.476744,11.0376355 17.4986605,11.0179349 C17.520577,10.9982343 17.5383283,10.9743336 17.551022,10.9475328 C17.5636165,10.920832 17.5708559,10.8918311 17.5722443,10.8622302 C17.5927724,10.351415 17.5082799,9.18738024 16.2212579,8.06464673 C15.3395417,7.29712382 14.1091454,7.01979554 12.562795,7.23874208 C12.5333417,7.2430122 12.5050784,7.25320251 12.4795918,7.26870297 C12.4542044,7.28420343 12.4320896,7.30470405 12.4146358,7.32898477 C12.3971819,7.35325549 12.3847858,7.38082632 12.3781414,7.41003719 C12.371497,7.43924806 12.3707037,7.46951897 12.3758605,7.49903985 C12.386075,7.55418149 12.4167183,7.60337296 12.4614438,7.63675396 C12.5061692,7.67013495 12.5617042,7.6852454 12.6170408,7.67906522 C14.0247521,7.47835923 15.1307898,7.71919642 15.9063946,8.39306653 C17.0246302,9.36618558 17.1211221,10.3806159 17.1066434,10.8404296 C17.1049575,10.8982313 17.1256839,10.954433 17.16436,10.9971343 C17.2031353,11.0398355 17.256786,11.0656363 17.314106,11.0690364 L17.3370142,11.0739366 Z" id="路径" fill="#FFFFFF"></path>
                    <path d="M12.9693901,8.02945568 C13.3231278,8.02945568 13.609926,7.75117737 13.609926,7.40789713 C13.609926,7.06461688 13.3231278,6.78633857 12.9693901,6.78633857 C12.6156524,6.78633857 12.3288541,7.06461688 12.3288541,7.40789713 C12.3288541,7.75117737 12.6156524,8.02945568 12.9693901,8.02945568 Z" id="路径" fill="#FFFFFF"></path>
                    <path d="M41.1647727,30.686322 C41.1647727,28.6707618 36.1588936,25.4693663 36.1588936,25.4693663 L36.1009786,25.4523658 C36.926069,22.0854653 37.3506137,20.5869205 37.4049586,18.3974552 C37.5255488,13.3970059 36.2747236,9.16407955 33.1312481,5.45293877 C30.2086231,2.00212576 25.5561842,0 20.5866011,0 C15.3045348,0 11.2335268,2.0301066 8.21196036,5.39333699 C5.19037411,8.75656738 3.67415145,12.4044763 3.76100412,18.3414535 C3.78633202,20.0030031 4.16026062,22.7921863 4.96722285,25.292961 L4.91052764,25.3099615 C4.91052764,25.3099615 0,28.4506553 0,30.6267202 C0,31.2701394 2.65368716,32.0863638 8.12751751,32.3454715 L5.07457386,36.9579092 C4.95395397,37.3507209 5.02873771,37.890837 5.35562028,38.1219439 C5.67788156,38.3358503 6.04656409,38.4680543 6.43036998,38.5075555 C7.01056127,38.524556 7.19149606,38.3554509 7.40499812,37.9674393 L10.4700206,32.5862787 C13.7268469,32.7163826 15.7990932,32.7857847 19.5250905,32.7930849 L19.5250905,38.9514687 C19.5468086,39.3224798 19.7024056,40 20.6903324,40 C21.5877174,40 21.7421243,39.365081 21.7421243,38.9514687 L21.7421243,32.796685 C25.4633615,32.7893848 27.4874114,32.8392863 30.7381884,32.7103824 L33.9502892,37.9078375 C34.0087992,38.0756426 34.1201666,38.2194469 34.2674333,38.3171498 C34.4147992,38.4149527 34.5898334,38.4613541 34.7657602,38.4491537 C35.079235,38.4537538 35.3876522,38.3694513 35.6559058,38.2058464 C36.0177754,38.0428416 36.0177754,37.4432237 35.8717978,36.8995075 L32.8466316,32.4646751 C38.1298878,32.0218619 41.1647727,31.2032374 41.1647727,30.686322 Z M9.46401524,30.0952043 C8.97251126,30.0875041 8.50414352,29.883298 8.1619095,29.5274874 C7.81967548,29.1715768 7.63159056,28.6932625 7.63899853,28.1976477 C7.63899853,27.1491164 8.45560996,26.4180946 9.46401524,26.4180946 C10.4724007,26.4180946 11.2890617,27.1479164 11.2890617,28.1976477 C11.2961027,28.6931625 11.1079782,29.1713768 10.7657441,29.5270874 C10.4236093,29.882898 9.95542997,30.0872041 9.46401524,30.0952043 L9.46401524,30.0952043 Z M20.5829318,30.1998075 C20.2082693,30.2114078 19.8386645,30.1100048 19.5214212,29.9084988 C19.2042771,29.7069928 18.9539732,29.414584 18.8025414,29.0687737 C18.6511095,28.7228634 18.6055907,28.3393519 18.6716376,27.9672408 C18.7376845,27.5951297 18.9124212,27.2514195 19.1734354,26.9800114 C19.4344496,26.7086033 19.7698409,26.5219977 20.1366689,26.4439954 C20.503497,26.366093 20.8850022,26.400294 21.2324922,26.5422983 C21.579883,26.6843025 21.8773916,26.9277098 22.0867384,27.2412192 C22.2961845,27.5547285 22.4080477,27.9242395 22.4079485,28.3022508 C22.4153862,28.7978656 22.2272616,29.2761799 21.8850276,29.6320905 C21.5427936,29.9879011 21.0745151,30.1921072 20.5829318,30.1998075 L20.5829318,30.1998075 Z M31.7007277,30.3056106 C31.3259661,30.317211 30.9563613,30.2158079 30.6392172,30.0143019 C30.3219739,29.8127959 30.07167,29.5203872 29.9202381,29.1745769 C29.7689054,28.8287665 29.7232875,28.4451551 29.7894335,28.073044 C29.8554804,27.7009329 30.0302171,27.3572226 30.2912313,27.0858145 C30.5521463,26.8145064 30.8875377,26.6278008 31.2543657,26.5498985 C31.6211938,26.4718962 32.0027981,26.5060972 32.3501889,26.6481014 C32.6975798,26.7901057 32.9950883,27.033513 33.2045344,27.3470223 C33.4139804,27.6606317 33.5257444,28.0300427 33.5257444,28.408054 C33.5327855,28.9036688 33.3446609,29.381783 33.0024269,29.7374937 C32.660292,30.0933043 32.1921127,30.2976104 31.7007277,30.3056106 Z M34.5003825,24.7590451 C30.9721293,23.852818 25.747978,23.8978193 20.5817418,23.8978193 C15.4155055,23.8978193 10.5700827,23.7385146 6.64387204,24.7590451 C6.05644138,22.378574 5.59566011,20.0030031 5.53655508,18.1626482 C5.26153816,9.60919283 10.9910573,1.49855073 20.5817418,1.49855073 C30.1724262,1.49855073 36.0937392,9.61529302 35.7271095,18.1626482 C35.6124695,20.8532285 34.8682023,23.316402 34.5003825,24.7590451 Z" id="形状" fill="#FFFFFF"></path>
                </g>
                <path d="M131.00934,21.5400882 L130.995138,27.5494273 C130.995138,27.9094665 130.835754,28.1700212 130.516987,28.3310914 C129.948888,28.6184912 129.364219,28.649284 128.76298,28.4234699 C128.475775,28.3160898 128.283252,28.1558092 128.185413,27.942628 C128.085995,27.731026 128.036287,27.4673131 128.036287,27.1514892 C128.036287,22.6715273 128.033131,18.1907758 128.026809,13.7092348 C128.02524,13.1265397 128.232754,12.7380763 128.649361,12.5438446 C128.846617,12.4522557 129.232451,12.4064612 129.806863,12.4064612 C132.136071,12.4064612 134.465278,12.4064612 136.794486,12.4064612 C137.381522,12.4064612 137.741318,12.7017566 137.873874,13.2923473 C138.033258,13.9950554 137.881765,14.4798451 137.419395,14.7467163 C137.182687,14.8840997 136.755034,14.9527914 136.136437,14.9527914 C134.509464,14.9527914 132.839883,14.9527914 131.127694,14.9527914 C131.054485,14.9527914 130.995138,15.012179 130.995138,15.0854374 L130.995138,18.6005573 C130.995138,18.6539554 131.016336,18.7051664 131.054068,18.7429246 C131.091801,18.7806827 131.142977,18.8018951 131.19634,18.8018951 C132.817001,18.8018951 134.387164,18.8161071 135.90683,18.8445313 C136.875755,18.8619016 137.30972,19.3806423 137.208725,20.4007535 C137.177164,20.7260521 137.054075,20.9676574 136.83946,21.1255693 C136.699013,21.2297912 136.45836,21.292956 136.117501,21.3150637 C134.457388,21.4208647 132.794908,21.4571844 131.130061,21.4240229 C131.098255,21.4233857 131.067532,21.4353321 131.04482,21.457168 C131.022108,21.4790039 131.00932,21.5088906 131.00934,21.5400882 L131.00934,21.5400882 Z" id="路径" fill="#FFFFFF"></path>
                <path d="M94.5042201,18.7592588 C94.4680826,18.7566218 94.4324817,18.7691741 94.4059782,18.7938975 C94.3794746,18.8186209 94.3644663,18.8532784 94.3645623,18.8895362 C94.3645623,20.5286622 94.3503598,22.1377849 94.3219549,23.7169044 C94.3109085,24.3122324 94.3692965,24.8980857 94.4971188,25.4744643 C94.5586629,25.7539685 94.7306708,25.9181969 95.0131424,25.9671496 C95.8226841,26.1061121 96.5588462,25.9331985 97.2216288,25.4484089 C97.549864,25.2083827 97.8433821,25.2439129 98.1021829,25.5549994 C98.3736082,25.8818772 98.4256839,26.3137663 98.2584102,26.8506669 C98.1321659,27.2549215 97.9199177,27.585747 97.6216655,27.8431435 C97.3896916,28.0436917 97.049621,28.2079201 96.6014537,28.3358288 C95.5615162,28.6327033 94.5641861,28.6674439 93.6094635,28.4400507 C92.6610532,28.2142366 92.0282536,27.6954959 91.7110647,26.8838284 C91.5579935,26.4969442 91.4783018,25.747652 91.4719896,24.6359519 C91.4609432,22.8420722 91.4585761,20.9905546 91.4648883,19.0813992 C91.4657375,18.9880272 91.4248382,18.8991621 91.353379,18.8391142 C91.2819198,18.7790663 91.1873806,18.7541209 91.0956237,18.7711022 C90.7074225,18.8437417 90.3744531,18.8200549 90.0967156,18.7000418 C89.8205562,18.5816079 89.6406581,18.3415817 89.5570212,17.9799634 C89.4796966,17.6467692 89.4694392,17.3104167 89.5262492,16.970906 C89.5862152,16.6077086 89.755856,16.362945 90.0351715,16.2366155 C90.3192212,16.1102859 90.6521906,16.0834409 91.0340796,16.1560804 C91.1398095,16.1771017 91.2496006,16.1454498 91.3346778,16.0694205 C91.4197549,15.9933912 91.4716361,15.8805645 91.4767237,15.760511 L91.5335337,14.3298287 C91.5493142,13.9129412 91.8207395,13.6508074 92.3478095,13.5434273 C93.9195511,13.2244451 94.5918021,13.8521451 94.3645623,15.4265272 C94.2872377,15.9602696 94.4600346,16.2081913 94.882953,16.1702925 C95.1259733,16.1481848 95.2553737,16.137131 95.2711543,16.137131 C95.7934901,16.137131 96.375792,16.137131 97.0180599,16.137131 C97.4251978,16.137131 97.7187158,16.3203088 97.8986139,16.6866645 C98.0343266,16.9645896 98.0808792,17.2993629 98.0382717,17.6909845 C98.0019765,18.0431282 97.8844115,18.3099993 97.6855767,18.4915981 C97.4551808,18.701621 97.1569286,18.8097907 96.7908201,18.8161071 C96.0159957,18.8287401 95.2537957,18.8097907 94.5042201,18.7592588 Z" id="路径" fill="#FFFFFF"></path>
                <path d="M64.5937871,18.2807856 C65.0451105,17.4154282 65.6037416,16.725353 66.2696803,16.21056 C66.6215863,15.9389515 67.0689646,15.7810395 67.6118151,15.7368242 C68.2351464,15.6862924 68.6154574,15.9531635 68.7527481,16.5374377 C68.8789924,17.0711801 68.8166592,17.5259665 68.5657487,17.901797 C68.4079433,18.1386649 68.1878048,18.2602571 67.9053331,18.2665736 C66.2673132,18.3060515 65.204494,19.0569228 64.7168753,20.5191875 C64.6064115,20.8476443 64.5456565,21.3411191 64.5346101,21.999612 C64.4998929,23.7887543 64.4817453,25.5771071 64.4801672,27.3646703 C64.4801672,27.6804942 64.415467,27.9142039 64.2860666,28.0657994 C64.1235271,28.2584519 63.8970763,28.3926771 63.6067144,28.4684748 C62.7782361,28.6879724 62.1485926,28.4740017 61.7177839,27.8265628 C61.6762214,27.7663658 61.6539107,27.6911198 61.6538728,27.611013 C61.6365142,24.121159 61.63178,20.6320945 61.6396703,17.1438196 C61.6412483,16.685875 61.8345599,16.3676824 62.2196051,16.1892419 C62.773502,15.9318454 63.302939,15.9144751 63.8079163,16.137131 C64.1077465,16.2681979 64.3128935,16.4719043 64.4233573,16.7482502 C64.5369772,17.0340708 64.5559138,17.3435782 64.4801672,17.6767724 C64.4296695,17.8994283 64.4344037,18.0999765 64.4943697,18.278417 C64.5211966,18.3573729 64.5543358,18.3581625 64.5937871,18.2807856 Z" id="路径" fill="#FFFFFF"></path>
                <path d="M101.205426,17.5370204 C102.175929,16.3874214 103.425748,15.7826186 104.954882,15.7226121 C106.452455,15.6641847 107.650987,16.1039695 108.550478,17.0419664 C109.186433,17.7036175 109.634601,18.5776601 109.894979,19.6640943 C110.144312,20.7110505 110.135633,21.7264243 109.868942,22.7102157 C109.733229,23.2092175 109.382901,23.4374002 108.817958,23.394764 C108.492879,23.3710772 108.324027,23.3592338 108.311402,23.3592338 C106.458767,23.3418635 104.606132,23.3560756 102.753497,23.40187 C102.685312,23.4042172 102.630573,23.4569265 102.628041,23.5226727 C102.557029,25.0149406 103.215077,25.9087222 104.602187,26.2040175 C105.798352,26.4582558 106.840656,26.1613813 107.7291,25.3133941 C108.01315,25.0417856 108.269584,24.8925588 108.498402,24.8657138 C109.017581,24.8057072 109.410517,25.0196779 109.677208,25.5076258 C109.920228,25.9529375 109.849216,26.4243047 109.464171,26.9217273 C108.743,27.8597243 107.795379,28.4416298 106.621307,28.6674439 C105.780204,28.8285141 104.951726,28.8403575 104.135872,28.7029741 C103.25374,28.5545368 102.504953,28.2426607 101.889512,27.7673458 C100.956882,27.0456882 100.322505,26.0113649 99.9863792,24.664376 C99.6139585,23.1752664 99.6139585,21.6356249 99.9863792,20.0454516 C100.215197,19.0648184 100.621546,18.2286747 101.205426,17.5370204 Z M103.118027,19.2685249 C102.753497,19.8227958 102.576755,20.4023326 102.587801,21.0071354 C102.590426,21.1291202 102.687539,21.2262995 102.805572,21.2250657 L106.796471,21.2013671 C107.115238,21.199788 107.253317,21.0363491 107.21071,20.7110505 C106.978736,18.9440158 106.128954,18.14735 104.661364,18.3210532 C103.997003,18.39843 103.482558,18.7142539 103.118027,19.2685249 Z" id="形状" fill="#FFFFFF"></path>
                <path d="M115.566505,17.8875849 C115.815838,17.399637 116.288465,16.8603677 116.984386,16.269777 C117.325246,15.9823773 117.752899,15.807095 118.267344,15.7439302 C118.693419,15.6918193 119.025599,15.7897247 119.263885,16.0376464 C119.457986,16.2413529 119.566872,16.527963 119.590542,16.897477 C119.614213,17.254358 119.544779,17.5678132 119.382239,17.8378426 C119.216544,18.1141885 118.972734,18.2563093 118.650811,18.2642049 C117.20847,18.3036829 116.199305,18.9219081 115.623315,20.1188807 C115.318751,20.7552658 115.179093,21.6585222 115.204342,22.8286497 C115.237481,24.2893352 115.25405,25.7500207 115.25405,27.2107062 C115.25405,27.9118352 114.965266,28.3397766 114.387699,28.4945303 C113.682309,28.6824455 113.128412,28.5537473 112.726008,28.1084356 C112.528751,27.888938 112.428545,27.5660081 112.425389,27.1396458 C112.404874,23.8613938 112.404874,20.5831418 112.425389,17.3048898 C112.426967,16.8864232 112.524806,16.5840218 112.718907,16.3976857 C112.961927,16.163976 113.289373,16.0329091 113.701245,16.0044849 C114.884786,15.9223707 115.397653,16.5169092 115.239848,17.7881004 C115.159367,18.4434349 115.268253,18.4765964 115.566505,17.8875849 Z" id="路径" fill="#FFFFFF"></path>
                <path d="M149.112774,17.8710041 C149.177474,17.8378426 149.233495,17.7730987 149.280837,17.6767724 C149.65957,16.9140577 150.211889,16.3763676 150.937793,16.0637019 C151.546922,15.8015681 152.269671,15.721033 153.106039,15.8220966 C154.669891,16.0100118 155.71693,16.7758848 156.247156,18.1197154 C156.49491,18.748205 156.618787,19.8899084 156.618787,21.5448256 C156.618787,23.4997754 156.618787,25.4926242 156.618787,27.5233718 C156.618787,27.8644616 156.473606,28.1242268 156.183244,28.3026673 C155.712984,28.590067 155.184336,28.6524422 154.5973,28.4897929 C154.160179,28.3682007 153.896644,28.1242268 153.806695,27.7578711 C153.787759,27.6836525 153.77829,27.3575643 153.77829,26.7796066 C153.779868,24.9494071 153.785392,23.1192077 153.79486,21.2890082 C153.796438,20.8910701 153.765666,20.4970798 153.702544,20.1070373 C153.626797,19.6317223 153.490296,19.2669457 153.293039,19.0127075 C152.881167,18.4837025 152.249156,18.2507824 151.397007,18.3139471 C149.85367,18.4260646 149.077268,19.2401007 149.0678,20.7560554 C149.052019,23.0268292 149.044129,25.2604936 149.044129,27.4570488 C149.044129,27.9181517 148.827935,28.2300278 148.395549,28.3926771 C147.492902,28.7306087 146.789879,28.5426934 146.28648,27.8289314 C146.241923,27.7673955 146.217894,27.6911146 146.217834,27.611013 L146.203632,17.0159109 C146.203632,16.7269321 146.320408,16.4963806 146.55396,16.3242566 C146.842744,16.1094964 147.182814,15.9950102 147.574172,15.9807981 C147.962373,15.9681652 148.295342,16.0542272 148.57308,16.2389842 C149.054386,16.5579663 149.206668,17.0735488 149.029926,17.7857317 C149.004677,17.8867953 149.032293,17.9152195 149.112774,17.8710041 Z" id="路径" fill="#FFFFFF"></path>
                <path d="M167.048145,17.5938687 C166.934525,16.6637673 167.294322,16.1418683 168.127534,16.0281717 C168.64987,15.9586905 169.081468,16.0526481 169.422327,16.3100445 C169.714267,16.5311213 169.884697,16.8390496 169.933617,17.2338294 C169.933617,17.2369877 169.933617,17.5733401 169.933617,18.2428868 C169.933617,21.2116314 169.933617,24.1811655 169.933617,27.1514892 C169.933617,28.0942235 169.440475,28.5640116 168.454191,28.5608533 C167.456861,28.5576951 166.96293,28.0721158 166.972399,27.1041156 C166.973977,27.0677959 166.981078,27.0220014 166.993702,26.9667322 C167.02842,26.8230324 166.976344,26.8048725 166.837475,26.9122526 C166.802758,26.9406768 166.775931,26.9777861 166.756994,27.0235805 C166.458742,27.7278678 165.994005,28.1802855 165.362784,28.3808337 C163.617456,28.9335255 162.151444,28.735346 160.964748,27.7862952 C160.010025,27.0235805 159.34882,25.8724024 158.981134,24.332761 C158.572418,22.614679 158.66,20.8618564 159.24388,19.0742932 C159.87668,17.1367136 161.212502,16.0518585 163.251348,15.819728 C164.840448,15.6381292 166.035035,16.2531962 166.835108,17.664929 C167.024475,17.9997024 167.095487,17.9760156 167.048145,17.5938687 Z M162.474945,19.2685249 C162.102524,19.7675266 161.872918,20.328114 161.786125,20.9502871 C161.674083,21.7587962 161.666982,22.5617785 161.764821,23.3592338 C161.867394,24.1930089 162.08201,24.8333418 162.408667,25.2802326 C162.869459,25.9103013 163.523562,26.2379686 164.370977,26.2632345 C165.388822,26.2948169 166.104469,25.9284612 166.517919,25.1641674 C166.778298,24.684115 166.952673,23.9814069 167.041044,23.0560429 C167.146774,21.947501 166.986601,20.8744893 166.560527,19.8370079 C166.374316,19.3838006 166.159701,19.0506064 165.916681,18.8374252 C165.607382,18.5626585 165.230227,18.3936927 164.785216,18.3305279 C163.814713,18.1915654 163.044623,18.504231 162.474945,19.2685249 Z" id="形状" fill="#FFFFFF"></path>
                <path d="M175.411042,17.7881004 C175.762948,17.0111736 176.290807,16.4521653 176.994619,16.1110755 C177.586389,15.8220966 178.302036,15.7202434 179.141561,15.8055159 C180.782737,15.9697443 181.871594,16.7466711 182.408133,18.1362962 C182.655887,18.7805769 182.777397,19.9886033 182.772663,21.7603754 C182.767929,23.6553187 182.756883,25.5510516 182.739524,27.4475741 C182.73479,28.0271109 182.468099,28.3729381 181.939451,28.4850556 C181.587545,28.5592742 181.235639,28.5576951 180.883733,28.4803182 C180.238309,28.3397766 179.917175,27.9757896 179.920331,27.3883571 C179.929799,25.6118477 179.952681,23.8353383 179.988976,22.0588289 C180.009491,21.0450342 179.927432,20.2009949 179.7428,19.5267109 C179.577104,18.9266455 179.224409,18.5516046 178.684715,18.4015883 C178.305982,18.2957873 177.836511,18.2555197 177.276301,18.2807856 C176.473072,18.3155263 175.884458,18.6913567 175.510459,19.4082769 C175.264283,19.8804336 175.147507,20.5270831 175.160131,21.3482252 C175.191692,23.3063333 175.201161,25.265231 175.188536,27.2249183 C175.186958,27.630752 175.089119,27.9347324 174.895018,28.1368597 C174.506817,28.5395352 173.972646,28.6500736 173.292504,28.4684748 C172.80173,28.3374079 172.502688,28.0760636 172.395381,27.684442 C172.37171,27.5960113 172.359875,27.2399199 172.359875,26.6161677 C172.359875,23.8432339 172.359875,21.0703002 172.359875,18.2973664 C172.359875,17.4256924 172.363031,16.9740643 172.369343,16.9424819 C172.482963,16.3866318 172.893257,16.0739662 173.600225,16.0044849 C174.809014,15.8828927 175.342396,16.4205829 175.200372,17.6175555 C175.186169,17.7328312 175.203528,17.8125767 175.252447,17.8567921 C175.273861,17.8757086 175.304836,17.8788874 175.336043,17.865371 C175.367249,17.8518546 175.395039,17.823223 175.411042,17.7881004 L175.411042,17.7881004 Z" id="路径" fill="#FFFFFF"></path>
                <path d="M187.845317,16.5161196 C189.013077,15.8134115 190.366258,15.5994408 191.904861,15.8742076 C192.681263,16.0147492 193.390598,16.3124132 194.032866,16.7671996 C194.809269,17.3167332 195.139871,18.014704 195.024673,18.861112 C194.972597,19.2385216 194.716164,19.5346065 194.255372,19.7493667 C193.723568,19.9957094 193.265143,19.8425348 192.880098,19.289843 C192.545551,18.8129489 192.087915,18.5058102 191.507191,18.3684268 C190.984855,18.2452554 190.464098,18.27289 189.944918,18.4513305 C189.163781,18.7182017 188.591737,19.2677353 188.228784,20.0999313 C187.564424,21.6158859 187.546276,23.0734132 188.174341,24.472513 C188.437876,25.0567872 188.851327,25.5139423 189.414692,25.8439783 C189.963855,26.1676978 190.532743,26.2971856 191.121357,26.2324417 C191.812545,26.1566439 192.457969,25.846347 193.057629,25.3015508 C193.456877,24.9383533 193.937394,24.8996648 194.499181,25.1854855 C195.310301,25.5992148 195.475997,26.2071758 194.996268,27.0093684 C194.786387,27.3646703 194.507861,27.6520701 194.160689,27.8715677 C193.002397,28.6058582 191.730486,28.912997 190.344955,28.7929839 C187.364011,28.5340083 185.590278,26.9209378 185.023757,23.9537723 C184.714458,22.3351748 184.842281,20.8413278 185.407224,19.4722313 C185.948496,18.1568248 186.761194,17.1714542 187.845317,16.5161196 Z" id="路径" fill="#FFFFFF"></path>
                <path d="M199.586038,23.4942485 C199.510291,24.504885 199.810122,25.2510189 200.485529,25.7326504 C201.064674,26.1463797 201.766908,26.3240306 202.592231,26.2656032 C203.40335,26.2087549 204.10085,25.8771398 204.68473,25.2707579 C205.074509,24.8665033 205.496639,24.7717562 205.951118,24.9865164 C206.552357,25.272337 206.805634,25.6765916 206.710951,26.1992802 C206.650985,26.5308953 206.440315,26.8806702 206.078941,27.248605 C205.021645,28.3255645 203.640058,28.8308827 201.934182,28.7645597 C199.224664,28.6587587 197.552716,27.2920308 196.918338,24.664376 C196.528559,23.050516 196.534871,21.4950833 196.937275,19.998078 C197.301805,18.6447727 197.913301,17.6104494 198.771762,16.8951083 C199.761202,16.0708079 200.997607,15.6973462 202.480978,15.7747231 C204.401469,15.8757867 205.719144,16.8043089 206.434003,18.5602898 C206.998946,19.9483358 207.140971,21.2921664 206.860077,22.5917818 C206.741723,23.1381571 206.366935,23.4066074 205.735714,23.3971327 C203.728429,23.3671294 201.721934,23.3600234 199.716227,23.3758146 C199.647005,23.3755668 199.589806,23.4276014 199.586038,23.4942485 L199.586038,23.4942485 Z M200.040517,19.2614188 C199.677565,19.7935821 199.507924,20.4047013 199.531595,21.0947765 C199.534141,21.1634918 199.58851,21.2178981 199.654683,21.2179478 L204.033783,21.1895237 C204.100849,21.1895361 204.155581,21.1358199 204.156871,21.068721 C204.163183,20.7734257 204.11742,20.3928579 204.01958,19.9270177 C203.806543,18.9100647 203.201359,18.3597416 202.204029,18.2760483 C201.263509,18.1986714 200.542339,18.5271283 200.040517,19.2614188 Z" id="形状" fill="#FFFFFF"></path>
                <rect id="矩形" fill="#FFFFFF" x="84.3636459" y="15.9784295" width="2.8973069" height="12.5824239" rx="1.3515801"></rect>
                <rect id="矩形" fill="#FFFFFF" x="140.288297" y="15.9807981" width="2.8973069" height="12.5824239" rx="1.35868122"></rect>
            </g>
        </g>
    </g>
</svg>