<svg width="16" height="16" viewBox="0 0 16 16" fill="none" xmlns="http://www.w3.org/2000/svg">
<path d="M8 2.66667C8.17681 2.66667 8.34638 2.59643 8.4714 2.4714C8.59643 2.34638 8.66667 2.17681 8.66667 2V0.666667C8.66667 0.489856 8.59643 0.320286 8.4714 0.195262C8.34638 0.0702381 8.17681 0 8 0C7.82319 0 7.65362 0.0702381 7.5286 0.195262C7.40357 0.320286 7.33333 0.489856 7.33333 0.666667V2C7.33333 2.17681 7.40357 2.34638 7.5286 2.4714C7.65362 2.59643 7.82319 2.66667 8 2.66667ZM12.714 4.22867L13.6567 3.286C13.7781 3.16027 13.8453 2.99186 13.8438 2.81707C13.8423 2.64227 13.7722 2.47506 13.6485 2.35145C13.5249 2.22785 13.3577 2.15774 13.1829 2.15622C13.0081 2.1547 12.8397 2.22189 12.714 2.34333L11.7713 3.286C11.6499 3.41173 11.5827 3.58014 11.5842 3.75493C11.5857 3.92973 11.6558 4.09694 11.7795 4.22055C11.9031 4.34415 12.0703 4.41426 12.2451 4.41578C12.4199 4.4173 12.5883 4.35011 12.714 4.22867ZM4.22867 4.22867C4.35365 4.10365 4.42386 3.93411 4.42386 3.75733C4.42386 3.58056 4.35365 3.41102 4.22867 3.286L3.28667 2.34333C3.22517 2.27966 3.15161 2.22887 3.07027 2.19393C2.98893 2.15899 2.90145 2.1406 2.81293 2.13983C2.72441 2.13906 2.63663 2.15593 2.5547 2.18945C2.47277 2.22297 2.39833 2.27247 2.33574 2.33507C2.27314 2.39767 2.22364 2.4721 2.19012 2.55403C2.1566 2.63596 2.13973 2.72375 2.1405 2.81227C2.14127 2.90079 2.15966 2.98827 2.1946 3.0696C2.22954 3.15094 2.28033 3.2245 2.344 3.286L3.28667 4.22867C3.41168 4.35365 3.58122 4.42386 3.758 4.42386C3.93478 4.42386 4.10431 4.35365 4.22933 4.22867H4.22867ZM8 12C9.06087 12 10.0783 11.5786 10.8284 10.8284C11.5786 10.0783 12 9.06087 12 8C12 6.93913 11.5786 5.92172 10.8284 5.17157C10.0783 4.42143 9.06087 4 8 4C6.93913 4 5.92172 4.42143 5.17157 5.17157C4.42143 5.92172 4 6.93913 4 8C4 9.06087 4.42143 10.0783 5.17157 10.8284C5.92172 11.5786 6.93913 12 8 12ZM8 10.6667C7.64977 10.6671 7.30291 10.5982 6.97936 10.4642C6.65581 10.3301 6.36195 10.1334 6.11467 9.88533C5.86664 9.63805 5.66993 9.34419 5.53585 9.02064C5.40176 8.69709 5.33294 8.35023 5.33333 8C5.33333 7.26333 5.632 6.59667 6.11467 6.11467C6.36195 5.86664 6.65581 5.66993 6.97936 5.53585C7.30291 5.40176 7.64977 5.33293 8 5.33333C8.35023 5.33293 8.69709 5.40176 9.02064 5.53585C9.34419 5.66993 9.63805 5.86664 9.88533 6.11467C10.1334 6.36195 10.3301 6.65581 10.4642 6.97936C10.5982 7.30291 10.6671 7.64977 10.6667 8C10.6671 8.35023 10.5982 8.69709 10.4642 9.02064C10.3301 9.34419 10.1334 9.63805 9.88533 9.88533C9.63805 10.1334 9.34419 10.3301 9.02064 10.4642C8.69709 10.5982 8.35023 10.6671 8 10.6667ZM15.3333 8.66667C15.5101 8.66667 15.6797 8.59643 15.8047 8.4714C15.9298 8.34638 16 8.17681 16 8C16 7.82319 15.9298 7.65362 15.8047 7.5286C15.6797 7.40357 15.5101 7.33333 15.3333 7.33333H14C13.8232 7.33333 13.6536 7.40357 13.5286 7.5286C13.4036 7.65362 13.3333 7.82319 13.3333 8C13.3333 8.17681 13.4036 8.34638 13.5286 8.4714C13.6536 8.59643 13.8232 8.66667 14 8.66667H15.3333ZM2 8.66667C2.17681 8.66667 2.34638 8.59643 2.4714 8.4714C2.59643 8.34638 2.66667 8.17681 2.66667 8C2.66667 7.82319 2.59643 7.65362 2.4714 7.5286C2.34638 7.40357 2.17681 7.33333 2 7.33333H0.666667C0.489856 7.33333 0.320286 7.40357 0.195262 7.5286C0.0702379 7.65362 0 7.82319 0 8C0 8.17681 0.0702379 8.34638 0.195262 8.4714C0.320286 8.59643 0.489856 8.66667 0.666667 8.66667H2ZM13.6567 13.6567C13.7816 13.5316 13.8519 13.3621 13.8519 13.1853C13.8519 13.0086 13.7816 12.839 13.6567 12.714L12.714 11.7713C12.5883 11.6499 12.4199 11.5827 12.2451 11.5842C12.0703 11.5857 11.9031 11.6558 11.7795 11.7795C11.6558 11.9031 11.5857 12.0703 11.5842 12.2451C11.5827 12.4199 11.6499 12.5883 11.7713 12.714L12.714 13.6567C12.839 13.7816 13.0086 13.8519 13.1853 13.8519C13.3621 13.8519 13.5316 13.7816 13.6567 13.6567ZM3.286 13.6567L4.22867 12.714C4.34719 12.5878 4.41196 12.4204 4.40928 12.2473C4.40659 12.0742 4.33665 11.9089 4.21426 11.7864C4.09187 11.6639 3.92664 11.5939 3.75351 11.5911C3.58039 11.5882 3.41297 11.6529 3.28667 11.7713L2.34333 12.7133C2.27966 12.7748 2.22887 12.8484 2.19393 12.9297C2.15899 13.0111 2.1406 13.0985 2.13983 13.1871C2.13906 13.2756 2.15593 13.3634 2.18945 13.4453C2.22297 13.5272 2.27247 13.6017 2.33507 13.6643C2.39767 13.7269 2.4721 13.7764 2.55403 13.8099C2.63596 13.8434 2.72375 13.8603 2.81227 13.8595C2.90079 13.8587 2.98827 13.8403 3.0696 13.8054C3.15094 13.7705 3.2245 13.7197 3.286 13.656V13.6567ZM8 16C8.17681 16 8.34638 15.9298 8.4714 15.8047C8.59643 15.6797 8.66667 15.5101 8.66667 15.3333V14C8.66667 13.8232 8.59643 13.6536 8.4714 13.5286C8.34638 13.4036 8.17681 13.3333 8 13.3333C7.82319 13.3333 7.65362 13.4036 7.5286 13.5286C7.40357 13.6536 7.33333 13.8232 7.33333 14V15.3333C7.33333 15.5101 7.40357 15.6797 7.5286 15.8047C7.65362 15.9298 7.82319 16 8 16V16Z" fill="white" fill-opacity="0.6"/>
</svg>
