<svg width="25" height="24" viewBox="0 0 25 24" fill="none" xmlns="http://www.w3.org/2000/svg">
<path d="M21.2211 7.78304C21.5093 8.19377 21.5741 8.65854 21.4156 9.17736L18.4432 18.97C18.3063 19.4312 18.0307 19.8185 17.6164 20.132C17.202 20.4454 16.7607 20.6021 16.2923 20.6021H6.3159C5.76105 20.6021 5.22602 20.4094 4.71081 20.0239C4.19559 19.6384 3.83711 19.1646 3.63534 18.6025C3.4624 18.1197 3.4552 17.6622 3.61373 17.2298C3.61373 17.201 3.62453 17.1037 3.64615 16.938C3.66777 16.7723 3.68218 16.639 3.68939 16.5381C3.69659 16.4804 3.68578 16.403 3.65696 16.3057C3.62814 16.2084 3.61733 16.1382 3.62453 16.0949C3.63895 16.0157 3.66777 15.94 3.711 15.8679C3.75424 15.7959 3.81369 15.7112 3.88935 15.6139C3.96501 15.5167 4.02446 15.432 4.06769 15.3599C4.23342 15.0861 4.39555 14.7564 4.55408 14.3709C4.71261 13.9854 4.8207 13.6558 4.87834 13.3819C4.89996 13.3099 4.90176 13.2018 4.88375 13.0577C4.86573 12.9136 4.86393 12.8127 4.87834 12.755C4.89996 12.6758 4.96121 12.5749 5.06209 12.4524C5.16297 12.3299 5.22422 12.247 5.24584 12.2038C5.39716 11.9444 5.54848 11.6129 5.6998 11.2094C5.85112 10.8059 5.9412 10.4816 5.97002 10.2366C5.97722 10.1718 5.96822 10.0565 5.943 9.89073C5.91778 9.725 5.91958 9.62412 5.9484 9.58809C5.97722 9.49442 6.05649 9.38453 6.18619 9.25843C6.3159 9.13232 6.39516 9.05126 6.42398 9.01523C6.56089 8.82788 6.71402 8.52344 6.88335 8.1019C7.05269 7.68036 7.15177 7.33268 7.18059 7.05886C7.1878 7.00121 7.17699 6.90934 7.14816 6.78324C7.11934 6.65714 7.11214 6.56166 7.12655 6.49681C7.14096 6.43916 7.17338 6.37431 7.22383 6.30225C7.27427 6.23019 7.33912 6.14733 7.41838 6.05365C7.49765 5.95998 7.55889 5.88431 7.60213 5.82667C7.65978 5.7402 7.71922 5.63031 7.78047 5.497C7.84172 5.3637 7.89576 5.23759 7.9426 5.1187C7.98944 4.9998 8.04709 4.8701 8.11554 4.72959C8.184 4.58907 8.25425 4.47378 8.32631 4.38371C8.39837 4.29364 8.49385 4.20897 8.61274 4.1297C8.73164 4.05044 8.86134 4.00901 9.00185 4.0054C9.14237 4.0018 9.3135 4.02162 9.51526 4.06485L9.50446 4.09728C9.77828 4.03243 9.96202 4 10.0557 4H18.2811C18.8143 4 19.2251 4.20176 19.5133 4.60529C19.8015 5.00881 19.8664 5.47719 19.7078 6.01042L16.7463 15.8031C16.4869 16.6606 16.2293 17.2136 15.9735 17.4622C15.7176 17.7108 15.2547 17.8351 14.5845 17.8351H5.19179C4.99724 17.8351 4.86033 17.8892 4.78106 17.9972C4.7018 18.1125 4.6982 18.2675 4.77025 18.462C4.94319 18.9664 5.46201 19.2186 6.3267 19.2186H16.3031C16.5121 19.2186 16.7138 19.1628 16.9084 19.0511C17.103 18.9394 17.2291 18.7899 17.2867 18.6025L20.5293 7.93436C20.5798 7.77583 20.5978 7.57047 20.5834 7.31827C20.8572 7.42635 21.0697 7.58128 21.2211 7.78304ZM9.72063 7.80466C9.69181 7.89833 9.69901 7.9794 9.74225 8.04785C9.78548 8.11631 9.85754 8.15054 9.95842 8.15054H16.5301C16.6238 8.15054 16.7156 8.11631 16.8057 8.04785C16.8958 7.9794 16.9552 7.89833 16.9841 7.80466L17.211 7.1129C17.2399 7.01923 17.2327 6.93816 17.1894 6.86971C17.1462 6.80125 17.0741 6.76702 16.9733 6.76702H10.4016C10.3079 6.76702 10.216 6.80125 10.126 6.86971C10.0359 6.93816 9.97644 7.01923 9.94761 7.1129L9.72063 7.80466ZM8.82351 10.5717C8.79469 10.6654 8.80189 10.7464 8.84513 10.8149C8.88836 10.8833 8.96042 10.9176 9.0613 10.9176H15.633C15.7267 10.9176 15.8185 10.8833 15.9086 10.8149C15.9987 10.7464 16.0581 10.6654 16.0869 10.5717L16.3139 9.87993C16.3427 9.78625 16.3355 9.70519 16.2923 9.63673C16.2491 9.56828 16.177 9.53405 16.0761 9.53405H9.50446C9.41078 9.53405 9.31891 9.56828 9.22884 9.63673C9.13876 9.70519 9.07932 9.78625 9.05049 9.87993L8.82351 10.5717Z" fill="white" fill-opacity="0.4"/>
</svg>
