<svg width="124" height="40" viewBox="0 0 124 40" fill="none" xmlns="http://www.w3.org/2000/svg">
<path d="M27.2584 14.8772C27.3399 16.8646 27.6233 20.229 27.7596 21.8808C27.7695 22.0011 27.7537 22.1221 27.7133 22.2359C27.6729 22.3497 27.6088 22.4535 27.5251 22.5406C27.4415 22.6277 27.3403 22.696 27.2283 22.741C27.1162 22.7859 26.9959 22.8066 26.8753 22.8015C25.6529 22.7444 23.3784 22.658 20.6575 22.6458C18.0047 22.6337 15.8104 22.7066 14.6208 22.7577C14.5006 22.7624 14.3808 22.7416 14.2693 22.6966C14.1577 22.6516 14.0569 22.5834 13.9736 22.4967C13.8903 22.4099 13.8263 22.3065 13.7859 22.1932C13.7454 22.0799 13.7295 21.9593 13.739 21.8394C13.874 20.2022 14.1392 16.8634 14.2255 14.8772C14.2837 13.191 14.9963 11.5938 16.2122 10.4242C17.4282 9.25462 19.0518 8.60457 20.739 8.6119C22.427 8.60329 24.0521 9.25274 25.2692 10.4225C26.4864 11.5922 27.1999 13.1901 27.2584 14.8772ZM20.7304 11.7147C19.9726 11.7145 19.2317 11.939 18.6015 12.3599C17.9713 12.7807 17.48 13.379 17.1898 14.0791C16.8996 14.7792 16.8236 15.5496 16.9713 16.2929C17.119 17.0362 17.4838 17.719 18.0196 18.2549C18.5554 18.7909 19.238 19.1559 19.9813 19.3039C20.7246 19.4518 21.495 19.376 22.1952 19.086C22.8953 18.7961 23.4938 18.305 23.9148 17.6749C24.3359 17.0448 24.5606 16.304 24.5606 15.5462C24.5606 14.5306 24.1575 13.5566 23.4397 12.8382C22.722 12.1198 21.7484 11.7157 20.7329 11.7147H20.7304Z" fill="url(#paint0_linear_1313_30075)"/>
<path d="M20.7983 13.3481C21.0207 13.6034 21.1434 13.9304 21.1438 14.2689C21.1398 14.4626 21.0977 14.6536 21.0199 14.8311C20.942 15.0085 20.83 15.1688 20.6901 15.3029C20.5503 15.437 20.3854 15.5422 20.2048 15.6125C20.0243 15.6828 19.8317 15.7169 19.638 15.7127C19.4143 15.7141 19.1932 15.6661 18.9903 15.5721C18.7874 15.4781 18.6077 15.3405 18.4642 15.169C18.4374 15.3044 18.4236 15.4421 18.4229 15.5801C18.4229 16.8134 19.464 17.8133 20.7485 17.8133C22.0329 17.8133 23.0729 16.8134 23.0729 15.5801C23.0729 14.3467 22.0597 13.3676 20.7983 13.3481Z" fill="white"/>
<path d="M24.2334 11.0322C24.2038 11.034 24.1742 11.0299 24.1462 11.0201C24.1182 11.0104 24.0924 10.9952 24.0703 10.9753C24.0483 10.9555 24.0303 10.9315 24.0176 10.9048C24.0049 10.878 23.9976 10.8489 23.9962 10.8193C23.9768 10.3206 24.0668 9.29891 25.3585 8.18355C26.2489 7.41605 27.4883 7.13873 29.0476 7.35766C29.0774 7.36177 29.106 7.37186 29.1317 7.38731C29.1575 7.40277 29.1798 7.42327 29.1974 7.44759C29.2151 7.4719 29.2276 7.49953 29.2342 7.52881C29.2409 7.55809 29.2415 7.58842 29.2362 7.61796C29.2258 7.6731 29.1949 7.72229 29.1498 7.75567C29.1047 7.78905 29.0487 7.80416 28.9929 7.79797C27.5735 7.59728 26.4593 7.83811 25.676 8.51195C24.5521 9.48501 24.4524 10.3571 24.4597 10.8047C24.461 10.8622 24.4399 10.918 24.4009 10.9602C24.3618 11.0024 24.3079 11.0278 24.2505 11.031L24.2334 11.0322Z" fill="white"/>
<path d="M28.7318 8.02922C29.0885 8.02922 29.3777 7.75094 29.3777 7.40767C29.3777 7.06441 29.0885 6.78613 28.7318 6.78613C28.3751 6.78613 28.0859 7.06441 28.0859 7.40767C28.0859 7.75094 28.3751 8.02922 28.7318 8.02922Z" fill="white"/>
<path d="M17.4817 11.0736C17.5112 11.0756 17.5409 11.0716 17.5689 11.062C17.5969 11.0524 17.6227 11.0373 17.6447 11.0176C17.6668 10.9979 17.6848 10.974 17.6975 10.9472C17.7102 10.9205 17.7175 10.8915 17.7189 10.862C17.7396 10.3511 17.6544 9.18707 16.3566 8.06441C15.4675 7.29691 14.2268 7.01959 12.6675 7.23852C12.6378 7.2428 12.6093 7.25298 12.5837 7.26848C12.558 7.28399 12.5357 7.30448 12.5181 7.32876C12.5006 7.35304 12.488 7.3806 12.4813 7.40981C12.4746 7.43903 12.4738 7.46929 12.479 7.49882C12.4894 7.55396 12.5202 7.60315 12.5653 7.63653C12.6104 7.6699 12.6665 7.68502 12.7222 7.67883C14.1417 7.47814 15.2571 7.71897 16.0391 8.39281C17.1667 9.36587 17.264 10.3803 17.2494 10.8401C17.2477 10.8979 17.2686 10.9541 17.3077 10.9968C17.3467 11.0395 17.4008 11.0653 17.4586 11.0687L17.4817 11.0736Z" fill="white"/>
<path d="M13.0775 8.02922C13.4342 8.02922 13.7234 7.75094 13.7234 7.40767C13.7234 7.06441 13.4342 6.78613 13.0775 6.78613C12.7208 6.78613 12.4316 7.06441 12.4316 7.40767C12.4316 7.75094 12.7208 8.02922 13.0775 8.02922Z" fill="white"/>
<path d="M41.5095 30.6854C41.5095 28.67 36.4617 25.4686 36.4617 25.4686L36.4033 25.4516C37.2353 22.0848 37.6634 20.5863 37.7182 18.3969C37.8398 13.3966 36.5785 9.16378 33.4087 5.45278C30.4616 2.00207 25.7702 0 20.759 0C15.4327 0 11.3276 2.03004 8.28073 5.39318C5.23384 8.75631 3.70492 12.4041 3.7925 18.3409C3.81804 20.0024 4.1951 22.7915 5.00882 25.2922L4.95165 25.3092C4.95165 25.3092 0 28.4498 0 30.6258C0 31.2692 2.67591 32.0854 8.19558 32.3445L5.11707 36.9568C4.99544 37.3496 5.07085 37.8897 5.40047 38.1208C5.72543 38.3347 6.0972 38.4669 6.48422 38.5064C7.06927 38.5234 7.25172 38.3543 7.46701 37.9663L10.5577 32.5853C13.8418 32.7154 15.9314 32.7848 19.6886 32.7921V38.9503C19.7105 39.3213 19.8674 39.9988 20.8636 39.9988C21.7685 39.9988 21.9242 39.3639 21.9242 38.9503V32.7957C25.6766 32.7884 27.7176 32.8383 30.9956 32.7094L34.2346 37.9067C34.2936 38.0745 34.4059 38.2183 34.5544 38.316C34.703 38.4138 34.8795 38.4602 35.0569 38.448C35.373 38.4526 35.684 38.3683 35.9545 38.2047C36.3194 38.0417 36.3194 37.4421 36.1722 36.8984L33.1217 32.4637C38.4492 32.0209 41.5095 31.2023 41.5095 30.6854ZM9.54327 30.0943C9.04765 30.0866 8.57536 29.8824 8.23026 29.5266C7.88516 29.1707 7.6955 28.6924 7.70297 28.1968C7.70297 27.1483 8.52642 26.4173 9.54327 26.4173C10.5601 26.4173 11.3836 27.1471 11.3836 28.1968C11.3907 28.6923 11.201 29.1705 10.8559 29.5262C10.5109 29.882 10.0388 30.0863 9.54327 30.0943ZM20.7553 30.1989C20.3775 30.2105 20.0048 30.1091 19.6849 29.9076C19.3651 29.7061 19.1127 29.4137 18.96 29.0679C18.8073 28.722 18.7614 28.3385 18.828 27.9664C18.8946 27.5943 19.0708 27.2506 19.334 26.9792C19.5972 26.7078 19.9354 26.5212 20.3053 26.4432C20.6752 26.3653 21.0599 26.3995 21.4103 26.5415C21.7606 26.6835 22.0606 26.9269 22.2717 27.2404C22.4829 27.5539 22.5957 27.9234 22.5956 28.3014C22.6031 28.797 22.4134 29.2753 22.0683 29.6312C21.7232 29.987 21.251 30.1912 20.7553 30.1989ZM31.9662 30.3047C31.5883 30.3163 31.2156 30.2149 30.8958 30.0134C30.5759 29.8119 30.3235 29.5195 30.1708 29.1737C30.0182 28.8279 29.9722 28.4443 30.0389 28.0722C30.1055 27.7001 30.2817 27.3564 30.5449 27.085C30.808 26.8137 31.1462 26.627 31.5161 26.5491C31.886 26.4711 32.2708 26.5053 32.6211 26.6473C32.9714 26.7893 33.2714 27.0327 33.4826 27.3462C33.6938 27.6598 33.8065 28.0292 33.8065 28.4072C33.8136 28.9028 33.6239 29.3809 33.2788 29.7366C32.9338 30.0924 32.4617 30.2967 31.9662 30.3047ZM34.7893 24.7583C31.2315 23.8521 25.9636 23.8971 20.7541 23.8971C15.5446 23.8971 10.6586 23.7378 6.69951 24.7583C6.10716 22.3779 5.64252 20.0024 5.58292 18.1621C5.3056 9.60895 11.0831 1.49851 20.7541 1.49851C30.4251 1.49851 36.396 9.61503 36.0263 18.1621C35.9107 20.8526 35.1603 23.3157 34.7893 24.7583Z" fill="white"/>
<path d="M53.3308 12.5162C54.9906 12.5162 56.4166 12.8592 57.6086 13.5452C58.789 14.2202 59.7334 15.2419 60.3137 16.4717C60.9259 17.7366 61.2316 19.2222 61.2308 20.9283C61.2448 22.0933 61.0753 23.2533 60.7284 24.3656C60.417 25.3545 59.9034 26.2678 59.2202 27.0476C58.5426 27.8094 57.6973 28.4036 56.7511 28.7833C55.778 29.1839 54.6598 29.3842 53.3964 29.3842C52.2443 29.4034 51.0999 29.1933 50.0297 28.7663C49.0804 28.384 48.2318 27.7885 47.5496 27.0257C46.8643 26.2371 46.3521 25.3135 46.0462 24.3145C45.6992 23.2092 45.5276 22.0563 45.5378 20.8979C45.5246 19.7268 45.7038 18.5614 46.0681 17.4484C46.3877 16.461 46.9106 15.5515 47.6031 14.7785C48.2801 14.0401 49.1155 13.4646 50.0467 13.0952C51.0937 12.6917 52.2089 12.4951 53.3308 12.5162ZM57.9418 20.9088C57.9418 19.7144 57.7525 18.6797 57.3738 17.8048C56.9951 16.9298 56.4543 16.2677 55.7512 15.8185C55.0269 15.3639 54.1858 15.1302 53.3308 15.1459C52.7118 15.1396 52.0987 15.2665 51.533 15.5181C50.9829 15.7666 50.497 16.1378 50.1124 16.603C49.681 17.1428 49.3614 17.763 49.1722 18.4275C48.9349 19.23 48.8197 20.0636 48.8304 20.9003C48.8194 21.7512 48.9354 22.599 49.1746 23.4157C49.3683 24.0967 49.6994 24.7309 50.1476 25.2791C50.5389 25.7521 51.032 26.1305 51.5902 26.3859C52.2422 26.6674 52.9516 26.79 53.6602 26.7437C54.3689 26.6974 55.0563 26.4835 55.6661 26.1195C56.3618 25.6963 56.9153 25.0435 57.3264 24.1613C57.7375 23.279 57.9423 22.192 57.9406 20.9003L57.9418 20.9088Z" fill="white"/>
<path d="M66.7588 24.9957V27.5317C66.7588 28.1488 66.6169 28.6106 66.3331 28.9171C66.1966 29.0676 66.0292 29.1868 65.8424 29.2666C65.6555 29.3464 65.4536 29.3848 65.2506 29.3793C65.0504 29.3846 64.8516 29.3454 64.6684 29.2647C64.4853 29.1839 64.3223 29.0635 64.1911 28.9123C63.9138 28.6009 63.7756 28.1407 63.7764 27.5317V19.0759C63.7764 17.7112 64.2605 17.0288 65.2287 17.0288C65.7249 17.0288 66.0821 17.1881 66.3002 17.5068C66.5184 17.8255 66.64 18.2966 66.6651 18.9202C66.9482 18.391 67.3183 17.9132 67.7598 17.5068C68.1357 17.1881 68.6356 17.0288 69.2632 17.0288C69.902 17.0306 70.53 17.1938 71.0889 17.5032C71.6792 17.8227 71.9744 18.2455 71.9744 18.7718C71.9796 18.9428 71.9488 19.1129 71.8838 19.2712C71.8188 19.4294 71.7212 19.5722 71.5973 19.6901C71.4923 19.8017 71.3662 19.8914 71.2263 19.954C71.0865 20.0166 70.9356 20.051 70.7824 20.055C70.5116 20.0161 70.246 19.9472 69.9906 19.8495C69.6338 19.7233 69.2595 19.6539 68.8813 19.6439C68.4938 19.6273 68.1135 19.7517 67.8109 19.9942C67.5037 20.2743 67.2805 20.6344 67.1663 21.0342C66.9985 21.5673 66.892 22.1178 66.8488 22.675C66.7888 23.3099 66.7588 24.0835 66.7588 24.9957Z" fill="white"/>
<path d="M76.3536 14.2471V18.8874C76.8501 18.345 77.4293 17.8848 78.0698 17.5239C78.6521 17.2092 79.3733 17.0515 80.2337 17.0507C81.1564 17.019 82.0669 17.27 82.8431 17.7699C83.6193 18.2699 84.2244 18.995 84.5772 19.8482C84.9915 20.7581 85.1987 21.8357 85.1987 23.0812C85.2072 23.9372 85.0913 24.7898 84.8545 25.6124C84.648 26.3344 84.309 27.0117 83.8547 27.6096C83.4316 28.1616 82.8873 28.609 82.2637 28.9172C81.6226 29.2293 80.9175 29.3876 80.2045 29.3794C79.7672 29.382 79.3315 29.326 78.9091 29.2127C78.5448 29.1183 78.1968 28.9699 77.8765 28.7724C77.615 28.6099 77.3705 28.4217 77.1467 28.2105C76.9464 28.0183 76.682 27.7292 76.3536 27.3432V27.6437C76.3536 28.2113 76.219 28.6435 75.9498 28.9403C75.8203 29.0832 75.6614 29.1965 75.4839 29.2723C75.3065 29.3481 75.1149 29.3846 74.922 29.3794C74.7311 29.3864 74.541 29.3503 74.366 29.2736C74.1909 29.197 74.0355 29.0818 73.9112 28.9366C73.6607 28.6439 73.535 28.2117 73.5342 27.64V14.3821C73.5342 13.7666 73.6558 13.3012 73.8991 12.9858C74.0186 12.8304 74.174 12.7062 74.3519 12.6238C74.5298 12.5415 74.725 12.5033 74.9208 12.5126C75.3806 12.5126 75.7341 12.6626 75.9814 12.9626C76.2287 13.2627 76.3528 13.6908 76.3536 14.2471ZM76.4959 23.271C76.4959 24.48 76.7672 25.4089 77.3096 26.0576C77.5672 26.373 77.894 26.6248 78.2646 26.7936C78.6352 26.9623 79.0397 27.0434 79.4467 27.0306C80.1968 27.0306 80.8435 26.6986 81.3868 26.0345C81.93 25.3704 82.2013 24.4192 82.2005 23.181C82.2165 22.4766 82.1014 21.7755 81.8611 21.1132C81.6722 20.5862 81.3393 20.1227 80.9002 19.7753C80.4823 19.4593 79.9705 19.2927 79.4467 19.3021C78.903 19.2947 78.3709 19.4604 77.9275 19.7753C77.4568 20.1242 77.0935 20.5983 76.8791 21.1436C76.6092 21.8197 76.4789 22.5433 76.4959 23.271Z" fill="white"/>
<path d="M89.0908 15.6153C88.6994 15.6237 88.3192 15.4848 88.0253 15.2261C87.7302 14.9675 87.5826 14.6001 87.5826 14.1241C87.5768 13.9249 87.6144 13.7267 87.6928 13.5434C87.7711 13.36 87.8883 13.1959 88.0363 13.0623C88.32 12.7911 88.6984 12.6414 89.0908 12.6451C89.4681 12.6415 89.8337 12.7761 90.1186 13.0234C90.417 13.2747 90.5662 13.6396 90.5662 14.1181C90.5662 14.5867 90.4207 14.9516 90.1296 15.2127C89.848 15.4756 89.476 15.6197 89.0908 15.6153ZM90.5662 18.7535V27.5317C90.5662 28.1414 90.4239 28.6016 90.1393 28.9122C90.0039 29.064 89.837 29.1844 89.6502 29.2651C89.4634 29.3458 89.2613 29.3847 89.058 29.3793C88.8558 29.3853 88.6549 29.3454 88.4703 29.2626C88.2858 29.1798 88.1224 29.0563 87.9925 28.9012C87.7192 28.5818 87.5826 28.1252 87.5826 27.5317V18.841C87.5826 18.2402 87.7192 17.7877 87.9925 17.4836C88.1259 17.3342 88.2904 17.2159 88.4745 17.1371C88.6586 17.0582 88.8578 17.0208 89.058 17.0275C89.2604 17.0217 89.4616 17.0594 89.6482 17.1381C89.8347 17.2168 90.0022 17.3346 90.1393 17.4836C90.4272 17.7885 90.5711 18.2118 90.5711 18.7535H90.5662Z" fill="white"/>
<path d="M93.8159 17.2951H94.1444V15.4706C94.1444 14.9841 94.1569 14.6001 94.1821 14.3187C94.1997 14.0668 94.2723 13.8219 94.3949 13.6011C94.515 13.3908 94.6887 13.2162 94.8985 13.0951C95.1193 12.9646 95.3718 12.8973 95.6283 12.9005C96.0144 12.9037 96.3836 13.0599 96.6549 13.3347C96.8565 13.5227 96.9926 13.7704 97.0429 14.0414C97.106 14.433 97.1333 14.8296 97.1244 15.2261V17.2939H98.2191C98.6415 17.2939 98.9659 17.396 99.1921 17.6004C99.3011 17.6992 99.3874 17.8206 99.4449 17.956C99.5025 18.0915 99.5299 18.2378 99.5254 18.3849C99.5254 18.7903 99.3669 19.0742 99.0498 19.2363C98.7327 19.3985 98.2795 19.4796 97.69 19.4796H97.1317V25.0662C97.1265 25.4317 97.1432 25.7973 97.1815 26.1609C97.2033 26.3902 97.2945 26.6075 97.443 26.7836C97.5849 26.9458 97.8164 27.0269 98.1376 27.0269C98.3769 27.0187 98.6148 26.9869 98.8479 26.932C99.0774 26.8776 99.3116 26.8458 99.5473 26.8371C99.6701 26.8387 99.7913 26.8658 99.9031 26.9167C100.015 26.9676 100.115 27.0411 100.197 27.1327C100.292 27.2283 100.367 27.3423 100.417 27.4678C100.467 27.5932 100.491 27.7275 100.488 27.8625C100.488 28.349 100.225 28.7236 99.7005 28.9864C99.1759 29.2491 98.4218 29.3788 97.4382 29.3756C96.5048 29.3756 95.7982 29.2163 95.3181 28.8976C94.847 28.5914 94.5093 28.1181 94.373 27.573C94.223 27.0103 94.1484 26.2574 94.1492 25.3143V19.4869H93.7551C93.3258 19.4869 92.9974 19.3835 92.7723 19.1755C92.662 19.0764 92.5745 18.9544 92.5159 18.8181C92.4573 18.6818 92.429 18.5344 92.433 18.3861C92.4292 18.237 92.4592 18.089 92.5207 17.9532C92.5822 17.8173 92.6736 17.6971 92.7882 17.6016C93.0217 17.3972 93.3643 17.2951 93.8159 17.2951Z" fill="white"/>
<path d="M109.902 23.9497H104.064C104.058 24.5813 104.199 25.2057 104.474 25.7742C104.707 26.2639 105.075 26.677 105.535 26.9649C105.974 27.2315 106.48 27.3701 106.994 27.3651C107.323 27.3683 107.65 27.3253 107.967 27.2374C108.269 27.1474 108.556 27.0125 108.819 26.8372C109.088 26.6614 109.344 26.4658 109.584 26.2522C109.817 26.0454 110.12 25.7616 110.491 25.4008C110.678 25.2565 110.911 25.1852 111.147 25.2001C111.418 25.1882 111.684 25.28 111.89 25.4567C111.987 25.5493 112.063 25.6621 112.112 25.7871C112.161 25.9121 112.183 26.0463 112.174 26.1804C112.153 26.5231 112.044 26.8544 111.857 27.1425C111.608 27.5518 111.283 27.9104 110.901 28.1995C110.417 28.5679 109.873 28.8516 109.294 29.0388C108.577 29.2729 107.825 29.3859 107.071 29.3733C105.155 29.3733 103.665 28.817 102.601 27.7045C101.536 26.5919 101.005 25.0825 101.006 23.1761C100.999 22.3274 101.131 21.4832 101.399 20.6778C101.64 19.9467 102.031 19.2739 102.547 18.7025C103.066 18.1461 103.706 17.7163 104.417 17.446C105.197 17.145 106.028 16.9959 106.864 17.0069C108.031 17.0069 109.031 17.2571 109.863 17.7574C110.658 18.2177 111.308 18.892 111.738 19.7035C112.14 20.4477 112.354 21.2792 112.361 22.1252C112.361 22.8891 112.146 23.3841 111.716 23.6103C111.286 23.8366 110.682 23.9497 109.902 23.9497ZM104.064 22.2249H109.477C109.404 21.1862 109.128 20.409 108.651 19.8932C108.173 19.3775 107.545 19.1201 106.765 19.1209C106.423 19.1116 106.082 19.177 105.767 19.3124C105.452 19.4479 105.17 19.6502 104.941 19.9054C104.46 20.4276 104.169 21.2008 104.066 22.2249H104.064Z" fill="white"/>
<path d="M117.835 24.9957V27.5318C117.835 28.1488 117.693 28.6106 117.409 28.9172C117.273 29.0676 117.106 29.1867 116.919 29.2665C116.733 29.3463 116.531 29.3848 116.328 29.3794C116.128 29.3847 115.929 29.3456 115.745 29.2648C115.562 29.1841 115.399 29.0637 115.267 28.9123C114.99 28.6009 114.852 28.1407 114.853 27.5318V19.0759C114.853 17.7112 115.339 17.0288 116.312 17.0288C116.808 17.0288 117.164 17.1881 117.382 17.5068C117.601 17.8255 117.722 18.2966 117.747 18.9202C118.03 18.3907 118.4 17.9128 118.842 17.5068C119.218 17.1881 119.719 17.0288 120.345 17.0288C120.984 17.032 121.612 17.1964 122.17 17.5068C122.759 17.8263 123.055 18.2492 123.055 18.7754C123.061 18.9464 123.03 19.1166 122.965 19.2748C122.9 19.4331 122.802 19.5758 122.678 19.6938C122.573 19.8052 122.448 19.8948 122.308 19.9574C122.168 20.02 122.018 20.0545 121.865 20.0587C121.593 20.0199 121.327 19.9509 121.072 19.8531C120.715 19.7269 120.341 19.6576 119.962 19.6476C119.575 19.6309 119.195 19.7554 118.892 19.9979C118.585 20.2783 118.362 20.6383 118.247 21.0378C118.076 21.5693 117.965 22.1185 117.918 22.675C117.863 23.3099 117.835 24.0835 117.835 24.9957Z" fill="white"/>
<defs>
<linearGradient id="paint0_linear_1313_30075" x1="14.9566" y1="11.6345" x2="26.4824" y2="23.552" gradientUnits="userSpaceOnUse">
<stop stop-color="#EF2F2D"/>
<stop offset="1" stop-color="#89272D"/>
</linearGradient>
</defs>
</svg>
