<svg width="194" height="41" viewBox="0 0 194 41" fill="none" xmlns="http://www.w3.org/2000/svg">
<line x1="54.5" y1="1" x2="54.5" y2="41" stroke="white" stroke-opacity="0.4"/>
<path d="M97.2591 15.8728C97.3406 17.8603 97.624 21.2246 97.7602 22.8764C97.7702 22.9967 97.7544 23.1177 97.714 23.2315C97.6736 23.3453 97.6094 23.4491 97.5258 23.5362C97.4422 23.6233 97.341 23.6916 97.2289 23.7366C97.1169 23.7815 96.9966 23.8022 96.876 23.7971C95.6536 23.74 93.379 23.6536 90.6581 23.6414C88.0053 23.6293 85.8111 23.7023 84.6215 23.7533C84.5013 23.758 84.3815 23.7372 84.2699 23.6922C84.1584 23.6472 84.0576 23.579 83.9743 23.4923C83.891 23.4055 83.827 23.3021 83.7865 23.1888C83.7461 23.0755 83.7301 22.9549 83.7397 22.835C83.8747 21.1978 84.1398 17.859 84.2262 15.8728C84.2844 14.1866 84.997 12.5894 86.2129 11.4198C87.4288 10.2502 89.0525 9.60018 90.7396 9.60751V9.60751C92.4277 9.5989 94.0527 10.2483 95.2699 11.4181C96.4871 12.5878 97.2006 14.1857 97.2591 15.8728V15.8728ZM90.7311 12.7103C89.9733 12.7101 89.2324 12.9346 88.6021 13.3555C87.9719 13.7763 87.4806 14.3746 87.1905 15.0747C86.9003 15.7748 86.8242 16.5452 86.9719 17.2885C87.1196 18.0318 87.4844 18.7146 88.0202 19.2506C88.556 19.7865 89.2387 20.1515 89.982 20.2995C90.7252 20.4474 91.4957 20.3716 92.1958 20.0816C92.896 19.7917 93.4945 19.3006 93.9155 18.6705C94.3366 18.0404 94.5613 17.2996 94.5613 16.5418C94.5613 15.5262 94.1581 14.5523 93.4404 13.8338C92.7227 13.1154 91.7491 12.7113 90.7335 12.7103H90.7311Z" fill="url(#paint0_linear_270_19843)"/>
<path d="M90.7992 14.3447C91.0216 14.5999 91.1443 14.927 91.1447 15.2655C91.1407 15.4592 91.0986 15.6502 91.0208 15.8276C90.9429 16.0051 90.8309 16.1654 90.691 16.2995C90.5512 16.4336 90.3863 16.5388 90.2057 16.6091C90.0252 16.6794 89.8325 16.7135 89.6388 16.7093C89.4152 16.7107 89.1941 16.6627 88.9912 16.5687C88.7882 16.4747 88.6086 16.337 88.4651 16.1656C88.4383 16.301 88.4245 16.4386 88.4237 16.5767C88.4237 17.81 89.4649 18.8098 90.7493 18.8098C92.0338 18.8098 93.0737 17.81 93.0737 16.5767C93.0737 15.3433 92.0605 14.3642 90.7992 14.3447Z" fill="white"/>
<path d="M94.2341 12.0283C94.2045 12.0301 94.1749 12.026 94.1469 12.0162C94.1189 12.0065 94.0931 11.9912 94.071 11.9714C94.0489 11.9516 94.031 11.9276 94.0183 11.9009C94.0056 11.8741 93.9983 11.845 93.9969 11.8154C93.9775 11.3167 94.0675 10.295 95.3592 9.17964C96.2496 8.41214 97.489 8.13482 99.0483 8.35376C99.0781 8.35787 99.1067 8.36795 99.1324 8.38341C99.1582 8.39886 99.1805 8.41936 99.1981 8.44368C99.2157 8.468 99.2282 8.49563 99.2349 8.52491C99.2416 8.55419 99.2422 8.58451 99.2369 8.61405V8.61405C99.2265 8.6692 99.1956 8.71838 99.1505 8.75176C99.1054 8.78514 99.0494 8.80025 98.9936 8.79407C97.5741 8.59337 96.46 8.83421 95.6767 9.50805C94.5528 10.4811 94.453 11.3532 94.4603 11.8008C94.4617 11.8583 94.4406 11.9141 94.4016 11.9563C94.3625 11.9985 94.3086 12.0239 94.2511 12.027L94.2341 12.0283Z" fill="white"/>
<path d="M98.7321 9.02531C99.0888 9.02531 99.3779 8.74704 99.3779 8.40377C99.3779 8.0605 99.0888 7.78223 98.7321 7.78223C98.3754 7.78223 98.0862 8.0605 98.0862 8.40377C98.0862 8.74704 98.3754 9.02531 98.7321 9.02531Z" fill="white"/>
<path d="M87.4823 12.0697C87.5118 12.0717 87.5415 12.0677 87.5695 12.0581C87.5975 12.0485 87.6232 12.0334 87.6453 12.0137C87.6674 11.994 87.6854 11.9701 87.6981 11.9433C87.7108 11.9166 87.7181 11.8876 87.7195 11.858C87.7402 11.3472 87.655 10.1832 86.3572 9.0605C85.4681 8.293 84.2274 8.01568 82.6681 8.23462C82.6384 8.23889 82.6099 8.24908 82.5843 8.26458C82.5586 8.28008 82.5363 8.30058 82.5187 8.32486C82.5011 8.34913 82.4886 8.3767 82.4819 8.40591C82.4752 8.43512 82.4744 8.46539 82.4796 8.49491C82.49 8.55005 82.5208 8.59924 82.5659 8.63262C82.611 8.666 82.6671 8.68111 82.7228 8.67493C84.1423 8.47423 85.2576 8.71506 86.0397 9.38891C87.1673 10.362 87.2646 11.3764 87.25 11.8362C87.2483 11.894 87.2692 11.9502 87.3082 11.9929C87.3473 12.0356 87.4014 12.0614 87.4592 12.0648L87.4823 12.0697Z" fill="white"/>
<path d="M83.078 9.02531C83.4347 9.02531 83.7239 8.74704 83.7239 8.40377C83.7239 8.0605 83.4347 7.78223 83.078 7.78223C82.7213 7.78223 82.4321 8.0605 82.4321 8.40377C82.4321 8.74704 82.7213 9.02531 83.078 9.02531Z" fill="white"/>
<path d="M111.509 31.6815C111.509 29.666 106.462 26.4647 106.462 26.4647L106.403 26.4477C107.235 23.0809 107.663 21.5824 107.718 19.393C107.84 14.3927 106.578 10.1599 103.409 6.44887C100.462 2.99816 95.7702 0.996094 90.759 0.996094C85.4327 0.996094 81.3276 3.02614 78.2807 6.38927C75.2338 9.7524 73.7049 13.4002 73.7925 19.337C73.818 20.9985 74.1951 23.7876 75.0088 26.2883L74.9517 26.3053C74.9517 26.3053 70 29.4459 70 31.6219C70 32.2653 72.6759 33.0815 78.1956 33.3406L75.1171 37.9529C74.9954 38.3457 75.0709 38.8858 75.4005 39.1169C75.7254 39.3308 76.0972 39.463 76.4842 39.5025C77.0693 39.5195 77.2517 39.3504 77.467 38.9624L80.5577 33.5814C83.8418 33.7115 85.9314 33.7809 89.6886 33.7882V39.9464C89.7105 40.3174 89.8674 40.9949 90.8636 40.9949C91.7685 40.9949 91.9242 40.36 91.9242 39.9464V33.7918C95.6766 33.7845 97.7176 33.8344 100.996 33.7055L104.235 38.9028C104.294 39.0706 104.406 39.2144 104.554 39.3121C104.703 39.4099 104.879 39.4563 105.057 39.4441C105.373 39.4487 105.684 39.3644 105.955 39.2008C106.319 39.0378 106.319 38.4382 106.172 37.8945L103.122 33.4598C108.449 33.017 111.509 32.1984 111.509 31.6815ZM79.5433 31.0904C79.0476 31.0827 78.5754 30.8785 78.2303 30.5227C77.8852 30.1668 77.6955 29.6885 77.703 29.1929C77.703 28.1444 78.5264 27.4134 79.5433 27.4134C80.5601 27.4134 81.3836 28.1432 81.3836 29.1929C81.3907 29.6884 81.201 30.1666 80.8559 30.5223C80.5109 30.8781 80.0388 31.0824 79.5433 31.0904V31.0904ZM90.7553 31.195C90.3775 31.2066 90.0048 31.1052 89.6849 30.9037C89.3651 30.7022 89.1127 30.4098 88.96 30.064C88.8073 29.7181 88.7614 29.3346 88.828 28.9625C88.8946 28.5904 89.0708 28.2467 89.334 27.9753C89.5972 27.7039 89.9354 27.5173 90.3053 27.4393C90.6752 27.3614 91.0599 27.3956 91.4103 27.5376C91.7606 27.6796 92.0606 27.923 92.2717 28.2365C92.4829 28.55 92.5957 28.9195 92.5956 29.2975C92.6031 29.7931 92.4134 30.2714 92.0683 30.6273C91.7232 30.9831 91.251 31.1873 90.7553 31.195V31.195ZM101.966 31.3008C101.588 31.3124 101.216 31.211 100.896 31.0095C100.576 30.808 100.324 30.5156 100.171 30.1698C100.018 29.824 99.9722 29.4404 100.039 29.0683C100.105 28.6962 100.282 28.3525 100.545 28.0811C100.808 27.8098 101.146 27.6231 101.516 27.5452C101.886 27.4672 102.271 27.5014 102.621 27.6434C102.971 27.7854 103.271 28.0288 103.483 28.3423C103.694 28.6559 103.807 29.0253 103.806 29.4033C103.814 29.8989 103.624 30.377 103.279 30.7327C102.934 31.0885 102.462 31.2928 101.966 31.3008ZM104.789 25.7544C101.232 24.8482 95.9636 24.8932 90.7541 24.8932C85.5446 24.8932 80.6586 24.7339 76.6995 25.7544C76.1072 23.374 75.6425 20.9985 75.5829 19.1582C75.3056 10.605 81.0831 2.4946 90.7541 2.4946C100.425 2.4946 106.396 10.6111 106.026 19.1582C105.911 21.8487 105.16 24.3118 104.789 25.7544Z" fill="white"/>
<path d="M123.331 13.5133C124.991 13.5133 126.417 13.8563 127.609 14.5423C128.789 15.2173 129.734 16.2389 130.314 17.4687C130.926 18.7337 131.232 20.2192 131.231 21.9253C131.245 23.0904 131.076 24.2504 130.729 25.3627C130.417 26.3515 129.904 27.2648 129.22 28.0447C128.543 28.8065 127.698 29.4007 126.751 29.7804C125.778 30.1809 124.66 30.3812 123.397 30.3812C122.245 30.4004 121.1 30.1904 120.03 29.7633C119.081 29.3811 118.232 28.7856 117.55 28.0228C116.865 27.2342 116.352 26.3106 116.046 25.3116C115.699 24.2063 115.528 23.0534 115.538 21.8949C115.525 20.7238 115.704 19.5585 116.068 18.4454C116.388 17.4581 116.911 16.5486 117.603 15.7756C118.28 15.0372 119.116 14.4616 120.047 14.0922C121.094 13.6888 122.209 13.4922 123.331 13.5133V13.5133ZM127.942 21.9059C127.942 20.7115 127.753 19.6768 127.374 18.8018C126.995 17.9269 126.455 17.2648 125.751 16.8156C125.027 16.361 124.186 16.1273 123.331 16.1429C122.712 16.1367 122.099 16.2636 121.533 16.5151C120.983 16.7637 120.497 17.1348 120.113 17.6001C119.681 18.1399 119.362 18.7601 119.172 19.4246C118.935 20.227 118.82 21.0606 118.831 21.8974C118.82 22.7483 118.936 23.5961 119.175 24.4127C119.369 25.0938 119.7 25.728 120.148 26.2761C120.539 26.7492 121.032 27.1275 121.59 27.383C122.242 27.6645 122.952 27.7871 123.66 27.7408C124.369 27.6945 125.057 27.4805 125.666 27.1166C126.362 26.6933 126.916 26.0406 127.327 25.1583C127.738 24.2761 127.942 23.1891 127.941 21.8974L127.942 21.9059Z" fill="white"/>
<path d="M136.759 25.9923V28.5283C136.759 29.1454 136.617 29.6072 136.334 29.9137C136.197 30.0642 136.03 30.1834 135.843 30.2632C135.656 30.343 135.454 30.3814 135.251 30.3759C135.051 30.3812 134.852 30.342 134.669 30.2612C134.486 30.1805 134.323 30.0601 134.192 29.9089C133.914 29.5975 133.776 29.1373 133.777 28.5283V20.0725C133.777 18.7077 134.261 18.0254 135.229 18.0254C135.725 18.0254 136.083 18.1847 136.301 18.5034C136.519 18.8221 136.64 19.2932 136.666 19.9168C136.949 19.3876 137.319 18.9098 137.76 18.5034C138.136 18.1847 138.636 18.0254 139.264 18.0254C139.902 18.0272 140.53 18.1904 141.089 18.4998C141.68 18.8192 141.975 19.2421 141.975 19.7684C141.98 19.9394 141.949 20.1095 141.884 20.2678C141.819 20.426 141.722 20.5688 141.598 20.6867C141.493 20.7983 141.367 20.888 141.227 20.9506C141.087 21.0132 140.936 21.0475 140.783 21.0516C140.512 21.0127 140.246 20.9438 139.991 20.846C139.634 20.7198 139.26 20.6505 138.882 20.6405C138.494 20.6238 138.114 20.7483 137.811 20.9908C137.504 21.2709 137.281 21.631 137.167 22.0307C136.999 22.5639 136.892 23.1143 136.849 23.6716C136.789 24.3065 136.759 25.0801 136.759 25.9923Z" fill="white"/>
<path d="M146.354 15.2437V19.8839C146.85 19.3416 147.429 18.8814 148.07 18.5204C148.652 18.2058 149.373 18.0481 150.234 18.0473C151.156 18.0156 152.067 18.2666 152.843 18.7665C153.619 19.2665 154.224 19.9916 154.577 20.8448C154.991 21.7546 155.199 22.8323 155.199 24.0778C155.207 24.9338 155.091 25.7864 154.854 26.609C154.648 27.331 154.309 28.0083 153.855 28.6062C153.432 29.1582 152.887 29.6056 152.264 29.9137C151.623 30.2259 150.917 30.3842 150.204 30.3759C149.767 30.3786 149.331 30.3225 148.909 30.2093C148.545 30.1149 148.197 29.9665 147.876 29.769C147.615 29.6065 147.371 29.4183 147.147 29.2071C146.946 29.0149 146.682 28.7258 146.354 28.3398V28.6402C146.354 29.2079 146.219 29.6401 145.95 29.9368C145.82 30.0798 145.661 30.1931 145.484 30.2689C145.306 30.3446 145.115 30.3812 144.922 30.3759C144.731 30.383 144.541 30.3469 144.366 30.2702C144.191 30.1936 144.035 30.0784 143.911 29.9332C143.661 29.6405 143.535 29.2083 143.534 28.6366V15.3787C143.534 14.7632 143.656 14.2978 143.899 13.9823C144.019 13.827 144.174 13.7028 144.352 13.6204C144.53 13.538 144.725 13.4999 144.921 13.5092C145.381 13.5092 145.734 13.6592 145.981 13.9592C146.229 14.2593 146.353 14.6874 146.354 15.2437ZM146.496 24.2676C146.496 25.4766 146.767 26.4055 147.31 27.0542C147.567 27.3696 147.894 27.6214 148.265 27.7902C148.635 27.9589 149.04 28.04 149.447 28.0272C150.197 28.0272 150.843 27.6952 151.387 27.0311C151.93 26.3669 152.201 25.4158 152.2 24.1776C152.216 23.4732 152.101 22.7721 151.861 22.1098C151.672 21.5828 151.339 21.1192 150.9 20.7719C150.482 20.4559 149.97 20.2893 149.447 20.2987C148.903 20.2912 148.371 20.4569 147.927 20.7719C147.457 21.1208 147.093 21.5949 146.879 22.1402C146.609 22.8162 146.479 23.5399 146.496 24.2676V24.2676Z" fill="white"/>
<path d="M159.091 16.6119C158.7 16.6203 158.319 16.4814 158.025 16.2227C157.73 15.964 157.583 15.5967 157.583 15.1207C157.577 14.9214 157.614 14.7233 157.693 14.5399C157.771 14.3566 157.888 14.1925 158.036 14.0589C158.32 13.7877 158.698 13.638 159.091 13.6417C159.468 13.6381 159.834 13.7727 160.119 14.0199C160.417 14.2713 160.566 14.6362 160.566 15.1146C160.566 15.5833 160.421 15.9482 160.13 16.2093C159.848 16.4721 159.476 16.6163 159.091 16.6119V16.6119ZM160.566 19.75V28.5282C160.566 29.138 160.424 29.5982 160.139 29.9088C160.004 30.0606 159.837 30.181 159.65 30.2617C159.464 30.3423 159.261 30.3813 159.058 30.3758C158.856 30.3819 158.655 30.342 158.47 30.2592C158.286 30.1764 158.122 30.0529 157.993 29.8978C157.719 29.5783 157.583 29.1218 157.583 28.5282V19.8376C157.583 19.2368 157.719 18.7843 157.993 18.4802C158.126 18.3308 158.29 18.2125 158.475 18.1336C158.659 18.0548 158.858 18.0174 159.058 18.0241C159.26 18.0183 159.462 18.056 159.648 18.1347C159.835 18.2134 160.002 18.3312 160.139 18.4802C160.427 18.7851 160.571 19.2084 160.571 19.75H160.566Z" fill="white"/>
<path d="M163.816 18.2921H164.145V16.4677C164.145 15.9811 164.157 15.5972 164.182 15.3158C164.2 15.0639 164.273 14.8189 164.395 14.5982C164.515 14.3879 164.689 14.2132 164.899 14.0922C165.12 13.9617 165.372 13.8944 165.629 13.8976C166.015 13.9008 166.384 14.057 166.655 14.3318C166.857 14.5197 166.993 14.7674 167.043 15.0385C167.106 15.4301 167.134 15.8266 167.125 16.2232V18.2909H168.219C168.642 18.2909 168.966 18.3931 169.192 18.5974C169.301 18.6963 169.388 18.8177 169.445 18.9531C169.503 19.0886 169.53 19.2349 169.526 19.382C169.526 19.7874 169.367 20.0712 169.05 20.2334C168.733 20.3956 168.28 20.4767 167.69 20.4767H167.132V26.0632C167.127 26.4288 167.144 26.7943 167.182 27.1579C167.204 27.3873 167.295 27.6045 167.443 27.7807C167.585 27.9429 167.817 28.0239 168.138 28.0239C168.377 28.0158 168.615 27.984 168.848 27.9291C169.078 27.8747 169.312 27.8429 169.548 27.8342C169.67 27.8358 169.792 27.8629 169.903 27.9138C170.015 27.9646 170.115 28.0382 170.197 28.1298C170.292 28.2254 170.367 28.3394 170.417 28.4648C170.467 28.5903 170.491 28.7246 170.488 28.8596C170.488 29.3461 170.226 29.7207 169.701 29.9834C169.176 30.2462 168.422 30.3759 167.439 30.3727C166.505 30.3727 165.799 30.2133 165.318 29.8947C164.847 29.5885 164.51 29.1152 164.373 28.5701C164.223 28.0073 164.149 27.2544 164.15 26.3114V20.484H163.755C163.326 20.484 162.998 20.3806 162.773 20.1726C162.662 20.0734 162.575 19.9515 162.516 19.8152C162.458 19.6789 162.429 19.5315 162.433 19.3832C162.43 19.2341 162.46 19.0861 162.521 18.9502C162.583 18.8144 162.674 18.6942 162.789 18.5987C163.022 18.3943 163.365 18.2921 163.816 18.2921Z" fill="white"/>
<path d="M179.902 24.9463H174.064C174.058 25.5779 174.199 26.2022 174.474 26.7707C174.707 27.2605 175.075 27.6736 175.534 27.9615C175.974 28.2281 176.48 28.3667 176.994 28.3617C177.323 28.3649 177.65 28.3219 177.967 28.234C178.269 28.144 178.556 28.0091 178.818 27.8338C179.088 27.658 179.343 27.4624 179.584 27.2488C179.817 27.042 180.12 26.7582 180.491 26.3973C180.678 26.2531 180.911 26.1818 181.147 26.1966C181.418 26.1848 181.684 26.2766 181.89 26.4533C181.987 26.5459 182.063 26.6587 182.112 26.7837C182.161 26.9087 182.182 27.0429 182.174 27.177C182.153 27.5196 182.044 27.851 181.857 28.1391C181.607 28.5484 181.283 28.907 180.901 29.1961C180.416 29.5645 179.873 29.8482 179.294 30.0354C178.577 30.2695 177.825 30.3825 177.071 30.3698C175.155 30.3698 173.665 29.8136 172.601 28.7011C171.536 27.5885 171.004 26.0791 171.006 24.1727C170.998 23.3239 171.131 22.4798 171.399 21.6744C171.64 20.9432 172.031 20.2705 172.547 19.699C173.066 19.1427 173.706 18.7128 174.417 18.4426C175.197 18.1416 176.028 17.9925 176.864 18.0035C178.031 18.0035 179.031 18.2537 179.863 18.754C180.658 19.2143 181.308 19.8886 181.738 20.7001C182.14 21.4443 182.354 22.2758 182.36 23.1218C182.36 23.8856 182.146 24.3807 181.716 24.6069C181.286 24.8331 180.681 24.9463 179.902 24.9463ZM174.064 23.2215H179.477C179.404 22.1828 179.128 21.4055 178.651 20.8898C178.173 20.3741 177.545 20.1167 176.765 20.1175C176.423 20.1082 176.082 20.1735 175.767 20.309C175.452 20.4445 175.17 20.6468 174.941 20.902C174.46 21.4242 174.168 22.1974 174.066 23.2215H174.064Z" fill="white"/>
<path d="M187.835 25.9923V28.5283C187.835 29.1454 187.693 29.6072 187.409 29.9137C187.273 30.0641 187.106 30.1833 186.919 30.2631C186.733 30.3429 186.531 30.3814 186.328 30.3759C186.128 30.3813 185.929 30.3422 185.745 30.2614C185.562 30.1806 185.399 30.0602 185.267 29.9089C184.99 29.5975 184.852 29.1373 184.853 28.5283V20.0725C184.853 18.7077 185.339 18.0254 186.312 18.0254C186.808 18.0254 187.164 18.1847 187.383 18.5034C187.601 18.8221 187.722 19.2932 187.747 19.9168C188.03 19.3873 188.4 18.9094 188.842 18.5034C189.218 18.1847 189.719 18.0254 190.346 18.0254C190.984 18.0286 191.612 18.193 192.17 18.5034C192.76 18.8229 193.055 19.2458 193.056 19.772C193.061 19.943 193.03 20.1132 192.965 20.2714C192.9 20.4297 192.802 20.5724 192.678 20.6904C192.574 20.8018 192.448 20.8914 192.308 20.954C192.168 21.0166 192.018 21.051 191.865 21.0553C191.594 21.0164 191.328 20.9475 191.072 20.8497C190.715 20.7235 190.341 20.6541 189.962 20.6441C189.575 20.6275 189.195 20.752 188.892 20.9944C188.585 21.2749 188.362 21.6349 188.247 22.0344C188.076 22.5659 187.965 23.1151 187.918 23.6716C187.863 24.3065 187.835 25.0801 187.835 25.9923Z" fill="white"/>
<path d="M21.4528 7.19043H12.6714C12.3779 7.19043 12.1428 7.4545 12.1365 7.78274C11.959 17.0091 7.64447 25.7661 0.218263 31.9687C-0.0175084 32.1655 -0.0712218 32.5355 0.101153 32.8019L5.23906 40.7499C5.41378 41.0205 5.75434 41.0815 5.99407 40.8828C10.6375 37.0299 14.3724 32.3819 17.0622 27.23C19.7518 32.3819 23.4869 37.0299 28.1304 40.8828C28.3699 41.0815 28.7105 41.0205 28.8855 40.7499L34.0234 32.8019C34.1955 32.5355 34.1418 32.1655 33.9062 31.9687C26.4798 25.7661 22.1652 17.0091 21.9881 7.78274C21.9816 7.4545 21.7463 7.19043 21.4528 7.19043Z" fill="white"/>
<path d="M33.7477 13.061L32.7926 9.95219C32.5983 9.32113 32.1252 8.82946 31.5228 8.63509L28.5577 7.67467C28.1486 7.54203 28.1443 6.93263 28.5523 6.79428L31.5022 5.78812C32.1012 5.58347 32.569 5.08383 32.7535 4.45039L33.6641 1.32673C33.79 0.894537 34.3685 0.889961 34.5008 1.31988L35.456 4.42865C35.6502 5.05979 36.1234 5.55145 36.7257 5.74696L39.6908 6.70623C40.1 6.83888 40.1043 7.44828 39.6963 7.58777L36.7464 8.59394C36.1473 8.79744 35.6796 9.29706 35.495 9.93165L34.5844 13.0542C34.4586 13.4863 33.8801 13.4909 33.7477 13.061Z" fill="white"/>
<defs>
<linearGradient id="paint0_linear_270_19843" x1="84.9572" y1="12.6301" x2="96.4831" y2="24.5476" gradientUnits="userSpaceOnUse">
<stop stop-color="#EF2F2D"/>
<stop offset="1" stop-color="#89272D"/>
</linearGradient>
</defs>
</svg>
