<svg width="40" height="40" viewBox="0 0 40 40" fill="none" xmlns="http://www.w3.org/2000/svg">
<path d="M5.99246 14.471C6.55527 14.5804 7.09746 14.2122 7.2059 13.6507C7.85558 10.2894 10.4328 7.71662 13.6187 7.24787C14.1846 7.16474 14.5759 6.63849 14.4928 6.07256C14.4171 5.55787 13.975 5.18756 13.4696 5.18756C13.4193 5.18756 13.3684 5.191 13.3175 5.19881C9.26215 5.79537 5.98871 9.03349 5.17246 13.2576C5.06371 13.8191 5.43058 14.3622 5.99246 14.471Z" fill="white" fill-opacity="0.6"/>
<path d="M13.5036 8.64652C13.3439 8.64652 13.1814 8.68402 13.0296 8.76215C11.0218 9.79902 9.40457 11.5484 8.47519 13.6884C8.24738 14.2131 8.48801 14.8231 9.01301 15.0509C9.53738 15.2781 10.1471 15.0375 10.3755 14.5131C11.1149 12.81 12.3952 11.4212 13.9796 10.6031C14.488 10.3406 14.6874 9.71559 14.4249 9.20746C14.2408 8.8509 13.8786 8.64652 13.5036 8.64652ZM26.2308 19.1115C26.8943 19.7737 27.9739 19.7743 28.6368 19.1109L34.3418 13.4059C34.6633 13.0843 34.8408 12.6571 34.8408 12.2021C34.8408 11.7478 34.6639 11.3203 34.3421 10.9987L31.0739 7.73059C30.7424 7.39871 30.3068 7.2334 29.8708 7.2334C29.4352 7.2334 28.9996 7.39902 28.6674 7.73059L22.9621 13.4359C22.2986 14.0993 22.2986 15.1787 22.9621 15.8421L26.2308 19.1115ZM29.8711 9.45715L32.6158 12.2018L27.4333 17.3843L24.6886 14.6396L29.8711 9.45715ZM15.8777 22.9287C15.5561 22.6071 15.1286 22.4296 14.6736 22.4296C14.2193 22.4296 13.7918 22.6071 13.4705 22.9284L7.76519 28.6334L7.76457 28.6337C7.10207 29.2971 7.10207 30.3768 7.76519 31.0396L11.0336 34.3081C11.6968 34.9712 12.7761 34.9718 13.4399 34.3081L19.1458 28.6025C19.8083 27.939 19.8083 26.8593 19.1452 26.1965L15.8777 22.9287ZM12.2368 32.5818L9.49176 29.8368L14.6739 24.6546L17.4189 27.3993L12.2368 32.5818ZM17.3724 13.6665C18.0221 14.3165 17.9589 15.4371 17.2314 16.165L16.3389 17.0575C15.9764 17.4196 15.5096 17.6287 15.0236 17.6459C14.5708 17.674 14.1452 17.5037 13.8408 17.1984C13.8405 17.1981 13.8402 17.1981 13.8399 17.1978L13.5218 16.8796C13.1171 16.475 12.4618 16.475 12.0571 16.8796C11.6524 17.284 11.6524 17.94 12.0571 18.3443L12.3752 18.6618C12.3755 18.6621 12.3755 18.6625 12.3758 18.6628C12.3764 18.6634 12.3771 18.6637 12.3777 18.6643L16.5296 22.8165C16.5299 22.8168 16.5299 22.8171 16.5302 22.8175C16.5308 22.8181 16.5314 22.8184 16.5321 22.819L19.2171 25.504C20.5677 26.8546 22.7652 26.8546 24.1158 25.504L25.678 23.9418C27.0286 22.5912 27.0286 20.3937 25.678 19.0431L18.518 11.8831C18.422 11.7868 18.3078 11.7104 18.1822 11.6583C18.0565 11.6062 17.9218 11.5795 17.7858 11.5796C17.5208 11.5796 17.2558 11.6809 17.0536 11.8831C16.6489 12.2875 16.6489 12.9434 17.0536 13.3478L17.3724 13.6665ZM17.8036 18.5225L18.6964 17.63C19.1764 17.15 19.4949 16.5784 19.6855 15.98L21.5268 17.8212C22.1764 18.4712 22.1133 19.5918 21.3858 20.3196L20.4933 21.2121C20.1308 21.5743 19.6639 21.7834 19.178 21.8006C18.7302 21.8262 18.3002 21.6584 17.9952 21.3531C17.9949 21.3528 17.9946 21.3528 17.9943 21.3525L16.1558 19.514C16.7655 19.3184 17.3336 18.9921 17.8036 18.5225ZM24.6211 21.4925C24.6211 21.8643 24.4761 22.214 24.2133 22.4771L22.6511 24.0393C22.1246 24.5653 21.2074 24.5653 20.6814 24.0393L20.3102 23.6681C20.9199 23.4728 21.488 23.1465 21.9577 22.6765L22.8502 21.784C23.3302 21.304 23.6489 20.7328 23.8396 20.1343L24.213 20.5078C24.4764 20.7706 24.6211 21.1206 24.6211 21.4925Z" fill="white" fill-opacity="0.6"/>
<path d="M13.4024 16.2221C13.8068 16.6265 14.4627 16.6265 14.8671 16.2221L16.4018 14.6874C16.8062 14.283 16.8062 13.6271 16.4018 13.2227C15.9974 12.8184 15.3415 12.8184 14.9371 13.2227L13.4024 14.7574C12.998 15.1618 12.998 15.8174 13.4024 16.2221Z" fill="white" fill-opacity="0.6"/>
<circle cx="31" cy="31" r="7.5" fill="white"/>
<path d="M31 23.5C26.8579 23.5 23.5 26.8579 23.5 31C23.5 35.1421 26.8579 38.5 31 38.5C35.1421 38.5 38.5 35.1421 38.5 31C38.5 26.8579 35.1421 23.5 31 23.5ZM34.9457 29.2237L30.3572 33.8122C30.2142 33.9552 30.0268 34.0267 29.8393 34.0267C29.6519 34.0267 29.4645 33.9552 29.3214 33.8122L29.321 33.8117L27.0543 31.545C26.7683 31.259 26.7683 30.7953 27.0543 30.5092C27.3404 30.2232 27.8041 30.2232 28.0901 30.5092L29.8393 32.2584L33.9099 28.1879C34.1959 27.9018 34.6596 27.9018 34.9457 28.1879C35.2317 28.4739 35.2317 28.9376 34.9457 29.2237Z" fill="#2AE2CC"/>
</svg>
