<svg width="138" height="41" viewBox="0 0 138 41" fill="none" xmlns="http://www.w3.org/2000/svg">
<path d="M123.258 15.8728C123.34 17.8603 123.623 21.2246 123.76 22.8764C123.77 22.9967 123.754 23.1177 123.713 23.2315C123.673 23.3453 123.609 23.4491 123.525 23.5362C123.442 23.6233 123.34 23.6916 123.228 23.7366C123.116 23.7815 122.996 23.8022 122.875 23.7971C121.653 23.74 119.378 23.6536 116.657 23.6414C114.005 23.6293 111.81 23.7023 110.621 23.7533C110.501 23.758 110.381 23.7372 110.269 23.6922C110.158 23.6472 110.057 23.579 109.974 23.4923C109.89 23.4055 109.826 23.3021 109.786 23.1888C109.745 23.0755 109.729 22.9549 109.739 22.835C109.874 21.1978 110.139 17.859 110.226 15.8728C110.284 14.1866 110.996 12.5894 112.212 11.4198C113.428 10.2502 115.052 9.60018 116.739 9.60751C118.427 9.5989 120.052 10.2483 121.269 11.4181C122.486 12.5878 123.2 14.1857 123.258 15.8728ZM116.73 12.7103C115.973 12.7101 115.232 12.9346 114.601 13.3555C113.971 13.7763 113.48 14.3746 113.19 15.0747C112.9 15.7748 112.824 16.5452 112.971 17.2885C113.119 18.0318 113.484 18.7146 114.02 19.2506C114.555 19.7865 115.238 20.1515 115.981 20.2995C116.725 20.4474 117.495 20.3716 118.195 20.0816C118.895 19.7917 119.494 19.3006 119.915 18.6705C120.336 18.0404 120.561 17.2996 120.561 16.5418C120.561 15.5262 120.157 14.5523 119.44 13.8338C118.722 13.1154 117.748 12.7113 116.733 12.7103H116.73Z" fill="url(#paint0_linear_1064_22970)"/>
<path d="M116.798 14.3447C117.021 14.5999 117.143 14.927 117.144 15.2655C117.14 15.4592 117.098 15.6502 117.02 15.8276C116.942 16.0051 116.83 16.1654 116.69 16.2995C116.55 16.4336 116.385 16.5388 116.205 16.6091C116.024 16.6794 115.832 16.7135 115.638 16.7093C115.414 16.7107 115.193 16.6627 114.99 16.5687C114.787 16.4747 114.608 16.337 114.464 16.1656C114.437 16.301 114.424 16.4386 114.423 16.5767C114.423 17.81 115.464 18.8098 116.748 18.8098C118.033 18.8098 119.073 17.81 119.073 16.5767C119.073 15.3433 118.06 14.3642 116.798 14.3447Z" fill="white"/>
<path d="M120.233 12.0283C120.204 12.0301 120.174 12.026 120.146 12.0162C120.118 12.0065 120.092 11.9912 120.07 11.9714C120.048 11.9516 120.03 11.9276 120.018 11.9009C120.005 11.8741 119.998 11.845 119.996 11.8154C119.977 11.3167 120.067 10.295 121.359 9.17964C122.249 8.41214 123.488 8.13482 125.048 8.35376C125.077 8.35787 125.106 8.36795 125.132 8.38341C125.157 8.39886 125.18 8.41936 125.197 8.44368C125.215 8.468 125.228 8.49563 125.234 8.52491C125.241 8.55419 125.242 8.58451 125.236 8.61405C125.226 8.6692 125.195 8.71838 125.15 8.75176C125.105 8.78514 125.049 8.80025 124.993 8.79407C123.573 8.59337 122.459 8.83421 121.676 9.50805C120.552 10.4811 120.452 11.3532 120.46 11.8008C120.461 11.8583 120.44 11.9141 120.401 11.9563C120.362 11.9985 120.308 12.0239 120.25 12.027L120.233 12.0283Z" fill="white"/>
<path d="M124.732 9.02531C125.089 9.02531 125.378 8.74704 125.378 8.40377C125.378 8.0605 125.089 7.78223 124.732 7.78223C124.375 7.78223 124.086 8.0605 124.086 8.40377C124.086 8.74704 124.375 9.02531 124.732 9.02531Z" fill="white"/>
<path d="M113.482 12.0697C113.511 12.0717 113.541 12.0677 113.569 12.0581C113.597 12.0485 113.623 12.0334 113.645 12.0137C113.667 11.994 113.685 11.9701 113.697 11.9433C113.71 11.9166 113.717 11.8876 113.719 11.858C113.74 11.3472 113.654 10.1832 112.357 9.0605C111.467 8.293 110.227 8.01568 108.668 8.23462C108.638 8.23889 108.609 8.24908 108.584 8.26458C108.558 8.28008 108.536 8.30058 108.518 8.32486C108.501 8.34913 108.488 8.3767 108.481 8.40591C108.475 8.43512 108.474 8.46539 108.479 8.49491C108.489 8.55005 108.52 8.59924 108.565 8.63262C108.61 8.666 108.666 8.68111 108.722 8.67493C110.142 8.47423 111.257 8.71506 112.039 9.38891C113.167 10.362 113.264 11.3764 113.249 11.8362C113.248 11.894 113.269 11.9502 113.308 11.9929C113.347 12.0356 113.401 12.0614 113.459 12.0648L113.482 12.0697Z" fill="white"/>
<path d="M109.078 9.02531C109.434 9.02531 109.723 8.74704 109.723 8.40377C109.723 8.0605 109.434 7.78223 109.078 7.78223C108.721 7.78223 108.432 8.0605 108.432 8.40377C108.432 8.74704 108.721 9.02531 109.078 9.02531Z" fill="white"/>
<path d="M137.509 31.6815C137.509 29.666 132.462 26.4647 132.462 26.4647L132.403 26.4477C133.235 23.0809 133.663 21.5824 133.718 19.393C133.84 14.3927 132.578 10.1599 129.409 6.44887C126.462 2.99816 121.77 0.996094 116.759 0.996094C111.433 0.996094 107.328 3.02614 104.281 6.38927C101.234 9.7524 99.7049 13.4002 99.7925 19.337C99.818 20.9985 100.195 23.7876 101.009 26.2883L100.952 26.3053C100.952 26.3053 96 29.4459 96 31.6219C96 32.2653 98.6759 33.0815 104.196 33.3406L101.117 37.9529C100.995 38.3457 101.071 38.8858 101.4 39.1169C101.725 39.3307 102.097 39.463 102.484 39.5024C103.069 39.5195 103.252 39.3504 103.467 38.9624L106.558 33.5814C109.842 33.7115 111.931 33.7809 115.689 33.7882V39.9464C115.711 40.3174 115.867 40.9949 116.864 40.9949C117.769 40.9949 117.924 40.36 117.924 39.9464V33.7918C121.677 33.7845 123.718 33.8344 126.996 33.7055L130.235 38.9028C130.294 39.0706 130.406 39.2144 130.554 39.3121C130.703 39.4099 130.879 39.4563 131.057 39.4441C131.373 39.4487 131.684 39.3644 131.955 39.2008C132.319 39.0378 132.319 38.4382 132.172 37.8945L129.122 33.4598C134.449 33.017 137.509 32.1984 137.509 31.6815ZM105.543 31.0904C105.048 31.0827 104.575 30.8785 104.23 30.5227C103.885 30.1668 103.695 29.6885 103.703 29.1929C103.703 28.1444 104.526 27.4134 105.543 27.4134C106.56 27.4134 107.384 28.1432 107.384 29.1929C107.391 29.6884 107.201 30.1666 106.856 30.5223C106.511 30.8781 106.039 31.0824 105.543 31.0904ZM116.755 31.195C116.377 31.2066 116.005 31.1052 115.685 30.9037C115.365 30.7022 115.113 30.4098 114.96 30.064C114.807 29.7181 114.761 29.3346 114.828 28.9625C114.895 28.5904 115.071 28.2467 115.334 27.9753C115.597 27.7039 115.935 27.5173 116.305 27.4393C116.675 27.3614 117.06 27.3956 117.41 27.5376C117.761 27.6796 118.061 27.923 118.272 28.2365C118.483 28.55 118.596 28.9195 118.596 29.2975C118.603 29.7931 118.413 30.2714 118.068 30.6273C117.723 30.9831 117.251 31.1873 116.755 31.195ZM127.966 31.3008C127.588 31.3124 127.216 31.211 126.896 31.0095C126.576 30.808 126.324 30.5156 126.171 30.1698C126.018 29.824 125.972 29.4404 126.039 29.0683C126.105 28.6962 126.282 28.3525 126.545 28.0811C126.808 27.8098 127.146 27.6231 127.516 27.5452C127.886 27.4672 128.271 27.5014 128.621 27.6434C128.971 27.7854 129.271 28.0288 129.483 28.3423C129.694 28.6559 129.807 29.0253 129.806 29.4033C129.814 29.8989 129.624 30.377 129.279 30.7327C128.934 31.0885 128.462 31.2928 127.966 31.3008ZM130.789 25.7544C127.232 24.8482 121.964 24.8932 116.754 24.8932C111.545 24.8932 106.659 24.7339 102.7 25.7544C102.107 23.374 101.643 20.9985 101.583 19.1582C101.306 10.605 107.083 2.4946 116.754 2.4946C126.425 2.4946 132.396 10.6111 132.026 19.1582C131.911 21.8487 131.16 24.3118 130.789 25.7544Z" fill="white"/>
<path d="M0 21.038V20.6658L16.6179 3.92871H17.5095V12.768H34.8049L17.4025 25.6371V38.0951H16.8296L0 21.038Z" fill="#8C8DFD"/>
<path d="M44.9029 15.9993V3.62402H45.685L62.6764 20.6652V21.3549L45.685 38.3754H44.9029V29.3659H27.8994V28.7844L44.9029 15.9993Z" fill="#4E529B"/>
<line x1="80.5" y1="1" x2="80.5" y2="41" stroke="white" stroke-opacity="0.4"/>
<defs>
<linearGradient id="paint0_linear_1064_22970" x1="110.957" y1="12.6301" x2="122.482" y2="24.5476" gradientUnits="userSpaceOnUse">
<stop stop-color="#EF2F2D"/>
<stop offset="1" stop-color="#89272D"/>
</linearGradient>
</defs>
</svg>
