<svg width="20" height="20" viewBox="0 0 20 20" fill="none" xmlns="http://www.w3.org/2000/svg">
<path d="M16.7495 9.59456C16.8361 11.7057 17.1371 15.2793 17.2818 17.0338C17.2924 17.1616 17.2756 17.2902 17.2327 17.411C17.1898 17.5319 17.1216 17.6422 17.0328 17.7347C16.944 17.8272 16.8365 17.8997 16.7175 17.9475C16.5985 17.9953 16.4707 18.0172 16.3425 18.0119C15.0441 17.9511 12.6281 17.8594 9.7379 17.8465C6.92008 17.8336 4.58933 17.9111 3.32577 17.9653C3.19809 17.9703 3.07081 17.9482 2.95232 17.9004C2.83382 17.8526 2.72679 17.7802 2.63829 17.688C2.54979 17.5959 2.48182 17.486 2.43887 17.3657C2.39591 17.2453 2.37894 17.1173 2.38908 16.9899C2.53249 15.2509 2.81414 11.7044 2.90588 9.59456C2.96767 7.80353 3.72459 6.10698 5.01616 4.86461C6.30772 3.62225 8.03238 2.93176 9.82447 2.93954C11.6176 2.9304 13.3437 3.62025 14.6366 4.86272C15.9295 6.10519 16.6874 7.80252 16.7495 9.59456ZM9.81542 6.2354C9.01044 6.23514 8.22347 6.47361 7.55403 6.92065C6.88459 7.36768 6.36276 8.0032 6.05453 8.74683C5.74631 9.49046 5.66553 10.3088 5.82241 11.0983C5.9793 11.8879 6.3668 12.6132 6.93592 13.1824C7.50503 13.7517 8.23019 14.1395 9.01968 14.2966C9.80918 14.4538 10.6275 14.3732 11.3713 14.0652C12.115 13.7573 12.7507 13.2356 13.1979 12.5663C13.6452 11.897 13.8839 11.1101 13.8839 10.3052C13.8839 9.22646 13.4556 8.19189 12.6933 7.42877C11.9309 6.66566 10.8967 6.23643 9.81801 6.2354H9.81542Z" fill="white" fill-opacity="0.6"/>
<path d="M9.88751 7.97021C10.1238 8.24131 10.2541 8.58866 10.2544 8.94825C10.2502 9.15401 10.2055 9.35692 10.1228 9.54538C10.0402 9.73385 9.92115 9.90417 9.77259 10.0466C9.62404 10.189 9.44887 10.3008 9.2571 10.3755C9.06532 10.4501 8.86071 10.4863 8.65495 10.4818C8.41743 10.4833 8.1825 10.4324 7.96697 10.3325C7.75144 10.2327 7.56063 10.0865 7.40819 9.90432C7.37976 10.0482 7.36505 10.1944 7.36426 10.341C7.36426 11.6511 8.4702 12.7131 9.83454 12.7131C11.1989 12.7131 12.3035 11.6511 12.3035 10.341C12.3035 9.03093 11.2273 7.99089 9.88751 7.97021Z" fill="white" fill-opacity="0.6"/>
<path d="M13.5364 5.51038C13.505 5.5123 13.4735 5.50795 13.4437 5.49759C13.414 5.48722 13.3866 5.47105 13.3631 5.45002C13.3397 5.42898 13.3207 5.4035 13.3072 5.37505C13.2937 5.34659 13.2859 5.31574 13.2845 5.28428C13.2638 4.75457 13.3594 3.6693 14.7315 2.48455C15.6772 1.66931 16.9938 1.37473 18.6501 1.60729C18.6817 1.61166 18.7121 1.62237 18.7394 1.63879C18.7668 1.6552 18.7905 1.67698 18.8092 1.70281C18.8279 1.72864 18.8412 1.75799 18.8483 1.78909C18.8553 1.82019 18.8561 1.8524 18.8503 1.88378C18.8393 1.94235 18.8066 1.9946 18.7586 2.03005C18.7107 2.06551 18.6512 2.08156 18.5919 2.07499C17.0842 1.86181 15.9007 2.11763 15.0687 2.83339C13.8749 3.86697 13.769 4.79333 13.7767 5.26878C13.7781 5.32985 13.7558 5.38909 13.7143 5.43394C13.6728 5.47879 13.6155 5.50575 13.5545 5.50909L13.5364 5.51038Z" fill="white" fill-opacity="0.6"/>
<path d="M18.3137 2.32041C18.6926 2.32041 18.9998 2.02483 18.9998 1.66021C18.9998 1.29558 18.6926 1 18.3137 1C17.9348 1 17.6277 1.29558 17.6277 1.66021C17.6277 2.02483 17.9348 2.32041 18.3137 2.32041Z" fill="white" fill-opacity="0.6"/>
<path d="M6.36416 5.55397C6.39553 5.55607 6.42701 5.55189 6.45674 5.54167C6.48648 5.53146 6.51388 5.51541 6.53734 5.49448C6.5608 5.47354 6.57985 5.44814 6.59337 5.41976C6.6069 5.39137 6.61462 5.36057 6.6161 5.32917C6.63806 4.78653 6.54762 3.5501 5.16908 2.3576C4.22463 1.54235 2.90681 1.24778 1.25048 1.48034C1.21897 1.48488 1.18868 1.4957 1.16143 1.51216C1.13417 1.52863 1.11051 1.5504 1.09183 1.57619C1.07315 1.60198 1.05984 1.63126 1.0527 1.66228C1.04555 1.69331 1.04471 1.72546 1.05023 1.75682C1.06126 1.8154 1.09402 1.86764 1.14193 1.9031C1.18984 1.93856 1.24938 1.95461 1.30862 1.94804C2.81637 1.73486 4.00112 1.99067 4.83187 2.70643C6.02954 3.74002 6.1329 4.81754 6.11739 5.30591C6.1156 5.36734 6.1378 5.42705 6.17928 5.47239C6.22076 5.51773 6.27827 5.54514 6.33961 5.5488L6.36416 5.55397Z" fill="white" fill-opacity="0.6"/>
<path d="M1.68604 2.32041C2.06494 2.32041 2.37209 2.02483 2.37209 1.66021C2.37209 1.29558 2.06494 1 1.68604 1C1.30715 1 1 1.29558 1 1.66021C1 2.02483 1.30715 2.32041 1.68604 2.32041Z" fill="white" fill-opacity="0.6"/>
</svg>
