<svg width="20" height="20" viewBox="0 0 20 20" fill="none" xmlns="http://www.w3.org/2000/svg">
<path d="M10 2C5.5817 2 2 5.58179 2 9.99994C2 14.4182 5.5817 18 10 18C14.4183 18 18 14.4182 18 9.99994C18 5.58179 14.4183 2 10 2ZM11.3065 13.9198C11.3065 14.6385 10.7186 15.2263 10 15.2263C9.28115 15.2263 8.69337 14.6385 8.69337 13.9198V10C8.69337 9.28132 9.28115 8.6934 10 8.6934C10.7186 8.6934 11.3065 9.28132 11.3065 10V13.9198ZM10 7.38679C9.28115 7.38679 8.69337 6.79887 8.69337 6.08028C8.69337 5.36154 9.28115 4.77365 10 4.77365C10.7186 4.77365 11.3065 5.36154 11.3065 6.08028C11.3065 6.7989 10.7186 7.38679 10 7.38679Z" fill="#DF2E2D"/>
</svg>
