<svg width="20" height="20" viewBox="0 0 20 20" fill="none" xmlns="http://www.w3.org/2000/svg">
<g clip-path="url(#clip0_837_7586)">
<path d="M19.4426 12.775C19.8107 13.2966 20 13.8449 20 14.4124C20 15.7863 18.903 17.0498 16.9142 17.9658C15.0528 18.8244 12.5973 19.2953 9.99709 19.2953C7.39712 19.2953 4.94134 18.8244 3.08438 17.9658C1.0972 17.0498 0 15.7863 0 14.4124C0 13.8447 0.188602 13.2952 0.557203 12.774C0.192556 12.2801 0 11.7522 0 11.2052C0 10.5959 0.235114 10.0094 0.697434 9.45919C0.241393 8.90129 0 8.29664 0 7.66758C0 7.10642 0.190928 6.56038 0.56604 6.04527C0.195347 5.61737 0 5.15714 0 4.67808C0 3.5274 1.11138 2.48415 3.12857 1.74416C4.97297 1.06301 7.41433 0.690918 10.0001 0.690918C12.5859 0.690918 15.027 1.06301 16.8714 1.74277C18.8886 2.48415 20 3.5274 20 4.67645C20 5.15714 19.804 5.6183 19.4323 6.04667C19.8042 6.56108 20 7.10921 20 7.66758C20 8.29757 19.7579 8.90338 19.3007 9.46221C19.757 10.0106 20 10.6031 20 11.2052C20 11.7524 19.8074 12.2808 19.4426 12.775ZM18.4986 6.83015C18.0498 7.11666 17.5056 7.37921 16.8714 7.61177C15.027 8.29153 12.5859 8.66361 10.0001 8.66361C7.41433 8.66361 4.97297 8.29153 3.12857 7.61177C2.49834 7.38107 1.95672 7.12061 1.50975 6.83619C1.35045 7.10991 1.2644 7.38851 1.2644 7.66758C1.2644 8.1113 1.4644 8.54757 1.85719 8.96849C2.26997 9.40779 2.89438 9.82569 3.66717 10.1748C5.34715 10.9361 7.59852 11.3554 10.0029 11.3554C12.4057 11.3554 14.6559 10.9361 16.3386 10.1748C17.1114 9.82569 17.7358 9.40779 18.1472 8.96849C18.5414 8.54617 18.7414 8.10827 18.7414 7.66758C18.7414 7.38409 18.6595 7.10456 18.4986 6.83015ZM1.2644 11.2038C1.2644 11.6331 1.4644 12.0624 1.85719 12.4703C2.26997 12.8996 2.89438 13.3075 3.66717 13.6482C5.34715 14.3894 7.59852 14.7989 10.0029 14.7989C12.4057 14.7989 14.6559 14.3894 16.3386 13.6482C17.1114 13.3075 17.7358 12.8996 18.1472 12.4703C18.5372 12.0638 18.7358 11.6361 18.7358 11.2052C18.7358 10.8943 18.6307 10.5857 18.4254 10.2836C18.0007 10.5999 17.497 10.8934 16.9142 11.1566C15.0573 11.9994 12.6001 12.4603 10.0001 12.4603C7.39991 12.4603 4.94297 11.9994 3.08578 11.1566C2.50392 10.8931 2.00067 10.6001 1.57649 10.2843C1.37138 10.5866 1.2644 10.8943 1.2644 11.2038ZM1.85719 15.7361C2.26858 16.184 2.89276 16.6091 3.66577 16.9668C5.34575 17.7396 7.59712 18.1691 10.0001 18.1691C12.4029 18.1691 14.6515 17.7396 16.3342 16.9668C17.1072 16.6091 17.7314 16.184 18.143 15.7361C18.5372 15.3068 18.7372 14.8603 18.7372 14.4124C18.7372 14.161 18.6679 13.9124 18.5454 13.6668C18.0977 14.0094 17.5526 14.3254 16.9142 14.607C15.0573 15.427 12.6001 15.8777 10.0001 15.8777C7.39991 15.8777 4.94297 15.427 3.08578 14.607C2.44741 14.3249 1.9023 14.0087 1.4544 13.6661C1.33138 13.9126 1.26278 14.1619 1.26278 14.4124C1.26278 14.8617 1.46277 15.3082 1.85719 15.7361ZM10.0001 1.78277C4.85297 1.78277 1.2644 3.30833 1.2644 4.67808C1.2644 6.0462 4.85297 7.57316 10.0001 7.57316C15.1473 7.57316 18.7358 6.0462 18.7358 4.67808C18.7358 3.30833 15.1473 1.78277 10.0001 1.78277Z" fill="white"/>
</g>
<defs>
<clipPath id="clip0_837_7586">
<rect width="20" height="18.6182" fill="white" transform="translate(0 0.690918)"/>
</clipPath>
</defs>
</svg>
