<svg width="20" height="20" viewBox="0 0 20 20" fill="none" xmlns="http://www.w3.org/2000/svg">
<path d="M17.408 2.81735C14.2907 2.46897 11.9453 1.63588 10.4373 0.340479L10.0407 0L9.61267 0.301623C7.24933 1.96845 4.912 2.8134 2.66667 2.8134H2V12.0333C2 14.8599 4.52267 17.4237 9.71267 19.8716L9.98533 20L10.2633 19.8821C15.3973 17.7036 18 15.0634 18 12.0333V2.88386L17.408 2.81735ZM16.6667 12.0333C16.6667 14.4371 14.4293 16.6301 10.014 18.5531C5.58067 16.4174 3.33333 14.2244 3.33333 12.0333V4.10945C5.514 3.96984 7.74133 3.14861 9.96867 1.66156C11.5673 2.86542 13.816 3.66821 16.6667 4.05348V12.0333Z" fill="white"/>
<path d="M7.09364 9.15399C7.03927 9.09247 6.97331 9.04227 6.89953 9.00624C6.82575 8.97022 6.7456 8.94908 6.66365 8.94403C6.58171 8.93898 6.49957 8.95012 6.42192 8.97682C6.34428 9.00351 6.27266 9.04524 6.21114 9.09961C6.14963 9.15399 6.09942 9.21995 6.0634 9.29373C6.02737 9.3675 6.00623 9.44765 6.00118 9.5296C5.99613 9.61155 6.00728 9.69369 6.03397 9.77133C6.06067 9.84897 6.10239 9.9206 6.15677 9.98211L8.53552 12.674C8.78177 12.9521 9.12489 13.0952 9.47114 13.0952C9.65681 13.0951 9.84014 13.0538 10.008 12.9744C10.1758 12.8949 10.3239 12.7793 10.4418 12.6359L14.3011 7.89524C14.4058 7.76669 14.4551 7.60183 14.4383 7.43691C14.4214 7.272 14.3397 7.12054 14.2111 7.01586C14.0826 6.91119 13.9177 6.86186 13.7528 6.87874C13.5879 6.89562 13.4364 6.97732 13.3318 7.10586L9.47239 11.8459L7.09364 9.15399Z" fill="white"/>
</svg>
