<svg width="220" height="41" viewBox="0 0 220 41" fill="none" xmlns="http://www.w3.org/2000/svg">
<path d="M0 21.038V20.6658L16.6179 3.92871H17.5095V12.768H34.8049L17.4025 25.6371V38.0951H16.8296L0 21.038Z" fill="#8C8DFD"/>
<path d="M44.9029 15.9993V3.62402H45.685L62.6764 20.6652V21.3549L45.685 38.3754H44.9029V29.3659H27.8994V28.7844L44.9029 15.9993Z" fill="#4E529B"/>
<line x1="80.5" y1="1" x2="80.5" y2="41" stroke="white" stroke-opacity="0.4"/>
<path d="M123.258 15.8728C123.34 17.8603 123.623 21.2246 123.76 22.8764C123.77 22.9967 123.754 23.1177 123.713 23.2315C123.673 23.3453 123.609 23.4491 123.525 23.5362C123.442 23.6233 123.34 23.6916 123.228 23.7366C123.116 23.7815 122.996 23.8022 122.875 23.7971C121.653 23.74 119.378 23.6536 116.657 23.6414C114.005 23.6293 111.81 23.7023 110.621 23.7533C110.501 23.758 110.381 23.7372 110.269 23.6922C110.158 23.6472 110.057 23.579 109.974 23.4923C109.89 23.4055 109.826 23.3021 109.786 23.1888C109.745 23.0755 109.729 22.9549 109.739 22.835C109.874 21.1978 110.139 17.859 110.226 15.8728C110.284 14.1866 110.996 12.5894 112.212 11.4198C113.428 10.2502 115.052 9.60018 116.739 9.60751C118.427 9.5989 120.052 10.2483 121.269 11.4181C122.486 12.5878 123.2 14.1857 123.258 15.8728ZM116.73 12.7103C115.973 12.7101 115.232 12.9346 114.601 13.3555C113.971 13.7763 113.48 14.3746 113.19 15.0747C112.9 15.7748 112.824 16.5452 112.971 17.2885C113.119 18.0318 113.484 18.7146 114.02 19.2506C114.555 19.7865 115.238 20.1515 115.981 20.2995C116.725 20.4474 117.495 20.3716 118.195 20.0816C118.895 19.7917 119.494 19.3006 119.915 18.6705C120.336 18.0404 120.561 17.2996 120.561 16.5418C120.561 15.5262 120.157 14.5523 119.44 13.8338C118.722 13.1154 117.748 12.7113 116.733 12.7103H116.73Z" fill="url(#paint0_linear_1064_22928)"/>
<path d="M116.798 14.3447C117.021 14.5999 117.143 14.927 117.144 15.2655C117.14 15.4592 117.098 15.6502 117.02 15.8276C116.942 16.0051 116.83 16.1654 116.69 16.2995C116.55 16.4336 116.385 16.5388 116.205 16.6091C116.024 16.6794 115.832 16.7135 115.638 16.7093C115.414 16.7107 115.193 16.6627 114.99 16.5687C114.787 16.4747 114.608 16.337 114.464 16.1656C114.437 16.301 114.424 16.4386 114.423 16.5767C114.423 17.81 115.464 18.8098 116.748 18.8098C118.033 18.8098 119.073 17.81 119.073 16.5767C119.073 15.3433 118.06 14.3642 116.798 14.3447Z" fill="white"/>
<path d="M120.233 12.0283C120.204 12.0301 120.174 12.026 120.146 12.0162C120.118 12.0065 120.092 11.9912 120.07 11.9714C120.048 11.9516 120.03 11.9276 120.018 11.9009C120.005 11.8741 119.998 11.845 119.996 11.8154C119.977 11.3167 120.067 10.295 121.359 9.17964C122.249 8.41214 123.488 8.13482 125.048 8.35376C125.077 8.35787 125.106 8.36795 125.132 8.38341C125.157 8.39886 125.18 8.41936 125.197 8.44368C125.215 8.468 125.228 8.49563 125.234 8.52491C125.241 8.55419 125.242 8.58451 125.236 8.61405C125.226 8.6692 125.195 8.71838 125.15 8.75176C125.105 8.78514 125.049 8.80025 124.993 8.79407C123.573 8.59337 122.459 8.83421 121.676 9.50805C120.552 10.4811 120.452 11.3532 120.46 11.8008C120.461 11.8583 120.44 11.9141 120.401 11.9563C120.362 11.9985 120.308 12.0239 120.25 12.027L120.233 12.0283Z" fill="white"/>
<path d="M124.732 9.02531C125.089 9.02531 125.378 8.74704 125.378 8.40377C125.378 8.0605 125.089 7.78223 124.732 7.78223C124.375 7.78223 124.086 8.0605 124.086 8.40377C124.086 8.74704 124.375 9.02531 124.732 9.02531Z" fill="white"/>
<path d="M113.482 12.0697C113.511 12.0717 113.541 12.0677 113.569 12.0581C113.597 12.0485 113.623 12.0334 113.645 12.0137C113.667 11.994 113.685 11.9701 113.697 11.9433C113.71 11.9166 113.717 11.8876 113.719 11.858C113.74 11.3472 113.654 10.1832 112.357 9.0605C111.467 8.293 110.227 8.01568 108.668 8.23462C108.638 8.23889 108.609 8.24908 108.584 8.26458C108.558 8.28008 108.536 8.30058 108.518 8.32486C108.501 8.34913 108.488 8.3767 108.481 8.40591C108.475 8.43512 108.474 8.46539 108.479 8.49491C108.489 8.55005 108.52 8.59924 108.565 8.63262C108.61 8.666 108.666 8.68111 108.722 8.67493C110.142 8.47423 111.257 8.71506 112.039 9.38891C113.167 10.362 113.264 11.3764 113.249 11.8362C113.248 11.894 113.269 11.9502 113.308 11.9929C113.347 12.0356 113.401 12.0614 113.459 12.0648L113.482 12.0697Z" fill="white"/>
<path d="M109.078 9.02531C109.434 9.02531 109.723 8.74704 109.723 8.40377C109.723 8.0605 109.434 7.78223 109.078 7.78223C108.721 7.78223 108.432 8.0605 108.432 8.40377C108.432 8.74704 108.721 9.02531 109.078 9.02531Z" fill="white"/>
<path d="M137.509 31.6815C137.509 29.666 132.462 26.4647 132.462 26.4647L132.403 26.4477C133.235 23.0809 133.663 21.5824 133.718 19.393C133.84 14.3927 132.578 10.1599 129.409 6.44887C126.462 2.99816 121.77 0.996094 116.759 0.996094C111.433 0.996094 107.328 3.02614 104.281 6.38927C101.234 9.7524 99.7049 13.4002 99.7925 19.337C99.818 20.9985 100.195 23.7876 101.009 26.2883L100.952 26.3053C100.952 26.3053 96 29.4459 96 31.6219C96 32.2653 98.6759 33.0815 104.196 33.3406L101.117 37.9529C100.995 38.3457 101.071 38.8858 101.4 39.1169C101.725 39.3307 102.097 39.463 102.484 39.5024C103.069 39.5195 103.252 39.3504 103.467 38.9624L106.558 33.5814C109.842 33.7115 111.931 33.7809 115.689 33.7882V39.9464C115.711 40.3174 115.867 40.9949 116.864 40.9949C117.769 40.9949 117.924 40.36 117.924 39.9464V33.7918C121.677 33.7845 123.718 33.8344 126.996 33.7055L130.235 38.9028C130.294 39.0706 130.406 39.2144 130.554 39.3121C130.703 39.4099 130.879 39.4563 131.057 39.4441C131.373 39.4487 131.684 39.3644 131.955 39.2008C132.319 39.0378 132.319 38.4382 132.172 37.8945L129.122 33.4598C134.449 33.017 137.509 32.1984 137.509 31.6815ZM105.543 31.0904C105.048 31.0827 104.575 30.8785 104.23 30.5227C103.885 30.1668 103.695 29.6885 103.703 29.1929C103.703 28.1444 104.526 27.4134 105.543 27.4134C106.56 27.4134 107.384 28.1432 107.384 29.1929C107.391 29.6884 107.201 30.1666 106.856 30.5223C106.511 30.8781 106.039 31.0824 105.543 31.0904ZM116.755 31.195C116.377 31.2066 116.005 31.1052 115.685 30.9037C115.365 30.7022 115.113 30.4098 114.96 30.064C114.807 29.7181 114.761 29.3346 114.828 28.9625C114.895 28.5904 115.071 28.2467 115.334 27.9753C115.597 27.7039 115.935 27.5173 116.305 27.4393C116.675 27.3614 117.06 27.3956 117.41 27.5376C117.761 27.6796 118.061 27.923 118.272 28.2365C118.483 28.55 118.596 28.9195 118.596 29.2975C118.603 29.7931 118.413 30.2714 118.068 30.6273C117.723 30.9831 117.251 31.1873 116.755 31.195ZM127.966 31.3008C127.588 31.3124 127.216 31.211 126.896 31.0095C126.576 30.808 126.324 30.5156 126.171 30.1698C126.018 29.824 125.972 29.4404 126.039 29.0683C126.105 28.6962 126.282 28.3525 126.545 28.0811C126.808 27.8098 127.146 27.6231 127.516 27.5452C127.886 27.4672 128.271 27.5014 128.621 27.6434C128.971 27.7854 129.271 28.0288 129.483 28.3423C129.694 28.6559 129.807 29.0253 129.806 29.4033C129.814 29.8989 129.624 30.377 129.279 30.7327C128.934 31.0885 128.462 31.2928 127.966 31.3008ZM130.789 25.7544C127.232 24.8482 121.964 24.8932 116.754 24.8932C111.545 24.8932 106.659 24.7339 102.7 25.7544C102.107 23.374 101.643 20.9985 101.583 19.1582C101.306 10.605 107.083 2.4946 116.754 2.4946C126.425 2.4946 132.396 10.6111 132.026 19.1582C131.911 21.8487 131.16 24.3118 130.789 25.7544Z" fill="white"/>
<path d="M149.331 13.5133C150.991 13.5133 152.417 13.8563 153.609 14.5423C154.789 15.2173 155.733 16.2389 156.314 17.4687C156.926 18.7337 157.232 20.2192 157.231 21.9253C157.245 23.0904 157.075 24.2504 156.728 25.3627C156.417 26.3515 155.903 27.2648 155.22 28.0447C154.543 28.8065 153.697 29.4007 152.751 29.7804C151.778 30.1809 150.66 30.3812 149.396 30.3812C148.244 30.4004 147.1 30.1904 146.03 29.7633C145.08 29.3811 144.232 28.7856 143.55 28.0228C142.864 27.2342 142.352 26.3106 142.046 25.3116C141.699 24.2063 141.528 23.0534 141.538 21.8949C141.525 20.7238 141.704 19.5585 142.068 18.4454C142.388 17.4581 142.911 16.5486 143.603 15.7756C144.28 15.0372 145.116 14.4616 146.047 14.0922C147.094 13.6888 148.209 13.4922 149.331 13.5133ZM153.942 21.9059C153.942 20.7115 153.753 19.6768 153.374 18.8018C152.995 17.9269 152.454 17.2648 151.751 16.8156C151.027 16.361 150.186 16.1273 149.331 16.1429C148.712 16.1367 148.099 16.2636 147.533 16.5151C146.983 16.7637 146.497 17.1348 146.112 17.6001C145.681 18.1399 145.361 18.7601 145.172 19.4246C144.935 20.227 144.82 21.0606 144.83 21.8974C144.819 22.7483 144.935 23.5961 145.175 24.4127C145.368 25.0938 145.699 25.728 146.148 26.2761C146.539 26.7492 147.032 27.1275 147.59 27.383C148.242 27.6645 148.952 27.7871 149.66 27.7408C150.369 27.6945 151.056 27.4805 151.666 27.1166C152.362 26.6933 152.915 26.0406 153.326 25.1583C153.738 24.2761 153.942 23.1891 153.941 21.8974L153.942 21.9059Z" fill="white"/>
<path d="M162.759 25.9923V28.5283C162.759 29.1454 162.617 29.6072 162.333 29.9137C162.197 30.0642 162.029 30.1834 161.842 30.2632C161.656 30.343 161.454 30.3814 161.251 30.3759C161.05 30.3812 160.852 30.342 160.668 30.2612C160.485 30.1805 160.322 30.0601 160.191 29.9089C159.914 29.5975 159.776 29.1373 159.776 28.5283V20.0725C159.776 18.7077 160.26 18.0254 161.229 18.0254C161.725 18.0254 162.082 18.1847 162.3 18.5034C162.518 18.8221 162.64 19.2932 162.665 19.9168C162.948 19.3876 163.318 18.9098 163.76 18.5034C164.136 18.1847 164.636 18.0254 165.263 18.0254C165.902 18.0272 166.53 18.1904 167.089 18.4998C167.679 18.8192 167.974 19.2421 167.974 19.7684C167.98 19.9394 167.949 20.1095 167.884 20.2678C167.819 20.426 167.721 20.5688 167.597 20.6867C167.492 20.7983 167.366 20.888 167.226 20.9506C167.086 21.0132 166.936 21.0475 166.782 21.0516C166.512 21.0127 166.246 20.9438 165.991 20.846C165.634 20.7198 165.26 20.6505 164.881 20.6405C164.494 20.6238 164.114 20.7483 163.811 20.9908C163.504 21.2709 163.28 21.631 163.166 22.0307C162.999 22.5639 162.892 23.1143 162.849 23.6716C162.789 24.3065 162.759 25.0801 162.759 25.9923Z" fill="white"/>
<path d="M172.354 15.2437V19.8839C172.85 19.3416 173.429 18.8814 174.07 18.5204C174.652 18.2058 175.373 18.0481 176.234 18.0473C177.156 18.0156 178.067 18.2666 178.843 18.7665C179.619 19.2665 180.224 19.9916 180.577 20.8448C180.992 21.7546 181.199 22.8323 181.199 24.0778C181.207 24.9338 181.091 25.7864 180.854 26.609C180.648 27.331 180.309 28.0083 179.855 28.6062C179.432 29.1582 178.887 29.6056 178.264 29.9137C177.623 30.2259 176.918 30.3842 176.204 30.3759C175.767 30.3786 175.332 30.3225 174.909 30.2093C174.545 30.1149 174.197 29.9665 173.876 29.769C173.615 29.6065 173.371 29.4183 173.147 29.2071C172.946 29.0149 172.682 28.7258 172.354 28.3398V28.6402C172.354 29.2079 172.219 29.6401 171.95 29.9368C171.82 30.0798 171.661 30.1931 171.484 30.2689C171.307 30.3446 171.115 30.3812 170.922 30.3759C170.731 30.383 170.541 30.3469 170.366 30.2702C170.191 30.1936 170.036 30.0784 169.911 29.9332C169.661 29.6405 169.535 29.2083 169.534 28.6366V15.3787C169.534 14.7632 169.656 14.2978 169.899 13.9823C170.019 13.827 170.174 13.7028 170.352 13.6204C170.53 13.538 170.725 13.4999 170.921 13.5092C171.381 13.5092 171.734 13.6592 171.981 13.9592C172.229 14.2593 172.353 14.6874 172.354 15.2437ZM172.496 24.2676C172.496 25.4766 172.767 26.4055 173.31 27.0542C173.567 27.3696 173.894 27.6214 174.265 27.7902C174.635 27.9589 175.04 28.04 175.447 28.0272C176.197 28.0272 176.843 27.6952 177.387 27.0311C177.93 26.3669 178.201 25.4158 178.2 24.1776C178.217 23.4732 178.101 22.7721 177.861 22.1098C177.672 21.5828 177.339 21.1192 176.9 20.7719C176.482 20.4559 175.971 20.2893 175.447 20.2987C174.903 20.2912 174.371 20.4569 173.928 20.7719C173.457 21.1208 173.094 21.5949 172.879 22.1402C172.609 22.8162 172.479 23.5399 172.496 24.2676Z" fill="white"/>
<path d="M185.091 16.6119C184.699 16.6203 184.319 16.4814 184.025 16.2227C183.73 15.964 183.583 15.5967 183.583 15.1207C183.577 14.9214 183.614 14.7233 183.693 14.5399C183.771 14.3566 183.888 14.1925 184.036 14.0589C184.32 13.7877 184.698 13.638 185.091 13.6417C185.468 13.6381 185.834 13.7727 186.119 14.0199C186.417 14.2713 186.566 14.6362 186.566 15.1146C186.566 15.5833 186.421 15.9482 186.13 16.2093C185.848 16.4721 185.476 16.6163 185.091 16.6119ZM186.566 19.75V28.5282C186.566 29.138 186.424 29.5982 186.139 29.9088C186.004 30.0606 185.837 30.181 185.65 30.2617C185.463 30.3423 185.261 30.3813 185.058 30.3758C184.856 30.3819 184.655 30.342 184.47 30.2592C184.286 30.1764 184.122 30.0529 183.993 29.8978C183.719 29.5783 183.583 29.1218 183.583 28.5282V19.8376C183.583 19.2368 183.719 18.7843 183.993 18.4802C184.126 18.3308 184.29 18.2125 184.475 18.1336C184.659 18.0548 184.858 18.0174 185.058 18.0241C185.26 18.0183 185.462 18.056 185.648 18.1347C185.835 18.2134 186.002 18.3312 186.139 18.4802C186.427 18.7851 186.571 19.2084 186.571 19.75H186.566Z" fill="white"/>
<path d="M189.816 18.2921H190.144V16.4677C190.144 15.9811 190.157 15.5972 190.182 15.3158C190.2 15.0639 190.272 14.8189 190.395 14.5982C190.515 14.3879 190.689 14.2132 190.898 14.0922C191.119 13.9617 191.372 13.8944 191.628 13.8976C192.014 13.9008 192.384 14.057 192.655 14.3318C192.857 14.5197 192.993 14.7674 193.043 15.0385C193.106 15.4301 193.133 15.8266 193.124 16.2232V18.2909H194.219C194.642 18.2909 194.966 18.3931 195.192 18.5974C195.301 18.6963 195.387 18.8177 195.445 18.9531C195.502 19.0886 195.53 19.2349 195.525 19.382C195.525 19.7874 195.367 20.0712 195.05 20.2334C194.733 20.3956 194.279 20.4767 193.69 20.4767H193.132V26.0632C193.127 26.4288 193.143 26.7943 193.182 27.1579C193.203 27.3873 193.295 27.6045 193.443 27.7807C193.585 27.9429 193.816 28.0239 194.138 28.0239C194.377 28.0158 194.615 27.984 194.848 27.9291C195.077 27.8747 195.312 27.8429 195.547 27.8342C195.67 27.8358 195.791 27.8629 195.903 27.9138C196.015 27.9646 196.115 28.0382 196.197 28.1298C196.292 28.2254 196.367 28.3394 196.417 28.4648C196.467 28.5903 196.491 28.7246 196.488 28.8596C196.488 29.3461 196.225 29.7207 195.701 29.9834C195.176 30.2462 194.422 30.3759 193.438 30.3727C192.505 30.3727 191.798 30.2133 191.318 29.8947C190.847 29.5885 190.509 29.1152 190.373 28.5701C190.223 28.0073 190.148 27.2544 190.149 26.3114V20.484H189.755C189.326 20.484 188.997 20.3806 188.772 20.1726C188.662 20.0734 188.574 19.9515 188.516 19.8152C188.457 19.6789 188.429 19.5315 188.433 19.3832C188.429 19.2341 188.459 19.0861 188.521 18.9502C188.582 18.8144 188.674 18.6942 188.788 18.5987C189.022 18.3943 189.364 18.2921 189.816 18.2921Z" fill="white"/>
<path d="M205.902 24.9463H200.064C200.058 25.5779 200.199 26.2022 200.474 26.7707C200.707 27.2605 201.075 27.6736 201.535 27.9615C201.974 28.2281 202.48 28.3667 202.994 28.3617C203.323 28.3649 203.65 28.3219 203.967 28.234C204.269 28.144 204.556 28.0091 204.819 27.8338C205.088 27.658 205.344 27.4624 205.584 27.2488C205.817 27.042 206.12 26.7582 206.491 26.3973C206.678 26.2531 206.911 26.1818 207.147 26.1966C207.418 26.1848 207.684 26.2766 207.89 26.4533C207.987 26.5459 208.063 26.6587 208.112 26.7837C208.161 26.9087 208.183 27.0429 208.174 27.177C208.153 27.5196 208.044 27.851 207.857 28.1391C207.608 28.5484 207.283 28.907 206.901 29.1961C206.417 29.5645 205.873 29.8482 205.294 30.0354C204.577 30.2695 203.825 30.3825 203.071 30.3698C201.155 30.3698 199.665 29.8136 198.601 28.7011C197.536 27.5885 197.005 26.0791 197.006 24.1727C196.999 23.3239 197.131 22.4798 197.399 21.6744C197.64 20.9432 198.031 20.2705 198.547 19.699C199.066 19.1427 199.706 18.7128 200.417 18.4426C201.197 18.1416 202.028 17.9925 202.864 18.0035C204.031 18.0035 205.031 18.2537 205.863 18.754C206.658 19.2143 207.308 19.8886 207.738 20.7001C208.14 21.4443 208.354 22.2758 208.361 23.1218C208.361 23.8856 208.146 24.3807 207.716 24.6069C207.286 24.8331 206.682 24.9463 205.902 24.9463ZM200.064 23.2215H205.477C205.404 22.1828 205.128 21.4055 204.651 20.8898C204.173 20.3741 203.545 20.1167 202.765 20.1175C202.423 20.1082 202.082 20.1735 201.767 20.309C201.452 20.4445 201.17 20.6468 200.941 20.902C200.46 21.4242 200.169 22.1974 200.066 23.2215H200.064Z" fill="white"/>
<path d="M213.835 25.9923V28.5283C213.835 29.1454 213.693 29.6072 213.409 29.9137C213.273 30.0641 213.106 30.1833 212.919 30.2631C212.733 30.3429 212.531 30.3814 212.328 30.3759C212.128 30.3813 211.929 30.3422 211.745 30.2614C211.562 30.1806 211.399 30.0602 211.267 29.9089C210.99 29.5975 210.852 29.1373 210.853 28.5283V20.0725C210.853 18.7077 211.339 18.0254 212.312 18.0254C212.808 18.0254 213.164 18.1847 213.382 18.5034C213.601 18.8221 213.722 19.2932 213.747 19.9168C214.03 19.3873 214.4 18.9094 214.842 18.5034C215.218 18.1847 215.719 18.0254 216.345 18.0254C216.984 18.0286 217.612 18.193 218.17 18.5034C218.759 18.8229 219.055 19.2458 219.055 19.772C219.061 19.943 219.03 20.1132 218.965 20.2714C218.9 20.4297 218.802 20.5724 218.678 20.6904C218.573 20.8018 218.448 20.8914 218.308 20.954C218.168 21.0166 218.018 21.051 217.865 21.0553C217.593 21.0164 217.327 20.9475 217.072 20.8497C216.715 20.7235 216.341 20.6541 215.962 20.6441C215.575 20.6275 215.195 20.752 214.892 20.9944C214.585 21.2749 214.362 21.6349 214.247 22.0344C214.076 22.5659 213.965 23.1151 213.918 23.6716C213.863 24.3065 213.835 25.0801 213.835 25.9923Z" fill="white"/>
<defs>
<linearGradient id="paint0_linear_1064_22928" x1="110.957" y1="12.6301" x2="122.482" y2="24.5476" gradientUnits="userSpaceOnUse">
<stop stop-color="#EF2F2D"/>
<stop offset="1" stop-color="#89272D"/>
</linearGradient>
</defs>
</svg>
