<svg xmlns="http://www.w3.org/2000/svg" xmlns:xlink="http://www.w3.org/1999/xlink" width="1000.573486" height="192.000000" viewBox="0 0 1000.57 192" fill="none">
	<defs>
		<linearGradient x1="43.135059" y1="83.831863" x2="99.123047" y2="139.882858" id="paint_linear_571_15_0" gradientUnits="userSpaceOnUse">
			<stop stop-color="#EF2F2D"/>
			<stop offset="1.000000" stop-color="#89272D"/>
		</linearGradient>
	</defs>
	<path id="Vector 4" d="M131.94 103.55C131.25 95.23 130.04 80.39 129.67 71.4C129.39 63.31 126 55.64 120.21 50.02C114.42 44.41 106.69 41.29 98.66 41.33C90.63 41.29 82.91 44.42 77.12 50.03C71.34 55.64 67.95 63.31 67.67 71.4C67.26 80.94 66 96.97 65.36 104.82C65.31 105.4 65.39 105.98 65.58 106.52C65.77 107.07 66.08 107.56 66.47 107.98C66.87 108.4 67.35 108.72 67.88 108.94C68.41 109.16 68.98 109.26 69.55 109.23C75.21 108.99 85.65 108.64 98.27 108.7C111.22 108.75 122.04 109.17 127.85 109.44C128.42 109.47 129 109.37 129.53 109.15C130.06 108.94 130.54 108.61 130.94 108.19C131.34 107.77 131.64 107.27 131.84 106.73C132.03 106.18 132.1 105.6 132.06 105.02C132.02 104.56 131.98 104.07 131.94 103.55ZM88.49 59.32C91.49 57.3 95.01 56.22 98.62 56.22C103.45 56.23 108.09 58.17 111.51 61.62C114.92 65.07 116.84 69.74 116.84 74.62C116.84 78.25 115.77 81.81 113.77 84.83C111.76 87.86 108.92 90.22 105.59 91.61C102.26 93 98.59 93.36 95.05 92.65C91.52 91.94 88.27 90.19 85.72 87.62C83.17 85.05 81.44 81.77 80.73 78.2C80.03 74.63 80.39 70.93 81.77 67.57C83.15 64.21 85.49 61.34 88.49 59.32Z" fill="url(#paint_linear_571_15_0)" fill-opacity="1.000000" fill-rule="evenodd"/>
	<path id="Vector 3" d="M98.94 64.07C100 65.3 100.59 66.87 100.59 68.49C100.57 69.42 100.37 70.34 100 71.19C99.63 72.04 99.09 72.81 98.43 73.45C97.76 74.1 96.98 74.6 96.12 74.94C95.26 75.28 94.34 75.44 93.42 75.42C92.36 75.43 91.31 75.2 90.34 74.75C89.38 74.3 88.52 73.63 87.84 72.81C87.71 73.46 87.65 74.12 87.64 74.78C87.64 80.7 92.6 85.5 98.71 85.5C104.82 85.5 109.76 80.7 109.76 74.78C109.76 68.86 104.94 64.16 98.94 64.07Z" fill="#FFFFFF" fill-opacity="1.000000" fill-rule="nonzero"/>
	<path id="Vector 2" d="M115.28 52.95C115.14 52.96 115 52.94 114.87 52.89C114.73 52.85 114.61 52.77 114.51 52.68C114.4 52.58 114.32 52.47 114.26 52.34C114.2 52.21 114.16 52.07 114.15 51.93C114.06 49.54 114.49 44.63 120.63 39.28C124.87 35.59 130.77 34.26 138.18 35.31C138.33 35.33 138.46 35.38 138.59 35.46C138.71 35.53 138.81 35.63 138.9 35.74C138.98 35.86 139.04 35.99 139.07 36.13C139.1 36.27 139.11 36.42 139.08 36.56C139.03 36.83 138.89 37.06 138.67 37.22C138.46 37.38 138.19 37.46 137.92 37.43C131.17 36.46 125.87 37.62 122.15 40.85C116.8 45.52 116.32 49.71 116.36 51.86C116.37 52.14 116.26 52.4 116.08 52.61C115.89 52.81 115.56 52.94 115.28 52.95Z" fill="#FFFFFF" fill-opacity="1.000000" fill-rule="nonzero"/>
	<path id="Ellipse 2" d="M136.68 38.54C138.38 38.54 139.75 37.2 139.75 35.55C139.75 33.91 138.38 32.57 136.68 32.57C134.99 32.57 133.61 33.91 133.61 35.55C133.61 37.2 134.99 38.54 136.68 38.54Z" fill="#FFFFFF" fill-opacity="1.000000" fill-rule="nonzero"/>
	<path id="Vector 1" d="M83.16 53.15C83.3 53.16 83.44 53.14 83.58 53.09C83.71 53.05 83.83 52.98 83.94 52.88C84.04 52.79 84.13 52.67 84.19 52.54C84.25 52.41 84.28 52.28 84.29 52.13C84.39 49.68 83.98 44.09 77.81 38.71C73.58 35.02 67.68 33.69 60.26 34.74C60.12 34.76 59.98 34.81 59.86 34.88C59.74 34.96 59.63 35.06 59.55 35.17C59.47 35.29 59.41 35.42 59.37 35.56C59.34 35.7 59.34 35.85 59.36 35.99C59.41 36.26 59.56 36.49 59.77 36.65C59.99 36.81 60.26 36.88 60.52 36.85C67.27 35.89 72.58 37.05 76.3 40.28C81.66 44.95 82.13 49.82 82.06 52.03C82.05 52.31 82.15 52.58 82.33 52.78C82.52 52.99 82.78 53.11 83.05 53.13L83.16 53.15Z" fill="#FFFFFF" fill-opacity="1.000000" fill-rule="nonzero"/>
	<path id="Ellipse 1" d="M62.21 38.54C63.91 38.54 65.28 37.2 65.28 35.55C65.28 33.91 63.91 32.57 62.21 32.57C60.51 32.57 59.14 33.91 59.14 35.55C59.14 37.2 60.51 38.54 62.21 38.54Z" fill="#FFFFFF" fill-opacity="1.000000" fill-rule="nonzero"/>
	<path id="Vector " d="M197.47 147.29C197.47 137.62 173.45 122.25 173.45 122.25L173.18 122.17C173.57 120.54 173.95 119 174.31 117.54C177.52 104.53 179.2 97.75 179.43 88.3C180.01 64.3 174.01 43.98 158.93 26.17C144.91 9.61 122.59 0 98.75 0C73.41 0 53.88 9.74 39.39 25.88C24.89 42.03 17.62 59.54 18.04 88.03C18.16 96.01 19.95 109.4 23.82 121.4L23.55 121.48C23.55 121.48 0 136.56 0 147C0 150.09 12.73 154.01 38.98 155.25L24.34 177.39C23.76 179.28 24.12 181.87 25.69 182.98C27.23 184.01 29 184.64 30.84 184.83C33.63 184.91 34.49 184.1 35.52 182.24L50.22 156.41C65.84 157.03 75.79 157.37 93.66 157.4L93.66 186.96C93.76 188.74 94.51 192 99.25 192C103.55 192 104.29 188.95 104.29 186.96L104.29 157.42C108.78 157.41 112.75 157.42 116.42 157.43C127.39 157.45 135.77 157.47 147.45 157L162.86 181.95C163.14 182.76 163.67 183.45 164.38 183.92C165.09 184.39 165.93 184.61 166.77 184.55C168.27 184.57 169.75 184.17 171.04 183.38C172.78 182.6 172.78 179.72 172.08 177.11L157.56 155.83C182.91 153.7 197.47 149.77 197.47 147.29ZM45.4 144.45C43.04 144.42 40.79 143.44 39.15 141.73C37.51 140.02 36.6 137.72 36.64 135.34C36.64 130.31 40.56 126.8 45.4 126.8C50.23 126.8 54.15 130.31 54.15 135.34C54.18 137.72 53.28 140.02 51.64 141.73C50 143.43 47.75 144.41 45.4 144.45ZM93.64 143.56C95.16 144.52 96.94 145.01 98.73 144.95C101.09 144.92 103.34 143.94 104.98 142.23C106.62 140.52 107.52 138.23 107.49 135.85C107.49 134.03 106.95 132.26 105.95 130.75C104.94 129.25 103.52 128.08 101.85 127.4C100.18 126.72 98.35 126.55 96.59 126.93C94.83 127.3 93.22 128.2 91.97 129.5C90.72 130.8 89.88 132.45 89.57 134.24C89.25 136.02 89.47 137.87 90.19 139.53C90.92 141.19 92.12 142.59 93.64 143.56ZM152.07 145.46C150.27 145.52 148.5 145.03 146.97 144.06C145.45 143.1 144.25 141.69 143.53 140.03C142.8 138.37 142.58 136.53 142.9 134.75C143.22 132.96 144.05 131.31 145.31 130.01C146.56 128.71 148.17 127.81 149.92 127.44C151.69 127.06 153.52 127.22 155.18 127.91C156.85 128.59 158.28 129.76 159.28 131.26C160.28 132.77 160.82 134.54 160.82 136.35C160.86 138.73 159.95 141.03 158.31 142.74C156.67 144.44 154.42 145.42 152.07 145.46ZM102.09 114.7C125.76 114.69 149.34 114.69 165.5 118.84C165.73 117.91 166 116.9 166.29 115.81C168.16 108.74 170.91 98.37 171.38 87.18C173.14 46.15 144.74 7.19 98.73 7.19C52.72 7.19 25.24 46.12 26.55 87.18C26.84 96.01 29.05 107.41 31.87 118.84C48.44 114.53 68.43 114.6 89.87 114.68C92.8 114.69 95.75 114.71 98.73 114.71C99.85 114.71 100.97 114.7 102.09 114.7Z" fill="#FFFFFF" fill-opacity="1.000000" fill-rule="evenodd"/>
	<path id="Union" d="M361.22 85.66C361.24 86.09 361.36 86.13 361.58 85.76C364.78 80.54 368.9 77.35 373.95 76.19C378.07 75.24 382.17 75.62 386.25 77.34C390.34 79.07 393.55 82.02 395.87 86.21C397.93 89.89 399.27 93.83 399.91 98.02C400.52 102.03 400.73 106.14 400.55 110.35C400.32 115.56 399.04 120.43 396.7 124.96C393.8 130.61 389.87 134.41 384.89 136.35C379.22 138.57 373.23 138.06 366.92 134.81C364.85 133.74 363.29 132.04 362.24 129.72C362.05 129.29 361.77 129 361.51 128.96C361.08 128.87 360.9 129.33 360.99 130.34C361.3 133.75 359.88 135.88 356.72 136.73C352.98 137.75 350.24 137.11 348.51 134.81C347.49 133.45 346.98 131.1 346.98 127.76L346.98 62.55C346.98 59.79 347.47 57.73 348.46 56.36C350.12 54.06 352.46 53.23 355.46 53.87C357.48 54.3 358.96 55.25 359.9 56.71C360.78 58.05 361.15 59.62 361.01 61.41C360.92 62.64 360.87 63.31 360.87 63.4C360.72 70.99 360.84 78.41 361.22 85.66ZM362.81 96.28C360.58 102.18 360.1 108.23 361.37 114.45C362.11 118.07 363.23 120.78 364.74 122.58C366.89 125.14 369.86 126.3 373.66 126.07C380.02 125.67 383.96 122.24 385.48 115.76C386.95 109.6 386.89 103.47 385.31 97.36C384.04 92.45 381.03 89.39 376.29 88.2C372.86 87.32 369.91 87.76 367.44 89.49C365.56 90.81 364.02 93.07 362.81 96.28ZM283.89 71.35C286.99 76 289 81.45 289.92 87.7C291.29 97.01 290.92 105.54 288.81 113.28C285.98 123.63 280.32 130.81 271.82 134.82C265.2 137.95 257.8 138.85 249.63 137.53C235.15 135.19 226.18 125.86 222.71 109.51C221.11 101.96 221.06 94.4 222.54 86.83C224.17 78.46 227.12 71.94 231.37 67.28C236.46 61.69 243.39 58.45 252.16 57.57C259.14 56.86 265.46 57.8 271.13 60.4C276.39 62.81 280.64 66.46 283.89 71.35ZM268.99 74.54C266.3 71.99 263.34 70.5 260.11 70.07C252.03 68.99 245.92 71.06 241.79 76.28C238.86 79.97 237.02 85.16 236.27 91.84C235.65 97.29 235.94 102.92 237.12 108.73C238.38 114.96 241.26 119.56 245.76 122.52C250.09 125.37 254.95 126.33 260.34 125.39C265.06 124.56 268.81 122.2 271.62 118.31C273.71 115.39 275.17 111.45 275.99 106.5C277.18 99.3 276.85 92.07 275 84.82C273.98 80.79 271.98 77.37 268.99 74.54ZM636.03 103.4L635.97 132.24C635.97 133.97 635.2 135.22 633.67 135.99C630.95 137.37 628.14 137.52 625.26 136.44C623.88 135.92 622.96 135.15 622.49 134.13C622.01 133.11 621.77 131.85 621.77 130.33C621.77 108.83 621.76 87.32 621.73 65.81C621.72 63.01 622.72 61.15 624.71 60.21C625.66 59.77 627.51 59.56 630.27 59.56L663.79 59.56C666.6 59.56 668.33 60.97 668.97 63.81C669.73 67.18 669 69.51 666.79 70.79C665.65 71.45 663.6 71.78 660.63 71.78L636.6 71.78C636.25 71.78 635.97 72.06 635.97 72.41L635.97 89.29C635.97 89.54 636.07 89.79 636.25 89.97C636.43 90.15 636.68 90.25 636.93 90.25C644.71 90.25 652.24 90.32 659.53 90.46C664.18 90.54 666.26 93.03 665.77 97.93C665.62 99.49 665.03 100.65 664 101.41C663.33 101.91 662.18 102.21 660.54 102.32C652.58 102.82 644.6 103 636.61 102.84C636.46 102.84 636.31 102.89 636.21 103C636.1 103.1 636.03 103.25 636.03 103.4ZM460.45 90.21C460.57 90.1 460.74 90.04 460.92 90.05C464.51 90.29 468.17 90.38 471.89 90.32C473.64 90.29 475.07 89.77 476.18 88.76C477.13 87.89 477.7 86.61 477.87 84.92C478.07 83.04 477.85 81.43 477.2 80.1C476.34 78.34 474.93 77.46 472.98 77.46L464.6 77.46C464.52 77.46 463.9 77.51 462.73 77.62C460.71 77.8 459.88 76.61 460.25 74.05C461.34 66.49 458.11 63.48 450.57 65.01C448.04 65.53 446.74 66.79 446.67 68.79L446.39 75.65C446.37 76.23 446.12 76.77 445.71 77.14C445.3 77.5 444.78 77.65 444.27 77.55C442.44 77.2 440.84 77.33 439.48 77.94C438.14 78.55 437.32 79.72 437.04 81.46C436.76 83.09 436.81 84.71 437.18 86.31C437.59 88.04 438.45 89.2 439.77 89.76C441.11 90.34 442.7 90.45 444.57 90.1C445.01 90.02 445.46 90.14 445.8 90.43C446.14 90.72 446.34 91.15 446.34 91.59C446.31 100.76 446.32 109.65 446.37 118.26C446.4 123.59 446.78 127.19 447.52 129.05C449.04 132.94 452.08 135.43 456.62 136.52C461.2 137.61 465.99 137.44 470.98 136.02C473.13 135.4 474.76 134.61 475.87 133.65C477.3 132.42 478.32 130.83 478.93 128.89C479.73 126.31 479.48 124.24 478.18 122.67C476.94 121.17 475.53 121 473.95 122.16C470.77 124.48 467.24 125.31 463.36 124.65C462 124.41 461.18 123.62 460.88 122.28C460.27 119.51 459.99 116.7 460.04 113.85C460.18 106.27 460.25 98.54 460.25 90.67C460.25 90.5 460.32 90.33 460.45 90.21ZM317.43 87.75C319.6 83.6 322.28 80.29 325.47 77.81C327.16 76.51 329.31 75.75 331.91 75.54C334.9 75.3 336.73 76.58 337.38 79.38C337.99 81.95 337.69 84.13 336.49 85.93C335.73 87.07 334.67 87.65 333.32 87.68C325.46 87.87 320.36 91.48 318.02 98.5C317.49 100.07 317.2 102.44 317.15 105.6C316.98 114.19 316.9 122.77 316.89 131.35C316.89 132.87 316.58 133.99 315.96 134.72C315.18 135.64 314.09 136.29 312.7 136.65C308.72 137.71 305.7 136.68 303.64 133.57C303.44 133.28 303.33 132.92 303.33 132.54C303.25 115.79 303.22 99.04 303.26 82.29C303.27 80.1 304.2 78.57 306.04 77.71C308.7 76.48 311.24 76.39 313.66 77.46C315.1 78.09 316.09 79.07 316.62 80.39C317.16 81.77 317.25 83.25 316.89 84.85C316.65 85.92 316.67 86.88 316.96 87.74C317.09 88.12 317.24 88.12 317.43 87.75ZM493.06 84.18C497.72 78.66 503.71 75.76 511.05 75.47C518.23 75.19 523.98 77.3 528.3 81.81C531.35 84.98 533.5 89.18 534.75 94.39C535.94 99.42 535.9 104.29 534.62 109.01C533.97 111.41 532.29 112.5 529.58 112.3C528.02 112.19 527.21 112.13 527.15 112.13C518.26 112.05 509.38 112.11 500.49 112.33C500.16 112.34 499.9 112.6 499.89 112.91C499.55 120.08 502.7 124.37 509.36 125.78C515.1 127 520.1 125.58 524.36 121.51C525.72 120.2 526.95 119.49 528.05 119.36C530.54 119.07 532.42 120.1 533.7 122.44C534.87 124.58 534.53 126.84 532.68 129.23C529.22 133.73 524.68 136.52 519.04 137.61C515.01 138.38 511.03 138.44 507.12 137.78C502.89 137.07 499.3 135.57 496.34 133.29C491.87 129.82 488.83 124.86 487.22 118.39C485.43 111.25 485.43 103.86 487.22 96.22C488.31 91.52 490.26 87.5 493.06 84.18ZM502.24 92.49C500.49 95.15 499.64 97.93 499.69 100.84C499.71 101.42 500.17 101.89 500.74 101.88L519.88 101.77C521.41 101.76 522.08 100.98 521.87 99.42C520.76 90.93 516.68 87.11 509.64 87.95C506.45 88.32 503.99 89.83 502.24 92.49ZM561.95 85.86C563.15 83.52 565.42 80.93 568.76 78.1C570.39 76.72 572.44 75.88 574.91 75.57C576.96 75.32 578.55 75.79 579.69 76.98C580.62 77.96 581.15 79.34 581.26 81.11C581.37 82.83 581.04 84.33 580.26 85.62C579.46 86.95 578.29 87.63 576.75 87.67C569.83 87.86 564.99 90.83 562.23 96.57C560.77 99.63 560.1 103.97 560.22 109.58C560.38 116.59 560.46 123.6 560.46 130.62C560.46 133.98 559.07 136.03 556.3 136.78C552.92 137.68 550.26 137.06 548.33 134.92C547.38 133.87 546.9 132.32 546.89 130.27C546.79 114.54 546.79 98.8 546.89 83.07C546.89 81.06 547.36 79.61 548.29 78.71C549.46 77.59 551.03 76.96 553.01 76.83C558.68 76.43 561.14 79.29 560.39 85.39C560 88.53 560.52 88.69 561.95 85.86ZM723.69 84.85C723.46 85.32 723.19 85.62 722.88 85.78C722.49 86 722.36 85.86 722.48 85.37C723.33 81.96 722.6 79.48 720.29 77.95C718.96 77.06 717.36 76.65 715.5 76.71C713.62 76.78 711.99 77.33 710.6 78.36C709.48 79.19 708.92 80.29 708.92 81.68L708.99 132.54C708.99 132.92 709.11 133.29 709.32 133.58C711.74 137.01 715.11 137.91 719.44 136.29C721.51 135.51 722.55 134.01 722.55 131.8C722.55 121.25 722.59 110.53 722.66 99.63C722.71 92.36 726.43 88.45 733.84 87.91C737.93 87.61 740.96 88.73 742.93 91.27C743.88 92.49 744.53 94.24 744.9 96.52C745.2 98.39 745.35 100.28 745.34 102.19C745.29 110.98 745.27 119.76 745.26 128.55C745.26 131.32 745.31 132.89 745.4 133.24C745.83 135 747.09 136.17 749.19 136.75C752.01 137.53 754.54 137.24 756.8 135.86C758.19 135 758.89 133.75 758.89 132.12L758.89 103.42C758.89 95.48 758.29 90 757.1 86.98C754.56 80.53 749.54 76.85 742.04 75.95C738.02 75.47 734.56 75.85 731.63 77.11C728.15 78.61 725.5 81.19 723.69 84.85ZM814.1 76.94C810.1 77.49 808.37 79.99 808.92 84.45C809.14 86.29 808.8 86.4 807.9 84.8C804.06 78.02 798.33 75.07 790.7 75.94C780.92 77.05 774.52 82.26 771.48 91.56C768.68 100.14 768.26 108.55 770.22 116.8C771.98 124.19 775.15 129.72 779.73 133.38C785.43 137.93 792.46 138.89 800.83 136.23C803.86 135.27 806.09 133.1 807.52 129.72C807.61 129.5 807.74 129.32 807.91 129.18C808.57 128.67 808.82 128.75 808.66 129.44C808.6 129.71 808.56 129.93 808.55 130.1C808.51 134.75 810.88 137.08 815.66 137.1C820.39 137.11 822.76 134.86 822.76 130.33L822.76 87.57L822.76 82.73C822.52 80.83 821.71 79.35 820.31 78.29C818.67 77.06 816.6 76.6 814.1 76.94ZM783.68 100.57C784.09 97.58 785.19 94.89 786.98 92.49C789.71 88.82 793.41 87.32 798.06 87.99C800.2 88.29 802.01 89.1 803.49 90.42C804.66 91.45 805.69 93.05 806.58 95.22C808.62 100.2 809.39 105.35 808.88 110.67C808.46 115.11 807.62 118.49 806.37 120.79C804.39 124.46 800.96 126.22 796.07 126.07C792.01 125.95 788.87 124.37 786.66 121.35C785.09 119.2 784.06 116.13 783.57 112.13C783.1 108.3 783.14 104.45 783.68 100.57ZM856.63 77.34C853.26 78.97 850.72 81.66 849.04 85.39C848.96 85.56 848.83 85.69 848.68 85.76C848.53 85.82 848.38 85.81 848.27 85.72C848.04 85.5 847.96 85.12 848.02 84.57C848.71 78.82 846.15 76.24 840.35 76.83C836.96 77.16 834.99 78.66 834.44 81.33C834.41 81.48 834.4 83.65 834.4 87.83L834.4 127.76C834.4 130.75 834.46 132.46 834.57 132.89C835.08 134.77 836.52 136.02 838.87 136.65C842.14 137.52 844.7 136.99 846.56 135.06C847.49 134.09 847.96 132.63 847.97 130.68C848.03 121.28 847.98 111.87 847.83 102.48C847.77 98.53 848.33 95.43 849.51 93.16C851.31 89.72 854.13 87.92 857.98 87.75C860.67 87.63 862.92 87.82 864.74 88.33C867.33 89.05 869.02 90.85 869.82 93.73C870.7 96.97 871.09 101.02 871 105.89C870.82 114.41 870.71 122.94 870.67 131.47C870.65 134.29 872.19 136.03 875.29 136.71C876.98 137.08 878.66 137.09 880.35 136.73C882.89 136.19 884.17 134.53 884.19 131.75C884.27 122.65 884.33 113.55 884.35 104.45C884.37 95.95 883.79 90.15 882.6 87.06C880.03 80.39 874.8 76.66 866.93 75.87C862.9 75.46 859.47 75.95 856.63 77.34ZM908.68 79.28C914.29 75.91 920.78 74.88 928.16 76.2C931.88 76.87 935.28 78.3 938.37 80.49C942.09 83.12 943.68 86.47 943.13 90.54C942.88 92.35 941.65 93.77 939.43 94.8C936.88 95.98 934.68 95.25 932.84 92.6C931.23 90.31 929.04 88.83 926.25 88.17C923.74 87.58 921.25 87.71 918.76 88.57C915.01 89.85 912.26 92.49 910.52 96.48C907.34 103.76 907.25 110.76 910.26 117.47C911.53 120.28 913.51 122.47 916.21 124.06C918.85 125.61 921.58 126.23 924.4 125.92C927.71 125.56 930.81 124.07 933.69 121.45C935.6 119.71 937.91 119.52 940.61 120.89C944.5 122.88 945.29 125.8 942.99 129.65C941.99 131.35 940.65 132.73 938.98 133.79C933.42 137.31 927.32 138.79 920.67 138.21C906.37 136.97 897.87 129.22 895.15 114.98C893.66 107.21 894.28 100.04 896.99 93.47C899.58 87.16 903.48 82.43 908.68 79.28ZM965.01 112.78C964.65 117.63 966.08 121.21 969.32 123.52C972.1 125.51 975.47 126.36 979.43 126.08C983.32 125.81 986.67 124.21 989.47 121.3C991.34 119.36 993.36 118.91 995.54 119.94C998.43 121.31 999.64 123.25 999.19 125.76C998.9 127.35 997.89 129.03 996.16 130.8C991.08 135.97 984.46 138.39 976.27 138.07C963.28 137.57 955.26 131 952.21 118.39C950.34 110.65 950.37 103.18 952.3 95.99C954.05 89.5 956.99 84.53 961.1 81.1C965.85 77.14 971.78 75.35 978.9 75.72C988.11 76.21 994.43 80.66 997.86 89.09C1000.57 95.76 1001.25 102.21 999.9 108.44C999.34 111.07 997.54 112.36 994.51 112.31C984.88 112.17 975.26 112.13 965.63 112.21C965.3 112.21 965.03 112.46 965.01 112.78ZM977.57 87.73C973.06 87.36 969.6 88.93 967.19 92.46C965.45 95.01 964.63 97.95 964.75 101.26C964.76 101.59 965.02 101.85 965.34 101.85L986.35 101.71C986.67 101.71 986.93 101.46 986.94 101.13C986.97 99.72 986.75 97.89 986.28 95.65C985.26 90.77 982.35 88.13 977.57 87.73ZM419.21 70.99C423.31 70.99 426.64 67.66 426.64 63.56C426.64 59.45 423.31 56.12 419.21 56.12C415.11 56.12 411.78 59.45 411.78 63.56C411.78 67.66 415.11 70.99 419.21 70.99ZM418.76 76.7C415.18 76.7 412.27 79.6 412.27 83.19L412.27 130.61C412.27 134.19 415.18 137.1 418.76 137.1L419.68 137.1C423.27 137.1 426.17 134.19 426.17 130.61L426.17 83.19C426.17 79.6 423.27 76.7 419.68 76.7L418.76 76.7ZM694.9 63.58C694.9 67.69 691.58 71.01 687.47 71.01C683.37 71.01 680.05 67.69 680.05 63.58C680.05 59.47 683.37 56.14 687.47 56.14C691.58 56.14 694.9 59.47 694.9 63.58ZM680.55 83.23C680.55 79.63 683.47 76.71 687.07 76.71L687.92 76.71C691.53 76.71 694.45 79.63 694.45 83.23L694.45 130.59C694.45 134.19 691.53 137.11 687.92 137.11L687.07 137.11C683.47 137.11 680.55 134.19 680.55 130.59L680.55 83.23Z" fill="#FFFFFF" fill-opacity="1.000000" fill-rule="evenodd"/>
</svg>