<svg t="1666259579340" class="icon" viewBox="0 0 1024 1024" version="1.1" xmlns="http://www.w3.org/2000/svg" p-id="6254" width="200" height="200"><path d="M466.589 96c201.909 0 365.588 163.694 365.588 365.62 0 93.184-34.857 178.225-92.241 242.795a32.196 32.196 0 0 1 2.485 2.243l171.122 171.188c12.613 12.618 12.61 33.073-0.01 45.686l-0.011 0.012c-12.634 12.616-33.101 12.606-45.724-0.02L696.676 752.334a32.542 32.542 0 0 1-3.337-3.91c-62.312 49.352-141.09 78.815-226.75 78.815C264.679 827.24 101 663.547 101 461.62 101 259.694 264.68 96 466.589 96z m0 66.203c-165.35 0-299.392 134.054-299.392 299.417 0 165.364 134.042 299.417 299.392 299.417 165.349 0 299.391-134.053 299.391-299.417 0-165.363-134.042-299.417-299.391-299.417z m10.917 136.14c16.272 0 29.508 13.005 29.883 29.188l0.008 0.706-0.001 122.448h118.99c16.508 0 29.89 13.384 29.89 29.894 0 16.273-13.002 29.51-29.185 29.885l-0.705 0.008h-118.99v121.299c0 16.51-13.382 29.893-29.89 29.893-16.272 0-29.508-13.004-29.883-29.188l-0.008-0.705V510.472H322.878c-16.508 0-29.89-13.384-29.89-29.893 0-16.274 13.002-29.51 29.185-29.886l0.705-0.008h124.737V328.237c0-16.51 13.383-29.894 29.891-29.894z" fill="#ff3366" opacity=".8" p-id="6255"></path></svg>