<svg width="25" height="24" viewBox="0 0 25 24" fill="none" xmlns="http://www.w3.org/2000/svg">
<path d="M19.4569 5.68491C19.4513 5.67416 19.4421 5.66575 19.4309 5.66116C18.1342 5.0678 16.7658 4.64468 15.3599 4.40241C15.3472 4.40004 15.334 4.40175 15.3222 4.40729C15.3105 4.41283 15.3008 4.42192 15.2945 4.43328C15.1082 4.77057 14.939 5.11703 14.7877 5.47133C13.2723 5.2419 11.7308 5.2419 10.2154 5.47133C10.0631 5.11613 9.89121 4.76958 9.7006 4.43328C9.69406 4.42217 9.68432 4.41329 9.67265 4.40778C9.66098 4.40227 9.64791 4.4004 9.63516 4.40241C8.22916 4.64417 6.86067 5.06732 5.56412 5.6612C5.55302 5.66589 5.54366 5.6739 5.53732 5.68413C2.94449 9.54588 2.23421 13.3127 2.58265 17.0328C2.58363 17.042 2.58644 17.0508 2.59091 17.0588C2.59538 17.0668 2.60142 17.0739 2.60867 17.0795C4.11845 18.1944 5.80716 19.0454 7.60273 19.5962C7.61538 19.6 7.62888 19.5998 7.64143 19.5957C7.65397 19.5916 7.66496 19.5838 7.6729 19.5733C8.05855 19.05 8.40027 18.4958 8.69457 17.9164C8.69862 17.9085 8.70093 17.8997 8.70135 17.8908C8.70177 17.8819 8.7003 17.873 8.69702 17.8647C8.69375 17.8565 8.68875 17.8489 8.68235 17.8427C8.67595 17.8365 8.66831 17.8317 8.65991 17.8286C8.12106 17.623 7.59938 17.3751 7.09977 17.0873C7.0907 17.082 7.08308 17.0745 7.07758 17.0655C7.07208 17.0566 7.06888 17.0464 7.06826 17.0359C7.06764 17.0255 7.06962 17.015 7.07401 17.0055C7.07841 16.9959 7.0851 16.9876 7.09348 16.9813C7.19861 16.9029 7.30191 16.8222 7.40331 16.7391C7.41221 16.7318 7.42297 16.7272 7.43438 16.7256C7.4458 16.7241 7.45742 16.7258 7.46794 16.7305C10.741 18.2203 14.2846 18.2203 17.519 16.7305C17.5295 16.7255 17.5413 16.7235 17.5529 16.7249C17.5644 16.7263 17.5754 16.731 17.5844 16.7384C17.6859 16.8219 17.7895 16.9029 17.895 16.9813C17.9035 16.9875 17.9102 16.9958 17.9147 17.0053C17.9192 17.0148 17.9212 17.0253 17.9207 17.0357C17.9201 17.0462 17.917 17.0564 17.9116 17.0654C17.9061 17.0744 17.8986 17.0819 17.8895 17.0873C17.3911 17.3775 16.8689 17.6253 16.3286 17.8278C16.3203 17.831 16.3126 17.8359 16.3063 17.8423C16.2999 17.8486 16.295 17.8562 16.2918 17.8645C16.2886 17.8729 16.2872 17.8818 16.2877 17.8908C16.2881 17.8997 16.2905 17.9085 16.2946 17.9164C16.5939 18.4926 16.9351 19.046 17.3155 19.5724C17.3232 19.5832 17.3342 19.5913 17.3468 19.5955C17.3594 19.5998 17.373 19.6 17.3857 19.5961C19.1845 19.0472 20.8761 18.1961 22.3878 17.0795C22.3952 17.0741 22.4013 17.0673 22.4058 17.0594C22.4103 17.0515 22.413 17.0427 22.4138 17.0336C22.831 12.7327 21.7155 8.9968 19.4569 5.68491ZM9.18339 14.7677C8.19794 14.7677 7.38597 13.8657 7.38597 12.7581C7.38597 11.6504 8.18219 10.7484 9.18339 10.7484C10.1924 10.7484 10.9965 11.6583 10.9808 12.758C10.9808 13.8657 10.1845 14.7677 9.18339 14.7677ZM15.829 14.7677C14.8436 14.7677 14.0316 13.8657 14.0316 12.7581C14.0316 11.6504 14.8278 10.7484 15.829 10.7484C16.8381 10.7484 17.6422 11.6583 17.6264 12.758C17.6264 13.8657 16.8381 14.7677 15.829 14.7677Z" fill="white" fill-opacity="0.4"/>
</svg>
