<?xml version="1.0" encoding="utf-8"?>
<!-- Generator: Adobe Illustrator 25.4.1, SVG Export Plug-In . SVG Version: 6.00 Build 0)  -->
<svg version="1.1" id="Layer_1" xmlns="http://www.w3.org/2000/svg" xmlns:xlink="http://www.w3.org/1999/xlink" x="0px" y="0px"
	 viewBox="0 0 161 41" style="enable-background:new 0 0 161 41;" xml:space="preserve">
<style type="text/css">
	.st0{fill:#FFFFFF;}
	.st1{fill:url(#SVGID_1_);}
	.st2{fill:#FFFFFF;stroke:#FFFFFF;stroke-width:0.25;stroke-miterlimit:10;}
</style>
<g>
	<path class="st0" d="M156,13h-24c-2.8,0-5,2.2-5,5v10c0,2.8,2.2,5,5,5h24c2.8,0,5-2.2,5-5V18C161,15.2,158.8,13,156,13z M140.6,29
		h-1.4l-3.2-8.7h1.5l2.4,7h0.1l2.4-7h1.5L140.6,29z M149.5,29h-1.4V18.8h-0.1l-2.8,1.9v-1.4l2.9-1.9h1.4V29z"/>
</g>
<linearGradient id="SVGID_1_" gradientUnits="userSpaceOnUse" x1="15.0456" y1="24.5304" x2="26.5389" y2="12.6464">
	<stop  offset="0" style="stop-color:#FF0000"/>
	<stop  offset="1" style="stop-color:#C30000"/>
</linearGradient>
<path class="st1" d="M27.3,15.9c0.1,2,0.4,5.4,0.5,7c0,0.1,0,0.2,0,0.4c0,0.1-0.1,0.2-0.2,0.3c-0.1,0.1-0.2,0.2-0.3,0.2
	c-0.1,0-0.2,0.1-0.4,0.1c-1.2-0.1-3.5-0.1-6.2-0.2c-2.7,0-4.8,0.1-6,0.1c-0.1,0-0.2,0-0.4-0.1c-0.1,0-0.2-0.1-0.3-0.2
	c-0.1-0.1-0.1-0.2-0.2-0.3c0-0.1-0.1-0.2,0-0.4c0.1-1.6,0.4-5,0.5-7c0.1-1.7,0.8-3.3,2-4.5c1.2-1.2,2.8-1.8,4.5-1.8
	c1.7,0,3.3,0.6,4.5,1.8C26.5,12.6,27.2,14.2,27.3,15.9z"/>
<path class="st0" d="M20.7,12.7c-0.8,0-1.5,0.2-2.1,0.6c-0.6,0.4-1.1,1-1.4,1.7c-0.3,0.7-0.4,1.5-0.2,2.2c0.1,0.7,0.5,1.4,1,2
	c0.5,0.5,1.2,0.9,2,1c0.7,0.1,1.5,0.1,2.2-0.2c0.7-0.3,1.3-0.8,1.7-1.4c0.4-0.6,0.6-1.4,0.6-2.1c0-1-0.4-2-1.1-2.7
	C22.7,13.1,21.7,12.7,20.7,12.7L20.7,12.7z"/>
<path d="M20.8,14.3c0.2,0.3,0.3,0.6,0.3,0.9c0,0.2,0,0.4-0.1,0.6c-0.1,0.2-0.2,0.3-0.3,0.5c-0.1,0.1-0.3,0.2-0.5,0.3
	c-0.2,0.1-0.4,0.1-0.6,0.1c-0.2,0-0.4,0-0.6-0.1c-0.2-0.1-0.4-0.2-0.5-0.4c0,0.1,0,0.3,0,0.4c0,1.2,1,2.2,2.3,2.2
	c1.3,0,2.3-1,2.3-2.2C23.1,15.3,22.1,14.4,20.8,14.3z"/>
<path class="st0" d="M41.5,31.7c0-2-5-5.2-5-5.2l-0.1,0c0.8-3.4,1.3-4.9,1.3-7.1c0.1-5-1.1-9.2-4.3-12.9C30.5,3,25.8,1,20.8,1
	c-5.3,0-9.4,2-12.5,5.4c-3,3.4-4.6,7-4.5,12.9c0,1.7,0.4,4.5,1.2,7l-0.1,0c0,0-5,3.1-5,5.3c0,0.6,2.7,1.5,8.2,1.7L5.1,38
	c-0.1,0.4,0,0.9,0.3,1.2c0.3,0.2,0.7,0.3,1.1,0.4c0.6,0,0.8-0.2,1-0.5l3.1-5.4c3.3,0.1,5.4,0.2,9.1,0.2v6.2c0,0.4,0.2,1,1.2,1
	c0.9,0,1.1-0.6,1.1-1v-6.2c3.8,0,5.8,0,9.1-0.1l3.2,5.2c0.1,0.2,0.2,0.3,0.3,0.4c0.1,0.1,0.3,0.1,0.5,0.1c0.3,0,0.6-0.1,0.9-0.2
	c0.4-0.2,0.4-0.8,0.2-1.3l-3.1-4.4C38.4,33,41.5,32.2,41.5,31.7z M9.5,31.1c-0.5,0-1-0.2-1.3-0.6c-0.3-0.4-0.5-0.8-0.5-1.3
	c0-1,0.8-1.8,1.8-1.8c1,0,1.8,0.7,1.8,1.8c0,0.5-0.2,1-0.5,1.3C10.5,30.9,10,31.1,9.5,31.1z M20.8,31.2c-0.4,0-0.8-0.1-1.1-0.3
	c-0.3-0.2-0.6-0.5-0.7-0.8c-0.2-0.3-0.2-0.7-0.1-1.1c0.1-0.4,0.2-0.7,0.5-1c0.3-0.3,0.6-0.5,1-0.5c0.4-0.1,0.8,0,1.1,0.1
	c0.4,0.1,0.7,0.4,0.9,0.7c0.2,0.3,0.3,0.7,0.3,1.1c0,0.5-0.2,1-0.5,1.3C21.7,31,21.3,31.2,20.8,31.2z M32,31.3
	c-0.4,0-0.8-0.1-1.1-0.3c-0.3-0.2-0.6-0.5-0.7-0.8C30,29.8,30,29.4,30,29.1c0.1-0.4,0.2-0.7,0.5-1c0.3-0.3,0.6-0.5,1-0.5
	c0.4-0.1,0.8,0,1.1,0.1s0.7,0.4,0.9,0.7c0.2,0.3,0.3,0.7,0.3,1.1c0,0.5-0.2,1-0.5,1.3C32.9,31.1,32.5,31.3,32,31.3z M34.8,25.8
	c-3.6-0.9-8.8-0.9-14-0.9s-10.1-0.2-14.1,0.9c-0.6-2.4-1.1-4.8-1.1-6.6C5.3,10.6,11.1,2.5,20.8,2.5S36.4,10.6,36,19.2
	C35.9,21.8,35.2,24.3,34.8,25.8z"/>
<path class="st0" d="M53.3,13.5c1.7,0,3.1,0.3,4.3,1c1.2,0.7,2.1,1.7,2.7,2.9c0.6,1.3,0.9,2.8,0.9,4.5c0,1.2-0.2,2.3-0.5,3.4
	c-0.3,1-0.8,1.9-1.5,2.7c-0.7,0.8-1.5,1.4-2.5,1.7c-1,0.4-2.1,0.6-3.4,0.6c-1.2,0-2.3-0.2-3.4-0.6c-0.9-0.4-1.8-1-2.5-1.7
	c-0.7-0.8-1.2-1.7-1.5-2.7c-0.3-1.1-0.5-2.3-0.5-3.4c0-1.2,0.2-2.3,0.5-3.4c0.3-1,0.8-1.9,1.5-2.7c0.7-0.7,1.5-1.3,2.4-1.7
	C51.1,13.7,52.2,13.5,53.3,13.5z M57.9,21.9c0-1.2-0.2-2.2-0.6-3.1c-0.4-0.9-0.9-1.5-1.6-2c-0.7-0.5-1.6-0.7-2.4-0.7
	c-0.6,0-1.2,0.1-1.8,0.4c-0.6,0.2-1,0.6-1.4,1.1c-0.4,0.5-0.8,1.2-0.9,1.8c-0.2,0.8-0.4,1.6-0.3,2.5c0,0.9,0.1,1.7,0.3,2.5
	c0.2,0.7,0.5,1.3,1,1.9c0.4,0.5,0.9,0.9,1.4,1.1c0.7,0.3,1.4,0.4,2.1,0.4c0.7,0,1.4-0.3,2-0.6c0.7-0.4,1.2-1.1,1.7-2
	C57.7,24.3,57.9,23.2,57.9,21.9L57.9,21.9z"/>
<path class="st0" d="M66.8,26v2.5c0,0.6-0.1,1.1-0.4,1.4c-0.1,0.2-0.3,0.3-0.5,0.3c-0.2,0.1-0.4,0.1-0.6,0.1c-0.2,0-0.4,0-0.6-0.1
	c-0.2-0.1-0.3-0.2-0.5-0.4c-0.3-0.3-0.4-0.8-0.4-1.4v-8.5c0-1.4,0.5-2,1.5-2c0.5,0,0.9,0.2,1.1,0.5c0.2,0.3,0.3,0.8,0.4,1.4
	c0.3-0.5,0.7-1,1.1-1.4c0.4-0.3,0.9-0.5,1.5-0.5c0.6,0,1.3,0.2,1.8,0.5c0.6,0.3,0.9,0.7,0.9,1.3c0,0.2,0,0.3-0.1,0.5
	c-0.1,0.2-0.2,0.3-0.3,0.4c-0.1,0.1-0.2,0.2-0.4,0.3c-0.1,0.1-0.3,0.1-0.4,0.1c-0.3,0-0.5-0.1-0.8-0.2c-0.4-0.1-0.7-0.2-1.1-0.2
	c-0.4,0-0.8,0.1-1.1,0.4c-0.3,0.3-0.5,0.6-0.6,1c-0.2,0.5-0.3,1.1-0.3,1.6C66.8,24.3,66.8,25.1,66.8,26z"/>
<path class="st0" d="M76.4,15.2v4.6c0.5-0.5,1.1-1,1.7-1.4c0.6-0.3,1.3-0.5,2.2-0.5c0.9,0,1.8,0.2,2.6,0.7c0.8,0.5,1.4,1.2,1.7,2.1
	c0.4,0.9,0.6,2,0.6,3.2c0,0.9-0.1,1.7-0.3,2.5c-0.2,0.7-0.5,1.4-1,2c-0.4,0.6-1,1-1.6,1.3c-0.6,0.3-1.3,0.5-2.1,0.5
	c-0.4,0-0.9-0.1-1.3-0.2c-0.4-0.1-0.7-0.2-1-0.4c-0.3-0.2-0.5-0.4-0.7-0.6c-0.2-0.2-0.5-0.5-0.8-0.9v0.3c0,0.6-0.1,1-0.4,1.3
	c-0.1,0.1-0.3,0.3-0.5,0.3c-0.2,0.1-0.4,0.1-0.6,0.1c-0.2,0-0.4,0-0.6-0.1c-0.2-0.1-0.3-0.2-0.5-0.3c-0.3-0.3-0.4-0.7-0.4-1.3V15.4
	c0-0.6,0.1-1.1,0.4-1.4c0.1-0.2,0.3-0.3,0.5-0.4c0.2-0.1,0.4-0.1,0.6-0.1c0.5,0,0.8,0.1,1.1,0.4C76.2,14.3,76.4,14.7,76.4,15.2z
	 M76.5,24.3c0,1.2,0.3,2.1,0.8,2.8c0.3,0.3,0.6,0.6,1,0.7C78.6,28,79,28,79.4,28c0.8,0,1.4-0.3,1.9-1c0.5-0.7,0.8-1.6,0.8-2.9
	c0-0.7-0.1-1.4-0.3-2.1c-0.2-0.5-0.5-1-1-1.3c-0.4-0.3-0.9-0.5-1.5-0.5c-0.5,0-1.1,0.2-1.5,0.5c-0.5,0.3-0.8,0.8-1,1.4
	C76.6,22.8,76.5,23.5,76.5,24.3z"/>
<path class="st0" d="M89.1,16.6c-0.4,0-0.8-0.1-1.1-0.4c-0.3-0.3-0.4-0.6-0.4-1.1c0-0.2,0-0.4,0.1-0.6c0.1-0.2,0.2-0.3,0.3-0.5
	c0.3-0.3,0.7-0.4,1.1-0.4c0.4,0,0.7,0.1,1,0.4c0.3,0.3,0.4,0.6,0.4,1.1c0,0.5-0.1,0.8-0.4,1.1C89.8,16.5,89.5,16.6,89.1,16.6z
	 M90.6,19.7v8.8c0,0.6-0.1,1.1-0.4,1.4c-0.1,0.2-0.3,0.3-0.5,0.4c-0.2,0.1-0.4,0.1-0.6,0.1c-0.2,0-0.4,0-0.6-0.1
	c-0.2-0.1-0.3-0.2-0.5-0.4c-0.3-0.3-0.4-0.8-0.4-1.4v-8.7c0-0.6,0.1-1.1,0.4-1.4c0.1-0.1,0.3-0.3,0.5-0.3c0.2-0.1,0.4-0.1,0.6-0.1
	c0.2,0,0.4,0,0.6,0.1c0.2,0.1,0.4,0.2,0.5,0.3C90.4,18.8,90.6,19.2,90.6,19.7L90.6,19.7z"/>
<path class="st0" d="M93.8,18.3h0.3v-1.8c0-0.5,0-0.9,0-1.2c0-0.3,0.1-0.5,0.2-0.7c0.1-0.2,0.3-0.4,0.5-0.5c0.2-0.1,0.5-0.2,0.7-0.2
	c0.4,0,0.8,0.2,1,0.4c0.2,0.2,0.3,0.4,0.4,0.7c0.1,0.4,0.1,0.8,0.1,1.2v2.1h1.1c0.4,0,0.7,0.1,1,0.3c0.1,0.1,0.2,0.2,0.3,0.4
	c0.1,0.1,0.1,0.3,0.1,0.4c0,0.4-0.2,0.7-0.5,0.9c-0.3,0.2-0.8,0.2-1.4,0.2h-0.6v5.6c0,0.4,0,0.7,0,1.1c0,0.2,0.1,0.4,0.3,0.6
	c0.1,0.2,0.4,0.2,0.7,0.2c0.2,0,0.5,0,0.7-0.1c0.2-0.1,0.5-0.1,0.7-0.1c0.1,0,0.2,0,0.4,0.1c0.1,0.1,0.2,0.1,0.3,0.2
	c0.1,0.1,0.2,0.2,0.2,0.3c0.1,0.1,0.1,0.3,0.1,0.4c0,0.5-0.3,0.9-0.8,1.1c-0.5,0.3-1.3,0.4-2.3,0.4c-0.9,0-1.6-0.2-2.1-0.5
	c-0.5-0.3-0.8-0.8-0.9-1.3c-0.2-0.6-0.2-1.3-0.2-2.3v-5.8h-0.4c-0.4,0-0.8-0.1-1-0.3c-0.1-0.1-0.2-0.2-0.3-0.4
	c-0.1-0.1-0.1-0.3-0.1-0.4c0-0.1,0-0.3,0.1-0.4c0.1-0.1,0.2-0.3,0.3-0.4C93,18.4,93.4,18.3,93.8,18.3z"/>
<path class="st0" d="M109.9,24.9h-5.8c0,0.6,0.1,1.3,0.4,1.8c0.2,0.5,0.6,0.9,1.1,1.2c0.4,0.3,0.9,0.4,1.5,0.4c0.3,0,0.7,0,1-0.1
	c0.3-0.1,0.6-0.2,0.9-0.4c0.3-0.2,0.5-0.4,0.8-0.6c0.2-0.2,0.5-0.5,0.9-0.9c0.2-0.1,0.4-0.2,0.7-0.2c0.3,0,0.5,0.1,0.7,0.3
	c0.1,0.1,0.2,0.2,0.2,0.3c0,0.1,0.1,0.3,0.1,0.4c0,0.3-0.1,0.7-0.3,1c-0.2,0.4-0.6,0.8-1,1.1c-0.5,0.4-1,0.7-1.6,0.8
	c-0.7,0.2-1.5,0.3-2.2,0.3c-1.9,0-3.4-0.6-4.5-1.7c-1.1-1.1-1.6-2.6-1.6-4.5c0-0.8,0.1-1.7,0.4-2.5c0.2-0.7,0.6-1.4,1.1-2
	c0.5-0.6,1.2-1,1.9-1.3c0.8-0.3,1.6-0.5,2.4-0.4c1.2,0,2.2,0.3,3,0.8c0.8,0.5,1.4,1.1,1.9,1.9c0.4,0.7,0.6,1.6,0.6,2.4
	c0,0.8-0.2,1.3-0.6,1.5C111.3,24.8,110.7,24.9,109.9,24.9z M104.1,23.2h5.4c-0.1-1-0.3-1.8-0.8-2.3c-0.5-0.5-1.1-0.8-1.9-0.8
	c-0.3,0-0.7,0.1-1,0.2c-0.3,0.1-0.6,0.3-0.8,0.6C104.5,21.4,104.2,22.2,104.1,23.2L104.1,23.2z"/>
<path class="st0" d="M117.8,26v2.5c0,0.6-0.1,1.1-0.4,1.4c-0.1,0.2-0.3,0.3-0.5,0.3c-0.2,0.1-0.4,0.1-0.6,0.1c-0.2,0-0.4,0-0.6-0.1
	c-0.2-0.1-0.3-0.2-0.5-0.4c-0.3-0.3-0.4-0.8-0.4-1.4v-8.5c0-1.4,0.5-2,1.5-2c0.5,0,0.9,0.2,1.1,0.5c0.2,0.3,0.3,0.8,0.4,1.4
	c0.3-0.5,0.7-1,1.1-1.4c0.4-0.3,0.9-0.5,1.5-0.5c0.6,0,1.3,0.2,1.8,0.5c0.6,0.3,0.9,0.7,0.9,1.3c0,0.2,0,0.3-0.1,0.5
	c-0.1,0.2-0.2,0.3-0.3,0.4c-0.1,0.1-0.2,0.2-0.4,0.3c-0.1,0.1-0.3,0.1-0.4,0.1c-0.3,0-0.5-0.1-0.8-0.2c-0.4-0.1-0.7-0.2-1.1-0.2
	c-0.4,0-0.8,0.1-1.1,0.4c-0.3,0.3-0.5,0.6-0.6,1c-0.2,0.5-0.3,1.1-0.3,1.6C117.9,24.3,117.8,25.1,117.8,26z"/>
<g>
	<path class="st2" d="M29.4,8.3c0-0.3-0.3-0.5-0.5-0.6c-0.3-0.1-0.6,0.1-0.8,0.3c-0.1,0.1-0.3,0.2-0.4,0.2c-1,0.1-1.8,0.4-2.4,0.9
		c-1,0.8-1.4,1.7-1.4,2.7c0,0.2,0.2,0.3,0.3,0.3c0.1,0,0.2,0,0.3-0.1c0-0.1,0.1-0.1,0-0.2c0-0.8,0.4-1.5,1.2-2.2
		c0.6-0.5,1.3-0.7,2.2-0.8c0.1,0,0.3,0.1,0.4,0.1c0.4,0.3,0.8,0.2,1-0.1C29.4,8.7,29.4,8.5,29.4,8.3z"/>
	<path class="st2" d="M16.3,9L16.3,9c-0.7-0.6-1.5-0.9-2.5-0.9c-0.1,0-0.2-0.1-0.4-0.2c-0.2-0.2-0.4-0.3-0.7-0.2
		c-0.3,0.1-0.5,0.3-0.6,0.6c0,0.2,0,0.4,0.2,0.6c0.1,0.2,0.3,0.3,0.6,0.3c0.2,0,0.4-0.1,0.5-0.2c0.1-0.1,0.3-0.2,0.5-0.2
		c0.8,0.1,1.5,0.3,2,0.8c1.1,0.9,1.2,1.9,1.2,2.4c0,0.2,0.1,0.3,0.3,0.3c0.2,0,0.3-0.1,0.3-0.3C17.7,11.3,17.6,10.1,16.3,9z"/>
</g>
</svg>
