<?xml version="1.0" standalone="no"?>
<!DOCTYPE svg PUBLIC "-//W3C//DTD SVG 20010904//EN"
 "http://www.w3.org/TR/2001/REC-SVG-20010904/DTD/svg10.dtd">
<svg version="1.0" xmlns="http://www.w3.org/2000/svg"
 width="644.000000pt" height="578.000000pt" viewBox="0 0 644.000000 578.000000"
 preserveAspectRatio="xMidYMid meet">

<g transform="translate(0.000000,578.000000) scale(0.100000,-0.100000)"
fill="white" stroke="none">
<path d="M2664 5296 c-3 -8 -4 -29 -2 -48 l3 -33 108 -3 c59 -1 107 -7 107
-12 0 -5 -48 -11 -107 -12 l-108 -3 -3 -29 c-2 -16 2 -32 10 -37 7 -5 58 -9
113 -9 68 0 95 -3 85 -10 -8 -5 -59 -10 -113 -10 l-98 0 3 -32 3 -33 108 -3
c135 -3 143 -22 10 -22 -54 0 -104 -4 -111 -8 -9 -7 -12 -57 -10 -218 l3 -209
105 -3 c93 -2 107 -5 123 -23 17 -21 25 -22 281 -22 182 -1 268 2 278 10 7 6
29 13 48 16 19 2 -16 5 -79 5 -99 2 -112 4 -107 18 3 9 6 19 6 24 0 4 53 10
118 13 115 5 160 12 254 39 53 16 63 22 53 38 -4 7 -17 4 -38 -9 -58 -35 -146
-51 -273 -49 -83 1 -97 3 -47 5 44 3 76 9 82 17 10 11 -1 13 -61 10 -114 -6
-107 -15 -110 149 l-3 142 -197 3 c-118 1 -198 6 -198 12 0 6 80 11 198 12
l197 3 0 35 0 35 -197 3 c-118 1 -198 6 -198 12 0 6 80 11 198 12 l197 3 0 30
0 30 -192 3 c-114 1 -193 6 -193 12 0 6 79 11 193 12 l192 3 0 45 0 45 -113 3
c-110 3 -113 3 -122 27 l-10 25 -190 0 c-154 0 -192 -3 -196 -14z"/>
<path d="M2457 4779 c-9 -6 -26 -7 -37 -4 -16 5 -20 2 -20 -14 0 -14 -17 -32
-50 -53 -27 -18 -50 -36 -50 -39 0 -3 6 -14 14 -25 12 -16 18 -17 33 -7 48 33
92 51 112 46 16 -4 21 -1 21 13 0 9 7 25 16 35 10 11 13 25 9 38 -7 23 -21 26
-48 10z"/>
<path d="M3567 4763 c-4 -3 -7 -13 -7 -22 -1 -19 -28 -53 -55 -69 -19 -11 -19
-11 -1 -12 21 0 96 75 96 96 0 14 -22 19 -33 7z"/>
<path d="M2093 4547 c-62 -39 -83 -57 -83 -73 0 -41 30 -36 121 22 91 58 94
61 83 88 -10 25 -33 18 -121 -37z"/>
<path d="M3857 4593 c-18 -5 -17 -6 3 -20 16 -12 24 -12 35 -3 27 22 6 34 -38
23z"/>
<path d="M3387 4573 c18 -2 50 -2 70 0 21 2 7 4 -32 4 -38 0 -55 -2 -38 -4z"/>
<path d="M3523 4573 c9 -2 25 -2 35 0 9 3 1 5 -18 5 -19 0 -27 -2 -17 -5z"/>
<path d="M3575 4539 c22 -4 49 -8 60 -8 l20 0 -20 9 c-11 5 -38 8 -60 8 l-40
0 40 -9z"/>
<path d="M3692 4505 c42 -29 58 -31 58 -10 0 17 -7 20 -60 29 l-35 6 37 -25z"/>
<path d="M3465 4510 c3 -5 14 -10 24 -10 24 0 69 -49 73 -80 3 -27 33 -35 33
-9 0 19 -54 82 -83 98 -26 14 -55 14 -47 1z"/>
<path d="M4044 4463 c-18 -19 -18 -27 4 -45 13 -11 35 -14 94 -10 66 4 78 7
84 24 9 30 -3 35 -89 40 -60 4 -82 2 -93 -9z"/>
<path d="M4357 4463 c-4 -3 -7 -14 -7 -24 0 -20 12 -24 95 -34 28 -3 65 -11
84 -17 29 -9 36 -8 48 8 11 15 11 20 -1 32 -27 27 -200 55 -219 35z"/>
<path d="M1865 4398 c-43 -23 -155 -99 -155 -104 0 -12 21 -44 30 -44 5 0 50
27 100 61 64 43 90 66 86 76 -3 8 -6 17 -6 19 0 8 -35 3 -55 -8z"/>
<path d="M3069 4309 c-20 -29 -21 -32 -6 -41 10 -5 17 -15 17 -23 0 -8 5 -17
10 -20 18 -11 50 6 50 25 0 11 8 23 17 28 15 9 13 13 -13 36 -38 33 -48 32
-75 -5z"/>
<path d="M4678 4323 c-16 -15 -15 -19 16 -62 51 -71 85 -193 56 -203 -6 -2 1
-15 15 -30 14 -15 31 -25 39 -22 17 7 50 54 38 54 -5 0 -14 26 -21 58 -14 62
-49 138 -89 190 -28 37 -32 38 -54 15z"/>
<path d="M1512 4174 c-67 -44 -86 -53 -98 -43 -11 9 -16 6 -24 -16 -15 -41
-12 -55 16 -65 38 -15 62 -12 60 6 0 11 29 35 81 68 46 28 83 58 83 67 0 15
-19 39 -29 38 -4 0 -43 -25 -89 -55z"/>
<path d="M3097 4103 c-4 -3 -7 -53 -7 -110 0 -85 -3 -103 -15 -103 -23 0 -18
-16 11 -39 36 -29 59 -26 83 8 21 29 21 29 1 34 -18 5 -20 14 -20 89 0 45 -3
93 -6 106 -6 21 -33 30 -47 15z"/>
<path d="M5350 4090 c-74 -13 -120 -39 -176 -96 -52 -53 -55 -54 -109 -54
-100 0 -177 -52 -216 -144 -17 -42 -28 -55 -48 -59 -49 -10 -124 -69 -148
-117 -54 -107 -9 -246 98 -300 36 -19 61 -20 516 -19 263 0 485 3 494 7 34 15
114 120 127 166 17 63 15 86 -9 150 -23 62 -90 130 -139 141 -38 8 -46 20 -54
84 -9 71 -26 102 -92 168 -78 77 -130 93 -244 73z m-104 -227 c4 -16 11 -34
17 -40 12 -16 57 -17 57 -2 0 17 62 6 74 -14 8 -13 7 -25 -7 -49 -16 -28 -16
-33 -2 -54 8 -13 24 -24 34 -24 25 0 43 -24 39 -52 -2 -16 -13 -25 -37 -32
-43 -12 -61 -48 -38 -74 23 -25 21 -45 -4 -67 -19 -19 -21 -19 -55 0 -43 23
-64 13 -77 -34 -7 -30 -11 -32 -45 -29 -29 2 -38 8 -40 24 -2 12 -12 30 -23
40 -19 17 -21 17 -50 0 -33 -20 -58 -15 -77 14 -10 17 -9 25 4 46 14 20 15 30
6 49 -7 14 -20 25 -31 25 -26 0 -43 24 -39 56 2 22 10 30 35 36 40 10 53 46
29 80 -20 29 -20 30 5 57 21 22 56 21 70 -2 8 -11 59 -1 59 13 0 5 4 20 10 34
8 21 16 26 45 26 30 0 36 -4 41 -27z m302 -258 c10 -21 19 -25 53 -25 35 0 40
-2 34 -17 -17 -41 -17 -55 0 -73 22 -25 13 -50 -19 -50 -18 0 -30 -9 -41 -30
-18 -36 -19 -36 -53 -9 -16 13 -37 19 -57 17 -30 -3 -30 -3 -27 44 2 25 -2 49
-8 53 -5 3 -10 15 -10 26 0 14 9 21 30 26 20 4 36 16 46 34 18 36 37 37 52 4z"/>
<path d="M5160 3757 c-65 -30 -97 -96 -79 -158 13 -41 44 -69 101 -89 35 -13
39 -12 84 16 61 38 84 89 64 143 -19 54 -81 102 -128 100 -9 0 -28 -6 -42 -12z
m130 -65 c31 -45 19 -51 -14 -7 -36 47 -84 49 -128 5 -25 -26 -29 -36 -24 -62
18 -91 125 -107 161 -25 14 31 14 31 15 6 0 -31 -22 -52 -71 -69 -47 -17 -93
0 -120 44 -35 58 -15 122 48 154 34 18 39 18 74 3 20 -9 47 -31 59 -49z"/>
<path d="M5510 3530 c-16 -16 -18 -25 -10 -40 14 -27 27 -33 56 -26 31 8 34
60 5 76 -26 13 -28 13 -51 -10z"/>
<path d="M321 3873 c-21 -18 -21 -22 -19 -303 l3 -285 501 -3 c276 -1 509 1
518 4 14 5 16 37 16 285 0 266 -1 280 -20 299 -19 19 -33 20 -499 20 -441 0
-480 -1 -500 -17z m949 -61 c0 -10 5 -23 10 -28 7 -7 9 -90 8 -230 l-3 -219
-465 0 -465 0 -3 222 c-2 212 -1 224 18 243 13 13 16 21 8 22 -62 8 168 13
495 10 373 -2 397 -4 397 -20z"/>
<path d="M3124 3667 c-67 -20 -173 -88 -225 -145 -27 -29 -65 -87 -86 -129
l-38 -77 0 -130 c0 -117 3 -137 24 -186 77 -174 217 -285 394 -312 157 -24
303 22 421 133 132 123 184 305 141 488 -33 139 -132 259 -269 327 -78 38 -82
39 -200 41 -71 1 -138 -3 -162 -10z m203 -165 c15 -26 64 -109 110 -185 46
-75 83 -143 83 -150 0 -7 -17 -21 -37 -32 -21 -11 -73 -41 -116 -67 -43 -27
-80 -48 -83 -48 -2 0 -39 21 -82 48 -42 26 -94 56 -114 67 -21 11 -38 24 -38
29 0 14 31 46 44 46 6 0 48 17 93 37 l83 38 0 131 c0 165 6 174 57 86z m123
-479 c-33 -49 -82 -118 -108 -155 -26 -37 -51 -66 -57 -65 -5 2 -11 42 -13 90
l-3 86 108 65 c59 35 114 65 121 65 7 1 -14 -38 -48 -86z"/>
<path d="M1426 3539 c-32 -25 -32 -36 0 -73 23 -26 26 -27 38 -11 11 15 19 15
71 6 32 -6 78 -11 102 -11 39 0 43 2 43 24 0 29 -11 34 -116 46 -52 5 -82 14
-90 24 -14 20 -16 20 -48 -5z"/>
<path d="M4360 3515 c0 -8 -12 -20 -26 -25 -34 -13 -30 -54 6 -58 14 -2 30
-10 36 -18 10 -12 15 -9 34 21 26 42 23 54 -19 78 -27 16 -31 16 -31 2z"/>
<path d="M1807 3483 c-4 -3 -7 -16 -7 -29 0 -20 6 -23 63 -29 34 -4 85 -7 112
-8 47 -2 50 -1 50 23 0 24 -4 25 -90 37 -112 14 -120 15 -128 6z"/>
<path d="M4165 3453 c-11 -2 -53 -11 -93 -19 -59 -13 -75 -14 -88 -3 -13 10
-19 8 -40 -14 -31 -33 -30 -41 5 -66 34 -25 51 -27 51 -7 0 17 5 19 118 42 74
16 82 20 82 40 0 26 -7 32 -35 27z"/>
<path d="M2147 3436 c-13 -33 3 -43 76 -50 40 -4 88 -9 108 -12 28 -5 38 -2
42 10 12 31 -3 43 -61 50 -31 3 -80 9 -108 12 -41 5 -52 3 -57 -10z"/>
<path d="M2640 3415 c0 -14 -10 -16 -72 -13 -72 3 -73 3 -73 -22 0 -23 5 -25
60 -32 33 -4 64 -14 69 -21 7 -11 16 -12 40 -4 17 6 37 11 44 13 17 5 16 54
-2 54 -7 0 -25 9 -40 21 -22 18 -26 18 -26 4z"/>
<path d="M5371 3094 c-23 -29 -27 -44 -11 -44 6 0 15 -12 20 -26 13 -33 53
-30 58 4 2 13 10 26 18 29 12 4 10 11 -12 34 -34 36 -47 36 -73 3z"/>
<path d="M1276 2908 c-21 -30 -20 -45 4 -58 11 -6 22 -26 26 -48 4 -20 10 -41
14 -47 3 -5 12 -29 19 -53 11 -39 15 -43 39 -40 16 2 26 8 24 16 -10 51 -26
109 -32 122 -15 31 -22 80 -11 80 21 0 11 20 -19 35 -38 20 -46 19 -64 -7z"/>
<path d="M5389 2883 c-1 -5 0 -54 1 -110 2 -88 0 -102 -15 -105 -15 -3 -14 -7
7 -30 30 -35 47 -35 82 1 26 27 26 29 7 34 -17 4 -21 13 -21 50 0 24 -3 72 -6
106 -6 56 -9 61 -30 61 -13 0 -25 -3 -25 -7z"/>
<path d="M3763 2725 c-31 -13 -31 -14 -21 -54 9 -35 13 -40 32 -35 14 3 55
-10 111 -36 88 -41 100 -42 107 -7 2 14 -18 29 -87 65 -64 33 -90 52 -89 65 2
20 -10 21 -53 2z"/>
<path d="M4093 2543 c-3 -10 -8 -22 -10 -26 -6 -10 200 -108 209 -99 3 4 8 16
10 27 2 16 -15 28 -92 67 -52 26 -99 47 -103 48 -4 0 -10 -8 -14 -17z"/>
<path d="M1396 2541 c-4 -5 -3 -17 0 -26 4 -10 1 -21 -7 -26 -11 -7 -9 -13 11
-29 35 -28 57 -25 75 11 16 30 15 31 -10 55 -26 24 -59 31 -69 15z"/>
<path d="M5426 2422 c-233 -2 -272 -5 -288 -19 -17 -15 -18 -39 -18 -300 l0
-283 515 0 515 0 0 288 0 289 -22 11 c-27 12 -307 18 -702 14z m672 -79 c4
-10 7 -121 7 -248 l0 -230 -467 -3 -468 -2 0 229 c0 209 2 231 18 240 10 6 12
11 4 11 -7 0 -11 4 -7 10 3 6 179 9 456 10 421 0 450 -1 457 -17z"/>
<path d="M2905 2390 c-14 -16 -16 -23 -7 -32 7 -7 12 -41 12 -80 0 -66 1 -68
25 -68 24 0 25 2 25 69 0 46 4 71 12 73 9 3 8 12 -5 31 -21 32 -38 34 -62 7z"/>
<path d="M4409 2388 c-14 -27 -3 -36 106 -89 72 -34 81 -36 97 -22 9 8 15 20
12 27 -3 7 -42 30 -87 52 -120 57 -115 56 -128 32z"/>
<path d="M4731 2247 c-25 -25 -11 -47 44 -73 30 -15 55 -32 55 -39 0 -9 16
-13 49 -13 60 -1 76 21 38 53 -13 11 -27 29 -32 40 -5 13 -9 15 -12 8 -7 -19
-28 -16 -82 11 -36 19 -51 22 -60 13z"/>
<path d="M2840 1948 c0 -10 21 -12 82 -10 99 4 87 22 -14 22 -48 0 -68 -4 -68
-12z"/>
<path d="M4768 1935 c-2 -3 -40 -10 -82 -15 -71 -9 -197 -57 -211 -81 -3 -4 3
-17 14 -30 l18 -23 27 22 c51 40 195 74 221 52 12 -10 20 -9 40 4 30 20 32 37
7 59 -20 18 -26 20 -34 12z"/>
<path d="M2843 1878 c-2 -5 42 -7 99 -6 106 1 96 5 -25 10 -38 2 -71 0 -74 -4z"/>
<path d="M3058 1873 c7 -3 16 -2 19 1 4 3 -2 6 -13 5 -11 0 -14 -3 -6 -6z"/>
<path d="M3098 1873 c6 -2 18 -2 25 0 6 3 1 5 -13 5 -14 0 -19 -2 -12 -5z"/>
<path d="M2918 1793 c45 -2 119 -2 165 0 45 1 8 3 -83 3 -91 0 -128 -2 -82 -3z"/>
<path d="M2843 1773 c9 -2 25 -2 35 0 9 3 1 5 -18 5 -19 0 -27 -2 -17 -5z"/>
<path d="M2731 1744 c-54 -38 -171 -68 -200 -50 -14 9 -51 -20 -51 -39 0 -7 8
-19 18 -28 14 -13 25 -14 62 -5 67 16 130 35 173 53 33 13 37 19 37 50 0 39
-6 42 -39 19z"/>
<path d="M4361 1708 c-23 -37 -51 -130 -51 -170 0 -34 3 -38 25 -38 19 0 26 6
30 28 13 60 28 109 46 144 19 37 19 37 0 48 -28 14 -34 13 -50 -12z"/>
<path d="M2832 1680 c-4 -8 -6 -67 -7 -130 l0 -115 111 -3 111 -3 6 68 c11
110 8 183 -5 188 -7 2 -57 5 -112 7 -80 2 -100 0 -104 -12z"/>
<path d="M3404 1667 c3 -24 19 -27 24 -4 2 8 -4 17 -12 20 -12 5 -15 1 -12
-16z"/>
<path d="M3288 1673 c18 -2 45 -2 60 0 15 2 0 4 -33 4 -33 0 -45 -2 -27 -4z"/>
<path d="M1122 1643 c-25 -21 -28 -85 -24 -395 l2 -188 515 0 515 0 0 28 c0
15 0 142 0 282 0 247 -1 256 -21 273 -20 16 -58 17 -494 17 -436 0 -474 -1
-493 -17z m948 -68 c6 -15 10 -127 10 -251 l0 -224 -467 2 -468 3 0 205 c-1
232 0 241 26 269 19 20 29 20 454 21 l435 0 10 -25z"/>
<path d="M3178 1653 c28 -2 76 -2 105 0 28 2 5 3 -53 3 -58 0 -81 -1 -52 -3z"/>
<path d="M3130 1565 c0 -8 5 -15 11 -15 5 0 8 4 4 10 -3 5 33 11 92 13 l98 3
-102 2 c-86 2 -103 -1 -103 -13z"/>
<path d="M3395 1540 c-3 -5 -1 -10 4 -10 6 0 11 5 11 10 0 6 -2 10 -4 10 -3 0
-8 -4 -11 -10z"/>
<path d="M3130 1448 c0 -16 13 -18 148 -16 l147 2 -140 3 c-96 3 -142 7 -147
16 -5 8 -8 7 -8 -5z"/>
<path d="M3388 1453 c7 -3 16 -2 19 1 4 3 -2 6 -13 5 -11 0 -14 -3 -6 -6z"/>
<path d="M4296 1371 c-4 -5 -10 -35 -15 -68 -4 -32 -11 -65 -15 -74 -4 -9 1
-22 14 -34 20 -18 21 -18 45 5 13 13 21 28 18 34 -4 6 -6 41 -4 79 3 62 1 67
-18 67 -11 0 -22 -4 -25 -9z"/>
<path d="M2961 1344 c-1 -19 3 -21 42 -17 56 7 61 13 10 13 -24 0 -43 5 -46
13 -3 6 -6 2 -6 -9z"/>
<path d="M3133 1353 c9 -2 23 -2 30 0 6 3 -1 5 -18 5 -16 0 -22 -2 -12 -5z"/>
<path d="M3298 1353 c23 -2 59 -2 80 0 20 2 1 4 -43 4 -44 0 -61 -2 -37 -4z"/>
<path d="M2810 1328 c-35 -7 -51 -18 -71 -46 -53 -74 -49 -152 11 -212 53 -53
112 -61 183 -25 47 23 54 31 70 80 22 67 12 116 -34 163 -25 26 -88 55 -109
51 -3 -1 -25 -6 -50 -11z m50 -137 c0 -5 -6 -11 -14 -14 -17 -7 -14 -69 3 -75
24 -8 9 -22 -24 -22 -49 0 -62 35 -40 108 5 14 75 17 75 3z m58 -13 c20 -20
15 -76 -9 -89 -15 -8 -24 -8 -32 0 -8 8 -8 11 1 11 16 0 16 62 0 78 -9 9 -8
12 8 12 11 0 25 -5 32 -12z"/>
<path d="M3063 1253 c9 -2 23 -2 30 0 6 3 -1 5 -18 5 -16 0 -22 -2 -12 -5z"/>
<path d="M3133 1253 c9 -2 25 -2 35 0 9 3 1 5 -18 5 -19 0 -27 -2 -17 -5z"/>
<path d="M3390 1235 c0 -11 -18 -15 -77 -18 l-78 -3 87 -2 c82 -2 86 -1 81 18
-6 23 -13 26 -13 5z"/>
<path d="M3118 1213 c7 -3 16 -2 19 1 4 3 -2 6 -13 5 -11 0 -14 -3 -6 -6z"/>
<path d="M3943 1030 c-24 -4 -44 -8 -47 -11 -2 -2 -6 -140 -8 -306 -3 -296 -3
-302 17 -307 11 -3 216 -6 456 -6 333 0 439 3 451 13 14 10 17 50 20 304 2
217 0 295 -9 304 -9 9 -110 12 -382 13 -203 1 -364 -2 -358 -6 7 -4 153 -8
325 -8 l312 0 0 -284 c0 -217 -3 -287 -12 -293 -17 -11 -725 -16 -731 -6 -3 4
-8 135 -11 290 l-6 283 32 14 c35 15 25 16 -49 6z m1 -276 c7 -18 0 -34 -15
-34 -5 0 -9 11 -9 25 0 28 15 34 24 9z"/>
</g>
</svg>
