<svg width="40" height="40" viewBox="0 0 40 40" fill="none" xmlns="http://www.w3.org/2000/svg">
<path d="M34.1833 11.7833L23.3333 0.833333C23.158 0.660064 22.9621 0.508937 22.75 0.383333L22.5833 0.3H22.4667C22.1139 0.122081 21.7279 0.0198939 21.3333 0H7.81667C7.06964 0 6.35321 0.296755 5.82498 0.824983C5.29676 1.35321 5 2.06964 5 2.81667V37.1833C5 37.9304 5.29676 38.6468 5.82498 39.175C6.35321 39.7032 7.06964 40 7.81667 40H32.1833C32.9304 40 33.6468 39.7032 34.175 39.175C34.7032 38.6468 35 37.9304 35 37.1833V13.7667C35 13.0237 34.7065 12.3109 34.1833 11.7833ZM21.8167 12.1833V1.31667L32.6167 12.2L21.8167 12.1833Z" fill="white" fill-opacity="0.2"/>
</svg>
