<svg width="28" height="24" viewBox="0 0 28 24" fill="none" xmlns="http://www.w3.org/2000/svg">
<path fill-rule="evenodd" clip-rule="evenodd" d="M25.624 4.79069H2.37617C1.46456 4.79069 0.666748 3.81836 0.666748 2.70736C0.666748 1.59635 1.4645 0.624023 2.37617 0.624023H25.624C26.5356 0.624023 27.3334 1.59635 27.3334 2.70736C27.3334 3.81836 26.5357 4.79069 25.624 4.79069ZM25.624 9.79069H2.37617C1.4645 9.79069 0.666748 10.763 0.666748 11.874C0.666748 12.985 1.46456 13.9574 2.37617 13.9574H25.624C26.5357 13.9574 27.3334 12.985 27.3334 11.874C27.3334 10.763 26.5356 9.79069 25.624 9.79069ZM25.624 18.9574H2.37617C1.4645 18.9574 0.666748 19.9297 0.666748 21.0407C0.666748 22.1517 1.46456 23.124 2.37617 23.124H25.624C26.5357 23.124 27.3334 22.1517 27.3334 21.0407C27.3334 19.9297 26.5356 18.9574 25.624 18.9574Z" fill="white" fill-opacity="0.6"/>
</svg>
