<svg width="20" height="20" viewBox="0 0 20 20" fill="none" xmlns="http://www.w3.org/2000/svg">
<g clip-path="url(#clip0_775_8590)">
<path d="M19.7285 18.3636L15.9804 14.6794C19.1036 11.1218 18.9171 5.81468 15.4807 2.56751C11.9817 -0.866203 6.23352 -0.866203 2.6719 2.63013C-0.827101 6.00122 -0.889726 11.5575 2.48536 14.9912L2.6719 15.1791C5.9204 18.301 10.9824 18.6754 14.6053 15.9919L18.3548 19.6748C18.5413 19.8613 18.7918 19.9866 19.041 19.9866C19.302 19.9761 19.5487 19.8642 19.7285 19.6748C20.0417 19.3616 20.1043 18.7381 19.7285 18.3636ZM1.92307 8.87397C1.98436 5.00189 5.17157 1.8813 9.10761 1.8813C13.0437 1.8813 16.2295 5.00189 16.2922 8.87397C16.2295 12.806 12.981 15.9279 9.10761 15.8653C8.17596 15.8812 7.25038 15.7126 6.38416 15.3692C5.51794 15.0259 4.7282 14.5146 4.06042 13.8648C3.39263 13.2149 2.85999 12.4394 2.49317 11.5829C2.12635 10.7263 1.9326 9.8057 1.92307 8.87397Z" fill="white" fill-opacity="0.4"/>
</g>
<defs>
<clipPath id="clip0_775_8590">
<rect width="20" height="20" fill="white"/>
</clipPath>
</defs>
</svg>
