<svg width="20" height="20" viewBox="0 0 20 20" fill="none" xmlns="http://www.w3.org/2000/svg">
<path d="M16.449 11.0658L15.3814 12.1124L17.1342 13.8284H13.5113L10.8083 10.5L13.5113 7.1716H17.1342L15.3814 8.88757L16.449 9.93047L18.9286 7.51183L20 6.46524L18.9286 5.41864L16.449 3L15.3814 4.0466L17.0661 5.69231H12.7806L9.84289 9.30917L6.90517 5.69231H0V7.1716H6.17452L8.87753 10.5L6.17452 13.8284H0V15.3077H6.90517L9.84289 11.6908L12.7806 15.3077H17.0661L15.3814 16.9534L16.449 18L18.9286 15.5814L20 14.5348L18.9286 13.4882L16.449 11.0658Z" fill="#333333"/>
</svg>
