<svg width="28" height="23" viewBox="0 0 28 23" fill="none" xmlns="http://www.w3.org/2000/svg">
<path fill-rule="evenodd" clip-rule="evenodd" d="M25.624 4.33317H2.37617C1.46456 4.33317 0.666748 3.36084 0.666748 2.24984C0.666748 1.13883 1.4645 0.166504 2.37617 0.166504H25.624C26.5356 0.166504 27.3334 1.13883 27.3334 2.24984C27.3334 3.36084 26.5357 4.33317 25.624 4.33317ZM25.624 9.33317H2.37617C1.4645 9.33317 0.666748 10.3055 0.666748 11.4165C0.666748 12.5275 1.46456 13.4998 2.37617 13.4998H25.624C26.5357 13.4998 27.3334 12.5275 27.3334 11.4165C27.3334 10.3055 26.5356 9.33317 25.624 9.33317ZM25.624 18.4998H2.37617C1.4645 18.4998 0.666748 19.4722 0.666748 20.5832C0.666748 21.6942 1.46456 22.6665 2.37617 22.6665H25.624C26.5357 22.6665 27.3334 21.6942 27.3334 20.5832C27.3334 19.4722 26.5356 18.4998 25.624 18.4998Z" fill="#333333" fill-opacity="0.8"/>
</svg>
