<svg width="16" height="16" viewBox="0 0 16 16" fill="none" xmlns="http://www.w3.org/2000/svg">
<path d="M8.21815 1.45455C11.7454 1.56364 14.5454 4.47273 14.5454 8C14.5454 11.6 11.6 14.5455 7.99997 14.5455C5.2727 14.5455 2.94543 12.8727 1.96361 10.5455H2.18179C5.78179 10.5455 8.72725 7.6 8.72725 4C8.72725 3.09091 8.54543 2.25455 8.21815 1.45455ZM8.21815 0C7.74543 0 7.30906 0.218182 7.01815 0.618182C6.72724 1.01818 6.69088 1.56364 6.8727 2C7.12724 2.65455 7.2727 3.30909 7.2727 4C7.2727 6.8 4.98179 9.09091 2.18179 9.09091H1.99997H1.96361C1.49088 9.09091 1.05452 9.30909 0.763608 9.70909C0.472699 10.1091 0.436335 10.6545 0.618153 11.0909C1.89088 14.0727 4.76361 16 7.99997 16C12.4 16 16 12.4 16 8C16 3.67273 12.6182 0.145455 8.25452 0H8.21815V0Z" fill="#333333" fill-opacity="0.8"/>
</svg>
