<svg width="124" height="41" viewBox="0 0 124 41" fill="none" xmlns="http://www.w3.org/2000/svg">
<path d="M27.2584 15.8733C27.3399 17.8607 27.6233 21.2251 27.7596 22.8769C27.7695 22.9972 27.7537 23.1182 27.7133 23.232C27.6729 23.3458 27.6088 23.4496 27.5251 23.5367C27.4415 23.6238 27.3403 23.6921 27.2283 23.7371C27.1162 23.782 26.9959 23.8027 26.8753 23.7976C25.6529 23.7404 23.3784 23.6541 20.6575 23.6419C18.0047 23.6298 15.8104 23.7027 14.6208 23.7538C14.5006 23.7585 14.3808 23.7377 14.2693 23.6927C14.1577 23.6477 14.0569 23.5795 13.9736 23.4928C13.8903 23.406 13.8263 23.3026 13.7859 23.1893C13.7454 23.076 13.7295 22.9554 13.739 22.8355C13.874 21.1983 14.1392 17.8595 14.2255 15.8733C14.2837 14.1871 14.9963 12.5899 16.2122 11.4203C17.4282 10.2507 19.0518 9.60067 20.739 9.60799C22.427 9.59939 24.0521 10.2488 25.2692 11.4185C26.4864 12.5883 27.1999 14.1862 27.2584 15.8733ZM20.7304 12.7108C19.9726 12.7106 19.2317 12.9351 18.6015 13.356C17.9713 13.7768 17.48 14.3751 17.1898 15.0752C16.8996 15.7753 16.8236 16.5457 16.9713 17.289C17.119 18.0323 17.4838 18.7151 18.0196 19.251C18.5554 19.787 19.238 20.152 19.9813 20.3C20.7246 20.4479 21.495 20.3721 22.1952 20.0821C22.8953 19.7922 23.4938 19.3011 23.9148 18.671C24.3359 18.0409 24.5606 17.3001 24.5606 16.5422C24.5606 15.5267 24.1575 14.5527 23.4397 13.8343C22.722 13.1159 21.7484 12.7118 20.7329 12.7108H20.7304Z" fill="url(#paint0_linear_1064_22859)"/>
<path d="M20.7983 14.3442C21.0207 14.5995 21.1434 14.9265 21.1438 15.265C21.1398 15.4587 21.0977 15.6497 21.0199 15.8272C20.942 16.0046 20.83 16.1649 20.6901 16.299C20.5503 16.4331 20.3854 16.5383 20.2048 16.6086C20.0243 16.6789 19.8317 16.713 19.638 16.7088C19.4143 16.7102 19.1932 16.6622 18.9903 16.5682C18.7874 16.4742 18.6077 16.3366 18.4642 16.1651C18.4374 16.3005 18.4236 16.4381 18.4229 16.5762C18.4229 17.8095 19.464 18.8094 20.7485 18.8094C22.0329 18.8094 23.0729 17.8095 23.0729 16.5762C23.0729 15.3428 22.0597 14.3637 20.7983 14.3442Z" fill="#2D2F31"/>
<path d="M24.2334 12.0283C24.2038 12.0301 24.1742 12.026 24.1462 12.0162C24.1182 12.0065 24.0924 11.9912 24.0703 11.9714C24.0483 11.9516 24.0303 11.9276 24.0176 11.9009C24.0049 11.8741 23.9976 11.845 23.9962 11.8154C23.9768 11.3167 24.0668 10.295 25.3585 9.17964C26.2489 8.41214 27.4883 8.13482 29.0476 8.35376C29.0774 8.35787 29.106 8.36795 29.1317 8.38341C29.1575 8.39886 29.1798 8.41936 29.1974 8.44368C29.2151 8.468 29.2276 8.49563 29.2342 8.52491C29.2409 8.55419 29.2415 8.58451 29.2362 8.61405C29.2258 8.6692 29.1949 8.71838 29.1498 8.75176C29.1047 8.78514 29.0487 8.80025 28.9929 8.79407C27.5735 8.59337 26.4593 8.83421 25.676 9.50805C24.5521 10.4811 24.4524 11.3532 24.4597 11.8008C24.461 11.8583 24.4399 11.9141 24.4009 11.9563C24.3618 11.9985 24.3079 12.0239 24.2505 12.027L24.2334 12.0283Z" fill="#2D2F31"/>
<path d="M28.7318 9.02531C29.0885 9.02531 29.3777 8.74704 29.3777 8.40377C29.3777 8.0605 29.0885 7.78223 28.7318 7.78223C28.3751 7.78223 28.0859 8.0605 28.0859 8.40377C28.0859 8.74704 28.3751 9.02531 28.7318 9.02531Z" fill="#2D2F31"/>
<path d="M17.4817 12.0697C17.5112 12.0717 17.5409 12.0677 17.5689 12.0581C17.5969 12.0485 17.6227 12.0334 17.6447 12.0137C17.6668 11.994 17.6848 11.9701 17.6975 11.9433C17.7102 11.9166 17.7175 11.8876 17.7189 11.858C17.7396 11.3472 17.6544 10.1832 16.3566 9.0605C15.4675 8.293 14.2268 8.01568 12.6675 8.23462C12.6378 8.23889 12.6093 8.24908 12.5837 8.26458C12.558 8.28008 12.5357 8.30058 12.5181 8.32486C12.5006 8.34913 12.488 8.3767 12.4813 8.40591C12.4746 8.43512 12.4738 8.46539 12.479 8.49491C12.4894 8.55005 12.5202 8.59924 12.5653 8.63262C12.6104 8.666 12.6665 8.68111 12.7222 8.67493C14.1417 8.47423 15.2571 8.71506 16.0391 9.38891C17.1667 10.362 17.264 11.3764 17.2494 11.8362C17.2477 11.894 17.2686 11.9502 17.3077 11.9929C17.3467 12.0356 17.4008 12.0614 17.4586 12.0648L17.4817 12.0697Z" fill="#2D2F31"/>
<path d="M13.0775 9.02531C13.4342 9.02531 13.7234 8.74704 13.7234 8.40377C13.7234 8.0605 13.4342 7.78223 13.0775 7.78223C12.7208 7.78223 12.4316 8.0605 12.4316 8.40377C12.4316 8.74704 12.7208 9.02531 13.0775 9.02531Z" fill="#2D2F31"/>
<path d="M41.5095 31.6815C41.5095 29.666 36.4617 26.4647 36.4617 26.4647L36.4033 26.4477C37.2353 23.0809 37.6634 21.5824 37.7182 19.393C37.8398 14.3927 36.5785 10.1599 33.4087 6.44887C30.4616 2.99816 25.7702 0.996094 20.759 0.996094C15.4327 0.996094 11.3276 3.02614 8.28073 6.38927C5.23384 9.7524 3.70492 13.4002 3.7925 19.337C3.81804 20.9985 4.1951 23.7876 5.00882 26.2883L4.95165 26.3053C4.95165 26.3053 0 29.4459 0 31.6219C0 32.2653 2.67591 33.0815 8.19558 33.3406L5.11707 37.9529C4.99544 38.3457 5.07085 38.8858 5.40047 39.1169C5.72543 39.3307 6.0972 39.463 6.48422 39.5024C7.06927 39.5195 7.25172 39.3504 7.46701 38.9624L10.5577 33.5814C13.8418 33.7115 15.9314 33.7809 19.6886 33.7882V39.9464C19.7105 40.3174 19.8674 40.9949 20.8636 40.9949C21.7685 40.9949 21.9242 40.36 21.9242 39.9464V33.7918C25.6766 33.7845 27.7176 33.8344 30.9956 33.7055L34.2346 38.9028C34.2936 39.0706 34.4059 39.2144 34.5544 39.3121C34.703 39.4099 34.8795 39.4563 35.0569 39.4441C35.373 39.4487 35.684 39.3644 35.9545 39.2008C36.3194 39.0378 36.3194 38.4382 36.1722 37.8945L33.1217 33.4598C38.4492 33.017 41.5095 32.1984 41.5095 31.6815ZM9.54327 31.0904C9.04765 31.0827 8.57536 30.8785 8.23026 30.5227C7.88516 30.1668 7.6955 29.6885 7.70297 29.1929C7.70297 28.1444 8.52642 27.4134 9.54327 27.4134C10.5601 27.4134 11.3836 28.1432 11.3836 29.1929C11.3907 29.6884 11.201 30.1666 10.8559 30.5223C10.5109 30.8781 10.0388 31.0824 9.54327 31.0904ZM20.7553 31.195C20.3775 31.2066 20.0048 31.1052 19.6849 30.9037C19.3651 30.7022 19.1127 30.4098 18.96 30.064C18.8073 29.7181 18.7614 29.3346 18.828 28.9625C18.8946 28.5904 19.0708 28.2467 19.334 27.9753C19.5972 27.7039 19.9354 27.5173 20.3053 27.4393C20.6752 27.3614 21.0599 27.3956 21.4103 27.5376C21.7606 27.6796 22.0606 27.923 22.2717 28.2365C22.4829 28.55 22.5957 28.9195 22.5956 29.2975C22.6031 29.7931 22.4134 30.2714 22.0683 30.6273C21.7232 30.9831 21.251 31.1873 20.7553 31.195ZM31.9662 31.3008C31.5883 31.3124 31.2156 31.211 30.8958 31.0095C30.5759 30.808 30.3235 30.5156 30.1708 30.1698C30.0182 29.824 29.9722 29.4404 30.0389 29.0683C30.1055 28.6962 30.2817 28.3525 30.5449 28.0811C30.808 27.8098 31.1462 27.6231 31.5161 27.5452C31.886 27.4672 32.2708 27.5014 32.6211 27.6434C32.9714 27.7854 33.2714 28.0288 33.4826 28.3423C33.6938 28.6559 33.8065 29.0253 33.8065 29.4033C33.8136 29.8989 33.6239 30.377 33.2788 30.7327C32.9338 31.0885 32.4617 31.2928 31.9662 31.3008ZM34.7893 25.7544C31.2315 24.8482 25.9636 24.8932 20.7541 24.8932C15.5446 24.8932 10.6586 24.7339 6.69951 25.7544C6.10716 23.374 5.64252 20.9985 5.58292 19.1582C5.3056 10.605 11.0831 2.4946 20.7541 2.4946C30.4251 2.4946 36.396 10.6111 36.0263 19.1582C35.9107 21.8487 35.1603 24.3118 34.7893 25.7544Z" fill="url(#paint1_linear_1064_22859)"/>
<path d="M53.3308 13.5123C54.9906 13.5123 56.4166 13.8553 57.6086 14.5413C58.789 15.2163 59.7334 16.2379 60.3137 17.4678C60.9259 18.7327 61.2316 20.2183 61.2308 21.9244C61.2448 23.0894 61.0753 24.2494 60.7284 25.3617C60.417 26.3506 59.9034 27.2639 59.2202 28.0437C58.5426 28.8055 57.6973 29.3997 56.7511 29.7794C55.778 30.18 54.6598 30.3802 53.3964 30.3802C52.2443 30.3995 51.0999 30.1894 50.0297 29.7624C49.0804 29.3801 48.2318 28.7846 47.5496 28.0218C46.8643 27.2332 46.3521 26.3096 46.0462 25.3106C45.6992 24.2053 45.5276 23.0524 45.5378 21.894C45.5246 20.7229 45.7038 19.5575 46.0681 18.4445C46.3877 17.4571 46.9106 16.5476 47.6031 15.7746C48.2801 15.0362 49.1155 14.4607 50.0467 14.0912C51.0937 13.6878 52.2089 13.4912 53.3308 13.5123ZM57.9418 21.9049C57.9418 20.7105 57.7525 19.6758 57.3738 18.8008C56.9951 17.9259 56.4543 17.2638 55.7512 16.8146C55.0269 16.36 54.1858 16.1263 53.3308 16.142C52.7118 16.1357 52.0987 16.2626 51.533 16.5142C50.9829 16.7627 50.497 17.1339 50.1124 17.5991C49.681 18.1389 49.3614 18.7591 49.1722 19.4236C48.9349 20.2261 48.8197 21.0597 48.8304 21.8964C48.8194 22.7473 48.9354 23.5951 49.1746 24.4117C49.3683 25.0928 49.6994 25.727 50.1476 26.2752C50.5389 26.7482 51.032 27.1266 51.5902 27.382C52.2422 27.6635 52.9516 27.7861 53.6602 27.7398C54.3689 27.6935 55.0563 27.4796 55.6661 27.1156C56.3618 26.6924 56.9153 26.0396 57.3264 25.1574C57.7375 24.2751 57.9423 23.1881 57.9406 21.8964L57.9418 21.9049Z" fill="black"/>
<path d="M66.7588 25.9918V28.5278C66.7588 29.1449 66.6169 29.6067 66.3331 29.9132C66.1966 30.0637 66.0292 30.1829 65.8424 30.2627C65.6555 30.3425 65.4536 30.3809 65.2506 30.3754C65.0504 30.3807 64.8516 30.3415 64.6684 30.2608C64.4853 30.18 64.3223 30.0596 64.1911 29.9084C63.9138 29.597 63.7756 29.1368 63.7764 28.5278V20.072C63.7764 18.7073 64.2605 18.0249 65.2287 18.0249C65.7249 18.0249 66.0821 18.1842 66.3002 18.5029C66.5184 18.8216 66.64 19.2927 66.6651 19.9163C66.9482 19.3871 67.3183 18.9093 67.7598 18.5029C68.1357 18.1842 68.6356 18.0249 69.2632 18.0249C69.902 18.0267 70.53 18.1899 71.0889 18.4993C71.6792 18.8188 71.9744 19.2416 71.9744 19.7679C71.9796 19.9389 71.9488 20.109 71.8838 20.2673C71.8188 20.4255 71.7212 20.5683 71.5973 20.6862C71.4923 20.7978 71.3662 20.8875 71.2263 20.9501C71.0865 21.0127 70.9356 21.047 70.7824 21.0511C70.5116 21.0122 70.246 20.9433 69.9906 20.8456C69.6338 20.7194 69.2595 20.65 68.8813 20.64C68.4938 20.6234 68.1135 20.7478 67.8109 20.9903C67.5037 21.2704 67.2805 21.6305 67.1663 22.0302C66.9985 22.5634 66.892 23.1139 66.8488 23.6711C66.7888 24.306 66.7588 25.0796 66.7588 25.9918Z" fill="black"/>
<path d="M76.3536 15.2432V19.8834C76.8501 19.3411 77.4293 18.8809 78.0698 18.5199C78.6521 18.2053 79.3733 18.0476 80.2337 18.0468C81.1564 18.0151 82.0669 18.2661 82.8431 18.766C83.6193 19.266 84.2244 19.9911 84.5772 20.8443C84.9915 21.7542 85.1987 22.8318 85.1987 24.0773C85.2072 24.9333 85.0913 25.7859 84.8545 26.6085C84.648 27.3305 84.309 28.0078 83.8547 28.6057C83.4316 29.1577 82.8873 29.6051 82.2637 29.9132C81.6226 30.2254 80.9175 30.3837 80.2045 30.3755C79.7672 30.3781 79.3315 30.3221 78.9091 30.2088C78.5448 30.1144 78.1968 29.966 77.8765 29.7685C77.615 29.606 77.3705 29.4178 77.1467 29.2066C76.9464 29.0144 76.682 28.7253 76.3536 28.3393V28.6398C76.3536 29.2074 76.219 29.6396 75.9498 29.9364C75.8203 30.0793 75.6614 30.1926 75.4839 30.2684C75.3065 30.3442 75.1149 30.3807 74.922 30.3755C74.7311 30.3825 74.541 30.3464 74.366 30.2697C74.1909 30.1931 74.0355 30.0779 73.9112 29.9327C73.6607 29.64 73.535 29.2078 73.5342 28.6361V15.3782C73.5342 14.7627 73.6558 14.2973 73.8991 13.9818C74.0186 13.8265 74.174 13.7023 74.3519 13.6199C74.5298 13.5375 74.725 13.4994 74.9208 13.5087C75.3806 13.5087 75.7341 13.6587 75.9814 13.9587C76.2287 14.2588 76.3528 14.6869 76.3536 15.2432ZM76.4959 24.2671C76.4959 25.4761 76.7672 26.405 77.3096 27.0537C77.5672 27.3691 77.894 27.6209 78.2646 27.7897C78.6352 27.9584 79.0397 28.0395 79.4467 28.0267C80.1968 28.0267 80.8435 27.6947 81.3868 27.0306C81.93 26.3665 82.2013 25.4153 82.2005 24.1771C82.2165 23.4727 82.1014 22.7716 81.8611 22.1093C81.6722 21.5823 81.3393 21.1188 80.9002 20.7714C80.4823 20.4554 79.9705 20.2888 79.4467 20.2982C78.903 20.2907 78.3709 20.4565 77.9275 20.7714C77.4568 21.1203 77.0935 21.5944 76.8791 22.1397C76.6092 22.8157 76.4789 23.5394 76.4959 24.2671Z" fill="black"/>
<path d="M89.0908 16.6114C88.6994 16.6198 88.3192 16.4809 88.0253 16.2222C87.7302 15.9635 87.5826 15.5962 87.5826 15.1202C87.5768 14.9209 87.6144 14.7228 87.6928 14.5394C87.7711 14.3561 87.8883 14.192 88.0363 14.0584C88.32 13.7872 88.6984 13.6375 89.0908 13.6412C89.4681 13.6376 89.8337 13.7722 90.1186 14.0195C90.417 14.2708 90.5662 14.6357 90.5662 15.1141C90.5662 15.5828 90.4207 15.9477 90.1296 16.2088C89.848 16.4716 89.476 16.6158 89.0908 16.6114ZM90.5662 19.7496V28.5278C90.5662 29.1375 90.4239 29.5977 90.1393 29.9083C90.0039 30.0601 89.837 30.1805 89.6502 30.2612C89.4634 30.3418 89.2613 30.3808 89.058 30.3753C88.8558 30.3814 88.6549 30.3415 88.4703 30.2587C88.2858 30.1759 88.1224 30.0524 87.9925 29.8973C87.7192 29.5778 87.5826 29.1213 87.5826 28.5278V19.8371C87.5826 19.2363 87.7192 18.7838 87.9925 18.4797C88.1259 18.3303 88.2904 18.212 88.4745 18.1332C88.6586 18.0543 88.8578 18.0169 89.058 18.0236C89.2604 18.0178 89.4616 18.0555 89.6482 18.1342C89.8347 18.2129 90.0022 18.3307 90.1393 18.4797C90.4272 18.7846 90.5711 19.2079 90.5711 19.7496H90.5662Z" fill="black"/>
<path d="M93.8159 18.2912H94.1444V16.4667C94.1444 15.9802 94.1569 15.5962 94.1821 15.3148C94.1997 15.0629 94.2723 14.818 94.3949 14.5972C94.515 14.3869 94.6887 14.2123 94.8985 14.0912C95.1193 13.9607 95.3718 13.8934 95.6283 13.8966C96.0144 13.8998 96.3836 14.056 96.6549 14.3308C96.8565 14.5187 96.9926 14.7665 97.0429 15.0375C97.106 15.4291 97.1333 15.8256 97.1244 16.2222V18.29H98.2191C98.6415 18.29 98.9659 18.3921 99.1921 18.5965C99.3011 18.6953 99.3874 18.8167 99.4449 18.9521C99.5025 19.0876 99.5299 19.2339 99.5254 19.381C99.5254 19.7864 99.3669 20.0702 99.0498 20.2324C98.7327 20.3946 98.2795 20.4757 97.69 20.4757H97.1317V26.0623C97.1265 26.4278 97.1432 26.7934 97.1815 27.1569C97.2033 27.3863 97.2945 27.6036 97.443 27.7797C97.5849 27.9419 97.8164 28.023 98.1376 28.023C98.3769 28.0148 98.6148 27.983 98.8479 27.9281C99.0774 27.8737 99.3116 27.8419 99.5473 27.8332C99.6701 27.8348 99.7913 27.8619 99.9031 27.9128C100.015 27.9637 100.115 28.0372 100.197 28.1288C100.292 28.2244 100.367 28.3384 100.417 28.4639C100.467 28.5893 100.491 28.7236 100.488 28.8586C100.488 29.3451 100.225 29.7197 99.7005 29.9825C99.1759 30.2452 98.4218 30.3749 97.4382 30.3717C96.5048 30.3717 95.7982 30.2124 95.3181 29.8937C94.847 29.5875 94.5093 29.1142 94.373 28.5691C94.223 28.0063 94.1484 27.2534 94.1492 26.3104V20.483H93.7551C93.3258 20.483 92.9974 20.3796 92.7723 20.1716C92.662 20.0725 92.5745 19.9505 92.5159 19.8142C92.4573 19.6779 92.429 19.5305 92.433 19.3822C92.4292 19.2331 92.4592 19.0851 92.5207 18.9493C92.5822 18.8134 92.6736 18.6932 92.7882 18.5977C93.0217 18.3933 93.3643 18.2912 93.8159 18.2912Z" fill="black"/>
<path d="M109.902 24.9458H104.064C104.058 25.5774 104.199 26.2017 104.474 26.7703C104.707 27.26 105.075 27.6731 105.535 27.961C105.974 28.2276 106.48 28.3662 106.994 28.3612C107.323 28.3644 107.65 28.3214 107.967 28.2335C108.269 28.1435 108.556 28.0086 108.819 27.8333C109.088 27.6575 109.344 27.4619 109.584 27.2483C109.817 27.0415 110.12 26.7577 110.491 26.3968C110.678 26.2526 110.911 26.1813 111.147 26.1962C111.418 26.1843 111.684 26.2761 111.89 26.4528C111.987 26.5454 112.063 26.6582 112.112 26.7832C112.161 26.9082 112.183 27.0424 112.174 27.1765C112.153 27.5191 112.044 27.8505 111.857 28.1386C111.608 28.5479 111.283 28.9065 110.901 29.1956C110.417 29.564 109.873 29.8477 109.294 30.0349C108.577 30.269 107.825 30.382 107.071 30.3694C105.155 30.3694 103.665 29.8131 102.601 28.7006C101.536 27.588 101.005 26.0786 101.006 24.1722C100.999 23.3235 101.131 22.4793 101.399 21.6739C101.64 20.9428 102.031 20.27 102.547 19.6986C103.066 19.1422 103.706 18.7124 104.417 18.4421C105.197 18.1411 106.028 17.992 106.864 18.003C108.031 18.003 109.031 18.2532 109.863 18.7535C110.658 19.2138 111.308 19.8881 111.738 20.6996C112.14 21.4438 112.354 22.2753 112.361 23.1213C112.361 23.8851 112.146 24.3802 111.716 24.6064C111.286 24.8327 110.682 24.9458 109.902 24.9458ZM104.064 23.221H109.477C109.404 22.1823 109.128 21.4051 108.651 20.8893C108.173 20.3736 107.545 20.1162 106.765 20.117C106.423 20.1077 106.082 20.1731 105.767 20.3085C105.452 20.444 105.17 20.6463 104.941 20.9015C104.46 21.4237 104.169 22.1969 104.066 23.221H104.064Z" fill="black"/>
<path d="M117.835 25.9918V28.5279C117.835 29.1449 117.693 29.6067 117.409 29.9132C117.273 30.0637 117.106 30.1828 116.919 30.2626C116.733 30.3424 116.531 30.3809 116.328 30.3755C116.128 30.3808 115.929 30.3417 115.745 30.2609C115.562 30.1802 115.399 30.0598 115.267 29.9084C114.99 29.597 114.852 29.1368 114.853 28.5279V20.072C114.853 18.7073 115.339 18.0249 116.312 18.0249C116.808 18.0249 117.164 18.1842 117.382 18.5029C117.601 18.8216 117.722 19.2927 117.747 19.9163C118.03 19.3868 118.4 18.9089 118.842 18.5029C119.218 18.1842 119.719 18.0249 120.345 18.0249C120.984 18.0281 121.612 18.1925 122.17 18.5029C122.759 18.8224 123.055 19.2453 123.055 19.7715C123.061 19.9425 123.03 20.1127 122.965 20.2709C122.9 20.4292 122.802 20.5719 122.678 20.6899C122.573 20.8013 122.448 20.8909 122.308 20.9535C122.168 21.0161 122.018 21.0505 121.865 21.0548C121.593 21.0159 121.327 20.947 121.072 20.8492C120.715 20.723 120.341 20.6536 119.962 20.6436C119.575 20.627 119.195 20.7515 118.892 20.9939C118.585 21.2744 118.362 21.6344 118.247 22.0339C118.076 22.5654 117.965 23.1146 117.918 23.6711C117.863 24.306 117.835 25.0796 117.835 25.9918Z" fill="black"/>
<defs>
<linearGradient id="paint0_linear_1064_22859" x1="14.9566" y1="12.6306" x2="26.4824" y2="24.5481" gradientUnits="userSpaceOnUse">
<stop stop-color="#EF2F2D"/>
<stop offset="1" stop-color="#89272D"/>
</linearGradient>
<linearGradient id="paint1_linear_1064_22859" x1="3.38138" y1="17.1975" x2="42.5798" y2="27.7053" gradientUnits="userSpaceOnUse">
<stop stop-color="#434344"/>
<stop offset="0.29" stop-color="#404041"/>
<stop offset="0.51" stop-color="#363637"/>
<stop offset="0.71" stop-color="#262627"/>
<stop offset="0.9" stop-color="#0F0F0F"/>
<stop offset="1"/>
</linearGradient>
</defs>
</svg>
