<svg width="40" height="40" viewBox="0 0 40 40" fill="none" xmlns="http://www.w3.org/2000/svg">
<g clip-path="url(#clip0_837_10007)">
<path d="M14.4971 31.777V26.3513C13.2782 26.0899 12.0691 25.7841 10.8725 25.4344L10.8725 14.5611C12.0663 14.1919 13.2757 13.8749 14.4971 13.6109L14.4971 8.21854C14.4971 8.09946 14.5205 7.98154 14.566 7.87151C14.6116 7.76148 14.6783 7.66151 14.7625 7.5773C14.8467 7.4931 14.9467 7.42632 15.0567 7.38078C15.1668 7.33524 15.2847 7.31184 15.4038 7.31191L19.9338 7.3119C21.6193 7.31265 23.252 7.90077 24.5508 8.97509C25.8496 10.0494 26.7335 11.5428 27.0504 13.1983C33.9613 14.3708 38.9629 17.6091 38.9616 19.9965C38.9603 22.3838 33.96 25.6234 27.0504 26.7946C26.7335 28.4502 25.8496 29.9435 24.5508 31.0179C23.252 32.0922 21.6193 32.6803 19.9337 32.681H15.4038C15.1637 32.6812 14.9334 32.5861 14.7634 32.4166C14.5935 32.2471 14.4977 32.017 14.4971 31.777ZM24.4644 12.7485C24.4644 12.2725 24.3706 11.8012 24.1885 11.3614C24.0063 10.9217 23.7393 10.5221 23.4028 10.1855C23.0662 9.84891 22.6666 9.58193 22.2268 9.39978C21.7871 9.21763 21.3157 9.12388 20.8397 9.12389L17.2158 9.1239C17.0967 9.12383 16.9788 9.14723 16.8687 9.19277C16.7587 9.23831 16.6587 9.30509 16.5745 9.38929C16.4903 9.4735 16.4235 9.57347 16.378 9.6835C16.3325 9.79353 16.3091 9.91145 16.3091 10.0305L16.3091 12.7485L24.4644 12.7485ZM36.2436 19.9978C36.2436 18.8444 34.4361 17.4137 31.7136 16.3123L31.7136 23.6832C34.438 22.5838 36.2462 21.1588 36.2455 19.9997L36.2436 19.9978ZM29.901 24.3272L29.901 15.6683C27.5227 14.943 25.051 14.5699 22.5646 14.5611C19.2303 14.6352 15.9156 15.0912 12.6851 15.9201L12.6851 24.0754C15.9215 24.8736 19.2329 25.3291 22.5646 25.4344C25.0516 25.4264 27.5239 25.054 29.9029 24.3291L29.901 24.3272ZM20.8397 30.8716C21.3157 30.8716 21.7871 30.7779 22.2268 30.5957C22.6666 30.4136 23.0662 30.1466 23.4028 29.81C23.7393 29.4734 24.0063 29.0739 24.1885 28.6341C24.3706 28.1943 24.4644 27.723 24.4644 27.247H16.3091L16.3091 29.965C16.3091 30.0841 16.3325 30.202 16.378 30.312C16.4235 30.422 16.4903 30.522 16.5745 30.6062C16.6587 30.6904 16.7587 30.7572 16.8687 30.8027C16.9788 30.8483 17.0967 30.8717 17.2158 30.8716L20.8397 30.8716ZM19.0271 19.9978C19.0271 19.2809 19.2397 18.5801 19.638 17.9841C20.0363 17.3881 20.6023 16.9235 21.2646 16.6492C21.9269 16.3749 22.6557 16.3031 23.3588 16.443C24.0619 16.5828 24.7077 16.928 25.2146 17.4349C25.7215 17.9418 26.0667 18.5876 26.2065 19.2907C26.3464 19.9938 26.2746 20.7226 26.0003 21.3849C25.726 22.0471 25.2614 22.6132 24.6654 23.0115C24.0693 23.4098 23.3686 23.6224 22.6517 23.6224C21.6911 23.6219 20.7699 23.2401 20.0906 22.5608C19.4114 21.8815 19.0295 20.9603 19.029 19.9997L19.0271 19.9978ZM24.4644 19.9978C24.4644 19.6393 24.3582 19.2889 24.1591 18.9908C23.9599 18.6927 23.6769 18.4604 23.3458 18.3232C23.0146 18.186 22.6502 18.1501 22.2986 18.22C21.947 18.2899 21.6241 18.4626 21.3706 18.716C21.1172 18.9695 20.9446 19.2924 20.8746 19.644C20.8047 19.9956 20.8406 20.36 20.9778 20.6911C21.115 21.0223 21.3474 21.3053 21.6454 21.5044C21.9435 21.7036 22.2939 21.8098 22.6524 21.8097C23.1329 21.8102 23.594 21.6197 23.9341 21.2803C24.2743 20.9409 24.4657 20.4802 24.4663 19.9997L24.4644 19.9978Z" fill="#333333" fill-opacity="0.8"/>
<path d="M0.00528341 20C0.00528341 20 3.44025 16.3754 5.4419 16.3754C6.40321 16.3754 7.32514 16.7573 8.00489 17.437C8.34147 17.7736 8.60846 18.1732 8.79061 18.6129C8.97277 19.0527 9.06652 19.524 9.06652 20C9.06652 20.476 8.97277 20.9473 8.79061 21.3871C8.60846 21.8269 8.34147 22.2264 8.00489 22.563C7.66831 22.8996 7.26874 23.1666 6.82898 23.3487C6.38922 23.5309 5.91789 23.6246 5.4419 23.6246C3.4364 23.6246 0.00528341 20 0.00528341 20ZM7.25453 20C7.25446 19.5195 7.06353 19.0586 6.72373 18.7188C6.38393 18.379 5.92309 18.1881 5.44254 18.188C4.44171 18.188 1.81727 20 1.81727 20C1.81727 20 4.44171 21.812 5.44254 21.812C5.92242 21.8109 6.38228 21.6195 6.72124 21.2798C7.06021 20.9402 7.25061 20.4799 7.25068 20L7.25453 20Z" fill="#FF5A06"/>
</g>
<defs>
<clipPath id="clip0_837_10007">
<rect width="28.2843" height="28.2843" fill="white" transform="translate(20) rotate(45)"/>
</clipPath>
</defs>
</svg>
