<svg width="138" height="40" viewBox="0 0 138 40" fill="none" xmlns="http://www.w3.org/2000/svg">
<path d="M123.416 14.8769C123.498 16.8644 123.775 20.2289 123.917 21.8807C123.927 22.0011 123.911 22.1223 123.871 22.2361C123.83 22.35 123.766 22.4539 123.682 22.541C123.599 22.6281 123.497 22.6964 123.385 22.7413C123.273 22.7862 123.152 22.8067 123.032 22.8015C121.815 22.7443 119.535 22.6579 116.815 22.6458C114.162 22.6336 111.966 22.7066 110.778 22.7577C110.658 22.7623 110.538 22.7415 110.427 22.6965C110.315 22.6515 110.214 22.5834 110.131 22.4966C110.048 22.4098 109.984 22.3064 109.943 22.1931C109.903 22.0798 109.887 21.9592 109.896 21.8393C110.031 20.2021 110.295 16.8632 110.377 14.8769C110.436 13.1898 111.149 11.592 112.366 10.4224C113.583 9.25268 115.208 8.60311 116.896 8.61141C118.584 8.60311 120.209 9.25268 121.426 10.4224C122.644 11.592 123.357 13.1898 123.416 14.8769ZM116.887 11.7143C116.129 11.7143 115.388 11.9391 114.758 12.3601C114.128 12.7811 113.637 13.3795 113.347 14.0796C113.057 14.7797 112.981 15.5501 113.129 16.2934C113.277 17.0366 113.642 17.7193 114.177 18.2552C114.713 18.791 115.396 19.1559 116.139 19.3038C116.882 19.4516 117.653 19.3758 118.353 19.0858C119.053 18.7958 119.651 18.3047 120.072 17.6746C120.493 17.0445 120.718 16.3037 120.718 15.5459C120.718 15.0427 120.619 14.5445 120.427 14.0796C120.234 13.6147 119.952 13.1924 119.596 12.8366C119.24 12.4808 118.818 12.1986 118.353 12.006C117.888 11.8134 117.39 11.7143 116.887 11.7143Z" fill="url(#paint0_linear_1064_22953)"/>
<path d="M116.954 13.3486C117.177 13.6036 117.3 13.9308 117.299 14.2694C117.296 14.4629 117.254 14.6537 117.176 14.8309C117.099 15.0082 116.987 15.1685 116.847 15.3025C116.708 15.4366 116.543 15.5419 116.363 15.6124C116.183 15.6828 115.991 15.7171 115.797 15.7132C115.573 15.7146 115.352 15.6666 115.149 15.5726C114.946 15.4786 114.766 15.341 114.622 15.1695C114.596 15.305 114.582 15.4426 114.582 15.5807C114.582 16.814 115.622 17.8139 116.906 17.8139C118.191 17.8139 119.231 16.814 119.231 15.5807C119.231 14.3473 118.218 13.3681 116.954 13.3486Z" fill="#2D2F31"/>
<path d="M120.39 11.0323C120.361 11.0341 120.331 11.03 120.303 11.0202C120.275 11.0105 120.25 10.9952 120.228 10.9754C120.206 10.9556 120.188 10.9316 120.175 10.9048C120.163 10.878 120.156 10.849 120.154 10.8194C120.135 10.3207 120.224 9.29898 121.517 8.18358C122.406 7.41605 123.647 7.13872 125.206 7.35767C125.236 7.36192 125.264 7.37212 125.29 7.38764C125.315 7.40315 125.338 7.42368 125.355 7.44798C125.373 7.47228 125.385 7.49986 125.392 7.52907C125.398 7.55828 125.399 7.58851 125.393 7.61797C125.383 7.67444 125.352 7.72477 125.305 7.75835C125.258 7.79193 125.201 7.80614 125.144 7.79799C123.726 7.59729 122.61 7.83813 121.827 8.51199C120.704 9.48508 120.611 10.3572 120.611 10.8048C120.612 10.8622 120.591 10.918 120.553 10.9602C120.514 11.0025 120.46 11.0279 120.403 11.0311L120.39 11.0323Z" fill="#2D2F31"/>
<path d="M124.888 8.02925C125.245 8.02925 125.534 7.75097 125.534 7.40769C125.534 7.06441 125.245 6.78613 124.888 6.78613C124.531 6.78613 124.242 7.06441 124.242 7.40769C124.242 7.75097 124.531 8.02925 124.888 8.02925Z" fill="#2D2F31"/>
<path d="M113.639 11.0737C113.669 11.0757 113.698 11.0717 113.726 11.0621C113.754 11.0525 113.78 11.0374 113.802 11.0176C113.824 10.9979 113.842 10.974 113.854 10.9473C113.867 10.9205 113.874 10.8916 113.875 10.8621C113.896 10.3512 113.811 9.18713 112.513 8.06443C111.624 7.29691 110.384 7.01958 108.825 7.23853C108.795 7.24264 108.767 7.25272 108.741 7.26818C108.715 7.28363 108.693 7.30413 108.675 7.32845C108.658 7.35277 108.645 7.3804 108.638 7.40968C108.632 7.43896 108.631 7.46928 108.636 7.49883C108.647 7.55411 108.677 7.60347 108.722 7.6369C108.768 7.67033 108.824 7.68533 108.88 7.67885C110.298 7.47815 111.413 7.71899 112.197 8.39285C113.324 9.36594 113.42 10.3804 113.407 10.8402C113.405 10.8978 113.426 10.9538 113.465 10.9965C113.504 11.0392 113.557 11.0651 113.615 11.0688L113.639 11.0737Z" fill="#2D2F31"/>
<path d="M109.234 8.02925C109.59 8.02925 109.88 7.75097 109.88 7.40769C109.88 7.06441 109.59 6.78613 109.234 6.78613C108.877 6.78613 108.588 7.06441 108.588 7.40769C108.588 7.75097 108.877 8.02925 109.234 8.02925Z" fill="#2D2F31"/>
<path d="M137.667 30.6863C137.667 28.6708 132.618 25.4694 132.618 25.4694L132.561 25.4523C133.392 22.0854 133.82 20.5869 133.876 18.3974C133.998 13.397 132.735 9.16406 129.566 5.45294C126.619 2.00213 121.928 0 116.916 0C111.59 0 107.483 2.0301 104.438 5.39334C101.392 8.75658 99.863 12.4008 99.9542 18.3378C99.9785 19.9994 100.357 22.7885 101.171 25.2893L101.113 25.3064C101.113 25.3064 96.1543 28.4507 96.1543 30.6267C96.1543 31.2702 98.8303 32.0864 104.35 32.3454L101.272 36.9579C101.15 37.3508 101.227 37.8908 101.556 38.1219C101.881 38.3359 102.252 38.4681 102.639 38.5075C103.225 38.5246 103.406 38.3555 103.622 37.9675L106.715 32.5863C109.999 32.7164 112.087 32.7858 115.845 32.7931V38.9515C115.867 39.3225 116.024 40 117.02 40C117.926 40 118.08 39.3651 118.08 38.9515V32.7967C121.834 32.7894 123.874 32.8393 127.152 32.7104L130.391 37.9079C130.45 38.0756 130.562 38.2195 130.71 38.3173C130.859 38.4151 131.035 38.4615 131.212 38.4491C131.529 38.4537 131.84 38.3694 132.111 38.2059C132.476 38.0429 132.476 37.4432 132.328 36.8995L129.279 32.4646C134.606 32.0219 137.667 31.2033 137.667 30.6863ZM105.699 30.0952C105.203 30.0875 104.731 29.8833 104.386 29.5275C104.041 29.1716 103.851 28.6933 103.859 28.1977C103.859 27.1492 104.682 26.4181 105.699 26.4181C106.716 26.4181 107.539 27.1479 107.539 28.1977C107.547 28.6933 107.357 29.1716 107.012 29.5275C106.667 29.8833 106.195 30.0875 105.699 30.0952ZM116.911 30.1998C116.534 30.2114 116.161 30.11 115.841 29.9085C115.521 29.707 115.269 29.4146 115.116 29.0688C114.963 28.7229 114.917 28.3394 114.984 27.9673C115.051 27.5951 115.227 27.2514 115.49 26.98C115.753 26.7087 116.092 26.522 116.461 26.444C116.831 26.3661 117.216 26.4003 117.566 26.5423C117.917 26.6843 118.217 26.9277 118.428 27.2412C118.639 27.5548 118.752 27.9242 118.752 28.3023C118.759 28.7979 118.57 29.2762 118.225 29.6321C117.879 29.9879 117.407 30.1921 116.911 30.1998ZM128.124 30.3056C127.746 30.3172 127.373 30.2158 127.053 30.0143C126.734 29.8128 126.481 29.5204 126.328 29.1746C126.176 28.8287 126.13 28.4452 126.196 28.0731C126.263 27.701 126.439 27.3572 126.703 27.0858C126.966 26.8145 127.304 26.6279 127.674 26.5499C128.044 26.4719 128.428 26.5061 128.779 26.6481C129.129 26.7901 129.429 27.0335 129.64 27.3471C129.852 27.6606 129.964 28.0301 129.964 28.4081C129.972 28.9037 129.782 29.3821 129.437 29.7379C129.092 30.0937 128.62 30.2979 128.124 30.3056ZM130.947 24.759C127.388 23.8528 122.121 23.8978 116.911 23.8978C111.702 23.8978 106.816 23.7385 102.855 24.759C102.263 22.3786 101.798 20.003 101.739 18.1627C101.462 9.60924 107.24 1.49856 116.911 1.49856C126.583 1.49856 132.553 9.61533 132.184 18.1627C132.067 20.8533 131.317 23.3164 130.942 24.759H130.947Z" fill="url(#paint1_linear_1064_22953)"/>
<path d="M0 20.038V19.6658L16.6179 2.92871H17.5095V11.768H34.8049L17.4025 24.6371V37.0951H16.8296L0 20.038Z" fill="#8C8DFD"/>
<path d="M44.9029 14.9993V2.62402H45.685L62.6764 19.6652V20.3549L45.685 37.3754H44.9029V28.3659H27.8994V27.7844L44.9029 14.9993Z" fill="#4E529B"/>
<line x1="80.5" y1="-3.92191e-07" x2="80.5" y2="40" stroke="#333333" stroke-opacity="0.4"/>
<defs>
<linearGradient id="paint0_linear_1064_22953" x1="111.114" y1="11.6341" x2="122.64" y2="23.552" gradientUnits="userSpaceOnUse">
<stop stop-color="#EF2F2D"/>
<stop offset="1" stop-color="#89272D"/>
</linearGradient>
<linearGradient id="paint1_linear_1064_22953" x1="99.537" y1="16.2019" x2="138.738" y2="26.7101" gradientUnits="userSpaceOnUse">
<stop stop-color="#434344"/>
<stop offset="0.29" stop-color="#404041"/>
<stop offset="0.51" stop-color="#363637"/>
<stop offset="0.71" stop-color="#262627"/>
<stop offset="0.9" stop-color="#0F0F0F"/>
<stop offset="1"/>
</linearGradient>
</defs>
</svg>
