<svg width="153" height="41" viewBox="0 0 153 41" fill="none" xmlns="http://www.w3.org/2000/svg">
<path d="M27.2591 15.8733C27.3406 17.8607 27.624 21.2251 27.7602 22.8769C27.7702 22.9972 27.7544 23.1182 27.714 23.232C27.6736 23.3458 27.6094 23.4496 27.5258 23.5367C27.4422 23.6238 27.341 23.6921 27.229 23.7371C27.1169 23.782 26.9966 23.8027 26.876 23.7976C25.6536 23.7404 23.379 23.6541 20.6581 23.6419C18.0053 23.6298 15.8111 23.7027 14.6215 23.7538C14.5013 23.7585 14.3815 23.7377 14.2699 23.6927C14.1584 23.6477 14.0576 23.5795 13.9743 23.4928C13.891 23.406 13.827 23.3026 13.7866 23.1893C13.7461 23.076 13.7301 22.9554 13.7397 22.8355C13.8747 21.1983 14.1399 17.8595 14.2262 15.8733C14.2844 14.1871 14.997 12.5899 16.2129 11.4203C17.4288 10.2507 19.0525 9.60067 20.7396 9.60799C22.4277 9.59939 24.0527 10.2488 25.2699 11.4185C26.4871 12.5883 27.2006 14.1862 27.2591 15.8733ZM20.7311 12.7108C19.9733 12.7106 19.2324 12.9351 18.6022 13.356C17.9719 13.7768 17.4807 14.3751 17.1905 15.0752C16.9003 15.7753 16.8242 16.5457 16.9719 17.289C17.1196 18.0323 17.4845 18.7151 18.0202 19.251C18.556 19.787 19.2387 20.152 19.982 20.3C20.7252 20.4479 21.4957 20.3721 22.1958 20.0821C22.896 19.7922 23.4945 19.3011 23.9155 18.671C24.3366 18.0409 24.5613 17.3001 24.5613 16.5422C24.5613 15.5267 24.1581 14.5527 23.4404 13.8343C22.7227 13.1159 21.7491 12.7118 20.7335 12.7108H20.7311Z" fill="url(#paint0_linear_634_1303)"/>
<path d="M20.7992 14.3442C21.0217 14.5995 21.1443 14.9265 21.1447 15.265C21.1407 15.4587 21.0986 15.6497 21.0208 15.8272C20.943 16.0046 20.8309 16.1649 20.6911 16.299C20.5512 16.4331 20.3863 16.5383 20.2058 16.6086C20.0252 16.6789 19.8326 16.713 19.6389 16.7088C19.4153 16.7102 19.1941 16.6622 18.9912 16.5682C18.7883 16.4742 18.6086 16.3366 18.4651 16.1651C18.4384 16.3005 18.4245 16.4381 18.4238 16.5762C18.4238 17.8095 19.4649 18.8094 20.7494 18.8094C22.0338 18.8094 23.0738 17.8095 23.0738 16.5762C23.0738 15.3428 22.0606 14.3637 20.7992 14.3442Z" fill="#2D2F31"/>
<path d="M24.2341 12.0285C24.2045 12.0303 24.1748 12.0262 24.1468 12.0165C24.1188 12.0067 24.0931 11.9915 24.071 11.9717C24.0489 11.9519 24.031 11.9279 24.0183 11.9011C24.0056 11.8743 23.9983 11.8453 23.9969 11.8157C23.9775 11.317 24.0675 10.2953 25.3592 9.17988C26.2496 8.41239 27.489 8.13506 29.0483 8.354C29.0781 8.35811 29.1067 8.3682 29.1324 8.38365C29.1581 8.39911 29.1805 8.41961 29.1981 8.44393C29.2157 8.46824 29.2282 8.49587 29.2349 8.52515C29.2415 8.55443 29.2422 8.58475 29.2368 8.6143C29.2265 8.66944 29.1956 8.71862 29.1505 8.752C29.1054 8.78538 29.0494 8.80049 28.9936 8.79431C27.5741 8.59362 26.46 8.83445 25.6767 9.50829C24.5528 10.4813 24.453 11.3535 24.4603 11.8011C24.4617 11.8586 24.4406 11.9143 24.4016 11.9565C24.3625 11.9988 24.3086 12.0241 24.2511 12.0273L24.2341 12.0285Z" fill="#2D2F31"/>
<path d="M28.7321 9.02531C29.0888 9.02531 29.378 8.74704 29.378 8.40377C29.378 8.0605 29.0888 7.78223 28.7321 7.78223C28.3754 7.78223 28.0862 8.0605 28.0862 8.40377C28.0862 8.74704 28.3754 9.02531 28.7321 9.02531Z" fill="#2D2F31"/>
<path d="M17.4823 12.0697C17.5118 12.0717 17.5415 12.0677 17.5695 12.0581C17.5975 12.0485 17.6233 12.0334 17.6453 12.0137C17.6674 11.994 17.6854 11.9701 17.6981 11.9433C17.7108 11.9166 17.7181 11.8876 17.7195 11.858C17.7402 11.3472 17.655 10.1832 16.3572 9.0605C15.4681 8.293 14.2274 8.01568 12.6681 8.23462C12.6384 8.23889 12.6099 8.24908 12.5843 8.26458C12.5586 8.28008 12.5363 8.30058 12.5187 8.32486C12.5012 8.34913 12.4886 8.3767 12.4819 8.40591C12.4752 8.43512 12.4744 8.46539 12.4796 8.49491C12.49 8.55005 12.5208 8.59924 12.5659 8.63262C12.611 8.666 12.6671 8.68111 12.7228 8.67493C14.1423 8.47423 15.2577 8.71506 16.0398 9.38891C17.1673 10.362 17.2646 11.3764 17.25 11.8362C17.2483 11.894 17.2692 11.9502 17.3083 11.9929C17.3473 12.0356 17.4015 12.0614 17.4592 12.0648L17.4823 12.0697Z" fill="#2D2F31"/>
<path d="M13.078 9.02531C13.4347 9.02531 13.7239 8.74704 13.7239 8.40377C13.7239 8.0605 13.4347 7.78223 13.078 7.78223C12.7213 7.78223 12.4321 8.0605 12.4321 8.40377C12.4321 8.74704 12.7213 9.02531 13.078 9.02531Z" fill="#2D2F31"/>
<path d="M41.5095 31.6817C41.5095 29.6663 36.4617 26.4649 36.4617 26.4649L36.4033 26.4479C37.2353 23.0811 37.6634 21.5826 37.7182 19.3932C37.8398 14.3929 36.5785 10.1601 33.4087 6.44911C30.4616 2.99841 25.7702 0.996338 20.759 0.996338C15.4327 0.996338 11.3276 3.02638 8.28073 6.38951C5.23384 9.75265 3.70492 13.4004 3.7925 19.3373C3.81804 20.9988 4.1951 23.7878 5.00882 26.2886L4.95165 26.3056C4.95165 26.3056 0 29.4461 0 31.6221C0 32.2656 2.67591 33.0817 8.19558 33.3408L5.11707 37.9531C4.99544 38.346 5.07085 38.886 5.40047 39.1171C5.72543 39.331 6.0972 39.4633 6.48422 39.5027C7.06927 39.5197 7.25172 39.3507 7.46701 38.9626L10.5577 33.5816C13.8418 33.7118 15.9314 33.7811 19.6886 33.7884V39.9467C19.7105 40.3176 19.8674 40.9951 20.8636 40.9951C21.7685 40.9951 21.9242 40.3602 21.9242 39.9467V33.7921C25.6766 33.7848 27.7176 33.8346 30.9956 33.7057L34.2346 38.903C34.2936 39.0708 34.4059 39.2146 34.5544 39.3124C34.703 39.4101 34.8795 39.4565 35.0569 39.4443C35.373 39.4489 35.684 39.3646 35.9545 39.201C36.3194 39.0381 36.3194 38.4384 36.1722 37.8947L33.1217 33.46C38.4492 33.0173 41.5095 32.1987 41.5095 31.6817ZM9.54327 31.0906C9.04765 31.0829 8.57536 30.8787 8.23026 30.5229C7.88516 30.1671 7.6955 29.6888 7.70297 29.1931C7.70297 28.1447 8.52642 27.4137 9.54327 27.4137C10.5601 27.4137 11.3836 28.1435 11.3836 29.1931C11.3907 29.6887 11.201 30.1668 10.8559 30.5225C10.5109 30.8783 10.0388 31.0826 9.54327 31.0906ZM20.7553 31.1952C20.3775 31.2068 20.0048 31.1054 19.6849 30.9039C19.3651 30.7024 19.1127 30.41 18.96 30.0642C18.8073 29.7184 18.7614 29.3349 18.828 28.9628C18.8946 28.5906 19.0708 28.2469 19.334 27.9755C19.5972 27.7042 19.9354 27.5176 20.3053 27.4396C20.6752 27.3616 21.0599 27.3958 21.4103 27.5378C21.7606 27.6798 22.0606 27.9232 22.2717 28.2367C22.4829 28.5503 22.5957 28.9197 22.5956 29.2977C22.6031 29.7934 22.4134 30.2717 22.0683 30.6275C21.7232 30.9833 21.251 31.1875 20.7553 31.1952ZM31.9662 31.301C31.5883 31.3127 31.2156 31.2112 30.8958 31.0097C30.5759 30.8082 30.3235 30.5159 30.1708 30.17C30.0182 29.8242 29.9722 29.4407 30.0389 29.0686C30.1055 28.6965 30.2817 28.3527 30.5449 28.0814C30.808 27.81 31.1462 27.6234 31.5161 27.5454C31.886 27.4674 32.2708 27.5016 32.6211 27.6437C32.9714 27.7857 33.2714 28.029 33.4826 28.3426C33.6938 28.6561 33.8065 29.0255 33.8065 29.4036C33.8136 29.8991 33.6239 30.3772 33.2788 30.733C32.9338 31.0887 32.4617 31.293 31.9662 31.301ZM34.7893 25.7546C31.2315 24.8484 25.9636 24.8934 20.7541 24.8934C15.5446 24.8934 10.6586 24.7341 6.69951 25.7546C6.10716 23.3743 5.64252 20.9988 5.58292 19.1585C5.3056 10.6053 11.0831 2.49485 20.7541 2.49485C30.4251 2.49485 36.396 10.6114 36.0263 19.1585C35.9107 21.849 35.1603 24.312 34.7893 25.7546Z" fill="url(#paint1_linear_634_1303)"/>
<path d="M53.331 13.5123C54.9909 13.5123 56.4168 13.8553 57.6088 14.5413C58.7893 15.2163 59.7337 16.2379 60.3139 17.4678C60.9261 18.7327 61.2318 20.2183 61.231 21.9244C61.2451 23.0894 61.0756 24.2494 60.7287 25.3617C60.4172 26.3506 59.9036 27.2639 59.2204 28.0437C58.5428 28.8055 57.6976 29.3997 56.7513 29.7794C55.7783 30.18 54.66 30.3802 53.3967 30.3802C52.2446 30.3995 51.1001 30.1894 50.0299 29.7624C49.0806 29.3801 48.232 28.7846 47.5498 28.0218C46.8645 27.2332 46.3524 26.3096 46.0464 25.3106C45.6994 24.2053 45.5279 23.0524 45.538 21.894C45.5249 20.7229 45.704 19.5575 46.0683 18.4445C46.388 17.4571 46.9108 16.5476 47.6033 15.7746C48.2803 15.0362 49.1157 14.4607 50.0469 14.0912C51.0939 13.6878 52.2092 13.4912 53.331 13.5123ZM57.9421 21.9049C57.9421 20.7105 57.7527 19.6758 57.3741 18.8008C56.9954 17.9259 56.4545 17.2638 55.7515 16.8146C55.0271 16.36 54.186 16.1263 53.331 16.142C52.712 16.1357 52.0989 16.2626 51.5333 16.5142C50.9832 16.7627 50.4972 17.1339 50.1126 17.5991C49.6813 18.1389 49.3617 18.7591 49.1724 19.4236C48.9351 20.2261 48.8199 21.0597 48.8306 21.8964C48.8196 22.7473 48.9357 23.5951 49.1748 24.4117C49.3685 25.0928 49.6997 25.727 50.1479 26.2752C50.5391 26.7482 51.0323 27.1266 51.5905 27.382C52.2424 27.6635 52.9519 27.7861 53.6605 27.7398C54.3691 27.6935 55.0566 27.4796 55.6664 27.1156C56.3621 26.6924 56.9155 26.0396 57.3266 25.1574C57.7378 24.2751 57.9425 23.1881 57.9409 21.8964L57.9421 21.9049Z" fill="black"/>
<path d="M66.7592 25.9918V28.5278C66.7592 29.1449 66.6173 29.6067 66.3335 29.9132C66.197 30.0637 66.0296 30.1829 65.8428 30.2627C65.6559 30.3425 65.4541 30.3809 65.251 30.3754C65.0509 30.3807 64.8521 30.3415 64.6689 30.2608C64.4857 30.18 64.3227 30.0596 64.1916 29.9084C63.9142 29.597 63.776 29.1368 63.7768 28.5278V20.072C63.7768 18.7073 64.2609 18.0249 65.2291 18.0249C65.7253 18.0249 66.0825 18.1842 66.3007 18.5029C66.5188 18.8216 66.6404 19.2927 66.6656 19.9163C66.9486 19.3871 67.3187 18.9093 67.7603 18.5029C68.1361 18.1842 68.636 18.0249 69.2636 18.0249C69.9024 18.0267 70.5304 18.1899 71.0893 18.4993C71.6796 18.8188 71.9748 19.2416 71.9748 19.7679C71.9801 19.9389 71.9492 20.109 71.8842 20.2673C71.8193 20.4255 71.7216 20.5683 71.5977 20.6862C71.4927 20.7978 71.3666 20.8875 71.2267 20.9501C71.0869 21.0127 70.936 21.047 70.7828 21.0511C70.512 21.0122 70.2465 20.9433 69.991 20.8456C69.6343 20.7194 69.2599 20.65 68.8817 20.64C68.4943 20.6234 68.114 20.7478 67.8113 20.9903C67.5041 21.2704 67.2809 21.6305 67.1667 22.0302C66.999 22.5634 66.8925 23.1139 66.8492 23.6711C66.7892 24.306 66.7592 25.0796 66.7592 25.9918Z" fill="black"/>
<path d="M76.3536 15.2432V19.8834C76.85 19.3411 77.4293 18.8809 78.0698 18.5199C78.652 18.2053 79.3733 18.0476 80.2336 18.0468C81.1564 18.0151 82.0668 18.2661 82.843 18.766C83.6193 19.266 84.2243 19.9911 84.5771 20.8443C84.9915 21.7542 85.1987 22.8318 85.1987 24.0773C85.2072 24.9333 85.0912 25.7859 84.8544 26.6085C84.648 27.3305 84.3089 28.0078 83.8546 28.6057C83.4315 29.1577 82.8872 29.6051 82.2637 29.9132C81.6226 30.2254 80.9175 30.3837 80.2044 30.3755C79.7671 30.3781 79.3314 30.3221 78.909 30.2088C78.5448 30.1144 78.1967 29.966 77.8764 29.7685C77.615 29.606 77.3705 29.4178 77.1466 29.2066C76.9463 29.0144 76.682 28.7253 76.3536 28.3393V28.6398C76.3536 29.2074 76.219 29.6396 75.9497 29.9364C75.8202 30.0793 75.6613 30.1926 75.4839 30.2684C75.3065 30.3442 75.1148 30.3807 74.9219 30.3755C74.731 30.3825 74.5409 30.3464 74.3659 30.2697C74.1909 30.1931 74.0354 30.0779 73.9112 29.9327C73.6606 29.64 73.5349 29.2078 73.5341 28.6361V15.3782C73.5341 14.7627 73.6558 14.2973 73.899 13.9818C74.0186 13.8265 74.1739 13.7023 74.3518 13.6199C74.5297 13.5375 74.7249 13.4994 74.9207 13.5087C75.3805 13.5087 75.734 13.6587 75.9814 13.9587C76.2287 14.2588 76.3527 14.6869 76.3536 15.2432ZM76.4959 24.2671C76.4959 25.4761 76.7671 26.405 77.3096 27.0537C77.5672 27.3691 77.8939 27.6209 78.2645 27.7897C78.6351 27.9584 79.0396 28.0395 79.4467 28.0267C80.1967 28.0267 80.8434 27.6947 81.3867 27.0306C81.93 26.3665 82.2012 25.4153 82.2004 24.1771C82.2164 23.4727 82.1014 22.7716 81.8611 22.1093C81.6721 21.5823 81.3392 21.1188 80.9002 20.7714C80.4823 20.4554 79.9705 20.2888 79.4467 20.2982C78.9029 20.2907 78.3708 20.4565 77.9275 20.7714C77.4567 21.1203 77.0934 21.5944 76.879 22.1397C76.6091 22.8157 76.4788 23.5394 76.4959 24.2671Z" fill="black"/>
<path d="M89.0909 16.6114C88.6995 16.6198 88.3192 16.4809 88.0254 16.2222C87.7302 15.9635 87.5827 15.5962 87.5827 15.1202C87.5769 14.9209 87.6145 14.7228 87.6928 14.5394C87.7712 14.3561 87.8884 14.192 88.0364 14.0584C88.3201 13.7872 88.6984 13.6375 89.0909 13.6412C89.4682 13.6376 89.8337 13.7722 90.1187 14.0195C90.4171 14.2708 90.5663 14.6357 90.5663 15.1141C90.5663 15.5828 90.4207 15.9477 90.1296 16.2088C89.8481 16.4716 89.476 16.6158 89.0909 16.6114ZM90.5663 19.7496V28.5278C90.5663 29.1375 90.424 29.5977 90.1394 29.9083C90.0039 30.0601 89.837 30.1805 89.6503 30.2612C89.4635 30.3418 89.2614 30.3808 89.0581 30.3753C88.8559 30.3814 88.655 30.3415 88.4704 30.2587C88.2859 30.1759 88.1225 30.0524 87.9926 29.8973C87.7193 29.5778 87.5827 29.1213 87.5827 28.5278V19.8371C87.5827 19.2363 87.7193 18.7838 87.9926 18.4797C88.1259 18.3303 88.2905 18.212 88.4746 18.1332C88.6587 18.0543 88.8579 18.0169 89.0581 18.0236C89.2604 18.0178 89.4617 18.0555 89.6482 18.1342C89.8348 18.2129 90.0023 18.3307 90.1394 18.4797C90.4272 18.7846 90.5711 19.2079 90.5711 19.7496H90.5663Z" fill="black"/>
<path d="M93.8163 18.2912H94.1447V16.4667C94.1447 15.9802 94.1573 15.5962 94.1824 15.3148C94.2 15.0629 94.2727 14.818 94.3953 14.5972C94.5153 14.3869 94.6891 14.2123 94.8988 14.0912C95.1197 13.9607 95.3721 13.8934 95.6286 13.8966C96.0148 13.8998 96.3839 14.056 96.6552 14.3308C96.8569 14.5187 96.9929 14.7665 97.0432 15.0375C97.1064 15.4291 97.1337 15.8256 97.1247 16.2222V18.29H98.2194C98.6419 18.29 98.9662 18.3921 99.1925 18.5965C99.3015 18.6953 99.3877 18.8167 99.4453 18.9521C99.5028 19.0876 99.5303 19.2339 99.5257 19.381C99.5257 19.7864 99.3672 20.0702 99.0502 20.2324C98.7331 20.3946 98.2798 20.4757 97.6903 20.4757H97.132V26.0623C97.1269 26.4278 97.1435 26.7934 97.1819 27.1569C97.2037 27.3863 97.2949 27.6036 97.4434 27.7797C97.5853 27.9419 97.8168 28.023 98.1379 28.023C98.3772 28.0148 98.6152 27.983 98.8483 27.9281C99.0777 27.8737 99.312 27.8419 99.5476 27.8332C99.6705 27.8348 99.7916 27.8619 99.9035 27.9128C100.015 27.9637 100.115 28.0372 100.197 28.1288C100.292 28.2244 100.367 28.3384 100.417 28.4639C100.467 28.5893 100.491 28.7236 100.488 28.8586C100.488 29.3451 100.226 29.7197 99.7009 29.9825C99.1763 30.2452 98.4221 30.3749 97.4385 30.3717C96.5052 30.3717 95.7985 30.2124 95.3185 29.8937C94.8473 29.5875 94.5096 29.1142 94.3734 28.5691C94.2234 28.0063 94.1488 27.2534 94.1496 26.3104V20.483H93.7555C93.3261 20.483 92.9977 20.3796 92.7727 20.1716C92.6623 20.0725 92.5748 19.9505 92.5162 19.8142C92.4576 19.6779 92.4294 19.5305 92.4334 19.3822C92.4296 19.2331 92.4595 19.0851 92.5211 18.9493C92.5826 18.8134 92.674 18.6932 92.7885 18.5977C93.0221 18.3933 93.3647 18.2912 93.8163 18.2912Z" fill="black"/>
<path d="M109.902 24.9458H104.064C104.058 25.5774 104.199 26.2017 104.474 26.7703C104.707 27.26 105.075 27.6731 105.534 27.961C105.974 28.2276 106.48 28.3662 106.994 28.3612C107.323 28.3644 107.65 28.3214 107.967 28.2335C108.269 28.1435 108.556 28.0086 108.818 27.8333C109.088 27.6575 109.343 27.4619 109.584 27.2483C109.817 27.0415 110.12 26.7577 110.491 26.3968C110.678 26.2526 110.911 26.1813 111.147 26.1962C111.418 26.1843 111.684 26.2761 111.89 26.4528C111.987 26.5454 112.063 26.6582 112.112 26.7832C112.161 26.9082 112.182 27.0424 112.174 27.1765C112.153 27.5191 112.044 27.8505 111.857 28.1386C111.607 28.5479 111.283 28.9065 110.901 29.1956C110.416 29.564 109.873 29.8477 109.294 30.0349C108.577 30.269 107.825 30.382 107.071 30.3694C105.155 30.3694 103.665 29.8131 102.601 28.7006C101.536 27.588 101.004 26.0786 101.006 24.1722C100.998 23.3235 101.131 22.4793 101.399 21.6739C101.64 20.9428 102.031 20.27 102.547 19.6986C103.066 19.1422 103.706 18.7124 104.417 18.4421C105.197 18.1411 106.028 17.992 106.864 18.003C108.031 18.003 109.031 18.2532 109.863 18.7535C110.658 19.2138 111.308 19.8881 111.738 20.6996C112.14 21.4438 112.354 22.2753 112.36 23.1213C112.36 23.8851 112.146 24.3802 111.716 24.6064C111.286 24.8327 110.681 24.9458 109.902 24.9458ZM104.064 23.221H109.477C109.404 22.1823 109.128 21.4051 108.651 20.8893C108.173 20.3736 107.545 20.1162 106.765 20.117C106.423 20.1077 106.082 20.1731 105.767 20.3085C105.452 20.444 105.17 20.6463 104.941 20.9015C104.46 21.4237 104.168 22.1969 104.066 23.221H104.064Z" fill="black"/>
<path d="M117.835 25.9918V28.5279C117.835 29.1449 117.693 29.6067 117.409 29.9132C117.273 30.0637 117.106 30.1828 116.919 30.2626C116.733 30.3424 116.531 30.3809 116.328 30.3755C116.128 30.3808 115.929 30.3417 115.745 30.2609C115.562 30.1802 115.399 30.0598 115.267 29.9084C114.99 29.597 114.852 29.1368 114.853 28.5279V20.072C114.853 18.7073 115.339 18.0249 116.312 18.0249C116.808 18.0249 117.164 18.1842 117.383 18.5029C117.601 18.8216 117.722 19.2927 117.747 19.9163C118.03 19.3868 118.4 18.9089 118.842 18.5029C119.218 18.1842 119.719 18.0249 120.346 18.0249C120.984 18.0281 121.612 18.1925 122.17 18.5029C122.76 18.8224 123.055 19.2453 123.056 19.7715C123.061 19.9425 123.03 20.1127 122.965 20.2709C122.9 20.4292 122.802 20.5719 122.678 20.6899C122.574 20.8013 122.448 20.8909 122.308 20.9535C122.168 21.0161 122.018 21.0505 121.865 21.0548C121.594 21.0159 121.328 20.947 121.072 20.8492C120.715 20.723 120.341 20.6536 119.962 20.6436C119.575 20.627 119.195 20.7515 118.892 20.9939C118.585 21.2744 118.362 21.6344 118.247 22.0339C118.076 22.5654 117.965 23.1146 117.918 23.6711C117.863 24.306 117.835 25.0796 117.835 25.9918Z" fill="black"/>
<defs>
<linearGradient id="paint0_linear_634_1303" x1="14.9572" y1="12.6306" x2="26.4831" y2="24.5481" gradientUnits="userSpaceOnUse">
<stop stop-color="#EF2F2D"/>
<stop offset="1" stop-color="#89272D"/>
</linearGradient>
<linearGradient id="paint1_linear_634_1303" x1="3.38138" y1="17.1978" x2="42.5798" y2="27.7056" gradientUnits="userSpaceOnUse">
<stop stop-color="#434344"/>
<stop offset="0.29" stop-color="#404041"/>
<stop offset="0.51" stop-color="#363637"/>
<stop offset="0.71" stop-color="#262627"/>
<stop offset="0.9" stop-color="#0F0F0F"/>
<stop offset="1"/>
</linearGradient>
</defs>
</svg>
