<svg width="40" height="40" viewBox="0 0 40 40" fill="none" xmlns="http://www.w3.org/2000/svg">
<path d="M5.99246 14.4715C6.55527 14.5809 7.09746 14.2127 7.2059 13.6512C7.85558 10.2899 10.4328 7.71711 13.6187 7.24836C14.1846 7.16523 14.5759 6.63898 14.4928 6.07305C14.4171 5.55836 13.975 5.18805 13.4696 5.18805C13.4193 5.18805 13.3684 5.19148 13.3175 5.1993C9.26215 5.79586 5.98871 9.03398 5.17246 13.258C5.06371 13.8196 5.43058 14.3627 5.99246 14.4715Z" fill="#333333" fill-opacity="0.8"/>
<path d="M13.5036 8.64701C13.3439 8.64701 13.1814 8.68451 13.0296 8.76264C11.0218 9.79951 9.40457 11.5489 8.47519 13.6889C8.24738 14.2136 8.48801 14.8236 9.01301 15.0514C9.53738 15.2786 10.1471 15.038 10.3755 14.5136C11.1149 12.8104 12.3952 11.4217 13.9796 10.6036C14.488 10.3411 14.6874 9.71607 14.4249 9.20795C14.2408 8.85139 13.8786 8.64701 13.5036 8.64701ZM26.2308 19.112C26.8943 19.7742 27.9739 19.7748 28.6368 19.1114L34.3418 13.4064C34.6633 13.0848 34.8408 12.6576 34.8408 12.2026C34.8408 11.7483 34.6639 11.3208 34.3421 10.9992L31.0739 7.73107C30.7424 7.3992 30.3068 7.23389 29.8708 7.23389C29.4352 7.23389 28.9996 7.39951 28.6674 7.73107L22.9621 13.4364C22.2986 14.0998 22.2986 15.1792 22.9621 15.8426L26.2308 19.112ZM29.8711 9.45764L32.6158 12.2023L27.4333 17.3848L24.6886 14.6401L29.8711 9.45764ZM15.8777 22.9292C15.5561 22.6076 15.1286 22.4301 14.6736 22.4301C14.2193 22.4301 13.7918 22.6076 13.4705 22.9289L7.76519 28.6339L7.76457 28.6342C7.10207 29.2976 7.10207 30.3773 7.76519 31.0401L11.0336 34.3086C11.6968 34.9717 12.7761 34.9723 13.4399 34.3086L19.1458 28.6029C19.8083 27.9395 19.8083 26.8598 19.1452 26.197L15.8777 22.9292ZM12.2368 32.5823L9.49176 29.8373L14.6739 24.6551L17.4189 27.3998L12.2368 32.5823ZM17.3724 13.667C18.0221 14.317 17.9589 15.4376 17.2314 16.1654L16.3389 17.0579C15.9764 17.4201 15.5096 17.6292 15.0236 17.6464C14.5708 17.6745 14.1452 17.5042 13.8408 17.1989C13.8405 17.1986 13.8402 17.1986 13.8399 17.1983L13.5218 16.8801C13.1171 16.4754 12.4618 16.4754 12.0571 16.8801C11.6524 17.2845 11.6524 17.9404 12.0571 18.3448L12.3752 18.6623C12.3755 18.6626 12.3755 18.6629 12.3758 18.6633C12.3764 18.6639 12.3771 18.6642 12.3777 18.6648L16.5296 22.817C16.5299 22.8173 16.5299 22.8176 16.5302 22.8179C16.5308 22.8186 16.5314 22.8189 16.5321 22.8195L19.2171 25.5045C20.5677 26.8551 22.7652 26.8551 24.1158 25.5045L25.678 23.9423C27.0286 22.5917 27.0286 20.3942 25.678 19.0436L18.518 11.8836C18.422 11.7873 18.3078 11.7109 18.1822 11.6588C18.0565 11.6067 17.9218 11.58 17.7858 11.5801C17.5208 11.5801 17.2558 11.6814 17.0536 11.8836C16.6489 12.2879 16.6489 12.9439 17.0536 13.3483L17.3724 13.667ZM17.8036 18.5229L18.6964 17.6304C19.1764 17.1504 19.4949 16.5789 19.6855 15.9804L21.5268 17.8217C22.1764 18.4717 22.1133 19.5923 21.3858 20.3201L20.4933 21.2126C20.1308 21.5748 19.6639 21.7839 19.178 21.8011C18.7302 21.8267 18.3002 21.6589 17.9952 21.3536C17.9949 21.3533 17.9946 21.3533 17.9943 21.3529L16.1558 19.5145C16.7655 19.3189 17.3336 18.9926 17.8036 18.5229ZM24.6211 21.4929C24.6211 21.8648 24.4761 22.2145 24.2133 22.4776L22.6511 24.0398C22.1246 24.5658 21.2074 24.5658 20.6814 24.0398L20.3102 23.6686C20.9199 23.4733 21.488 23.147 21.9577 22.677L22.8502 21.7845C23.3302 21.3045 23.6489 20.7333 23.8396 20.1348L24.213 20.5083C24.4764 20.7711 24.6211 21.1211 24.6211 21.4929Z" fill="#333333" fill-opacity="0.8"/>
<path d="M13.4024 16.2226C13.8068 16.627 14.4627 16.627 14.8671 16.2226L16.4018 14.6879C16.8062 14.2835 16.8062 13.6276 16.4018 13.2232C15.9974 12.8188 15.3415 12.8188 14.9371 13.2232L13.4024 14.7579C12.998 15.1623 12.998 15.8179 13.4024 16.2226Z" fill="#333333" fill-opacity="0.8"/>
<circle cx="31" cy="31" r="7.5" fill="white"/>
<path d="M31 23.5C26.8579 23.5 23.5 26.8579 23.5 31C23.5 35.1421 26.8579 38.5 31 38.5C35.1421 38.5 38.5 35.1421 38.5 31C38.5 26.8579 35.1421 23.5 31 23.5ZM34.9457 29.2237L30.3572 33.8122C30.2142 33.9552 30.0268 34.0267 29.8393 34.0267C29.6519 34.0267 29.4645 33.9552 29.3214 33.8122L29.321 33.8117L27.0543 31.545C26.7683 31.259 26.7683 30.7953 27.0543 30.5092C27.3404 30.2232 27.8041 30.2232 28.0901 30.5092L29.8393 32.2584L33.9099 28.1879C34.1959 27.9018 34.6596 27.9018 34.9457 28.1879C35.2317 28.4739 35.2317 28.9376 34.9457 29.2237Z" fill="#2AE2CC"/>
</svg>
