<svg width="20" height="20" viewBox="0 0 20 20" fill="none" xmlns="http://www.w3.org/2000/svg">
<path d="M10 19.9986C8.65 19.9986 7.34028 19.7347 6.10834 19.2139C4.92031 18.7112 3.84076 17.9835 2.92918 17.0708C1.99838 16.1436 1.26034 15.0413 0.757602 13.8275C0.254868 12.6137 -0.00260808 11.3124 1.99161e-05 9.99861C-0.00257743 8.68502 0.254918 7.38392 0.757655 6.17034C1.26039 4.95677 1.99842 3.85473 2.92918 2.92779C3.85609 1.9971 4.95815 1.25921 6.17176 0.756699C7.38536 0.254189 8.68647 -0.00298255 10 2.60962e-05C11.3135 -0.00148925 12.6144 0.256359 13.828 0.758778C15.0416 1.2612 16.1441 1.9983 17.0722 2.92779C18.0027 3.85484 18.7405 4.95693 19.243 6.1705C19.7455 7.38408 20.0028 8.68512 20 9.99861C20.0032 11.3124 19.7461 12.6137 19.2436 13.8276C18.7411 15.0414 18.0031 16.1437 17.0722 17.0708C16.1451 18.0017 15.0428 18.7397 13.829 19.2422C12.6151 19.7447 11.3138 20.0018 10 19.9986ZM10 1.53752C7.75689 1.54009 5.60642 2.4324 4.02044 4.01864C2.43445 5.60489 1.5425 7.75551 1.54029 9.99861C1.5425 12.2417 2.43445 14.3923 4.02044 15.9786C5.60642 17.5648 7.75689 18.4571 10 18.4597C12.2433 18.4575 14.3942 17.5653 15.9805 15.9791C17.5667 14.3928 18.4589 12.2419 18.4611 9.99861C18.4581 7.75549 17.5658 5.60509 15.9796 4.01896C14.3935 2.43284 12.2431 1.54046 10 1.53752ZM10 16.768C9.7965 16.7669 9.60164 16.6857 9.45761 16.542C9.31359 16.3982 9.23201 16.2035 9.23055 16V14.85L9.11389 14.8208C8.68305 14.7197 8.27225 14.5469 7.89861 14.3097C7.60721 14.1351 7.34285 13.919 7.11389 13.668C6.97981 13.5141 6.91239 13.3131 6.92645 13.1095C6.94052 12.9058 7.03492 12.716 7.18889 12.5819C7.34286 12.4479 7.54379 12.3804 7.74748 12.3945C7.95116 12.4086 8.14092 12.503 8.275 12.6569C8.33889 12.7305 8.49444 12.8667 8.71528 13.0055C9.11805 13.2569 9.54861 13.3833 9.99722 13.3833C10.5319 13.3833 11.0208 13.193 11.3055 12.8764C11.3855 12.795 11.4473 12.6976 11.4868 12.5906C11.5263 12.4836 11.5427 12.3694 11.5347 12.2555C11.4819 11.7736 11.075 11.425 9.79444 10.7597L9.49861 10.6083C8.51389 10.0972 7.9625 9.7375 7.59583 9.36528C7.2 8.96389 7.00278 8.52917 6.93611 7.9125C6.90277 7.60744 6.93187 7.29877 7.02165 7.00532C7.11143 6.71186 7.26001 6.43975 7.45834 6.20556C7.85556 5.71668 8.44444 5.35418 9.11528 5.18473L9.22917 5.15557V4.00001C9.24096 3.80358 9.32731 3.61905 9.47057 3.48414C9.61384 3.34922 9.8032 3.27409 10 3.27409C10.1968 3.27409 10.3862 3.34922 10.5294 3.48414C10.6727 3.61905 10.759 3.80358 10.7708 4.00001V5.15001L10.8875 5.17779C11.3208 5.28057 11.7278 5.45279 12.1028 5.6889C12.5319 5.95695 12.7778 6.20556 12.8875 6.33056C13.017 6.48497 13.0807 6.684 13.065 6.88489C13.0493 7.08578 12.9554 7.2725 12.8035 7.40492C12.6517 7.53734 12.4539 7.60489 12.2527 7.59307C12.0516 7.58124 11.8631 7.49098 11.7278 7.34167C11.5965 7.20658 11.448 7.08937 11.2861 6.99306C10.9039 6.74661 10.459 6.61501 10.0042 6.61389C9.47083 6.61389 8.98055 6.80417 8.69583 7.12223C8.61589 7.20367 8.55404 7.30106 8.51431 7.40804C8.47458 7.51502 8.45787 7.62918 8.46528 7.74306C8.51805 8.22361 8.925 8.57361 10.2069 9.2375L10.5014 9.38889C11.4861 9.9 12.0361 10.2611 12.4042 10.6333C12.7986 11.0347 12.9972 11.4694 13.0653 12.0847C13.1319 12.6972 12.9514 13.2875 12.5417 13.7916C12.113 14.2998 11.5328 14.6571 10.8861 14.8111L10.7708 14.8403V15.9972C10.771 16.0985 10.7512 16.1988 10.7125 16.2924C10.6739 16.386 10.6171 16.4711 10.5455 16.5427C10.4739 16.6143 10.3888 16.6711 10.2952 16.7097C10.2016 16.7484 10.1013 16.7682 10 16.768Z" fill="#333333"/>
</svg>
