<svg width="297" height="40" viewBox="0 0 297 40" fill="none" xmlns="http://www.w3.org/2000/svg">
<path d="M200.417 14.8772C200.498 16.8648 200.775 20.2292 200.918 21.881C200.928 22.0015 200.912 22.1226 200.871 22.2365C200.831 22.3503 200.767 22.4543 200.683 22.5414C200.599 22.6285 200.498 22.6967 200.386 22.7417C200.273 22.7866 200.153 22.8071 200.032 22.8018C198.816 22.7447 196.535 22.6583 193.815 22.6461C191.163 22.634 188.967 22.707 187.779 22.758C187.658 22.7627 187.539 22.7419 187.427 22.6969C187.315 22.6519 187.215 22.5837 187.131 22.497C187.048 22.4102 186.984 22.3068 186.944 22.1935C186.903 22.0802 186.887 21.9596 186.897 21.8397C187.032 20.2025 187.296 16.8636 187.377 14.8772C187.436 13.1902 188.15 11.5924 189.367 10.4227C190.584 9.25304 192.209 8.60347 193.897 8.61177C195.585 8.60347 197.21 9.25304 198.427 10.4227C199.644 11.5924 200.358 13.1902 200.417 14.8772ZM193.887 11.7147C193.129 11.7147 192.389 11.9394 191.758 12.3604C191.128 12.7815 190.637 13.3799 190.347 14.08C190.057 14.7801 189.981 15.5505 190.129 16.2937C190.277 17.037 190.642 17.7197 191.178 18.2555C191.714 18.7914 192.396 19.1563 193.14 19.3042C193.883 19.452 194.653 19.3761 195.353 19.0861C196.054 18.7961 196.652 18.305 197.073 17.6749C197.494 17.0448 197.719 16.304 197.719 15.5462C197.719 15.0431 197.62 14.5448 197.427 14.08C197.234 13.6151 196.952 13.1927 196.596 12.8369C196.241 12.4811 195.818 12.1989 195.353 12.0064C194.889 11.8138 194.39 11.7147 193.887 11.7147V11.7147Z" fill="url(#paint0_linear_88_35685)"/>
<path d="M193.954 13.3484C194.177 13.6033 194.3 13.9305 194.299 14.2692C194.296 14.4626 194.254 14.6534 194.176 14.8307C194.099 15.008 193.987 15.1682 193.847 15.3023C193.708 15.4364 193.543 15.5416 193.363 15.6121C193.183 15.6826 192.991 15.7169 192.797 15.713C192.573 15.7143 192.352 15.6663 192.149 15.5723C191.946 15.4784 191.766 15.3407 191.622 15.1693C191.596 15.3047 191.582 15.4424 191.582 15.5804C191.582 16.8138 192.622 17.8136 193.907 17.8136C195.191 17.8136 196.231 16.8138 196.231 15.5804C196.231 14.347 195.218 13.3679 193.954 13.3484Z" fill="#2D2F31"/>
<path d="M197.39 11.0324C197.361 11.0342 197.331 11.0301 197.303 11.0203C197.275 11.0106 197.25 10.9953 197.228 10.9755C197.206 10.9557 197.188 10.9317 197.175 10.9049C197.163 10.8781 197.155 10.8491 197.154 10.8196C197.135 10.3208 197.224 9.2991 198.517 8.1837C199.406 7.41617 200.646 7.13884 202.206 7.35779C202.235 7.36205 202.264 7.37224 202.289 7.38776C202.315 7.40328 202.337 7.4238 202.355 7.4481C202.372 7.4724 202.385 7.49998 202.391 7.52919C202.398 7.5584 202.398 7.58864 202.393 7.61809V7.61809C202.383 7.67456 202.351 7.72489 202.305 7.75847C202.258 7.79205 202.201 7.80626 202.144 7.79811C200.725 7.59741 199.61 7.83825 198.827 8.51211C197.704 9.4852 197.61 10.3573 197.61 10.805C197.612 10.8623 197.591 10.9181 197.552 10.9604C197.514 11.0026 197.46 11.028 197.402 11.0312L197.39 11.0324Z" fill="#2D2F31"/>
<path d="M201.888 8.02913C202.245 8.02913 202.534 7.75085 202.534 7.40757C202.534 7.06429 202.245 6.78601 201.888 6.78601C201.532 6.78601 201.242 7.06429 201.242 7.40757C201.242 7.75085 201.532 8.02913 201.888 8.02913Z" fill="#2D2F31"/>
<path d="M190.639 11.0737C190.669 11.0757 190.699 11.0717 190.726 11.0621C190.754 11.0525 190.78 11.0374 190.802 11.0176C190.824 10.9979 190.842 10.974 190.854 10.9473C190.867 10.9205 190.874 10.8916 190.875 10.8621C190.896 10.3512 190.811 9.18713 189.513 8.06443C188.624 7.29691 187.384 7.01958 185.825 7.23853C185.795 7.24264 185.767 7.25272 185.741 7.26818C185.715 7.28363 185.693 7.30413 185.675 7.32845C185.658 7.35277 185.645 7.3804 185.639 7.40968C185.632 7.43896 185.631 7.46928 185.637 7.49883V7.49883C185.647 7.55411 185.677 7.60347 185.723 7.6369C185.768 7.67033 185.824 7.68533 185.88 7.67885C187.298 7.47815 188.414 7.71899 189.197 8.39285C190.324 9.36594 190.421 10.3804 190.407 10.8402C190.405 10.8978 190.426 10.9538 190.465 10.9965C190.504 11.0392 190.558 11.0651 190.615 11.0688L190.639 11.0737Z" fill="#2D2F31"/>
<path d="M186.234 8.02925C186.59 8.02925 186.88 7.75097 186.88 7.40769C186.88 7.06441 186.59 6.78613 186.234 6.78613C185.877 6.78613 185.588 7.06441 185.588 7.40769C185.588 7.75097 185.877 8.02925 186.234 8.02925Z" fill="#2D2F31"/>
<path d="M214.667 30.6863C214.667 28.6708 209.618 25.4694 209.618 25.4694L209.561 25.4523C210.392 22.0854 210.82 20.5869 210.876 18.3974C210.998 13.397 209.735 9.16406 206.566 5.45294C203.619 2.00213 198.928 0 193.916 0C188.59 0 184.483 2.0301 181.438 5.39334C178.392 8.75658 176.863 12.4008 176.954 18.3378C176.979 19.9994 177.357 22.7885 178.171 25.2893L178.113 25.3064C178.113 25.3064 173.154 28.4507 173.154 30.6267C173.154 31.2702 175.83 32.0864 181.35 32.3454L178.272 36.9579C178.15 37.3508 178.227 37.8908 178.556 38.1219C178.881 38.3359 179.252 38.4681 179.639 38.5075C180.225 38.5246 180.406 38.3555 180.622 37.9675L183.715 32.5863C186.999 32.7164 189.087 32.7858 192.845 32.7931V38.9515C192.867 39.3225 193.024 40 194.02 40C194.926 40 195.08 39.3651 195.08 38.9515V32.7967C198.834 32.7894 200.874 32.8393 204.152 32.7104L207.391 37.9079C207.45 38.0756 207.562 38.2195 207.71 38.3173C207.859 38.4151 208.035 38.4615 208.212 38.4491C208.529 38.4537 208.84 38.3694 209.111 38.2059C209.476 38.0429 209.476 37.4432 209.328 36.8995L206.279 32.4646C211.606 32.0219 214.667 31.2033 214.667 30.6863ZM182.699 30.0952C182.203 30.0875 181.731 29.8833 181.386 29.5275C181.041 29.1716 180.851 28.6933 180.859 28.1977C180.859 27.1492 181.682 26.4181 182.699 26.4181C183.716 26.4181 184.539 27.1479 184.539 28.1977C184.547 28.6933 184.357 29.1716 184.012 29.5275C183.667 29.8833 183.195 30.0875 182.699 30.0952ZM193.911 30.1998C193.534 30.2114 193.161 30.11 192.841 29.9085C192.521 29.707 192.269 29.4146 192.116 29.0688C191.963 28.7229 191.917 28.3394 191.984 27.9673C192.051 27.5951 192.227 27.2514 192.49 26.98C192.753 26.7087 193.092 26.522 193.461 26.444C193.831 26.3661 194.216 26.4003 194.566 26.5423C194.917 26.6843 195.217 26.9277 195.428 27.2412C195.639 27.5548 195.752 27.9242 195.752 28.3023C195.759 28.7979 195.57 29.2762 195.225 29.6321C194.879 29.9879 194.407 30.1921 193.911 30.1998V30.1998ZM205.124 30.3056C204.746 30.3172 204.373 30.2158 204.053 30.0143C203.734 29.8128 203.481 29.5204 203.328 29.1746C203.176 28.8287 203.13 28.4452 203.196 28.0731C203.263 27.701 203.439 27.3572 203.703 27.0858C203.966 26.8145 204.304 26.6279 204.674 26.5499C205.044 26.4719 205.428 26.5061 205.779 26.6481C206.129 26.7901 206.429 27.0335 206.64 27.3471C206.852 27.6606 206.964 28.0301 206.964 28.4081C206.972 28.9037 206.782 29.3821 206.437 29.7379C206.092 30.0937 205.62 30.2979 205.124 30.3056V30.3056ZM207.947 24.759C204.388 23.8528 199.121 23.8978 193.911 23.8978C188.702 23.8978 183.816 23.7385 179.855 24.759C179.263 22.3786 178.798 20.003 178.739 18.1627C178.462 9.60924 184.24 1.49856 193.911 1.49856C203.583 1.49856 209.553 9.61533 209.184 18.1627C209.067 20.8533 208.317 23.3164 207.942 24.759H207.947Z" fill="url(#paint1_linear_88_35685)"/>
<path d="M226.487 12.5166C228.149 12.5166 229.575 12.8596 230.765 13.5456C231.946 14.22 232.891 15.2418 233.47 16.4722C234.082 17.7372 234.388 19.2228 234.388 20.9289C234.403 22.0941 234.233 23.2542 233.885 24.3664C233.574 25.3554 233.061 26.2688 232.378 27.0484C231.7 27.8104 230.854 28.4045 229.907 28.7842C228.934 29.1848 227.816 29.3851 226.553 29.3851C225.401 29.4043 224.257 29.1942 223.187 28.7671C222.237 28.3852 221.388 27.7896 220.706 27.0265C220.021 26.2375 219.509 25.3139 219.203 24.3153C218.857 23.2098 218.685 22.057 218.695 20.8985C218.682 19.7274 218.861 18.562 219.225 17.4489C219.545 16.4617 220.068 15.5523 220.76 14.779C221.438 14.0389 222.276 13.4625 223.209 13.0931C224.254 12.6911 225.367 12.4953 226.487 12.5166V12.5166ZM231.098 20.9095C231.098 19.715 230.909 18.6803 230.53 17.8053C230.151 16.9303 229.611 16.2682 228.908 15.819C228.183 15.3643 227.342 15.1305 226.487 15.1463C225.868 15.1402 225.255 15.2671 224.689 15.5185C224.14 15.7678 223.654 16.1388 223.269 16.6035C222.838 17.1434 222.518 17.7636 222.329 18.4281C222.09 19.2347 221.974 20.073 221.985 20.9143C221.974 21.7653 222.09 22.6131 222.329 23.4298C222.523 24.1109 222.854 24.7451 223.303 25.2932C223.694 25.7657 224.187 26.144 224.745 26.4001C225.397 26.6816 226.107 26.8042 226.815 26.7579C227.524 26.7116 228.211 26.4977 228.821 26.1337C229.517 25.7104 230.071 25.0577 230.483 24.1754C230.895 23.2931 231.1 22.2016 231.098 20.9009V20.9095Z" fill="black"/>
<path d="M239.918 24.9962V27.5323C239.918 28.1494 239.776 28.6112 239.491 28.9178C239.355 29.0682 239.188 29.1874 239.001 29.2672C238.814 29.347 238.613 29.3855 238.41 29.38C238.209 29.3853 238.01 29.3462 237.827 29.2654C237.644 29.1847 237.48 29.0643 237.349 28.9129C237.073 28.6015 236.935 28.1413 236.934 27.5323V19.0762C236.934 17.7114 237.421 17.0291 238.394 17.0291C238.888 17.0291 239.245 17.1884 239.464 17.5071C239.683 17.8258 239.805 18.2969 239.829 18.9205C240.111 18.3907 240.482 17.9128 240.924 17.5071C241.299 17.1884 241.799 17.0291 242.426 17.0291C243.065 17.0322 243.692 17.1966 244.251 17.5071C244.842 17.8266 245.137 18.2495 245.136 18.7757C245.141 18.9467 245.111 19.1169 245.046 19.2751C244.981 19.4334 244.883 19.5761 244.759 19.6941C244.654 19.8056 244.528 19.8953 244.389 19.9579C244.249 20.0206 244.098 20.0549 243.945 20.059C243.675 20.0203 243.409 19.9513 243.153 19.8534C242.797 19.7274 242.422 19.6581 242.044 19.6479C241.656 19.6313 241.276 19.7557 240.973 19.9982C240.666 20.2786 240.443 20.6386 240.328 21.0382C240.16 21.5712 240.054 22.1218 240.012 22.679C239.949 23.3116 239.918 24.0839 239.918 24.9962Z" fill="black"/>
<path d="M249.513 14.2472V18.8876C250.008 18.3451 250.587 17.8848 251.228 17.5241C251.811 17.2094 252.532 17.0517 253.392 17.0509C254.314 17.0192 255.225 17.2702 256.001 17.7701C256.777 18.2701 257.382 18.9953 257.735 19.8485C258.148 20.7575 258.354 21.8348 258.353 23.0804C258.362 23.9364 258.246 24.7891 258.009 25.6116C257.802 26.3337 257.463 27.0109 257.009 27.6089C256.587 28.1612 256.043 28.6086 255.419 28.9165C254.778 29.2287 254.072 29.3869 253.359 29.3787C252.922 29.3813 252.487 29.3253 252.065 29.2121C251.7 29.1181 251.352 28.9696 251.032 28.7717C250.77 28.6092 250.526 28.4209 250.302 28.2098C250.101 28.0176 249.837 27.7285 249.51 27.3425V27.643C249.51 28.2106 249.375 28.6428 249.105 28.9396C248.976 29.0824 248.817 29.1956 248.64 29.2714C248.463 29.3471 248.271 29.3838 248.079 29.3787C247.888 29.3865 247.698 29.351 247.523 29.275C247.348 29.199 247.192 29.0843 247.068 28.9396C246.816 28.6469 246.69 28.2146 246.691 27.643V14.3846C246.691 13.7692 246.812 13.3037 247.056 12.9882C247.176 12.8324 247.332 12.708 247.511 12.6258C247.69 12.5436 247.886 12.506 248.082 12.5163C248.54 12.5163 248.893 12.6663 249.142 12.9664C249.39 13.2664 249.513 13.6933 249.513 14.2472ZM249.655 23.2714C249.655 24.4804 249.926 25.4093 250.469 26.058C250.726 26.3734 251.053 26.6253 251.423 26.794C251.793 26.9628 252.198 27.0439 252.605 27.0311C253.355 27.0311 254.003 26.6991 254.551 26.0349C255.098 25.3708 255.369 24.4196 255.365 23.1813C255.38 22.4771 255.266 21.776 255.026 21.1135C254.837 20.5864 254.504 20.1229 254.064 19.7755C253.645 19.4581 253.131 19.2914 252.605 19.3024C252.061 19.2946 251.529 19.4603 251.087 19.7755C250.615 20.1244 250.252 20.5985 250.037 21.1439C249.767 21.8201 249.638 22.5437 249.655 23.2714V23.2714Z" fill="black"/>
<path d="M262.254 15.6156C261.863 15.6241 261.483 15.4852 261.19 15.2263C260.894 14.9677 260.746 14.6003 260.747 14.1243C260.741 13.925 260.779 13.7269 260.857 13.5435C260.935 13.3602 261.053 13.196 261.201 13.0624C261.484 12.7914 261.862 12.6417 262.254 12.6452C262.631 12.6414 262.997 12.776 263.282 13.0235C263.581 13.2749 263.73 13.6398 263.729 14.1182C263.729 14.5869 263.584 14.9518 263.293 15.213C263.011 15.476 262.639 15.6202 262.254 15.6156V15.6156ZM263.729 18.7538V27.5322C263.729 28.1421 263.588 28.6022 263.304 28.9128C263.168 29.0645 263.001 29.1848 262.814 29.2655C262.628 29.3462 262.426 29.3852 262.222 29.3799C262.02 29.3859 261.819 29.3461 261.635 29.2633C261.45 29.1805 261.287 29.0569 261.157 28.9019C260.884 28.5824 260.747 28.1258 260.747 27.5322V18.8414C260.747 18.2405 260.884 17.788 261.157 17.4839C261.29 17.3343 261.455 17.2158 261.639 17.137C261.823 17.0581 262.022 17.0209 262.222 17.0278C262.425 17.0221 262.626 17.0599 262.812 17.1386C262.999 17.2173 263.167 17.335 263.304 17.4839C263.588 17.7888 263.73 18.2121 263.729 18.7538Z" fill="black"/>
<path d="M266.976 17.2954H267.301V15.4709C267.301 14.9844 267.314 14.6004 267.34 14.319C267.357 14.0671 267.43 13.8221 267.552 13.6014C267.672 13.3911 267.845 13.2165 268.055 13.0954C268.276 12.965 268.528 12.8977 268.785 12.9007C269.171 12.9036 269.541 13.0598 269.812 13.335C270.014 13.523 270.149 13.7707 270.199 14.0417C270.263 14.4332 270.291 14.8298 270.282 15.2264V17.2942H271.377C271.8 17.2942 272.124 17.3964 272.35 17.6007C272.459 17.6996 272.545 17.821 272.603 17.9564C272.66 18.0919 272.688 18.2382 272.683 18.3853C272.683 18.7908 272.525 19.0746 272.209 19.2368C271.892 19.3989 271.439 19.48 270.848 19.48H270.29V25.0668C270.285 25.4323 270.301 25.7979 270.339 26.1615C270.361 26.3911 270.453 26.6085 270.602 26.7843C270.745 26.9464 270.976 27.0275 271.295 27.0275C271.535 27.0194 271.772 26.9877 272.006 26.9327C272.235 26.8784 272.469 26.8466 272.705 26.8378C272.828 26.8395 272.949 26.8666 273.061 26.9175C273.173 26.9684 273.273 27.0419 273.356 27.1334C273.451 27.2291 273.526 27.3431 273.575 27.4685C273.625 27.594 273.649 27.7283 273.645 27.8632C273.645 28.3497 273.383 28.7244 272.858 28.9871C272.334 29.2498 271.579 29.3796 270.596 29.3763C269.664 29.3763 268.957 29.217 268.476 28.8983C268.004 28.5921 267.667 28.1188 267.531 27.5737C267.382 27.0109 267.308 26.258 267.307 25.3149V19.4873H266.914C266.483 19.4873 266.156 19.3839 265.93 19.1759C265.82 19.0767 265.732 18.9547 265.674 18.8184C265.616 18.6821 265.587 18.5347 265.592 18.3865C265.588 18.2374 265.618 18.0894 265.679 17.9535C265.741 17.8177 265.832 17.6975 265.947 17.602C266.18 17.3976 266.523 17.2954 266.976 17.2954Z" fill="black"/>
<path d="M283.061 23.9501H277.222C277.216 24.5818 277.357 25.2063 277.632 25.7747C277.865 26.2644 278.233 26.6775 278.692 26.9655C279.132 27.2318 279.637 27.3704 280.151 27.3657C280.48 27.3686 280.808 27.3256 281.125 27.2379C281.427 27.1474 281.714 27.0126 281.976 26.8378C282.245 26.6613 282.5 26.4658 282.741 26.2527C282.974 26.0459 283.276 25.7621 283.649 25.4012C283.835 25.2562 284.068 25.1848 284.304 25.2005C284.575 25.1888 284.841 25.2806 285.047 25.4572C285.144 25.55 285.22 25.6628 285.269 25.7878C285.318 25.9128 285.339 26.0469 285.331 26.1809C285.309 26.5234 285.2 26.8546 285.014 27.1431C284.765 27.5526 284.44 27.9113 284.057 28.2001C283.573 28.5685 283.03 28.8522 282.452 29.0394C281.734 29.2734 280.982 29.3864 280.227 29.3739C278.312 29.3739 276.822 28.8176 275.758 27.705C274.694 26.5925 274.162 25.083 274.162 23.1765C274.154 22.3276 274.287 21.4833 274.556 20.6781C274.797 19.947 275.188 19.2742 275.703 18.7027C276.218 18.1457 276.853 17.7138 277.561 17.4402C278.341 17.1392 279.172 16.9901 280.009 17.001C281.174 17.001 282.174 17.2512 283.009 17.7515C283.803 18.2122 284.453 18.8865 284.883 19.6977C285.286 20.4436 285.5 21.2768 285.506 22.1244C285.506 22.8882 285.291 23.3833 284.861 23.6095C284.431 23.8358 283.831 23.9493 283.061 23.9501ZM277.222 22.2253H282.632C282.559 21.1865 282.284 20.4093 281.807 19.8936C281.33 19.3778 280.702 19.1204 279.922 19.1212C279.579 19.112 279.238 19.1774 278.923 19.3128C278.608 19.4483 278.326 19.6506 278.097 19.9057C277.619 20.4279 277.328 21.2011 277.226 22.2253H277.222Z" fill="black"/>
<path d="M290.995 24.9962V27.5323C290.995 28.1494 290.853 28.6112 290.57 28.9178C290.433 29.0681 290.266 29.1873 290.079 29.267C289.892 29.3468 289.69 29.3853 289.487 29.38C289.287 29.3853 289.088 29.3462 288.905 29.2654C288.722 29.1846 288.559 29.0642 288.428 28.9129C288.15 28.6015 288.012 28.1413 288.012 27.5323V19.0762C288.012 17.7114 288.498 17.0291 289.471 17.0291C289.966 17.0291 290.323 17.1884 290.543 17.5071C290.763 17.8258 290.884 18.2969 290.908 18.9205C291.19 18.3907 291.56 17.9128 292.003 17.5071C292.377 17.1884 292.878 17.0291 293.505 17.0291C294.143 17.0324 294.771 17.1968 295.329 17.5071C295.919 17.8266 296.214 18.2495 296.214 18.7757C296.219 18.9467 296.188 19.1169 296.123 19.2751C296.058 19.4334 295.96 19.5761 295.836 19.6941C295.732 19.8057 295.606 19.8955 295.466 19.9581C295.327 20.0208 295.176 20.0551 295.023 20.059C294.752 20.0203 294.486 19.9513 294.231 19.8534C293.874 19.7274 293.5 19.6581 293.122 19.6479C292.734 19.6315 292.353 19.7559 292.05 19.9982C291.744 20.279 291.52 20.6388 291.405 21.0382C291.239 21.5715 291.133 22.1219 291.089 22.679C291.027 23.3116 290.995 24.0839 290.995 24.9962Z" fill="black"/>
<line x1="157.5" y1="-3.92191e-07" x2="157.5" y2="40" stroke="#333333" stroke-opacity="0.4"/>
<path d="M23.8397 6.10132H14.5258C14.2146 6.10132 13.9652 6.36572 13.9584 6.69438C13.7702 15.9326 9.19402 24.7007 1.31744 30.9112C1.06737 31.1083 1.0104 31.4787 1.19322 31.7455L6.64267 39.7038C6.82806 39.9746 7.18927 40.0358 7.44354 39.8368C12.3685 35.979 16.3299 31.3249 19.1828 26.1665C22.0356 31.3249 25.9972 35.979 30.9222 39.8368C31.1762 40.0358 31.5375 39.9746 31.7231 39.7038L37.1726 31.7455C37.3551 31.4787 37.2982 31.1083 37.0484 30.9112C29.1715 24.7007 24.5953 15.9326 24.4074 6.69438C24.4006 6.36572 24.151 6.10132 23.8397 6.10132Z" fill="black"/>
<path d="M36.8882 11.8636L35.8959 8.81227C35.6939 8.19278 35.2023 7.71024 34.5765 7.51946L31.4958 6.57678C31.0706 6.44659 31.0661 5.84844 31.4901 5.71265L34.5551 4.72507C35.1776 4.5242 35.6636 4.03379 35.8553 3.41206L36.8014 0.346087C36.9322 -0.0781206 37.5332 -0.0826185 37.6708 0.339367L38.6631 3.39071C38.8649 4.0102 39.3566 4.49277 39.9825 4.68467L43.0632 5.62623C43.4884 5.75642 43.4929 6.35458 43.0688 6.49149L40.0039 7.47906C39.3814 7.67881 38.8954 8.16923 38.7037 8.79208L37.7576 11.8569C37.6268 12.2812 37.0257 12.2857 36.8882 11.8636Z" fill="black"/>
<path d="M118.315 16.5739H115.686V13.4627C115.686 13.2978 115.611 13.1458 115.481 13.0452C115.354 12.9476 115.192 12.913 115.037 12.951L112.724 13.5102C112.488 13.5675 112.322 13.7779 112.322 14.0221V16.5739H111.004C110.713 16.5739 110.476 16.811 110.476 17.1027V18.9856C110.476 19.2772 110.713 19.5145 111.004 19.5145H112.322V27.1109C112.352 30.34 114.455 30.7848 116.723 30.7848C116.948 30.7848 117.172 30.7787 117.4 30.7719C117.63 30.7651 117.863 30.7582 118.103 30.7582L118.13 30.7565C118.439 30.7175 118.631 30.5051 118.631 30.2024V28.1848C118.631 27.8932 118.394 27.6562 118.103 27.6562H117.307C116.156 27.6562 115.686 27.1548 115.686 25.9255V19.5145H118.315C118.606 19.5145 118.843 19.2772 118.843 18.9856V17.1027C118.843 16.811 118.606 16.5739 118.315 16.5739Z" fill="black"/>
<path d="M104.174 16.3586C102.797 16.3586 101.718 16.7754 100.961 17.5978V17.1026C100.961 16.8011 100.734 16.5739 100.433 16.5739H97.9929C97.6916 16.5739 97.4645 16.8011 97.4645 17.1026V30.2024C97.4645 30.5039 97.6916 30.7314 97.9929 30.7314H100.433C100.734 30.7314 100.961 30.5039 100.961 30.2024V21.9982C100.961 20.4803 101.9 19.4605 103.298 19.4605C104.701 19.4605 105.608 20.4671 105.608 22.0249V30.2024C105.608 30.5039 105.835 30.7314 106.136 30.7314H108.577C108.878 30.7314 109.105 30.5039 109.105 30.2024V21.3795C109.105 18.3296 107.169 16.3586 104.174 16.3586Z" fill="black"/>
<path d="M91.8678 22.2494H86.6735C86.704 21.7995 86.7629 21.4852 86.8677 21.2097L86.8725 21.1955C87.2107 20.0605 88.0217 19.4606 89.2177 19.4606C90.5057 19.4606 91.4178 20.1486 91.7237 21.3623C91.7887 21.5589 91.8395 21.8761 91.8678 22.2494ZM89.2177 16.3588C86.3831 16.3588 84.2352 17.9329 83.4731 20.5651C83.2233 21.3508 83.116 22.3314 83.1454 23.5582C83.1454 25.0669 83.3503 26.2809 83.7697 27.2647C84.698 29.6026 86.7255 30.9199 89.4805 30.9732C89.5141 30.9737 89.5477 30.9739 89.5816 30.9739C91.8747 30.9739 93.8413 30.0424 94.9913 28.4041C95.154 28.1563 95.1117 27.9085 94.8713 27.7053L93.2274 26.3345C93.0746 26.2051 92.9322 26.1931 92.8393 26.2036C92.7411 26.2161 92.5968 26.2697 92.4662 26.4548C91.8124 27.3949 90.9066 27.8712 89.7779 27.8712C88.2379 27.847 87.2598 27.2346 86.863 26.0308C86.7462 25.77 86.695 25.3912 86.6498 24.975H94.868C95.1828 24.975 95.3946 24.7639 95.3961 24.4492C95.4239 23.5401 95.42 22.8263 95.3151 22.0824C94.8692 18.2843 92.8178 16.3588 89.2177 16.3588Z" fill="black"/>
<path d="M77.5774 23.5317C77.5774 25.0151 77.5202 25.3978 77.3983 25.868C77.1205 26.9939 76.28 27.6397 75.092 27.6397C73.9176 27.6397 73.0048 26.9628 72.645 25.8155C72.5311 25.5263 72.3952 24.9003 72.3952 23.5585C72.3952 22.4982 72.4908 21.7737 72.7014 21.2654C73.0899 20.1123 73.9517 19.4508 75.0654 19.4508C76.2449 19.4508 77.107 20.1224 77.3743 21.2583C77.5185 21.7465 77.5774 22.0887 77.5774 23.5317ZM80.5353 16.5738H78.1043C77.804 16.5738 77.5774 16.8006 77.5774 17.1013V17.4568C76.7703 16.7189 75.7207 16.3595 74.3784 16.3595C72.0036 16.3595 70.0641 17.79 69.3186 20.0877C68.9333 21.1696 68.884 22.5109 68.884 23.5585C68.884 24.9337 68.9954 25.9807 69.2364 26.8599C70.0769 29.6155 72.5392 30.5971 74.5634 30.5971C75.8247 30.5971 76.8378 30.2476 77.5769 29.5602C77.5632 30.7117 77.2559 31.5405 76.6391 32.0921C75.831 32.8144 74.4636 33.0742 72.4384 32.8876C71.915 32.8876 71.8585 33.2376 71.8585 33.3807L71.7792 35.5853C71.7792 35.8938 71.9562 36.1003 72.258 36.1389C72.7596 36.1898 73.2474 36.2154 73.7183 36.2154C75.9835 36.2154 77.8697 35.6304 79.123 34.521C80.4096 33.3814 81.0618 31.7126 81.0618 29.5605V17.1013C81.0618 16.8006 80.8354 16.5738 80.5353 16.5738Z" fill="black"/>
<path d="M67.6986 16.6293C67.3279 16.4835 66.9193 16.4126 66.4494 16.4126C65.2013 16.4126 64.1853 16.911 63.4226 17.8953V17.1029C63.4226 16.8113 63.1859 16.5739 62.8945 16.5739H60.4539C60.1627 16.5739 59.9258 16.811 59.9258 17.1027V30.2024C59.9258 30.4939 60.163 30.7314 60.4542 30.7314H62.8945C63.1859 30.7314 63.4226 30.4939 63.4226 30.2024V22.5901C63.4226 20.9488 64.6289 20.1462 65.8418 20.0772C66.2628 20.0191 66.5012 20.0382 66.7698 20.0904C67.0697 20.1488 67.3528 19.968 67.4198 19.6787L68.0671 17.3417C68.1329 17.0444 67.9744 16.7381 67.6986 16.6293Z" fill="black"/>
<path d="M53.968 24.5984V25.791C53.968 27.2112 52.4698 28.0597 51.021 28.0597C50.0453 28.0597 49.0025 27.6405 49.0025 26.4635C49.0025 25.2783 50.0281 24.5984 51.8167 24.5984H53.968ZM51.6578 16.3588C48.9615 16.3588 46.8093 17.5725 46.1747 19.451C46.1207 19.6108 46.1393 19.7842 46.2256 19.9274C46.3062 20.0614 46.4397 20.1546 46.5929 20.1843L48.9983 20.7772C49.2503 20.8228 49.501 20.6899 49.598 20.4614C49.8731 19.8161 50.6326 19.4606 51.7373 19.4606C53.1966 19.4606 53.968 20.152 53.968 21.4603V22.0344H51.2068C47.6205 22.0344 45.4792 23.7705 45.4792 26.6789C45.4792 29.8253 47.9448 30.9464 50.252 30.9464C51.7993 30.9464 53.0783 30.4943 53.968 29.6392V30.2025C53.968 30.494 54.2051 30.7312 54.4963 30.7312H56.9364C57.2276 30.7312 57.4648 30.494 57.4648 30.2025V21.1377C57.4648 18.3239 55.0769 16.3588 51.6578 16.3588Z" fill="black"/>
<path d="M127.369 30.7319H130.389C130.532 30.7319 130.676 30.6715 130.748 30.5706L133.886 25.9715C133.935 25.8907 133.982 25.8907 134.03 25.9715L137.145 30.5706C137.217 30.6715 137.361 30.7319 137.505 30.7319H140.524C140.739 30.7319 140.859 30.6311 140.739 30.4495L136.091 23.7324C136.067 23.6921 136.067 23.6517 136.091 23.6113L140.739 16.8942C140.859 16.7127 140.739 16.6118 140.524 16.6118H137.505C137.361 16.6118 137.217 16.6723 137.145 16.7731L134.03 21.3925C133.982 21.4731 133.935 21.4731 133.886 21.3925L130.772 16.7731C130.7 16.6723 130.557 16.6118 130.413 16.6118H127.369C127.154 16.6118 127.034 16.7127 127.154 16.8942L131.802 23.6113C131.826 23.6517 131.826 23.6921 131.802 23.7324L127.154 30.4495C127.034 30.6311 127.154 30.7319 127.369 30.7319Z" fill="black"/>
<defs>
<linearGradient id="paint0_linear_88_35685" x1="188.114" y1="11.6344" x2="199.641" y2="23.5523" gradientUnits="userSpaceOnUse">
<stop stop-color="#EF2F2D"/>
<stop offset="1" stop-color="#89272D"/>
</linearGradient>
<linearGradient id="paint1_linear_88_35685" x1="176.537" y1="16.2019" x2="215.738" y2="26.7101" gradientUnits="userSpaceOnUse">
<stop stop-color="#434344"/>
<stop offset="0.29" stop-color="#404041"/>
<stop offset="0.51" stop-color="#363637"/>
<stop offset="0.71" stop-color="#262627"/>
<stop offset="0.9" stop-color="#0F0F0F"/>
<stop offset="1"/>
</linearGradient>
</defs>
</svg>
