<svg width="194" height="40" viewBox="0 0 194 40" fill="none" xmlns="http://www.w3.org/2000/svg">
<path d="M97.4167 14.8769C97.4982 16.8644 97.7755 20.2289 97.9179 21.8807C97.9278 22.0011 97.912 22.1223 97.8715 22.2361C97.831 22.35 97.7668 22.4539 97.683 22.541C97.5992 22.6281 97.4979 22.6964 97.3857 22.7413C97.2735 22.7862 97.1531 22.8067 97.0323 22.8015C95.816 22.7443 93.5353 22.6579 90.8155 22.6458C88.1626 22.6336 85.9671 22.7066 84.7787 22.7577C84.6585 22.7623 84.5387 22.7415 84.4271 22.6965C84.3156 22.6515 84.2148 22.5834 84.1315 22.4966C84.0482 22.4098 83.9842 22.3064 83.9437 22.1931C83.9033 22.0798 83.8873 21.9592 83.8969 21.8393C84.0319 20.2021 84.2958 16.8632 84.3773 14.8769C84.4361 13.1898 85.1498 11.592 86.3669 10.4224C87.5841 9.25268 89.209 8.60311 90.897 8.61141C92.5851 8.60311 94.21 9.25268 95.4271 10.4224C96.6442 11.592 97.3579 13.1898 97.4167 14.8769ZM90.8873 11.7143C90.1295 11.7143 89.3887 11.9391 88.7586 12.3601C88.1285 12.7811 87.6374 13.3795 87.3474 14.0796C87.0574 14.7797 86.9815 15.5501 87.1294 16.2934C87.2772 17.0366 87.6421 17.7193 88.178 18.2552C88.7138 18.791 89.3966 19.1559 90.1398 19.3038C90.883 19.4516 91.6534 19.3758 92.3536 19.0858C93.0537 18.7958 93.6521 18.3047 94.0731 17.6746C94.4941 17.0445 94.7188 16.3037 94.7188 15.5459C94.7188 15.0427 94.6197 14.5445 94.4272 14.0796C94.2346 13.6147 93.9524 13.1924 93.5966 12.8366C93.2408 12.4808 92.8184 12.1986 92.3536 12.006C91.8887 11.8134 91.3905 11.7143 90.8873 11.7143V11.7143Z" fill="url(#paint0_linear_270_19875)"/>
<path d="M90.9542 13.3486C91.1771 13.6036 91.2998 13.9308 91.2996 14.2694C91.2958 14.4629 91.254 14.6537 91.1764 14.8309C91.0989 15.0082 90.9871 15.1685 90.8476 15.3025C90.7081 15.4366 90.5436 15.5419 90.3634 15.6124C90.1832 15.6828 89.9909 15.7171 89.7974 15.7132C89.5736 15.7146 89.3523 15.6666 89.1492 15.5726C88.9461 15.4786 88.7662 15.341 88.6224 15.1695C88.5961 15.305 88.5826 15.4426 88.5823 15.5807C88.5823 16.814 89.6223 17.8139 90.9067 17.8139C92.1912 17.8139 93.2312 16.814 93.2312 15.5807C93.2312 14.3473 92.218 13.3681 90.9542 13.3486Z" fill="#2D2F31"/>
<path d="M94.3904 11.0323C94.3609 11.0341 94.3313 11.03 94.3033 11.0202C94.2754 11.0105 94.2497 10.9952 94.2277 10.9754C94.2058 10.9556 94.188 10.9316 94.1754 10.9048C94.1628 10.878 94.1557 10.849 94.1544 10.8194C94.135 10.3207 94.2238 9.29898 95.5167 8.18358C96.4059 7.41605 97.6466 7.13872 99.206 7.35767C99.2356 7.36192 99.2641 7.37212 99.2897 7.38764C99.3153 7.40315 99.3375 7.42368 99.355 7.44798C99.3725 7.47228 99.3849 7.49986 99.3915 7.52907C99.398 7.55828 99.3987 7.58851 99.3933 7.61797V7.61797C99.3832 7.67444 99.3515 7.72477 99.305 7.75835C99.2585 7.79193 99.2007 7.80614 99.1439 7.79799C97.7257 7.59729 96.6103 7.83813 95.8269 8.51199C94.7042 9.48508 94.6106 10.3572 94.6106 10.8048C94.6122 10.8622 94.5914 10.918 94.5526 10.9602C94.5137 11.0025 94.4599 11.0279 94.4026 11.0311L94.3904 11.0323Z" fill="#2D2F31"/>
<path d="M98.8885 8.02925C99.2452 8.02925 99.5344 7.75097 99.5344 7.40769C99.5344 7.06441 99.2452 6.78613 98.8885 6.78613C98.5318 6.78613 98.2426 7.06441 98.2426 7.40769C98.2426 7.75097 98.5318 8.02925 98.8885 8.02925Z" fill="#2D2F31"/>
<path d="M87.6396 11.0737C87.6691 11.0757 87.6987 11.0717 87.7266 11.0621C87.7545 11.0525 87.7802 11.0374 87.8022 11.0176C87.8242 10.9979 87.842 10.974 87.8546 10.9473C87.8672 10.9205 87.8744 10.8916 87.8756 10.8621C87.8963 10.3512 87.8111 9.18713 86.5133 8.06443C85.6241 7.29691 84.3846 7.01958 82.8253 7.23853C82.7955 7.24264 82.7669 7.25272 82.7412 7.26818C82.7154 7.28363 82.6931 7.30413 82.6755 7.32845C82.6578 7.35277 82.6453 7.3804 82.6387 7.40968C82.632 7.43896 82.6314 7.46928 82.6367 7.49883V7.49883C82.6469 7.55411 82.6776 7.60347 82.7228 7.6369C82.768 7.67033 82.8242 7.68533 82.88 7.67885C84.2983 7.47815 85.4137 7.71899 86.197 8.39285C87.3246 9.36594 87.4207 10.3804 87.4073 10.8402C87.4056 10.8978 87.4263 10.9538 87.4651 10.9965C87.5039 11.0392 87.5578 11.0651 87.6153 11.0688L87.6396 11.0737Z" fill="#2D2F31"/>
<path d="M83.2339 8.02925C83.5907 8.02925 83.8798 7.75097 83.8798 7.40769C83.8798 7.06441 83.5907 6.78613 83.2339 6.78613C82.8772 6.78613 82.5881 7.06441 82.5881 7.40769C82.5881 7.75097 82.8772 8.02925 83.2339 8.02925Z" fill="#2D2F31"/>
<path d="M111.668 30.6863C111.668 28.6708 106.619 25.4694 106.619 25.4694L106.561 25.4523C107.392 22.0854 107.82 20.5869 107.876 18.3974C107.998 13.397 106.735 9.16406 103.567 5.45294C100.619 2.00213 95.9279 0 90.9165 0C85.5901 0 81.4836 2.0301 78.4379 5.39334C75.3921 8.75658 73.8631 12.4008 73.9544 18.3378C73.9787 19.9994 74.357 22.7885 75.1707 25.2893L75.1136 25.3064C75.1136 25.3064 70.1545 28.4507 70.1545 30.6267C70.1545 31.2702 72.8305 32.0864 78.3503 32.3454L75.2717 36.9579C75.1501 37.3508 75.2267 37.8908 75.5563 38.1219C75.8808 38.3359 76.2522 38.4681 76.6389 38.5075C77.2252 38.5246 77.4064 38.3555 77.6217 37.9675L80.7149 32.5863C83.9991 32.7164 86.0876 32.7858 89.8449 32.7931V38.9515C89.8668 39.3225 90.0237 40 91.0199 40C91.9261 40 92.0806 39.3651 92.0806 38.9515V32.7967C95.8343 32.7894 97.8741 32.8393 101.152 32.7104L104.391 37.9079C104.45 38.0756 104.562 38.2195 104.71 38.3173C104.859 38.4151 105.035 38.4615 105.212 38.4491C105.529 38.4537 105.84 38.3694 106.111 38.2059C106.476 38.0429 106.476 37.4432 106.328 36.8995L103.28 32.4646C108.606 32.0219 111.668 31.2033 111.668 30.6863ZM79.6992 30.0952C79.2036 30.0875 78.7313 29.8833 78.3862 29.5275C78.0411 29.1716 77.8514 28.6933 77.8589 28.1977C77.8589 27.1492 78.6824 26.4181 79.6992 26.4181C80.7161 26.4181 81.5396 27.1479 81.5396 28.1977C81.5471 28.6933 81.3574 29.1716 81.0123 29.5275C80.6672 29.8833 80.1949 30.0875 79.6992 30.0952ZM90.9117 30.1998C90.5338 30.2114 90.1611 30.11 89.8412 29.9085C89.5214 29.707 89.2689 29.4146 89.1163 29.0688C88.9636 28.7229 88.9176 28.3394 88.9843 27.9673C89.0509 27.5951 89.2271 27.2514 89.4903 26.98C89.7535 26.7087 90.0917 26.522 90.4616 26.444C90.8315 26.3661 91.2162 26.4003 91.5666 26.5423C91.9169 26.6843 92.2169 26.9277 92.4281 27.2412C92.6393 27.5548 92.7521 27.9242 92.752 28.3023C92.7595 28.7979 92.5698 29.2762 92.2247 29.6321C91.8796 29.9879 91.4073 30.1921 90.9117 30.1998V30.1998ZM102.124 30.3056C101.746 30.3172 101.373 30.2158 101.054 30.0143C100.734 29.8128 100.481 29.5204 100.329 29.1746C100.176 28.8287 100.13 28.4452 100.197 28.0731C100.263 27.701 100.439 27.3572 100.703 27.0858C100.966 26.8145 101.304 26.6279 101.674 26.5499C102.044 26.4719 102.429 26.5061 102.779 26.6481C103.129 26.7901 103.429 27.0335 103.641 27.3471C103.852 27.6606 103.964 28.0301 103.964 28.4081C103.972 28.9037 103.782 29.3821 103.437 29.7379C103.092 30.0937 102.62 30.2979 102.124 30.3056V30.3056ZM104.947 24.759C101.388 23.8528 96.1213 23.8978 90.9117 23.8978C85.702 23.8978 80.8159 23.7385 76.8554 24.759C76.263 22.3786 75.7984 20.003 75.7388 18.1627C75.4627 9.60924 81.2404 1.49856 90.9117 1.49856C100.583 1.49856 106.553 9.61533 106.184 18.1627C106.067 20.8533 105.317 23.3164 104.942 24.759H104.947Z" fill="url(#paint1_linear_270_19875)"/>
<path d="M123.487 12.5162C125.149 12.5162 126.575 12.8592 127.765 13.5452C128.946 14.2196 129.891 15.2415 130.47 16.4718C131.082 17.7368 131.389 19.2224 131.389 20.9286C131.403 22.0937 131.233 23.2539 130.885 24.366C130.574 25.355 130.061 26.2685 129.378 27.0481C128.7 27.81 127.854 28.4042 126.907 28.7838C125.934 29.1844 124.816 29.3847 123.553 29.3847C122.401 29.4039 121.257 29.1939 120.187 28.7668C119.237 28.3849 118.388 27.7893 117.706 27.0262C117.021 26.2371 116.51 25.3136 116.203 24.3149C115.857 23.2094 115.685 22.0566 115.695 20.8981C115.682 19.727 115.861 18.5617 116.225 17.4485C116.545 16.4614 117.068 15.552 117.76 14.7786C118.438 14.0386 119.276 13.4621 120.209 13.0928C121.254 12.6908 122.367 12.495 123.487 12.5162V12.5162ZM128.098 20.9091C128.098 19.7146 127.909 18.6799 127.53 17.8049C127.152 16.93 126.611 16.2679 125.908 15.8186C125.183 15.3639 124.342 15.1302 123.487 15.146C122.868 15.1398 122.255 15.2668 121.689 15.5182C121.14 15.7674 120.654 16.1385 120.269 16.6032C119.838 17.143 119.518 17.7633 119.33 18.4277C119.09 19.2344 118.974 20.0726 118.985 20.914C118.974 21.7649 119.09 22.6127 119.33 23.4294C119.523 24.1105 119.854 24.7447 120.303 25.2929C120.694 25.7653 121.187 26.1436 121.745 26.3997C122.397 26.6812 123.107 26.8039 123.815 26.7575C124.524 26.7112 125.211 26.4973 125.821 26.1334C126.517 25.7101 127.071 25.0573 127.483 24.175C127.895 23.2928 128.1 22.2013 128.098 20.9006V20.9091Z" fill="black"/>
<path d="M136.918 24.9965V27.5326C136.918 28.1497 136.776 28.6115 136.491 28.918C136.355 29.0685 136.188 29.1877 136.001 29.2675C135.814 29.3473 135.613 29.3857 135.41 29.3802C135.209 29.3856 135.01 29.3464 134.827 29.2657C134.644 29.1849 134.48 29.0645 134.349 28.9131C134.073 28.6017 133.935 28.1416 133.934 27.5326V19.0764C133.934 17.7117 134.421 17.0293 135.394 17.0293C135.889 17.0293 136.245 17.1886 136.464 17.5073C136.683 17.826 136.805 18.2971 136.829 18.9207C137.111 18.391 137.482 17.9131 137.924 17.5073C138.299 17.1886 138.799 17.0293 139.426 17.0293C140.065 17.0325 140.692 17.1969 141.251 17.5073C141.842 17.8268 142.137 18.2497 142.136 18.776C142.141 18.947 142.111 19.1171 142.046 19.2754C141.981 19.4336 141.883 19.5764 141.759 19.6943C141.654 19.8059 141.528 19.8956 141.389 19.9582C141.249 20.0208 141.098 20.0552 140.945 20.0592C140.675 20.0205 140.409 19.9516 140.153 19.8537C139.797 19.7277 139.422 19.6583 139.044 19.6481C138.656 19.6315 138.276 19.756 137.973 19.9984C137.666 20.2789 137.443 20.6389 137.328 21.0384C137.16 21.5715 137.054 22.122 137.012 22.6793C136.949 23.3118 136.918 24.0842 136.918 24.9965Z" fill="black"/>
<path d="M146.513 14.2472V18.8876C147.008 18.3451 147.587 17.8848 148.228 17.5241C148.811 17.2094 149.532 17.0517 150.392 17.0509C151.314 17.0192 152.225 17.2702 153.001 17.7701C153.777 18.2701 154.382 18.9953 154.735 19.8485C155.148 20.7575 155.354 21.8348 155.353 23.0804C155.362 23.9364 155.246 24.7891 155.009 25.6116C154.802 26.3337 154.463 27.0109 154.009 27.6089C153.587 28.1612 153.043 28.6086 152.419 28.9165C151.778 29.2287 151.072 29.3869 150.359 29.3787C149.922 29.3813 149.487 29.3253 149.065 29.2121C148.7 29.1181 148.352 28.9696 148.032 28.7717C147.771 28.6092 147.526 28.4209 147.302 28.2098C147.101 28.0176 146.837 27.7285 146.51 27.3425V27.643C146.51 28.2106 146.375 28.6428 146.105 28.9396C145.976 29.0824 145.817 29.1956 145.64 29.2714C145.463 29.3471 145.271 29.3838 145.079 29.3787C144.888 29.3865 144.698 29.351 144.523 29.275C144.348 29.199 144.192 29.0843 144.068 28.9396C143.816 28.6469 143.69 28.2146 143.691 27.643V14.3846C143.691 13.7692 143.812 13.3037 144.056 12.9882C144.176 12.8324 144.332 12.708 144.511 12.6258C144.69 12.5436 144.886 12.506 145.082 12.5163C145.54 12.5163 145.894 12.6663 146.142 12.9664C146.39 13.2664 146.513 13.6933 146.513 14.2472ZM146.655 23.2714C146.655 24.4804 146.926 25.4093 147.469 26.058C147.726 26.3734 148.053 26.6253 148.423 26.794C148.793 26.9628 149.198 27.0439 149.605 27.0311C150.355 27.0311 151.003 26.6991 151.551 26.0349C152.098 25.3708 152.369 24.4196 152.365 23.1813C152.38 22.4771 152.266 21.776 152.026 21.1135C151.837 20.5864 151.504 20.1229 151.064 19.7755C150.645 19.4581 150.131 19.2914 149.605 19.3024C149.061 19.2946 148.529 19.4603 148.087 19.7755C147.615 20.1244 147.252 20.5985 147.037 21.1439C146.767 21.8201 146.638 22.5437 146.655 23.2714V23.2714Z" fill="black"/>
<path d="M159.254 15.6159C158.863 15.6245 158.483 15.4855 158.19 15.2267C157.894 14.968 157.746 14.6007 157.747 14.1247C157.741 13.9254 157.779 13.7272 157.857 13.5439C157.935 13.3605 158.053 13.1964 158.201 13.0628C158.484 12.7918 158.862 12.6421 159.254 12.6456C159.631 12.6418 159.997 12.7764 160.282 13.0239C160.581 13.2753 160.73 13.6402 160.729 14.1186C160.729 14.5873 160.584 14.9522 160.293 15.2133C160.011 15.4764 159.639 15.6206 159.254 15.6159V15.6159ZM160.729 18.7541V27.5326C160.729 28.1424 160.588 28.6026 160.304 28.9132C160.168 29.0649 160.001 29.1852 159.815 29.2659C159.628 29.3465 159.426 29.3856 159.222 29.3803C159.02 29.3863 158.819 29.3464 158.635 29.2636C158.45 29.1808 158.287 29.0573 158.157 28.9022C157.884 28.5827 157.747 28.1262 157.747 27.5326V18.8417C157.747 18.2408 157.884 17.7884 158.157 17.4843C158.29 17.3346 158.455 17.2162 158.639 17.1373C158.823 17.0585 159.022 17.0212 159.222 17.0281C159.425 17.0225 159.626 17.0603 159.812 17.139C159.999 17.2177 160.167 17.3354 160.304 17.4843C160.588 17.7892 160.73 18.2125 160.729 18.7541Z" fill="black"/>
<path d="M163.976 17.2952H164.301V15.4707C164.301 14.9841 164.314 14.6001 164.34 14.3188C164.357 14.0669 164.43 13.8219 164.552 13.6011C164.672 13.3909 164.845 13.2162 165.055 13.0951C165.276 12.9648 165.528 12.8975 165.785 12.9005C166.171 12.9034 166.541 13.0596 166.812 13.3347C167.014 13.5227 167.149 13.7705 167.199 14.0414C167.263 14.433 167.291 14.8296 167.282 15.2262V17.294H168.377C168.8 17.294 169.124 17.3962 169.35 17.6005C169.459 17.6994 169.545 17.8207 169.603 17.9562C169.66 18.0916 169.688 18.238 169.683 18.3851C169.683 18.7905 169.525 19.0743 169.209 19.2365C168.892 19.3987 168.439 19.4798 167.848 19.4798H167.291V25.0665C167.285 25.4321 167.301 25.7976 167.339 26.1612C167.361 26.3909 167.453 26.6083 167.602 26.784C167.745 26.9462 167.976 27.0273 168.295 27.0273C168.535 27.0192 168.773 26.9874 169.006 26.9324C169.235 26.8781 169.469 26.8464 169.705 26.8375C169.828 26.8393 169.949 26.8664 170.061 26.9173C170.173 26.9681 170.274 27.0416 170.356 27.1331C170.451 27.2288 170.526 27.3428 170.575 27.4683C170.625 27.5938 170.649 27.728 170.645 27.8629C170.645 28.3495 170.383 28.7241 169.858 28.9869C169.334 29.2496 168.579 29.3793 167.596 29.3761C166.664 29.3761 165.957 29.2167 165.476 28.8981C165.005 28.5919 164.667 28.1186 164.531 27.5734C164.382 27.0107 164.308 26.2577 164.307 25.3147V19.4871H163.914C163.483 19.4871 163.156 19.3837 162.93 19.1757C162.82 19.0765 162.732 18.9545 162.674 18.8182C162.616 18.6819 162.587 18.5345 162.592 18.3863C162.588 18.2372 162.618 18.0892 162.679 17.9533C162.741 17.8174 162.832 17.6972 162.947 17.6017C163.18 17.3974 163.523 17.2952 163.976 17.2952Z" fill="black"/>
<path d="M180.061 23.9496H174.223C174.216 24.5813 174.357 25.2058 174.632 25.7742C174.865 26.2639 175.233 26.677 175.692 26.965C176.132 27.2313 176.637 27.3699 177.152 27.3652C177.48 27.3681 177.808 27.3252 178.125 27.2374C178.427 27.147 178.714 27.0121 178.976 26.8373C179.245 26.6608 179.5 26.4653 179.741 26.2522C179.974 26.0454 180.276 25.7616 180.649 25.4007C180.835 25.2557 181.068 25.1843 181.304 25.2C181.575 25.1883 181.841 25.2801 182.047 25.4567C182.144 25.5495 182.22 25.6623 182.269 25.7873C182.318 25.9123 182.339 26.0465 182.331 26.1804C182.309 26.5229 182.2 26.8541 182.015 27.1426C181.765 27.5521 181.44 27.9108 181.057 28.1996C180.573 28.568 180.03 28.8517 179.452 29.0389C178.734 29.2729 177.982 29.386 177.227 29.3734C175.312 29.3734 173.822 28.8171 172.758 27.7045C171.694 26.592 171.162 25.0825 171.162 23.176C171.154 22.3271 171.287 21.4828 171.556 20.6776C171.797 19.9465 172.188 19.2738 172.703 18.7022C173.218 18.1452 173.853 17.7133 174.561 17.4397C175.341 17.1387 176.173 16.9896 177.009 17.0006C178.174 17.0006 179.174 17.2507 180.009 17.7511C180.803 18.2117 181.453 18.886 181.883 19.6972C182.286 20.4431 182.5 21.2763 182.506 22.1239C182.506 22.8877 182.291 23.3828 181.861 23.609C181.432 23.8353 180.831 23.9488 180.061 23.9496ZM174.223 22.2248H179.632C179.559 21.1861 179.284 20.4088 178.807 19.8931C178.33 19.3773 177.702 19.1199 176.922 19.1207C176.579 19.1115 176.238 19.1769 175.923 19.3123C175.608 19.4478 175.326 19.6501 175.097 19.9052C174.619 20.4275 174.328 21.2007 174.226 22.2248H174.223Z" fill="black"/>
<path d="M187.995 24.9965V27.5326C187.995 28.1497 187.853 28.6115 187.57 28.918C187.433 29.0684 187.266 29.1875 187.079 29.2673C186.892 29.347 186.69 29.3856 186.487 29.3802C186.287 29.3855 186.088 29.3464 185.905 29.2656C185.722 29.1849 185.559 29.0645 185.428 28.9131C185.15 28.6017 185.012 28.1416 185.012 27.5326V19.0764C185.012 17.7117 185.498 17.0293 186.471 17.0293C186.966 17.0293 187.323 17.1886 187.543 17.5073C187.763 17.826 187.884 18.2971 187.908 18.9207C188.19 18.391 188.56 17.9131 189.003 17.5073C189.377 17.1886 189.878 17.0293 190.505 17.0293C191.143 17.0327 191.771 17.1971 192.329 17.5073C192.919 17.8268 193.214 18.2497 193.214 18.776C193.219 18.947 193.188 19.1171 193.123 19.2754C193.058 19.4336 192.96 19.5764 192.837 19.6943C192.732 19.806 192.606 19.8957 192.466 19.9584C192.327 20.021 192.176 20.0553 192.023 20.0592C191.752 20.0205 191.486 19.9516 191.231 19.8537C190.874 19.7277 190.5 19.6583 190.122 19.6481C189.734 19.6317 189.353 19.7562 189.05 19.9984C188.744 20.2792 188.52 20.6391 188.405 21.0384C188.239 21.5718 188.133 22.1222 188.089 22.6793C188.027 23.3118 187.995 24.0842 187.995 24.9965Z" fill="black"/>
<line x1="54.5" y1="-3.92191e-07" x2="54.5" y2="40" stroke="#333333" stroke-opacity="0.4"/>
<path d="M21.4528 6.19043H12.6714C12.3779 6.19043 12.1428 6.4545 12.1365 6.78274C11.959 16.0091 7.64447 24.7661 0.218263 30.9687C-0.0175084 31.1655 -0.0712218 31.5355 0.101153 31.8019L5.23906 39.7499C5.41378 40.0205 5.75434 40.0815 5.99407 39.8828C10.6375 36.0299 14.3724 31.3819 17.0622 26.23C19.7518 31.3819 23.4869 36.0299 28.1304 39.8828C28.3699 40.0815 28.7105 40.0205 28.8855 39.7499L34.0234 31.8019C34.1955 31.5355 34.1418 31.1655 33.9062 30.9687C26.4798 24.7661 22.1652 16.0091 21.9881 6.78274C21.9816 6.4545 21.7463 6.19043 21.4528 6.19043Z" fill="#FD8961"/>
<path d="M33.7477 12.061L32.7926 8.95219C32.5983 8.32113 32.1252 7.82946 31.5228 7.63509L28.5577 6.67467C28.1486 6.54203 28.1443 5.93263 28.5523 5.79428L31.5022 4.78812C32.1012 4.58347 32.569 4.08383 32.7535 3.45039L33.6641 0.326733C33.79 -0.105463 34.3685 -0.110039 34.5008 0.319884L35.456 3.42865C35.6502 4.05979 36.1234 4.55145 36.7257 4.74696L39.6908 5.70623C40.1 5.83888 40.1043 6.44828 39.6963 6.58777L36.7464 7.59394C36.1473 7.79744 35.6796 8.29706 35.495 8.93165L34.5844 12.0542C34.4586 12.4863 33.8801 12.4909 33.7477 12.061Z" fill="#FD8961"/>
<defs>
<linearGradient id="paint0_linear_270_19875" x1="85.1144" y1="11.6341" x2="96.6407" y2="23.552" gradientUnits="userSpaceOnUse">
<stop stop-color="#EF2F2D"/>
<stop offset="1" stop-color="#89272D"/>
</linearGradient>
<linearGradient id="paint1_linear_270_19875" x1="73.5372" y1="16.2019" x2="112.738" y2="26.7101" gradientUnits="userSpaceOnUse">
<stop stop-color="#434344"/>
<stop offset="0.29" stop-color="#404041"/>
<stop offset="0.51" stop-color="#363637"/>
<stop offset="0.71" stop-color="#262627"/>
<stop offset="0.9" stop-color="#0F0F0F"/>
<stop offset="1"/>
</linearGradient>
</defs>
</svg>
