<svg width="220" height="40" viewBox="0 0 220 40" fill="none" xmlns="http://www.w3.org/2000/svg">
<path d="M123.416 14.8769C123.498 16.8644 123.775 20.2289 123.917 21.8807C123.927 22.0011 123.911 22.1223 123.871 22.2361C123.83 22.35 123.766 22.4539 123.682 22.541C123.599 22.6281 123.497 22.6964 123.385 22.7413C123.273 22.7862 123.152 22.8067 123.032 22.8015C121.815 22.7443 119.535 22.6579 116.815 22.6458C114.162 22.6336 111.966 22.7066 110.778 22.7577C110.658 22.7623 110.538 22.7415 110.427 22.6965C110.315 22.6515 110.214 22.5834 110.131 22.4966C110.048 22.4098 109.984 22.3064 109.943 22.1931C109.903 22.0798 109.887 21.9592 109.896 21.8393C110.031 20.2021 110.295 16.8632 110.377 14.8769C110.436 13.1898 111.149 11.592 112.366 10.4224C113.583 9.25268 115.208 8.60311 116.896 8.61141C118.584 8.60311 120.209 9.25268 121.426 10.4224C122.644 11.592 123.357 13.1898 123.416 14.8769ZM116.887 11.7143C116.129 11.7143 115.388 11.9391 114.758 12.3601C114.128 12.7811 113.637 13.3795 113.347 14.0796C113.057 14.7797 112.981 15.5501 113.129 16.2934C113.277 17.0366 113.642 17.7193 114.177 18.2552C114.713 18.791 115.396 19.1559 116.139 19.3038C116.882 19.4516 117.653 19.3758 118.353 19.0858C119.053 18.7958 119.651 18.3047 120.072 17.6746C120.493 17.0445 120.718 16.3037 120.718 15.5459C120.718 15.0427 120.619 14.5445 120.427 14.0796C120.234 13.6147 119.952 13.1924 119.596 12.8366C119.24 12.4808 118.818 12.1986 118.353 12.006C117.888 11.8134 117.39 11.7143 116.887 11.7143Z" fill="url(#paint0_linear_1064_22903)"/>
<path d="M116.954 13.3486C117.177 13.6036 117.3 13.9308 117.299 14.2694C117.296 14.4629 117.254 14.6537 117.176 14.8309C117.099 15.0082 116.987 15.1685 116.847 15.3025C116.708 15.4366 116.543 15.5419 116.363 15.6124C116.183 15.6828 115.991 15.7171 115.797 15.7132C115.573 15.7146 115.352 15.6666 115.149 15.5726C114.946 15.4786 114.766 15.341 114.622 15.1695C114.596 15.305 114.582 15.4426 114.582 15.5807C114.582 16.814 115.622 17.8139 116.906 17.8139C118.191 17.8139 119.231 16.814 119.231 15.5807C119.231 14.3473 118.218 13.3681 116.954 13.3486Z" fill="#2D2F31"/>
<path d="M120.39 11.0323C120.361 11.0341 120.331 11.03 120.303 11.0202C120.275 11.0105 120.25 10.9952 120.228 10.9754C120.206 10.9556 120.188 10.9316 120.175 10.9048C120.163 10.878 120.156 10.849 120.154 10.8194C120.135 10.3207 120.224 9.29898 121.517 8.18358C122.406 7.41605 123.647 7.13872 125.206 7.35767C125.236 7.36192 125.264 7.37212 125.29 7.38764C125.315 7.40315 125.338 7.42368 125.355 7.44798C125.373 7.47228 125.385 7.49986 125.392 7.52907C125.398 7.55828 125.399 7.58851 125.393 7.61797C125.383 7.67444 125.352 7.72477 125.305 7.75835C125.258 7.79193 125.201 7.80614 125.144 7.79799C123.726 7.59729 122.61 7.83813 121.827 8.51199C120.704 9.48508 120.611 10.3572 120.611 10.8048C120.612 10.8622 120.591 10.918 120.553 10.9602C120.514 11.0025 120.46 11.0279 120.403 11.0311L120.39 11.0323Z" fill="#2D2F31"/>
<path d="M124.888 8.02925C125.245 8.02925 125.534 7.75097 125.534 7.40769C125.534 7.06441 125.245 6.78613 124.888 6.78613C124.531 6.78613 124.242 7.06441 124.242 7.40769C124.242 7.75097 124.531 8.02925 124.888 8.02925Z" fill="#2D2F31"/>
<path d="M113.639 11.0737C113.669 11.0757 113.698 11.0717 113.726 11.0621C113.754 11.0525 113.78 11.0374 113.802 11.0176C113.824 10.9979 113.842 10.974 113.854 10.9473C113.867 10.9205 113.874 10.8916 113.875 10.8621C113.896 10.3512 113.811 9.18713 112.513 8.06443C111.624 7.29691 110.384 7.01958 108.825 7.23853C108.795 7.24264 108.767 7.25272 108.741 7.26818C108.715 7.28363 108.693 7.30413 108.675 7.32845C108.658 7.35277 108.645 7.3804 108.638 7.40968C108.632 7.43896 108.631 7.46928 108.636 7.49883C108.647 7.55411 108.677 7.60347 108.722 7.6369C108.768 7.67033 108.824 7.68533 108.88 7.67885C110.298 7.47815 111.413 7.71899 112.197 8.39285C113.324 9.36594 113.42 10.3804 113.407 10.8402C113.405 10.8978 113.426 10.9538 113.465 10.9965C113.504 11.0392 113.557 11.0651 113.615 11.0688L113.639 11.0737Z" fill="#2D2F31"/>
<path d="M109.234 8.02925C109.59 8.02925 109.88 7.75097 109.88 7.40769C109.88 7.06441 109.59 6.78613 109.234 6.78613C108.877 6.78613 108.588 7.06441 108.588 7.40769C108.588 7.75097 108.877 8.02925 109.234 8.02925Z" fill="#2D2F31"/>
<path d="M137.667 30.6863C137.667 28.6708 132.618 25.4694 132.618 25.4694L132.561 25.4523C133.392 22.0854 133.82 20.5869 133.876 18.3974C133.998 13.397 132.735 9.16406 129.566 5.45294C126.619 2.00213 121.928 0 116.916 0C111.59 0 107.483 2.0301 104.438 5.39334C101.392 8.75658 99.863 12.4008 99.9542 18.3378C99.9785 19.9994 100.357 22.7885 101.171 25.2893L101.113 25.3064C101.113 25.3064 96.1543 28.4507 96.1543 30.6267C96.1543 31.2702 98.8303 32.0864 104.35 32.3454L101.272 36.9579C101.15 37.3508 101.227 37.8908 101.556 38.1219C101.881 38.3359 102.252 38.4681 102.639 38.5075C103.225 38.5246 103.406 38.3555 103.622 37.9675L106.715 32.5863C109.999 32.7164 112.087 32.7858 115.845 32.7931V38.9515C115.867 39.3225 116.024 40 117.02 40C117.926 40 118.08 39.3651 118.08 38.9515V32.7967C121.834 32.7894 123.874 32.8393 127.152 32.7104L130.391 37.9079C130.45 38.0756 130.562 38.2195 130.71 38.3173C130.859 38.4151 131.035 38.4615 131.212 38.4491C131.529 38.4537 131.84 38.3694 132.111 38.2059C132.476 38.0429 132.476 37.4432 132.328 36.8995L129.279 32.4646C134.606 32.0219 137.667 31.2033 137.667 30.6863ZM105.699 30.0952C105.203 30.0875 104.731 29.8833 104.386 29.5275C104.041 29.1716 103.851 28.6933 103.859 28.1977C103.859 27.1492 104.682 26.4181 105.699 26.4181C106.716 26.4181 107.539 27.1479 107.539 28.1977C107.547 28.6933 107.357 29.1716 107.012 29.5275C106.667 29.8833 106.195 30.0875 105.699 30.0952ZM116.911 30.1998C116.534 30.2114 116.161 30.11 115.841 29.9085C115.521 29.707 115.269 29.4146 115.116 29.0688C114.963 28.7229 114.917 28.3394 114.984 27.9673C115.051 27.5951 115.227 27.2514 115.49 26.98C115.753 26.7087 116.092 26.522 116.461 26.444C116.831 26.3661 117.216 26.4003 117.566 26.5423C117.917 26.6843 118.217 26.9277 118.428 27.2412C118.639 27.5548 118.752 27.9242 118.752 28.3023C118.759 28.7979 118.57 29.2762 118.225 29.6321C117.879 29.9879 117.407 30.1921 116.911 30.1998ZM128.124 30.3056C127.746 30.3172 127.373 30.2158 127.053 30.0143C126.734 29.8128 126.481 29.5204 126.328 29.1746C126.176 28.8287 126.13 28.4452 126.196 28.0731C126.263 27.701 126.439 27.3572 126.703 27.0858C126.966 26.8145 127.304 26.6279 127.674 26.5499C128.044 26.4719 128.428 26.5061 128.779 26.6481C129.129 26.7901 129.429 27.0335 129.64 27.3471C129.852 27.6606 129.964 28.0301 129.964 28.4081C129.972 28.9037 129.782 29.3821 129.437 29.7379C129.092 30.0937 128.62 30.2979 128.124 30.3056ZM130.947 24.759C127.388 23.8528 122.121 23.8978 116.911 23.8978C111.702 23.8978 106.816 23.7385 102.855 24.759C102.263 22.3786 101.798 20.003 101.739 18.1627C101.462 9.60924 107.24 1.49856 116.911 1.49856C126.583 1.49856 132.553 9.61533 132.184 18.1627C132.067 20.8533 131.317 23.3164 130.942 24.759H130.947Z" fill="url(#paint1_linear_1064_22903)"/>
<path d="M149.487 12.5162C151.149 12.5162 152.575 12.8592 153.765 13.5452C154.946 14.2196 155.891 15.2415 156.47 16.4718C157.082 17.7368 157.388 19.2224 157.388 20.9286C157.403 22.0937 157.233 23.2539 156.885 24.366C156.574 25.355 156.061 26.2685 155.378 27.0481C154.7 27.81 153.854 28.4042 152.907 28.7838C151.934 29.1844 150.816 29.3847 149.553 29.3847C148.401 29.4039 147.257 29.1939 146.187 28.7668C145.237 28.3849 144.388 27.7893 143.706 27.0262C143.021 26.2371 142.509 25.3136 142.203 24.3149C141.857 23.2094 141.685 22.0566 141.695 20.8981C141.682 19.727 141.861 18.5617 142.225 17.4485C142.545 16.4614 143.068 15.552 143.76 14.7786C144.438 14.0386 145.276 13.4621 146.209 13.0928C147.254 12.6908 148.367 12.495 149.487 12.5162ZM154.098 20.9091C154.098 19.7146 153.909 18.6799 153.53 17.8049C153.151 16.93 152.611 16.2679 151.908 15.8186C151.183 15.3639 150.342 15.1302 149.487 15.146C148.868 15.1398 148.255 15.2668 147.689 15.5182C147.14 15.7674 146.654 16.1385 146.269 16.6032C145.838 17.143 145.518 17.7633 145.329 18.4277C145.09 19.2344 144.974 20.0726 144.985 20.914C144.974 21.7649 145.09 22.6127 145.329 23.4294C145.523 24.1105 145.854 24.7447 146.303 25.2929C146.694 25.7653 147.187 26.1436 147.745 26.3997C148.397 26.6812 149.107 26.8039 149.815 26.7575C150.524 26.7112 151.211 26.4973 151.821 26.1334C152.517 25.7101 153.071 25.0573 153.483 24.175C153.895 23.2928 154.1 22.2013 154.098 20.9006V20.9091Z" fill="black"/>
<path d="M162.918 24.9965V27.5326C162.918 28.1497 162.776 28.6115 162.491 28.918C162.355 29.0685 162.188 29.1877 162.001 29.2675C161.815 29.3473 161.613 29.3857 161.41 29.3802C161.21 29.3856 161.011 29.3464 160.827 29.2657C160.644 29.1849 160.481 29.0645 160.349 28.9131C160.074 28.6017 159.935 28.1416 159.935 27.5326V19.0764C159.935 17.7117 160.421 17.0293 161.394 17.0293C161.889 17.0293 162.246 17.1886 162.465 17.5073C162.684 17.826 162.805 18.2971 162.83 18.9207C163.112 18.391 163.482 17.9131 163.924 17.5073C164.299 17.1886 164.8 17.0293 165.426 17.0293C166.065 17.0325 166.693 17.1969 167.251 17.5073C167.842 17.8268 168.137 18.2497 168.136 18.776C168.142 18.947 168.111 19.1171 168.046 19.2754C167.981 19.4336 167.883 19.5764 167.759 19.6943C167.655 19.8059 167.529 19.8956 167.389 19.9582C167.249 20.0208 167.099 20.0552 166.946 20.0592C166.675 20.0205 166.409 19.9516 166.154 19.8537C165.797 19.7277 165.423 19.6583 165.044 19.6481C164.657 19.6315 164.276 19.756 163.973 19.9984C163.666 20.2789 163.443 20.6389 163.328 21.0384C163.16 21.5715 163.054 22.122 163.012 22.6793C162.95 23.3118 162.918 24.0842 162.918 24.9965Z" fill="black"/>
<path d="M172.512 14.2472V18.8876C173.008 18.3451 173.587 17.8848 174.227 17.5241C174.81 17.2094 175.532 17.0517 176.391 17.0509C177.314 17.0192 178.225 17.2702 179.001 17.7701C179.777 18.2701 180.382 18.9953 180.735 19.8485C181.148 20.7575 181.354 21.8348 181.353 23.0804C181.362 23.9364 181.246 24.7891 181.009 25.6116C180.802 26.3337 180.463 27.0109 180.009 27.6089C179.586 28.1612 179.042 28.6086 178.419 28.9165C177.777 29.2287 177.072 29.3869 176.359 29.3787C175.922 29.3813 175.486 29.3253 175.064 29.2121C174.7 29.1181 174.352 28.9696 174.032 28.7717C173.77 28.6092 173.526 28.4209 173.302 28.2098C173.101 28.0176 172.837 27.7285 172.51 27.3425V27.643C172.51 28.2106 172.375 28.6428 172.105 28.9396C171.976 29.0824 171.817 29.1956 171.64 29.2714C171.462 29.3471 171.271 29.3838 171.078 29.3787C170.888 29.3865 170.698 29.351 170.523 29.275C170.348 29.199 170.192 29.0843 170.068 28.9396C169.815 28.6469 169.69 28.2146 169.69 27.643V14.3846C169.69 13.7692 169.812 13.3037 170.055 12.9882C170.176 12.8324 170.332 12.708 170.511 12.6258C170.689 12.5436 170.885 12.506 171.082 12.5163C171.54 12.5163 171.893 12.6663 172.141 12.9664C172.39 13.2664 172.513 13.6933 172.512 14.2472ZM172.655 23.2714C172.655 24.4804 172.926 25.4093 173.468 26.058C173.726 26.3734 174.052 26.6253 174.423 26.794C174.793 26.9628 175.198 27.0439 175.604 27.0311C176.354 27.0311 177.003 26.6991 177.551 26.0349C178.098 25.3708 178.369 24.4196 178.364 23.1813C178.38 22.4771 178.265 21.776 178.026 21.1135C177.837 20.5864 177.503 20.1229 177.064 19.7755C176.645 19.4581 176.13 19.2914 175.604 19.3024C175.061 19.2946 174.529 19.4603 174.086 19.7755C173.615 20.1244 173.251 20.5985 173.037 21.1439C172.767 21.8201 172.637 22.5437 172.655 23.2714Z" fill="black"/>
<path d="M185.254 15.615C184.863 15.6235 184.483 15.4846 184.189 15.2257C183.893 14.967 183.746 14.5997 183.747 14.1237C183.741 13.9244 183.778 13.7262 183.857 13.5429C183.935 13.3596 184.052 13.1954 184.2 13.0618C184.484 12.7908 184.862 12.6411 185.254 12.6446C185.631 12.6408 185.997 12.7754 186.282 13.0229C186.581 13.2743 186.73 13.6392 186.729 14.1176C186.729 14.5863 186.584 14.9512 186.293 15.2123C186.011 15.4754 185.639 15.6196 185.254 15.615ZM186.729 18.7532V27.5316C186.729 28.1414 186.587 28.6016 186.303 28.9122C186.168 29.0639 186.001 29.1842 185.814 29.2649C185.628 29.3456 185.425 29.3846 185.222 29.3793C185.02 29.3853 184.819 29.3455 184.634 29.2627C184.45 29.1799 184.287 29.0563 184.157 28.9013C183.883 28.5818 183.747 28.1252 183.747 27.5316V18.8407C183.747 18.2399 183.883 17.7874 184.157 17.4833C184.29 17.3337 184.454 17.2152 184.638 17.1364C184.823 17.0575 185.022 17.0202 185.222 17.0272C185.424 17.0215 185.626 17.0593 185.812 17.138C185.999 17.2167 186.166 17.3344 186.303 17.4833C186.588 17.7882 186.73 18.2115 186.729 18.7532Z" fill="black"/>
<path d="M189.976 17.2952H190.301V15.4707C190.301 14.9841 190.314 14.6001 190.34 14.3188C190.358 14.0669 190.43 13.8219 190.553 13.6011C190.673 13.3909 190.846 13.2162 191.055 13.0951C191.276 12.9648 191.529 12.8975 191.785 12.9005C192.172 12.9034 192.541 13.0596 192.813 13.3347C193.014 13.5227 193.15 13.7705 193.2 14.0414C193.263 14.433 193.291 14.8296 193.283 15.2262V17.294H194.377C194.801 17.294 195.125 17.3962 195.35 17.6005C195.459 17.6994 195.546 17.8207 195.603 17.9562C195.661 18.0916 195.688 18.238 195.684 18.3851C195.684 18.7905 195.525 19.0743 195.209 19.2365C194.893 19.3987 194.439 19.4798 193.848 19.4798H193.291V25.0665C193.286 25.4321 193.302 25.7976 193.34 26.1612C193.361 26.3909 193.453 26.6083 193.602 26.784C193.745 26.9462 193.976 27.0273 194.296 27.0273C194.535 27.0192 194.773 26.9874 195.006 26.9324C195.236 26.8781 195.47 26.8464 195.705 26.8375C195.828 26.8393 195.95 26.8664 196.062 26.9173C196.174 26.9681 196.274 27.0416 196.356 27.1331C196.451 27.2288 196.526 27.3428 196.576 27.4683C196.626 27.5938 196.649 27.728 196.646 27.8629C196.646 28.3495 196.383 28.7241 195.859 28.9869C195.334 29.2496 194.58 29.3793 193.596 29.3761C192.665 29.3761 191.958 29.2167 191.476 28.8981C191.005 28.5919 190.667 28.1186 190.531 27.5734C190.383 27.0107 190.308 26.2577 190.307 25.3147V19.4871H189.914C189.484 19.4871 189.157 19.3837 188.93 19.1757C188.82 19.0765 188.733 18.9545 188.674 18.8182C188.616 18.6819 188.588 18.5345 188.592 18.3863C188.588 18.2372 188.618 18.0892 188.68 17.9533C188.741 17.8174 188.833 17.6972 188.947 17.6017C189.181 17.3974 189.524 17.2952 189.976 17.2952Z" fill="black"/>
<path d="M206.061 23.9496H200.223C200.217 24.5813 200.357 25.2058 200.633 25.7742C200.865 26.2639 201.233 26.677 201.692 26.965C202.132 27.2313 202.638 27.3699 203.152 27.3652C203.481 27.3681 203.808 27.3252 204.125 27.2374C204.427 27.147 204.714 27.0121 204.976 26.8373C205.245 26.6608 205.501 26.4653 205.741 26.2522C205.974 26.0454 206.277 25.7616 206.649 25.4007C206.835 25.2557 207.069 25.1843 207.304 25.2C207.576 25.1883 207.841 25.2801 208.048 25.4567C208.145 25.5495 208.22 25.6623 208.269 25.7873C208.318 25.9123 208.339 26.0465 208.331 26.1804C208.31 26.5229 208.201 26.8541 208.015 27.1426C207.765 27.5521 207.44 27.9108 207.058 28.1996C206.574 28.568 206.031 28.8517 205.452 29.0389C204.734 29.2729 203.982 29.386 203.227 29.3734C201.312 29.3734 199.822 28.8171 198.758 27.7045C197.694 26.592 197.162 25.0825 197.162 23.176C197.155 22.3271 197.288 21.4828 197.557 20.6776C197.797 19.9465 198.188 19.2738 198.704 18.7022C199.218 18.1452 199.854 17.7133 200.561 17.4397C201.342 17.1387 202.173 16.9896 203.009 17.0006C204.175 17.0006 205.175 17.2507 206.009 17.7511C206.804 18.2117 207.453 18.886 207.883 19.6972C208.286 20.4431 208.5 21.2763 208.506 22.1239C208.506 22.8877 208.291 23.3828 207.862 23.609C207.432 23.8353 206.832 23.9488 206.061 23.9496ZM200.223 22.2248H205.632C205.559 21.1861 205.284 20.4088 204.807 19.8931C204.33 19.3773 203.702 19.1199 202.922 19.1207C202.579 19.1115 202.238 19.1769 201.923 19.3123C201.608 19.4478 201.327 19.6501 201.097 19.9052C200.619 20.4275 200.329 21.2007 200.226 22.2248H200.223Z" fill="black"/>
<path d="M213.995 24.9965V27.5326C213.995 28.1497 213.854 28.6115 213.57 28.918C213.433 29.0684 213.266 29.1875 213.079 29.2673C212.892 29.347 212.69 29.3856 212.487 29.3802C212.287 29.3855 212.088 29.3464 211.905 29.2656C211.722 29.1849 211.559 29.0645 211.428 28.9131C211.15 28.6017 211.012 28.1416 211.012 27.5326V19.0764C211.012 17.7117 211.498 17.0293 212.471 17.0293C212.966 17.0293 213.323 17.1886 213.543 17.5073C213.763 17.826 213.884 18.2971 213.908 18.9207C214.19 18.391 214.56 17.9131 215.003 17.5073C215.377 17.1886 215.878 17.0293 216.505 17.0293C217.144 17.0327 217.771 17.1971 218.329 17.5073C218.919 17.8268 219.214 18.2497 219.214 18.776C219.219 18.947 219.188 19.1171 219.123 19.2754C219.058 19.4336 218.96 19.5764 218.837 19.6943C218.732 19.806 218.606 19.8957 218.466 19.9584C218.327 20.021 218.176 20.0553 218.023 20.0592C217.752 20.0205 217.486 19.9516 217.231 19.8537C216.874 19.7277 216.5 19.6583 216.122 19.6481C215.734 19.6317 215.353 19.7562 215.05 19.9984C214.744 20.2792 214.521 20.6391 214.405 21.0384C214.239 21.5718 214.133 22.1222 214.089 22.6793C214.027 23.3118 213.995 24.0842 213.995 24.9965Z" fill="black"/>
<path d="M0 20.038V19.6658L16.6179 2.92871H17.5095V11.768H34.8049L17.4025 24.6371V37.0951H16.8296L0 20.038Z" fill="#8C8DFD"/>
<path d="M44.9029 14.9993V2.62402H45.685L62.6764 19.6652V20.3549L45.685 37.3754H44.9029V28.3659H27.8994V27.7844L44.9029 14.9993Z" fill="#4E529B"/>
<line x1="80.5" y1="-3.92191e-07" x2="80.5" y2="40" stroke="#333333" stroke-opacity="0.4"/>
<defs>
<linearGradient id="paint0_linear_1064_22903" x1="111.114" y1="11.6341" x2="122.64" y2="23.552" gradientUnits="userSpaceOnUse">
<stop stop-color="#EF2F2D"/>
<stop offset="1" stop-color="#89272D"/>
</linearGradient>
<linearGradient id="paint1_linear_1064_22903" x1="99.537" y1="16.2019" x2="138.738" y2="26.7101" gradientUnits="userSpaceOnUse">
<stop stop-color="#434344"/>
<stop offset="0.29" stop-color="#404041"/>
<stop offset="0.51" stop-color="#363637"/>
<stop offset="0.71" stop-color="#262627"/>
<stop offset="0.9" stop-color="#0F0F0F"/>
<stop offset="1"/>
</linearGradient>
</defs>
</svg>
