<svg width="163" height="15" viewBox="0 0 163 15" fill="none" xmlns="http://www.w3.org/2000/svg">
<path fill-rule="evenodd" clip-rule="evenodd" d="M81.001 4C79.6723 4 78.356 4.00804 77.0525 4.02367C75.948 4.03691 75.0419 3.15227 75.0287 2.04778C75.0154 0.943293 75.9001 0.0371939 77.0045 0.0239539C78.3238 0.00813901 79.6561 0 81.001 0C82.3459 0 83.6782 0.00813901 84.9975 0.0239539C86.102 0.0371939 86.9866 0.943293 86.9734 2.04778C86.9601 3.15227 86.054 4.03691 84.9496 4.02367C83.6461 4.00804 82.3298 4 81.001 4ZM90.9144 2.14226C90.9541 1.0384 91.8811 0.175749 92.985 0.215465C95.7093 0.313484 98.3698 0.44272 100.963 0.598542C102.065 0.664799 102.906 1.61233 102.839 2.71491C102.773 3.81749 101.825 4.6576 100.723 4.59134C98.1612 4.4374 95.5328 4.30972 92.8412 4.21288C91.7373 4.17316 90.8747 3.24611 90.9144 2.14226ZM71.0877 2.14226C71.1274 3.24612 70.2647 4.17316 69.1609 4.21288C66.4693 4.30972 63.8408 4.4374 61.2791 4.59134C60.1766 4.6576 59.229 3.81749 59.1628 2.71491C59.0965 1.61233 59.9366 0.6648 61.0392 0.598543C63.6322 0.44272 66.2927 0.313484 69.017 0.215465C70.1209 0.175749 71.0479 1.0384 71.0877 2.14226ZM106.765 2.99848C106.858 1.89783 107.826 1.08095 108.927 1.17392C111.665 1.40525 114.314 1.66377 116.868 1.943C117.966 2.06303 118.759 3.05046 118.639 4.14849C118.519 5.24652 117.532 6.03934 116.434 5.91931C113.911 5.64356 111.295 5.38822 108.59 5.15973C107.489 5.06675 106.672 4.09912 106.765 2.99848ZM55.2367 2.99848C55.3297 4.09913 54.5128 5.06675 53.4122 5.15973C50.7073 5.38822 48.0909 5.64356 45.5683 5.91932C44.4703 6.03934 43.4828 5.24652 43.3628 4.14849C43.2428 3.05046 44.0356 2.06303 45.1336 1.943C47.6881 1.66377 50.3371 1.40525 53.0755 1.17392C54.1761 1.08095 55.1437 1.89783 55.2367 2.99848ZM122.562 4.62701C122.709 3.53237 123.717 2.76478 124.811 2.91254C127.584 3.28689 130.218 3.68043 132.702 4.08243C133.792 4.25886 134.533 5.28582 134.357 6.37621C134.181 7.46659 133.154 8.2075 132.063 8.03107C129.612 7.6345 127.014 7.24612 124.276 6.87659C123.182 6.72882 122.414 5.72165 122.562 4.62701ZM39.4403 4.62701C39.5881 5.72166 38.8205 6.72882 37.7259 6.87659C34.9883 7.24612 32.3898 7.6345 29.9389 8.03107C28.8485 8.2075 27.8215 7.4666 27.6451 6.37621C27.4687 5.28582 28.2096 4.25886 29.3 4.08243C31.7844 3.68043 34.4176 3.28689 37.1908 2.91254C38.2854 2.76478 39.2926 3.53237 39.4403 4.62701ZM138.238 7.0587C138.445 5.97369 139.493 5.26188 140.578 5.46882C143.497 6.02557 146.12 6.57541 148.426 7.09096C149.504 7.33196 150.183 8.40119 149.942 9.47915C149.701 10.5571 148.631 11.2356 147.553 10.9946C145.287 10.4878 142.705 9.94658 139.828 9.39799C138.743 9.19105 138.032 8.14371 138.238 7.0587ZM23.7636 7.0587C23.9705 8.14371 23.2587 9.19105 22.1737 9.39799C19.2975 9.94658 16.7152 10.4878 14.4486 10.9946C13.3706 11.2356 12.3014 10.5571 12.0604 9.47915C11.8194 8.40119 12.4979 7.33197 13.5758 7.09097C15.8818 6.57541 18.5053 6.02557 21.4243 5.46882C22.5093 5.26188 23.5566 5.97369 23.7636 7.0587ZM5.78325 8.98866C6.85056 8.70422 7.94638 9.33887 8.23083 10.4062C8.51527 11.4735 7.88063 12.5693 6.81331 12.8538C5.58635 13.1807 4.65262 13.4461 4.02908 13.6286C3.71731 13.7198 3.4831 13.7903 3.32858 13.8375C3.25131 13.8611 3.19397 13.8788 3.15682 13.8904L3.11626 13.9031L3.10618 13.9062L5.78325 8.98866L1.89587 10.0938C0.843075 10.428 0.260557 11.5524 0.594777 12.6052C0.928981 13.6579 2.05343 14.2404 3.10618 13.9062M5.78325 8.98866L1.89587 10.0938C3.18204 9.69327 4.48177 9.33551 5.78325 8.98866ZM153.771 10.4062C154.056 9.33887 155.151 8.70422 156.219 8.98866C157.478 9.32426 158.443 9.59833 159.096 9.78959C159.423 9.88522 159.672 9.96016 159.841 10.0117C159.926 10.0375 159.99 10.0575 160.034 10.0713L160.086 10.0873L160.104 10.093L160.105 10.0935C160.105 10.0935 160.106 10.0938 159.501 12C158.896 13.9062 158.896 13.9063 158.896 13.9063L158.895 13.9059L158.886 13.9031L158.845 13.8904C158.808 13.8788 158.751 13.8611 158.673 13.8375C158.519 13.7903 158.285 13.7198 157.973 13.6286C157.349 13.4461 156.416 13.1807 155.189 12.8538C154.121 12.5693 153.487 11.4735 153.771 10.4062ZM158.896 13.9063C159.949 14.2402 161.073 13.6578 161.407 12.6052C161.741 11.5524 161.158 10.4277 160.105 10.0935L159.501 12L158.896 13.9063Z" fill="#333333" fill-opacity="0.2"/>
</svg>
