<svg width="42" height="41" viewBox="0 0 42 41" fill="none" xmlns="http://www.w3.org/2000/svg">
<path d="M27.2584 15.8733C27.3399 17.8607 27.6233 21.2251 27.7596 22.8769C27.7695 22.9972 27.7537 23.1182 27.7133 23.232C27.6729 23.3458 27.6088 23.4496 27.5251 23.5367C27.4415 23.6238 27.3403 23.6921 27.2283 23.7371C27.1162 23.782 26.9959 23.8027 26.8753 23.7976C25.6529 23.7404 23.3784 23.6541 20.6575 23.6419C18.0047 23.6298 15.8104 23.7027 14.6208 23.7538C14.5006 23.7585 14.3808 23.7377 14.2693 23.6927C14.1577 23.6477 14.0569 23.5795 13.9736 23.4928C13.8903 23.406 13.8263 23.3026 13.7859 23.1893C13.7454 23.076 13.7295 22.9554 13.739 22.8355C13.874 21.1983 14.1392 17.8595 14.2255 15.8733C14.2837 14.1871 14.9963 12.5899 16.2122 11.4203C17.4282 10.2507 19.0518 9.60067 20.739 9.60799V9.60799C22.427 9.59939 24.0521 10.2488 25.2692 11.4185C26.4864 12.5883 27.1999 14.1862 27.2584 15.8733V15.8733ZM20.7304 12.7108C19.9726 12.7106 19.2317 12.9351 18.6015 13.356C17.9713 13.7768 17.48 14.3751 17.1898 15.0752C16.8996 15.7753 16.8236 16.5457 16.9713 17.289C17.119 18.0323 17.4838 18.7151 18.0196 19.251C18.5554 19.787 19.238 20.152 19.9813 20.3C20.7246 20.4479 21.495 20.3721 22.1952 20.0821C22.8953 19.7922 23.4938 19.3011 23.9148 18.671C24.3359 18.0409 24.5606 17.3001 24.5606 16.5422C24.5606 15.5267 24.1575 14.5527 23.4397 13.8343C22.722 13.1159 21.7484 12.7118 20.7329 12.7108H20.7304Z" fill="url(#paint0_linear_1066_28677)"/>
<path d="M20.7983 14.3442C21.0207 14.5995 21.1434 14.9265 21.1438 15.265C21.1398 15.4587 21.0977 15.6497 21.0199 15.8272C20.942 16.0046 20.83 16.1649 20.6901 16.299C20.5503 16.4331 20.3854 16.5383 20.2048 16.6086C20.0243 16.6789 19.8317 16.713 19.638 16.7088C19.4143 16.7102 19.1932 16.6622 18.9903 16.5682C18.7874 16.4742 18.6077 16.3366 18.4642 16.1651C18.4374 16.3005 18.4236 16.4381 18.4229 16.5762C18.4229 17.8095 19.464 18.8094 20.7485 18.8094C22.0329 18.8094 23.0729 17.8095 23.0729 16.5762C23.0729 15.3428 22.0597 14.3637 20.7983 14.3442Z" fill="#2D2F31"/>
<path d="M24.2334 12.0283C24.2038 12.0301 24.1742 12.026 24.1462 12.0162C24.1182 12.0065 24.0924 11.9912 24.0703 11.9714C24.0483 11.9516 24.0303 11.9276 24.0176 11.9009C24.0049 11.8741 23.9976 11.845 23.9962 11.8154C23.9768 11.3167 24.0668 10.295 25.3585 9.17964C26.2489 8.41214 27.4883 8.13482 29.0476 8.35376C29.0774 8.35787 29.106 8.36795 29.1317 8.38341C29.1575 8.39886 29.1798 8.41936 29.1974 8.44368C29.2151 8.468 29.2276 8.49563 29.2342 8.52491C29.2409 8.55419 29.2415 8.58451 29.2362 8.61405V8.61405C29.2258 8.6692 29.1949 8.71838 29.1498 8.75176C29.1047 8.78514 29.0487 8.80025 28.9929 8.79407C27.5735 8.59337 26.4593 8.83421 25.676 9.50805C24.5521 10.4811 24.4524 11.3532 24.4597 11.8008C24.461 11.8583 24.4399 11.9141 24.4009 11.9563C24.3618 11.9985 24.3079 12.0239 24.2505 12.027L24.2334 12.0283Z" fill="#2D2F31"/>
<path d="M28.7318 9.02531C29.0885 9.02531 29.3777 8.74704 29.3777 8.40377C29.3777 8.0605 29.0885 7.78223 28.7318 7.78223C28.3751 7.78223 28.0859 8.0605 28.0859 8.40377C28.0859 8.74704 28.3751 9.02531 28.7318 9.02531Z" fill="#2D2F31"/>
<path d="M17.4817 12.0697C17.5112 12.0717 17.5409 12.0677 17.5689 12.0581C17.5969 12.0485 17.6227 12.0334 17.6447 12.0137C17.6668 11.994 17.6848 11.9701 17.6975 11.9433C17.7102 11.9166 17.7175 11.8876 17.7189 11.858C17.7396 11.3472 17.6544 10.1832 16.3566 9.0605C15.4675 8.293 14.2268 8.01568 12.6675 8.23462C12.6378 8.23889 12.6093 8.24908 12.5837 8.26458C12.558 8.28008 12.5357 8.30058 12.5181 8.32486C12.5006 8.34913 12.488 8.3767 12.4813 8.40591C12.4746 8.43512 12.4738 8.46539 12.479 8.49491C12.4894 8.55005 12.5202 8.59924 12.5653 8.63262C12.6104 8.666 12.6665 8.68111 12.7222 8.67493C14.1417 8.47423 15.2571 8.71506 16.0391 9.38891C17.1667 10.362 17.264 11.3764 17.2494 11.8362C17.2477 11.894 17.2686 11.9502 17.3077 11.9929C17.3467 12.0356 17.4008 12.0614 17.4586 12.0648L17.4817 12.0697Z" fill="#2D2F31"/>
<path d="M13.0775 9.02531C13.4342 9.02531 13.7234 8.74704 13.7234 8.40377C13.7234 8.0605 13.4342 7.78223 13.0775 7.78223C12.7208 7.78223 12.4316 8.0605 12.4316 8.40377C12.4316 8.74704 12.7208 9.02531 13.0775 9.02531Z" fill="#2D2F31"/>
<path d="M41.5095 31.6815C41.5095 29.666 36.4617 26.4647 36.4617 26.4647L36.4033 26.4477C37.2353 23.0809 37.6634 21.5824 37.7182 19.393C37.8398 14.3927 36.5785 10.1599 33.4087 6.44887C30.4616 2.99816 25.7702 0.996094 20.759 0.996094C15.4327 0.996094 11.3276 3.02614 8.28073 6.38927C5.23384 9.7524 3.70492 13.4002 3.7925 19.337C3.81804 20.9985 4.1951 23.7876 5.00882 26.2883L4.95165 26.3053C4.95165 26.3053 0 29.4459 0 31.6219C0 32.2653 2.67591 33.0815 8.19558 33.3406L5.11707 37.9529C4.99544 38.3457 5.07085 38.8858 5.40047 39.1169C5.72543 39.3308 6.0972 39.463 6.48422 39.5025C7.06927 39.5195 7.25172 39.3504 7.46701 38.9624L10.5577 33.5814C13.8418 33.7115 15.9314 33.7809 19.6886 33.7882V39.9464C19.7105 40.3174 19.8674 40.9949 20.8636 40.9949C21.7685 40.9949 21.9242 40.36 21.9242 39.9464V33.7918C25.6766 33.7845 27.7176 33.8344 30.9956 33.7055L34.2346 38.9028C34.2936 39.0706 34.4059 39.2144 34.5544 39.3121C34.703 39.4099 34.8795 39.4563 35.0569 39.4441C35.373 39.4487 35.684 39.3644 35.9545 39.2008C36.3194 39.0378 36.3194 38.4382 36.1722 37.8945L33.1217 33.4598C38.4492 33.017 41.5095 32.1984 41.5095 31.6815ZM9.54327 31.0904C9.04765 31.0827 8.57536 30.8785 8.23026 30.5227C7.88516 30.1668 7.6955 29.6885 7.70297 29.1929C7.70297 28.1444 8.52642 27.4134 9.54327 27.4134C10.5601 27.4134 11.3836 28.1432 11.3836 29.1929C11.3907 29.6884 11.201 30.1666 10.8559 30.5223C10.5109 30.8781 10.0388 31.0824 9.54327 31.0904V31.0904ZM20.7553 31.195C20.3775 31.2066 20.0048 31.1052 19.6849 30.9037C19.3651 30.7022 19.1127 30.4098 18.96 30.064C18.8073 29.7181 18.7614 29.3346 18.828 28.9625C18.8946 28.5904 19.0708 28.2467 19.334 27.9753C19.5972 27.7039 19.9354 27.5173 20.3053 27.4393C20.6752 27.3614 21.0599 27.3956 21.4103 27.5376C21.7606 27.6796 22.0606 27.923 22.2717 28.2365C22.4829 28.55 22.5957 28.9195 22.5956 29.2975C22.6031 29.7931 22.4134 30.2714 22.0683 30.6273C21.7232 30.9831 21.251 31.1873 20.7553 31.195V31.195ZM31.9662 31.3008C31.5883 31.3124 31.2156 31.211 30.8958 31.0095C30.5759 30.808 30.3235 30.5156 30.1708 30.1698C30.0182 29.824 29.9722 29.4404 30.0389 29.0683C30.1055 28.6962 30.2817 28.3525 30.5449 28.0811C30.808 27.8098 31.1462 27.6231 31.5161 27.5452C31.886 27.4672 32.2708 27.5014 32.6211 27.6434C32.9714 27.7854 33.2714 28.0288 33.4826 28.3423C33.6938 28.6559 33.8065 29.0253 33.8065 29.4033C33.8136 29.8989 33.6239 30.377 33.2788 30.7327C32.9338 31.0885 32.4617 31.2928 31.9662 31.3008ZM34.7893 25.7544C31.2315 24.8482 25.9636 24.8932 20.7541 24.8932C15.5446 24.8932 10.6586 24.7339 6.69951 25.7544C6.10716 23.374 5.64252 20.9985 5.58292 19.1582C5.3056 10.605 11.0831 2.4946 20.7541 2.4946C30.4251 2.4946 36.396 10.6111 36.0263 19.1582C35.9107 21.8487 35.1602 24.3118 34.7893 25.7544Z" fill="url(#paint1_linear_1066_28677)"/>
<defs>
<linearGradient id="paint0_linear_1066_28677" x1="14.9566" y1="12.6306" x2="26.4824" y2="24.5481" gradientUnits="userSpaceOnUse">
<stop stop-color="#EF2F2D"/>
<stop offset="1" stop-color="#89272D"/>
</linearGradient>
<linearGradient id="paint1_linear_1066_28677" x1="3.38138" y1="17.1975" x2="42.5798" y2="27.7053" gradientUnits="userSpaceOnUse">
<stop stop-color="#434344"/>
<stop offset="0.29" stop-color="#404041"/>
<stop offset="0.51" stop-color="#363637"/>
<stop offset="0.71" stop-color="#262627"/>
<stop offset="0.9" stop-color="#0F0F0F"/>
<stop offset="1"/>
</linearGradient>
</defs>
</svg>
