<?xml version="1.0" encoding="UTF-8"?>
<svg width="206px" height="40px" viewBox="0 0 206 40" version="1.1" xmlns="http://www.w3.org/2000/svg" xmlns:xlink="http://www.w3.org/1999/xlink">
    <title>logo备份 2</title>
    <defs>
        <linearGradient x1="10.7027632%" y1="21.3007926%" x2="88.8909073%" y2="105.283436%" id="linearGradient-1">
            <stop stop-color="#EF2F2D" offset="0%"></stop>
            <stop stop-color="#89272D" offset="100%"></stop>
        </linearGradient>
        <linearGradient x1="8.14608704%" y1="41.0104033%" x2="102.578446%" y2="65.8816209%" id="linearGradient-2">
            <stop stop-color="#434344" offset="0%"></stop>
            <stop stop-color="#404041" offset="29%"></stop>
            <stop stop-color="#363637" offset="51%"></stop>
            <stop stop-color="#262627" offset="71%"></stop>
            <stop stop-color="#0F0F0F" offset="90%"></stop>
            <stop stop-color="#000000" offset="100%"></stop>
        </linearGradient>
        <linearGradient x1="8.14608704%" y1="40.9472029%" x2="102.578446%" y2="65.9932749%" id="linearGradient-3">
            <stop stop-color="#434344" offset="0%"></stop>
            <stop stop-color="#404041" offset="29%"></stop>
            <stop stop-color="#363637" offset="51%"></stop>
            <stop stop-color="#262627" offset="71%"></stop>
            <stop stop-color="#0F0F0F" offset="90%"></stop>
            <stop stop-color="#000000" offset="100%"></stop>
        </linearGradient>
    </defs>
    <g id="页面-1" stroke="none" stroke-width="1" fill="none" fill-rule="evenodd">
        <g id="orbiter_白天" transform="translate(-20.000000, -16.000000)" fill-rule="nonzero">
            <g id="logo备份-2" transform="translate(20.000000, 16.000000)">
                <path d="M73.3651094,17.8449487 C73.3698206,17.9349585 73.3949475,17.9420645 73.44049,17.8662668 C74.1032117,16.7782535 74.958311,16.1134442 76.0057881,15.8718389 C76.8616727,15.674449 77.7120608,15.7541945 78.5569523,16.1110755 C79.4065552,16.4711147 80.0724177,17.0869713 80.5545398,17.9586453 C80.9801264,18.7260973 81.2588778,19.5464499 81.390794,20.4197029 C81.5179989,21.2550571 81.5627561,22.1117294 81.5250658,22.9897199 C81.4763825,24.0745749 81.2101945,25.0891592 80.7265019,26.0334726 C80.1250271,27.2099166 79.3084033,28.0002659 78.2766305,28.4045205 C77.0988077,28.8672025 75.855812,28.7606119 74.5476435,28.0847488 C74.1173455,27.862093 73.7938369,27.5083702 73.5771175,27.0235805 C73.538141,26.9350816 73.4801711,26.8740586 73.4263561,26.864879 C73.3352712,26.8475087 73.2991513,26.943835 73.3179964,27.1538579 C73.3823841,27.8628825 73.0871432,28.3066151 72.4322737,28.4850556 C71.6549106,28.6966576 71.0872,28.563222 70.7291419,28.0847488 C70.5171338,27.8005073 70.4111297,27.3109803 70.4111297,26.6161677 C70.4111297,22.0872531 70.4111297,17.5583385 70.4111297,13.0294239 C70.4111297,12.4562035 70.5132077,12.026683 70.7173637,11.7408624 C71.0628584,11.2608101 71.5473361,11.0878965 72.170797,11.2221216 C72.5901019,11.3121315 72.8971211,11.5095214 73.0918545,11.8142914 C73.2740244,12.0937956 73.3509755,12.4198838 73.3227077,12.792556 C73.3022921,13.0499524 73.2920843,13.1881254 73.2920843,13.2070748 C73.2622462,14.7893525 73.2865878,16.3353105 73.3651094,17.8449487 Z M73.6948997,20.057295 C73.2331932,21.28585 73.1334709,22.5475664 73.3957328,23.8424444 C73.5496349,24.5972635 73.7828438,25.1617987 74.0953595,25.53605 C74.5413617,26.0697924 75.1585409,26.3121872 75.946897,26.2632345 C77.2644881,26.1811203 78.0818971,25.4649896 78.3991241,24.1148425 C78.7022171,22.8325975 78.6904389,21.5550898 78.3637894,20.2823195 C78.0999571,19.2590501 77.475711,18.622665 76.4910511,18.3731641 C75.7796461,18.1915654 75.1679635,18.2815752 74.6560032,18.6431935 C74.2665364,18.9179603 73.9461686,19.3893275 73.6948997,20.057295 Z" id="形状" fill="#000000"></path>
                <ellipse id="椭圆形" fill="#000000" cx="85.3953916" cy="13.2402363" rx="1.54059224" ry="1.54911619"></ellipse>
                <ellipse id="椭圆形" fill="#000000" cx="141.047519" cy="13.2449737" rx="1.54059224" ry="1.54911619"></ellipse>
                <path d="M57.3231626,14.8627816 C57.9670391,15.8323609 58.3839884,16.9677478 58.5740105,18.2689422 C58.8582584,20.2096801 58.7813073,21.9861894 58.3431572,23.5984704 C57.7573867,25.7555476 56.5827047,27.2517633 54.8191113,28.0871175 C53.4449847,28.7377147 51.9106742,28.9256299 50.2161798,28.6508631 C47.2119464,28.1644943 45.3502011,26.2190192 44.630944,22.8144376 C44.2995832,21.2416346 44.287805,19.666463 44.5956093,18.0889226 C44.9348223,16.3455747 45.5457197,14.987532 46.4283016,14.0147944 C47.4836309,12.8509834 48.9213599,12.1766994 50.7414888,11.9919424 C52.1878552,11.8450843 53.4991646,12.0416846 54.675417,12.5817435 C55.7668661,13.0839035 56.649448,13.8442495 57.3231626,14.8627816 Z M54.2325556,15.5283804 C53.6734824,14.9977963 53.0594441,14.6874993 52.3904407,14.5974895 C50.713221,14.3716754 49.4458837,14.802775 48.5884287,15.8907883 C47.9806721,16.6598195 47.5990575,17.7407268 47.4435849,19.1335101 C47.31638,20.268897 47.3752712,21.4413932 47.6202583,22.6509987 C47.8825202,23.9490349 48.480069,24.9067709 49.4129046,25.5242066 C50.3111908,26.1179555 51.3194072,26.3169246 52.4375536,26.1211138 C53.4159318,25.9489897 54.1956505,25.4578836 54.7767097,24.6477953 C55.211719,24.0382552 55.5140268,23.2179026 55.6836333,22.1867376 C55.9301909,20.6865741 55.8618771,19.1808837 55.4786921,17.6696664 C55.266684,16.831154 54.8513052,16.117392 54.2325556,15.5283804 Z" id="形状" fill="#000000"></path>
                <g id="logo_black-(3)">
                    <path d="M26.9019289,14.8771501 C26.9823616,16.8647094 27.2620504,20.2291098 27.3965654,21.8809591 C27.4063358,22.0012627 27.3907427,22.1222663 27.3508718,22.2360697 C27.3110008,22.3498731 27.2476416,22.4536762 27.1651363,22.5407788 C27.0826311,22.6278814 26.9827564,22.6961835 26.8722231,22.7411848 C26.7615911,22.7860862 26.6428665,22.8067868 26.5238459,22.8016866 C25.3174539,22.7445849 23.0727398,22.6581823 20.3873729,22.645982 C17.7693128,22.6338816 15.6038471,22.7068838 14.4298256,22.7578853 C14.3111997,22.7625855 14.1929686,22.7417848 14.08283,22.6967835 C13.9727902,22.6517822 13.8733102,22.5835801 13.7911011,22.4968775 C13.7088919,22.4100749 13.6457301,22.3066719 13.6058591,22.1933685 C13.5658895,22.0800651 13.5501977,21.9594615 13.5595733,21.8395579 C13.6928054,20.202309 13.9545325,16.8634094 14.0397023,14.8771501 C14.0971401,13.1908997 14.8004082,11.5936521 16.0003853,10.4240172 C17.2004611,9.25438224 18.8027991,8.60434284 20.4678056,8.61158852 L20.4678056,8.61158852 C22.1337989,8.6030628 23.7376173,9.25248219 24.9387787,10.4223171 C26.1400387,11.592052 26.844195,13.1899997 26.9019289,14.8771501 L26.9019289,14.8771501 Z M20.4594169,11.7145555 C19.7115407,11.7143557 18.9803432,11.9388624 18.3583961,12.3597749 C17.7363502,12.7805875 17.2515827,13.3789054 16.9651831,14.0790263 C16.6787834,14.7791472 16.6037787,15.5495702 16.7495445,16.2928923 C16.8953102,17.0362145 17.255333,17.7190349 17.7841164,18.2550509 C18.3128011,18.7909669 18.9865607,19.1559778 19.7201268,19.3039822 C20.4535941,19.4518866 21.214004,19.3760844 21.9050345,19.0860757 C22.5959663,18.7961671 23.1866286,18.3050524 23.6021153,17.6749336 C24.0177008,17.0448148 24.2394582,16.3039927 24.2394582,15.5461701 C24.2394582,14.5305397 23.841637,13.5566107 23.133237,12.8380892 C22.4249357,12.1196678 21.4640856,11.7155557 20.4618841,11.7145555 L20.4594169,11.7145555 Z" id="形状" fill="url(#linearGradient-1)"></path>
                    <path d="M20.5269211,13.3490045 C20.7464087,13.6042121 20.8675019,13.9313218 20.8677979,14.269832 C20.863949,14.4635377 20.8224003,14.6545434 20.7456192,14.8319487 C20.6687393,15.009454 20.558206,15.1697588 20.4201381,15.3038628 C20.2821688,15.4379668 20.1194283,15.54317 19.9411934,15.6134721 C19.7630571,15.6837742 19.5728806,15.7178752 19.3817172,15.7136751 C19.1610454,15.7150751 18.9428409,15.6670737 18.7424993,15.5730709 C18.5422563,15.4790681 18.3650083,15.3413639 18.2233875,15.1699588 C18.1969385,15.3053629 18.1833192,15.442967 18.1825297,15.5810711 C18.1825297,16.8144079 19.2100946,17.8142378 20.4776746,17.8142378 C21.7453533,17.8142378 22.7716352,16.8144079 22.7716352,15.5810711 C22.7716352,14.3476343 21.7717037,13.368505 20.5269211,13.3490045 Z" id="路径" fill="url(#linearGradient-2)"></path>
                    <path d="M23.9165431,11.0325353 C23.8873307,11.0343354 23.8581183,11.0302353 23.830485,11.020435 C23.8028517,11.0107347 23.7773895,10.9954342 23.755579,10.9756336 C23.7337684,10.955833 23.7161028,10.9318323 23.7035691,10.9051315 C23.6910354,10.8783307 23.683831,10.8492298 23.6824493,10.819629 C23.6633034,10.3209141 23.7521248,9.29918358 25.0269092,8.18379029 C25.9056489,7.41626738 27.1288183,7.1389391 28.6676983,7.35788563 C28.6971081,7.36199576 28.7253335,7.37207606 28.750697,7.38753652 C28.7761591,7.40298698 28.7981671,7.42348759 28.8155366,7.44780832 C28.8329061,7.47212904 28.8453411,7.49975987 28.8518547,7.52904074 C28.858467,7.55832162 28.8590591,7.58864252 28.8538285,7.6181834 L28.8538285,7.6181834 C28.8435647,7.67333505 28.8130694,7.72251652 28.76856,7.75589751 C28.7240506,7.78927851 28.6687839,7.80438896 28.6137147,7.79820878 C27.2128038,7.59750279 26.1132936,7.83834997 25.3402514,8.51221009 C24.2310695,9.48528914 24.1326751,10.3574152 24.1398795,10.8050285 C24.1411625,10.8625302 24.1203388,10.9183319 24.0818496,10.9605332 C24.0432616,11.0027344 23.9900674,11.0281352 23.9333204,11.0312353 L23.9165431,11.0325353 Z" id="路径" fill="#2D2F31"></path>
                    <path d="M28.3560339,8.02945568 C28.7080627,8.02945568 28.9934755,7.75117737 28.9934755,7.40789713 C28.9934755,7.06461688 28.7080627,6.78633857 28.3560339,6.78633857 C28.0040051,6.78633857 27.7185923,7.06461688 27.7185923,7.40789713 C27.7185923,7.75117737 28.0040051,8.02945568 28.3560339,8.02945568 Z" id="路径" fill="#2D2F31"></path>
                    <path d="M17.2532605,11.0739366 C17.2823742,11.0759366 17.3116852,11.0719365 17.3393185,11.0623362 C17.3668532,11.0527359 17.3923153,11.0376355 17.4141259,11.0179349 C17.4359365,10.9982343 17.4536021,10.9743336 17.4662345,10.9475328 C17.4787681,10.920832 17.4859725,10.8918311 17.4873542,10.8622302 C17.5077831,10.351415 17.4236989,9.18738024 16.1428943,8.06464673 C15.2654376,7.29712382 14.0409853,7.01979554 12.5021052,7.23874208 C12.4727942,7.2430122 12.4446674,7.25320251 12.4193039,7.26870297 C12.3940392,7.28420343 12.3720312,7.30470405 12.3546617,7.32898477 C12.3372922,7.35325549 12.3249559,7.38082632 12.3183436,7.41003719 C12.3117314,7.43924806 12.3109418,7.46951897 12.3160737,7.49903985 C12.3262388,7.55418149 12.3567342,7.60337296 12.4012436,7.63675396 C12.445753,7.67013495 12.5010196,7.6852454 12.5560889,7.67906522 C13.9569997,7.47835923 15.0576942,7.71919642 15.8295522,8.39306653 C16.9423856,9.36618558 17.0384114,10.3806159 17.0240026,10.8404296 C17.0223248,10.8982313 17.0429511,10.954433 17.0814404,10.9971343 C17.1200284,11.0398355 17.1734199,11.0656363 17.230463,11.0690364 L17.2532605,11.0739366 Z" id="路径" fill="#2D2F31"></path>
                    <path d="M12.906736,8.02945568 C13.2587648,8.02945568 13.5441776,7.75117737 13.5441776,7.40789713 C13.5441776,7.06461688 13.2587648,6.78633857 12.906736,6.78633857 C12.5547072,6.78633857 12.2692945,7.06461688 12.2692945,7.40789713 C12.2692945,7.75117737 12.5547072,8.02945568 12.906736,8.02945568 Z" id="路径" fill="#2D2F31"></path>
                    <path d="M40.9659091,30.686322 C40.9659091,28.6707618 35.984213,25.4693663 35.984213,25.4693663 L35.9265777,25.4523658 C36.7476822,22.0854653 37.170176,20.5869205 37.2242584,18.3974552 C37.3442659,13.3970059 36.0994834,9.16407955 32.9711938,5.45293877 C30.0626877,2.00212576 25.4327243,0 20.4871489,0 C15.2305999,0 11.1792585,2.0301066 8.17228905,5.39333699 C5.16529984,8.75656738 3.65640193,12.4044763 3.74283502,18.3414535 C3.76804056,20.0030031 4.14016274,22.7921863 4.94322661,25.292961 L4.88680528,25.3099615 C4.88680528,25.3099615 0,28.4506553 0,30.6267202 C0,31.2701394 2.64086741,32.0863638 8.08825414,32.3454715 L5.05005901,36.9579092 C4.93002182,37.3507209 5.00444429,37.890837 5.32974772,38.1219439 C5.65045218,38.3358503 6.01735364,38.4680543 6.39930539,38.5075555 C6.97669382,38.524556 7.15675453,38.3554509 7.36922519,37.9674393 L10.4194408,32.5862787 C13.6605336,32.7163826 15.7227691,32.7857847 19.4307664,32.7930849 L19.4307664,38.9514687 C19.4523796,39.3224798 19.6072249,40 20.5903791,40 C21.4834289,40 21.6370899,39.365081 21.6370899,38.9514687 L21.6370899,32.796685 C25.3403501,32.7893848 27.354622,32.8392863 30.5896947,32.7103824 L33.7862781,37.9078375 C33.8445055,38.0756426 33.9553348,38.2194469 34.1018901,38.3171498 C34.2485441,38.4149527 34.4227328,38.4613541 34.5978096,38.4491537 C34.9097701,38.4537538 35.2166974,38.3694513 35.483655,38.2058464 C35.8437765,38.0428416 35.8437765,37.4432237 35.6985041,36.8995075 L32.6879522,32.4646751 C37.9456855,32.0218619 40.9659091,31.2032374 40.9659091,30.686322 Z M9.41829536,30.0952043 C8.92916579,30.0875041 8.4630607,29.883298 8.12247999,29.5274874 C7.78189927,29.1715768 7.59472298,28.6932625 7.60209515,28.1976477 C7.60209515,27.1491164 8.4147616,26.4180946 9.41829536,26.4180946 C10.4218094,26.4180946 11.2345252,27.1479164 11.2345252,28.1976477 C11.2415322,28.6931625 11.0543164,29.1713768 10.7137357,29.5270874 C10.3732537,29.882898 9.90733611,30.0872041 9.41829536,30.0952043 L9.41829536,30.0952043 Z M20.4834973,30.1998075 C20.1106449,30.2114078 19.7428256,30.1100048 19.4271148,29.9084988 C19.1115028,29.7069928 18.8624081,29.414584 18.7117078,29.0687737 C18.5610075,28.7228634 18.5157086,28.3393519 18.5814365,27.9672408 C18.6471643,27.5951297 18.8210568,27.2514195 19.0808101,26.9800114 C19.3405633,26.7086033 19.6743344,26.5219977 20.0393904,26.4439954 C20.4044463,26.366093 20.7841084,26.400294 21.1299197,26.5422983 C21.4756324,26.6843025 21.7717037,26.9277098 21.9800392,27.2412192 C22.1884734,27.5547285 22.2997962,27.9242395 22.2996976,28.3022508 C22.3070993,28.7978656 22.1198836,29.2761799 21.7793028,29.6320905 C21.4387221,29.9879011 20.9727059,30.1921072 20.4834973,30.1998075 L20.4834973,30.1998075 Z M31.5475841,30.3056106 C31.1746329,30.317211 30.8068137,30.2158079 30.4912016,30.0143019 C30.1754909,29.8127959 29.9263962,29.5203872 29.7756959,29.1745769 C29.6250943,28.8287665 29.5796967,28.4451551 29.6455232,28.073044 C29.7112511,27.7009329 29.8851436,27.3572226 30.1448969,27.0858145 C30.4045514,26.8145064 30.7383225,26.6278008 31.1033784,26.5498985 C31.4684344,26.4718962 31.8481952,26.5060972 32.1939078,26.6481014 C32.5396204,26.7901057 32.8356918,27.033513 33.044126,27.3470223 C33.2525602,27.6606317 33.3637843,28.0300427 33.3637843,28.408054 C33.3707914,28.9036688 33.1835756,29.381783 32.8429949,29.7374937 C32.5025128,30.0933043 32.0365953,30.2976104 31.5475841,30.3056106 Z M34.333714,24.7590451 C30.8225054,23.852818 25.6235916,23.8978193 20.4823131,23.8978193 C15.3410345,23.8978193 10.5190195,23.7385146 6.61177604,24.7590451 C6.02718321,22.378574 5.56862794,20.0030031 5.50980843,18.1626482 C5.2361201,9.60919283 10.9379604,1.49855073 20.4823131,1.49855073 C30.0266657,1.49855073 35.9193733,9.61529302 35.5545148,18.1626482 C35.4404286,20.8532285 34.6997568,23.316402 34.333714,24.7590451 Z" id="形状" fill="url(#linearGradient-3)"></path>
                </g>
                <path d="M130.376445,21.5400882 L130.362311,27.5494273 C130.362311,27.9094665 130.203697,28.1700212 129.88647,28.3310914 C129.321116,28.6184912 128.739271,28.649284 128.140937,28.4234699 C127.855119,28.3160898 127.663526,28.1558092 127.56616,27.942628 C127.467222,27.731026 127.417754,27.4673131 127.417754,27.1514892 C127.417754,22.6715273 127.414613,18.1907758 127.408322,13.7092348 C127.406761,13.1265397 127.613272,12.7380763 128.027866,12.5438446 C128.22417,12.4522557 128.60814,12.4064612 129.179777,12.4064612 C131.497732,12.4064612 133.815687,12.4064612 136.133643,12.4064612 C136.717843,12.4064612 137.075901,12.7017566 137.207817,13.2923473 C137.366431,13.9950554 137.215669,14.4798451 136.755533,14.7467163 C136.519969,14.8840997 136.094382,14.9527914 135.478773,14.9527914 C133.859659,14.9527914 132.198144,14.9527914 130.494227,14.9527914 C130.421372,14.9527914 130.362311,15.012179 130.362311,15.0854374 L130.362311,18.6005573 C130.362311,18.6539554 130.383407,18.7051664 130.420957,18.7429246 C130.458507,18.7806827 130.509437,18.8018951 130.562541,18.8018951 C132.175373,18.8018951 133.737951,18.8161071 135.250276,18.8445313 C136.21452,18.8619016 136.646388,19.3806423 136.545881,20.4007535 C136.514472,20.7260521 136.391979,20.9676574 136.1784,21.1255693 C136.038632,21.2297912 135.799141,21.292956 135.459928,21.3150637 C133.807835,21.4208647 132.153387,21.4571844 130.496583,21.4240229 C130.46493,21.4233857 130.434355,21.4353321 130.411753,21.457168 C130.389151,21.4790039 130.376425,21.5088906 130.376445,21.5400882 L130.376445,21.5400882 Z" id="路径" fill="#000000"></path>
                <path d="M94.047678,18.7592588 C94.0117151,18.7566218 93.9762862,18.7691741 93.9499107,18.7938975 C93.9235351,18.8186209 93.9085994,18.8532784 93.9086949,18.8895362 C93.9086949,20.5286622 93.894561,22.1377849 93.8662932,23.7169044 C93.8553002,24.3122324 93.9134061,24.8980857 94.040611,25.4744643 C94.1018578,25.7539685 94.2730347,25.9181969 94.5541418,25.9671496 C95.3597726,26.1061121 96.0923784,25.9331985 96.7519591,25.4484089 C97.0786087,25.2083827 97.3707087,25.2439129 97.6282593,25.5549994 C97.8983733,25.8818772 97.9501975,26.3137663 97.7837319,26.8506669 C97.6580975,27.2549215 97.4468746,27.585747 97.1500632,27.8431435 C96.91921,28.0436917 96.5807822,28.2079201 96.13478,28.3358288 C95.0998663,28.6327033 94.1073543,28.6674439 93.1572439,28.4400507 C92.2134152,28.2142366 91.5836726,27.6954959 91.2680161,26.8838284 C91.1156844,26.4969442 91.0363776,25.747652 91.0300959,24.6359519 C91.0191029,22.8420722 91.0167472,20.9905546 91.023029,19.0813992 C91.023874,18.9880272 90.9831723,18.8991621 90.9120583,18.8391142 C90.8409444,18.7790663 90.7468618,18.7541209 90.6555482,18.7711022 C90.2692224,18.8437417 89.9378615,18.8200549 89.6614658,18.7000418 C89.3866405,18.5816079 89.2076114,18.3415817 89.1243786,17.9799634 C89.0474275,17.6467692 89.0372197,17.3104167 89.0937552,16.970906 C89.1534316,16.6077086 89.3222528,16.362945 89.600219,16.2366155 C89.8828965,16.1102859 90.2142573,16.0834409 90.5943015,16.1560804 C90.6995206,16.1771017 90.8087813,16.1454498 90.8934474,16.0694205 C90.9781136,15.9933912 91.0297441,15.8805645 91.0348072,15.760511 L91.0913427,14.3298287 C91.107047,13.9129412 91.377161,13.6508074 91.9016848,13.5434273 C93.4658335,13.2244451 94.1348368,13.8521451 93.9086949,15.4265272 C93.8317438,15.9602696 94.0037059,16.2081913 94.4245813,16.1702925 C94.6664275,16.1481848 94.7952028,16.137131 94.8109071,16.137131 C95.3307196,16.137131 95.9102084,16.137131 96.5493736,16.137131 C96.9545447,16.137131 97.2466447,16.3203088 97.4256738,16.6866645 C97.5607308,16.9645896 97.6070585,17.2993629 97.5646569,17.6909845 C97.528537,18.0431282 97.4115399,18.3099993 97.2136657,18.4915981 C96.9843828,18.701621 96.6875715,18.8097907 96.3232316,18.8161071 C95.5521503,18.8287401 94.7936324,18.8097907 94.047678,18.7592588 Z" id="路径" fill="#000000"></path>
                <path d="M64.2817398,18.2807856 C64.7308829,17.4154282 65.2868153,16.725353 65.9495369,16.21056 C66.2997429,15.9389515 66.7449599,15.7810395 67.285188,15.7368242 C67.905508,15.6862924 68.2839817,15.9531635 68.4206092,16.5374377 C68.5462436,17.0711801 68.4842116,17.5259665 68.2345132,17.901797 C68.0774701,18.1386649 67.8583951,18.2602571 67.5772881,18.2665736 C65.9471813,18.3060515 64.8894964,19.0569228 64.4042334,20.5191875 C64.2943033,20.8476443 64.2338417,21.3411191 64.2228487,21.999612 C64.1882992,23.7887543 64.1702393,25.5771071 64.1686688,27.3646703 C64.1686688,27.6804942 64.1042812,27.9142039 63.9755059,28.0657994 C63.8137516,28.2584519 63.5883948,28.3926771 63.2994356,28.4684748 C62.4749596,28.6879724 61.8483579,28.4740017 61.4196304,27.8265628 C61.3782686,27.7663658 61.3560657,27.6911198 61.356028,27.611013 C61.3387532,24.121159 61.3340419,20.6320945 61.3418941,17.1438196 C61.3434645,16.685875 61.5358422,16.3676824 61.9190273,16.1892419 C62.4702483,15.9318454 62.9971277,15.9144751 63.4996655,16.137131 C63.7980473,16.2681979 64.0022032,16.4719043 64.1121333,16.7482502 C64.2252043,17.0340708 64.2440495,17.3435782 64.1686688,17.6767724 C64.1184151,17.8994283 64.1231264,18.0999765 64.1828027,18.278417 C64.2095,18.3573729 64.2424791,18.3581625 64.2817398,18.2807856 Z" id="路径" fill="#000000"></path>
                <path d="M100.716511,17.5370204 C101.682325,16.3874214 102.926106,15.7826186 104.447853,15.7226121 C105.938192,15.6641847 107.130934,16.1039695 108.026079,17.0419664 C108.658963,17.7036175 109.104965,18.5776601 109.364086,19.6640943 C109.612214,20.7110505 109.603576,21.7264243 109.338174,22.7102157 C109.203117,23.2092175 108.854481,23.4374002 108.292267,23.394764 C107.968758,23.3710772 107.800722,23.3592338 107.788159,23.3592338 C105.944474,23.3418635 104.100788,23.3560756 102.257103,23.40187 C102.189248,23.4042172 102.134773,23.4569265 102.132254,23.5226727 C102.061584,25.0149406 102.716454,25.9087222 104.096862,26.2040175 C105.287248,26.4582558 106.324518,26.1613813 107.20867,25.3133941 C107.491348,25.0417856 107.746542,24.8925588 107.974255,24.8657138 C108.490926,24.8057072 108.881964,25.0196779 109.147366,25.5076258 C109.389213,25.9529375 109.318543,26.4243047 108.935358,26.9217273 C108.217672,27.8597243 107.274628,28.4416298 106.106228,28.6674439 C105.269188,28.8285141 104.444713,28.8403575 103.6328,28.7029741 C102.754929,28.5545368 102.00976,28.2426607 101.397292,27.7673458 C100.469168,27.0456882 99.8378549,26.0113649 99.5033532,24.664376 C99.1327316,23.1752664 99.1327316,21.6356249 99.5033532,20.0454516 C99.7310656,19.0648184 100.135451,18.2286747 100.716511,17.5370204 Z M102.619872,19.2685249 C102.257103,19.8227958 102.081215,20.4023326 102.092208,21.0071354 C102.09482,21.1291202 102.191464,21.2262995 102.308927,21.2250657 L106.280546,21.2013671 C106.597773,21.199788 106.735185,21.0363491 106.692784,20.7110505 C106.46193,18.9440158 105.616254,18.14735 104.155753,18.3210532 C103.494602,18.39843 102.982642,18.7142539 102.619872,19.2685249 Z" id="形状" fill="#000000"></path>
                <path d="M115.008213,17.8875849 C115.256341,17.399637 115.726685,16.8603677 116.419244,16.269777 C116.758457,15.9823773 117.184044,15.807095 117.696004,15.7439302 C118.120021,15.6918193 118.450596,15.7897247 118.687731,16.0376464 C118.880894,16.2413529 118.989254,16.527963 119.01281,16.897477 C119.036367,17.254358 118.967268,17.5678132 118.805513,17.8378426 C118.640618,18.1141885 118.397987,18.2563093 118.077619,18.2642049 C116.642246,18.3036829 115.637955,18.9219081 115.064748,20.1188807 C114.761655,20.7552658 114.622672,21.6585222 114.647799,22.8286497 C114.680778,24.2893352 114.697268,25.7500207 114.697268,27.2107062 C114.697268,27.9118352 114.409879,28.3397766 113.835101,28.4945303 C113.133119,28.6824455 112.581898,28.5537473 112.181438,28.1084356 C111.985134,27.888938 111.885412,27.5660081 111.882271,27.1396458 C111.861855,23.8613938 111.861855,20.5831418 111.882271,17.3048898 C111.883841,16.8864232 111.981208,16.5840218 112.174371,16.3976857 C112.416217,16.163976 112.742082,16.0329091 113.151964,16.0044849 C114.329787,15.9223707 114.840177,16.5169092 114.683134,17.7881004 C114.603042,18.4434349 114.711401,18.4765964 115.008213,17.8875849 Z" id="路径" fill="#000000"></path>
                <path d="M148.392423,17.8710041 C148.45681,17.8378426 148.51256,17.7730987 148.559673,17.6767724 C148.936577,16.9140577 149.486227,16.3763676 150.208625,16.0637019 C150.814811,15.8015681 151.534069,15.721033 152.366397,15.8220966 C153.922693,16.0100118 154.964674,16.7758848 155.492338,18.1197154 C155.738896,18.748205 155.862175,19.8899084 155.862175,21.5448256 C155.862175,23.4997754 155.862175,25.4926242 155.862175,27.5233718 C155.862175,27.8644616 155.717695,28.1242268 155.428736,28.3026673 C154.960748,28.590067 154.434654,28.6524422 153.850453,28.4897929 C153.415444,28.3682007 153.153182,28.1242268 153.063668,27.7578711 C153.044823,27.6836525 153.0354,27.3575643 153.0354,26.7796066 C153.03697,24.9494071 153.042467,23.1192077 153.05189,21.2890082 C153.05346,20.8910701 153.022837,20.4970798 152.960019,20.1070373 C152.884639,19.6317223 152.748797,19.2669457 152.552493,19.0127075 C152.14261,18.4837025 151.513653,18.2507824 150.665621,18.3139471 C149.12974,18.4260646 148.357088,19.2401007 148.347665,20.7560554 C148.331961,23.0268292 148.324109,25.2604936 148.324109,27.4570488 C148.324109,27.9181517 148.10896,28.2300278 147.678662,28.3926771 C146.780376,28.7306087 146.080749,28.5426934 145.579782,27.8289314 C145.535441,27.7673955 145.511528,27.6911146 145.511468,27.611013 L145.497334,17.0159109 C145.497334,16.7269321 145.613546,16.4963806 145.84597,16.3242566 C146.133358,16.1094964 146.471786,15.9950102 146.861253,15.9807981 C147.247579,15.9681652 147.57894,16.0542272 147.855335,16.2389842 C148.334317,16.5579663 148.485863,17.0735488 148.309975,17.7857317 C148.284848,17.8867953 148.312331,17.9152195 148.392423,17.8710041 Z" id="路径" fill="#000000"></path>
                <path d="M166.241149,17.5938687 C166.128078,16.6637673 166.486137,16.1418683 167.315324,16.0281717 C167.835136,15.9586905 168.264649,16.0526481 168.603862,16.3100445 C168.894392,16.5311213 169.063998,16.8390496 169.112681,17.2338294 C169.112681,17.2369877 169.112681,17.5733401 169.112681,18.2428868 C169.112681,21.2116314 169.112681,24.1811655 169.112681,27.1514892 C169.112681,28.0942235 168.621922,28.5640116 167.640403,28.5608533 C166.647891,28.5576951 166.156346,28.0721158 166.165769,27.1041156 C166.167339,27.0677959 166.174406,27.0220014 166.18697,26.9667322 C166.221519,26.8230324 166.169695,26.8048725 166.031497,26.9122526 C165.996948,26.9406768 165.97025,26.9777861 165.951405,27.0235805 C165.654594,27.7278678 165.192102,28.1802855 164.56393,28.3808337 C162.827034,28.9335255 161.368104,28.735346 160.18714,27.7862952 C159.23703,27.0235805 158.579019,25.8724024 158.213109,24.332761 C157.806368,22.614679 157.893527,20.8618564 158.474586,19.0742932 C159.104328,17.1367136 160.433698,16.0518585 162.462694,15.819728 C164.044117,15.6381292 165.232933,16.2531962 166.029141,17.664929 C166.217593,17.9997024 166.288262,17.9760156 166.241149,17.5938687 Z M161.690042,19.2685249 C161.319421,19.7675266 161.090923,20.328114 161.004549,20.9502871 C160.893049,21.7587962 160.885982,22.5617785 160.983348,23.3592338 C161.085426,24.1930089 161.299005,24.8333418 161.624084,25.2802326 C162.08265,25.9103013 162.733593,26.2379686 163.576914,26.2632345 C164.589842,26.2948169 165.302032,25.9284612 165.713485,25.1641674 C165.972606,24.684115 166.146138,23.9814069 166.234083,23.0560429 C166.339301,21.947501 166.179903,20.8744893 165.755886,19.8370079 C165.570576,19.3838006 165.356997,19.0506064 165.115151,18.8374252 C164.807346,18.5626585 164.432014,18.3936927 163.989152,18.3305279 C163.023338,18.1915654 162.256967,18.504231 161.690042,19.2685249 Z" id="形状" fill="#000000"></path>
                <path d="M174.563645,17.7881004 C174.913851,17.0111736 175.43916,16.4521653 176.139572,16.1110755 C176.728484,15.8220966 177.440674,15.7202434 178.276143,15.8055159 C179.909391,15.9697443 180.992988,16.7466711 181.526934,18.1362962 C181.773491,18.7805769 181.894415,19.9886033 181.889703,21.7603754 C181.884992,23.6553187 181.873999,25.5510516 181.856724,27.4475741 C181.852013,28.0271109 181.58661,28.3729381 181.060516,28.4850556 C180.71031,28.5592742 180.360104,28.5576951 180.009898,28.4803182 C179.367592,28.3397766 179.048009,27.9757896 179.05115,27.3883571 C179.060573,25.6118477 179.083344,23.8353383 179.119464,22.0588289 C179.13988,21.0450342 179.058217,20.2009949 178.874477,19.5267109 C178.709582,18.9266455 178.358591,18.5516046 177.821503,18.4015883 C177.4446,18.2957873 176.977397,18.2555197 176.419894,18.2807856 C175.620545,18.3155263 175.034775,18.6913567 174.662583,19.4082769 C174.417595,19.8804336 174.301384,20.5270831 174.313947,21.3482252 C174.345356,23.3063333 174.354778,25.265231 174.342215,27.2249183 C174.340644,27.630752 174.243278,27.9347324 174.050115,28.1368597 C173.663789,28.5395352 173.132198,28.6500736 172.455343,28.4684748 C171.966939,28.3374079 171.669342,28.0760636 171.562553,27.684442 C171.538996,27.5960113 171.527218,27.2399199 171.527218,26.6161677 C171.527218,23.8432339 171.527218,21.0703002 171.527218,18.2973664 C171.527218,17.4256924 171.530359,16.9740643 171.536641,16.9424819 C171.649712,16.3866318 172.058024,16.0739662 172.761577,16.0044849 C173.964526,15.8828927 174.495332,16.4205829 174.353993,17.6175555 C174.339859,17.7328312 174.357134,17.8125767 174.405817,17.8567921 C174.427127,17.8757086 174.457953,17.8788874 174.489009,17.865371 C174.520064,17.8518546 174.54772,17.823223 174.563645,17.7881004 L174.563645,17.7881004 Z" id="路径" fill="#000000"></path>
                <path d="M186.937852,16.5161196 C188.09997,15.8134115 189.446614,15.5994408 190.977784,15.8742076 C191.750436,16.0147492 192.456344,16.3124132 193.09551,16.7671996 C193.868161,17.3167332 194.197167,18.014704 194.082525,18.861112 C194.030701,19.2385216 193.775506,19.5346065 193.31694,19.7493667 C192.787705,19.9957094 192.331495,19.8425348 191.94831,19.289843 C191.615379,18.8129489 191.159954,18.5058102 190.582036,18.3684268 C190.062223,18.2452554 189.543981,18.27289 189.02731,18.4513305 C188.249947,18.7182017 187.680665,19.2677353 187.319466,20.0999313 C186.658315,21.6158859 186.640255,23.0734132 187.265287,24.472513 C187.527549,25.0567872 187.939001,25.5139423 188.499645,25.8439783 C189.046155,26.1676978 189.612295,26.2971856 190.198065,26.2324417 C190.885914,26.1566439 191.52822,25.846347 192.124984,25.3015508 C192.522302,24.9383533 193.000499,24.8996648 193.559572,25.1854855 C194.366773,25.5992148 194.531668,26.2071758 194.054257,27.0093684 C193.84539,27.3646703 193.568209,27.6520701 193.222714,27.8715677 C192.070019,28.6058582 190.804252,28.912997 189.425414,28.7929839 C186.458871,28.5340083 184.693707,26.9209378 184.129922,23.9537723 C183.822118,22.3351748 183.949323,20.8413278 184.511537,19.4722313 C185.050195,18.1568248 185.858966,17.1714542 186.937852,16.5161196 Z" id="路径" fill="#000000"></path>
                <path d="M198.621854,23.4942485 C198.546474,24.504885 198.844855,25.2510189 199.517,25.7326504 C200.093348,26.1463797 200.792189,26.3240306 201.613524,26.2656032 C202.420725,26.2087549 203.114856,25.8771398 203.695915,25.2707579 C204.083811,24.8665033 204.503901,24.7717562 204.956185,24.9865164 C205.554519,25.272337 205.806573,25.6765916 205.712348,26.1992802 C205.652671,26.5308953 205.443019,26.8806702 205.08339,27.248605 C204.031202,28.3255645 202.65629,28.8308827 200.958655,28.7645597 C198.262226,28.6587587 196.598355,27.2920308 195.967042,24.664376 C195.579145,23.050516 195.585427,21.4950833 195.985887,19.998078 C196.348656,18.6447727 196.957198,17.6104494 197.811512,16.8951083 C198.796172,16.0708079 200.026604,15.6973462 201.502809,15.7747231 C203.414023,15.8757867 204.725332,16.8043089 205.436737,18.5602898 C205.998951,19.9483358 206.14029,21.2921664 205.860753,22.5917818 C205.742971,23.1381571 205.369994,23.4066074 204.741822,23.3971327 C202.744234,23.3671294 200.747432,23.3600234 198.751415,23.3758146 C198.682527,23.3755668 198.625604,23.4276014 198.621854,23.4942485 L198.621854,23.4942485 Z M199.074138,19.2614188 C198.712939,19.7935821 198.544118,20.4047013 198.567674,21.0947765 C198.570208,21.1634918 198.624315,21.2178981 198.690168,21.2179478 L203.048112,21.1895237 C203.114854,21.1895361 203.169322,21.1358199 203.170606,21.068721 C203.176888,20.7734257 203.131345,20.3928579 203.033978,19.9270177 C202.82197,18.9100647 202.21971,18.3597416 201.227198,18.2760483 C200.291222,18.1986714 199.573535,18.5271283 199.074138,19.2614188 Z" id="形状" fill="#000000"></path>
                <rect id="矩形" fill="#000000" x="83.9560921" y="15.9784295" width="2.88331025" height="12.5824239" rx="1.3515801"></rect>
                <rect id="矩形" fill="#000000" x="139.610576" y="15.9807981" width="2.88331025" height="12.5824239" rx="1.35868122"></rect>
            </g>
        </g>
    </g>
</svg>