<svg width="25" height="24" viewBox="0 0 25 24" fill="none" xmlns="http://www.w3.org/2000/svg">
<path d="M13.9094 12.2588C13.9094 15.7153 11.1314 18.5173 7.7048 18.5173C4.27818 18.5173 1.5 15.7146 1.5 12.2588C1.5 8.80288 4.27797 6 7.7048 6C11.1316 6 13.9094 8.80225 13.9094 12.2588Z" fill="#333333" fill-opacity="0.4"/>
<path d="M20.7172 12.2583C20.7172 15.5119 19.3283 18.1505 17.6149 18.1505C15.9014 18.1505 14.5125 15.5119 14.5125 12.2583C14.5125 9.00479 15.9012 6.36621 17.6146 6.36621C19.3281 6.36621 20.717 9.00394 20.717 12.2583" fill="#333333" fill-opacity="0.4"/>
<path d="M23.5002 12.2594C23.5002 15.1738 23.0117 17.5378 22.409 17.5378C21.8063 17.5378 21.3181 15.1744 21.3181 12.2594C21.3181 9.34436 21.8065 6.98096 22.409 6.98096C23.0115 6.98096 23.5002 9.34415 23.5002 12.2594Z" fill="#333333" fill-opacity="0.4"/>
</svg>
