<svg width="20" height="20" viewBox="0 0 20 20" fill="none" xmlns="http://www.w3.org/2000/svg">
<path d="M7.27158 14.5659C7.87154 15.3722 8.62643 16.0564 9.49219 16.5745V14.0796C8.71449 14.1313 7.96855 14.2991 7.27158 14.5659ZM6.26359 15.0389C5.84725 15.2728 5.45366 15.5451 5.08793 15.8521H5.06311C6.17588 16.7919 7.56033 17.4199 9.08186 17.6018C7.96494 16.9633 7.00227 16.0857 6.26359 15.0389ZM5.78096 10.5469C5.85916 11.6552 6.17328 12.6983 6.67336 13.6265C7.55037 13.2647 8.49906 13.0414 9.49219 12.9837V10.5469H5.78096ZM4.68478 10.5469H2.36299C2.48596 12.2894 3.19203 13.8709 4.28727 15.0974C4.7212 14.7221 5.19089 14.3903 5.68961 14.1067C5.11818 13.0337 4.76373 11.8275 4.68477 10.5469H4.68478ZM13.3931 13.6477C13.8999 12.7143 14.2183 11.6637 14.2972 10.5469H10.5664V12.9863C11.5631 13.0491 12.5146 13.2788 13.3931 13.6477ZM14.3737 14.1341C14.8513 14.4097 15.3019 14.7298 15.7194 15.0899C16.8108 13.8644 17.5143 12.2858 17.637 10.5469H15.3933C15.3136 11.8385 14.9537 13.0542 14.3737 14.1341ZM10.5664 16.5858C11.4335 16.0704 12.1901 15.3887 12.7923 14.5846C12.0943 14.312 11.3466 14.1388 10.5664 14.0826V16.5858ZM11.0175 17.5892C12.4999 17.3924 13.8484 16.7713 14.9369 15.8522H14.9274C14.5748 15.5561 14.1963 15.2923 13.7964 15.0641C13.0648 16.0931 12.1163 16.957 11.0175 17.5892ZM6.67543 6.36969C6.17414 7.29879 5.85928 8.34332 5.78096 9.45312H9.49219V7.00945C8.49992 6.9525 7.55195 6.73021 6.67543 6.36971V6.36969ZM5.69111 5.89043C5.19228 5.60743 4.7224 5.2762 4.28822 4.90148C3.19244 6.12822 2.486 7.71016 2.36299 9.45312H4.68477C4.76381 8.17133 5.11881 6.96422 5.69109 5.89043H5.69111ZM9.49219 3.42549C8.62779 3.94273 7.87391 4.62564 7.27439 5.43033C7.97064 5.69582 8.71561 5.8626 9.49219 5.91361V3.42549ZM9.08184 2.39824C7.56422 2.57961 6.18297 3.20494 5.07166 4.14062H5.08178C5.44987 4.4497 5.84618 4.7235 6.26549 4.95844C7.00393 3.91273 7.96588 3.03617 9.08186 2.39824H9.08184ZM12.7871 5.40777C12.1858 4.60668 11.431 3.92738 10.5664 3.41348V5.90977C11.3447 5.85301 12.0907 5.67988 12.7871 5.40777ZM13.7913 4.92805C14.1908 4.69997 14.569 4.43643 14.9213 4.14062H14.9283C13.8417 3.22572 12.497 2.60756 11.0191 2.41098C12.1147 3.04164 13.0608 3.90271 13.7913 4.92805ZM14.2972 9.45312C14.2182 8.33314 13.8983 7.27965 13.389 6.34416C12.5117 6.71289 11.5617 6.94268 10.5664 7.00609V9.45312H14.2972ZM15.3934 9.45312H17.637C17.5141 7.71084 16.8081 6.12949 15.7131 4.90297C15.2962 5.26258 14.8464 5.58215 14.3696 5.85746C14.9521 6.93949 15.3136 8.1582 15.3934 9.45312H15.3934ZM10 18.75C5.1675 18.75 1.25 14.8325 1.25 10C1.25 5.1675 5.1675 1.25 10 1.25C14.8325 1.25 18.75 5.1675 18.75 10C18.75 14.8325 14.8325 18.75 10 18.75Z" fill="#DF2E2D"/>
</svg>
