<svg width="24" height="25" viewBox="0 0 24 25" fill="none" xmlns="http://www.w3.org/2000/svg">
<circle cx="12" cy="12.9087" r="10" fill="white"/>
<path d="M12 22.9087C6.47711 22.9087 2 18.4316 2 12.9087C2 7.3858 6.47711 2.90869 12 2.90869C17.5229 2.90869 22 7.3858 22 12.9087C22 18.4316 17.5229 22.9087 12 22.9087ZM16.6425 8.22892H16.6424C16.1744 7.76093 15.4155 7.76093 14.9475 8.22892L11.9772 11.1992L9.04463 8.26643C8.57837 7.80017 7.82249 7.80017 7.35623 8.26643H7.35612C6.89 8.73281 6.89 9.48868 7.35612 9.95494L10.2887 12.8875L7.32012 15.8563C6.85198 16.3243 6.85198 17.083 7.32012 17.551H7.32023C7.78809 18.0191 8.54698 18.0191 9.01512 17.551L11.9836 14.5826L14.9538 17.5528C15.4201 18.0186 16.176 18.0186 16.6421 17.5528V17.5523C17.1084 17.0861 17.1084 16.3306 16.6421 15.8643L13.672 12.8941L16.6425 9.92367C17.1105 9.45556 17.1105 8.69692 16.6425 8.22892Z" fill="#EF2F2D"/>
</svg>
