<svg width="24" height="25" viewBox="0 0 24 25" fill="none" xmlns="http://www.w3.org/2000/svg">
<circle cx="12" cy="12.9087" r="10" fill="white"/>
<path d="M12 2.90869C6.47714 2.90869 2 7.38583 2 12.9087C2 18.4315 6.47714 22.9087 12 22.9087C17.5229 22.9087 22 18.4315 22 12.9087C22 7.38583 17.5229 2.90869 12 2.90869ZM17.2609 10.5402L11.143 16.6582C10.9523 16.8489 10.7024 16.9443 10.4525 16.9443C10.2025 16.9443 9.95261 16.8489 9.76193 16.6582L9.76138 16.6577L6.7391 13.6354C6.35773 13.254 6.35771 12.6357 6.7391 12.2543C7.12047 11.873 7.7388 11.873 8.12019 12.2543L10.4525 14.5866L15.8798 9.15919C16.2612 8.77782 16.8795 8.7778 17.2609 9.15919C17.6423 9.54055 17.6423 10.1589 17.2609 10.5402Z" fill="#2AE2CC"/>
</svg>
