<svg width="12.000000" height="12.000000" viewBox="0 0 12 12" fill="none" xmlns="http://www.w3.org/2000/svg" xmlns:xlink="http://www.w3.org/1999/xlink">
	<rect id="vuesax/linear/ranking" width="12.000000" height="12.000000" fill="#FFFFFF" fill-opacity="0"/>
	<path id="Vector" d="M2 7C1.44 7 1 7.45 1 8L1 11L4.33 11L4.33 7L2 7Z" stroke="#FF5C5C" stroke-opacity="1.000000" stroke-width="1.000000" stroke-linejoin="round"/>
	<path id="Vector" d="M5.33 5C4.78 5 4.33 5.45 4.33 6L4.33 11L7.66 11L7.66 6C7.66 5.45 7.21 5 6.66 5L5.33 5Z" stroke="#FF5C5C" stroke-opacity="1.000000" stroke-width="1.000000" stroke-linejoin="round"/>
	<path id="Vector" d="M7.66 8.5L7.66 11L11 11L11 9.5C11 8.95 10.55 8.5 10 8.5L7.66 8.5Z" stroke="#FF5C5C" stroke-opacity="1.000000" stroke-width="1.000000" stroke-linejoin="round"/>
	<path id="Vector" d="M6.52 1.56C6.56 1.64 6.65 1.7 6.73 1.71L7.21 1.79C7.52 1.85 7.59 2.07 7.37 2.29L7 2.66C6.93 2.72 6.9 2.85 6.92 2.93L7.02 3.39C7.11 3.75 6.91 3.89 6.59 3.7L6.14 3.44C6.06 3.39 5.93 3.39 5.85 3.44L5.4 3.7C5.08 3.89 4.88 3.75 4.97 3.39L5.07 2.93C5.09 2.85 5.06 2.72 4.99 2.66L4.62 2.29C4.4 2.07 4.47 1.85 4.78 1.8L5.26 1.72C5.34 1.7 5.44 1.64 5.47 1.56L5.74 1.04C5.88 0.75 6.11 0.75 6.26 1.03L6.52 1.56Z" stroke="#FF5C5C" stroke-opacity="1.000000" stroke-width="1.000000" stroke-linejoin="round"/>
</svg>
