<svg width="20.000000" height="20.000000" viewBox="0 0 20 20" fill="none" xmlns="http://www.w3.org/2000/svg" xmlns:xlink="http://www.w3.org/1999/xlink">
	<rect id="vuesax/linear/ranking" width="20.000000" height="20.000000" fill="#FFFFFF" fill-opacity="0"/>
	<path id="Vector" d="M3.33 11.66C2.41 11.66 1.66 12.41 1.66 13.33L1.66 18.33L7.22 18.33L7.22 11.66L3.33 11.66Z" stroke="#DBDBDB" stroke-opacity="1.000000" stroke-width="1.000000" stroke-linejoin="round"/>
	<path id="Vector" d="M8.88 8.33C7.96 8.33 7.21 9.08 7.21 10L7.21 18.33L12.77 18.33L12.77 10C12.77 9.08 12.03 8.33 11.1 8.33L8.88 8.33Z" stroke="#DBDBDB" stroke-opacity="1.000000" stroke-width="1.000000" stroke-linejoin="round"/>
	<path id="Vector" d="M12.77 14.16L12.77 18.33L18.33 18.33L18.33 15.83C18.33 14.91 17.58 14.16 16.66 14.16L12.77 14.16Z" stroke="#DBDBDB" stroke-opacity="1.000000" stroke-width="1.000000" stroke-linejoin="round"/>
	<path id="Vector" d="M10.87 2.6C10.93 2.73 11.09 2.84 11.22 2.86L12.02 3C12.53 3.08 12.65 3.45 12.29 3.81L11.66 4.44C11.55 4.54 11.5 4.75 11.53 4.89L11.7 5.65C11.84 6.26 11.52 6.5 10.99 6.18L10.24 5.74C10.1 5.65 9.88 5.65 9.75 5.74L9 6.18C8.46 6.5 8.14 6.26 8.28 5.65L8.45 4.89C8.49 4.75 8.43 4.54 8.32 4.44L7.7 3.82C7.34 3.45 7.45 3.09 7.97 3L8.77 2.87C8.9 2.85 9.06 2.73 9.12 2.61L9.56 1.73C9.8 1.25 10.19 1.25 10.43 1.72L10.87 2.6Z" stroke="#DBDBDB" stroke-opacity="1.000000" stroke-width="1.000000" stroke-linejoin="round"/>
</svg>
