<svg width="20.000000" height="20.000000" viewBox="0 0 20 20" fill="none" xmlns="http://www.w3.org/2000/svg" xmlns:xlink="http://www.w3.org/1999/xlink">
	<rect id="vuesax/linear/gift" width="20.000000" height="20.000000" fill="#FFFFFF" fill-opacity="0"/>
	<path id="Vector" d="M3.3 8.33L3.3 15C3.3 17.5 4.14 18.33 6.64 18.33L13.3 18.33C15.8 18.33 16.64 17.5 16.64 15L16.64 8.33L3.3 8.33Z" stroke="#DBDBDB" stroke-opacity="1.000000" stroke-width="1.000000" stroke-linejoin="round"/>
	<path id="Vector" d="M17.91 6.66C17.91 7.58 17.47 8.33 16.25 8.33L3.75 8.33C2.47 8.33 2.08 7.58 2.08 6.66L2.08 5.83C2.08 4.91 2.47 4.16 3.75 4.16L16.25 4.16C17.47 4.16 17.91 4.91 17.91 5.83L17.91 6.66Z" stroke="#DBDBDB" stroke-opacity="1.000000" stroke-width="1.000000" stroke-linejoin="round"/>
	<path id="Vector" d="M5.1 4.16C4.81 3.85 4.82 3.38 5.12 3.08L6.3 1.9C6.61 1.59 7.12 1.59 7.43 1.9L9.69 4.16L5.1 4.16Z" stroke="#DBDBDB" stroke-opacity="1.000000" stroke-width="1.000000" stroke-linejoin="round"/>
	<path id="Vector" d="M10.29 4.16L12.55 1.9C12.86 1.59 13.37 1.59 13.68 1.9L14.86 3.08C15.16 3.38 15.17 3.85 14.89 4.16L10.29 4.16Z" stroke="#DBDBDB" stroke-opacity="1.000000" stroke-width="1.000000" stroke-linejoin="round"/>
	<path id="Vector" d="M7.44 12.61C7.44 13.28 8.18 13.67 8.74 13.31L9.52 12.8C9.8 12.61 10.16 12.61 10.44 12.8L11.18 13.3C11.73 13.66 12.47 13.27 12.47 12.6L12.47 8.33L7.44 8.33L7.44 12.61Z" stroke="#DBDBDB" stroke-opacity="1.000000" stroke-width="1.000000" stroke-linejoin="round"/>
</svg>
