<svg width="24.000000" height="24.000000" viewBox="0 0 24 24" fill="none" xmlns="http://www.w3.org/2000/svg" xmlnsXlink="http://www.w3.org/1999/xlink">
    <g opacity="0.000000" />
    <path id="Vector" d="M7.75 3.5L7.75 2C7.75 1.58 7.4 1.25 7 1.25C6.59 1.25 6.25 1.58 6.25 2L6.25 3.56C6.5 3.52 6.72 3.5 7 3.5L7.75 3.5Z" fill="#DBDBDB" fillOpacity="1.000000" fillRule="nonzero" />
    <path id="Vector" d="M15.75 3.56L15.75 2C15.75 1.58 15.41 1.25 15 1.25C14.59 1.25 14.25 1.58 14.25 2L14.25 3.5L15 3.5C15.27 3.5 15.5 3.52 15.75 3.56Z" fill="#DBDBDB" fillOpacity="1.000000" fillRule="nonzero" />
    <path id="Vector" d="M21.29 14.97C20.52 14.35 19.54 14 18.5 14C17.45 14 16.45 14.37 15.69 14.99C14.65 15.81 14 17.08 14 18.5C14 19.33 14.24 20.14 14.65 20.81C14.97 21.33 15.38 21.79 15.87 22.14C16.61 22.68 17.51 23 18.5 23C19.64 23 20.67 22.58 21.46 21.87C21.81 21.58 22.11 21.23 22.35 20.81C22.76 20.14 23 19.33 23 18.5C23 17.06 22.33 15.79 21.29 14.97ZM18.5 20.64C18.5 19.45 17.54 18.5 16.36 18.5C17.54 18.5 18.5 17.54 18.5 16.35C18.5 17.54 19.45 18.5 20.64 18.5C19.45 18.5 18.5 19.45 18.5 20.64Z" fill="#DBDBDB" fillOpacity="1.000000" fillRule="nonzero" />
    <path id="Vector" d="M15.75 3.56L15.75 5C15.75 5.41 15.41 5.75 15 5.75C14.59 5.75 14.25 5.41 14.25 5L14.25 3.5L7.75 3.5L7.75 5C7.75 5.41 7.4 5.75 7 5.75C6.59 5.75 6.25 5.41 6.25 5L6.25 3.56C3.29 3.83 2 5.72 2 8.5L2 17C2 20 3.5 22 7 22L11.13 22C11.89 22 12.4 21.14 12.21 20.41C12.07 19.87 12 19.31 12 18.75C12 16.66 12.93 14.75 14.54 13.48C15.71 12.52 17.2 12 18.75 12L18.79 12C19.42 12 20 11.54 20 10.91L20 8.5C20 5.72 18.7 3.83 15.75 3.56ZM9 16.75L7 16.75C6.59 16.75 6.25 16.41 6.25 16C6.25 15.58 6.59 15.25 7 15.25L9 15.25C9.4 15.25 9.75 15.58 9.75 16C9.75 16.41 9.4 16.75 9 16.75ZM12 11.75L7 11.75C6.59 11.75 6.25 11.41 6.25 11C6.25 10.58 6.59 10.25 7 10.25L12 10.25C12.41 10.25 12.75 10.58 12.75 11C12.75 11.41 12.41 11.75 12 11.75Z" fill="#DBDBDB" fillOpacity="1.000000" fillRule="nonzero" />
</svg>