<svg width="24.000000" height="24.000000" viewBox="0 0 24 24" fill="none" xmlns="http://www.w3.org/2000/svg" xmlns:xlink="http://www.w3.org/1999/xlink">
	<defs>
		<clipPath id="clip3194_1828">
			<rect id="X.10d54851.svg" rx="4.000000" width="22.000000" height="22.000000" transform="translate(1.000000 1.000000)" fill="white" fill-opacity="0"/>
		</clipPath>
	</defs>
	<rect width="24.000000" height="24.000000" fill="#FFFFFF" fill-opacity="0"/>
	<rect rx="4.000000" width="22.000000" height="22.000000" transform="translate(1.000000 1.000000)" fill="#545454" fill-opacity="1.000000"/>
	<g clip-path="url(#clip3194_1828)">
		<path d="M20.25 9.25C17.5 9.25 17.5 5.58 17.5 5.58C17.5 7.6 14.16 9.25 12 9.25C9.83 9.25 6.5 7.6 6.5 5.58C6.5 5.58 6.5 9.25 3.75 9.25" stroke="#000000" stroke-opacity="1.000000" stroke-width="1.500000" stroke-linejoin="round" stroke-linecap="round"/>
		<path d="M3.75 12.91L20.25 12.91" stroke="#000000" stroke-opacity="1.000000" stroke-width="1.500000" stroke-linecap="round"/>
		<path d="M6.5 6.04L6.5 18.41" stroke="#000000" stroke-opacity="1.000000" stroke-width="1.500000" stroke-linecap="round"/>
		<path d="M9.7 8.79L9.7 12.91" stroke="#000000" stroke-opacity="1.000000" stroke-width="1.500000" stroke-linecap="round"/>
		<path d="M14.29 8.79L14.29 12.91" stroke="#000000" stroke-opacity="1.000000" stroke-width="1.500000" stroke-linecap="round"/>
		<path d="M17.5 6.04L17.5 18.41" stroke="#000000" stroke-opacity="1.000000" stroke-width="1.500000" stroke-linecap="round"/>
	</g>
</svg>
