<svg width="24.000000" height="24.000000" viewBox="0 0 24 24" fill="none" xmlns="http://www.w3.org/2000/svg" xmlns:xlink="http://www.w3.org/1999/xlink">
	<path id="Vector" d="M14 16C14 17.77 13.23 19.37 12 20.45C10.93 21.41 9.54 22 8 22C4.68 22 2 19.31 2 16C2 13.97 3.01 12.18 4.55 11.09C4.8 10.92 5.13 11.04 5.27 11.31C6.21 13.23 7.95 14.66 10.02 15.23C10.65 15.41 11.31 15.5 12 15.5C12.48 15.5 12.95 15.45 13.4 15.36C13.69 15.31 13.98 15.49 13.99 15.79C13.99 15.86 14 15.93 14 16Z" fill="#FF5C5C" fill-opacity="1.000000" fill-rule="nonzero"/>
	<path id="Vector" d="M18 8C18 8.77 17.85 9.52 17.58 10.21C16.89 11.95 15.41 13.29 13.58 13.79C13.08 13.93 12.55 14 12 14C11.45 14 10.92 13.93 10.42 13.79C8.58 13.29 7.1 11.95 6.42 10.21C6.15 9.52 6 8.77 6 8C6 4.68 8.68 2 12 2C15.31 2 18 4.68 18 8Z" fill="#FF5C5C" fill-opacity="1.000000" fill-rule="nonzero"/>
	<path id="Vector" d="M22 16C22 19.31 19.31 22 16 22C15.25 22 14.53 21.86 13.88 21.61C13.56 21.49 13.5 21.08 13.72 20.82C14.86 19.49 15.5 17.78 15.5 16C15.5 15.66 15.47 15.31 15.42 15C15.39 14.81 15.48 14.63 15.64 14.54C16.97 13.81 18.05 12.68 18.72 11.31C18.86 11.04 19.19 10.92 19.44 11.09C20.98 12.18 22 13.97 22 16Z" fill="#FF5C5C" fill-opacity="1.000000" fill-rule="nonzero"/>
	<g opacity="0.000000"/>
</svg>
