<svg width="24.000000" height="24.000000" viewBox="0 0 24 24" fill="none" xmlns="http://www.w3.org/2000/svg" xmlns:xlink="http://www.w3.org/1999/xlink">
	<g opacity="0.000000"/>
	<path id="Vector" d="M7.75 3.5L7.75 2C7.75 1.58 7.41 1.25 7 1.25C6.58 1.25 6.25 1.58 6.25 2L6.25 3.56C6.5 3.53 6.72 3.5 7 3.5L7.75 3.5Z" fill="#545454" fill-opacity="1.000000" fill-rule="nonzero"/>
	<path id="Vector" d="M15.75 3.56L15.75 2C15.75 1.58 15.41 1.25 15 1.25C14.59 1.25 14.25 1.58 14.25 2L14.25 3.5L15 3.5C15.27 3.5 15.5 3.53 15.75 3.56Z" fill="#545454" fill-opacity="1.000000" fill-rule="nonzero"/>
	<path id="Vector" d="M21.29 14.97C20.52 14.36 19.54 14 18.5 14C17.45 14 16.45 14.37 15.68 14.99C14.65 15.81 14 17.09 14 18.5C14 19.34 14.24 20.15 14.65 20.81C14.97 21.33 15.38 21.79 15.87 22.14C16.61 22.68 17.51 23 18.5 23C19.64 23 20.67 22.58 21.46 21.88C21.81 21.59 22.11 21.23 22.35 20.81C22.76 20.15 23 19.34 23 18.5C23 17.06 22.33 15.79 21.29 14.97ZM18.5 20.64C18.5 19.45 17.54 18.5 16.36 18.5C17.54 18.5 18.5 17.54 18.5 16.36C18.5 17.54 19.45 18.5 20.64 18.5C19.45 18.5 18.5 19.45 18.5 20.64Z" fill="#545454" fill-opacity="1.000000" fill-rule="nonzero"/>
	<path id="Vector" d="M15.75 3.56L15.75 5C15.75 5.41 15.41 5.75 15 5.75C14.59 5.75 14.25 5.41 14.25 5L14.25 3.5L7.75 3.5L7.75 5C7.75 5.41 7.41 5.75 7 5.75C6.58 5.75 6.25 5.41 6.25 5L6.25 3.56C3.3 3.82 2 5.72 2 8.5L2 17C2 20 3.5 22 7 22L11.13 22C11.89 22 12.4 21.15 12.21 20.41C12.06 19.87 12 19.31 12 18.75C12 16.67 12.93 14.75 14.54 13.48C15.71 12.53 17.2 12 18.75 12L18.79 12C19.42 12 20 11.54 20 10.91L20 8.5C20 5.72 18.7 3.82 15.75 3.56ZM9 16.75L7 16.75C6.58 16.75 6.25 16.41 6.25 16C6.25 15.59 6.58 15.25 7 15.25L9 15.25C9.41 15.25 9.75 15.59 9.75 16C9.75 16.41 9.41 16.75 9 16.75ZM12 11.75L7 11.75C6.58 11.75 6.25 11.41 6.25 11C6.25 10.59 6.58 10.25 7 10.25L12 10.25C12.41 10.25 12.75 10.59 12.75 11C12.75 11.41 12.41 11.75 12 11.75Z" fill="#545454" fill-opacity="1.000000" fill-rule="nonzero"/>
</svg>
