<svg xmlns="http://www.w3.org/2000/svg" xmlns:xlink="http://www.w3.org/1999/xlink" width="64.000000" height="64.000000" viewBox="0 0 64 64" fill="none">
	<desc>
			Created with Pixso.
	</desc>
	<defs>
		<filter id="filter_45_1904_dd" x="28.172607" y="28.551758" width="26.667480" height="26.667236" filterUnits="userSpaceOnUse" color-interpolation-filters="sRGB">
			<feFlood flood-opacity="0" result="BackgroundImageFix"/>
			<feColorMatrix in="SourceAlpha" type="matrix" values="0 0 0 0 0 0 0 0 0 0 0 0 0 0 0 0 0 0 127 0" result="hardAlpha"/>
			<feOffset dx="0" dy="4"/>
			<feGaussianBlur stdDeviation="2"/>
			<feComposite in2="hardAlpha" operator="out" k2="-1" k3="1"/>
			<feColorMatrix type="matrix" values="0 0 0 0 0 0 0 0 0 0 0 0 0 0 0 0 0 0 0.25 0"/>
			<feBlend mode="normal" in2="BackgroundImageFix" result="effect_dropShadow_1"/>
			<feColorMatrix in="SourceAlpha" type="matrix" values="0 0 0 0 0 0 0 0 0 0 0 0 0 0 0 0 0 0 127 0" result="hardAlpha"/>
			<feOffset dx="0" dy="4"/>
			<feGaussianBlur stdDeviation="0.5"/>
			<feComposite in2="hardAlpha" operator="out" k2="-1" k3="1"/>
			<feColorMatrix type="matrix" values="0 0 0 0 0 0 0 0 0 0 0 0 0 0 0 0 0 0 0.25 0"/>
			<feBlend mode="normal" in2="effect_dropShadow_1" result="effect_dropShadow_2"/>
			<feBlend mode="normal" in="SourceGraphic" in2="effect_dropShadow_2" result="shape"/>
		</filter>
		<filter id="filter_45_1905_dd" x="34.172607" y="30.551758" width="14.667480" height="14.667236" filterUnits="userSpaceOnUse" color-interpolation-filters="sRGB">
			<feFlood flood-opacity="0" result="BackgroundImageFix"/>
			<feColorMatrix in="SourceAlpha" type="matrix" values="0 0 0 0 0 0 0 0 0 0 0 0 0 0 0 0 0 0 127 0" result="hardAlpha"/>
			<feOffset dx="0" dy="4"/>
			<feGaussianBlur stdDeviation="2"/>
			<feComposite in2="hardAlpha" operator="out" k2="-1" k3="1"/>
			<feColorMatrix type="matrix" values="0 0 0 0 0 0 0 0 0 0 0 0 0 0 0 0 0 0 0.25 0"/>
			<feBlend mode="normal" in2="BackgroundImageFix" result="effect_dropShadow_1"/>
			<feColorMatrix in="SourceAlpha" type="matrix" values="0 0 0 0 0 0 0 0 0 0 0 0 0 0 0 0 0 0 127 0" result="hardAlpha"/>
			<feOffset dx="0" dy="4"/>
			<feGaussianBlur stdDeviation="0.5"/>
			<feComposite in2="hardAlpha" operator="out" k2="-1" k3="1"/>
			<feColorMatrix type="matrix" values="0 0 0 0 0 0 0 0 0 0 0 0 0 0 0 0 0 0 0.25 0"/>
			<feBlend mode="normal" in2="effect_dropShadow_1" result="effect_dropShadow_2"/>
			<feBlend mode="normal" in="SourceGraphic" in2="effect_dropShadow_2" result="shape"/>
		</filter>
		<clipPath id="clip45_1909">
			<rect id="logo" width="64.000000" height="64.000000" fill="white" fill-opacity="0"/>
		</clipPath>
		<linearGradient x1="32.000000" y1="3.572442" x2="32.000000" y2="60.109848" id="paint_linear_45_1620_0" gradientUnits="userSpaceOnUse">
			<stop stop-color="#031937"/>
			<stop offset="1.000000" stop-color="#1292BD"/>
		</linearGradient>
		<linearGradient x1="32.000000" y1="2.666748" x2="32.000000" y2="61.333416" id="paint_linear_45_1620_1" gradientUnits="userSpaceOnUse">
			<stop stop-color="#46A8EC"/>
			<stop offset="1.000000" stop-color="#ADF6F8"/>
		</linearGradient>
		<linearGradient x1="43.005974" y1="13.885498" x2="41.461842" y2="39.758621" id="paint_linear_45_1794_0" gradientUnits="userSpaceOnUse">
			<stop stop-color="#36AED1"/>
			<stop offset="1.000000" stop-color="#2D648E"/>
		</linearGradient>
		<linearGradient x1="43.005970" y1="13.885498" x2="41.461838" y2="39.758629" id="paint_linear_45_1795_0" gradientUnits="userSpaceOnUse">
			<stop stop-color="#36AED1"/>
			<stop offset="1.000000" stop-color="#2D648E"/>
		</linearGradient>
		<linearGradient x1="43.727646" y1="24.059326" x2="43.048004" y2="47.527618" id="paint_linear_45_1802_0" gradientUnits="userSpaceOnUse">
			<stop stop-color="#57D2F6"/>
			<stop offset="1.000000" stop-color="#429ADC"/>
		</linearGradient>
		<linearGradient x1="43.727646" y1="24.059326" x2="43.047955" y2="47.527615" id="paint_linear_45_1803_0" gradientUnits="userSpaceOnUse">
			<stop stop-color="#57D2F6"/>
			<stop offset="1.000000" stop-color="#429ADC"/>
		</linearGradient>
		<linearGradient x1="45.212093" y1="4.285401" x2="44.712116" y2="24.459316" id="paint_linear_45_1863_0" gradientUnits="userSpaceOnUse">
			<stop stop-color="#18586B"/>
			<stop offset="1.000000" stop-color="#1D7191"/>
		</linearGradient>
		<linearGradient x1="44.384239" y1="6.581055" x2="44.384239" y2="20.372358" id="paint_linear_45_1865_0" gradientUnits="userSpaceOnUse">
			<stop stop-color="#1D8CC0"/>
			<stop offset="1.000000" stop-color="#1D4C80"/>
		</linearGradient>
		<linearGradient x1="44.384239" y1="6.581055" x2="44.384239" y2="20.372360" id="paint_linear_45_1866_0" gradientUnits="userSpaceOnUse">
			<stop stop-color="#1D8CC0"/>
			<stop offset="1.000000" stop-color="#1D4C80"/>
		</linearGradient>
		<linearGradient x1="45.774883" y1="13.500496" x2="40.524593" y2="17.522459" id="paint_linear_45_1873_0" gradientUnits="userSpaceOnUse">
			<stop stop-color="#3095B4"/>
			<stop offset="1.000000" stop-color="#113D67"/>
		</linearGradient>
	</defs>
	<rect id="logo" width="64.000000" height="64.000000" fill="#FFFFFF" fill-opacity="0"/>
	<g clip-path="url(#clip45_1909)">
		<path id="path" d="M28.85 3.51C30.79 2.38 33.2 2.38 35.14 3.51L54.84 15C55.81 15.57 56.6 16.38 57.15 17.33C57.69 18.29 58 19.38 58 20.53L58 43.46C58 44.61 57.69 45.7 57.15 46.66C56.6 47.61 55.81 48.42 54.84 48.99L35.14 60.48C33.2 61.61 30.79 61.61 28.85 60.48L9.15 48.99C8.18 48.42 7.39 47.61 6.84 46.66C6.3 45.7 6 44.61 6 43.46L6 20.53C6 19.38 6.3 18.29 6.84 17.33C7.39 16.38 8.18 15.57 9.15 15L28.85 3.51Z" fill="url(#paint_linear_45_1620_0)" fill-opacity="1.000000" fill-rule="evenodd"/>
		<path id="path" d="M35.14 3.51L54.84 15C55.81 15.57 56.6 16.38 57.15 17.33C57.69 18.29 58 19.38 58 20.53L58 43.46C58 44.61 57.69 45.7 57.15 46.66C56.6 47.61 55.81 48.42 54.84 48.99L35.14 60.48C33.2 61.61 30.79 61.61 28.85 60.48L9.15 48.99C8.18 48.42 7.39 47.61 6.84 46.66C6.3 45.7 6 44.61 6 43.46L6 20.53C6 19.38 6.3 18.29 6.84 17.33C7.39 16.38 8.18 15.57 9.15 15L28.85 3.51C30.79 2.38 33.2 2.38 35.14 3.51Z" stroke="url(#paint_linear_45_1620_1)" stroke-opacity="1.000000" stroke-width="2.504348"/>
		<path id="path-3" d="M49.72 24.45C50.78 24.99 51.61 26.44 52.22 28.8C52.74 30.86 53.18 33.12 53.52 35.57C53.62 36.31 53.53 37.06 53.27 37.76C51.89 41.38 50.04 44.37 47.74 46.72C45.43 49.08 42.4 51.44 38.66 53.82C37.95 54.27 37.12 54.51 36.28 54.51L32.75 54.51L32.75 13.88L38.58 13.88C38.91 13.88 39.23 14.01 39.46 14.25L49.72 24.45Z" fill="#CB6E1A" fill-opacity="1.000000" fill-rule="nonzero"/>
		<path id="path-3" d="M52.22 28.8C52.74 30.86 53.18 33.12 53.52 35.57C53.62 36.31 53.53 37.06 53.27 37.76C51.89 41.38 50.04 44.37 47.74 46.72C45.43 49.08 42.4 51.44 38.66 53.82C37.95 54.27 37.12 54.51 36.28 54.51L32.75 54.51L32.75 13.88L38.58 13.88C38.91 13.88 39.23 14.01 39.46 14.25L49.72 24.45C50.78 24.99 51.61 26.44 52.22 28.8Z" stroke="#000000" stroke-opacity="0" stroke-width="1.000000"/>
		<mask id="mask45_1627" mask-type="alpha" maskUnits="userSpaceOnUse" x="32.760010" y="13.885498" width="20.804688" height="40.625977">
			<path id="path-3" d="M49.72 24.45C50.78 24.99 51.61 26.44 52.22 28.8C52.74 30.86 53.18 33.12 53.52 35.57C53.62 36.31 53.53 37.06 53.27 37.76C51.89 41.38 50.04 44.37 47.74 46.72C45.43 49.08 42.4 51.44 38.66 53.82C37.95 54.27 37.12 54.51 36.28 54.51L32.75 54.51L32.75 13.88L38.58 13.88C38.91 13.88 39.23 14.01 39.46 14.25L49.72 24.45Z" fill="#FFFFFF" fill-opacity="1.000000" fill-rule="nonzero"/>
		</mask>
		<g mask="url(#mask45_1627)">
			<rect id="rect" x="32.760010" y="13.885498" width="1.333333" height="21.147827" fill="#EE7C46" fill-opacity="1.000000"/>
			<rect id="rect" x="32.760010" y="13.885498" width="1.333333" height="21.147827" stroke="#000000" stroke-opacity="0" stroke-width="1.000000"/>
		</g>
		<mask id="mask45_1632" mask-type="alpha" maskUnits="userSpaceOnUse" x="32.760010" y="13.885498" width="20.804688" height="40.625977">
			<path id="path-3" d="M49.72 24.45C50.78 24.99 51.61 26.44 52.22 28.8C52.74 30.86 53.18 33.12 53.52 35.57C53.62 36.31 53.53 37.06 53.27 37.76C51.89 41.38 50.04 44.37 47.74 46.72C45.43 49.08 42.4 51.44 38.66 53.82C37.95 54.27 37.12 54.51 36.28 54.51L32.75 54.51L32.75 13.88L38.58 13.88C38.91 13.88 39.23 14.01 39.46 14.25L49.72 24.45Z" fill="#FFFFFF" fill-opacity="1.000000" fill-rule="nonzero"/>
		</mask>
		<g mask="url(#mask45_1632)">
			<path id="path" d="M35.16 37.58C35.39 35.53 35.67 33.97 36.01 32.91C36.35 31.84 36.99 30.52 37.93 28.94C41.13 28.27 43.49 27.66 45 27.13C46.51 26.6 48.35 25.58 50.51 24.05L53.66 25.29L54.69 37.58L43.68 54.58L32.75 54.58L35.16 37.58Z" fill="#FEA355" fill-opacity="1.000000" fill-rule="evenodd"/>
			<path id="path" d="M36.01 32.91C36.35 31.84 36.99 30.52 37.93 28.94C41.13 28.27 43.49 27.66 45 27.13C46.51 26.6 48.35 25.58 50.51 24.05L53.66 25.29L54.69 37.58L43.68 54.58L32.75 54.58L35.16 37.58C35.39 35.53 35.67 33.97 36.01 32.91Z" stroke="#000000" stroke-opacity="0" stroke-width="1.000000"/>
		</g>
		<mask id="mask45_1637" mask-type="alpha" maskUnits="userSpaceOnUse" x="32.760010" y="13.885498" width="20.804688" height="40.625977">
			<path id="path-3" d="M49.72 24.45C50.78 24.99 51.61 26.44 52.22 28.8C52.74 30.86 53.18 33.12 53.52 35.57C53.62 36.31 53.53 37.06 53.27 37.76C51.89 41.38 50.04 44.37 47.74 46.72C45.43 49.08 42.4 51.44 38.66 53.82C37.95 54.27 37.12 54.51 36.28 54.51L32.75 54.51L32.75 13.88L38.58 13.88C38.91 13.88 39.23 14.01 39.46 14.25L49.72 24.45Z" fill="#FFFFFF" fill-opacity="1.000000" fill-rule="nonzero"/>
		</mask>
		<g mask="url(#mask45_1637)">
			<path id="path-5" d="M54.93 40.38C49.1 36.26 43.92 37.85 39.38 45.17C38.55 46.5 33.39 47.81 32.75 48.94C30.47 53.01 31.58 56.11 36.08 58.23L54.93 40.38Z" fill="#FFFFFF" fill-opacity="1.000000" fill-rule="nonzero"/>
			<path id="path-5" d="M39.38 45.17C38.55 46.5 33.39 47.81 32.75 48.94C30.47 53.01 31.58 56.11 36.08 58.23L54.93 40.38C49.1 36.26 43.92 37.85 39.38 45.17Z" stroke="#000000" stroke-opacity="0" stroke-width="1.000000"/>
			<mask id="mask45_1645" mask-type="alpha" maskUnits="userSpaceOnUse" x="31.609131" y="38.156494" width="23.330078" height="20.076660">
				<path id="path-5" d="M54.93 40.38C49.1 36.26 43.92 37.85 39.38 45.17C38.55 46.5 33.39 47.81 32.75 48.94C30.47 53.01 31.58 56.11 36.08 58.23L54.93 40.38Z" fill="#FFFFFF" fill-opacity="1.000000" fill-rule="nonzero"/>
			</mask>
			<g mask="url(#mask45_1645)">
				<path id="p-10" d="M42.44 34.09C42.43 41.54 44.9 47.63 49.86 52.33C54.82 57.04 49.12 58.48 32.75 56.66L32.75 34.35L42.44 34.09Z" fill="#C8F4FD" fill-opacity="1.000000" fill-rule="evenodd"/>
				<path id="p-10" d="M49.86 52.33C54.82 57.04 49.12 58.48 32.75 56.66L32.75 34.35L42.44 34.09C42.43 41.54 44.9 47.63 49.86 52.33Z" stroke="#000000" stroke-opacity="0" stroke-width="1.000000"/>
			</g>
		</g>
		<path id="path-11" d="M38.73 44.16C38.99 44.3 40.33 45.26 42.77 47.05C40.69 50.28 38.84 52.01 37.22 52.23C35.59 52.45 34.1 52.19 32.75 51.45L32.75 44.16C36.48 44.02 38.48 44.02 38.73 44.16Z" fill="#87BFD9" fill-opacity="1.000000" fill-rule="evenodd"/>
		<path id="path-11" d="M42.77 47.05C40.69 50.28 38.84 52.01 37.22 52.23C35.59 52.45 34.1 52.19 32.75 51.45L32.75 44.16C36.48 44.02 38.48 44.02 38.73 44.16C38.99 44.3 40.33 45.26 42.77 47.05Z" stroke="#000000" stroke-opacity="0" stroke-width="1.000000"/>
		<path id="path-7" d="M32.75 34.37C32.75 34.37 33.61 34.42 34.9 35.32C36.31 36.32 39.51 40.16 40.32 46.12C40.69 48.88 38.17 50.66 32.75 51.46C32.75 40.07 32.75 34.37 32.75 34.37Z" fill="#FFFFFF" fill-opacity="1.000000" fill-rule="nonzero"/>
		<path id="path-7" d="M34.9 35.32C36.31 36.32 39.51 40.16 40.32 46.12C40.69 48.88 38.17 50.66 32.75 51.46C32.75 40.07 32.75 34.37 32.75 34.37C32.75 34.37 33.61 34.42 34.9 35.32Z" stroke="#000000" stroke-opacity="0" stroke-width="1.000000"/>
		<mask id="mask45_1654" mask-type="alpha" maskUnits="userSpaceOnUse" x="32.760010" y="34.372314" width="7.597412" height="17.095703">
			<path id="path-7" d="M32.75 34.37C32.75 34.37 33.61 34.42 34.9 35.32C36.31 36.32 39.51 40.16 40.32 46.12C40.69 48.88 38.17 50.66 32.75 51.46C32.75 40.07 32.75 34.37 32.75 34.37Z" fill="#FFFFFF" fill-opacity="1.000000" fill-rule="nonzero"/>
		</mask>
		<g mask="url(#mask45_1654)">
			<rect id="rect2" x="32.760010" y="39.380859" width="1.333333" height="3.756522" fill="#CBD3DF" fill-opacity="1.000000"/>
			<rect id="rect2" x="32.760010" y="39.380859" width="1.333333" height="3.756522" stroke="#000000" stroke-opacity="0" stroke-width="1.000000"/>
		</g>
		<mask id="mask45_1659" mask-type="alpha" maskUnits="userSpaceOnUse" x="32.760010" y="34.372314" width="7.597412" height="17.095703">
			<path id="path-7" d="M32.75 34.37C32.75 34.37 33.61 34.42 34.9 35.32C36.31 36.32 39.51 40.16 40.32 46.12C40.69 48.88 38.17 50.66 32.75 51.46C32.75 40.07 32.75 34.37 32.75 34.37Z" fill="#FFFFFF" fill-opacity="1.000000" fill-rule="nonzero"/>
		</mask>
		<g mask="url(#mask45_1659)">
			<path id="path-6" d="M32.75 33.79L32.75 38.47C33.37 38.48 34.02 38.34 34.69 38.05C35.36 37.76 36.04 37 36.73 35.78L32.75 33.79Z" fill="#D5FBFE" fill-opacity="1.000000" fill-rule="evenodd"/>
			<path id="path-6" d="M32.75 38.47C33.37 38.48 34.02 38.34 34.69 38.05C35.36 37.76 36.04 37 36.73 35.78L32.75 33.79L32.75 38.47Z" stroke="#000000" stroke-opacity="0" stroke-width="1.000000"/>
		</g>
		<mask id="mask45_1664" mask-type="alpha" maskUnits="userSpaceOnUse" x="32.760010" y="34.372314" width="7.597412" height="17.095703">
			<path id="path-7" d="M32.75 34.37C32.75 34.37 33.61 34.42 34.9 35.32C36.31 36.32 39.51 40.16 40.32 46.12C40.69 48.88 38.17 50.66 32.75 51.46C32.75 40.07 32.75 34.37 32.75 34.37Z" fill="#FFFFFF" fill-opacity="1.000000" fill-rule="nonzero"/>
		</mask>
		<g mask="url(#mask45_1664)">
			<path id="path-8" d="M32.75 46.78C32.75 46.78 34.94 48.11 39.32 50.77L32.75 52.63C32.75 48.73 32.75 46.78 32.75 46.78Z" fill="#B0E9FE" fill-opacity="1.000000" fill-rule="evenodd"/>
			<path id="path-8" d="M39.32 50.77L32.75 52.63C32.75 48.73 32.75 46.78 32.75 46.78C32.75 46.78 34.94 48.11 39.32 50.77Z" stroke="#000000" stroke-opacity="0" stroke-width="1.000000"/>
		</g>
		<mask id="mask45_1669" mask-type="alpha" maskUnits="userSpaceOnUse" x="32.760010" y="34.372314" width="7.597412" height="17.095703">
			<path id="path-7" d="M32.75 34.37C32.75 34.37 33.61 34.42 34.9 35.32C36.31 36.32 39.51 40.16 40.32 46.12C40.69 48.88 38.17 50.66 32.75 51.46C32.75 40.07 32.75 34.37 32.75 34.37Z" fill="#FFFFFF" fill-opacity="1.000000" fill-rule="nonzero"/>
		</mask>
		<g mask="url(#mask45_1669)">
			<path id="path-9" d="M32.75 50L38.05 51.64L32.75 52L32.75 50Z" fill="#2E6889" fill-opacity="1.000000" fill-rule="evenodd"/>
			<path id="path-9" d="M38.05 51.64L32.75 52L32.75 50L38.05 51.64Z" stroke="#000000" stroke-opacity="0" stroke-width="1.000000"/>
		</g>
		<mask id="mask45_1674" mask-type="alpha" maskUnits="userSpaceOnUse" x="32.760010" y="34.372314" width="7.597412" height="17.095703">
			<path id="path-7" d="M32.75 34.37C32.75 34.37 33.61 34.42 34.9 35.32C36.31 36.32 39.51 40.16 40.32 46.12C40.69 48.88 38.17 50.66 32.75 51.46C32.75 40.07 32.75 34.37 32.75 34.37Z" fill="#FFFFFF" fill-opacity="1.000000" fill-rule="nonzero"/>
		</mask>
		<g mask="url(#mask45_1674)">
			<path id="path-4" d="M32.75 42.91C32.93 42.91 34.12 43.2 36.31 43.79C36.94 43.96 37.31 44.6 37.14 45.24L36.7 46.48C36.56 46.86 36.28 47.18 35.91 47.37L32.75 48.94C32.75 45.92 32.75 43.9 32.75 42.91Z" fill="#08273B" fill-opacity="1.000000" fill-rule="evenodd"/>
			<path id="path-4" d="M36.31 43.79C36.94 43.96 37.31 44.6 37.14 45.24L36.7 46.48C36.56 46.86 36.28 47.18 35.91 47.37L32.75 48.94C32.75 45.92 32.75 43.9 32.75 42.91C32.93 42.91 34.12 43.2 36.31 43.79Z" stroke="#000000" stroke-opacity="0" stroke-width="1.000000"/>
			<path id="path-5" d="M32.75 44.07C32.85 44.07 33.93 44.34 36.01 44.89L32.75 46.78C32.75 45.7 32.75 44.79 32.75 44.07Z" fill="#224A66" fill-opacity="1.000000" fill-rule="evenodd"/>
			<path id="path-5" d="M36.01 44.89L32.75 46.78C32.75 45.7 32.75 44.79 32.75 44.07C32.85 44.07 33.93 44.34 36.01 44.89Z" stroke="#000000" stroke-opacity="0" stroke-width="1.000000"/>
			<circle id="ellipse" cx="34.850830" cy="46.859131" r="1.333333" fill="#03121F" fill-opacity="1.000000"/>
			<circle id="ellipse" cx="34.850830" cy="46.859131" r="1.333333" stroke="#000000" stroke-opacity="0" stroke-width="1.000000"/>
		</g>
		<path id="path-12" d="" fill="#000000" fill-opacity="0" fill-rule="nonzero"/>
		<path id="path-12" d="M32.75 13.88L38.65 13.88C38.91 13.88 39.16 13.96 39.37 14.11L40.06 14.59" stroke="#FFFFFF" stroke-opacity="1.000000" stroke-width="0.600000"/>
		<path id="path" d="M37.96 16.17C37.65 15.83 38.93 14.48 39.53 13.67C43.39 8.38 46.22 5.29 47.61 4.37C49.19 3.31 50.98 12.06 51.47 17.95C51.74 21.14 50.23 23.63 49.73 24.36C49.28 25.02 45.27 22.09 43.57 20.49C42.76 19.73 41.47 19 40.36 18.19C39.14 17.3 38.13 16.36 37.96 16.17Z" fill="#A54C00" fill-opacity="1.000000" fill-rule="evenodd"/>
		<path id="path" d="M39.53 13.67C43.39 8.38 46.22 5.29 47.61 4.37C49.19 3.31 50.98 12.06 51.47 17.95C51.74 21.14 50.23 23.63 49.73 24.36C49.28 25.02 45.27 22.09 43.57 20.49C42.76 19.73 41.47 19 40.36 18.19C39.14 17.3 38.13 16.36 37.96 16.17C37.65 15.83 38.93 14.48 39.53 13.67Z" stroke="#000000" stroke-opacity="0" stroke-width="1.000000"/>
		<path id="path-2" d="M47.63 6.58C45.78 9 44.41 10.74 43.52 11.79C42.64 12.85 41.52 14.27 40.18 16.04C40.71 16.74 41.14 17.27 41.47 17.64C41.8 18 42.28 18.49 42.93 19.1C43.48 18.97 43.89 18.87 44.15 18.78C44.41 18.7 44.71 18.59 45.06 18.44C45.38 18.84 45.63 19.13 45.82 19.31C46.01 19.48 46.52 19.84 47.36 20.37C48.04 18.25 48.44 16.25 48.56 14.37C48.67 12.49 48.37 9.89 47.63 6.58Z" fill="#803100" fill-opacity="1.000000" fill-rule="evenodd"/>
		<path id="path-2" d="M43.52 11.79C42.64 12.85 41.52 14.27 40.18 16.04C40.71 16.74 41.14 17.27 41.47 17.64C41.8 18 42.28 18.49 42.93 19.1C43.48 18.97 43.89 18.87 44.15 18.78C44.41 18.7 44.71 18.59 45.06 18.44C45.38 18.84 45.63 19.13 45.82 19.31C46.01 19.48 46.52 19.84 47.36 20.37C48.04 18.25 48.44 16.25 48.56 14.37C48.67 12.49 48.37 9.89 47.63 6.58C45.78 9 44.41 10.74 43.52 11.79Z" stroke="#000000" stroke-opacity="0" stroke-width="1.000000"/>
		<path id="path" d="" fill="#000000" fill-opacity="0" fill-rule="nonzero"/>
		<path id="path" d="M37.93 15.91C38.08 15.37 39.04 14.34 39.53 13.67C43.39 8.38 46.22 5.29 47.61 4.37C49.19 3.31 50.98 12.06 51.47 17.95C51.74 21.14 50.23 23.63 49.73 24.36" stroke="#FFFFFF" stroke-opacity="1.000000" stroke-width="0.600000"/>
		<path id="path-9" d="M37.23 34.84C38.01 36.37 38.7 37.18 39.29 37.27C39.88 37.36 41.48 36.73 44.1 35.36L45.77 33.13C45.52 32.93 45.33 32.77 45.21 32.65C45.1 32.52 44.93 32.31 44.72 32.02C42.88 32.54 41.54 32.96 40.7 33.27C39.86 33.59 38.71 34.11 37.23 34.84Z" fill="#050F1A" fill-opacity="1.000000" fill-rule="nonzero"/>
		<path id="path-9" d="M39.29 37.27C39.88 37.36 41.48 36.73 44.1 35.36L45.77 33.13C45.52 32.93 45.33 32.77 45.21 32.65C45.1 32.52 44.93 32.31 44.72 32.02C42.88 32.54 41.54 32.96 40.7 33.27C39.86 33.59 38.71 34.11 37.23 34.84C38.01 36.37 38.7 37.18 39.29 37.27Z" stroke="#000000" stroke-opacity="0" stroke-width="1.000000"/>
		<mask id="mask45_1691" mask-type="alpha" maskUnits="userSpaceOnUse" x="37.237793" y="32.024414" width="8.537109" height="5.260986">
			<path id="path-9" d="M37.23 34.84C38.01 36.37 38.7 37.18 39.29 37.27C39.88 37.36 41.48 36.73 44.1 35.36L45.77 33.13C45.52 32.93 45.33 32.77 45.21 32.65C45.1 32.52 44.93 32.31 44.72 32.02C42.88 32.54 41.54 32.96 40.7 33.27C39.86 33.59 38.71 34.11 37.23 34.84Z" fill="#FFFFFF" fill-opacity="1.000000" fill-rule="nonzero"/>
		</mask>
		<g mask="url(#mask45_1691)">
			<path id="path-11" d="M40.32 32.94C40.55 34.62 40.94 35.69 41.5 36.14C42.03 36.57 42.83 36.26 43.89 35.21C43.99 35.11 44.02 34.97 43.97 34.84L43.31 33.08C43.21 32.82 42.94 32.65 42.65 32.68L40.32 32.94Z" fill="#092338" fill-opacity="1.000000" fill-rule="nonzero"/>
			<path id="path-11" d="M41.5 36.14C42.03 36.57 42.83 36.26 43.89 35.21C43.99 35.11 44.02 34.97 43.97 34.84L43.31 33.08C43.21 32.82 42.94 32.65 42.65 32.68L40.32 32.94C40.55 34.62 40.94 35.69 41.5 36.14Z" stroke="#000000" stroke-opacity="0" stroke-width="1.000000"/>
			<mask id="mask45_1699" mask-type="alpha" maskUnits="userSpaceOnUse" x="40.321533" y="32.683105" width="3.674072" height="3.650879">
				<path id="path-11" d="M40.32 32.94C40.55 34.62 40.94 35.69 41.5 36.14C42.03 36.57 42.83 36.26 43.89 35.21C43.99 35.11 44.02 34.97 43.97 34.84L43.31 33.08C43.21 32.82 42.94 32.65 42.65 32.68L40.32 32.94Z" fill="#FFFFFF" fill-opacity="1.000000" fill-rule="nonzero"/>
			</mask>
			<g mask="url(#mask45_1699)">
				<path id="mask" d="M42.77 32.02L42.39 34.47C42.33 34.84 42.41 35.22 42.6 35.54L43.4 36.87L45.21 35.34L42.77 32.02Z" fill="#113147" fill-opacity="1.000000" fill-rule="evenodd"/>
				<path id="mask" d="M42.39 34.47C42.33 34.84 42.41 35.22 42.6 35.54L43.4 36.87L45.21 35.34L42.77 32.02L42.39 34.47Z" stroke="#000000" stroke-opacity="0" stroke-width="1.000000"/>
			</g>
			<mask id="mask45_1704" mask-type="alpha" maskUnits="userSpaceOnUse" x="40.321533" y="32.683105" width="3.674072" height="3.650879">
				<path id="path-11" d="M40.32 32.94C40.55 34.62 40.94 35.69 41.5 36.14C42.03 36.57 42.83 36.26 43.89 35.21C43.99 35.11 44.02 34.97 43.97 34.84L43.31 33.08C43.21 32.82 42.94 32.65 42.65 32.68L40.32 32.94Z" fill="#FFFFFF" fill-opacity="1.000000" fill-rule="nonzero"/>
			</mask>
			<g mask="url(#mask45_1704)">
				<path id="path-14" d="M42.18 31.88C42.18 31.97 42.22 32.97 42.3 34.89C42.3 34.96 42.37 35.02 42.44 35.02C42.77 34.96 43.06 34.89 43.26 34.82C43.5 34.74 43.85 34.59 44.32 34.37L43.26 31.72C42.54 31.74 42.18 31.79 42.18 31.88Z" fill="#365E77" fill-opacity="1.000000" fill-rule="evenodd"/>
				<path id="path-14" d="M42.3 34.89C42.3 34.96 42.37 35.02 42.44 35.02C42.77 34.96 43.06 34.89 43.26 34.82C43.5 34.74 43.85 34.59 44.32 34.37L43.26 31.72C42.54 31.74 42.18 31.79 42.18 31.88C42.18 31.97 42.22 32.97 42.3 34.89Z" stroke="#000000" stroke-opacity="0" stroke-width="1.000000"/>
			</g>
		</g>
		<mask id="mask45_1709" mask-type="alpha" maskUnits="userSpaceOnUse" x="36.109619" y="30.139648" width="10.023926" height="8.824707">
			<path id="path-9" d="M37.33 32.57C37.24 34.29 37.42 35.33 37.89 35.71C38.36 36.09 40.06 36.34 43.01 36.46L45.57 35.37C45.45 35.07 45.37 34.83 45.33 34.67C45.29 34.5 45.26 34.24 45.22 33.88C43.36 33.41 41.99 33.1 41.11 32.95C40.23 32.81 38.97 32.68 37.33 32.57Z" fill="#FFFFFF" fill-opacity="1.000000" fill-rule="nonzero"/>
		</mask>
		<g mask="url(#mask45_1709)">
			<circle id="ellipse" r="1.333333" transform="matrix(0.866025 0.5 -0.5 0.866025 41.5063 33.8855)" fill="#FFFFFF" fill-opacity="1.000000"/>
			<circle id="ellipse" r="1.333333" transform="matrix(0.866025 0.5 -0.5 0.866025 41.5063 33.8855)" stroke="#000000" stroke-opacity="0" stroke-width="1.000000"/>
		</g>
		<path id="path-13" d="M15.79 24.45C14.73 24.99 13.9 26.44 13.29 28.8C12.77 30.86 12.33 33.12 11.99 35.57C11.89 36.31 11.98 37.06 12.24 37.76C13.62 41.38 15.47 44.37 17.77 46.72C20.08 49.08 23.11 51.44 26.85 53.82C27.56 54.27 28.39 54.51 29.23 54.51L32.75 54.51L32.75 13.88L26.93 13.88C26.6 13.88 26.28 14.01 26.05 14.25L15.79 24.45Z" fill="#CB6E1A" fill-opacity="1.000000" fill-rule="nonzero"/>
		<path id="path-13" d="M13.29 28.8C12.77 30.86 12.33 33.12 11.99 35.57C11.89 36.31 11.98 37.06 12.24 37.76C13.62 41.38 15.47 44.37 17.77 46.72C20.08 49.08 23.11 51.44 26.85 53.82C27.56 54.27 28.39 54.51 29.23 54.51L32.75 54.51L32.75 13.88L26.93 13.88C26.6 13.88 26.28 14.01 26.05 14.25L15.79 24.45C14.73 24.99 13.9 26.44 13.29 28.8Z" stroke="#000000" stroke-opacity="0" stroke-width="1.000000"/>
		<mask id="mask45_1718" mask-type="alpha" maskUnits="userSpaceOnUse" x="11.955322" y="13.885498" width="20.804688" height="40.625977">
			<path id="path-13" d="M15.79 24.45C14.73 24.99 13.9 26.44 13.29 28.8C12.77 30.86 12.33 33.12 11.99 35.57C11.89 36.31 11.98 37.06 12.24 37.76C13.62 41.38 15.47 44.37 17.77 46.72C20.08 49.08 23.11 51.44 26.85 53.82C27.56 54.27 28.39 54.51 29.23 54.51L32.75 54.51L32.75 13.88L26.93 13.88C26.6 13.88 26.28 14.01 26.05 14.25L15.79 24.45Z" fill="#FFFFFF" fill-opacity="1.000000" fill-rule="nonzero"/>
		</mask>
		<g mask="url(#mask45_1718)">
			<path id="path" d="M30.35 37.58C30.12 35.53 29.84 33.97 29.5 32.91C29.16 31.84 28.52 30.52 27.58 28.94C24.38 28.27 22.02 27.66 20.51 27.13C19 26.6 17.16 25.58 15 24.05L11.85 25.29L10.82 37.58L21.83 54.58L32.75 54.58L30.35 37.58Z" fill="#FEA355" fill-opacity="1.000000" fill-rule="evenodd"/>
			<path id="path" d="M29.5 32.91C29.16 31.84 28.52 30.52 27.58 28.94C24.38 28.27 22.02 27.66 20.51 27.13C19 26.6 17.16 25.58 15 24.05L11.85 25.29L10.82 37.58L21.83 54.58L32.75 54.58L30.35 37.58C30.12 35.53 29.84 33.97 29.5 32.91Z" stroke="#000000" stroke-opacity="0" stroke-width="1.000000"/>
		</g>
		<mask id="mask45_1723" mask-type="alpha" maskUnits="userSpaceOnUse" x="11.955322" y="13.885498" width="20.804688" height="40.625977">
			<path id="path-13" d="M15.79 24.45C14.73 24.99 13.9 26.44 13.29 28.8C12.77 30.86 12.33 33.12 11.99 35.57C11.89 36.31 11.98 37.06 12.24 37.76C13.62 41.38 15.47 44.37 17.77 46.72C20.08 49.08 23.11 51.44 26.85 53.82C27.56 54.27 28.39 54.51 29.23 54.51L32.75 54.51L32.75 13.88L26.93 13.88C26.6 13.88 26.28 14.01 26.05 14.25L15.79 24.45Z" fill="#FFFFFF" fill-opacity="1.000000" fill-rule="nonzero"/>
		</mask>
		<g mask="url(#mask45_1723)">
			<path id="path-15" d="M10.58 40.38C16.41 36.26 21.59 37.85 26.13 45.17C26.96 46.5 32.12 47.81 32.75 48.94C35.04 53.01 33.93 56.11 29.43 58.23L10.58 40.38Z" fill="#FFFFFF" fill-opacity="1.000000" fill-rule="nonzero"/>
			<path id="path-15" d="M26.13 45.17C26.96 46.5 32.12 47.81 32.75 48.94C35.04 53.01 33.93 56.11 29.43 58.23L10.58 40.38C16.41 36.26 21.59 37.85 26.13 45.17Z" stroke="#000000" stroke-opacity="0" stroke-width="1.000000"/>
			<mask id="mask45_1731" mask-type="alpha" maskUnits="userSpaceOnUse" x="10.580811" y="38.156494" width="23.330078" height="20.076660">
				<path id="path-15" d="M10.58 40.38C16.41 36.26 21.59 37.85 26.13 45.17C26.96 46.5 32.12 47.81 32.75 48.94C35.04 53.01 33.93 56.11 29.43 58.23L10.58 40.38Z" fill="#FFFFFF" fill-opacity="1.000000" fill-rule="nonzero"/>
			</mask>
			<g mask="url(#mask45_1731)">
				<path id="path-10" d="M23.07 34.09C23.08 41.54 20.61 47.63 15.65 52.33C10.69 57.04 16.39 58.48 32.75 56.66L32.75 34.35L23.07 34.09Z" fill="#C8F4FD" fill-opacity="1.000000" fill-rule="evenodd"/>
				<path id="path-10" d="M15.65 52.33C10.69 57.04 16.39 58.48 32.75 56.66L32.75 34.35L23.07 34.09C23.08 41.54 20.61 47.63 15.65 52.33Z" stroke="#000000" stroke-opacity="0" stroke-width="1.000000"/>
			</g>
		</g>
		<path id="path-11" d="M26.78 44.16C26.52 44.3 25.18 45.26 22.74 47.05C24.82 50.28 26.67 52.01 28.29 52.23C29.92 52.45 31.41 52.19 32.75 51.45L32.75 44.16C29.03 44.02 27.03 44.02 26.78 44.16Z" fill="#87BFD9" fill-opacity="1.000000" fill-rule="evenodd"/>
		<path id="path-11" d="M22.74 47.05C24.82 50.28 26.67 52.01 28.29 52.23C29.92 52.45 31.41 52.19 32.75 51.45L32.75 44.16C29.03 44.02 27.03 44.02 26.78 44.16C26.52 44.3 25.18 45.26 22.74 47.05Z" stroke="#000000" stroke-opacity="0" stroke-width="1.000000"/>
		<path id="path-17" d="M32.75 34.37C32.75 34.37 31.9 34.42 30.61 35.32C29.2 36.32 26 40.16 25.19 46.12C24.82 48.88 27.34 50.66 32.75 51.46C32.75 40.07 32.75 34.37 32.75 34.37Z" fill="#FFFFFF" fill-opacity="1.000000" fill-rule="nonzero"/>
		<path id="path-17" d="M30.61 35.32C29.2 36.32 26 40.16 25.19 46.12C24.82 48.88 27.34 50.66 32.75 51.46C32.75 40.07 32.75 34.37 32.75 34.37C32.75 34.37 31.9 34.42 30.61 35.32Z" stroke="#000000" stroke-opacity="0" stroke-width="1.000000"/>
		<mask id="mask45_1740" mask-type="alpha" maskUnits="userSpaceOnUse" x="25.162842" y="34.372314" width="7.597412" height="17.095703">
			<path id="path-17" d="M32.75 34.37C32.75 34.37 31.9 34.42 30.61 35.32C29.2 36.32 26 40.16 25.19 46.12C24.82 48.88 27.34 50.66 32.75 51.46C32.75 40.07 32.75 34.37 32.75 34.37Z" fill="#FFFFFF" fill-opacity="1.000000" fill-rule="nonzero"/>
		</mask>
		<g mask="url(#mask45_1740)">
			<path id="path-6" d="M32.75 33.79L32.75 38.47C32.14 38.48 31.49 38.34 30.82 38.05C30.15 37.76 29.47 37 28.78 35.78L32.75 33.79Z" fill="#D5FBFE" fill-opacity="1.000000" fill-rule="evenodd"/>
			<path id="path-6" d="M32.75 38.47C32.14 38.48 31.49 38.34 30.82 38.05C30.15 37.76 29.47 37 28.78 35.78L32.75 33.79L32.75 38.47Z" stroke="#000000" stroke-opacity="0" stroke-width="1.000000"/>
		</g>
		<mask id="mask45_1745" mask-type="alpha" maskUnits="userSpaceOnUse" x="25.162842" y="34.372314" width="7.597412" height="17.095703">
			<path id="path-17" d="M32.75 34.37C32.75 34.37 31.9 34.42 30.61 35.32C29.2 36.32 26 40.16 25.19 46.12C24.82 48.88 27.34 50.66 32.75 51.46C32.75 40.07 32.75 34.37 32.75 34.37Z" fill="#FFFFFF" fill-opacity="1.000000" fill-rule="nonzero"/>
		</mask>
		<g mask="url(#mask45_1745)">
			<path id="path-8" d="M32.75 46.78C32.75 46.78 30.57 48.11 26.19 50.77L32.75 52.63C32.75 48.73 32.75 46.78 32.75 46.78Z" fill="#B0E9FE" fill-opacity="1.000000" fill-rule="evenodd"/>
			<path id="path-8" d="M26.19 50.77L32.75 52.63C32.75 48.73 32.75 46.78 32.75 46.78C32.75 46.78 30.57 48.11 26.19 50.77Z" stroke="#000000" stroke-opacity="0" stroke-width="1.000000"/>
		</g>
		<mask id="mask45_1750" mask-type="alpha" maskUnits="userSpaceOnUse" x="25.162842" y="34.372314" width="7.597412" height="17.095703">
			<path id="path-17" d="M32.75 34.37C32.75 34.37 31.9 34.42 30.61 35.32C29.2 36.32 26 40.16 25.19 46.12C24.82 48.88 27.34 50.66 32.75 51.46C32.75 40.07 32.75 34.37 32.75 34.37Z" fill="#FFFFFF" fill-opacity="1.000000" fill-rule="nonzero"/>
		</mask>
		<g mask="url(#mask45_1750)">
			<path id="path-9" d="M32.75 50L27.46 51.64L32.75 52L32.75 50Z" fill="#2E6889" fill-opacity="1.000000" fill-rule="evenodd"/>
			<path id="path-9" d="M27.46 51.64L32.75 52L32.75 50L27.46 51.64Z" stroke="#000000" stroke-opacity="0" stroke-width="1.000000"/>
		</g>
		<mask id="mask45_1755" mask-type="alpha" maskUnits="userSpaceOnUse" x="25.162842" y="34.372314" width="7.597412" height="17.095703">
			<path id="path-17" d="M32.75 34.37C32.75 34.37 31.9 34.42 30.61 35.32C29.2 36.32 26 40.16 25.19 46.12C24.82 48.88 27.34 50.66 32.75 51.46C32.75 40.07 32.75 34.37 32.75 34.37Z" fill="#FFFFFF" fill-opacity="1.000000" fill-rule="nonzero"/>
		</mask>
		<g mask="url(#mask45_1755)">
			<path id="path-4" d="M32.75 42.91C32.58 42.91 31.39 43.2 29.21 43.79C28.57 43.96 28.2 44.6 28.37 45.24L28.81 46.48C28.95 46.86 29.23 47.18 29.6 47.37L32.75 48.94C32.75 45.92 32.75 43.9 32.75 42.91Z" fill="#08273B" fill-opacity="1.000000" fill-rule="evenodd"/>
			<path id="path-4" d="M29.21 43.79C28.57 43.96 28.2 44.6 28.37 45.24L28.81 46.48C28.95 46.86 29.23 47.18 29.6 47.37L32.75 48.94C32.75 45.92 32.75 43.9 32.75 42.91C32.58 42.91 31.39 43.2 29.21 43.79Z" stroke="#000000" stroke-opacity="0" stroke-width="1.000000"/>
			<path id="path-5" d="M32.75 44.07C32.66 44.07 31.58 44.34 29.5 44.89L32.75 46.78C32.75 45.7 32.75 44.79 32.75 44.07Z" fill="#224A66" fill-opacity="1.000000" fill-rule="evenodd"/>
			<path id="path-5" d="M29.5 44.89L32.75 46.78C32.75 45.7 32.75 44.79 32.75 44.07C32.66 44.07 31.58 44.34 29.5 44.89Z" stroke="#000000" stroke-opacity="0" stroke-width="1.000000"/>
			<circle id="ellipse" r="1.333333" transform="matrix(-1 0 0 1 30.6694 46.8591)" fill="#03121F" fill-opacity="1.000000"/>
			<circle id="ellipse" r="1.333333" transform="matrix(-1 0 0 1 30.6694 46.8591)" stroke="#000000" stroke-opacity="0" stroke-width="1.000000"/>
		</g>
		<path id="path-12" d="" fill="#000000" fill-opacity="0" fill-rule="nonzero"/>
		<path id="path-12" d="M32.75 13.88L26.86 13.88C26.6 13.88 26.35 13.96 26.14 14.11L25.46 14.59" stroke="#FFFFFF" stroke-opacity="1.000000" stroke-width="0.600000"/>
		<path id="path" d="M27.55 16.17C27.86 15.83 26.58 14.48 25.98 13.67C22.12 8.38 19.29 5.29 17.9 4.37C16.32 3.31 14.53 12.06 14.04 17.95C13.77 21.14 15.28 23.63 15.78 24.36C16.23 25.02 20.24 22.09 21.94 20.49C22.75 19.73 24.04 19 25.15 18.19C26.38 17.3 27.38 16.36 27.55 16.17Z" fill="#A54C00" fill-opacity="1.000000" fill-rule="evenodd"/>
		<path id="path" d="M25.98 13.67C22.12 8.38 19.29 5.29 17.9 4.37C16.32 3.31 14.53 12.06 14.04 17.95C13.77 21.14 15.28 23.63 15.78 24.36C16.23 25.02 20.24 22.09 21.94 20.49C22.75 19.73 24.04 19 25.15 18.19C26.38 17.3 27.38 16.36 27.55 16.17C27.86 15.83 26.58 14.48 25.98 13.67Z" stroke="#000000" stroke-opacity="0" stroke-width="1.000000"/>
		<path id="path-2" d="M17.88 6.58C19.73 9 21.1 10.74 21.99 11.79C22.87 12.85 23.99 14.27 25.33 16.04C24.8 16.74 24.37 17.27 24.04 17.64C23.71 18 23.23 18.49 22.58 19.1C22.03 18.97 21.62 18.87 21.36 18.78C21.1 18.7 20.8 18.59 20.45 18.44C20.13 18.84 19.88 19.13 19.69 19.31C19.5 19.48 18.99 19.84 18.15 20.37C17.47 18.25 17.07 16.25 16.95 14.37C16.84 12.49 17.14 9.89 17.88 6.58Z" fill="#803100" fill-opacity="1.000000" fill-rule="evenodd"/>
		<path id="path-2" d="M21.99 11.79C22.87 12.85 23.99 14.27 25.33 16.04C24.8 16.74 24.37 17.27 24.04 17.64C23.71 18 23.23 18.49 22.58 19.1C22.03 18.97 21.62 18.87 21.36 18.78C21.1 18.7 20.8 18.59 20.45 18.44C20.13 18.84 19.88 19.13 19.69 19.31C19.5 19.48 18.99 19.84 18.15 20.37C17.47 18.25 17.07 16.25 16.95 14.37C16.84 12.49 17.14 9.89 17.88 6.58C19.73 9 21.1 10.74 21.99 11.79Z" stroke="#000000" stroke-opacity="0" stroke-width="1.000000"/>
		<path id="path" d="" fill="#000000" fill-opacity="0" fill-rule="nonzero"/>
		<path id="path" d="M27.58 15.91C27.43 15.37 26.47 14.34 25.98 13.67C22.12 8.38 19.29 5.29 17.9 4.37C16.32 3.31 14.53 12.06 14.04 17.95C13.77 21.14 15.28 23.63 15.78 24.36" stroke="#FFFFFF" stroke-opacity="1.000000" stroke-width="0.600000"/>
		<path id="path-19" d="M28.28 34.84C27.5 36.37 26.81 37.18 26.22 37.27C25.63 37.36 24.03 36.73 21.41 35.36L19.74 33.13C19.99 32.93 20.18 32.77 20.3 32.65C20.42 32.52 20.58 32.31 20.79 32.02C22.63 32.54 23.97 32.96 24.81 33.27C25.65 33.59 26.8 34.11 28.28 34.84Z" fill="#050F1A" fill-opacity="1.000000" fill-rule="nonzero"/>
		<path id="path-19" d="M26.22 37.27C25.63 37.36 24.03 36.73 21.41 35.36L19.74 33.13C19.99 32.93 20.18 32.77 20.3 32.65C20.42 32.52 20.58 32.31 20.79 32.02C22.63 32.54 23.97 32.96 24.81 33.27C25.65 33.59 26.8 34.11 28.28 34.84C27.5 36.37 26.81 37.18 26.22 37.27Z" stroke="#000000" stroke-opacity="0" stroke-width="1.000000"/>
		<mask id="mask45_1772" mask-type="alpha" maskUnits="userSpaceOnUse" x="19.745361" y="32.024658" width="8.537109" height="5.260986">
			<path id="path-19" d="M28.28 34.84C27.5 36.37 26.81 37.18 26.22 37.27C25.63 37.36 24.03 36.73 21.41 35.36L19.74 33.13C19.99 32.93 20.18 32.77 20.3 32.65C20.42 32.52 20.58 32.31 20.79 32.02C22.63 32.54 23.97 32.96 24.81 33.27C25.65 33.59 26.8 34.11 28.28 34.84Z" fill="#FFFFFF" fill-opacity="1.000000" fill-rule="nonzero"/>
		</mask>
		<g mask="url(#mask45_1772)">
			<path id="path-21" d="M25.19 32.94C24.96 34.62 24.57 35.69 24.01 36.14C23.48 36.57 22.68 36.26 21.62 35.21C21.53 35.11 21.49 34.97 21.54 34.84L22.2 33.08C22.3 32.82 22.57 32.65 22.86 32.68L25.19 32.94Z" fill="#092338" fill-opacity="1.000000" fill-rule="nonzero"/>
			<path id="path-21" d="M24.01 36.14C23.48 36.57 22.68 36.26 21.62 35.21C21.53 35.11 21.49 34.97 21.54 34.84L22.2 33.08C22.3 32.82 22.57 32.65 22.86 32.68L25.19 32.94C24.96 34.62 24.57 35.69 24.01 36.14Z" stroke="#000000" stroke-opacity="0" stroke-width="1.000000"/>
			<mask id="mask45_1780" mask-type="alpha" maskUnits="userSpaceOnUse" x="21.524414" y="32.683105" width="3.674072" height="3.650879">
				<path id="path-21" d="M25.19 32.94C24.96 34.62 24.57 35.69 24.01 36.14C23.48 36.57 22.68 36.26 21.62 35.21C21.53 35.11 21.49 34.97 21.54 34.84L22.2 33.08C22.3 32.82 22.57 32.65 22.86 32.68L25.19 32.94Z" fill="#FFFFFF" fill-opacity="1.000000" fill-rule="nonzero"/>
			</mask>
			<g mask="url(#mask45_1780)">
				<path id="mask" d="M22.74 32.02L23.12 34.47C23.18 34.84 23.1 35.22 22.91 35.54L22.11 36.87L20.3 35.34L22.74 32.02Z" fill="#113147" fill-opacity="1.000000" fill-rule="evenodd"/>
				<path id="mask" d="M23.12 34.47C23.18 34.84 23.1 35.22 22.91 35.54L22.11 36.87L20.3 35.34L22.74 32.02L23.12 34.47Z" stroke="#000000" stroke-opacity="0" stroke-width="1.000000"/>
			</g>
			<mask id="mask45_1785" mask-type="alpha" maskUnits="userSpaceOnUse" x="21.524414" y="32.683105" width="3.674072" height="3.650879">
				<path id="path-21" d="M25.19 32.94C24.96 34.62 24.57 35.69 24.01 36.14C23.48 36.57 22.68 36.26 21.62 35.21C21.53 35.11 21.49 34.97 21.54 34.84L22.2 33.08C22.3 32.82 22.57 32.65 22.86 32.68L25.19 32.94Z" fill="#FFFFFF" fill-opacity="1.000000" fill-rule="nonzero"/>
			</mask>
			<g mask="url(#mask45_1785)">
				<path id="path-14" d="M23.33 31.88C23.33 31.97 23.29 32.97 23.21 34.89C23.21 34.97 23.14 35.02 23.07 35.02C22.74 34.96 22.45 34.89 22.25 34.82C22.01 34.74 21.66 34.59 21.19 34.37L22.25 31.72C22.97 31.74 23.33 31.79 23.33 31.88Z" fill="#365E77" fill-opacity="1.000000" fill-rule="evenodd"/>
				<path id="path-14" d="M23.21 34.89C23.21 34.97 23.14 35.02 23.07 35.02C22.74 34.96 22.45 34.89 22.25 34.82C22.01 34.74 21.66 34.59 21.19 34.37L22.25 31.72C22.97 31.74 23.33 31.79 23.33 31.88C23.33 31.97 23.29 32.97 23.21 34.89Z" stroke="#000000" stroke-opacity="0" stroke-width="1.000000"/>
			</g>
		</g>
		<mask id="mask45_1790" mask-type="alpha" maskUnits="userSpaceOnUse" x="19.386719" y="30.139648" width="10.023926" height="8.824707">
			<path id="path-19" d="M28.18 32.57C28.28 34.29 28.09 35.33 27.62 35.71C27.15 36.09 25.45 36.34 22.5 36.46L19.94 35.37C20.06 35.07 20.14 34.83 20.18 34.67C20.22 34.5 20.25 34.24 20.29 33.88C22.15 33.41 23.52 33.1 24.4 32.95C25.28 32.81 26.54 32.68 28.18 32.57Z" fill="#FFFFFF" fill-opacity="1.000000" fill-rule="nonzero"/>
		</mask>
		<g mask="url(#mask45_1790)">
			<circle id="ellipse" r="1.333333" transform="matrix(-0.866025 0.500001 0.500001 0.866025 24.0139 33.8855)" fill="#FFFFFF" fill-opacity="1.000000"/>
			<circle id="ellipse" r="1.333333" transform="matrix(-0.866025 0.500001 0.500001 0.866025 24.0139 33.8855)" stroke="#000000" stroke-opacity="0" stroke-width="1.000000"/>
		</g>
		<path id="path-24" d="M49.72 24.45C50.78 24.99 51.61 26.44 52.22 28.8C52.74 30.86 53.18 33.12 53.52 35.57C53.62 36.31 53.53 37.06 53.27 37.76C51.89 41.38 50.04 44.37 47.74 46.72C45.43 49.08 42.4 51.44 38.66 53.82C37.95 54.27 37.12 54.51 36.28 54.51L32.75 54.51L32.75 13.88L38.58 13.88C38.91 13.88 39.23 14.01 39.46 14.25L49.72 24.45Z" fill="url(#paint_linear_45_1795_0)" fill-opacity="1.000000" fill-rule="nonzero"/>
		<path id="path-24" d="M52.22 28.8C52.74 30.86 53.18 33.12 53.52 35.57C53.62 36.31 53.53 37.06 53.27 37.76C51.89 41.38 50.04 44.37 47.74 46.72C45.43 49.08 42.4 51.44 38.66 53.82C37.95 54.27 37.12 54.51 36.28 54.51L32.75 54.51L32.75 13.88L38.58 13.88C38.91 13.88 39.23 14.01 39.46 14.25L49.72 24.45C50.78 24.99 51.61 26.44 52.22 28.8Z" stroke="#000000" stroke-opacity="0" stroke-width="1.000000"/>
		<mask id="mask45_1798" mask-type="alpha" maskUnits="userSpaceOnUse" x="32.760010" y="13.885498" width="20.804688" height="40.625977">
			<path id="path-24" d="M49.72 24.45C50.78 24.99 51.61 26.44 52.22 28.8C52.74 30.86 53.18 33.12 53.52 35.57C53.62 36.31 53.53 37.06 53.27 37.76C51.89 41.38 50.04 44.37 47.74 46.72C45.43 49.08 42.4 51.44 38.66 53.82C37.95 54.27 37.12 54.51 36.28 54.51L32.75 54.51L32.75 13.88L38.58 13.88C38.91 13.88 39.23 14.01 39.46 14.25L49.72 24.45Z" fill="#FFFFFF" fill-opacity="1.000000" fill-rule="nonzero"/>
		</mask>
		<g mask="url(#mask45_1798)">
			<path id="path-27" d="M35.16 37.58C35.39 35.53 35.67 33.97 36.01 32.91C36.35 31.84 36.99 30.52 37.93 28.94C41.13 28.27 43.49 27.66 45 27.13C46.51 26.6 48.35 25.58 50.51 24.05L53.66 25.29L54.69 37.58L43.68 54.58L32.75 54.58L35.16 37.58Z" fill="url(#paint_linear_45_1803_0)" fill-opacity="1.000000" fill-rule="nonzero"/>
			<path id="path-27" d="M36.01 32.91C36.35 31.84 36.99 30.52 37.93 28.94C41.13 28.27 43.49 27.66 45 27.13C46.51 26.6 48.35 25.58 50.51 24.05L53.66 25.29L54.69 37.58L43.68 54.58L32.75 54.58L35.16 37.58C35.39 35.53 35.67 33.97 36.01 32.91Z" stroke="#000000" stroke-opacity="0" stroke-width="1.000000"/>
			<mask id="mask45_1806" mask-type="alpha" maskUnits="userSpaceOnUse" x="32.760010" y="24.059326" width="21.935303" height="30.521729">
				<path id="path-27" d="M35.16 37.58C35.39 35.53 35.67 33.97 36.01 32.91C36.35 31.84 36.99 30.52 37.93 28.94C41.13 28.27 43.49 27.66 45 27.13C46.51 26.6 48.35 25.58 50.51 24.05L53.66 25.29L54.69 37.58L43.68 54.58L32.75 54.58L35.16 37.58Z" fill="#FFFFFF" fill-opacity="1.000000" fill-rule="nonzero"/>
			</mask>
			<g mask="url(#mask45_1806)">
				<line id="path-16" x1="47.360352" y1="23.711670" x2="46.628662" y2="29.363770" stroke="#8BF2FF" stroke-opacity="1.000000" stroke-width="0.600000"/>
				<circle id="ellipse" cx="48.231445" cy="31.415771" r="1.333333" fill="#000000" fill-opacity="0"/>
				<circle id="ellipse" cx="48.231445" cy="31.415771" r="1.333333" stroke="#8BF2FF" stroke-opacity="1.000000" stroke-width="0.600000"/>
				<circle id="ellipse" cx="50.670654" cy="35.867920" r="1.333333" fill="#000000" fill-opacity="0"/>
				<circle id="ellipse" cx="50.670654" cy="35.867920" r="1.333333" stroke="#8BF2FF" stroke-opacity="1.000000" stroke-width="0.600000"/>
				<circle id="ellipse" cx="44.955811" cy="37.815674" r="1.333333" fill="#000000" fill-opacity="0"/>
				<circle id="ellipse" cx="44.955811" cy="37.815674" r="1.333333" stroke="#8BF2FF" stroke-opacity="1.000000" stroke-width="0.600000"/>
				<line id="path-18" x1="48.259521" y1="32.024414" x2="48.259521" y2="35.050537" stroke="#8BF2FF" stroke-opacity="1.000000" stroke-width="0.600000"/>
				<line id="path-19" x1="50.566162" y1="36.424561" x2="47.343018" y2="40.337646" stroke="#8BF2FF" stroke-opacity="1.000000" stroke-width="0.600000"/>
				<line id="path-20" x1="49.276611" y1="33.885498" x2="50.426514" y2="35.381104" stroke="#8BF2FF" stroke-opacity="1.000000" stroke-width="0.600000"/>
				<line id="path-22" x1="36.558350" y1="38.476562" x2="44.398682" y2="37.919922" stroke="#8BF2FF" stroke-opacity="1.000000" stroke-width="0.600000"/>
				<path id="path-23" d="" fill="#000000" fill-opacity="0" fill-rule="nonzero"/>
				<path id="path-23" d="M44.71 30.85L41.5 29.64L34.85 33.39" stroke="#8BF2FF" stroke-opacity="1.000000" stroke-width="0.600000"/>
				<line id="path-17" x1="46.994385" y1="27.433350" x2="52.900635" y2="28.268066" stroke="#8BF2FF" stroke-opacity="1.000000" stroke-width="0.600000"/>
			</g>
		</g>
		<mask id="mask45_1822" mask-type="alpha" maskUnits="userSpaceOnUse" x="32.760010" y="13.885498" width="20.804688" height="40.625977">
			<path id="path-24" d="M49.72 24.45C50.78 24.99 51.61 26.44 52.22 28.8C52.74 30.86 53.18 33.12 53.52 35.57C53.62 36.31 53.53 37.06 53.27 37.76C51.89 41.38 50.04 44.37 47.74 46.72C45.43 49.08 42.4 51.44 38.66 53.82C37.95 54.27 37.12 54.51 36.28 54.51L32.75 54.51L32.75 13.88L38.58 13.88C38.91 13.88 39.23 14.01 39.46 14.25L49.72 24.45Z" fill="#FFFFFF" fill-opacity="1.000000" fill-rule="nonzero"/>
		</mask>
		<g mask="url(#mask45_1822)">
			<path id="path-29" d="M54.93 40.38C49.1 36.26 43.92 37.85 39.38 45.17C38.55 46.5 33.39 47.81 32.75 48.94C30.47 53.01 31.58 56.11 36.08 58.23L54.93 40.38Z" fill="#FFFFFF" fill-opacity="1.000000" fill-rule="nonzero"/>
			<path id="path-29" d="M39.38 45.17C38.55 46.5 33.39 47.81 32.75 48.94C30.47 53.01 31.58 56.11 36.08 58.23L54.93 40.38C49.1 36.26 43.92 37.85 39.38 45.17Z" stroke="#000000" stroke-opacity="0" stroke-width="1.000000"/>
			<mask id="mask45_1830" mask-type="alpha" maskUnits="userSpaceOnUse" x="31.609131" y="38.156494" width="23.330078" height="20.076660">
				<path id="path-29" d="M54.93 40.38C49.1 36.26 43.92 37.85 39.38 45.17C38.55 46.5 33.39 47.81 32.75 48.94C30.47 53.01 31.58 56.11 36.08 58.23L54.93 40.38Z" fill="#FFFFFF" fill-opacity="1.000000" fill-rule="nonzero"/>
			</mask>
			<g mask="url(#mask45_1830)">
				<path id="path-10" d="M42.44 34.09C42.43 41.54 44.9 47.63 49.86 52.33C54.82 57.04 49.12 58.48 32.75 56.66L32.75 34.35L42.44 34.09Z" fill="#C8F4FD" fill-opacity="1.000000" fill-rule="evenodd"/>
				<path id="path-10" d="M49.86 52.33C54.82 57.04 49.12 58.48 32.75 56.66L32.75 34.35L42.44 34.09C42.43 41.54 44.9 47.63 49.86 52.33Z" stroke="#000000" stroke-opacity="0" stroke-width="1.000000"/>
			</g>
		</g>
		<path id="path-11" d="M38.73 44.16C38.99 44.3 40.33 45.26 42.77 47.05C40.69 50.28 38.84 52.01 37.22 52.23C35.59 52.45 34.1 52.19 32.75 51.45L32.75 44.16C36.48 44.02 38.48 44.02 38.73 44.16Z" fill="#87BFD9" fill-opacity="1.000000" fill-rule="evenodd"/>
		<path id="path-11" d="M42.77 47.05C40.69 50.28 38.84 52.01 37.22 52.23C35.59 52.45 34.1 52.19 32.75 51.45L32.75 44.16C36.48 44.02 38.48 44.02 38.73 44.16C38.99 44.3 40.33 45.26 42.77 47.05Z" stroke="#000000" stroke-opacity="0" stroke-width="1.000000"/>
		<path id="path-31" d="M32.75 34.37C32.75 34.37 33.61 34.42 34.9 35.32C36.31 36.32 39.51 40.16 40.32 46.12C40.69 48.88 38.17 50.66 32.75 51.46C32.75 40.07 32.75 34.37 32.75 34.37Z" fill="#FFFFFF" fill-opacity="1.000000" fill-rule="nonzero"/>
		<path id="path-31" d="M34.9 35.32C36.31 36.32 39.51 40.16 40.32 46.12C40.69 48.88 38.17 50.66 32.75 51.46C32.75 40.07 32.75 34.37 32.75 34.37C32.75 34.37 33.61 34.42 34.9 35.32Z" stroke="#000000" stroke-opacity="0" stroke-width="1.000000"/>
		<mask id="mask45_1839" mask-type="alpha" maskUnits="userSpaceOnUse" x="32.760010" y="34.372314" width="7.597412" height="17.095703">
			<path id="path-31" d="M32.75 34.37C32.75 34.37 33.61 34.42 34.9 35.32C36.31 36.32 39.51 40.16 40.32 46.12C40.69 48.88 38.17 50.66 32.75 51.46C32.75 40.07 32.75 34.37 32.75 34.37Z" fill="#FFFFFF" fill-opacity="1.000000" fill-rule="nonzero"/>
		</mask>
		<g mask="url(#mask45_1839)">
			<path id="path-6" d="M32.75 33.79L32.75 38.47C33.37 38.48 34.02 38.34 34.69 38.05C35.36 37.76 36.04 37 36.73 35.78L32.75 33.79Z" fill="#D5FBFE" fill-opacity="1.000000" fill-rule="evenodd"/>
			<path id="path-6" d="M32.75 38.47C33.37 38.48 34.02 38.34 34.69 38.05C35.36 37.76 36.04 37 36.73 35.78L32.75 33.79L32.75 38.47Z" stroke="#000000" stroke-opacity="0" stroke-width="1.000000"/>
		</g>
		<mask id="mask45_1844" mask-type="alpha" maskUnits="userSpaceOnUse" x="32.760010" y="34.372314" width="7.597412" height="17.095703">
			<path id="path-31" d="M32.75 34.37C32.75 34.37 33.61 34.42 34.9 35.32C36.31 36.32 39.51 40.16 40.32 46.12C40.69 48.88 38.17 50.66 32.75 51.46C32.75 40.07 32.75 34.37 32.75 34.37Z" fill="#FFFFFF" fill-opacity="1.000000" fill-rule="nonzero"/>
		</mask>
		<g mask="url(#mask45_1844)">
			<path id="path-8" d="M32.75 46.78C32.75 46.78 34.94 48.11 39.32 50.77L32.75 52.63C32.75 48.73 32.75 46.78 32.75 46.78Z" fill="#B0E9FE" fill-opacity="1.000000" fill-rule="evenodd"/>
			<path id="path-8" d="M39.32 50.77L32.75 52.63C32.75 48.73 32.75 46.78 32.75 46.78C32.75 46.78 34.94 48.11 39.32 50.77Z" stroke="#000000" stroke-opacity="0" stroke-width="1.000000"/>
		</g>
		<mask id="mask45_1849" mask-type="alpha" maskUnits="userSpaceOnUse" x="32.760010" y="34.372314" width="7.597412" height="17.095703">
			<path id="path-31" d="M32.75 34.37C32.75 34.37 33.61 34.42 34.9 35.32C36.31 36.32 39.51 40.16 40.32 46.12C40.69 48.88 38.17 50.66 32.75 51.46C32.75 40.07 32.75 34.37 32.75 34.37Z" fill="#FFFFFF" fill-opacity="1.000000" fill-rule="nonzero"/>
		</mask>
		<g mask="url(#mask45_1849)">
			<path id="path-9" d="M32.75 50L38.05 51.64L32.75 52L32.75 50Z" fill="#2E6889" fill-opacity="1.000000" fill-rule="evenodd"/>
			<path id="path-9" d="M38.05 51.64L32.75 52L32.75 50L38.05 51.64Z" stroke="#000000" stroke-opacity="0" stroke-width="1.000000"/>
		</g>
		<mask id="mask45_1854" mask-type="alpha" maskUnits="userSpaceOnUse" x="32.760010" y="34.372314" width="7.597412" height="17.095703">
			<path id="path-31" d="M32.75 34.37C32.75 34.37 33.61 34.42 34.9 35.32C36.31 36.32 39.51 40.16 40.32 46.12C40.69 48.88 38.17 50.66 32.75 51.46C32.75 40.07 32.75 34.37 32.75 34.37Z" fill="#FFFFFF" fill-opacity="1.000000" fill-rule="nonzero"/>
		</mask>
		<g mask="url(#mask45_1854)">
			<path id="path-4" d="M32.75 42.91C32.93 42.91 34.12 43.2 36.31 43.79C36.94 43.96 37.31 44.6 37.14 45.24L36.7 46.48C36.56 46.86 36.28 47.18 35.91 47.37L32.75 48.94C32.75 45.92 32.75 43.9 32.75 42.91Z" fill="#08273B" fill-opacity="1.000000" fill-rule="evenodd"/>
			<path id="path-4" d="M36.31 43.79C36.94 43.96 37.31 44.6 37.14 45.24L36.7 46.48C36.56 46.86 36.28 47.18 35.91 47.37L32.75 48.94C32.75 45.92 32.75 43.9 32.75 42.91C32.93 42.91 34.12 43.2 36.31 43.79Z" stroke="#000000" stroke-opacity="0" stroke-width="1.000000"/>
			<path id="path-5" d="M32.75 44.07C32.85 44.07 33.93 44.34 36.01 44.89L32.75 46.78C32.75 45.7 32.75 44.79 32.75 44.07Z" fill="#224A66" fill-opacity="1.000000" fill-rule="evenodd"/>
			<path id="path-5" d="M36.01 44.89L32.75 46.78C32.75 45.7 32.75 44.79 32.75 44.07C32.85 44.07 33.93 44.34 36.01 44.89Z" stroke="#000000" stroke-opacity="0" stroke-width="1.000000"/>
			<circle id="ellipse" cx="34.850830" cy="46.859131" r="1.333333" fill="#03121F" fill-opacity="1.000000"/>
			<circle id="ellipse" cx="34.850830" cy="46.859131" r="1.333333" stroke="#000000" stroke-opacity="0" stroke-width="1.000000"/>
		</g>
		<path id="path-12" d="" fill="#000000" fill-opacity="0" fill-rule="nonzero"/>
		<path id="path-12" d="M32.75 13.88L38.65 13.88C38.91 13.88 39.16 13.96 39.37 14.11L40.06 14.59" stroke="#FFFFFF" stroke-opacity="1.000000" stroke-width="0.600000"/>
		<path id="path" d="M37.96 16.17C37.65 15.83 38.93 14.48 39.53 13.67C43.39 8.38 46.22 5.29 47.61 4.37C49.19 3.31 50.98 12.06 51.47 17.95C51.74 21.14 50.23 23.63 49.73 24.36C49.28 25.02 45.27 22.09 43.57 20.49C42.76 19.73 41.47 19 40.36 18.19C39.14 17.3 38.13 16.36 37.96 16.17Z" fill="url(#paint_linear_45_1863_0)" fill-opacity="1.000000" fill-rule="evenodd"/>
		<path id="path" d="M39.53 13.67C43.39 8.38 46.22 5.29 47.61 4.37C49.19 3.31 50.98 12.06 51.47 17.95C51.74 21.14 50.23 23.63 49.73 24.36C49.28 25.02 45.27 22.09 43.57 20.49C42.76 19.73 41.47 19 40.36 18.19C39.14 17.3 38.13 16.36 37.96 16.17C37.65 15.83 38.93 14.48 39.53 13.67Z" stroke="#000000" stroke-opacity="0" stroke-width="1.000000"/>
		<path id="path-35" d="M47.63 6.58C45.78 9 44.41 10.74 43.52 11.79C42.64 12.85 41.52 14.27 40.18 16.04C40.71 16.74 41.14 17.27 41.47 17.64C41.8 18 42.28 18.49 42.93 19.1C43.48 18.97 43.89 18.87 44.15 18.78C44.41 18.7 44.71 18.59 45.06 18.44C45.38 18.84 45.63 19.13 45.82 19.31C46.01 19.48 46.52 19.84 47.36 20.37C48.04 18.25 48.44 16.25 48.56 14.37C48.67 12.49 48.37 9.89 47.63 6.58Z" fill="url(#paint_linear_45_1866_0)" fill-opacity="1.000000" fill-rule="nonzero"/>
		<path id="path-35" d="M43.52 11.79C42.64 12.85 41.52 14.27 40.18 16.04C40.71 16.74 41.14 17.27 41.47 17.64C41.8 18 42.28 18.49 42.93 19.1C43.48 18.97 43.89 18.87 44.15 18.78C44.41 18.7 44.71 18.59 45.06 18.44C45.38 18.84 45.63 19.13 45.82 19.31C46.01 19.48 46.52 19.84 47.36 20.37C48.04 18.25 48.44 16.25 48.56 14.37C48.67 12.49 48.37 9.89 47.63 6.58C45.78 9 44.41 10.74 43.52 11.79Z" stroke="#000000" stroke-opacity="0" stroke-width="1.000000"/>
		<mask id="mask45_1869" mask-type="alpha" maskUnits="userSpaceOnUse" x="40.182129" y="6.581055" width="8.404297" height="13.791260">
			<path id="path-35" d="M47.63 6.58C45.78 9 44.41 10.74 43.52 11.79C42.64 12.85 41.52 14.27 40.18 16.04C40.71 16.74 41.14 17.27 41.47 17.64C41.8 18 42.28 18.49 42.93 19.1C43.48 18.97 43.89 18.87 44.15 18.78C44.41 18.7 44.71 18.59 45.06 18.44C45.38 18.84 45.63 19.13 45.82 19.31C46.01 19.48 46.52 19.84 47.36 20.37C48.04 18.25 48.44 16.25 48.56 14.37C48.67 12.49 48.37 9.89 47.63 6.58Z" fill="#FFFFFF" fill-opacity="1.000000" fill-rule="nonzero"/>
		</mask>
		<g mask="url(#mask45_1869)">
			<path id="polygon" d="M40.32 17.2L45.21 17.2L48.21 18.96L47.56 21.1L41.5 18.56L40.32 17.2Z" fill="#113D67" fill-opacity="1.000000" fill-rule="evenodd"/>
			<path id="polygon" d="M45.21 17.2L48.21 18.96L47.56 21.1L41.5 18.56L40.32 17.2L45.21 17.2Z" stroke="#000000" stroke-opacity="0" stroke-width="1.000000"/>
		</g>
		<mask id="mask45_1874" mask-type="alpha" maskUnits="userSpaceOnUse" x="40.182129" y="6.581055" width="8.404297" height="13.791260">
			<path id="path-35" d="M47.63 6.58C45.78 9 44.41 10.74 43.52 11.79C42.64 12.85 41.52 14.27 40.18 16.04C40.71 16.74 41.14 17.27 41.47 17.64C41.8 18 42.28 18.49 42.93 19.1C43.48 18.97 43.89 18.87 44.15 18.78C44.41 18.7 44.71 18.59 45.06 18.44C45.38 18.84 45.63 19.13 45.82 19.31C46.01 19.48 46.52 19.84 47.36 20.37C48.04 18.25 48.44 16.25 48.56 14.37C48.67 12.49 48.37 9.89 47.63 6.58Z" fill="#FFFFFF" fill-opacity="1.000000" fill-rule="nonzero"/>
		</mask>
		<g mask="url(#mask45_1874)">
			<path id="path-15" d="M41.24 13.06C41.41 13.06 42.92 12.98 45.77 12.8L41.5 18.21L39.5 15.85C40.49 13.99 41.07 13.06 41.24 13.06Z" fill="url(#paint_linear_45_1873_0)" fill-opacity="1.000000" fill-rule="evenodd"/>
			<path id="path-15" d="M45.77 12.8L41.5 18.21L39.5 15.85C40.49 13.99 41.07 13.06 41.24 13.06C41.41 13.06 42.92 12.98 45.77 12.8Z" stroke="#000000" stroke-opacity="0" stroke-width="1.000000"/>
		</g>
		<path id="path" d="" fill="#000000" fill-opacity="0" fill-rule="nonzero"/>
		<path id="path" d="M37.93 15.91C38.08 15.37 39.04 14.34 39.53 13.67C43.39 8.38 46.22 5.29 47.61 4.37C49.19 3.31 50.98 12.06 51.47 17.95C51.74 21.14 50.23 23.63 49.73 24.36" stroke="#FFFFFF" stroke-opacity="1.000000" stroke-width="0.600000"/>
		<path id="path-38" d="M37.23 34.84C38.01 36.37 38.7 37.18 39.29 37.27C39.88 37.36 41.48 36.73 44.1 35.36L45.77 33.13C45.52 32.93 45.33 32.77 45.21 32.65C45.1 32.52 44.93 32.31 44.72 32.02C42.88 32.54 41.54 32.96 40.7 33.27C39.86 33.59 38.71 34.11 37.23 34.84Z" fill="#050F1A" fill-opacity="1.000000" fill-rule="nonzero"/>
		<path id="path-38" d="M39.29 37.27C39.88 37.36 41.48 36.73 44.1 35.36L45.77 33.13C45.52 32.93 45.33 32.77 45.21 32.65C45.1 32.52 44.93 32.31 44.72 32.02C42.88 32.54 41.54 32.96 40.7 33.27C39.86 33.59 38.71 34.11 37.23 34.84C38.01 36.37 38.7 37.18 39.29 37.27Z" stroke="#000000" stroke-opacity="0" stroke-width="1.000000"/>
		<mask id="mask45_1883" mask-type="alpha" maskUnits="userSpaceOnUse" x="37.237793" y="32.024414" width="8.537109" height="5.260986">
			<path id="path-38" d="M37.23 34.84C38.01 36.37 38.7 37.18 39.29 37.27C39.88 37.36 41.48 36.73 44.1 35.36L45.77 33.13C45.52 32.93 45.33 32.77 45.21 32.65C45.1 32.52 44.93 32.31 44.72 32.02C42.88 32.54 41.54 32.96 40.7 33.27C39.86 33.59 38.71 34.11 37.23 34.84Z" fill="#FFFFFF" fill-opacity="1.000000" fill-rule="nonzero"/>
		</mask>
		<g mask="url(#mask45_1883)">
			<path id="path-40" d="M40.32 32.94C40.55 34.62 40.94 35.69 41.5 36.14C42.03 36.57 42.83 36.26 43.89 35.21C43.99 35.11 44.02 34.97 43.97 34.84L43.31 33.08C43.21 32.82 42.94 32.65 42.65 32.68L40.32 32.94Z" fill="#092338" fill-opacity="1.000000" fill-rule="nonzero"/>
			<path id="path-40" d="M41.5 36.14C42.03 36.57 42.83 36.26 43.89 35.21C43.99 35.11 44.02 34.97 43.97 34.84L43.31 33.08C43.21 32.82 42.94 32.65 42.65 32.68L40.32 32.94C40.55 34.62 40.94 35.69 41.5 36.14Z" stroke="#000000" stroke-opacity="0" stroke-width="1.000000"/>
			<mask id="mask45_1891" mask-type="alpha" maskUnits="userSpaceOnUse" x="40.321533" y="32.683105" width="3.674072" height="3.650879">
				<path id="path-40" d="M40.32 32.94C40.55 34.62 40.94 35.69 41.5 36.14C42.03 36.57 42.83 36.26 43.89 35.21C43.99 35.11 44.02 34.97 43.97 34.84L43.31 33.08C43.21 32.82 42.94 32.65 42.65 32.68L40.32 32.94Z" fill="#FFFFFF" fill-opacity="1.000000" fill-rule="nonzero"/>
			</mask>
			<g mask="url(#mask45_1891)">
				<path id="mask" d="M42.77 32.02L42.39 34.47C42.33 34.84 42.41 35.22 42.6 35.54L43.4 36.87L45.21 35.34L42.77 32.02Z" fill="#113147" fill-opacity="1.000000" fill-rule="evenodd"/>
				<path id="mask" d="M42.39 34.47C42.33 34.84 42.41 35.22 42.6 35.54L43.4 36.87L45.21 35.34L42.77 32.02L42.39 34.47Z" stroke="#000000" stroke-opacity="0" stroke-width="1.000000"/>
			</g>
			<mask id="mask45_1896" mask-type="alpha" maskUnits="userSpaceOnUse" x="40.321533" y="32.683105" width="3.674072" height="3.650879">
				<path id="path-40" d="M40.32 32.94C40.55 34.62 40.94 35.69 41.5 36.14C42.03 36.57 42.83 36.26 43.89 35.21C43.99 35.11 44.02 34.97 43.97 34.84L43.31 33.08C43.21 32.82 42.94 32.65 42.65 32.68L40.32 32.94Z" fill="#FFFFFF" fill-opacity="1.000000" fill-rule="nonzero"/>
			</mask>
			<g mask="url(#mask45_1896)">
				<path id="path-14" d="M42.18 31.88C42.18 31.97 42.22 32.97 42.3 34.89C42.3 34.96 42.37 35.02 42.44 35.02C42.77 34.96 43.06 34.89 43.26 34.82C43.5 34.74 43.85 34.59 44.32 34.37L43.26 31.72C42.54 31.74 42.18 31.79 42.18 31.88Z" fill="#365E77" fill-opacity="1.000000" fill-rule="evenodd"/>
				<path id="path-14" d="M42.3 34.89C42.3 34.96 42.37 35.02 42.44 35.02C42.77 34.96 43.06 34.89 43.26 34.82C43.5 34.74 43.85 34.59 44.32 34.37L43.26 31.72C42.54 31.74 42.18 31.79 42.18 31.88C42.18 31.97 42.22 32.97 42.3 34.89Z" stroke="#000000" stroke-opacity="0" stroke-width="1.000000"/>
			</g>
		</g>
		<mask id="mask45_1901" mask-type="alpha" maskUnits="userSpaceOnUse" x="36.109619" y="30.139648" width="10.023926" height="8.824707">
			<path id="path-38" d="M37.33 32.57C37.24 34.29 37.42 35.33 37.89 35.71C38.36 36.09 40.06 36.34 43.01 36.46L45.57 35.37C45.45 35.07 45.37 34.83 45.33 34.67C45.29 34.5 45.26 34.24 45.22 33.88C43.36 33.41 41.99 33.1 41.11 32.95C40.23 32.81 38.97 32.68 37.33 32.57Z" fill="#FFFFFF" fill-opacity="1.000000" fill-rule="nonzero"/>
		</mask>
		<g mask="url(#mask45_1901)">
			<g filter="url(#filter_45_1904_dd)">
				<g filter="url(#filter_45_1905_dd)">
					<circle id="path-42" r="1.333333" transform="matrix(0.866025 0.5 -0.5 0.866025 41.5063 33.8855)" fill="#000000" fill-opacity="1.000000"/>
					<circle id="path-42" r="1.333333" transform="matrix(0.866025 0.5 -0.5 0.866025 41.5063 33.8855)" stroke="#000000" stroke-opacity="0" stroke-width="1.000000"/>
				</g>
			</g>
			<circle id="path-42" r="1.333333" transform="matrix(0.866025 0.5 -0.5 0.866025 41.5063 33.8855)" fill="#8BF2FF" fill-opacity="1.000000"/>
			<circle id="path-42" r="1.333333" transform="matrix(0.866025 0.5 -0.5 0.866025 41.5063 33.8855)" stroke="#000000" stroke-opacity="0" stroke-width="1.000000"/>
		</g>
	</g>
</svg>