<svg width="58" height="60" viewBox="0 0 58 60" fill="none" xmlns="http://www.w3.org/2000/svg">
<g filter="url(#filter0_d_8271_7209)">
<path d="M28.8584 7C18.4483 7 10.0081 15.4402 10.0081 25.8504V27.54C10.0081 37.9582 18.4483 46.3984 28.8584 46.3984C39.2686 46.3984 47.7088 37.9582 47.7088 27.548V25.8584C47.7088 15.4402 39.2686 7 28.8584 7Z" fill="#11131A"/>
</g>
<path d="M28.8584 44.7008C39.2692 44.7008 47.7088 36.2612 47.7088 25.8504C47.7088 15.4396 39.2692 7 28.8584 7C18.4477 7 10.0081 15.4396 10.0081 25.8504C10.0081 36.2612 18.4477 44.7008 28.8584 44.7008Z" fill="#0093A5"/>
<path d="M47.7088 25.8504V26.2348C47.5006 16.0008 39.1405 7.76875 28.8584 7.76875C18.5764 7.76875 10.2163 16.0008 10.0081 26.2348C10.0081 26.1066 10.0081 25.9785 10.0081 25.8504C10.0081 15.4402 18.4483 7 28.8584 7C39.2686 7 47.7088 15.4402 47.7088 25.8504Z" fill="#11131A"/>
<path d="M43.6808 26.8834C43.6808 35.0674 37.0423 41.7059 28.8583 41.7059C20.6744 41.7059 14.0359 35.0674 14.0359 26.8834C14.0359 26.7553 14.0359 26.6271 14.0439 26.499C14.2521 34.5068 20.8025 40.9371 28.8664 40.9371C36.9302 40.9371 43.4806 34.5068 43.6808 26.499V26.8834Z" fill="#82F7FF"/>
<path opacity="0.6" d="M43.7129 14.2393L11.8578 34.0186C10.6646 31.5441 10 28.7814 10 25.8506C10 24.9617 10.0641 24.0889 10.1842 23.232L34.8002 7.95312C38.3557 9.13828 41.4467 11.3484 43.7129 14.2393ZM47.5406 23.3041L18.2881 41.4658C20.1299 42.715 22.2039 43.6439 24.4301 44.1805L47.2523 30.0146C47.5566 28.6773 47.7168 27.284 47.7168 25.8506C47.7088 24.9857 47.6527 24.1369 47.5406 23.3041ZM45.7229 17.4184L13.8197 37.2297C14.3402 37.9104 14.9008 38.559 15.5014 39.1676L46.7158 19.7887C46.4355 18.9719 46.1072 18.1871 45.7229 17.4184Z" fill="#7DF7FF"/>
<path d="M28.8584 40.9369C37.0446 40.9369 43.6808 34.3007 43.6808 26.1145C43.6808 17.9282 37.0446 11.292 28.8584 11.292C20.6721 11.292 14.0359 17.9282 14.0359 26.1145C14.0359 34.3007 20.6721 40.9369 28.8584 40.9369Z" fill="url(#paint0_linear_8271_7209)"/>
<path d="M43.6808 26.1145C43.6808 26.3787 43.6728 26.635 43.6648 26.8912C43.2564 19.0676 36.7861 12.8535 28.8583 12.8535C20.9306 12.8535 14.4603 19.0676 14.0519 26.8912C14.0359 26.635 14.0359 26.3707 14.0359 26.1145C14.0359 17.9305 20.6744 11.292 28.8583 11.292C37.0423 11.292 43.6808 17.9305 43.6808 26.1145Z" fill="#58C0C8"/>
<path d="M25.4883 29.8601C25.4883 29.4412 25.6199 29.0868 25.8829 28.7968C26.1459 28.5068 26.4674 28.3618 26.8474 28.3618C27.2273 28.3618 27.5488 28.5068 27.8119 28.7968C28.0749 29.0868 28.2064 29.4412 28.2064 29.8601C28.2064 30.279 28.0749 30.6334 27.8119 30.9234C27.5488 31.2134 27.2273 31.3584 26.8474 31.3584C26.4674 31.3584 26.1459 31.2134 25.8829 30.9234C25.6199 30.6334 25.4883 30.279 25.4883 29.8601ZM20.8632 32.0351C20.644 32.3251 20.3737 32.4701 20.0522 32.4701C19.7599 32.4701 19.5115 32.3573 19.3069 32.1318C19.1023 31.9062 19 31.6323 19 31.3101C19 31.0201 19.0731 30.7865 19.2192 30.6093L24.5458 22.7069C24.7942 22.3363 25.123 22.0382 25.5322 21.8127C25.9414 21.571 26.3798 21.4502 26.8474 21.4502C27.2858 21.4502 27.7023 21.5549 28.0968 21.7644C28.4914 21.9738 28.8129 22.2638 29.0613 22.6344L34.3879 30.4884C34.4756 30.6012 34.5486 30.7301 34.6071 30.8751C34.6655 31.004 34.6948 31.149 34.6948 31.3101C34.6948 31.6323 34.5925 31.9062 34.3879 32.1318C34.1833 32.3573 33.9349 32.4701 33.6426 32.4701C33.2919 32.4701 33.0142 32.317 32.8096 32.0109L27.7023 24.4952C27.6 24.3663 27.4685 24.2293 27.3077 24.0843C27.1616 23.9232 27.0081 23.8427 26.8474 23.8427C26.6866 23.8427 26.5259 23.9232 26.3651 24.0843C26.219 24.2293 26.1021 24.3663 26.0144 24.4952L20.8632 32.0351Z" fill="#82F7FF"/>
<path d="M39 31.3101C39 31.6323 38.8977 31.9062 38.6931 32.1318C38.4885 32.3573 38.2401 32.4701 37.9478 32.4701C37.6556 32.4701 37.4071 32.3573 37.2026 32.1318C36.998 31.9062 36.8957 31.6323 36.8957 31.3101V23.0935C36.8957 22.7713 36.998 22.4974 37.2026 22.2719C37.4071 22.0463 37.6556 21.9335 37.9478 21.9335C38.2401 21.9335 38.4885 22.0463 38.6931 22.2719C38.8977 22.4974 39 22.7713 39 23.0935V31.3101Z" fill="#82F7FF"/>
<path d="M25.4883 28.4099C25.4883 27.991 25.6199 27.6366 25.8829 27.3466C26.1459 27.0566 26.4674 26.9116 26.8474 26.9116C27.2273 26.9116 27.5488 27.0566 27.8119 27.3466C28.0749 27.6366 28.2064 27.991 28.2064 28.4099C28.2064 28.8288 28.0749 29.1833 27.8119 29.4732C27.5488 29.7632 27.2273 29.9082 26.8474 29.9082C26.4674 29.9082 26.1459 29.7632 25.8829 29.4732C25.6199 29.1833 25.4883 28.8288 25.4883 28.4099ZM20.8632 30.5849C20.644 30.8749 20.3737 31.0199 20.0522 31.0199C19.7599 31.0199 19.5115 30.9071 19.3069 30.6816C19.1023 30.456 19 30.1821 19 29.8599C19 29.5699 19.0731 29.3363 19.2192 29.1591L24.5458 21.2567C24.7942 20.8861 25.123 20.5881 25.5322 20.3625C25.9414 20.1208 26.3798 20 26.8474 20C27.2858 20 27.7023 20.1047 28.0968 20.3142C28.4914 20.5236 28.8129 20.8136 29.0613 21.1842L34.3879 29.0383C34.4756 29.151 34.5486 29.2799 34.6071 29.4249C34.6655 29.5538 34.6948 29.6988 34.6948 29.8599C34.6948 30.1821 34.5925 30.456 34.3879 30.6816C34.1833 30.9071 33.9349 31.0199 33.6426 31.0199C33.2919 31.0199 33.0142 30.8668 32.8096 30.5607L27.7023 23.045C27.6 22.9161 27.4685 22.7791 27.3077 22.6341C27.1616 22.473 27.0081 22.3925 26.8474 22.3925C26.6866 22.3925 26.5259 22.473 26.3651 22.6341C26.219 22.7791 26.1021 22.9161 26.0144 23.045L20.8632 30.5849Z" fill="#11131A"/>
<path d="M39 29.8599C39 30.1821 38.8977 30.456 38.6931 30.6816C38.4885 30.9071 38.2401 31.0199 37.9478 31.0199C37.6556 31.0199 37.4071 30.9071 37.2026 30.6816C36.998 30.456 36.8957 30.1821 36.8957 29.8599V21.6433C36.8957 21.3211 36.998 21.0472 37.2026 20.8217C37.4071 20.5961 37.6556 20.4833 37.9478 20.4833C38.2401 20.4833 38.4885 20.5961 38.6931 20.8217C38.8977 21.0472 39 21.3211 39 21.6433V29.8599Z" fill="#11131A"/>
<defs>
<filter id="filter0_d_8271_7209" x="0.00805664" y="0" width="57.7007" height="59.3984" filterUnits="userSpaceOnUse" color-interpolation-filters="sRGB">
<feFlood flood-opacity="0" result="BackgroundImageFix"/>
<feColorMatrix in="SourceAlpha" type="matrix" values="0 0 0 0 0 0 0 0 0 0 0 0 0 0 0 0 0 0 127 0" result="hardAlpha"/>
<feOffset dy="3"/>
<feGaussianBlur stdDeviation="5"/>
<feComposite in2="hardAlpha" operator="out"/>
<feColorMatrix type="matrix" values="0 0 0 0 0.0313726 0 0 0 0 0.733333 0 0 0 0 0.815686 0 0 0 0.5 0"/>
<feBlend mode="normal" in2="BackgroundImageFix" result="effect1_dropShadow_8271_7209"/>
<feBlend mode="normal" in="SourceGraphic" in2="effect1_dropShadow_8271_7209" result="shape"/>
</filter>
<linearGradient id="paint0_linear_8271_7209" x1="23.9998" y1="14.199" x2="31.4998" y2="40.199" gradientUnits="userSpaceOnUse">
<stop stop-color="#BEF8FF"/>
<stop offset="1" stop-color="#08BBD0"/>
</linearGradient>
</defs>
</svg>
