<svg width="120.000000" height="120.000000" viewBox="0 0 120 120" fill="none" xmlns="http://www.w3.org/2000/svg" xmlns:xlink="http://www.w3.org/1999/xlink">
	<rect width="120.000000" height="120.000000" transform="translate(0.000000 0.000004)" fill="#FFFFFF" fill-opacity="0"/>
	<path d="M118.19 74.51C110.17 106.65 77.62 126.21 45.47 118.2C13.34 110.19 -6.23 77.63 1.79 45.49C9.8 13.34 42.36 -6.22 74.49 1.79C106.64 9.8 126.2 42.37 118.19 74.51L118.19 74.51L118.19 74.51Z" fill="#F3BA2F" fill-opacity="1.000000" fill-rule="nonzero"/>
	<path d="M44.4634 53.6166L60 38.08L75.544 53.6234L84.584 44.5834L60 20L35.424 44.576L44.4637 53.616L44.4634 53.6166ZM29.0403 50.9584L20 60L29.0397 69.0384L38.08 59.9981L29.0403 50.9584ZM90.9603 50.9635L81.92 60.0038L90.96 69.0435L100 60.0032L90.9603 50.9635ZM44.4634 66.3843L60 81.92L75.5437 66.377L84.5885 75.4122L84.584 75.417L60 100L35.424 75.424L35.4112 75.4112L44.4634 66.3843Z" clip-rule="evenodd" fill="#FFFFFF" fill-opacity="1.000000" fill-rule="evenodd"/>
	<path d="M69.16 59.99L69.17 59.99L60 50.82L53.22 57.6L52.44 58.37L50.83 59.98L50.82 59.99L50.83 60.01L60 69.17L69.17 60L69.17 59.99L69.16 59.99L69.16 59.99Z" fill="#FFFFFF" fill-opacity="1.000000" fill-rule="nonzero"/>
</svg>
