<svg width="120.000000" height="120.000000" viewBox="0 0 120 120" fill="none" xmlns="http://www.w3.org/2000/svg" xmlns:xlink="http://www.w3.org/1999/xlink">
	<defs>
		<clipPath id="clip416_404">
			<rect width="120.000000" height="120.000000" transform="translate(0.000000 0.000004)" fill="white" fill-opacity="0"/>
		</clipPath>
	</defs>
	<rect width="120.000000" height="120.000000" transform="translate(0.000000 0.000004)" fill="#FFFFFF" fill-opacity="0"/>
	<path d="M118.2 74.51C110.19 106.65 77.63 126.21 45.48 118.2C13.35 110.19 -6.21 77.63 1.81 45.49C9.82 13.34 42.37 -6.22 74.51 1.79C106.65 9.8 126.21 42.37 118.2 74.51L118.2 74.51L118.2 74.51Z" fill="#F7931A" fill-opacity="1.000000" fill-rule="nonzero"/>
	<path d="M73.2668 36.3115C81.5794 39.1747 87.6584 43.4668 86.4642 51.4515L86.4644 51.4509L86.4665 51.4524C85.6025 57.2973 82.3621 60.1268 78.0601 61.119C83.9666 64.1943 86.9724 68.9101 84.1092 77.086C80.5558 87.2409 72.1139 88.0976 60.8868 85.9728L58.1626 96.8923L51.5783 95.2517L54.2673 84.4789C52.5604 84.0548 50.8169 83.6049 49.0203 83.1172L46.3222 93.9411L39.7458 92.3005L42.4703 81.3605C40.9321 80.9672 39.3701 80.549 37.7762 80.1493L29.2082 78.0134L32.477 70.4768C32.477 70.4768 37.3284 71.7666 37.2624 71.671C39.1264 72.1326 39.9535 70.917 40.2793 70.107L44.5848 52.8457C44.8274 52.9038 45.0611 52.9633 45.2808 53.0179C45.018 52.9123 44.7799 52.8448 44.5963 52.7982L47.668 40.4763C47.7481 39.0773 47.266 37.3124 44.5998 36.647C44.7027 36.5781 39.818 35.4583 39.818 35.4583L41.5694 28.4262L50.6489 30.6935L50.6413 30.7275C52.0062 31.0671 53.413 31.3894 54.8453 31.7156L57.5435 20.9031L64.1234 22.5437L61.4792 33.1444C63.2459 33.5477 65.0234 33.9544 66.7543 34.3861L69.3794 23.8549L75.9635 25.4955L73.2668 36.3115ZM57.5068 54.3478C61.9855 55.5431 71.7559 58.1506 73.4574 51.333L73.458 51.333C75.1955 44.3603 65.7004 42.2581 61.063 41.2314C60.5413 41.1159 60.081 41.014 59.7052 40.9203L56.4273 54.0651C56.7368 54.1423 57.0999 54.2392 57.5068 54.3478ZM71.4212 72.5455C69.5544 80.0467 57.8131 76.9455 52.441 75.5266C51.9578 75.399 51.5261 75.285 51.1577 75.1935L54.7732 60.6999C55.2221 60.812 55.7707 60.9351 56.3922 61.0745C61.9489 62.3216 73.3339 64.8766 71.4215 72.5455L71.4212 72.5455Z" clip-rule="evenodd" fill="#FFFFFF" fill-opacity="1.000000" fill-rule="evenodd"/>
	<rect width="120.000000" height="120.000000" transform="translate(0.000000 0.000004)" fill="#FFFFFF" fill-opacity="0"/>
	<g clip-path="url(#clip416_404)">
		<path d="M118.2 74.51C110.19 106.65 77.63 126.21 45.48 118.2C13.35 110.19 -6.21 77.63 1.81 45.49C9.82 13.34 42.37 -6.22 74.51 1.79C106.65 9.8 126.21 42.37 118.2 74.51L118.2 74.51Z" fill="#F7931A" fill-opacity="1.000000" fill-rule="nonzero"/>
		<path d="M86.46 51.45C87.65 43.46 81.57 39.17 73.26 36.31L75.96 25.49L69.37 23.85L66.75 34.38C65.02 33.95 63.24 33.54 61.47 33.14L64.12 22.54L57.54 20.9L54.84 31.71C53.41 31.38 52 31.06 50.64 30.72L50.64 30.69L41.56 28.42L39.81 35.45C39.81 35.45 44.7 36.57 44.59 36.64C47.26 37.31 47.74 39.07 47.66 40.47L44.59 52.79C44.77 52.84 45.01 52.91 45.28 53.01L45.08 52.97L45.08 52.97C44.92 52.92 44.75 52.88 44.58 52.84L40.27 70.1C39.95 70.91 39.12 72.13 37.26 71.67C37.32 71.76 32.47 70.47 32.47 70.47L29.2 78.01L37.77 80.14C38.71 80.38 39.64 80.62 40.55 80.86L40.56 80.86C41.2 81.03 41.83 81.19 42.47 81.36L39.74 92.3L46.32 93.94L49.02 83.11C50.81 83.6 52.56 84.05 54.26 84.47L51.57 95.25L58.16 96.89L60.88 85.97C72.11 88.09 80.55 87.24 84.1 77.08C86.97 68.91 83.96 64.19 78.06 61.11C82.36 60.12 85.6 57.29 86.46 51.45L86.46 51.45L86.46 51.45ZM71.42 72.54C69.55 80.04 57.81 76.94 52.44 75.52C51.95 75.39 51.52 75.28 51.15 75.19L54.77 60.69C55.22 60.81 55.77 60.93 56.39 61.07L56.39 61.07C61.94 62.32 73.33 64.87 71.42 72.54L71.42 72.54ZM57.5 54.34C61.98 55.54 71.75 58.15 73.45 51.33L73.45 51.33C75.19 44.36 65.7 42.25 61.06 41.23C60.54 41.11 60.08 41.01 59.7 40.92L56.42 54.06C56.73 54.14 57.09 54.23 57.5 54.34Z" fill="#FFFFFF" fill-opacity="1.000000" fill-rule="evenodd"/>
	</g>
</svg>
