<svg width="120.000000" height="120.000000" viewBox="0 0 120 120" fill="none" xmlns="http://www.w3.org/2000/svg" xmlns:xlink="http://www.w3.org/1999/xlink">
	<rect width="120.000000" height="120.000000" fill="#FFFFFF" fill-opacity="0"/>
	<path d="M60 0C93.14 0 120 26.86 120 60C120 93.14 93.14 120 60 120C26.86 120 0 93.13 0 60C0 26.86 26.86 0 60 0Z" fill="#F5AC37" fill-opacity="1.000000" fill-rule="nonzero"/>
	<path d="M31.4255 93.0753L31.4255 93.2994L31.4148 93.3075L31.4148 93.3453L57.4402 93.3453C60.386 93.3858 63.321 93.1509 66.2153 92.6325C69.2637 92.0358 72.2336 91.0962 75.0662 89.8218C76.605 89.109 78.0657 88.2099 79.5669 87.3459C80.9656 86.3496 82.3049 85.2696 83.5793 84.122C87.0676 80.9684 89.7678 77.0345 91.4553 72.6469C91.5686 72.1555 92.0493 71.8396 92.5432 71.9341L99.6309 71.9341C100.195 71.9341 100.382 71.7451 100.382 71.1079L100.382 66.5692C100.419 66.1345 100.419 65.6944 100.382 65.2597C100.382 65.1461 100.411 65.0328 100.44 64.9196C100.498 64.694 100.556 64.4692 100.382 64.2444L94.4604 64.2444C93.7449 64.2444 93.7449 64.1688 93.7449 63.5316C93.95 61.2474 93.95 58.9551 93.7449 56.6709C93.707 55.9959 93.8582 55.9959 94.3821 55.9959L99.5581 55.9959C100.16 55.9959 100.384 55.8447 100.384 55.2453L100.384 49.0946C100.346 48.2684 100.346 48.2684 99.4851 48.2684L92.7729 48.2684C92.249 48.3575 91.7468 48.0038 91.6523 47.48C90.8828 45.4685 89.9026 43.5433 88.7229 41.7424C87.5347 39.9658 86.1956 38.2972 84.7104 36.7555C82.7368 34.7844 80.52 33.0726 78.1116 31.6551C74.4802 29.5464 70.5083 28.0695 66.3748 27.3054C64.3687 26.9355 62.3408 26.7114 60.2996 26.6304L32.176 26.6304C31.4255 26.6304 31.4255 26.7816 31.4255 27.381L31.4255 47.5934C31.4255 48.3062 31.2744 48.3062 30.7126 48.3062L22.6504 48.3062C22.051 48.3062 22.051 48.4169 22.051 48.83L22.051 55.4289C22.051 56.0283 22.2373 56.0283 22.6882 56.0283L30.8262 56.0283C31.4255 56.0283 31.4255 56.139 31.4255 56.5899L31.4255 63.6396C31.4255 64.2768 31.2366 64.2768 30.7505 64.2768L22.051 64.2768L22.051 71.4022C22.051 72.0016 22.2373 72.0016 22.6882 72.0016L30.8262 72.0016C31.4255 72.0016 31.4255 72.0745 31.4255 72.5632L31.4255 93.0753ZM83.2148 47.6636C83.2795 47.831 83.2795 48.0173 83.2148 48.1874L83.3958 48.1874C83.3201 48.4115 82.9448 48.4871 82.9448 48.4871L39.6714 48.4871C38.9585 48.4871 38.9585 48.3359 38.9585 47.7743L38.9585 34.4631C38.9585 33.9744 39.0342 33.7503 39.5957 33.7503L59.7327 33.7503C61.8765 33.7314 64.0149 33.9555 66.1074 34.4253C70.2546 35.4082 74.113 37.363 77.3584 40.1251C78.0063 40.6084 78.5842 41.1781 79.0837 41.8126C80.1421 42.8629 81.0708 44.032 81.8594 45.3011C82.3831 46.0436 82.834 46.8347 83.2148 47.6636ZM39.8604 64.2363L85.0103 64.2363C85.4963 64.2363 85.7258 64.2363 85.7607 63.5991C85.9473 61.2798 85.9473 58.947 85.7607 56.625C85.7607 56.1741 85.5369 55.9878 85.0481 55.9878L39.6741 55.9878C39.1125 55.9878 38.9612 56.1741 38.9612 56.7006L38.9612 63.375C38.9612 64.2363 38.9612 64.2363 39.8604 64.2363ZM83.2148 72.0367C82.5776 71.9665 81.9348 71.9665 81.2976 72.0367L39.7119 72.0367C39.1504 72.0367 38.9612 72.0367 38.9612 72.7873L38.9612 85.8015C38.9612 86.4009 38.9612 86.5521 39.7119 86.5521L58.9119 86.5521C59.8298 86.6223 60.7478 86.5575 61.647 86.3658C64.4333 86.166 67.1738 85.5612 69.7876 84.5648C70.7378 84.2354 71.656 83.8061 72.5227 83.2904L72.7844 83.2904C77.2854 80.9495 80.9414 77.2721 83.2471 72.7576C83.2471 72.7576 83.509 72.1906 83.2148 72.0421L83.2148 72.0367Z" clip-rule="evenodd" fill="#FEFEFD" fill-opacity="1.000000" fill-rule="evenodd"/>
</svg>
