<svg width="240.000000" height="240.000000" viewBox="0 0 240 240" fill="none" xmlns="http://www.w3.org/2000/svg" xmlns:xlink="http://www.w3.org/1999/xlink">
	<desc>
			Created with Pixso.
	</desc>
	<defs/>
	<rect id="HOLD" width="240.000000" height="240.000000" fill="#FFFFFF" fill-opacity="0"/>
	<circle id="path" cx="120.000000" cy="120.000000" r="120.000000" fill="#A28CFE" fill-opacity="1.000000"/>
	<path id="path" d="M142.592 88.1421C157.679 104.25 170.58 121.441 179.569 141.327C185.875 155.276 189.723 169.812 189.995 185.173C190.092 190.602 188.775 191.93 183.37 191.938C161.062 191.974 138.752 191.901 116.444 192C112.064 192.019 110.222 190.402 110.184 185.909C110.063 171.904 114.535 160.125 126.007 151.447C132.265 146.713 138.48 141.926 145.837 136.306C142.522 135.953 140.377 135.496 138.24 135.533C121.071 135.831 105.469 141.779 90.9746 150.166C78.5918 157.33 67.0527 165.939 55.1416 173.913C53.7705 174.831 52.4102 175.766 51.0449 176.694C50.6963 176.358 50.3486 176.023 50 175.688C51.1592 173.827 52.2588 171.926 53.4883 170.112C65.2607 152.741 75.5713 134.608 82.4463 114.709C86.3135 103.518 87.7744 92.124 86.2002 80.2241C85.2793 73.2681 85.6982 66.1221 85.7412 59.063C85.7529 56.9712 86.3076 54.8057 87.0059 52.8096C88.8271 47.5991 91.665 46.6968 96.4092 49.7412C113.294 60.5762 128.412 73.5288 142.592 88.1421Z" fill="#020103" fill-opacity="1.000000" fill-rule="nonzero"/>
</svg>
