<svg xmlns="http://www.w3.org/2000/svg" version="1.0" width="512.000000pt" height="512.000000pt" viewBox="0 0 512.000000 512.000000" preserveAspectRatio="xMidYMid meet">

<g transform="translate(0.000000,512.000000) scale(0.100000,-0.100000)" fill="#F42921" stroke="none">
<path d="M2257 5095 c-811 -102 -1515 -568 -1916 -1267 -159 -276 -262 -577 -312 -909 -28 -188 -31 -504 -5 -688 77 -562 313 -1050 701 -1450 417 -429 933 -685 1540 -762 138 -18 482 -15 620 4 862 121 1578 632 1959 1398 115 231 193 472 236 729 28 161 38 487 21 655 -49 484 -231 939 -529 1325 -90 116 -287 316 -405 411 -358 289 -770 471 -1232 545 -139 22 -535 27 -678 9z m-685 -1235 c12 -144 72 -318 151 -443 48 -75 177 -209 253 -263 34 -25 104 -64 155 -88 382 -179 826 -93 1116 217 80 86 116 139 168 250 51 108 81 220 91 335 l7 82 213 0 214 0 0 -62 c0 -168 -53 -376 -139 -553 -199 -406 -550 -676 -1001 -772 -117 -24 -399 -25 -523 0 -398 80 -735 317 -943 663 -120 200 -194 446 -194 647 l0 77 213 -2 212 -3 7 -85z m1104 55 c209 -94 263 -363 108 -535 -45 -49 -138 -97 -208 -105 -64 -8 -158 13 -214 49 -188 119 -213 389 -48 534 104 91 240 112 362 57z m1244 -1855 l0 -230 -1390 0 -1390 0 0 230 0 230 1390 0 1390 0 0 -230z m-1235 -500 c158 -77 233 -278 162 -433 -34 -75 -97 -141 -166 -174 -47 -23 -69 -27 -141 -28 -73 0 -93 4 -142 28 -72 35 -130 93 -165 165 -39 79 -39 191 -2 272 43 93 107 153 198 187 59 22 196 13 256 -17z"/>
</g>
</svg>