<svg width="120.000000" height="120.000008" viewBox="0 0 120 120" fill="none" xmlns="http://www.w3.org/2000/svg" xmlns:xlink="http://www.w3.org/1999/xlink">
	<rect width="120.000000" height="120.000000" fill="#FFFFFF" fill-opacity="0"/>
	<circle cx="60.000000" cy="60.000000" r="60.000000" fill="#EDF0F4" fill-opacity="1.000000"/>
	<path d="M78 47.94C76.72 47.21 75.07 47.21 73.61 47.94L63.38 54.02L56.43 57.88L46.38 63.95C45.1 64.69 43.45 64.69 41.99 63.95L34.13 59.17C32.85 58.43 31.94 56.96 31.94 55.3L31.94 46.1C31.94 44.63 32.67 43.16 34.13 42.24L41.99 37.64C43.27 36.91 44.92 36.91 46.38 37.64L54.24 42.43C55.52 43.16 56.43 44.63 56.43 46.29L56.43 52.36L63.38 48.31L63.38 42.06C63.38 40.59 62.65 39.11 61.18 38.19L46.56 29.55C45.28 28.81 43.64 28.81 42.18 29.55L27.19 38.38C25.73 39.11 25 40.59 25 42.06L25 59.35C25 60.82 25.73 62.29 27.19 63.21L41.99 71.86C43.27 72.6 44.92 72.6 46.38 71.86L56.43 65.97L63.38 61.93L73.43 56.04C74.71 55.3 76.35 55.3 77.82 56.04L85.67 60.64C86.95 61.37 87.87 62.85 87.87 64.5L87.87 73.7C87.87 75.17 87.14 76.64 85.67 77.56L78 82.16C76.72 82.9 75.07 82.9 73.61 82.16L65.75 77.56C64.47 76.83 63.56 75.36 63.56 73.7L63.56 67.81L56.61 71.86L56.61 77.93C56.61 79.4 57.35 80.88 58.81 81.8L73.61 90.44C74.89 91.18 76.54 91.18 78 90.44L92.8 81.8C94.08 81.06 95 79.59 95 77.93L95 60.45C95 58.98 94.26 57.51 92.8 56.59L78 47.94Z" fill="#8247E5" fill-opacity="1.000000" fill-rule="nonzero"/>
</svg>
