<svg width="120.000000" height="120.000000" viewBox="0 0 120 120" fill="none" xmlns="http://www.w3.org/2000/svg" xmlns:xlink="http://www.w3.org/1999/xlink">
	<rect width="120.000000" height="120.000000" fill="#FFFFFF" fill-opacity="0"/>
	<path d="M60 120C93.25 120 120 93.25 120 60C120 26.74 93.25 0 60 0C26.74 0 0 26.74 0 60C0 93.25 26.74 120 60 120Z" fill="#2775CA" fill-opacity="1.000000" fill-rule="nonzero"/>
	<path d="M76.5 69.49C76.5 60.75 71.25 57.75 60.75 56.5C53.25 55.5 51.75 53.5 51.75 49.99C51.75 46.49 54.25 44.25 59.25 44.25C63.75 44.25 66.25 45.75 67.5 49.5C67.75 50.25 68.5 50.74 69.25 50.74L73.24 50.74C74.25 50.74 75 49.99 75 49L75 48.75C73.99 43.24 69.49 39 63.75 38.5L63.75 32.5C63.75 31.5 63 30.75 61.75 30.49L58 30.49C57 30.49 56.25 31.24 55.99 32.5L55.99 38.25C48.49 39.25 43.75 44.25 43.75 50.5C43.75 58.75 48.75 61.99 59.25 63.25C66.25 64.5 68.5 66 68.5 70C68.5 74 64.99 76.75 60.25 76.75C53.74 76.75 51.49 73.99 50.74 70.24C50.5 69.25 49.75 68.74 49 68.74L44.74 68.74C43.75 68.74 43 69.49 43 70.5L43 70.75C43.99 76.99 48 81.49 56.25 82.75L56.25 88.75C56.25 89.74 57 90.49 58.24 90.75L61.99 90.75C63 90.75 63.75 90 64 88.75L64 82.75C71.5 81.49 76.5 76.24 76.5 69.49Z" fill="#FFFFFF" fill-opacity="1.000000" fill-rule="nonzero"/>
	<path d="M47.25 95.7498C27.75 88.7502 17.7498 67.0002 25.0002 47.7498C28.7502 37.2498 37.0002 29.25 47.25 25.5C48.2502 25.0002 48.75 24.2502 48.75 22.9998L48.75 19.5C48.75 18.4998 48.2502 17.7498 47.25 17.5002C46.9998 17.5002 46.5 17.5002 46.2498 17.7498C22.5 25.2498 9.49976 50.5002 16.9998 74.25C21.4998 88.2498 32.25 99 46.2498 103.5C47.25 104 48.2502 103.5 48.4998 102.5C48.75 102.25 48.75 102 48.75 101.5L48.75 97.9998C48.75 97.2498 48 96.2502 47.25 95.7498ZM71.5002 18.75C71.7498 17.7498 72.75 17.25 73.7502 17.7498C87.4998 22.2498 98.5002 33 103 47.25C110.5 70.9998 97.5 96.2502 73.7502 103.75C73.5 104 73.0002 104 72.75 104C71.7498 103.75 71.25 103 71.25 102L71.25 98.5002C71.25 97.2498 71.7498 96.4998 72.75 96C82.9998 92.25 91.2498 84.2502 94.9998 73.7502C102.25 54.4998 92.25 32.7498 72.75 25.7502C72 25.2498 71.25 24.2502 71.25 23.25L71.25 19.7502C71.25 19.2498 71.25 19.0002 71.5002 18.75Z" clip-rule="evenodd" fill="#FFFFFF" fill-opacity="1.000000" fill-rule="evenodd"/>
</svg>
