<svg width="120.000000" height="120.000000" viewBox="0 0 120 120" fill="none" xmlns="http://www.w3.org/2000/svg" xmlns:xlink="http://www.w3.org/1999/xlink">
	<rect width="120.000000" height="120.000000" transform="translate(0.000000 0.000004)" fill="#FFFFFF" fill-opacity="0"/>
	<path d="M118.19 74.51C110.17 106.65 77.62 126.21 45.47 118.2C13.34 110.19 -6.23 77.63 1.79 45.49C9.8 13.34 42.36 -6.22 74.49 1.79C106.64 9.8 126.2 42.37 118.19 74.51L118.19 74.51L118.19 74.51Z" fill="#50AF95" fill-opacity="1.000000" fill-rule="nonzero"/>
	<path d="M67.5924 52.9222L67.5924 52.9256L67.5888 52.922L67.5924 52.9222ZM67.5924 43.7793L67.5924 52.9222C84.5714 53.7074 97.3291 57.0729 97.3291 61.1066C97.3291 65.1405 84.559 68.5063 67.5888 69.2876L67.5888 98.6071L52.4642 98.6071L52.4642 69.2982C35.4551 68.5134 22.6638 65.1476 22.6638 61.1101C22.6638 57.0726 35.4551 53.7034 52.4642 52.922L52.4642 43.7793L31.5378 43.7793L31.5378 29.832L88.5223 29.832L88.5223 43.7793L67.5924 43.7793ZM67.5924 66.8022C67.1681 66.834 64.9761 66.9648 60.0866 66.9648C56.1976 66.9648 53.4364 66.8482 52.4677 66.8022C37.4385 66.1411 26.2205 63.5248 26.2205 60.3924C26.2205 57.26 37.4385 54.6473 52.4677 53.9756L52.4677 64.1966C53.4506 64.2673 56.2648 64.4335 60.1538 64.4335C64.8206 64.4335 67.1575 64.239 67.5782 64.2001L67.5782 53.9827C82.5756 54.6509 93.7689 57.2671 93.7689 60.3924C93.7689 63.5178 82.5792 66.134 67.5782 66.7987L67.5924 66.8022Z" clip-rule="evenodd" fill="#FFFFFF" fill-opacity="1.000000" fill-rule="evenodd"/>
</svg>
